<svg width="111" height="27" viewBox="0 0 111 27" fill="none" xmlns="http://www.w3.org/2000/svg">
<g opacity="0.9" clip-path="url(#clip0_4_2967)">
<path d="M17.0702 1.67998C13.9402 1.71998 7.41021 1.84998 5.38021 2.36998C3.89021 2.76998 2.79021 3.96998 2.39021 5.36998C1.70021 8.06998 1.71021 13.68 1.71021 13.68C1.71021 13.68 1.70021 19.29 2.39021 21.99C2.78021 23.49 3.98021 24.59 5.38021 24.99C8.07021 25.69 18.7802 25.67 18.7802 25.67C18.7802 25.67 29.4802 25.68 32.1802 24.99C33.6802 24.59 34.7702 23.39 35.1702 21.99C35.8602 19.29 35.8502 13.68 35.8502 13.68C35.8502 13.68 35.9602 8.06998 35.1702 5.36998C34.7702 3.86998 33.5802 2.76998 32.1802 2.36998C29.5002 1.66998 18.7902 1.67998 18.7902 1.67998C18.7902 1.67998 18.1202 1.66998 17.0802 1.67998H17.0702ZM89.2802 2.57998V23.86H92.0602L92.3702 22.49H92.4602C92.7602 22.99 93.1702 23.37 93.6702 23.67C94.1702 23.97 94.7502 24.07 95.3502 24.07C96.4502 24.07 97.3402 23.58 97.8402 22.48C98.3402 21.38 98.6502 19.78 98.6502 17.58V15.18C98.6502 13.58 98.5402 12.28 98.3402 11.28C98.1402 10.39 97.8402 9.68998 97.3402 9.18998C96.8402 8.78998 96.2402 8.59998 95.4402 8.59998C94.8502 8.59998 94.2602 8.78998 93.7602 9.08998C93.2702 9.38998 92.7502 9.88998 92.5502 10.49V2.58998H89.2702L89.2802 2.57998ZM39.2902 3.35998L43.1902 17.26L43.3702 23.97H46.6802V17.26L50.5502 3.35998H47.1802L45.7802 9.66998C45.3802 11.56 45.0702 12.86 44.9702 13.66H44.8802C44.6802 12.56 44.3702 11.26 44.0702 9.66998L42.7002 3.35998H39.3002H39.2902ZM68.8802 3.35998V6.06998H72.2802V23.97H75.5602V6.06998H78.9602C78.9602 6.06998 78.9602 3.35998 78.8702 3.35998H68.8802ZM15.3902 8.47998L24.2902 13.66L15.3902 18.75V8.46998V8.47998ZM104.79 8.56998C103.09 8.56998 101.9 9.15998 101.2 10.16C100.51 11.15 100.21 12.76 100.21 15.06V17.65C100.21 19.85 100.51 21.55 101.2 22.55C101.9 23.65 103 24.14 104.7 24.14C106.1 24.14 107.08 23.84 107.88 23.14C108.58 22.44 108.97 21.45 108.97 20.05V19.55L106.07 19.34C106.07 20.34 105.99 20.94 105.79 21.34C105.69 21.74 105.29 21.96 104.79 21.96C104.49 21.96 104.18 21.85 103.98 21.65C103.78 21.35 103.68 21.06 103.58 20.56C103.48 20.06 103.49 19.35 103.49 18.35V17.57L109.2 17.48V14.86C109.2 13.26 109.1 12.08 108.8 11.18C108.6 10.29 108.09 9.58998 107.49 9.18998C106.79 8.78998 106.01 8.59998 104.81 8.59998L104.79 8.56998ZM54.3002 8.65998C53.2102 8.65998 52.2902 8.83998 51.5902 9.33998C50.8902 9.73998 50.3902 10.46 50.1002 11.46C49.8002 12.46 49.6002 13.73 49.6002 15.33V17.54C49.6002 19.04 49.7002 20.32 50.0002 21.32C50.2002 22.22 50.7002 22.94 51.4002 23.44C52.0902 23.94 53.1102 24.12 54.2102 24.22C55.4002 24.22 56.2902 23.94 56.9902 23.54C57.6802 23.14 58.0802 22.45 58.4802 21.45C58.8702 20.45 58.9702 19.15 58.9702 17.55V15.34C58.9702 13.74 58.7702 12.47 58.4802 11.47C58.1802 10.58 57.6802 9.84998 56.9902 9.34998C56.2902 8.84998 55.4102 8.66998 54.3102 8.66998L54.3002 8.65998ZM66.4802 8.74998V20.65C66.3802 20.95 66.1902 21.13 65.8902 21.33C65.6902 21.53 65.3802 21.64 65.0802 21.64C64.7802 21.64 64.5002 21.54 64.4002 21.24C64.3002 20.94 64.2202 20.54 64.2202 19.84V8.84998H60.8202V20.06C60.8202 21.46 61.0002 22.45 61.5002 23.15C61.9902 23.85 62.7102 24.15 63.7102 24.15C65.1102 24.15 66.1902 23.46 66.8902 22.06H66.9802L67.2902 23.84H69.8802V8.84998C69.8802 8.84998 66.4802 8.84998 66.4802 8.75998V8.74998ZM83.7902 8.74998V20.65C83.6902 20.95 83.5002 21.13 83.2002 21.33C83.0002 21.53 82.6902 21.64 82.3902 21.64C82.0902 21.64 81.8102 21.54 81.7102 21.24C81.6102 20.94 81.5002 20.54 81.5002 19.84V8.84998H78.1002V20.06C78.1002 21.46 78.3102 22.45 78.8102 23.15C79.3102 23.85 79.9902 24.15 80.9902 24.15C82.3802 24.15 83.5002 23.46 84.2002 22.06H84.2902L84.5702 23.84H87.1902V8.84998C87.1902 8.84998 83.7902 8.84998 83.7902 8.75998V8.74998ZM104.69 10.84C105.09 10.84 105.27 10.95 105.47 11.15C105.67 11.45 105.77 11.74 105.87 12.24C105.97 12.74 105.96 13.45 105.96 14.45V15.54H103.46V14.45C103.46 13.45 103.46 12.74 103.55 12.24C103.55 11.84 103.66 11.44 103.86 11.24C104.06 10.94 104.37 10.84 104.67 10.84H104.69ZM54.2002 10.96C54.7002 10.96 55.0002 11.14 55.2002 11.64C55.3902 12.14 55.4802 12.94 55.4802 14.04V18.72C55.4802 19.82 55.4002 20.62 55.2002 21.12C55.0002 21.62 54.7002 21.8 54.2002 21.8C53.7002 21.8 53.4102 21.62 53.2102 21.12C53.0102 20.62 52.9002 19.82 52.9002 18.72V14.04C52.9002 12.94 53.0102 12.14 53.2102 11.64C53.4102 11.14 53.7002 10.96 54.2002 10.96ZM93.8802 11.05C94.1802 11.05 94.4902 11.15 94.6902 11.45C94.8902 11.75 94.9602 12.12 95.0602 12.82C95.1602 13.42 95.1802 14.33 95.1802 15.53L95.2702 17.43C95.2702 18.53 95.2702 19.42 95.1802 20.02C95.0802 20.62 94.9902 21.1 94.6902 21.3C94.4902 21.6 94.1902 21.7 93.7902 21.7C93.4902 21.7 93.2802 21.62 92.9802 21.52C92.7802 21.42 92.5902 21.23 92.3902 20.93V12.43C92.4902 12.03 92.6802 11.73 92.9802 11.43C93.2802 11.13 93.5802 11.03 93.8802 11.03V11.05Z" fill="white" stroke="black" stroke-opacity="0.15" stroke-width="2"/>
<path d="M17.0702 1.67998C13.9402 1.71998 7.41021 1.84998 5.38021 2.36998C3.89021 2.76998 2.79021 3.96998 2.39021 5.36998C1.70021 8.06998 1.71021 13.68 1.71021 13.68C1.71021 13.68 1.70021 19.29 2.39021 21.99C2.78021 23.49 3.98021 24.59 5.38021 24.99C8.07021 25.69 18.7802 25.67 18.7802 25.67C18.7802 25.67 29.4802 25.68 32.1802 24.99C33.6802 24.59 34.7702 23.39 35.1702 21.99C35.8602 19.29 35.8502 13.68 35.8502 13.68C35.8502 13.68 35.9602 8.06998 35.1702 5.36998C34.7702 3.86998 33.5802 2.76998 32.1802 2.36998C29.5002 1.66998 18.7902 1.67998 18.7902 1.67998C18.7902 1.67998 18.1202 1.66998 17.0802 1.67998H17.0702ZM89.2802 2.57998V23.86H92.0602L92.3702 22.49H92.4602C92.7602 22.99 93.1702 23.37 93.6702 23.67C94.1702 23.97 94.7502 24.07 95.3502 24.07C96.4502 24.07 97.3402 23.58 97.8402 22.48C98.3402 21.38 98.6502 19.78 98.6502 17.58V15.18C98.6502 13.58 98.5402 12.28 98.3402 11.28C98.1402 10.39 97.8402 9.68998 97.3402 9.18998C96.8402 8.78998 96.2402 8.59998 95.4402 8.59998C94.8502 8.59998 94.2602 8.78998 93.7602 9.08998C93.2702 9.38998 92.7502 9.88998 92.5502 10.49V2.58998H89.2702L89.2802 2.57998ZM39.2902 3.35998L43.1902 17.26L43.3702 23.97H46.6802V17.26L50.5502 3.35998H47.1802L45.7802 9.66998C45.3802 11.56 45.0702 12.86 44.9702 13.66H44.8802C44.6802 12.56 44.3702 11.26 44.0702 9.66998L42.7002 3.35998H39.3002H39.2902ZM68.8802 3.35998V6.06998H72.2802V23.97H75.5602V6.06998H78.9602C78.9602 6.06998 78.9602 3.35998 78.8702 3.35998H68.8802ZM15.3902 8.47998L24.2902 13.66L15.3902 18.75V8.46998V8.47998ZM104.79 8.56998C103.09 8.56998 101.9 9.15998 101.2 10.16C100.51 11.15 100.21 12.76 100.21 15.06V17.65C100.21 19.85 100.51 21.55 101.2 22.55C101.9 23.65 103 24.14 104.7 24.14C106.1 24.14 107.08 23.84 107.88 23.14C108.58 22.44 108.97 21.45 108.97 20.05V19.55L106.07 19.34C106.07 20.34 105.99 20.94 105.79 21.34C105.69 21.74 105.29 21.96 104.79 21.96C104.49 21.96 104.18 21.85 103.98 21.65C103.78 21.35 103.68 21.06 103.58 20.56C103.48 20.06 103.49 19.35 103.49 18.35V17.57L109.2 17.48V14.86C109.2 13.26 109.1 12.08 108.8 11.18C108.6 10.29 108.09 9.58998 107.49 9.18998C106.79 8.78998 106.01 8.59998 104.81 8.59998L104.79 8.56998ZM54.3002 8.65998C53.2102 8.65998 52.2902 8.83998 51.5902 9.33998C50.8902 9.73998 50.3902 10.46 50.1002 11.46C49.8002 12.46 49.6002 13.73 49.6002 15.33V17.54C49.6002 19.04 49.7002 20.32 50.0002 21.32C50.2002 22.22 50.7002 22.94 51.4002 23.44C52.0902 23.94 53.1102 24.12 54.2102 24.22C55.4002 24.22 56.2902 23.94 56.9902 23.54C57.6802 23.14 58.0802 22.45 58.4802 21.45C58.8702 20.45 58.9702 19.15 58.9702 17.55V15.34C58.9702 13.74 58.7702 12.47 58.4802 11.47C58.1802 10.58 57.6802 9.84998 56.9902 9.34998C56.2902 8.84998 55.4102 8.66998 54.3102 8.66998L54.3002 8.65998ZM66.4802 8.74998V20.65C66.3802 20.95 66.1902 21.13 65.8902 21.33C65.6902 21.53 65.3802 21.64 65.0802 21.64C64.7802 21.64 64.5002 21.54 64.4002 21.24C64.3002 20.94 64.2202 20.54 64.2202 19.84V8.84998H60.8202V20.06C60.8202 21.46 61.0002 22.45 61.5002 23.15C61.9902 23.85 62.7102 24.15 63.7102 24.15C65.1102 24.15 66.1902 23.46 66.8902 22.06H66.9802L67.2902 23.84H69.8802V8.84998C69.8802 8.84998 66.4802 8.84998 66.4802 8.75998V8.74998ZM83.7902 8.74998V20.65C83.6902 20.95 83.5002 21.13 83.2002 21.33C83.0002 21.53 82.6902 21.64 82.3902 21.64C82.0902 21.64 81.8102 21.54 81.7102 21.24C81.6102 20.94 81.5002 20.54 81.5002 19.84V8.84998H78.1002V20.06C78.1002 21.46 78.3102 22.45 78.8102 23.15C79.3102 23.85 79.9902 24.15 80.9902 24.15C82.3802 24.15 83.5002 23.46 84.2002 22.06H84.2902L84.5702 23.84H87.1902V8.84998C87.1902 8.84998 83.7902 8.84998 83.7902 8.75998V8.74998ZM104.69 10.84C105.09 10.84 105.27 10.95 105.47 11.15C105.67 11.45 105.77 11.74 105.87 12.24C105.97 12.74 105.96 13.45 105.96 14.45V15.54H103.46V14.45C103.46 13.45 103.46 12.74 103.55 12.24C103.55 11.84 103.66 11.44 103.86 11.24C104.06 10.94 104.37 10.84 104.67 10.84H104.69ZM54.2002 10.96C54.7002 10.96 55.0002 11.14 55.2002 11.64C55.3902 12.14 55.4802 12.94 55.4802 14.04V18.72C55.4802 19.82 55.4002 20.62 55.2002 21.12C55.0002 21.62 54.7002 21.8 54.2002 21.8C53.7002 21.8 53.4102 21.62 53.2102 21.12C53.0102 20.62 52.9002 19.82 52.9002 18.72V14.04C52.9002 12.94 53.0102 12.14 53.2102 11.64C53.4102 11.14 53.7002 10.96 54.2002 10.96ZM93.8802 11.05C94.1802 11.05 94.4902 11.15 94.6902 11.45C94.8902 11.75 94.9602 12.12 95.0602 12.82C95.1602 13.42 95.1802 14.33 95.1802 15.53L95.2702 17.43C95.2702 18.53 95.2702 19.42 95.1802 20.02C95.0802 20.62 94.9902 21.1 94.6902 21.3C94.4902 21.6 94.1902 21.7 93.7902 21.7C93.4902 21.7 93.2802 21.62 92.9802 21.52C92.7802 21.42 92.5902 21.23 92.3902 20.93V12.43C92.4902 12.03 92.6802 11.73 92.9802 11.43C93.2802 11.13 93.5802 11.03 93.8802 11.03V11.05Z" fill="white"/>
</g>
<defs>
<clipPath id="clip0_4_2967">
<rect width="110" height="26" fill="white" transform="translate(0.390137 0.690002)"/>
</clipPath>
</defs>
</svg>
