<svg width="37" height="37" viewBox="0 0 37 37" fill="none" xmlns="http://www.w3.org/2000/svg">
<g clip-path="url(#clip0_4_2977)">
<path d="M22.2902 8.98999H11.6902C10.7902 8.98999 9.99023 9.78999 9.99023 10.69V22.99H11.6902V10.69H22.2902V8.98999ZM24.9902 12.49H15.2902C14.2902 12.49 13.4902 13.29 13.4902 14.29V26.59C13.4902 27.59 14.2902 28.39 15.2902 28.39H24.9902C25.9902 28.39 26.7902 27.59 26.7902 26.59V14.19C26.6902 13.29 25.8902 12.49 24.9902 12.49ZM24.9902 26.59H15.2902V14.19H24.9902V26.59Z" fill="white" stroke="black" stroke-opacity="0.15" stroke-width="2"/>
<path d="M22.2902 8.98999H11.6902C10.7902 8.98999 9.99023 9.78999 9.99023 10.69V22.99H11.6902V10.69H22.2902V8.98999ZM24.9902 12.49H15.2902C14.2902 12.49 13.4902 13.29 13.4902 14.29V26.59C13.4902 27.59 14.2902 28.39 15.2902 28.39H24.9902C25.9902 28.39 26.7902 27.59 26.7902 26.59V14.19C26.6902 13.29 25.8902 12.49 24.9902 12.49ZM24.9902 26.59H15.2902V14.19H24.9902V26.59Z" fill="white"/>
</g>
<defs>
<clipPath id="clip0_4_2977">
<rect width="36" height="36" fill="white" transform="translate(0.390137 0.690002)"/>
</clipPath>
</defs>
</svg>
