<svg width="14" height="15" viewBox="0 0 14 15" fill="none" xmlns="http://www.w3.org/2000/svg">
<g clip-path="url(#clip0_4_3020)">
<path d="M5.82721 3.54109C6.27827 3.06712 6.90623 2.77317 7.60074 2.77317C8.52398 2.77317 9.32951 3.29235 9.75843 4.06309C10.1312 3.89511 10.5438 3.80169 10.978 3.80169C12.6431 3.80169 13.9931 5.17498 13.9931 6.86895C13.9931 8.56313 12.6431 9.93641 10.978 9.93641C10.7747 9.93641 10.5761 9.91594 10.384 9.87674C10.0063 10.5563 9.28646 11.0153 8.46023 11.0153C8.11437 11.0153 7.78723 10.9348 7.49598 10.7915C7.11302 11.6999 6.22087 12.3368 5.1811 12.3368C4.09829 12.3368 3.17545 11.6459 2.82122 10.6768C2.66641 10.71 2.50603 10.7272 2.34147 10.7272C1.05224 10.7272 0.00708008 9.66236 0.00708008 8.34852C0.00708008 7.4681 0.476667 6.69937 1.17437 6.28809C1.03073 5.95476 0.950836 5.58687 0.950836 5.2001C0.950836 3.68917 2.16714 2.46436 3.66735 2.46436C4.54815 2.46436 5.33093 2.88669 5.82721 3.54109Z" fill="#00A1E0"/>
<path d="M2.0327 7.58438C2.02393 7.60749 2.03589 7.61231 2.03868 7.61633C2.06498 7.63562 2.09168 7.64948 2.11857 7.66495C2.26122 7.7413 2.3959 7.76361 2.53675 7.76361C2.82365 7.76361 3.00176 7.6097 3.00176 7.36196V7.35714C3.00176 7.12809 2.80074 7.04491 2.61207 6.98483L2.58756 6.9768C2.44531 6.93018 2.32258 6.89 2.32258 6.79557V6.79054C2.32258 6.70977 2.3943 6.6503 2.50548 6.6503C2.629 6.6503 2.77564 6.69169 2.87007 6.74433C2.87007 6.74433 2.89776 6.76241 2.90792 6.73529C2.9135 6.72082 2.96132 6.59103 2.9663 6.57696C2.97168 6.5617 2.96212 6.55044 2.95235 6.54442C2.84457 6.47831 2.69554 6.43311 2.54134 6.43311L2.51265 6.4333C2.25006 6.4333 2.06677 6.59324 2.06677 6.82249V6.82731C2.06677 7.06902 2.26899 7.14738 2.45846 7.20203L2.48894 7.21147C2.62701 7.25427 2.74595 7.29104 2.74595 7.38909V7.39391C2.74595 7.48352 2.66865 7.55022 2.54393 7.55022C2.49552 7.55022 2.34111 7.54922 2.17436 7.44293C2.15423 7.43108 2.14248 7.42244 2.12694 7.41299C2.11877 7.40777 2.09825 7.39873 2.08929 7.42606L2.0327 7.58438Z" fill="white"/>
<path d="M6.23268 7.58438C6.22387 7.60749 6.23583 7.61231 6.23863 7.61633C6.26494 7.63562 6.29165 7.64948 6.31854 7.66495C6.46117 7.7413 6.59586 7.76361 6.73674 7.76361C7.02362 7.76361 7.20171 7.6097 7.20171 7.36196V7.35714C7.20171 7.12809 7.00069 7.04491 6.81204 6.98483L6.78749 6.9768C6.64527 6.93018 6.52254 6.89 6.52254 6.79557V6.79054C6.52254 6.70977 6.59429 6.6503 6.70541 6.6503C6.82896 6.6503 6.97561 6.69169 7.07005 6.74433C7.07005 6.74433 7.0977 6.76241 7.10785 6.73529C7.11345 6.72082 7.16129 6.59103 7.16624 6.57696C7.17161 6.5617 7.16204 6.55044 7.1523 6.54442C7.0445 6.47831 6.89552 6.43311 6.74129 6.43311L6.71259 6.4333C6.45003 6.4333 6.26674 6.59324 6.26674 6.82249V6.82731C6.26674 7.06902 6.46893 7.14738 6.65839 7.20203L6.6889 7.21147C6.82698 7.25427 6.94609 7.29104 6.94609 7.38909V7.39391C6.94609 7.48352 6.86863 7.55022 6.74391 7.55022C6.69549 7.55022 6.54109 7.54922 6.37431 7.44293C6.35419 7.43108 6.34223 7.42284 6.32712 7.41299C6.32193 7.40958 6.2976 7.40014 6.28926 7.42606L6.23268 7.58438Z" fill="white"/>
<path d="M9.10003 7.09876C9.10003 7.2388 9.07413 7.34911 9.02314 7.42706C8.97274 7.50422 8.89639 7.54179 8.79004 7.54179C8.68341 7.54179 8.60752 7.50442 8.55794 7.42706C8.50771 7.34931 8.48222 7.2388 8.48222 7.09876C8.48222 6.95892 8.50771 6.84881 8.55794 6.77166C8.60752 6.69531 8.68341 6.65814 8.79004 6.65814C8.89639 6.65814 8.97275 6.69531 9.02332 6.77166C9.07413 6.84881 9.10003 6.95892 9.10003 7.09876ZM9.33949 6.83917C9.31598 6.759 9.27934 6.68828 9.23052 6.62941C9.18169 6.57033 9.11992 6.52292 9.04665 6.48836C8.9735 6.454 8.88705 6.43652 8.79004 6.43652C8.6928 6.43652 8.60635 6.454 8.5332 6.48836C8.45988 6.52292 8.39816 6.57033 8.3491 6.62941C8.30051 6.68848 8.26388 6.7592 8.24014 6.83917C8.21686 6.91893 8.20508 7.00614 8.20508 7.09876C8.20508 7.19139 8.21686 7.27878 8.24014 7.35835C8.26388 7.43832 8.30034 7.50904 8.34934 7.56811C8.39816 7.62718 8.46011 7.6744 8.5332 7.70795C8.60653 7.7415 8.6928 7.75858 8.79004 7.75858C8.88705 7.75858 8.97333 7.7415 9.04665 7.70795C9.11974 7.6744 9.18169 7.62718 9.23052 7.56811C9.27934 7.50924 9.31598 7.43852 9.33949 7.35835C9.363 7.27858 9.37478 7.19118 9.37478 7.09876C9.37478 7.00633 9.363 6.91893 9.33949 6.83917Z" fill="white"/>
<path d="M11.306 7.50465C11.298 7.48114 11.2755 7.48998 11.2755 7.48998C11.2406 7.50344 11.2036 7.5159 11.1642 7.52213C11.1241 7.52836 11.0801 7.53157 11.0329 7.53157C10.9169 7.53157 10.8248 7.49681 10.7589 7.42809C10.6928 7.35938 10.6557 7.24827 10.6561 7.09798C10.6565 6.96115 10.6892 6.85828 10.748 6.77992C10.8064 6.70197 10.8952 6.66199 11.0137 6.66199C11.1125 6.66199 11.1879 6.67344 11.2668 6.69855C11.2668 6.69855 11.2857 6.70679 11.2947 6.68188C11.3155 6.62321 11.3311 6.58121 11.3534 6.51672C11.3598 6.49844 11.3442 6.4906 11.3387 6.48839C11.3076 6.47613 11.2343 6.45624 11.1789 6.4478C11.1271 6.43976 11.0665 6.43555 10.9992 6.43555C10.8986 6.43555 10.8089 6.45283 10.7322 6.48738C10.6557 6.52174 10.5908 6.56916 10.5394 6.62823C10.488 6.6873 10.4489 6.75803 10.4228 6.83799C10.3969 6.91776 10.3838 7.00536 10.3838 7.09798C10.3838 7.2983 10.4373 7.46024 10.5432 7.57879C10.6491 7.69773 10.8083 7.75821 11.0159 7.75821C11.1386 7.75821 11.2646 7.7331 11.355 7.69713C11.355 7.69713 11.3724 7.68869 11.3648 7.6684L11.306 7.50465Z" fill="white"/>
<path d="M11.7249 6.96455C11.7363 6.88679 11.7576 6.82209 11.7905 6.77166C11.8401 6.69511 11.9158 6.65312 12.0222 6.65312C12.1286 6.65312 12.1989 6.69531 12.2493 6.77166C12.2828 6.82209 12.2973 6.8896 12.3031 6.96455H11.7249ZM12.5312 6.79356C12.5109 6.7162 12.4605 6.63805 12.4274 6.60228C12.3752 6.54562 12.3242 6.50604 12.2736 6.48394C12.2075 6.45541 12.1282 6.43652 12.0413 6.43652C11.9401 6.43652 11.8482 6.4536 11.7737 6.48897C11.699 6.52433 11.6363 6.57255 11.5871 6.63262C11.5378 6.6925 11.5008 6.76383 11.4773 6.84479C11.4536 6.92536 11.4417 7.01317 11.4417 7.10579C11.4417 7.20003 11.454 7.28783 11.4785 7.36679C11.5032 7.44636 11.5426 7.51647 11.596 7.57454C11.6492 7.63301 11.7177 7.67882 11.7998 7.71076C11.8813 7.74251 11.9804 7.75899 12.0941 7.75878C12.3282 7.75798 12.4515 7.70534 12.5023 7.67701C12.5113 7.67199 12.5199 7.66315 12.5091 7.63783L12.4561 7.48815C12.4481 7.46584 12.4256 7.47408 12.4256 7.47408C12.3676 7.49578 12.2852 7.53476 12.0929 7.53436C11.9672 7.53415 11.874 7.49678 11.8156 7.43832C11.7556 7.37844 11.7263 7.29044 11.7211 7.16627L12.5318 7.16707C12.5318 7.16707 12.5531 7.16667 12.5554 7.14578C12.5561 7.13693 12.5832 6.9778 12.5312 6.79356Z" fill="white"/>
<path d="M5.23277 6.96455C5.24433 6.88679 5.26544 6.82209 5.29831 6.77166C5.34793 6.69511 5.42363 6.65312 5.53002 6.65312C5.63641 6.65312 5.70674 6.69531 5.75734 6.77166C5.79061 6.82209 5.80516 6.8896 5.81094 6.96455H5.23277ZM6.03888 6.79356C6.01853 6.7162 5.9683 6.63805 5.93528 6.60228C5.88308 6.54562 5.83206 6.50604 5.78145 6.48394C5.7153 6.45541 5.63601 6.43652 5.54915 6.43652C5.44814 6.43652 5.35609 6.4536 5.28158 6.48897C5.20687 6.52433 5.14411 6.57255 5.0949 6.63262C5.04569 6.6925 5.00864 6.76383 4.98512 6.84479C4.96161 6.92536 4.94946 7.01317 4.94946 7.10579C4.94946 7.20003 4.96181 7.28783 4.98632 7.36679C5.01102 7.44636 5.05047 7.51647 5.10387 7.57454C5.15706 7.63301 5.2256 7.67882 5.30768 7.71076C5.38916 7.74251 5.48818 7.75899 5.60194 7.75878C5.83606 7.75798 5.95938 7.70534 6.01018 7.67701C6.01911 7.67199 6.02768 7.66315 6.01695 7.63783L5.96416 7.48815C5.95599 7.46584 5.93348 7.47408 5.93348 7.47408C5.87549 7.49578 5.79321 7.53476 5.60055 7.53436C5.47503 7.53415 5.38179 7.49678 5.32342 7.43832C5.26345 7.37844 5.23416 7.29044 5.22898 7.16627L6.03964 7.16707C6.03964 7.16707 6.06099 7.16667 6.06315 7.14578C6.06397 7.13693 6.09103 6.9778 6.03888 6.79356Z" fill="white"/>
<path d="M3.48044 7.50023C3.44877 7.47471 3.44438 7.46828 3.43362 7.45181C3.41769 7.42669 3.40951 7.39093 3.40951 7.34552C3.40951 7.27359 3.43302 7.22195 3.48184 7.1872C3.48124 7.18739 3.55157 7.12591 3.71693 7.12812C3.83308 7.12973 3.93688 7.14701 3.93688 7.14701V7.51872C3.93688 7.51872 3.83408 7.54102 3.71813 7.54805C3.55316 7.5581 3.47985 7.50002 3.48044 7.50023ZM3.803 6.92579C3.77013 6.92338 3.72749 6.92198 3.67648 6.92198C3.60696 6.92198 3.53981 6.93081 3.47685 6.94789C3.4135 6.96497 3.35652 6.9917 3.30751 7.02706C3.2583 7.06262 3.21865 7.10803 3.18997 7.16188C3.16128 7.21573 3.14673 7.27922 3.14673 7.35034C3.14673 7.42268 3.15908 7.48556 3.18379 7.537C3.20849 7.58863 3.24415 7.63163 3.28958 7.66478C3.3346 7.69793 3.39019 7.72225 3.45474 7.73691C3.51829 7.75158 3.59042 7.75901 3.66931 7.75901C3.75239 7.75901 3.83527 7.75218 3.91556 7.73832C3.99505 7.72466 4.09268 7.70476 4.11978 7.69854C4.14667 7.6921 4.17656 7.68387 4.17656 7.68387C4.19668 7.67885 4.19508 7.65715 4.19508 7.65715L4.19469 6.90952C4.19469 6.74557 4.15125 6.62401 4.06578 6.54867C3.98071 6.47352 3.8554 6.43555 3.69342 6.43555C3.63266 6.43555 3.53483 6.44399 3.47626 6.45584C3.47626 6.45584 3.29914 6.4904 3.22623 6.54786C3.22623 6.54786 3.21028 6.55791 3.21905 6.58041L3.27643 6.73592C3.2836 6.75602 3.30293 6.74918 3.30293 6.74918C3.30293 6.74918 3.30911 6.74677 3.31627 6.74256C3.47228 6.65696 3.66951 6.65958 3.66951 6.65958C3.75718 6.65958 3.82452 6.67726 3.86994 6.71241C3.91417 6.74657 3.93668 6.79821 3.93668 6.90711V6.94166C3.86695 6.93162 3.803 6.92579 3.803 6.92579Z" fill="white"/>
<path d="M10.3412 6.50432C10.3474 6.48584 10.3345 6.47699 10.3291 6.47499C10.3153 6.46956 10.2465 6.4549 10.1933 6.45148C10.0915 6.44525 10.0349 6.46253 9.98425 6.48543C9.93402 6.50834 9.87826 6.54531 9.84717 6.5873V6.48784C9.84717 6.47398 9.83742 6.46293 9.82389 6.46293H9.61605C9.60252 6.46293 9.59277 6.47398 9.59277 6.48784V7.70724C9.59277 7.7209 9.60391 7.73215 9.61745 7.73215H9.83042C9.84402 7.73215 9.85498 7.7209 9.85498 7.70724V7.09805C9.85498 7.01627 9.86391 6.93469 9.88187 6.88346C9.89937 6.83283 9.92329 6.79224 9.95275 6.76311C9.98244 6.73417 10.0162 6.71389 10.053 6.70243C10.0906 6.69077 10.1323 6.68696 10.1618 6.68696C10.2042 6.68696 10.2508 6.69801 10.2508 6.69801C10.2663 6.69982 10.2752 6.69017 10.2803 6.67591C10.2942 6.63854 10.3337 6.52662 10.3412 6.50432Z" fill="white"/>
<path d="M8.34223 5.93935C8.31633 5.93131 8.29282 5.92589 8.26214 5.92006C8.23105 5.91444 8.19401 5.91162 8.15195 5.91162C8.0053 5.91162 7.88974 5.95342 7.80866 6.0358C7.72798 6.11777 7.67321 6.24254 7.64573 6.4067L7.63576 6.46195H7.45166C7.45166 6.46195 7.42931 6.46114 7.42453 6.48566L7.39449 6.65584C7.39227 6.67191 7.39927 6.68216 7.4208 6.68216H7.59988L7.41817 7.70525C7.40406 7.78763 7.38772 7.85533 7.36958 7.90677C7.35185 7.95741 7.33452 7.99538 7.313 8.02311C7.29229 8.04963 7.27275 8.06932 7.23886 8.08077C7.21097 8.09021 7.17871 8.09463 7.14342 8.09463C7.12394 8.09463 7.09781 8.09142 7.0785 8.0874C7.05936 8.08358 7.04921 8.07936 7.03469 8.07313C7.03469 8.07313 7.01375 8.06509 7.00535 8.08619C6.99881 8.10368 6.95098 8.23608 6.94521 8.25236C6.93961 8.26863 6.9476 8.28129 6.95775 8.2851C6.98166 8.29355 6.9994 8.29915 7.03189 8.30703C7.07692 8.31764 7.11496 8.31828 7.1506 8.31828C7.22515 8.31828 7.29328 8.30761 7.34963 8.28712C7.40621 8.26642 7.45562 8.23045 7.49949 8.18183C7.54668 8.12919 7.57637 8.07414 7.60466 7.99879C7.63278 7.92445 7.65687 7.83203 7.67601 7.72433L7.85871 6.68216H8.12564C8.12564 6.68216 8.14816 6.68296 8.15276 6.65825L8.18304 6.48827C8.18502 6.47199 8.17826 6.46195 8.15656 6.46195H7.89732C7.89872 6.45612 7.91051 6.3641 7.94014 6.2775C7.95291 6.24073 7.97683 6.2108 7.99696 6.1903C8.01685 6.17021 8.03977 6.15594 8.06491 6.14771C8.09058 6.13927 8.11986 6.13525 8.15195 6.13525C8.17627 6.13525 8.20036 6.13806 8.21851 6.14188C8.24359 6.14731 8.25333 6.15012 8.25992 6.15212C8.28641 6.16016 8.29002 6.15233 8.29521 6.13947L8.35716 5.96788C8.36352 5.9494 8.34777 5.94156 8.34223 5.93935Z" fill="white"/>
<path d="M4.72062 7.7075C4.72062 7.72116 4.71086 7.73221 4.69731 7.73221H4.48234C4.4688 7.73221 4.45923 7.72116 4.45923 7.7075V5.9627C4.45923 5.94904 4.4688 5.93799 4.48234 5.93799H4.69731C4.71086 5.93799 4.72062 5.94904 4.72062 5.9627V7.7075Z" fill="white"/>
</g>
<defs>
<clipPath id="clip0_4_3020">
<rect width="14" height="14" fill="white" transform="translate(0 0.70752)"/>
</clipPath>
</defs>
</svg>
