<svg width="24" height="25" viewBox="0 0 24 25" fill="none" xmlns="http://www.w3.org/2000/svg">
<g clip-path="url(#clip0_49_745)">
<mask id="mask0_49_745" style="mask-type:luminance" maskUnits="userSpaceOnUse" x="0" y="0" width="24" height="24">
<path d="M23.5197 0.0449219H0.479736V23.0849H23.5197V0.0449219Z" fill="white"/>
</mask>
<g mask="url(#mask0_49_745)">
<path fill-rule="evenodd" clip-rule="evenodd" d="M21.5997 11.5649C21.5997 16.8669 17.3017 21.1649 11.9997 21.1649C6.69781 21.1649 2.39973 16.8669 2.39973 11.5649C2.39973 6.26299 6.69781 1.96492 11.9997 1.96492C17.3017 1.96492 21.5997 6.26299 21.5997 11.5649ZM23.5197 11.5649C23.5197 17.9272 18.3621 23.0849 11.9997 23.0849C5.63742 23.0849 0.479736 17.9272 0.479736 11.5649C0.479736 5.2026 5.63742 0.0449219 11.9997 0.0449219C18.3621 0.0449219 23.5197 5.2026 23.5197 11.5649ZM11.0397 10.6049V6.76492H12.9597V10.6049H16.7997V12.5249H12.9597V16.3649H11.0397V12.5249H7.19973V10.6049H11.0397Z" fill="white"/>
</g>
</g>
<defs>
<clipPath id="clip0_49_745">
<rect width="24" height="24" fill="white" transform="translate(0 0.0175781)"/>
</clipPath>
</defs>
</svg>
