<svg width="24" height="25" viewBox="0 0 24 25" fill="none" xmlns="http://www.w3.org/2000/svg">
<g clip-path="url(#clip0_49_765)">
<mask id="mask0_49_765" style="mask-type:luminance" maskUnits="userSpaceOnUse" x="0" y="0" width="24" height="24">
<path d="M23.5195 0.0449219H0.479492V23.0849H23.5195V0.0449219Z" fill="white"/>
</mask>
<g mask="url(#mask0_49_765)">
<path fill-rule="evenodd" clip-rule="evenodd" d="M6.23949 1.00492C6.23949 0.474729 6.6693 0.0449219 7.19949 0.0449219H16.7995C17.3297 0.0449219 17.7595 0.474729 17.7595 1.00492V2.92492C17.7595 3.45512 17.3297 3.88492 16.7995 3.88492H12.9595V6.76492H16.7995C17.3297 6.76492 17.7595 7.19473 17.7595 7.72492V9.6449C17.7595 10.1751 17.3297 10.6049 16.7995 10.6049H12.9595V13.4849H16.7995C18.3901 13.4849 19.6795 14.7744 19.6795 16.3649V19.2449H22.5595C23.0897 19.2449 23.5195 19.6747 23.5195 20.2049V22.1249C23.5195 22.6551 23.0897 23.0849 22.5595 23.0849H14.8795C14.3493 23.0849 13.9195 22.6551 13.9195 22.1249V20.2049C13.9195 19.6747 14.3493 19.2449 14.8795 19.2449H17.7595V16.3649C17.7595 15.8347 17.3297 15.4049 16.7995 15.4049H7.19949C6.6693 15.4049 6.23949 15.8347 6.23949 16.3649V19.2449H9.11949C9.64969 19.2449 10.0795 19.6747 10.0795 20.2049V22.1249C10.0795 22.6551 9.64969 23.0849 9.11949 23.0849H1.43949C0.909299 23.0849 0.479492 22.6551 0.479492 22.1249V20.2049C0.479492 19.6747 0.909299 19.2449 1.43949 19.2449H4.31949V16.3649C4.31949 14.7744 5.60891 13.4849 7.19949 13.4849H11.0395V10.6049H7.19949C6.6693 10.6049 6.23949 10.1751 6.23949 9.6449V7.72492C6.23949 7.19473 6.6693 6.76492 7.19949 6.76492H11.0395V3.88492H7.19949C6.6693 3.88492 6.23949 3.45512 6.23949 2.92492V1.00492Z" fill="white"/>
</g>
</g>
<defs>
<clipPath id="clip0_49_765">
<rect width="24" height="24" fill="white" transform="translate(0 0.0175781)"/>
</clipPath>
</defs>
</svg>
