<svg width="200" height="22" viewBox="0 0 200 22" fill="none" xmlns="http://www.w3.org/2000/svg">
<g clip-path="url(#clip0_4_3192)">
<path d="M150.116 1.55377H148.76V2.91036C148.76 3.2592 148.915 3.68555 149.612 3.68555H150.969V2.32897C150.969 2.01889 150.853 1.55377 150.116 1.55377Z" fill="white"/>
<path d="M150 5.93365H148.915V17.1352C148.915 17.6003 149.225 17.9104 149.651 17.9492V17.9879H150.892V6.74761C150.853 6.24373 150.581 5.93365 150 5.93365Z" fill="white"/>
<path d="M84.3411 14.6933C83.876 14.2282 83.2946 14.3445 82.9457 14.6546C81.5116 15.8561 80.1938 16.3212 78.4884 16.3212C75.0775 16.3212 72.3643 13.453 72.3643 9.77084C72.3643 6.08867 75 3.25921 78.4884 3.25921C80.155 3.25921 81.5504 3.76309 82.8682 4.88712C83.1783 5.15844 83.7209 5.27471 84.1085 4.84836C84.4573 4.49952 84.8062 4.11192 84.8062 4.11192L84.8837 4.0344L84.8062 3.95688C83.4108 2.6003 81.6666 1.35999 78.4884 1.35999C73.876 1.35999 70.3101 5.08092 70.3101 9.8096C70.3101 14.577 73.7984 18.1817 78.4496 18.1817C81.0465 18.1817 82.9457 17.329 84.8837 15.3135L84.9225 15.236L84.8837 15.1584C84.8837 15.236 84.7674 15.0809 84.3411 14.6933Z" fill="white"/>
<path d="M113.798 5.6623C112.093 5.6623 110.736 6.39873 109.69 7.8716C109.225 6.94137 108.14 5.58478 105.891 5.58478C103.953 5.58478 102.907 6.59253 102.132 7.60028V6.74757C102.132 6.16617 101.783 5.81734 101.24 5.81734H100.155V17.8716H101.24C101.783 17.8716 102.093 17.7166 102.093 17.0576V11.0499C102.093 8.95687 103.45 7.40648 105.271 7.40648C107.132 7.40648 108.217 8.68555 108.217 10.8561V17.0576C108.217 17.639 108.527 17.9104 109.07 17.9104H110.155V11.0111C110.155 8.53051 111.744 7.44524 113.333 7.44524C115.233 7.44524 116.318 8.72431 116.318 10.8949V16.9414C116.318 17.4452 116.434 17.9104 117.209 17.9104H118.256V10.5073C118.295 7.52276 116.589 5.6623 113.798 5.6623Z" fill="white"/>
<path d="M127.791 5.70105C126.008 5.70105 124.535 6.47624 123.333 8.14291V6.9026C123.333 6.28245 122.985 5.97237 122.364 5.97237H121.395V20.7786C121.395 21.36 121.667 21.6313 122.248 21.6313H123.333V15.8948C124.535 17.4452 125.969 18.2204 127.791 18.2204C130.581 18.2204 133.527 16.0111 133.527 11.9414C133.527 7.87159 130.581 5.70105 127.791 5.70105ZM131.512 11.9414C131.512 14.577 129.845 16.3987 127.442 16.3987C125.388 16.3987 123.256 14.6933 123.256 11.9026C123.256 9.1119 125.388 7.40648 127.442 7.40648C129.457 7.44524 131.512 8.99562 131.512 11.9414Z" fill="white"/>
<path d="M163.644 6.78633V7.79408C162.83 6.74757 161.395 5.58478 159.109 5.58478C157.675 5.58478 156.24 6.12741 155.194 7.09641C154.07 8.14292 153.45 9.65454 153.45 11.2825C153.45 14.9646 156.357 16.9414 159.109 16.9414C160.892 16.9414 162.403 16.2049 163.682 14.6545V15.8173C163.682 18.453 162.132 19.9646 159.496 19.9646C158.217 19.9646 156.977 19.6545 155.814 18.9956C155.504 18.8018 155.271 18.7243 155.078 18.7243C154.845 18.7243 154.613 18.8406 154.457 19.1119C154.147 19.6158 154.031 19.8483 154.031 19.8483L153.992 19.9259L154.07 19.9646C155.659 21.0887 157.481 21.6313 159.496 21.6313C163.372 21.6313 165.62 19.4995 165.62 15.7786V5.89486H164.535C164.186 5.89486 163.644 6.20493 163.644 6.78633ZM163.76 11.3987C163.76 13.8794 161.589 15.3522 159.496 15.3522C157.209 15.3522 155.504 13.6468 155.504 11.3987C155.504 9.11191 157.209 7.484 159.496 7.484C161.55 7.44524 163.76 8.80183 163.76 11.3987Z" fill="white"/>
<path d="M174.767 5.70105C173.062 5.70105 171.744 6.39872 170.814 7.79407V6.78632C170.814 6.20493 170.349 5.97237 169.884 5.97237H168.798V18.0266H170.775L170.736 11.1274C170.736 8.99562 172.171 7.52276 174.225 7.52276C176.24 7.52276 177.403 8.80183 177.403 11.0111V17.2127C177.403 17.7941 177.674 18.0266 178.178 18.0266H179.341V10.5073C179.38 7.56151 177.597 5.70105 174.767 5.70105Z" fill="white"/>
<path d="M140.814 5.73981C139.302 5.73981 137.946 6.04988 136.473 6.7088L136.395 6.74756L136.434 6.82508C136.434 6.82508 136.628 7.36771 136.783 7.75531C136.938 8.14291 137.403 8.18167 137.752 8.02663C138.76 7.63903 139.651 7.44523 140.659 7.44523C142.868 7.44523 144.07 8.56926 144.07 10.5848V13.4917C144.07 15.3135 142.442 16.5925 140.194 16.5925C138.798 16.5925 137.287 15.8948 137.287 14.3445C137.287 12.8716 138.488 12.0576 140.659 12.0576H141.628C142.209 12.0576 142.481 11.7863 142.481 11.2437V10.5848H140.465C137.171 10.5848 135.31 11.9801 135.31 14.3832C135.31 16.2049 136.705 18.2204 139.845 18.2204C141.55 18.2204 142.984 17.5615 144.031 16.3212V17.1352C144.031 17.6778 144.302 17.9104 144.884 17.9104H145.969V10.546C145.93 7.48399 144.109 5.73981 140.814 5.73981Z" fill="white"/>
<path d="M92.0155 5.73981C90.1551 5.73981 88.8372 6.20492 87.6744 6.7088L87.5969 6.78632L87.6357 6.86384C87.6357 6.86384 87.8295 7.40647 87.9845 7.79407C88.1396 8.18167 88.6047 8.22043 88.9535 8.06539C89.9613 7.67779 90.8527 7.48399 91.8605 7.48399C94.0698 7.48399 95.3101 8.60802 95.3101 10.6235V13.4917C95.3101 15.3135 93.6822 16.5925 91.4341 16.5925C90.0388 16.5925 88.5659 15.8948 88.5659 14.3445C88.5659 12.8716 89.7675 12.0576 91.8993 12.0576H92.8682C93.4496 12.0576 93.721 11.7863 93.721 11.2437V10.5848H91.7442C88.4496 10.5848 86.5504 11.9801 86.5504 14.3832C86.5504 16.2049 87.9458 18.2204 91.0465 18.2204C92.752 18.2204 94.1861 17.5615 95.2713 16.3212V17.1352C95.2713 17.6778 95.5427 17.9104 96.0853 17.9104H97.1706V10.546C97.1318 7.48399 95.3101 5.73981 92.0155 5.73981Z" fill="white"/>
<path d="M199.302 10.236C199.031 10.0034 187.985 2.29025 187.481 1.98017L187.326 1.86389V3.76312C187.326 4.38327 187.636 4.57707 188.023 4.88715L188.101 4.92591C188.644 5.3135 196.512 10.7786 197.558 11.5151C196.512 12.2515 188.527 17.7941 188.023 18.1042C187.403 18.4918 187.364 18.7631 187.364 19.3058V21.1275C187.364 21.1275 199.109 12.9492 199.341 12.7554C199.884 12.3678 200 11.8639 200 11.5538V11.3213C200 10.9337 199.768 10.5461 199.302 10.236Z" fill="white"/>
<path d="M192.403 12.3677C192.713 12.3677 193.023 12.2514 193.333 12.0189C193.721 11.7476 194.07 11.515 194.07 11.515L194.186 11.4375L194.07 11.36C194.031 11.3212 188.876 7.75532 188.333 7.40648C188.101 7.21268 187.791 7.17392 187.597 7.2902C187.403 7.40648 187.248 7.60028 187.248 7.91035V9.11191L187.287 9.15066C187.326 9.18942 190.853 11.6313 191.55 12.0964C191.86 12.2902 192.132 12.3677 192.403 12.3677Z" fill="white"/>
<path d="M28.0233 15.1972C27.5969 14.7708 27.0543 15.0421 26.8217 15.2359C25.9303 16.0499 24.9225 16.4375 23.8372 16.4375C21.4729 16.4375 19.6124 14.4607 19.6124 11.9026C19.6124 9.38323 21.4341 7.40648 23.721 7.40648C25.0388 7.40648 25.8915 7.98788 26.5892 8.53051C27.0931 8.95687 27.5194 8.99563 27.8682 8.60803C28.1783 8.29795 28.5272 7.91036 28.5272 7.91036L28.6047 7.83284L28.5272 7.75532C27.1706 6.28245 25.6589 5.62354 23.721 5.62354C20.2713 5.62354 17.5194 8.37547 17.5194 11.9026C17.5194 15.3522 20.3101 18.1817 23.721 18.1817C26.2403 18.1817 27.6744 16.9026 28.6047 15.8173H28.6822L28.6047 15.7398C28.6047 15.7398 28.4109 15.5848 28.0233 15.1972Z" fill="white"/>
<path d="M40.8915 1.55377H39.5349V2.91036C39.5349 3.2592 39.6899 3.68555 40.3876 3.68555H41.7442V2.484C41.783 1.94137 41.4341 1.55377 40.8915 1.55377Z" fill="white"/>
<path d="M40.7365 5.93365H39.6124V17.1352C39.6124 17.6003 39.9225 17.9104 40.3489 17.9492V17.9879H41.5892V6.74761C41.6279 6.24373 41.3179 5.93365 40.7365 5.93365Z" fill="white"/>
<path d="M53.4885 6.59251C53.3334 7.01887 50.3877 14.1507 49.8063 15.4685C49.2636 14.1119 46.3179 6.98011 46.1629 6.59251C45.9691 6.1274 45.5815 5.85608 45.0776 5.85608H43.6823L43.7598 5.97236C43.7985 6.1274 48.4885 16.9414 48.6823 17.3677C48.876 17.8716 49.1861 17.9879 49.69 17.9879H49.9226C50.3877 17.9879 50.6978 17.7941 50.8916 17.3677C51.0854 16.9414 55.7753 6.20492 55.814 6.08864L55.8916 5.9336H54.535C54.0311 5.9336 53.6823 6.1274 53.4885 6.59251Z" fill="white"/>
<path d="M65.6202 11.2437H61.0078C60.504 11.2437 60.1939 11.5538 60.1939 12.0576V12.8328H60.3102C62.5195 12.7941 65.0776 12.7941 66.1241 12.7941C66.7443 12.7941 67.2094 12.639 67.5582 12.2902C67.8683 11.9414 68.0233 11.3987 67.9846 10.7786C67.6357 7.6778 65.4264 5.66229 62.4032 5.66229C59.1086 5.66229 56.5892 8.37547 56.5892 11.9414C56.5892 15.546 59.1861 18.2204 62.6357 18.2204C64.6513 18.2204 66.1629 17.5228 67.597 15.9724L67.6745 15.8949L67.597 15.8173C67.597 15.8173 67.3257 15.5848 67.0156 15.3135C66.5505 14.9259 66.1241 15.0809 65.8916 15.3135C65.0388 16.0886 63.9923 16.4762 62.7133 16.4762C60.504 16.4762 58.8761 14.8871 58.6047 12.5228C58.6047 12.5228 58.566 12.2514 58.566 11.9026C58.566 11.515 58.6047 11.2437 58.6047 11.2437C58.8373 8.91811 60.3877 7.2902 62.3644 7.2902C64.3412 7.2902 65.7753 8.60803 65.9691 10.6235C66.0078 10.8173 65.9691 10.9724 65.9303 11.0499C65.814 11.2049 65.7365 11.2437 65.6202 11.2437Z" fill="white"/>
<path d="M9.88376 2.17393C9.6512 1.70881 9.37988 1.55377 8.87601 1.55377H8.41089C8.0233 1.55377 7.67446 1.78633 7.48066 2.13517C7.32562 2.484 0.503916 17.6778 0.426396 17.8328L0.348877 17.9879H1.62795C2.17058 17.9879 2.51942 17.7553 2.79074 17.2127C3.0233 16.7476 4.14733 14.1894 4.34113 13.7631H9.34113C9.96128 13.7631 10.3489 13.3755 10.3489 12.7941V11.9414H5.11632L8.64345 4.03439C9.37988 5.6623 14.3024 16.9026 14.5349 17.3677C14.845 17.9879 15.5814 17.9879 15.814 17.9879H16.9768L16.8993 17.8328C16.8993 17.6778 10.1163 2.6778 9.88376 2.17393Z" fill="white"/>
<path d="M36.7442 16.2437C36.5504 16.1274 36.2791 16.0887 36.0078 16.1662C35.5815 16.2825 35.2714 16.36 34.8838 16.36C33.6435 16.36 32.9846 15.7398 32.9846 14.4607V7.6778H36.7442V6.86385C36.7442 6.24369 36.2016 5.93361 35.7365 5.93361H32.9458V2.52276C32.9458 1.98013 32.5582 1.59253 31.9768 1.59253H31.0078V14.7321C31.0078 16.9414 32.2094 18.1817 34.4574 18.1817C35.3101 18.1817 36.2791 17.9879 36.8993 17.6778L36.938 17.639V17.6003C36.938 17.6003 36.9768 17.2514 36.9768 16.8251C37.0156 16.515 36.8605 16.36 36.7442 16.2437Z" fill="white"/>
</g>
<defs>
<clipPath id="clip0_4_3192">
<rect width="200" height="20.5426" fill="white" transform="translate(0 1.08868)"/>
</clipPath>
</defs>
</svg>
