<svg width="40" height="41" viewBox="0 0 40 41" fill="none" xmlns="http://www.w3.org/2000/svg">
<g filter="url(#filter0_dd_4_3237)">
<rect x="10" y="8.76636" width="20" height="20" rx="10" fill="#687882" shape-rendering="crispEdges"/>
<g clip-path="url(#clip0_4_3237)">
<path fill-rule="evenodd" clip-rule="evenodd" d="M19.0634 18.6359L15.167 14.7395C14.9443 14.5169 14.9443 14.1559 15.167 13.9333C15.3896 13.7107 15.7505 13.7107 15.9731 13.9333L19.8696 17.8298L23.766 13.9333C23.9886 13.7107 24.3496 13.7107 24.5722 13.9333C24.7948 14.1559 24.7948 14.5169 24.5722 14.7395L20.6757 18.6359L24.5722 22.5324C24.7948 22.755 24.7948 23.1159 24.5722 23.3385C24.3496 23.5611 23.9886 23.5611 23.766 23.3385L19.8696 19.4421L15.9731 23.3385C15.7505 23.5611 15.3896 23.5611 15.167 23.3385C14.9443 23.1159 14.9443 22.755 15.167 22.5324L19.0634 18.6359Z" fill="white"/>
</g>
<rect x="10.5" y="9.26636" width="19" height="19" rx="9.5" stroke="white" shape-rendering="crispEdges"/>
</g>
<defs>
<filter id="filter0_dd_4_3237" x="0" y="0.766357" width="40" height="40" filterUnits="userSpaceOnUse" color-interpolation-filters="sRGB">
<feFlood flood-opacity="0" result="BackgroundImageFix"/>
<feColorMatrix in="SourceAlpha" type="matrix" values="0 0 0 0 0 0 0 0 0 0 0 0 0 0 0 0 0 0 127 0" result="hardAlpha"/>
<feOffset dy="1"/>
<feGaussianBlur stdDeviation="1"/>
<feComposite in2="hardAlpha" operator="out"/>
<feColorMatrix type="matrix" values="0 0 0 0 0 0 0 0 0 0 0 0 0 0 0 0 0 0 0.2 0"/>
<feBlend mode="normal" in2="BackgroundImageFix" result="effect1_dropShadow_4_3237"/>
<feColorMatrix in="SourceAlpha" type="matrix" values="0 0 0 0 0 0 0 0 0 0 0 0 0 0 0 0 0 0 127 0" result="hardAlpha"/>
<feOffset dy="2"/>
<feGaussianBlur stdDeviation="5"/>
<feComposite in2="hardAlpha" operator="out"/>
<feColorMatrix type="matrix" values="0 0 0 0 0.207843 0 0 0 0 0.247059 0 0 0 0 0.270588 0 0 0 0.15 0"/>
<feBlend mode="normal" in2="effect1_dropShadow_4_3237" result="effect2_dropShadow_4_3237"/>
<feBlend mode="normal" in="SourceGraphic" in2="effect2_dropShadow_4_3237" result="shape"/>
</filter>
<clipPath id="clip0_4_3237">
<rect x="15" y="13.7664" width="10" height="10" rx="5" fill="white"/>
</clipPath>
</defs>
</svg>
