<svg width="40" height="40" viewBox="0 0 40 40" fill="none" xmlns="http://www.w3.org/2000/svg">
<g filter="url(#filter0_dd_4_3237)">
<rect x="10" y="8.00037" width="20" height="20" rx="10" fill="#687882" shape-rendering="crispEdges"/>
<g clip-path="url(#clip0_4_3237)">
<path fill-rule="evenodd" clip-rule="evenodd" d="M19.0634 17.8699L15.167 13.9735C14.9443 13.7509 14.9443 13.3899 15.167 13.1673C15.3896 12.9447 15.7505 12.9447 15.9731 13.1673L19.8696 17.0638L23.766 13.1673C23.9886 12.9447 24.3496 12.9447 24.5722 13.1673C24.7948 13.3899 24.7948 13.7509 24.5722 13.9735L20.6757 17.8699L24.5722 21.7664C24.7948 21.989 24.7948 22.3499 24.5722 22.5725C24.3496 22.7951 23.9886 22.7951 23.766 22.5725L19.8696 18.6761L15.9731 22.5725C15.7505 22.7951 15.3896 22.7951 15.167 22.5725C14.9443 22.3499 14.9443 21.989 15.167 21.7664L19.0634 17.8699Z" fill="white"/>
</g>
<rect x="10.5" y="8.50037" width="19" height="19" rx="9.5" stroke="white" shape-rendering="crispEdges"/>
</g>
<defs>
<filter id="filter0_dd_4_3237" x="0" y="0.000366211" width="40" height="40" filterUnits="userSpaceOnUse" color-interpolation-filters="sRGB">
<feFlood flood-opacity="0" result="BackgroundImageFix"/>
<feColorMatrix in="SourceAlpha" type="matrix" values="0 0 0 0 0 0 0 0 0 0 0 0 0 0 0 0 0 0 127 0" result="hardAlpha"/>
<feOffset dy="1"/>
<feGaussianBlur stdDeviation="1"/>
<feComposite in2="hardAlpha" operator="out"/>
<feColorMatrix type="matrix" values="0 0 0 0 0 0 0 0 0 0 0 0 0 0 0 0 0 0 0.2 0"/>
<feBlend mode="normal" in2="BackgroundImageFix" result="effect1_dropShadow_4_3237"/>
<feColorMatrix in="SourceAlpha" type="matrix" values="0 0 0 0 0 0 0 0 0 0 0 0 0 0 0 0 0 0 127 0" result="hardAlpha"/>
<feOffset dy="2"/>
<feGaussianBlur stdDeviation="5"/>
<feComposite in2="hardAlpha" operator="out"/>
<feColorMatrix type="matrix" values="0 0 0 0 0.207843 0 0 0 0 0.247059 0 0 0 0 0.270588 0 0 0 0.15 0"/>
<feBlend mode="normal" in2="effect1_dropShadow_4_3237" result="effect2_dropShadow_4_3237"/>
<feBlend mode="normal" in="SourceGraphic" in2="effect2_dropShadow_4_3237" result="shape"/>
</filter>
<clipPath id="clip0_4_3237">
<rect x="15" y="13.0004" width="10" height="10" rx="5" fill="white"/>
</clipPath>
</defs>
</svg>
