<svg width="137" height="24" viewBox="0 0 137 24" fill="none" xmlns="http://www.w3.org/2000/svg">
<path d="M8.14128 9.2973C7.70957 9.2973 7.29513 9.36937 6.89795 9.51351C6.51805 9.65766 6.18131 9.87387 5.88775 10.1622C5.61145 10.4324 5.38697 10.7748 5.21428 11.1892C5.0416 11.6036 4.95525 12.0901 4.95525 12.6486C4.95525 13.7658 5.25745 14.6036 5.86185 15.1622C6.48351 15.7207 7.23469 16 8.11538 16C8.63343 16 9.08241 15.9369 9.46231 15.8108C9.84222 15.6847 10.179 15.5496 10.4725 15.4054C10.8179 15.6577 11.0769 15.9369 11.2496 16.2432C11.4223 16.5315 11.5086 16.8829 11.5086 17.2973C11.5086 18.036 11.1719 18.6126 10.4984 19.027C9.82495 19.4234 8.89246 19.6216 7.70093 19.6216C6.61302 19.6216 5.62872 19.4595 4.74803 19.1351C3.86734 18.7928 3.10753 18.3243 2.4686 17.7297C1.84694 17.1171 1.36342 16.3874 1.01805 15.5405C0.672684 14.6937 0.5 13.7568 0.5 12.7297C0.5 11.5405 0.681318 10.5045 1.04396 9.62162C1.42386 8.72072 1.93328 7.98198 2.57221 7.40541C3.21114 6.82883 3.94505 6.3964 4.77394 6.10811C5.62009 5.81982 6.50941 5.67568 7.44191 5.67568C8.68524 5.67568 9.64363 5.90991 10.3171 6.37838C10.9906 6.84685 11.3273 7.45045 11.3273 8.18919C11.3273 8.53153 11.2496 8.85586 11.0942 9.16216C10.9388 9.45045 10.7574 9.7027 10.5502 9.91892C10.2567 9.77478 9.90266 9.63964 9.48822 9.51351C9.07377 9.36937 8.62479 9.2973 8.14128 9.2973Z" fill="white"/>
<path d="M26.3666 12.6486C26.3666 13.7658 26.2026 14.7658 25.8745 15.6486C25.5464 16.5135 25.0801 17.2432 24.4757 17.8378C23.8886 18.4324 23.1806 18.8829 22.3517 19.1892C21.5228 19.4955 20.599 19.6486 19.5801 19.6486C18.5613 19.6486 17.6374 19.4865 16.8085 19.1622C15.9797 18.8378 15.263 18.3784 14.6586 17.7838C14.0715 17.1712 13.6139 16.4324 13.2858 15.5676C12.9577 14.7027 12.7936 13.7297 12.7936 12.6486C12.7936 11.5856 12.9577 10.6216 13.2858 9.75676C13.6139 8.89189 14.0715 8.16216 14.6586 7.56757C15.263 6.95495 15.9797 6.48649 16.8085 6.16216C17.6374 5.83784 18.5613 5.67568 19.5801 5.67568C20.599 5.67568 21.5228 5.84685 22.3517 6.18919C23.1806 6.51351 23.8886 6.98198 24.4757 7.5946C25.0801 8.18919 25.5464 8.91892 25.8745 9.78378C26.2026 10.6486 26.3666 11.6036 26.3666 12.6486ZM17.3007 12.6486C17.3007 13.7477 17.4993 14.5946 17.8965 15.1892C18.3109 15.7658 18.8808 16.0541 19.606 16.0541C20.3313 16.0541 20.8839 15.7568 21.2638 15.1622C21.661 14.5676 21.8596 13.7297 21.8596 12.6486C21.8596 11.5676 21.661 10.7387 21.2638 10.1622C20.8666 9.56757 20.3054 9.27027 19.5801 9.27027C18.8549 9.27027 18.2936 9.56757 17.8965 10.1622C17.4993 10.7387 17.3007 11.5676 17.3007 12.6486Z" fill="white"/>
<path d="M36.4929 10.8919C36.4929 10.3333 36.3375 9.92793 36.0267 9.67568C35.7331 9.40541 35.3273 9.27027 34.8093 9.27027C34.4639 9.27027 34.1185 9.31532 33.7732 9.40541C33.4451 9.4955 33.1601 9.63063 32.9184 9.81081V19.1892C32.7457 19.2432 32.4694 19.2973 32.0895 19.3514C31.7268 19.4054 31.3469 19.4324 30.9498 19.4324C30.5699 19.4324 30.2245 19.4054 29.9137 19.3514C29.6201 19.2973 29.3697 19.1892 29.1625 19.027C28.9553 18.8649 28.7912 18.6486 28.6703 18.3784C28.5667 18.0901 28.5149 17.7207 28.5149 17.2703V9.16216C28.5149 8.67568 28.6099 8.27928 28.7999 7.97297C29.0071 7.66667 29.2834 7.38739 29.6287 7.13514C30.2159 6.7027 30.9498 6.35135 31.8305 6.08108C32.7284 5.81081 33.7214 5.67568 34.8093 5.67568C36.7606 5.67568 38.2629 6.12613 39.3163 7.02703C40.3697 7.90991 40.8964 9.14415 40.8964 10.7297V19.1892C40.7237 19.2432 40.4474 19.2973 40.0675 19.3514C39.7049 19.4054 39.325 19.4324 38.9278 19.4324C38.5479 19.4324 38.2025 19.4054 37.8917 19.3514C37.5981 19.2973 37.3477 19.1892 37.1405 19.027C36.9333 18.8649 36.7692 18.6486 36.6483 18.3784C36.5447 18.0901 36.4929 17.7207 36.4929 17.2703V10.8919Z" fill="white"/>
<path d="M48.0198 14.7027C48.0198 15.1712 48.158 15.5045 48.4343 15.7027C48.7278 15.9009 49.1336 16 49.6517 16C49.9107 16 50.1784 15.982 50.4547 15.9459C50.731 15.8919 50.9727 15.8288 51.1799 15.7568C51.3354 15.955 51.4649 16.1802 51.5685 16.4324C51.6894 16.6667 51.7498 16.955 51.7498 17.2973C51.7498 17.982 51.4994 18.5405 50.9986 18.973C50.5151 19.4054 49.6517 19.6216 48.4084 19.6216C46.8887 19.6216 45.7145 19.2613 44.8856 18.5405C44.074 17.8198 43.6682 16.6486 43.6682 15.027V3.45946C43.8581 3.40541 44.1258 3.35135 44.4711 3.2973C44.8338 3.22522 45.2137 3.18919 45.6109 3.18919C46.3707 3.18919 46.9578 3.33333 47.3722 3.62162C47.804 3.89189 48.0198 4.47748 48.0198 5.37838V7.10811H51.4131C51.5167 7.30631 51.6116 7.55856 51.698 7.86486C51.8016 8.15315 51.8534 8.47748 51.8534 8.83784C51.8534 9.46847 51.7153 9.92793 51.439 10.2162C51.1799 10.4865 50.8259 10.6216 50.377 10.6216H48.0198V14.7027Z" fill="white"/>
<path d="M60.4927 19.6486C59.4739 19.6486 58.5241 19.5045 57.6435 19.2162C56.78 18.9099 56.0202 18.4595 55.364 17.8649C54.7251 17.2703 54.2157 16.5225 53.8358 15.6216C53.4731 14.7207 53.2918 13.6667 53.2918 12.4595C53.2918 11.2703 53.4731 10.2523 53.8358 9.40541C54.2157 8.54054 54.7078 7.83784 55.3122 7.2973C55.9166 6.73874 56.6073 6.33333 57.3844 6.08108C58.1615 5.81081 58.9559 5.67568 59.7675 5.67568C60.6827 5.67568 61.5116 5.81982 62.2541 6.10811C63.0139 6.3964 63.6615 6.79279 64.1968 7.2973C64.7494 7.8018 65.1725 8.40541 65.466 9.10811C65.7769 9.81081 65.9323 10.5766 65.9323 11.4054C65.9323 12.018 65.7682 12.4865 65.4401 12.8108C65.1121 13.1351 64.6544 13.3423 64.0673 13.4324L57.6694 14.4324C57.8593 15.027 58.2478 15.4775 58.835 15.7838C59.4221 16.0721 60.0956 16.2162 60.8554 16.2162C61.5634 16.2162 62.2282 16.1261 62.8499 15.9459C63.4888 15.7477 64.0069 15.5225 64.404 15.2703C64.6803 15.4505 64.9135 15.7027 65.1034 16.027C65.2934 16.3514 65.3884 16.6937 65.3884 17.0541C65.3884 17.8649 65.0257 18.4685 64.3004 18.8649C63.7478 19.1712 63.1262 19.3784 62.4354 19.4865C61.7447 19.5946 61.0971 19.6486 60.4927 19.6486ZM59.7675 9.02703C59.353 9.02703 58.9904 9.0991 58.6796 9.24324C58.386 9.38739 58.1442 9.57658 57.9543 9.81081C57.7643 10.027 57.6176 10.2793 57.5139 10.5676C57.4276 10.8378 57.3758 11.1171 57.3585 11.4054L61.7879 10.6487C61.7361 10.2883 61.5461 9.92793 61.218 9.56757C60.8899 9.20721 60.4064 9.02703 59.7675 9.02703Z" fill="white"/>
<path d="M76.0299 10.8919C76.0299 10.3333 75.8745 9.92793 75.5636 9.67568C75.2701 9.40541 74.8643 9.27027 74.3462 9.27027C74.0008 9.27027 73.6555 9.31532 73.3101 9.40541C72.982 9.4955 72.6971 9.63063 72.4553 9.81081V19.1892C72.2826 19.2432 72.0063 19.2973 71.6264 19.3514C71.2638 19.4054 70.8839 19.4324 70.4867 19.4324C70.1068 19.4324 69.7614 19.4054 69.4506 19.3514C69.157 19.2973 68.9066 19.1892 68.6994 19.027C68.4922 18.8649 68.3282 18.6486 68.2073 18.3784C68.1037 18.0901 68.0519 17.7207 68.0519 17.2703V9.16216C68.0519 8.67568 68.1468 8.27928 68.3368 7.97297C68.544 7.66667 68.8203 7.38739 69.1657 7.13514C69.7528 6.7027 70.4867 6.35135 71.3674 6.08108C72.2654 5.81081 73.2583 5.67568 74.3462 5.67568C76.2975 5.67568 77.7999 6.12613 78.8533 7.02703C79.9066 7.90991 80.4333 9.14415 80.4333 10.7297V19.1892C80.2606 19.2432 79.9844 19.2973 79.6044 19.3514C79.2418 19.4054 78.8619 19.4324 78.4647 19.4324C78.0848 19.4324 77.7394 19.4054 77.4286 19.3514C77.1351 19.2973 76.8847 19.1892 76.6774 19.027C76.4702 18.8649 76.3062 18.6486 76.1853 18.3784C76.0817 18.0901 76.0299 17.7207 76.0299 17.2703V10.8919Z" fill="white"/>
<path d="M87.5568 14.7027C87.5568 15.1712 87.6949 15.5045 87.9712 15.7027C88.2648 15.9009 88.6706 16 89.1886 16C89.4476 16 89.7153 15.982 89.9916 15.9459C90.2679 15.8919 90.5097 15.8288 90.7169 15.7568C90.8723 15.955 91.0018 16.1802 91.1054 16.4324C91.2263 16.6667 91.2867 16.955 91.2867 17.2973C91.2867 17.982 91.0363 18.5405 90.5356 18.973C90.052 19.4054 89.1886 19.6216 87.9453 19.6216C86.4257 19.6216 85.2514 19.2613 84.4225 18.5405C83.6109 17.8198 83.2051 16.6486 83.2051 15.027V3.45946C83.3951 3.40541 83.6627 3.35135 84.0081 3.2973C84.3707 3.22522 84.7506 3.18919 85.1478 3.18919C85.9076 3.18919 86.4947 3.33333 86.9092 3.62162C87.3409 3.89189 87.5568 4.47748 87.5568 5.37838V7.10811H90.95C91.0536 7.30631 91.1486 7.55856 91.2349 7.86486C91.3385 8.15315 91.3903 8.47748 91.3903 8.83784C91.3903 9.46847 91.2522 9.92793 90.9759 10.2162C90.7169 10.4865 90.3629 10.6216 89.9139 10.6216H87.5568V14.7027Z" fill="white"/>
<path d="M93.4209 2.43243C93.4209 1.74775 93.6367 1.17117 94.0684 0.702702C94.5174 0.234234 95.1045 0 95.8298 0C96.5551 0 97.1336 0.234234 97.5653 0.702702C98.0143 1.17117 98.2388 1.74775 98.2388 2.43243C98.2388 3.11712 98.0143 3.69369 97.5653 4.16216C97.1336 4.63063 96.5551 4.86487 95.8298 4.86487C95.1045 4.86487 94.5174 4.63063 94.0684 4.16216C93.6367 3.69369 93.4209 3.11712 93.4209 2.43243ZM98.0315 19.1892C97.8416 19.2252 97.5567 19.2703 97.1768 19.3243C96.8141 19.3964 96.4428 19.4324 96.0629 19.4324C95.683 19.4324 95.3377 19.4054 95.0268 19.3514C94.7333 19.2973 94.4829 19.1892 94.2757 19.027C94.0684 18.8649 93.9044 18.6486 93.7835 18.3784C93.6799 18.0901 93.6281 17.7207 93.6281 17.2703V6.27027C93.818 6.23423 94.0943 6.18919 94.457 6.13514C94.8369 6.06306 95.2168 6.02703 95.5967 6.02703C95.9766 6.02703 96.3133 6.05405 96.6069 6.10811C96.9177 6.16216 97.1768 6.27027 97.384 6.43243C97.5912 6.59459 97.7466 6.81982 97.8502 7.10811C97.9711 7.37838 98.0315 7.73874 98.0315 8.18919V19.1892Z" fill="white"/>
<path d="M100.731 2.43243C100.731 1.74775 100.947 1.17117 101.379 0.702702C101.828 0.234234 102.415 0 103.14 0C103.866 0 104.444 0.234234 104.876 0.702702C105.325 1.17117 105.549 1.74775 105.549 2.43243C105.549 3.11712 105.325 3.69369 104.876 4.16216C104.444 4.63063 103.866 4.86487 103.14 4.86487C102.415 4.86487 101.828 4.63063 101.379 4.16216C100.947 3.69369 100.731 3.11712 100.731 2.43243ZM105.342 19.1892C105.152 19.2252 104.867 19.2703 104.487 19.3243C104.125 19.3964 103.753 19.4324 103.373 19.4324C102.993 19.4324 102.648 19.4054 102.337 19.3514C102.044 19.2973 101.793 19.1892 101.586 19.027C101.379 18.8649 101.215 18.6486 101.094 18.3784C100.99 18.0901 100.938 17.7207 100.938 17.2703V6.27027C101.128 6.23423 101.405 6.18919 101.767 6.13514C102.147 6.06306 102.527 6.02703 102.907 6.02703C103.287 6.02703 103.624 6.05405 103.917 6.10811C104.228 6.16216 104.487 6.27027 104.694 6.43243C104.902 6.59459 105.057 6.81982 105.161 7.10811C105.282 7.37838 105.342 7.73874 105.342 8.18919V19.1892Z" fill="white"/>
<path d="M108.197 6.08108C108.197 5.16216 108.344 4.37838 108.637 3.72973C108.948 3.06306 109.363 2.52252 109.881 2.10811C110.399 1.67568 111.003 1.36036 111.694 1.16216C112.402 0.963964 113.153 0.864865 113.948 0.864865C115.225 0.864865 116.166 1.04505 116.771 1.40541C117.375 1.74775 117.677 2.34234 117.677 3.18919C117.677 3.54955 117.6 3.87387 117.444 4.16216C117.306 4.45045 117.151 4.66667 116.978 4.81081C116.65 4.72072 116.305 4.64865 115.942 4.5946C115.597 4.52252 115.191 4.48649 114.725 4.48649C113.982 4.48649 113.404 4.62162 112.989 4.89189C112.575 5.14414 112.367 5.59459 112.367 6.24324V7.10811H116.615C116.719 7.30631 116.814 7.55856 116.9 7.86486C117.004 8.15315 117.056 8.47748 117.056 8.83784C117.056 9.46847 116.918 9.92793 116.641 10.2162C116.382 10.4865 116.028 10.6216 115.579 10.6216H112.601V19.1892C112.428 19.2432 112.152 19.2973 111.772 19.3514C111.409 19.4054 111.029 19.4324 110.632 19.4324C110.252 19.4324 109.907 19.4054 109.596 19.3514C109.302 19.2973 109.052 19.1892 108.845 19.027C108.637 18.8649 108.473 18.6486 108.353 18.3784C108.249 18.0901 108.197 17.7207 108.197 17.2703V6.08108Z" fill="white"/>
<path d="M120.991 15.8649C120.801 15.4144 120.594 14.9099 120.369 14.3514C120.162 13.7928 119.938 13.1532 119.696 12.4324C119.471 11.7117 119.23 10.8919 118.971 9.97297C118.729 9.03604 118.47 7.96396 118.194 6.75676C118.435 6.5045 118.755 6.28829 119.152 6.10811C119.566 5.90991 120.015 5.81081 120.499 5.81081C121.103 5.81081 121.604 5.94595 122.001 6.21622C122.398 6.46847 122.692 6.95496 122.882 7.67568L124.928 15.1081H125.032C125.239 14.4955 125.438 13.8288 125.628 13.1081C125.835 12.3874 126.033 11.6486 126.223 10.8919C126.413 10.1171 126.586 9.35135 126.741 8.5946C126.914 7.81982 127.061 7.06306 127.182 6.32432C127.803 5.98198 128.485 5.81081 129.228 5.81081C129.832 5.81081 130.333 5.94595 130.73 6.21622C131.128 6.48649 131.326 6.95496 131.326 7.62162C131.326 8.10811 131.266 8.67568 131.145 9.32432C131.024 9.95496 130.86 10.6306 130.653 11.3514C130.463 12.0721 130.23 12.8198 129.953 13.5946C129.694 14.3514 129.418 15.0991 129.124 15.8378C128.831 16.5766 128.529 17.2793 128.218 17.9459C127.907 18.5946 127.605 19.1802 127.311 19.7027C126.828 20.5856 126.379 21.3063 125.964 21.8649C125.55 22.4234 125.153 22.8559 124.773 23.1622C124.393 23.4865 124.013 23.7027 123.633 23.8108C123.253 23.9369 122.856 24 122.442 24C121.716 24 121.129 23.7748 120.68 23.3243C120.231 22.8739 119.964 22.2883 119.877 21.5676C120.43 21.1171 120.982 20.6126 121.535 20.0541C122.088 19.5135 122.588 18.955 123.037 18.3784C122.744 18.2883 122.424 18.0811 122.079 17.7568C121.751 17.4144 121.388 16.7838 120.991 15.8649Z" fill="white"/>
<path d="M131.475 17.027C131.475 16.2703 131.699 15.6396 132.148 15.1351C132.597 14.6306 133.21 14.3784 133.987 14.3784C134.765 14.3784 135.378 14.6306 135.827 15.1351C136.276 15.6396 136.5 16.2703 136.5 17.027C136.5 17.7838 136.276 18.4144 135.827 18.9189C135.378 19.4234 134.765 19.6757 133.987 19.6757C133.21 19.6757 132.597 19.4234 132.148 18.9189C131.699 18.4144 131.475 17.7838 131.475 17.027Z" fill="white"/>
</svg>
