<svg width="136" height="24" viewBox="0 0 136 24" fill="none" xmlns="http://www.w3.org/2000/svg">
<path d="M7.64128 9.2973C7.20957 9.2973 6.79513 9.36937 6.39795 9.51351C6.01805 9.65766 5.68131 9.87387 5.38775 10.1622C5.11145 10.4324 4.88697 10.7748 4.71428 11.1892C4.5416 11.6036 4.45525 12.0901 4.45525 12.6486C4.45525 13.7658 4.75745 14.6036 5.36185 15.1622C5.98351 15.7207 6.73469 16 7.61538 16C8.13343 16 8.58241 15.9369 8.96231 15.8108C9.34222 15.6847 9.67895 15.5495 9.97252 15.4054C10.3179 15.6577 10.5769 15.9369 10.7496 16.2432C10.9223 16.5315 11.0086 16.8829 11.0086 17.2973C11.0086 18.036 10.6719 18.6126 9.99842 19.027C9.32495 19.4234 8.39246 19.6216 7.20093 19.6216C6.11302 19.6216 5.12872 19.4595 4.24803 19.1351C3.36734 18.7928 2.60753 18.3243 1.9686 17.7297C1.34694 17.1171 0.863421 16.3874 0.518053 15.5405C0.172684 14.6937 0 13.7568 0 12.7297C0 11.5405 0.181318 10.5045 0.543955 9.62162C0.923861 8.72072 1.43328 7.98198 2.07221 7.40541C2.71114 6.82883 3.44505 6.3964 4.27394 6.10811C5.12009 5.81982 6.00941 5.67568 6.94191 5.67568C8.18524 5.67568 9.14363 5.90991 9.8171 6.37838C10.4906 6.84685 10.8273 7.45045 10.8273 8.18919C10.8273 8.53153 10.7496 8.85586 10.5942 9.16216C10.4388 9.45045 10.2574 9.7027 10.0502 9.91892C9.75666 9.77478 9.40266 9.63964 8.98822 9.51351C8.57377 9.36937 8.12479 9.2973 7.64128 9.2973Z" fill="white"/>
<path d="M25.8666 12.6486C25.8666 13.7658 25.7026 14.7658 25.3745 15.6486C25.0464 16.5135 24.5801 17.2432 23.9757 17.8378C23.3886 18.4324 22.6806 18.8829 21.8517 19.1892C21.0228 19.4955 20.099 19.6486 19.0801 19.6486C18.0613 19.6486 17.1374 19.4865 16.3085 19.1622C15.4797 18.8378 14.763 18.3784 14.1586 17.7838C13.5715 17.1712 13.1139 16.4324 12.7858 15.5676C12.4577 14.7027 12.2936 13.7297 12.2936 12.6486C12.2936 11.5856 12.4577 10.6216 12.7858 9.75676C13.1139 8.89189 13.5715 8.16216 14.1586 7.56757C14.763 6.95495 15.4797 6.48649 16.3085 6.16216C17.1374 5.83784 18.0613 5.67568 19.0801 5.67568C20.099 5.67568 21.0228 5.84685 21.8517 6.18919C22.6806 6.51351 23.3886 6.98198 23.9757 7.5946C24.5801 8.18919 25.0464 8.91892 25.3745 9.78378C25.7026 10.6486 25.8666 11.6036 25.8666 12.6486ZM16.8007 12.6486C16.8007 13.7477 16.9993 14.5946 17.3965 15.1892C17.8109 15.7658 18.3808 16.0541 19.106 16.0541C19.8313 16.0541 20.3839 15.7568 20.7638 15.1622C21.161 14.5676 21.3596 13.7297 21.3596 12.6486C21.3596 11.5676 21.161 10.7387 20.7638 10.1622C20.3666 9.56757 19.8054 9.27027 19.0801 9.27027C18.3549 9.27027 17.7936 9.56757 17.3965 10.1622C16.9993 10.7387 16.8007 11.5676 16.8007 12.6486Z" fill="white"/>
<path d="M35.9929 10.8919C35.9929 10.3333 35.8375 9.92793 35.5267 9.67568C35.2331 9.40541 34.8273 9.27027 34.3093 9.27027C33.9639 9.27027 33.6185 9.31532 33.2732 9.40541C32.9451 9.4955 32.6601 9.63063 32.4184 9.81081V19.1892C32.2457 19.2432 31.9694 19.2973 31.5895 19.3514C31.2268 19.4054 30.8469 19.4324 30.4498 19.4324C30.0699 19.4324 29.7245 19.4054 29.4137 19.3514C29.1201 19.2973 28.8697 19.1892 28.6625 19.027C28.4553 18.8649 28.2912 18.6486 28.1703 18.3784C28.0667 18.0901 28.0149 17.7207 28.0149 17.2703V9.16216C28.0149 8.67568 28.1099 8.27928 28.2999 7.97297C28.5071 7.66667 28.7834 7.38739 29.1287 7.13514C29.7159 6.7027 30.4498 6.35135 31.3305 6.08108C32.2284 5.81081 33.2214 5.67568 34.3093 5.67568C36.2606 5.67568 37.7629 6.12613 38.8163 7.02703C39.8697 7.90991 40.3964 9.14414 40.3964 10.7297V19.1892C40.2237 19.2432 39.9474 19.2973 39.5675 19.3514C39.2049 19.4054 38.825 19.4324 38.4278 19.4324C38.0479 19.4324 37.7025 19.4054 37.3917 19.3514C37.0981 19.2973 36.8477 19.1892 36.6405 19.027C36.4333 18.8649 36.2692 18.6486 36.1483 18.3784C36.0447 18.0901 35.9929 17.7207 35.9929 17.2703V10.8919Z" fill="white"/>
<path d="M47.5198 14.7027C47.5198 15.1712 47.658 15.5045 47.9343 15.7027C48.2278 15.9009 48.6336 16 49.1517 16C49.4107 16 49.6784 15.982 49.9547 15.9459C50.231 15.8919 50.4727 15.8288 50.6799 15.7568C50.8353 15.955 50.9649 16.1802 51.0685 16.4324C51.1894 16.6667 51.2498 16.955 51.2498 17.2973C51.2498 17.982 50.9994 18.5405 50.4986 18.973C50.0151 19.4054 49.1517 19.6216 47.9084 19.6216C46.3887 19.6216 45.2145 19.2613 44.3856 18.5405C43.574 17.8198 43.1682 16.6486 43.1682 15.027V3.45946C43.3581 3.40541 43.6258 3.35135 43.9712 3.2973C44.3338 3.22522 44.7137 3.18919 45.1109 3.18919C45.8707 3.18919 46.4578 3.33333 46.8722 3.62162C47.304 3.89189 47.5198 4.47748 47.5198 5.37838V7.10811H50.9131C51.0167 7.30631 51.1116 7.55856 51.198 7.86486C51.3016 8.15315 51.3534 8.47748 51.3534 8.83784C51.3534 9.46847 51.2153 9.92793 50.939 10.2162C50.6799 10.4865 50.3259 10.6216 49.877 10.6216H47.5198V14.7027Z" fill="white"/>
<path d="M59.9927 19.6486C58.9739 19.6486 58.0241 19.5045 57.1435 19.2162C56.28 18.9099 55.5202 18.4595 54.864 17.8649C54.2251 17.2703 53.7157 16.5225 53.3358 15.6216C52.9731 14.7207 52.7918 13.6667 52.7918 12.4595C52.7918 11.2703 52.9731 10.2523 53.3358 9.40541C53.7157 8.54054 54.2078 7.83784 54.8122 7.2973C55.4166 6.73874 56.1073 6.33333 56.8844 6.08108C57.6615 5.81081 58.4559 5.67568 59.2675 5.67568C60.1827 5.67568 61.0116 5.81982 61.7541 6.10811C62.5139 6.3964 63.1615 6.79279 63.6968 7.2973C64.2494 7.8018 64.6725 8.40541 64.9661 9.10811C65.2769 9.81081 65.4323 10.5766 65.4323 11.4054C65.4323 12.018 65.2683 12.4865 64.9401 12.8108C64.6121 13.1351 64.1544 13.3423 63.5673 13.4324L57.1694 14.4324C57.3593 15.027 57.7478 15.4775 58.335 15.7838C58.9221 16.0721 59.5956 16.2162 60.3554 16.2162C61.0634 16.2162 61.7282 16.1261 62.3499 15.9459C62.9888 15.7477 63.5069 15.5225 63.904 15.2703C64.1803 15.4505 64.4135 15.7027 64.6034 16.027C64.7934 16.3514 64.8883 16.6937 64.8883 17.0541C64.8883 17.8649 64.5257 18.4685 63.8004 18.8649C63.2478 19.1712 62.6262 19.3784 61.9354 19.4865C61.2447 19.5946 60.5971 19.6486 59.9927 19.6486ZM59.2675 9.02703C58.853 9.02703 58.4904 9.0991 58.1796 9.24324C57.886 9.38739 57.6442 9.57658 57.4543 9.81081C57.2643 10.027 57.1176 10.2793 57.0139 10.5676C56.9276 10.8378 56.8758 11.1171 56.8585 11.4054L61.2879 10.6486C61.2361 10.2883 61.0461 9.92793 60.718 9.56757C60.3899 9.20721 59.9064 9.02703 59.2675 9.02703Z" fill="white"/>
<path d="M75.5299 10.8919C75.5299 10.3333 75.3745 9.92793 75.0636 9.67568C74.7701 9.40541 74.3643 9.27027 73.8462 9.27027C73.5008 9.27027 73.1555 9.31532 72.8101 9.40541C72.482 9.4955 72.1971 9.63063 71.9553 9.81081V19.1892C71.7826 19.2432 71.5063 19.2973 71.1264 19.3514C70.7638 19.4054 70.3839 19.4324 69.9867 19.4324C69.6068 19.4324 69.2614 19.4054 68.9506 19.3514C68.657 19.2973 68.4066 19.1892 68.1994 19.027C67.9922 18.8649 67.8282 18.6486 67.7073 18.3784C67.6037 18.0901 67.5519 17.7207 67.5519 17.2703V9.16216C67.5519 8.67568 67.6468 8.27928 67.8368 7.97297C68.044 7.66667 68.3203 7.38739 68.6657 7.13514C69.2528 6.7027 69.9867 6.35135 70.8674 6.08108C71.7654 5.81081 72.7583 5.67568 73.8462 5.67568C75.7975 5.67568 77.2999 6.12613 78.3533 7.02703C79.4066 7.90991 79.9333 9.14414 79.9333 10.7297V19.1892C79.7606 19.2432 79.4844 19.2973 79.1044 19.3514C78.7418 19.4054 78.3619 19.4324 77.9647 19.4324C77.5848 19.4324 77.2395 19.4054 76.9286 19.3514C76.6351 19.2973 76.3847 19.1892 76.1774 19.027C75.9702 18.8649 75.8062 18.6486 75.6853 18.3784C75.5817 18.0901 75.5299 17.7207 75.5299 17.2703V10.8919Z" fill="white"/>
<path d="M87.0568 14.7027C87.0568 15.1712 87.1949 15.5045 87.4712 15.7027C87.7648 15.9009 88.1706 16 88.6886 16C88.9476 16 89.2153 15.982 89.4916 15.9459C89.7679 15.8919 90.0097 15.8288 90.2169 15.7568C90.3723 15.955 90.5018 16.1802 90.6054 16.4324C90.7263 16.6667 90.7867 16.955 90.7867 17.2973C90.7867 17.982 90.5363 18.5405 90.0356 18.973C89.552 19.4054 88.6886 19.6216 87.4453 19.6216C85.9257 19.6216 84.7514 19.2613 83.9225 18.5405C83.1109 17.8198 82.7051 16.6486 82.7051 15.027V3.45946C82.8951 3.40541 83.1627 3.35135 83.5081 3.2973C83.8707 3.22522 84.2506 3.18919 84.6478 3.18919C85.4076 3.18919 85.9947 3.33333 86.4092 3.62162C86.8409 3.89189 87.0568 4.47748 87.0568 5.37838V7.10811H90.45C90.5536 7.30631 90.6486 7.55856 90.7349 7.86486C90.8385 8.15315 90.8903 8.47748 90.8903 8.83784C90.8903 9.46847 90.7522 9.92793 90.4759 10.2162C90.2169 10.4865 89.8629 10.6216 89.4139 10.6216H87.0568V14.7027Z" fill="white"/>
<path d="M92.9209 2.43243C92.9209 1.74775 93.1367 1.17117 93.5684 0.702702C94.0174 0.234234 94.6045 0 95.3298 0C96.0551 0 96.6336 0.234234 97.0653 0.702702C97.5143 1.17117 97.7388 1.74775 97.7388 2.43243C97.7388 3.11712 97.5143 3.69369 97.0653 4.16216C96.6336 4.63063 96.0551 4.86487 95.3298 4.86487C94.6045 4.86487 94.0174 4.63063 93.5684 4.16216C93.1367 3.69369 92.9209 3.11712 92.9209 2.43243ZM97.5315 19.1892C97.3416 19.2252 97.0567 19.2703 96.6768 19.3243C96.3141 19.3964 95.9428 19.4324 95.5629 19.4324C95.183 19.4324 94.8377 19.4054 94.5268 19.3514C94.2333 19.2973 93.9829 19.1892 93.7757 19.027C93.5684 18.8649 93.4044 18.6486 93.2835 18.3784C93.1799 18.0901 93.1281 17.7207 93.1281 17.2703V6.27027C93.318 6.23423 93.5943 6.18919 93.957 6.13514C94.3369 6.06306 94.7168 6.02703 95.0967 6.02703C95.4766 6.02703 95.8133 6.05405 96.1069 6.10811C96.4177 6.16216 96.6768 6.27027 96.884 6.43243C97.0912 6.59459 97.2466 6.81982 97.3502 7.10811C97.4711 7.37838 97.5315 7.73874 97.5315 8.18919V19.1892Z" fill="white"/>
<path d="M100.231 2.43243C100.231 1.74775 100.447 1.17117 100.879 0.702702C101.328 0.234234 101.915 0 102.64 0C103.366 0 103.944 0.234234 104.376 0.702702C104.825 1.17117 105.049 1.74775 105.049 2.43243C105.049 3.11712 104.825 3.69369 104.376 4.16216C103.944 4.63063 103.366 4.86487 102.64 4.86487C101.915 4.86487 101.328 4.63063 100.879 4.16216C100.447 3.69369 100.231 3.11712 100.231 2.43243ZM104.842 19.1892C104.652 19.2252 104.367 19.2703 103.987 19.3243C103.625 19.3964 103.253 19.4324 102.873 19.4324C102.493 19.4324 102.148 19.4054 101.837 19.3514C101.544 19.2973 101.293 19.1892 101.086 19.027C100.879 18.8649 100.715 18.6486 100.594 18.3784C100.49 18.0901 100.438 17.7207 100.438 17.2703V6.27027C100.628 6.23423 100.905 6.18919 101.267 6.13514C101.647 6.06306 102.027 6.02703 102.407 6.02703C102.787 6.02703 103.124 6.05405 103.417 6.10811C103.728 6.16216 103.987 6.27027 104.194 6.43243C104.402 6.59459 104.557 6.81982 104.661 7.10811C104.782 7.37838 104.842 7.73874 104.842 8.18919V19.1892Z" fill="white"/>
<path d="M107.697 6.08108C107.697 5.16216 107.844 4.37838 108.137 3.72973C108.448 3.06306 108.863 2.52252 109.381 2.10811C109.899 1.67568 110.503 1.36036 111.194 1.16216C111.902 0.963964 112.653 0.864865 113.447 0.864865C114.725 0.864865 115.666 1.04505 116.271 1.40541C116.875 1.74775 117.177 2.34234 117.177 3.18919C117.177 3.54955 117.1 3.87387 116.944 4.16216C116.806 4.45045 116.651 4.66667 116.478 4.81081C116.15 4.72072 115.805 4.64865 115.442 4.5946C115.097 4.52252 114.691 4.48649 114.225 4.48649C113.482 4.48649 112.904 4.62162 112.489 4.89189C112.075 5.14414 111.867 5.59459 111.867 6.24324V7.10811H116.115C116.219 7.30631 116.314 7.55856 116.4 7.86486C116.504 8.15315 116.556 8.47748 116.556 8.83784C116.556 9.46847 116.418 9.92793 116.141 10.2162C115.882 10.4865 115.528 10.6216 115.079 10.6216H112.101V19.1892C111.928 19.2432 111.652 19.2973 111.272 19.3514C110.909 19.4054 110.529 19.4324 110.132 19.4324C109.752 19.4324 109.407 19.4054 109.096 19.3514C108.802 19.2973 108.552 19.1892 108.345 19.027C108.137 18.8649 107.973 18.6486 107.853 18.3784C107.749 18.0901 107.697 17.7207 107.697 17.2703V6.08108Z" fill="white"/>
<path d="M120.491 15.8649C120.301 15.4144 120.094 14.9099 119.869 14.3514C119.662 13.7928 119.438 13.1532 119.196 12.4324C118.971 11.7117 118.73 10.8919 118.471 9.97297C118.229 9.03604 117.97 7.96396 117.694 6.75676C117.935 6.5045 118.255 6.28829 118.652 6.10811C119.066 5.90991 119.515 5.81081 119.999 5.81081C120.603 5.81081 121.104 5.94595 121.501 6.21622C121.898 6.46847 122.192 6.95496 122.382 7.67568L124.428 15.1081H124.532C124.739 14.4955 124.938 13.8288 125.128 13.1081C125.335 12.3874 125.533 11.6486 125.723 10.8919C125.913 10.1171 126.086 9.35135 126.241 8.5946C126.414 7.81982 126.561 7.06306 126.682 6.32432C127.303 5.98198 127.985 5.81081 128.728 5.81081C129.332 5.81081 129.833 5.94595 130.23 6.21622C130.628 6.48649 130.826 6.95496 130.826 7.62162C130.826 8.10811 130.766 8.67568 130.645 9.32432C130.524 9.95496 130.36 10.6306 130.153 11.3514C129.963 12.0721 129.73 12.8198 129.453 13.5946C129.194 14.3514 128.918 15.0991 128.624 15.8378C128.331 16.5766 128.029 17.2793 127.718 17.9459C127.407 18.5946 127.105 19.1802 126.811 19.7027C126.328 20.5856 125.879 21.3063 125.464 21.8649C125.05 22.4234 124.653 22.8559 124.273 23.1622C123.893 23.4865 123.513 23.7027 123.133 23.8108C122.753 23.9369 122.356 24 121.942 24C121.216 24 120.629 23.7748 120.18 23.3243C119.731 22.8739 119.464 22.2883 119.377 21.5676C119.93 21.1171 120.482 20.6126 121.035 20.0541C121.588 19.5135 122.088 18.955 122.537 18.3784C122.244 18.2883 121.924 18.0811 121.579 17.7568C121.251 17.4144 120.888 16.7838 120.491 15.8649Z" fill="white"/>
<path d="M130.975 17.027C130.975 16.2703 131.199 15.6396 131.648 15.1351C132.097 14.6306 132.71 14.3784 133.487 14.3784C134.265 14.3784 134.878 14.6306 135.327 15.1351C135.776 15.6396 136 16.2703 136 17.027C136 17.7838 135.776 18.4144 135.327 18.9189C134.878 19.4234 134.265 19.6757 133.487 19.6757C132.71 19.6757 132.097 19.4234 131.648 18.9189C131.199 18.4144 130.975 17.7838 130.975 17.027Z" fill="white"/>
</svg>
