<svg width="162" height="28" viewBox="0 0 162 28" fill="none" xmlns="http://www.w3.org/2000/svg">
<path d="M9.09565 10.8468C8.58177 10.8468 8.08845 10.9309 7.61568 11.0991C7.16347 11.2673 6.76264 11.5195 6.41321 11.8559C6.08432 12.1712 5.81711 12.5706 5.61155 13.0541C5.406 13.5375 5.30323 14.1051 5.30323 14.7568C5.30323 16.0601 5.66294 17.0375 6.38237 17.6892C7.12236 18.3408 8.01651 18.6667 9.06482 18.6667C9.68147 18.6667 10.2159 18.5931 10.6681 18.4459C11.1203 18.2988 11.5212 18.1411 11.8706 17.973C12.2817 18.2673 12.59 18.5931 12.7956 18.9505C13.0011 19.2868 13.1039 19.6967 13.1039 20.1802C13.1039 21.042 12.7031 21.7147 11.9014 22.1982C11.0998 22.6607 9.9898 22.8919 8.5715 22.8919C7.27652 22.8919 6.10488 22.7027 5.05657 22.3243C4.00825 21.9249 3.10383 21.3784 2.34329 20.6847C1.6033 19.97 1.02776 19.1186 0.616654 18.1306C0.205551 17.1426 0 16.0496 0 14.8514C0 13.464 0.215829 12.2553 0.647487 11.2252C1.0997 10.1742 1.70608 9.31231 2.46662 8.63964C3.22716 7.96697 4.10075 7.46246 5.0874 7.12613C6.0946 6.78979 7.15319 6.62162 8.26317 6.62162C9.74314 6.62162 10.8839 6.89489 11.6856 7.44144C12.4873 7.98799 12.8881 8.69219 12.8881 9.55405C12.8881 9.95345 12.7956 10.3318 12.6106 10.6892C12.4256 11.0255 12.2098 11.3198 11.9631 11.5721C11.6137 11.4039 11.1923 11.2462 10.699 11.0991C10.2056 10.9309 9.6712 10.8468 9.09565 10.8468Z" fill="white"/>
<path d="M30.7898 14.7568C30.7898 16.0601 30.5946 17.2267 30.204 18.2568C29.8135 19.2658 29.2585 20.1171 28.5391 20.8108C27.8402 21.5045 26.9974 22.03 26.0108 22.3874C25.0241 22.7447 23.9244 22.9234 22.7117 22.9234C21.4989 22.9234 20.3992 22.7342 19.4126 22.3559C18.4259 21.9775 17.5729 21.4414 16.8535 20.7477C16.1546 20.033 15.6099 19.1712 15.2193 18.1622C14.8288 17.1532 14.6335 16.018 14.6335 14.7568C14.6335 13.5165 14.8288 12.3919 15.2193 11.3829C15.6099 10.3739 16.1546 9.52252 16.8535 8.82883C17.5729 8.11411 18.4259 7.56757 19.4126 7.18919C20.3992 6.81081 21.4989 6.62162 22.7117 6.62162C23.9244 6.62162 25.0241 6.82132 26.0108 7.22072C26.9974 7.5991 27.8402 8.14565 28.5391 8.86036C29.2585 9.55406 29.8135 10.4054 30.204 11.4144C30.5946 12.4234 30.7898 13.5375 30.7898 14.7568ZM19.9984 14.7568C19.9984 16.039 20.2348 17.027 20.7075 17.7207C21.2009 18.3934 21.8792 18.7297 22.7425 18.7297C23.6058 18.7297 24.2636 18.3829 24.7158 17.6892C25.1886 16.9955 25.4249 16.018 25.4249 14.7568C25.4249 13.4955 25.1886 12.5285 24.7158 11.8559C24.243 11.1622 23.575 10.8153 22.7117 10.8153C21.8484 10.8153 21.1803 11.1622 20.7075 11.8559C20.2348 12.5285 19.9984 13.4955 19.9984 14.7568Z" fill="white"/>
<path d="M42.8435 12.7072C42.8435 12.0556 42.6585 11.5826 42.2885 11.2883C41.9391 10.973 41.456 10.8153 40.8394 10.8153C40.4283 10.8153 40.0172 10.8679 39.6061 10.973C39.2155 11.0781 38.8764 11.2357 38.5886 11.4459V22.3874C38.383 22.4505 38.0542 22.5135 37.6019 22.5766C37.1703 22.6396 36.7181 22.6712 36.2453 22.6712C35.7931 22.6712 35.382 22.6396 35.012 22.5766C34.6626 22.5135 34.3645 22.3874 34.1178 22.1982C33.8712 22.009 33.6759 21.7568 33.532 21.4414C33.4087 21.1051 33.347 20.6742 33.347 20.1487V10.6892C33.347 10.1216 33.4601 9.65916 33.6862 9.3018C33.9328 8.94444 34.2617 8.61862 34.6728 8.32432C35.3717 7.81982 36.2453 7.40991 37.2936 7.09459C38.3625 6.77928 39.5444 6.62162 40.8394 6.62162C43.1621 6.62162 44.9504 7.14715 46.2043 8.1982C47.4581 9.22823 48.0851 10.6682 48.0851 12.518V22.3874C47.8795 22.4505 47.5506 22.5135 47.0984 22.5766C46.6668 22.6396 46.2145 22.6712 45.7418 22.6712C45.2896 22.6712 44.8785 22.6396 44.5085 22.5766C44.159 22.5135 43.861 22.3874 43.6143 22.1982C43.3677 22.009 43.1724 21.7568 43.0285 21.4414C42.9052 21.1051 42.8435 20.6742 42.8435 20.1487V12.7072Z" fill="white"/>
<path d="M56.5643 17.1532C56.5643 17.6997 56.7287 18.0886 57.0576 18.3198C57.4071 18.5511 57.8901 18.6667 58.5068 18.6667C58.8151 18.6667 59.1337 18.6456 59.4626 18.6036C59.7915 18.5405 60.0792 18.467 60.3259 18.3829C60.5109 18.6141 60.6651 18.8769 60.7884 19.1712C60.9323 19.4444 61.0042 19.7808 61.0042 20.1802C61.0042 20.979 60.7062 21.6306 60.1101 22.1351C59.5345 22.6396 58.5068 22.8919 57.0268 22.8919C55.2179 22.8919 53.8202 22.4715 52.8335 21.6306C51.8675 20.7898 51.3844 19.4234 51.3844 17.5315V4.03604C51.6105 3.97297 51.9291 3.90991 52.3402 3.84685C52.7719 3.76276 53.2241 3.72072 53.6969 3.72072C54.6013 3.72072 55.3002 3.88889 55.7935 4.22523C56.3074 4.54054 56.5643 5.22372 56.5643 6.27477V8.29279H60.6034C60.7267 8.52402 60.8398 8.81832 60.9425 9.17568C61.0659 9.51201 61.1275 9.89039 61.1275 10.3108C61.1275 11.0465 60.9631 11.5826 60.6342 11.9189C60.3259 12.2342 59.9045 12.3919 59.3701 12.3919H56.5643V17.1532Z" fill="white"/>
<path d="M71.4112 22.9234C70.1985 22.9234 69.0679 22.7553 68.0196 22.4189C66.9919 22.0616 66.0874 21.536 65.3063 20.8423C64.5458 20.1487 63.9394 19.2763 63.4872 18.2252C63.0556 17.1742 62.8397 15.9444 62.8397 14.536C62.8397 13.1486 63.0556 11.961 63.4872 10.973C63.9394 9.96396 64.5252 9.14414 65.2447 8.51351C65.9641 7.86186 66.7863 7.38889 67.7113 7.09459C68.6363 6.77928 69.5818 6.62162 70.5479 6.62162C71.6373 6.62162 72.624 6.78979 73.5078 7.12613C74.4123 7.46246 75.1831 7.92493 75.8203 8.51351C76.4781 9.1021 76.9817 9.80631 77.3311 10.6261C77.7011 11.4459 77.8861 12.3393 77.8861 13.3063C77.8861 14.021 77.6908 14.5676 77.3003 14.9459C76.9097 15.3243 76.365 15.5661 75.6661 15.6712L68.0505 16.8378C68.2766 17.5315 68.7391 18.0571 69.4379 18.4144C70.1368 18.7508 70.9385 18.9189 71.8429 18.9189C72.6856 18.9189 73.477 18.8138 74.217 18.6036C74.9775 18.3724 75.5942 18.1096 76.067 17.8153C76.3958 18.0255 76.6733 18.3198 76.8994 18.6982C77.1255 19.0766 77.2386 19.476 77.2386 19.8964C77.2386 20.8423 76.8069 21.5465 75.9436 22.009C75.2859 22.3664 74.5459 22.6081 73.7237 22.7342C72.9015 22.8604 72.1307 22.9234 71.4112 22.9234ZM70.5479 10.5315C70.0546 10.5315 69.6229 10.6156 69.2529 10.7838C68.9035 10.952 68.6157 11.1727 68.3896 11.4459C68.1635 11.6982 67.9888 11.9925 67.8655 12.3288C67.7627 12.6441 67.701 12.97 67.6805 13.3063L72.9529 12.4234C72.8912 12.003 72.6651 11.5826 72.2745 11.1622C71.884 10.7417 71.3084 10.5315 70.5479 10.5315Z" fill="white"/>
<path d="M89.9056 12.7072C89.9056 12.0556 89.7206 11.5826 89.3506 11.2883C89.0011 10.973 88.5181 10.8153 87.9014 10.8153C87.4903 10.8153 87.0792 10.8679 86.6681 10.973C86.2776 11.0781 85.9384 11.2357 85.6506 11.4459V22.3874C85.4451 22.4505 85.1162 22.5135 84.664 22.5766C84.2323 22.6396 83.7801 22.6712 83.3073 22.6712C82.8551 22.6712 82.444 22.6396 82.074 22.5766C81.7246 22.5135 81.4266 22.3874 81.1799 22.1982C80.9332 22.009 80.738 21.7568 80.5941 21.4414C80.4707 21.1051 80.4091 20.6742 80.4091 20.1487V10.6892C80.4091 10.1216 80.5221 9.65916 80.7482 9.3018C80.9949 8.94444 81.3238 8.61862 81.7349 8.32432C82.4338 7.81982 83.3073 7.40991 84.3557 7.09459C85.4245 6.77928 86.6064 6.62162 87.9014 6.62162C90.2242 6.62162 92.0124 7.14715 93.2663 8.1982C94.5202 9.22823 95.1471 10.6682 95.1471 12.518V22.3874C94.9416 22.4505 94.6127 22.5135 94.1605 22.5766C93.7288 22.6396 93.2766 22.6712 92.8038 22.6712C92.3516 22.6712 91.9405 22.6396 91.5705 22.5766C91.2211 22.5135 90.923 22.3874 90.6764 22.1982C90.4297 22.009 90.2344 21.7568 90.0905 21.4414C89.9672 21.1051 89.9056 20.6742 89.9056 20.1487V12.7072Z" fill="white"/>
<path d="M103.626 17.1532C103.626 17.6997 103.791 18.0886 104.12 18.3198C104.469 18.5511 104.952 18.6667 105.569 18.6667C105.877 18.6667 106.196 18.6456 106.525 18.6036C106.854 18.5405 107.141 18.467 107.388 18.3829C107.573 18.6141 107.727 18.8769 107.85 19.1712C107.994 19.4444 108.066 19.7808 108.066 20.1802C108.066 20.979 107.768 21.6306 107.172 22.1351C106.597 22.6396 105.569 22.8919 104.089 22.8919C102.28 22.8919 100.882 22.4715 99.8956 21.6306C98.9295 20.7898 98.4465 19.4234 98.4465 17.5315V4.03604C98.6726 3.97297 98.9912 3.90991 99.4023 3.84685C99.8339 3.76276 100.286 3.72072 100.759 3.72072C101.663 3.72072 102.362 3.88889 102.856 4.22523C103.369 4.54054 103.626 5.22372 103.626 6.27477V8.29279H107.665C107.789 8.52402 107.902 8.81832 108.005 9.17568C108.128 9.51201 108.19 9.89039 108.19 10.3108C108.19 11.0465 108.025 11.5826 107.696 11.9189C107.388 12.2342 106.967 12.3919 106.432 12.3919H103.626V17.1532Z" fill="white"/>
<path d="M110.607 2.83784C110.607 2.03904 110.864 1.36637 111.377 0.819819C111.912 0.273273 112.611 0 113.474 0C114.337 0 115.026 0.273273 115.54 0.819819C116.074 1.36637 116.341 2.03904 116.341 2.83784C116.341 3.63664 116.074 4.30931 115.54 4.85586C115.026 5.4024 114.337 5.67568 113.474 5.67568C112.611 5.67568 111.912 5.4024 111.377 4.85586C110.864 4.30931 110.607 3.63664 110.607 2.83784ZM116.095 22.3874C115.869 22.4294 115.53 22.482 115.077 22.545C114.646 22.6291 114.204 22.6712 113.752 22.6712C113.299 22.6712 112.888 22.6396 112.518 22.5766C112.169 22.5135 111.871 22.3874 111.624 22.1982C111.377 22.009 111.182 21.7568 111.038 21.4414C110.915 21.1051 110.853 20.6742 110.853 20.1487V7.31531C111.079 7.27327 111.408 7.22072 111.84 7.15766C112.292 7.07357 112.744 7.03153 113.197 7.03153C113.649 7.03153 114.05 7.06306 114.399 7.12613C114.769 7.18919 115.077 7.31532 115.324 7.5045C115.571 7.69369 115.756 7.95646 115.879 8.29279C116.023 8.60811 116.095 9.02853 116.095 9.55405V22.3874Z" fill="white"/>
<path d="M119.308 2.83784C119.308 2.03904 119.565 1.36637 120.079 0.819819C120.614 0.273273 121.313 0 122.176 0C123.039 0 123.728 0.273273 124.242 0.819819C124.776 1.36637 125.043 2.03904 125.043 2.83784C125.043 3.63664 124.776 4.30931 124.242 4.85586C123.728 5.4024 123.039 5.67568 122.176 5.67568C121.313 5.67568 120.614 5.4024 120.079 4.85586C119.565 4.30931 119.308 3.63664 119.308 2.83784ZM124.797 22.3874C124.571 22.4294 124.231 22.482 123.779 22.545C123.347 22.6291 122.906 22.6712 122.453 22.6712C122.001 22.6712 121.59 22.6396 121.22 22.5766C120.871 22.5135 120.573 22.3874 120.326 22.1982C120.079 22.009 119.884 21.7568 119.74 21.4414C119.617 21.1051 119.555 20.6742 119.555 20.1487V7.31531C119.781 7.27327 120.11 7.22072 120.542 7.15766C120.994 7.07357 121.446 7.03153 121.898 7.03153C122.351 7.03153 122.751 7.06306 123.101 7.12613C123.471 7.18919 123.779 7.31532 124.026 7.5045C124.272 7.69369 124.457 7.95646 124.581 8.29279C124.725 8.60811 124.797 9.02853 124.797 9.55405V22.3874Z" fill="white"/>
<path d="M128.195 7.09459C128.195 6.02252 128.37 5.10811 128.719 4.35135C129.089 3.57357 129.583 2.94294 130.199 2.45946C130.816 1.95496 131.535 1.58709 132.358 1.35586C133.2 1.12462 134.095 1.00901 135.04 1.00901C136.561 1.00901 137.681 1.21922 138.401 1.63964C139.12 2.03904 139.48 2.73273 139.48 3.72072C139.48 4.14114 139.387 4.51952 139.202 4.85586C139.038 5.19219 138.853 5.44444 138.647 5.61261C138.257 5.50751 137.846 5.42342 137.414 5.36036C137.003 5.27628 136.52 5.23423 135.965 5.23423C135.081 5.23423 134.393 5.39189 133.899 5.70721C133.406 6.0015 133.159 6.52703 133.159 7.28378V8.29279H138.216C138.339 8.52402 138.452 8.81832 138.555 9.17568C138.678 9.51201 138.74 9.89039 138.74 10.3108C138.74 11.0465 138.576 11.5826 138.247 11.9189C137.938 12.2342 137.517 12.3919 136.983 12.3919H133.437V22.3874C133.231 22.4505 132.902 22.5135 132.45 22.5766C132.018 22.6396 131.566 22.6712 131.093 22.6712C130.641 22.6712 130.23 22.6396 129.86 22.5766C129.511 22.5135 129.213 22.3874 128.966 22.1982C128.719 22.009 128.524 21.7568 128.38 21.4414C128.257 21.1051 128.195 20.6742 128.195 20.1487V7.09459Z" fill="white"/>
<path d="M143.424 18.509C143.198 17.9835 142.951 17.3949 142.684 16.7432C142.438 16.0916 142.17 15.3453 141.883 14.5045C141.615 13.6637 141.328 12.7072 141.019 11.6351C140.731 10.542 140.423 9.29129 140.094 7.88288C140.382 7.58859 140.762 7.33634 141.235 7.12613C141.728 6.8949 142.263 6.77928 142.838 6.77928C143.558 6.77928 144.154 6.93694 144.627 7.25225C145.099 7.54655 145.449 8.11411 145.675 8.95496L148.111 17.6261H148.234C148.481 16.9114 148.717 16.1336 148.943 15.2928C149.19 14.452 149.426 13.5901 149.652 12.7072C149.878 11.8033 150.084 10.9099 150.269 10.027C150.475 9.12312 150.649 8.24024 150.793 7.37838C151.533 6.97898 152.345 6.77928 153.229 6.77928C153.948 6.77928 154.544 6.93694 155.017 7.25225C155.49 7.56757 155.726 8.11411 155.726 8.89189C155.726 9.45946 155.654 10.1216 155.511 10.8784C155.367 11.6141 155.171 12.4024 154.925 13.2432C154.699 14.0841 154.421 14.9565 154.092 15.8604C153.784 16.7432 153.455 17.6156 153.106 18.4775C152.756 19.3393 152.396 20.1592 152.026 20.9369C151.656 21.6937 151.297 22.3769 150.947 22.9865C150.372 24.0165 149.837 24.8574 149.344 25.509C148.851 26.1607 148.378 26.6652 147.926 27.0225C147.474 27.4009 147.021 27.6532 146.569 27.7793C146.117 27.9264 145.644 28 145.151 28C144.287 28 143.589 27.7372 143.054 27.2117C142.52 26.6862 142.201 26.003 142.098 25.1622C142.756 24.6366 143.414 24.0481 144.072 23.3964C144.729 22.7658 145.326 22.1141 145.86 21.4414C145.511 21.3363 145.13 21.0946 144.719 20.7162C144.329 20.3168 143.897 19.5811 143.424 18.509Z" fill="white"/>
<path d="M155.903 19.8649C155.903 18.982 156.171 18.2462 156.705 17.6577C157.24 17.0691 157.969 16.7748 158.894 16.7748C159.819 16.7748 160.549 17.0691 161.083 17.6577C161.618 18.2462 161.885 18.982 161.885 19.8649C161.885 20.7477 161.618 21.4835 161.083 22.0721C160.549 22.6607 159.819 22.955 158.894 22.955C157.969 22.955 157.24 22.6607 156.705 22.0721C156.171 21.4835 155.903 20.7477 155.903 19.8649Z" fill="white"/>
</svg>
