<svg width="162" height="29" viewBox="0 0 162 29" fill="none" xmlns="http://www.w3.org/2000/svg">
<path d="M9.09565 11.0805C8.58177 11.0805 8.08845 11.1646 7.61568 11.3327C7.16347 11.5009 6.76264 11.7532 6.41321 12.0895C6.08432 12.4048 5.81711 12.8042 5.61155 13.2877C5.406 13.7712 5.30323 14.3387 5.30323 14.9904C5.30323 16.2937 5.66294 17.2712 6.38237 17.9228C7.12236 18.5745 8.01651 18.9003 9.06482 18.9003C9.68147 18.9003 10.2159 18.8267 10.6681 18.6796C11.1203 18.5324 11.5212 18.3748 11.8706 18.2066C12.2817 18.5009 12.59 18.8267 12.7956 19.1841C13.0011 19.5204 13.1039 19.9303 13.1039 20.4138C13.1039 21.2757 12.7031 21.9484 11.9014 22.4318C11.0998 22.8943 9.9898 23.1255 8.5715 23.1255C7.27652 23.1255 6.10488 22.9363 5.05657 22.558C4.00825 22.1586 3.10383 21.612 2.34329 20.9183C1.6033 20.2036 1.02776 19.3523 0.616654 18.3643C0.205551 17.3763 0 16.2832 0 15.085C0 13.6976 0.215829 12.4889 0.647487 11.4589C1.0997 10.4078 1.70608 9.54595 2.46662 8.87328C3.22716 8.20061 4.10075 7.69611 5.0874 7.35977C6.0946 7.02343 7.15319 6.85526 8.26317 6.85526C9.74314 6.85526 10.8839 7.12854 11.6856 7.67508C12.4873 8.22163 12.8881 8.92583 12.8881 9.7877C12.8881 10.1871 12.7956 10.5655 12.6106 10.9228C12.4256 11.2592 12.2098 11.5535 11.9631 11.8057C11.6137 11.6375 11.1923 11.4799 10.699 11.3327C10.2056 11.1646 9.67119 11.0805 9.09565 11.0805Z" fill="white"/>
<path d="M30.7898 14.9904C30.7898 16.2937 30.5946 17.4604 30.204 18.4904C29.8135 19.4994 29.2585 20.3508 28.5391 21.0445C27.8402 21.7381 26.9974 22.2637 26.0108 22.621C25.0241 22.9784 23.9244 23.1571 22.7117 23.1571C21.4989 23.1571 20.3992 22.9679 19.4126 22.5895C18.4259 22.2111 17.5729 21.6751 16.8535 20.9814C16.1546 20.2667 15.6099 19.4048 15.2193 18.3958C14.8288 17.3868 14.6335 16.2517 14.6335 14.9904C14.6335 13.7502 14.8288 12.6255 15.2193 11.6165C15.6099 10.6075 16.1546 9.75616 16.8535 9.06247C17.5729 8.34776 18.4259 7.80121 19.4126 7.42283C20.3992 7.04445 21.4989 6.85526 22.7117 6.85526C23.9244 6.85526 25.0241 7.05496 26.0108 7.45436C26.9974 7.83274 27.8402 8.37929 28.5391 9.094C29.2585 9.7877 29.8135 10.639 30.204 11.6481C30.5946 12.6571 30.7898 13.7712 30.7898 14.9904ZM19.9984 14.9904C19.9984 16.2727 20.2348 17.2607 20.7075 17.9544C21.2009 18.627 21.8792 18.9634 22.7425 18.9634C23.6058 18.9634 24.2636 18.6165 24.7158 17.9228C25.1886 17.2291 25.4249 16.2517 25.4249 14.9904C25.4249 13.7291 25.1886 12.7622 24.7158 12.0895C24.243 11.3958 23.575 11.049 22.7117 11.049C21.8484 11.049 21.1803 11.3958 20.7075 12.0895C20.2348 12.7622 19.9984 13.7291 19.9984 14.9904Z" fill="white"/>
<path d="M42.8435 12.9408C42.8435 12.2892 42.6585 11.8162 42.2885 11.5219C41.9391 11.2066 41.456 11.049 40.8394 11.049C40.4283 11.049 40.0172 11.1015 39.6061 11.2066C39.2155 11.3117 38.8764 11.4694 38.5886 11.6796V22.621C38.383 22.6841 38.0542 22.7472 37.6019 22.8102C37.1703 22.8733 36.7181 22.9048 36.2453 22.9048C35.7931 22.9048 35.382 22.8733 35.012 22.8102C34.6626 22.7472 34.3645 22.621 34.1178 22.4318C33.8712 22.2427 33.6759 21.9904 33.532 21.6751C33.4087 21.3387 33.347 20.9078 33.347 20.3823V10.9228C33.347 10.3553 33.4601 9.8928 33.6862 9.53545C33.9328 9.17809 34.2617 8.85226 34.6728 8.55797C35.3717 8.05346 36.2453 7.64355 37.2936 7.32824C38.3625 7.01292 39.5444 6.85526 40.8394 6.85526C43.1621 6.85526 44.9504 7.38079 46.2043 8.43184C47.4581 9.46187 48.0851 10.9018 48.0851 12.7517V22.621C47.8795 22.6841 47.5506 22.7472 47.0984 22.8102C46.6668 22.8733 46.2145 22.9048 45.7418 22.9048C45.2896 22.9048 44.8785 22.8733 44.5085 22.8102C44.159 22.7472 43.861 22.621 43.6143 22.4318C43.3677 22.2427 43.1724 21.9904 43.0285 21.6751C42.9052 21.3387 42.8435 20.9078 42.8435 20.3823V12.9408Z" fill="white"/>
<path d="M56.5643 17.3868C56.5643 17.9333 56.7287 18.3222 57.0576 18.5535C57.4071 18.7847 57.8901 18.9003 58.5068 18.9003C58.8151 18.9003 59.1337 18.8793 59.4626 18.8372C59.7915 18.7742 60.0792 18.7006 60.3259 18.6165C60.5109 18.8478 60.6651 19.1105 60.7884 19.4048C60.9323 19.6781 61.0042 20.0144 61.0042 20.4138C61.0042 21.2126 60.7062 21.8643 60.1101 22.3688C59.5345 22.8733 58.5068 23.1255 57.0268 23.1255C55.2179 23.1255 53.8202 22.7051 52.8335 21.8643C51.8675 21.0234 51.3844 19.6571 51.3844 17.7652V4.26968C51.6105 4.20662 51.9291 4.14355 52.3402 4.08049C52.7719 3.9964 53.2241 3.95436 53.6969 3.95436C54.6013 3.95436 55.3002 4.12253 55.7935 4.45887C56.3074 4.77418 56.5643 5.45737 56.5643 6.50842V8.52644H60.6034C60.7267 8.75767 60.8398 9.05196 60.9425 9.40932C61.0659 9.74565 61.1275 10.124 61.1275 10.5445C61.1275 11.2802 60.9631 11.8162 60.6342 12.1526C60.3259 12.4679 59.9045 12.6255 59.3701 12.6255H56.5643V17.3868Z" fill="white"/>
<path d="M71.4112 23.1571C70.1985 23.1571 69.0679 22.9889 68.0196 22.6526C66.9919 22.2952 66.0874 21.7697 65.3063 21.076C64.5458 20.3823 63.9394 19.5099 63.4872 18.4589C63.0556 17.4078 62.8397 16.1781 62.8397 14.7697C62.8397 13.3823 63.0556 12.1946 63.4872 11.2066C63.9394 10.1976 64.5252 9.37779 65.2447 8.74716C65.9641 8.0955 66.7863 7.62253 67.7113 7.32824C68.6363 7.01292 69.5818 6.85526 70.5479 6.85526C71.6373 6.85526 72.624 7.02343 73.5078 7.35977C74.4123 7.69611 75.1831 8.15857 75.8203 8.74716C76.4781 9.33574 76.9817 10.0399 77.3311 10.8598C77.7011 11.6796 77.8861 12.573 77.8861 13.5399C77.8861 14.2547 77.6908 14.8012 77.3003 15.1796C76.9097 15.558 76.365 15.7997 75.6661 15.9048L68.0505 17.0715C68.2766 17.7652 68.7391 18.2907 69.4379 18.6481C70.1368 18.9844 70.9385 19.1526 71.8429 19.1526C72.6856 19.1526 73.477 19.0475 74.217 18.8372C74.9775 18.606 75.5942 18.3433 76.067 18.049C76.3958 18.2592 76.6733 18.5535 76.8994 18.9318C77.1256 19.3102 77.2386 19.7096 77.2386 20.13C77.2386 21.076 76.8069 21.7802 75.9436 22.2427C75.2859 22.6 74.5459 22.8418 73.7237 22.9679C72.9015 23.094 72.1307 23.1571 71.4112 23.1571ZM70.5479 10.7652C70.0546 10.7652 69.6229 10.8493 69.2529 11.0174C68.9035 11.1856 68.6157 11.4063 68.3896 11.6796C68.1635 11.9318 67.9888 12.2261 67.8655 12.5625C67.7627 12.8778 67.701 13.2036 67.6805 13.5399L72.9529 12.6571C72.8912 12.2366 72.6651 11.8162 72.2745 11.3958C71.884 10.9754 71.3084 10.7652 70.5479 10.7652Z" fill="white"/>
<path d="M89.9055 12.9408C89.9055 12.2892 89.7206 11.8162 89.3506 11.5219C89.0011 11.2066 88.5181 11.049 87.9014 11.049C87.4903 11.049 87.0792 11.1015 86.6681 11.2066C86.2776 11.3117 85.9384 11.4694 85.6506 11.6796V22.621C85.4451 22.6841 85.1162 22.7472 84.664 22.8102C84.2323 22.8733 83.7801 22.9048 83.3074 22.9048C82.8551 22.9048 82.444 22.8733 82.074 22.8102C81.7246 22.7472 81.4265 22.621 81.1799 22.4318C80.9332 22.2427 80.738 21.9904 80.5941 21.6751C80.4707 21.3387 80.4091 20.9078 80.4091 20.3823V10.9228C80.4091 10.3553 80.5221 9.8928 80.7482 9.53545C80.9949 9.17809 81.3238 8.85226 81.7349 8.55797C82.4338 8.05346 83.3073 7.64355 84.3557 7.32824C85.4245 7.01292 86.6064 6.85526 87.9014 6.85526C90.2242 6.85526 92.0124 7.38079 93.2663 8.43184C94.5202 9.46187 95.1471 10.9018 95.1471 12.7517V22.621C94.9416 22.6841 94.6127 22.7472 94.1605 22.8102C93.7288 22.8733 93.2766 22.9048 92.8038 22.9048C92.3516 22.9048 91.9405 22.8733 91.5705 22.8102C91.2211 22.7472 90.923 22.621 90.6764 22.4318C90.4297 22.2427 90.2344 21.9904 90.0905 21.6751C89.9672 21.3387 89.9055 20.9078 89.9055 20.3823V12.9408Z" fill="white"/>
<path d="M103.626 17.3868C103.626 17.9333 103.791 18.3222 104.12 18.5535C104.469 18.7847 104.952 18.9003 105.569 18.9003C105.877 18.9003 106.196 18.8793 106.525 18.8372C106.854 18.7742 107.141 18.7006 107.388 18.6165C107.573 18.8478 107.727 19.1105 107.85 19.4048C107.994 19.6781 108.066 20.0144 108.066 20.4138C108.066 21.2126 107.768 21.8643 107.172 22.3688C106.597 22.8733 105.569 23.1255 104.089 23.1255C102.28 23.1255 100.882 22.7051 99.8956 21.8643C98.9295 21.0234 98.4465 19.6571 98.4465 17.7652V4.26968C98.6726 4.20662 98.9912 4.14355 99.4023 4.08049C99.8339 3.9964 100.286 3.95436 100.759 3.95436C101.663 3.95436 102.362 4.12253 102.856 4.45887C103.369 4.77418 103.626 5.45737 103.626 6.50842V8.52644H107.665C107.789 8.75767 107.902 9.05196 108.005 9.40932C108.128 9.74565 108.19 10.124 108.19 10.5445C108.19 11.2802 108.025 11.8162 107.696 12.1526C107.388 12.4679 106.967 12.6255 106.432 12.6255H103.626V17.3868Z" fill="white"/>
<path d="M110.607 3.07148C110.607 2.27268 110.864 1.60001 111.377 1.05346C111.912 0.506915 112.611 0.233643 113.474 0.233643C114.337 0.233643 115.026 0.506915 115.54 1.05346C116.074 1.60001 116.341 2.27268 116.341 3.07148C116.341 3.87028 116.074 4.54295 115.54 5.0895C115.026 5.63605 114.337 5.90932 113.474 5.90932C112.611 5.90932 111.912 5.63605 111.377 5.0895C110.864 4.54295 110.607 3.87028 110.607 3.07148ZM116.095 22.621C115.869 22.6631 115.53 22.7156 115.077 22.7787C114.646 22.8628 114.204 22.9048 113.752 22.9048C113.299 22.9048 112.888 22.8733 112.518 22.8102C112.169 22.7472 111.871 22.621 111.624 22.4318C111.377 22.2427 111.182 21.9904 111.038 21.6751C110.915 21.3387 110.853 20.9078 110.853 20.3823V7.54896C111.079 7.50692 111.408 7.45436 111.84 7.3913C112.292 7.30722 112.744 7.26517 113.197 7.26517C113.649 7.26517 114.05 7.29671 114.399 7.35977C114.769 7.42283 115.077 7.54896 115.324 7.73815C115.571 7.92734 115.756 8.1901 115.879 8.52644C116.023 8.84175 116.095 9.26217 116.095 9.7877V22.621Z" fill="white"/>
<path d="M119.308 3.07148C119.308 2.27268 119.565 1.60001 120.079 1.05346C120.614 0.506915 121.313 0.233643 122.176 0.233643C123.039 0.233643 123.728 0.506915 124.242 1.05346C124.776 1.60001 125.043 2.27268 125.043 3.07148C125.043 3.87028 124.776 4.54295 124.242 5.0895C123.728 5.63605 123.039 5.90932 122.176 5.90932C121.313 5.90932 120.614 5.63605 120.079 5.0895C119.565 4.54295 119.308 3.87028 119.308 3.07148ZM124.797 22.621C124.571 22.6631 124.231 22.7156 123.779 22.7787C123.347 22.8628 122.906 22.9048 122.453 22.9048C122.001 22.9048 121.59 22.8733 121.22 22.8102C120.871 22.7472 120.573 22.621 120.326 22.4318C120.079 22.2427 119.884 21.9904 119.74 21.6751C119.617 21.3387 119.555 20.9078 119.555 20.3823V7.54896C119.781 7.50692 120.11 7.45436 120.542 7.3913C120.994 7.30722 121.446 7.26517 121.898 7.26517C122.351 7.26517 122.751 7.29671 123.101 7.35977C123.471 7.42283 123.779 7.54896 124.026 7.73815C124.272 7.92734 124.457 8.1901 124.581 8.52644C124.725 8.84175 124.797 9.26217 124.797 9.7877V22.621Z" fill="white"/>
<path d="M128.195 7.32824C128.195 6.25617 128.37 5.34175 128.719 4.58499C129.089 3.80722 129.583 3.17659 130.199 2.6931C130.816 2.1886 131.535 1.82073 132.358 1.5895C133.2 1.35827 134.095 1.24265 135.04 1.24265C136.561 1.24265 137.681 1.45286 138.401 1.87328C139.12 2.27268 139.48 2.96637 139.48 3.95436C139.48 4.37478 139.387 4.75316 139.202 5.0895C139.038 5.42584 138.853 5.67809 138.647 5.84625C138.257 5.74115 137.846 5.65707 137.414 5.594C137.003 5.50992 136.52 5.46788 135.965 5.46788C135.081 5.46788 134.393 5.62553 133.899 5.94085C133.406 6.23514 133.159 6.76067 133.159 7.51743V8.52644H138.216C138.339 8.75767 138.452 9.05196 138.555 9.40932C138.678 9.74565 138.74 10.124 138.74 10.5445C138.74 11.2802 138.576 11.8162 138.247 12.1526C137.938 12.4679 137.517 12.6255 136.983 12.6255H133.437V22.621C133.231 22.6841 132.902 22.7472 132.45 22.8102C132.018 22.8733 131.566 22.9048 131.093 22.9048C130.641 22.9048 130.23 22.8733 129.86 22.8102C129.511 22.7472 129.213 22.621 128.966 22.4318C128.719 22.2427 128.524 21.9904 128.38 21.6751C128.257 21.3387 128.195 20.9078 128.195 20.3823V7.32824Z" fill="white"/>
<path d="M143.424 18.7427C143.198 18.2171 142.951 17.6285 142.684 16.9769C142.438 16.3252 142.17 15.579 141.883 14.7381C141.615 13.8973 141.328 12.9409 141.019 11.8688C140.731 10.7757 140.423 9.52493 140.094 8.11653C140.382 7.82223 140.762 7.56998 141.235 7.35977C141.728 7.12854 142.263 7.01292 142.838 7.01292C143.558 7.01292 144.154 7.17058 144.627 7.48589C145.099 7.78019 145.449 8.34776 145.675 9.1886L148.111 17.8598H148.234C148.481 17.1451 148.717 16.3673 148.943 15.5264C149.19 14.6856 149.426 13.8237 149.652 12.9408C149.878 12.0369 150.084 11.1436 150.269 10.2607C150.475 9.35677 150.649 8.47388 150.793 7.61202C151.533 7.21262 152.345 7.01292 153.229 7.01292C153.948 7.01292 154.544 7.17058 155.017 7.48589C155.49 7.80121 155.726 8.34776 155.726 9.12554C155.726 9.6931 155.654 10.3553 155.511 11.112C155.367 11.8478 155.171 12.636 154.925 13.4769C154.699 14.3177 154.421 15.1901 154.092 16.094C153.784 16.9769 153.455 17.8493 153.106 18.7111C152.756 19.573 152.396 20.3928 152.026 21.1706C151.656 21.9273 151.297 22.6105 150.947 23.2201C150.372 24.2502 149.837 25.091 149.344 25.7427C148.851 26.3943 148.378 26.8988 147.926 27.2562C147.474 27.6345 147.021 27.8868 146.569 28.0129C146.117 28.1601 145.644 28.2336 145.151 28.2336C144.287 28.2336 143.589 27.9709 143.054 27.4454C142.52 26.9198 142.201 26.2366 142.098 25.3958C142.756 24.8703 143.414 24.2817 144.072 23.63C144.729 22.9994 145.326 22.3478 145.86 21.6751C145.511 21.57 145.13 21.3282 144.719 20.9499C144.329 20.5505 143.897 19.8147 143.424 18.7427Z" fill="white"/>
<path d="M155.903 20.0985C155.903 19.2156 156.171 18.4799 156.705 17.8913C157.24 17.3027 157.969 17.0084 158.894 17.0084C159.819 17.0084 160.549 17.3027 161.083 17.8913C161.618 18.4799 161.885 19.2156 161.885 20.0985C161.885 20.9814 161.618 21.7171 161.083 22.3057C160.549 22.8943 159.819 23.1886 158.894 23.1886C157.969 23.1886 157.24 22.8943 156.705 22.3057C156.171 21.7171 155.903 20.9814 155.903 20.0985Z" fill="white"/>
</svg>
