<svg width="94" height="122" viewBox="0 0 94 122" fill="none" xmlns="http://www.w3.org/2000/svg">
<path d="M47.7998 110.2L7.2998 89.9998V22.4998C13.9998 21.6998 19.5998 17.1998 21.6998 10.7998H72.1998C74.3998 17.1998 80.0998 21.7998 86.7998 22.4998V89.9998L47.7998 110.2Z" fill="white"/>
<path d="M7.60059 89.9999L47.7006 110.2L86.4006 89.9999V22.4999C83.2006 22.0999 80.1006 20.7999 77.5006 18.8999L7.60059 89.9999Z" fill="#F7F8F7"/>
<path d="M88.3006 20.6999H88.2006C81.1006 20.6999 75.0006 15.7999 73.4006 8.8999H20.4006C18.8006 15.7999 12.7006 20.6999 5.60059 20.6999V91.7999L7.00059 92.4999L46.5006 112.6L47.7006 113.2L48.9006 112.6L86.9006 92.4999L88.3006 91.7999V22.5999V20.6999ZM47.7006 110.2L7.60059 89.9999V22.4999C14.2006 21.6999 19.8006 17.0999 21.9006 10.7999H71.9006C74.0006 17.1999 79.7006 21.7999 86.4006 22.4999V89.9999L47.7006 110.2Z" fill="#E9E9EA"/>
<mask id="mask0_145_1577" style="mask-type:luminance" maskUnits="userSpaceOnUse" x="0" y="64" width="94" height="16">
<path d="M90.1002 64.8999H3.9002L0.700195 72.2999L3.9002 79.6999H90.1002L93.3002 72.2999L90.1002 64.8999Z" fill="white"/>
</mask>
<g mask="url(#mask0_145_1577)">
<path d="M-4.2002 60H98.1998V84.6H-4.2002V60Z" fill="#9132A2"/>
</g>
<mask id="mask1_145_1577" style="mask-type:luminance" maskUnits="userSpaceOnUse" x="37" y="8" width="20" height="22">
<path d="M47.0002 29.4999L56.8002 23.9999V8.8999H37.2002V23.9999L47.0002 29.4999ZM49.0002 16.5999C49.0002 16.1999 49.1002 15.7999 49.3002 15.3999C49.6002 14.9999 49.9002 14.7999 50.3002 14.5999L50.5002 14.4999C50.9002 14.2999 51.0002 14.0999 51.0002 13.8999C51.0002 13.6999 50.8002 13.4999 50.4002 13.4999C50.0002 13.4999 49.6002 13.6999 49.4002 14.0999L49.0002 13.5999C49.1002 13.2999 49.3002 13.0999 49.6002 12.9999C49.9002 12.7999 50.2002 12.7999 50.5002 12.7999C50.9002 12.7999 51.2002 12.8999 51.5002 13.0999C51.8002 13.2999 52.0002 13.5999 51.9002 13.8999C51.9002 14.4999 51.6002 14.7999 50.9002 15.0999L50.5002 15.2999C50.2002 15.4999 50.0002 15.6999 50.0002 15.9999H52.0002V16.7999H49.0002V16.5999ZM51.4002 17.6999L52.9002 20.1999L51.4002 22.6999L50.0002 20.1999H47.0002L48.5002 17.6999H51.4002ZM47.3002 12.7999C47.7002 12.7999 48.1002 12.7999 48.5002 12.8999L47.3002 15.2999C45.4002 15.2999 43.8002 16.7999 43.8002 18.6999C43.8002 20.5999 45.4002 22.0999 47.3002 22.0999C48.1002 22.0999 49.0002 21.7999 49.6002 21.2999L50.9002 23.4999C49.8002 24.1999 48.6002 24.5999 47.2002 24.5999C43.9002 24.6999 41.1002 21.9999 41.0002 18.6999C41.2002 15.3999 43.9002 12.6999 47.3002 12.7999Z" fill="white"/>
</mask>
<g mask="url(#mask1_145_1577)">
<path d="M32.2002 3.8999H61.7002V34.3999H32.2002V3.8999Z" fill="#9132A2"/>
</g>
<path d="M19.4998 60.1C19.3998 60.1 19.3998 60.1 19.3998 60C19.3998 60 19.2998 59.9 19.2998 59.8V47.8C19.2998 47.7 19.2998 47.7 19.3998 47.6L19.4998 47.5H21.5998C21.6998 47.5 21.6998 47.5 21.6998 47.6C21.6998 47.6 21.7998 47.7 21.7998 47.8V57.7C21.7998 57.8 21.7998 57.8 21.8998 57.8H27.6998C27.7998 57.8 27.7998 57.8 27.8998 57.9C27.8998 57.9 27.9998 58 27.9998 58.1V59.8C27.9998 59.9 27.9998 59.9 27.8998 60C27.8998 60 27.7998 60.1 27.6998 60.1H19.4998ZM37.3998 54.6C37.4998 55 37.4998 55.5 37.4998 56.1C37.4998 56.2 37.3998 56.3 37.2998 56.3H31.7998C31.6998 56.3 31.6998 56.3 31.6998 56.4C31.6998 56.6 31.7998 56.9 31.8998 57.1C32.1998 57.8 32.7998 58.1 33.7998 58.1C34.5998 58.1 35.1998 57.8 35.5998 57.2C35.5998 57.1 35.6998 57.1 35.7998 57.1C35.7998 57.1 35.8998 57.1 35.8998 57.2L37.1998 58.5C37.2998 58.6 37.2998 58.6 37.2998 58.7C37.2998 58.7 37.2998 58.8 37.1998 58.8C36.7998 59.3 36.2998 59.7 35.6998 59.9C35.0998 60.2 34.3998 60.3 33.6998 60.3C32.6998 60.3 31.7998 60.1 31.0998 59.6C30.3998 59.1 29.8998 58.5 29.5998 57.7C29.3998 57.1 29.1998 56.3 29.1998 55.4C29.1998 54.8 29.2998 54.2 29.4998 53.7C29.7998 52.9 30.2998 52.2 30.8998 51.7C31.5998 51.2 32.3998 51 33.2998 51C34.4998 51 35.3998 51.3 36.0998 52C36.7998 52.6 37.1998 53.5 37.3998 54.6ZM33.1998 53C32.4998 53 31.9998 53.3 31.6998 54C31.6998 54.2 31.5998 54.3 31.5998 54.6C31.5998 54.7 31.5998 54.7 31.6998 54.7H34.7998C34.8998 54.7 34.8998 54.7 34.8998 54.6C34.7998 54.3 34.7998 54.1 34.7998 54.1C34.6998 53.7 34.4998 53.5 34.1998 53.3C33.8998 53.1 33.5998 53 33.1998 53ZM42.4998 50.9C43.2998 50.9 43.9998 51 44.5998 51.3C45.1998 51.6 45.6998 51.9 45.9998 52.4C46.2998 52.9 46.4998 53.4 46.4998 53.9V59.9C46.4998 60 46.4998 60 46.3998 60.1L46.2998 60.2H44.1998C44.0998 60.2 44.0998 60.2 44.0998 60.1C44.0998 60.1 43.9998 60 43.9998 59.9V59.3V59.2C43.9998 59.2 43.9998 59.2 43.8998 59.2C43.3998 59.8 42.5998 60.2 41.4998 60.2C40.5998 60.2 39.7998 60 39.2998 59.5C38.6998 59.1 38.3998 58.4 38.3998 57.5C38.3998 56.6 38.6998 55.9 39.3998 55.4C39.9998 54.9 40.8998 54.7 42.0998 54.7H43.8998C43.9998 54.7 43.9998 54.7 43.9998 54.6V54.2C43.9998 53.8 43.8998 53.5 43.5998 53.3C43.3998 53.1 42.9998 53 42.5998 53C42.1998 53 41.8998 53.1 41.6998 53.2C41.4998 53.3 41.2998 53.5 41.1998 53.8C41.1998 53.9 41.0998 54 40.9998 54L38.8998 53.7C38.7998 53.7 38.6998 53.6 38.6998 53.5C38.6998 53 38.8998 52.6 39.2998 52.2C39.5998 51.8 40.0998 51.5 40.6998 51.3C41.1998 51 41.7998 50.9 42.4998 50.9ZM42.1998 58.4C42.6998 58.4 43.0998 58.3 43.4998 58C43.8998 57.7 43.9998 57.4 43.9998 57V56.4C43.9998 56.3 43.9998 56.3 43.8998 56.3H42.5998C42.0998 56.3 41.6998 56.4 41.3998 56.6C41.0998 56.8 40.8998 57.1 40.8998 57.4C40.8998 57.7 40.9998 58 41.1998 58.1C41.4998 58.3 41.7998 58.4 42.1998 58.4ZM53.8998 47.9C53.8998 47.8 53.8998 47.8 53.9998 47.7L54.0998 47.6H56.1998C56.2998 47.6 56.2998 47.6 56.2998 47.7C56.2998 47.7 56.3998 47.8 56.3998 47.9V59.9C56.3998 60 56.3998 60 56.2998 60.1L56.1998 60.2H54.0998C53.9998 60.2 53.9998 60.2 53.9998 60.1C53.9998 60.1 53.8998 60 53.8998 59.9V59.3V59.2C53.8998 59.2 53.8998 59.2 53.7998 59.2C53.2998 59.8 52.5998 60.2 51.7998 60.2C50.9998 60.2 50.2998 60 49.6998 59.5C49.0998 59 48.6998 58.4 48.3998 57.6C48.1998 57 48.0998 56.3 48.0998 55.5C48.0998 54.7 48.1998 53.9 48.3998 53.3C48.6998 52.5 49.0998 51.9 49.6998 51.5C50.2998 51.1 50.9998 50.8 51.8998 50.8C52.7998 50.8 53.3998 51.1 53.8998 51.7C53.8998 51.7 53.8998 51.8 53.9998 51.7C53.9998 51.7 53.9998 51.7 53.9998 51.6C53.8998 51.7 53.8998 47.9 53.8998 47.9ZM53.4998 57.4C53.6998 57 53.8998 56.4 53.8998 55.6C53.8998 54.8 53.7998 54.2 53.4998 53.7C53.1998 53.2 52.7998 53 52.2998 53C51.6998 53 51.2998 53.2 50.9998 53.7C50.6998 54.2 50.5998 54.8 50.5998 55.6C50.5998 56.3 50.6998 56.9 50.9998 57.4C51.2998 57.9 51.6998 58.2 52.2998 58.2C52.7998 58.1 53.1998 57.9 53.4998 57.4ZM66.2998 54.6C66.3998 55 66.3998 55.5 66.3998 56.1C66.3998 56.2 66.2998 56.3 66.1998 56.3H60.6998C60.5998 56.3 60.5998 56.3 60.5998 56.4C60.5998 56.6 60.6998 56.9 60.7998 57.1C61.0998 57.8 61.6998 58.1 62.6998 58.1C63.4998 58.1 64.0998 57.8 64.4998 57.2C64.4998 57.1 64.5998 57.1 64.6998 57.1C64.6998 57.1 64.7998 57.1 64.7998 57.2L66.0998 58.5C66.1998 58.6 66.1998 58.6 66.1998 58.7C66.1998 58.7 66.1998 58.8 66.0998 58.8C65.6998 59.3 65.1998 59.7 64.5998 59.9C63.9998 60.2 63.2998 60.3 62.5998 60.3C61.5998 60.3 60.6998 60.1 59.9998 59.6C59.2998 59.1 58.7998 58.5 58.4998 57.7C58.2998 57.1 58.0998 56.3 58.0998 55.4C58.0998 54.8 58.1998 54.2 58.3998 53.7C58.6998 52.9 59.1998 52.2 59.7998 51.7C60.4998 51.2 61.2998 51 62.1998 51C63.3998 51 64.2998 51.3 64.9998 52C65.6998 52.6 66.1998 53.5 66.2998 54.6ZM62.1998 53C61.4998 53 60.9998 53.3 60.6998 54C60.6998 54.2 60.5998 54.3 60.5998 54.6C60.5998 54.7 60.5998 54.7 60.6998 54.7H63.7998C63.8998 54.7 63.8998 54.7 63.8998 54.6C63.7998 54.3 63.7998 54.1 63.7998 54.1C63.6998 53.7 63.4998 53.5 63.1998 53.3C62.8998 53.1 62.5998 53 62.1998 53ZM72.4998 50.9C72.8998 50.9 73.2998 51 73.4998 51.1C73.5998 51.2 73.5998 51.2 73.5998 51.4L73.1998 53.4C73.1998 53.5 73.0998 53.6 72.9998 53.5C72.7998 53.4 72.5998 53.4 72.3998 53.4C72.2998 53.4 72.1998 53.4 71.9998 53.4C71.5998 53.4 71.1998 53.6 70.8998 53.9C70.5998 54.2 70.4998 54.6 70.4998 55V59.8C70.4998 59.9 70.4998 59.9 70.3998 60C70.3998 60 70.2998 60.1 70.1998 60.1H68.0998C67.9998 60.1 67.9998 60.1 67.8998 60C67.8998 60 67.7998 59.9 67.7998 59.8V51.1C67.7998 51 67.7998 51 67.8998 51C67.8998 51 67.9998 50.9 68.0998 50.9H70.1998C70.2998 50.9 70.2998 50.9 70.3998 51L70.4998 51.1V51.8V51.9C70.4998 51.9 70.4998 51.9 70.5998 51.9C70.9998 51.2 71.6998 50.9 72.4998 50.9Z" fill="#252530"/>
<path d="M26.4002 76.0999C26.3002 76.0999 26.3002 76.0999 26.3002 75.9999L26.0002 74.8999H23.4002L22.9002 75.9999C22.9002 76.0999 22.8002 76.0999 22.8002 76.0999H21.8002H21.7002V75.9999L23.8002 69.2999C23.8002 69.1999 23.9002 69.1999 23.9002 69.1999H25.1002C25.2002 69.1999 25.2002 69.1999 25.2002 69.2999L27.3002 75.9999C27.3002 76.0999 27.3002 76.0999 27.2002 76.0999H26.4002ZM23.5002 73.8999C23.6002 73.9999 23.5002 73.9999 23.5002 73.8999L25.5002 73.9999C25.5002 73.9999 25.6002 73.9999 25.5002 73.8999L24.5002 70.5999L23.5002 73.8999ZM30.3002 76.0999C29.9002 76.0999 29.5002 75.9999 29.2002 75.8999C28.9002 75.7999 28.6002 75.5999 28.5002 75.3999C28.3002 75.1999 28.2002 74.9999 28.2002 74.6999V74.5999V74.4999C28.2002 74.4999 28.2002 74.4999 28.3002 74.4999H29.2002H29.3002V74.5999C29.3002 74.7999 29.4002 74.8999 29.6002 74.9999C29.8002 75.0999 30.0002 75.1999 30.3002 75.1999C30.6002 75.1999 30.8002 75.0999 30.9002 74.9999C31.1002 74.8999 31.1002 74.7999 31.1002 74.5999C31.1002 74.3999 31.0002 74.2999 30.9002 74.2999C30.8002 74.1999 30.5002 74.0999 30.2002 74.0999L29.9002 73.9999C29.6002 73.8999 29.3002 73.7999 29.1002 73.6999C28.9002 73.5999 28.7002 73.3999 28.5002 73.1999C28.3002 72.9999 28.3002 72.7999 28.3002 72.4999C28.3002 71.9999 28.5002 71.6999 28.8002 71.3999C29.2002 71.0999 29.6002 70.9999 30.2002 70.9999C30.6002 70.9999 31.0002 71.0999 31.3002 71.1999C31.6002 71.2999 31.8002 71.4999 32.0002 71.6999C32.2002 71.8999 32.2002 72.1999 32.2002 72.4999V72.5999H32.1002H31.3002H31.2002V72.4999C31.2002 72.2999 31.1002 72.1999 31.0002 72.0999C30.8002 71.9999 30.6002 71.8999 30.3002 71.8999C30.0002 71.8999 29.8002 71.8999 29.7002 71.9999C29.5002 72.0999 29.5002 72.1999 29.5002 72.3999C29.5002 72.5999 29.6002 72.6999 29.7002 72.7999C29.9002 72.8999 30.1002 72.9999 30.5002 73.0999L30.7002 73.1999C31.0002 73.2999 31.3002 73.3999 31.6002 73.4999C31.8002 73.5999 32.0002 73.7999 32.2002 73.9999C32.4002 74.1999 32.4002 74.3999 32.4002 74.7999C32.4002 75.2999 32.2002 75.5999 31.8002 75.8999C31.4002 75.9999 30.9002 76.0999 30.3002 76.0999ZM33.9002 70.2999C33.7002 70.2999 33.5002 70.1999 33.4002 70.0999C33.3002 69.9999 33.2002 69.7999 33.2002 69.5999C33.2002 69.3999 33.3002 69.1999 33.4002 69.0999C33.5002 68.9999 33.7002 68.8999 33.9002 68.8999C34.1002 68.8999 34.3002 68.9999 34.4002 69.0999C34.5002 69.1999 34.6002 69.3999 34.6002 69.5999C34.6002 69.7999 34.5002 69.9999 34.4002 70.0999C34.3002 70.2999 34.1002 70.2999 33.9002 70.2999ZM33.4002 76.0999C33.3002 75.9999 33.3002 75.9999 33.3002 75.9999V71.1999V71.0999C33.3002 71.0999 33.3002 71.0999 33.4002 71.0999H34.3002H34.4002C34.4002 71.0999 34.4002 71.0999 34.4002 71.1999V75.9999V76.0999C34.4002 76.0999 34.4002 76.0999 34.3002 76.0999H33.4002ZM37.7002 70.9999C38.1002 70.9999 38.5002 71.0999 38.8002 71.1999C39.1002 71.2999 39.4002 71.4999 39.5002 71.7999C39.7002 72.0999 39.8002 72.2999 39.8002 72.6999V75.9999V76.0999H39.7002H38.8002H38.7002C38.7002 76.0999 38.7002 76.0999 38.7002 75.9999V75.6999C38.4002 76.0999 37.9002 76.1999 37.3002 76.1999C36.8002 76.1999 36.4002 76.0999 36.1002 75.7999C35.8002 75.5999 35.6002 75.1999 35.6002 74.6999C35.6002 74.1999 35.8002 73.7999 36.1002 73.4999C36.5002 73.1999 37.0002 73.0999 37.6002 73.0999H38.7002V72.8999C38.7002 72.5999 38.6002 72.3999 38.5002 72.2999C38.3002 72.1999 38.1002 72.0999 37.8002 72.0999C37.6002 72.0999 37.4002 72.0999 37.2002 72.1999C37.0002 72.2999 36.9002 72.3999 36.9002 72.5999C36.9002 72.6999 36.8002 72.6999 36.8002 72.6999L35.8002 72.5999H35.7002C35.7002 72.5999 35.7002 72.5999 35.7002 72.4999C35.8002 72.0999 36.0002 71.7999 36.3002 71.4999C36.6002 71.0999 37.1002 70.9999 37.7002 70.9999ZM37.4002 75.1999C37.7002 75.1999 38.0002 75.0999 38.2002 74.8999C38.4002 74.6999 38.5002 74.4999 38.5002 74.2999V73.7999H37.7002C37.4002 73.7999 37.1002 73.8999 36.9002 73.9999C36.7002 74.0999 36.6002 74.2999 36.6002 74.5999C36.6002 74.7999 36.7002 74.9999 36.8002 75.0999C37.0002 75.1999 37.2002 75.1999 37.4002 75.1999ZM45.7002 69.1999C46.1002 69.1999 46.5002 69.2999 46.8002 69.4999C47.1002 69.6999 47.4002 69.8999 47.5002 70.1999C47.7002 70.4999 47.8002 70.8999 47.8002 71.2999C47.8002 71.6999 47.7002 72.0999 47.5002 72.3999C47.3002 72.6999 47.1002 72.8999 46.7002 73.0999C46.4002 73.2999 46.0002 73.3999 45.6002 73.3999H44.0002V75.9999V76.0999H43.9002H43.0002H42.9002C42.9002 76.0999 42.9002 76.0999 42.9002 75.9999V69.2999V69.1999H43.0002C43.0002 69.1999 45.7002 69.1999 45.7002 69.1999ZM45.6002 72.2999C45.9002 72.2999 46.2002 72.1999 46.4002 71.9999C46.6002 71.7999 46.7002 71.4999 46.7002 71.1999C46.7002 70.8999 46.6002 70.5999 46.4002 70.3999C46.2002 70.1999 45.9002 70.0999 45.6002 70.0999H44.1002V72.1999H45.6002V72.2999ZM50.6002 70.9999C51.0002 70.9999 51.4002 71.0999 51.7002 71.1999C52.0002 71.2999 52.3002 71.4999 52.4002 71.7999C52.6002 72.0999 52.7002 72.2999 52.7002 72.6999V75.9999V76.0999C52.7002 76.0999 52.7002 76.0999 52.6002 76.0999H51.7002H51.6002C51.6002 76.0999 51.6002 76.0999 51.6002 75.9999V75.6999C51.3002 76.0999 50.8002 76.1999 50.2002 76.1999C49.7002 76.1999 49.3002 76.0999 49.0002 75.7999C48.7002 75.5999 48.5002 75.1999 48.5002 74.6999C48.5002 74.1999 48.7002 73.7999 49.0002 73.4999C49.4002 73.1999 49.9002 73.0999 50.5002 73.0999H51.6002V72.8999C51.6002 72.5999 51.5002 72.3999 51.4002 72.2999C51.2002 72.1999 51.0002 72.0999 50.7002 72.0999C50.5002 72.0999 50.2002 72.0999 50.1002 72.1999C49.9002 72.2999 49.9002 72.3999 49.8002 72.5999C49.8002 72.6999 49.7002 72.6999 49.7002 72.6999L48.7002 72.5999H48.6002C48.6002 72.5999 48.6002 72.5999 48.6002 72.4999C48.7002 72.0999 48.9002 71.7999 49.2002 71.4999C49.5002 71.0999 50.0002 70.9999 50.6002 70.9999ZM50.3002 75.1999C50.6002 75.1999 50.9002 75.0999 51.1002 74.8999C51.3002 74.6999 51.4002 74.4999 51.4002 74.2999V73.7999H50.6002C50.3002 73.7999 50.0002 73.8999 49.8002 73.9999C49.6002 74.0999 49.5002 74.2999 49.5002 74.5999C49.5002 74.7999 49.6002 74.9999 49.7002 75.0999C49.9002 75.1999 50.1002 75.1999 50.3002 75.1999ZM55.9002 76.0999C55.4002 76.0999 55.0002 75.9999 54.6002 75.6999C54.2002 75.3999 54.0002 75.0999 53.8002 74.6999C53.7002 74.3999 53.6002 73.9999 53.6002 73.4999C53.6002 72.9999 53.7002 72.5999 53.8002 72.2999C53.9002 71.8999 54.2002 71.4999 54.6002 71.2999C55.0002 70.9999 55.4002 70.8999 55.9002 70.8999C56.4002 70.8999 56.9002 70.9999 57.2002 71.2999C57.6002 71.5999 57.8002 71.8999 58.0002 72.2999C58.0002 72.3999 58.1002 72.4999 58.1002 72.5999C58.1002 72.6999 58.1002 72.6999 58.0002 72.6999L57.1002 72.7999C57.0002 72.7999 57.0002 72.7999 57.0002 72.6999V72.5999C57.0002 72.4999 57.0002 72.4999 57.0002 72.4999C56.9002 72.2999 56.8002 72.1999 56.6002 71.9999C56.4002 71.8999 56.2002 71.7999 56.0002 71.7999C55.8002 71.7999 55.5002 71.8999 55.4002 71.9999C55.2002 72.0999 55.1002 72.2999 55.1002 72.4999C55.0002 72.6999 55.0002 72.9999 55.0002 73.3999C55.0002 73.7999 55.0002 74.0999 55.1002 74.2999C55.2002 74.4999 55.3002 74.6999 55.5002 74.7999C55.7002 74.8999 55.9002 74.9999 56.1002 74.9999C56.3002 74.9999 56.6002 74.8999 56.7002 74.7999C56.9002 74.6999 57.0002 74.4999 57.0002 74.2999C57.0002 74.1999 57.1002 74.1999 57.1002 74.1999L58.0002 74.2999H58.1002V74.3999C58.1002 74.4999 58.1002 74.5999 58.1002 74.5999C58.0002 74.9999 57.7002 75.3999 57.3002 75.5999C56.8002 75.9999 56.4002 76.0999 55.9002 76.0999ZM59.7002 70.2999C59.5002 70.2999 59.3002 70.1999 59.2002 70.0999C59.0002 69.9999 59.0002 69.7999 59.0002 69.5999C59.0002 69.3999 59.1002 69.1999 59.2002 69.0999C59.3002 68.9999 59.5002 68.8999 59.7002 68.8999C59.9002 68.8999 60.1002 68.9999 60.2002 69.0999C60.3002 69.1999 60.4002 69.3999 60.4002 69.5999C60.4002 69.7999 60.3002 69.9999 60.2002 70.0999C60.0002 70.2999 59.9002 70.2999 59.7002 70.2999ZM59.2002 76.0999C59.1002 75.9999 59.1002 75.9999 59.1002 75.9999V71.1999V71.0999C59.1002 71.0999 59.1002 71.0999 59.2002 71.0999H60.1002H60.2002C60.2002 71.0999 60.2002 71.0999 60.2002 71.1999V75.9999V76.0999H60.1002H59.2002ZM64.1002 70.9999C64.2002 70.9999 64.2002 70.9999 64.1002 70.9999C64.2002 71.0999 64.2002 71.0999 64.2002 71.0999V71.8999V71.9999H64.1002H63.1002V75.8999V75.9999C63.1002 75.9999 63.1002 75.9999 63.0002 75.9999H62.1002H62.0002C62.0002 75.9999 62.0002 75.9999 62.0002 75.8999V71.9999H61.4002H61.3002C61.3002 71.9999 61.3002 71.9999 61.3002 71.8999V71.0999V70.9999C61.3002 70.9999 61.3002 70.9999 61.4002 70.9999H62.0002V70.7999C62.0002 70.3999 62.1002 69.9999 62.2002 69.7999C62.3002 69.5999 62.5002 69.3999 62.8002 69.2999C63.1002 69.1999 63.4002 69.1999 63.9002 69.1999H64.2002H64.3002C64.3002 69.1999 64.3002 69.1999 64.3002 69.2999V69.9999V70.0999C64.3002 70.0999 64.3002 70.0999 64.2002 70.0999H63.9002C63.6002 70.0999 63.4002 70.1999 63.3002 70.2999C63.2002 70.3999 63.1002 70.5999 63.1002 70.8999V70.9999C63.2002 70.9999 64.1002 70.9999 64.1002 70.9999ZM65.9002 70.2999C65.7002 70.2999 65.5002 70.1999 65.4002 70.0999C65.3002 69.9999 65.2002 69.7999 65.2002 69.5999C65.2002 69.3999 65.3002 69.1999 65.4002 69.0999C65.5002 68.9999 65.7002 68.8999 65.9002 68.8999C66.1002 68.8999 66.3002 68.9999 66.4002 69.0999C66.5002 69.1999 66.6002 69.3999 66.6002 69.5999C66.6002 69.7999 66.5002 69.9999 66.4002 70.0999C66.2002 70.2999 66.1002 70.2999 65.9002 70.2999ZM65.4002 76.0999C65.3002 75.9999 65.3002 75.9999 65.3002 75.9999V71.1999V71.0999C65.3002 71.0999 65.3002 71.0999 65.4002 71.0999H66.3002H66.4002C66.4002 71.0999 66.4002 71.0999 66.4002 71.1999V75.9999V76.0999C66.4002 76.0999 66.4002 76.0999 66.3002 76.0999C66.3002 76.0999 65.4002 76.0999 65.4002 76.0999ZM69.8002 76.0999C69.3002 76.0999 68.9002 75.9999 68.5002 75.6999C68.1002 75.3999 67.9002 75.0999 67.7002 74.6999C67.6002 74.3999 67.5002 73.9999 67.5002 73.4999C67.5002 72.9999 67.6002 72.5999 67.7002 72.2999C67.8002 71.8999 68.1002 71.4999 68.5002 71.2999C68.9002 70.9999 69.3002 70.8999 69.8002 70.8999C70.3002 70.8999 70.8002 70.9999 71.1002 71.2999C71.5002 71.5999 71.7002 71.8999 71.9002 72.2999C71.9002 72.3999 72.0002 72.4999 72.0002 72.5999C72.0002 72.6999 72.0002 72.6999 71.9002 72.6999L71.0002 72.8999C70.9002 72.8999 70.9002 72.8999 70.9002 72.7999V72.6999C70.9002 72.5999 70.9002 72.5999 70.9002 72.5999C70.8002 72.3999 70.7002 72.2999 70.5002 72.0999C70.3002 71.9999 70.1002 71.8999 69.9002 71.8999C69.7002 71.8999 69.4002 71.9999 69.3002 72.0999C69.1002 72.1999 69.0002 72.3999 69.0002 72.5999C68.9002 72.7999 68.9002 73.0999 68.9002 73.4999C68.9002 73.8999 68.9002 74.1999 69.0002 74.3999C69.1002 74.5999 69.2002 74.7999 69.4002 74.8999C69.6002 74.9999 69.8002 75.0999 70.0002 75.0999C70.2002 75.0999 70.5002 74.9999 70.6002 74.8999C70.8002 74.7999 70.9002 74.5999 71.0002 74.3999C71.0002 74.2999 71.1002 74.2999 71.1002 74.2999L72.0002 74.3999H72.1002V74.4999C72.1002 74.5999 72.1002 74.6999 72.1002 74.6999C72.0002 75.0999 71.7002 75.4999 71.3002 75.6999C70.8002 75.9999 70.3002 76.0999 69.8002 76.0999Z" fill="white"/>
<path d="M31.4006 89.8998C31.3006 89.8998 31.3006 89.8998 31.3006 89.7998L29.6006 83.0998C29.6006 82.9998 29.6006 82.9998 29.7006 82.9998H30.9006C31.0006 82.9998 31.0006 82.9998 31.0006 83.0998L31.9006 87.0998L32.8006 83.0998C32.8006 82.9998 32.9006 82.9998 32.9006 82.9998H34.1006C34.2006 82.9998 34.2006 82.9998 34.2006 83.0998L35.2006 87.0998L36.1006 83.0998C36.1006 82.9998 36.2006 82.9998 36.2006 82.9998H37.4006C37.5006 82.9998 37.5006 82.9998 37.5006 83.0998L35.9006 89.7998C35.9006 89.8998 35.8006 89.8998 35.8006 89.8998H34.6006C34.5006 89.8998 34.5006 89.8998 34.5006 89.7998L33.5006 85.4998L32.6006 89.7998C32.6006 89.8998 32.5006 89.8998 32.5006 89.8998H31.4006ZM38.6006 89.8998C38.5006 89.7998 38.5006 89.7998 38.5006 89.7998V83.0998V82.9998H38.6006H39.8006H39.9006C39.9006 82.9998 39.9006 82.9998 39.9006 83.0998V89.7998V89.8998C39.9006 89.8998 39.9006 89.8998 39.8006 89.8998C39.8006 89.8998 38.6006 89.8998 38.6006 89.8998ZM45.1006 83.1998C45.1006 83.0998 45.1006 83.0998 45.1006 83.1998C45.2006 83.0998 45.2006 83.0998 45.2006 83.0998H46.4006H46.5006C46.5006 83.0998 46.5006 83.0998 46.5006 83.1998V89.8998V89.9998C46.5006 89.9998 46.5006 89.9998 46.4006 89.9998H45.3006C45.2006 89.9998 45.2006 89.9998 45.2006 89.8998L42.7006 85.6998V89.8998V89.9998C42.7006 89.9998 42.7006 89.9998 42.6006 89.9998H41.4006H41.3006C41.3006 89.9998 41.3006 89.9998 41.3006 89.8998V83.1998V83.0998H41.4006H42.5006C42.6006 83.0998 42.6006 83.0998 42.6006 83.1998L45.1006 87.3998C45.1006 87.2998 45.1006 83.1998 45.1006 83.1998ZM52.4006 82.9998C52.5006 83.0998 52.5006 83.0998 52.5006 83.0998V84.0998V84.1998C52.5006 84.1998 52.5006 84.1998 52.4006 84.1998H50.6006V89.6998V89.7998C50.6006 89.7998 50.6006 89.7998 50.5006 89.7998H49.3006H49.2006C49.2006 89.7998 49.2006 89.7998 49.2006 89.6998V84.1998H47.5006H47.4006C47.4006 84.1998 47.4006 84.1998 47.4006 84.0998V83.0998V82.9998H47.5006C47.4006 82.9998 52.4006 82.9998 52.4006 82.9998ZM58.2006 84.0998C58.2006 84.1998 58.2006 84.1998 58.2006 84.0998C58.1006 84.1998 58.1006 84.1998 58.1006 84.1998H54.9006V85.6998H57.0006H57.1006V85.7998V86.7998V86.8998C57.1006 86.8998 57.1006 86.8998 57.0006 86.8998H54.9006V88.4998H58.1006H58.2006V88.5998V89.5998V89.6998H58.1006H53.6006H53.5006C53.5006 89.6998 53.5006 89.6998 53.5006 89.5998V82.8998V82.7998H53.6006H58.1006H58.2006C58.2006 82.7998 58.2006 82.7998 58.2006 82.8998C58.2006 83.1998 58.2006 84.0998 58.2006 84.0998ZM62.9006 89.8998C62.8006 89.8998 62.8006 89.8998 62.8006 89.7998L61.6006 87.0998C61.6006 87.0998 61.6006 87.0998 61.5006 87.0998H60.6006V89.7998V89.8998C60.6006 89.8998 60.6006 89.8998 60.5006 89.8998H59.3006H59.2006C59.2006 89.8998 59.2006 89.8998 59.2006 89.7998V83.0998V82.9998H59.3006H62.1006C62.5006 82.9998 62.9006 83.0998 63.2006 83.2998C63.5006 83.4998 63.8006 83.6998 63.9006 83.9998C64.1006 84.2998 64.2006 84.6998 64.2006 85.0998C64.2006 85.4998 64.1006 85.8998 63.9006 86.1998C63.7006 86.4998 63.4006 86.6998 63.0006 86.8998C63.0006 86.8998 63.0006 86.8998 63.0006 86.9998L64.3006 89.7998C64.3006 89.7998 64.3006 89.7998 64.3006 89.8998C64.3006 89.9998 64.3006 89.9998 64.2006 89.9998C64.1006 89.8998 62.9006 89.8998 62.9006 89.8998ZM60.6006 84.1998V85.8998H61.9006C62.2006 85.8998 62.4006 85.7998 62.6006 85.6998C62.8006 85.4998 62.9006 85.2998 62.9006 85.0998C62.9006 84.8998 62.8006 84.5998 62.6006 84.4998C62.4006 84.2998 62.2006 84.2998 61.9006 84.2998C61.9006 84.1998 60.6006 84.1998 60.6006 84.1998Z" fill="#252530"/>
<path d="M38.2004 97.8997C38.2004 97.9997 38.2004 97.9997 38.2004 97.8997L40.9004 97.9997H41.0004V98.0997V99.0997V99.1997H40.9004H36.5004H36.4004C36.4004 99.1997 36.4004 99.1997 36.4004 99.0997V98.1997C36.4004 98.0997 36.4004 98.0997 36.5004 98.0997C36.8004 97.7997 37.1004 97.3997 37.5004 97.0997C37.8004 96.6997 38.0004 96.4997 38.1004 96.3997C38.3004 96.1997 38.5004 95.9997 38.7004 95.7997C39.3004 95.0997 39.6004 94.5997 39.6004 94.2997C39.6004 94.0997 39.5004 93.8997 39.4004 93.6997C39.2004 93.5997 39.0004 93.4997 38.8004 93.4997C38.5004 93.4997 38.3004 93.5997 38.2004 93.6997C38.0004 93.8997 38.0004 93.9997 38.0004 94.2997V94.4997V94.5997C38.0004 94.5997 38.0004 94.5997 37.9004 94.5997H36.7004H36.6004V94.4997V93.9997C36.6004 93.5997 36.7004 93.2997 36.9004 93.0997C37.1004 92.7997 37.4004 92.5997 37.7004 92.4997C38.0004 92.3997 38.4004 92.2997 38.8004 92.2997C39.3004 92.2997 39.7004 92.3997 40.0004 92.5997C40.3004 92.7997 40.6004 92.9997 40.8004 93.2997C41.0004 93.5997 41.1004 93.8997 41.1004 94.2997C41.1004 94.5997 41.0004 94.8997 40.9004 95.0997C40.8004 95.2997 40.6004 95.6997 40.3004 95.9997C40.1004 96.2997 39.9004 96.4997 39.6004 96.7997C39.3004 97.0997 39.0004 97.3997 38.5004 97.8997C38.4004 97.7997 38.2004 97.8997 38.2004 97.8997ZM44.2004 99.2997C43.5004 99.2997 42.9004 99.0997 42.5004 98.6997C42.1004 98.2997 41.9004 97.7997 41.9004 97.0997V94.4997C41.9004 93.7997 42.1004 93.2997 42.5004 92.8997C42.9004 92.4997 43.5004 92.2997 44.2004 92.2997C44.9004 92.2997 45.5004 92.4997 45.9004 92.8997C46.3004 93.2997 46.5004 93.7997 46.5004 94.4997V96.9997C46.5004 97.6997 46.3004 98.1997 45.9004 98.5997C45.5004 99.0997 44.9004 99.2997 44.2004 99.2997ZM44.2004 98.0997C44.5004 98.0997 44.7004 97.9997 44.9004 97.7997C45.1004 97.5997 45.2004 97.3997 45.2004 97.0997V94.3997C45.2004 94.0997 45.1004 93.8997 44.9004 93.6997C44.7004 93.4997 44.5004 93.3997 44.2004 93.3997C43.9004 93.3997 43.7004 93.4997 43.5004 93.6997C43.3004 93.8997 43.2004 94.0997 43.2004 94.3997V97.0997C43.2004 97.3997 43.3004 97.5997 43.5004 97.7997C43.7004 97.9997 43.9004 98.0997 44.2004 98.0997ZM49.3004 97.8997C49.3004 97.9997 49.3004 97.9997 49.3004 97.8997L52.0004 97.9997H52.1004V98.0997V99.0997V99.1997H52.0004H47.6004H47.5004C47.5004 99.1997 47.5004 99.1997 47.5004 99.0997V98.1997C47.5004 98.0997 47.5004 98.0997 47.6004 98.0997C47.9004 97.7997 48.2004 97.3997 48.6004 97.0997C48.9004 96.6997 49.1004 96.4997 49.2004 96.3997C49.4004 96.1997 49.6004 95.9997 49.8004 95.7997C50.4004 95.0997 50.7004 94.5997 50.7004 94.2997C50.7004 94.0997 50.6004 93.8997 50.5004 93.6997C50.3004 93.5997 50.1004 93.4997 49.9004 93.4997C49.6004 93.4997 49.4004 93.5997 49.3004 93.6997C49.1004 93.8997 49.1004 93.9997 49.1004 94.2997V94.4997V94.5997H49.0004H47.8004H47.7004V94.4997V93.9997C47.7004 93.5997 47.8004 93.2997 48.0004 93.0997C48.2004 92.7997 48.5004 92.5997 48.8004 92.4997C49.1004 92.3997 49.5004 92.2997 49.9004 92.2997C50.4004 92.2997 50.8004 92.3997 51.1004 92.5997C51.4004 92.7997 51.7004 92.9997 51.9004 93.2997C52.1004 93.5997 52.2004 93.8997 52.2004 94.2997C52.2004 94.5997 52.1004 94.8997 52.0004 95.0997C51.9004 95.2997 51.7004 95.6997 51.4004 95.9997C51.2004 96.2997 51.0004 96.4997 50.7004 96.7997C50.5004 96.9997 50.1004 97.3997 49.6004 97.8997C49.5004 97.7997 49.3004 97.8997 49.3004 97.8997ZM57.1004 95.8997C57.2004 96.1997 57.3004 96.4997 57.3004 96.8997C57.3004 97.2997 57.2004 97.5997 57.1004 97.8997C56.9004 98.2997 56.7004 98.5997 56.3004 98.8997C55.9004 99.0997 55.5004 99.2997 55.0004 99.2997C54.5004 99.2997 54.1004 99.1997 53.7004 98.8997C53.3004 98.6997 53.0004 98.2997 52.9004 97.8997C52.8004 97.5997 52.8004 97.3997 52.7004 97.0997C52.7004 96.9997 52.7004 96.9997 52.8004 96.9997H54.0004C54.1004 96.9997 54.1004 96.9997 54.1004 97.0997C54.1004 97.2997 54.2004 97.4997 54.2004 97.5997C54.3004 97.7997 54.4004 97.8997 54.5004 97.9997C54.6004 98.0997 54.8004 98.0997 55.0004 98.0997C55.4004 98.0997 55.6004 97.8997 55.8004 97.5997C55.9004 97.3997 55.9004 97.1997 55.9004 96.8997C55.9004 96.5997 55.9004 96.2997 55.8004 96.0997C55.6004 95.7997 55.4004 95.5997 55.0004 95.5997C54.9004 95.5997 54.9004 95.5997 54.8004 95.6997C54.7004 95.6997 54.6004 95.7997 54.5004 95.8997H54.4004C54.4004 95.8997 54.3004 95.8997 54.3004 95.7997L53.7004 94.9997C53.7004 94.9997 53.7004 94.9997 53.7004 94.8997V94.7997L55.3004 93.3997H53.0004H52.9004C52.9004 93.3997 52.9004 93.3997 52.9004 93.2997V92.2997V92.1997C52.9004 92.1997 52.9004 92.1997 53.0004 92.1997H57.1004H57.2004C57.2004 92.1997 57.2004 92.1997 57.2004 92.2997V93.3997C57.2004 93.4997 57.2004 93.4997 57.1004 93.4997L55.8004 94.6997C56.4004 94.9997 56.9004 95.2997 57.1004 95.8997Z" fill="#252530"/>
</svg>
