<svg width="94" height="122" viewBox="0 0 94 122" fill="none" xmlns="http://www.w3.org/2000/svg">
<path d="M8.09961 89.9L47.5996 110L85.5996 89.9V11.3H8.09961V89.9Z" fill="white"/>
<path d="M86.3998 11.6001L7.2998 91.3001L48.2998 111.6L86.3998 92.1001V11.6001Z" fill="#F2F3F2"/>
<path d="M5.5 37.5V91.6L6.9 92.3L46.4 112.4L47.6 113L48.8 112.4L86.9 92.3L88.3 91.6V8.69995H5.5V37.5ZM8.1 90.1V11.3H85.7V90.1L47.6 110.2L8.1 90.1Z" fill="#DCDEDC"/>
<path d="M46.9004 12.6C47.3004 12.6 47.7004 12.6 48.1004 12.7L46.9004 15C45.1004 14.9 43.5004 16.3 43.4004 18.1C43.3004 19.9 44.7004 21.5 46.5004 21.6H46.9004C47.7004 21.6 48.5004 21.3 49.1004 20.8L50.4004 23C49.4004 23.7 48.2004 24.1 46.9004 24.1C43.7004 24.2 41.0004 21.8 40.9004 18.6C40.8004 15.4 43.2004 12.7 46.4004 12.6H46.9004ZM51.0004 17.5L52.5004 20L51.0004 22.4L49.6004 20H46.7004L48.2004 17.5H51.0004ZM48.6004 16.6C48.6004 16.2 48.7004 15.8 48.9004 15.5C49.1004 15.2 49.5004 14.9 49.8004 14.7L50.0004 14.6C50.4004 14.4 50.5004 14.3 50.5004 14.1C50.5004 13.9 50.2004 13.7 50.0004 13.7C49.6004 13.7 49.3004 13.9 49.1004 14.3L48.6004 13.8C48.7004 13.6 48.9004 13.4 49.1004 13.2C49.4004 13 49.7004 13 50.0004 13C50.3004 13 50.7004 13.1 50.9004 13.3C51.1004 13.5 51.3004 13.8 51.3004 14.1C51.3004 14.6 51.0004 15 50.4004 15.2L50.1004 15.4C49.8004 15.6 49.6004 15.7 49.5004 16H51.3004V16.7L48.6004 16.6ZM46.9004 29.1L56.4004 23.7V8.69995H37.3004V23.6L46.9004 29.1ZM90.2004 64.5H3.60039L0.400391 71.5L3.60039 78.5H90.2004L93.3004 71.5L90.2004 64.5Z" fill="#FF492C"/>
<path d="M19.0899 59.9999C19.0299 59.9999 18.9799 59.9799 18.9399 59.9399C18.8999 59.8932 18.8799 59.8399 18.8799 59.7799V47.6199C18.8799 47.5599 18.8999 47.5066 18.9399 47.4599C18.9799 47.4199 19.0299 47.3999 19.0899 47.3999H21.1999C21.2599 47.3999 21.3099 47.4199 21.3499 47.4599C21.3966 47.5066 21.4199 47.5599 21.4199 47.6199V57.7299C21.4199 57.7899 21.4499 57.8199 21.5099 57.8199H27.3899C27.4499 57.8199 27.5032 57.8399 27.5499 57.8799C27.5899 57.9266 27.6099 57.9799 27.6099 58.0399V59.7799C27.6099 59.8399 27.5899 59.8932 27.5499 59.9399C27.5032 59.9799 27.4499 59.9999 27.3899 59.9999H19.0899ZM37.1999 54.4199C37.2732 54.8732 37.2966 55.3832 37.2699 55.9499C37.2632 56.0966 37.1866 56.1699 37.0399 56.1699H31.4799C31.4065 56.1699 31.3832 56.1999 31.4099 56.2599C31.4432 56.4999 31.5066 56.7399 31.5999 56.9799C31.9132 57.6466 32.5499 57.9799 33.5099 57.9799C34.2765 57.9732 34.8832 57.6632 35.3299 57.0499C35.3766 56.9766 35.4299 56.9399 35.4899 56.9399C35.5299 56.9399 35.5732 56.9632 35.6199 57.0099L36.9099 58.2899C36.9699 58.3499 36.9999 58.4032 36.9999 58.4499C36.9999 58.4766 36.9766 58.5266 36.9299 58.5999C36.5366 59.0866 36.0266 59.4666 35.3999 59.7399C34.7799 60.0066 34.0965 60.1399 33.3499 60.1399C32.3165 60.1399 31.4432 59.9066 30.7299 59.4399C30.0165 58.9732 29.5032 58.3199 29.1899 57.4799C28.9366 56.8799 28.8099 56.0932 28.8099 55.1199C28.8099 54.4599 28.8999 53.8799 29.0799 53.3799C29.3599 52.5266 29.8432 51.8466 30.5299 51.3399C31.2232 50.8399 32.0432 50.5899 32.9899 50.5899C34.1899 50.5899 35.1532 50.9366 35.8799 51.6299C36.6066 52.3232 37.0466 53.2532 37.1999 54.4199ZM33.0099 52.7799C32.2499 52.7799 31.7499 53.1332 31.5099 53.8399C31.4632 53.9999 31.4232 54.1932 31.3899 54.4199C31.3899 54.4799 31.4199 54.5099 31.4799 54.5099H34.5899C34.6632 54.5099 34.6866 54.4799 34.6599 54.4199C34.5999 54.0732 34.5699 53.9066 34.5699 53.9199C34.4632 53.5599 34.2765 53.2799 34.0099 53.0799C33.7365 52.8799 33.4032 52.7799 33.0099 52.7799ZM42.4399 50.5999C43.2199 50.5999 43.9165 50.7366 44.5299 51.0099C45.1432 51.2766 45.6199 51.6466 45.9599 52.1199C46.2999 52.5866 46.4699 53.1066 46.4699 53.6799V59.7799C46.4699 59.8399 46.4499 59.8932 46.4099 59.9399C46.3699 59.9799 46.3199 59.9999 46.2599 59.9999H44.1499C44.0899 59.9999 44.0399 59.9799 43.9999 59.9399C43.9532 59.8932 43.9299 59.8399 43.9299 59.7799V59.1899C43.9299 59.1566 43.9199 59.1332 43.8999 59.1199C43.8732 59.1066 43.8499 59.1166 43.8299 59.1499C43.3232 59.8099 42.5132 60.1399 41.3999 60.1399C40.4599 60.1399 39.7032 59.9132 39.1299 59.4599C38.5499 59.0066 38.2599 58.3332 38.2599 57.4399C38.2599 56.5199 38.5866 55.8032 39.2399 55.2899C39.8866 54.7832 40.8099 54.5299 42.0099 54.5299H43.8399C43.8999 54.5299 43.9299 54.4999 43.9299 54.4399V54.0399C43.9299 53.6466 43.8099 53.3366 43.5699 53.1099C43.3299 52.8899 42.9699 52.7799 42.4899 52.7799C42.1232 52.7799 41.8166 52.8466 41.5699 52.9799C41.3232 53.1132 41.1632 53.2999 41.0899 53.5399C41.0566 53.6732 40.9799 53.7332 40.8599 53.7199L38.6799 53.4299C38.5332 53.4032 38.4665 53.3499 38.4799 53.2699C38.5265 52.7632 38.7266 52.3066 39.0799 51.8999C39.4332 51.4932 39.9032 51.1766 40.4899 50.9499C41.0699 50.7166 41.7199 50.5999 42.4399 50.5999ZM42.0799 58.2499C42.5932 58.2499 43.0299 58.1132 43.3899 57.8399C43.7499 57.5666 43.9299 57.2132 43.9299 56.7799V56.1299C43.9299 56.0699 43.8999 56.0399 43.8399 56.0399H42.5499C42.0099 56.0399 41.5865 56.1432 41.2799 56.3499C40.9732 56.5499 40.8199 56.8366 40.8199 57.2099C40.8199 57.5366 40.9332 57.7899 41.1599 57.9699C41.3866 58.1566 41.6932 58.2499 42.0799 58.2499ZM53.9999 47.6199C53.9999 47.5599 54.0199 47.5066 54.0599 47.4599C54.0999 47.4199 54.1499 47.3999 54.2099 47.3999H56.3199C56.3799 47.3999 56.4299 47.4199 56.4699 47.4599C56.5099 47.5066 56.5299 47.5599 56.5299 47.6199V59.7799C56.5299 59.8399 56.5099 59.8932 56.4699 59.9399C56.4299 59.9799 56.3799 59.9999 56.3199 59.9999H54.2099C54.1499 59.9999 54.0999 59.9799 54.0599 59.9399C54.0199 59.8932 53.9999 59.8399 53.9999 59.7799V59.1899C53.9999 59.1566 53.9866 59.1366 53.9599 59.1299C53.9332 59.1232 53.9099 59.1299 53.8899 59.1499C53.3832 59.8099 52.6932 60.1399 51.8199 60.1399C50.9799 60.1399 50.2566 59.9066 49.6499 59.4399C49.0432 58.9732 48.6066 58.3332 48.3399 57.5199C48.1399 56.8932 48.0399 56.1666 48.0399 55.3399C48.0399 54.4866 48.1466 53.7432 48.3599 53.1099C48.6399 52.3366 49.0765 51.7266 49.6699 51.2799C50.2632 50.8266 50.9965 50.5999 51.8699 50.5999C52.7365 50.5999 53.4099 50.8999 53.8899 51.4999C53.9099 51.5399 53.9332 51.5532 53.9599 51.5399C53.9866 51.5266 53.9999 51.5032 53.9999 51.4699V47.6199ZM53.6199 57.1899C53.8599 56.7499 53.9799 56.1432 53.9799 55.3699C53.9799 54.5699 53.8466 53.9399 53.5799 53.4799C53.3066 53.0132 52.9065 52.7799 52.3799 52.7799C51.8132 52.7799 51.3866 53.0132 51.0999 53.4799C50.7999 53.9532 50.6499 54.5899 50.6499 55.3899C50.6499 56.1099 50.7766 56.7099 51.0299 57.1899C51.3299 57.7099 51.7732 57.9699 52.3599 57.9699C52.8999 57.9699 53.3199 57.7099 53.6199 57.1899ZM66.6299 54.4199C66.7032 54.8732 66.7265 55.3832 66.6999 55.9499C66.6932 56.0966 66.6166 56.1699 66.4699 56.1699H60.9099C60.8365 56.1699 60.8132 56.1999 60.8399 56.2599C60.8732 56.4999 60.9366 56.7399 61.0299 56.9799C61.3432 57.6466 61.9799 57.9799 62.9399 57.9799C63.7065 57.9732 64.3132 57.6632 64.7599 57.0499C64.8066 56.9766 64.8599 56.9399 64.9199 56.9399C64.9599 56.9399 65.0032 56.9632 65.0499 57.0099L66.3399 58.2899C66.3999 58.3499 66.4299 58.4032 66.4299 58.4499C66.4299 58.4766 66.4066 58.5266 66.3599 58.5999C65.9666 59.0866 65.4566 59.4666 64.8299 59.7399C64.2099 60.0066 63.5266 60.1399 62.7799 60.1399C61.7466 60.1399 60.8732 59.9066 60.1599 59.4399C59.4465 58.9732 58.9332 58.3199 58.6199 57.4799C58.3665 56.8799 58.2399 56.0932 58.2399 55.1199C58.2399 54.4599 58.3299 53.8799 58.5099 53.3799C58.7899 52.5266 59.2732 51.8466 59.9599 51.3399C60.6532 50.8399 61.4732 50.5899 62.4199 50.5899C63.6199 50.5899 64.5832 50.9366 65.3099 51.6299C66.0365 52.3232 66.4765 53.2532 66.6299 54.4199ZM62.4399 52.7799C61.6799 52.7799 61.1799 53.1332 60.9399 53.8399C60.8932 53.9999 60.8532 54.1932 60.8199 54.4199C60.8199 54.4799 60.8499 54.5099 60.9099 54.5099H64.0199C64.0932 54.5099 64.1165 54.4799 64.0899 54.4199C64.0299 54.0732 63.9999 53.9066 63.9999 53.9199C63.8932 53.5599 63.7065 53.2799 63.4399 53.0799C63.1665 52.8799 62.8332 52.7799 62.4399 52.7799ZM72.8799 50.6199C73.3132 50.6199 73.6532 50.7032 73.8999 50.8699C73.9999 50.9232 74.0366 51.0132 74.0099 51.1399L73.6299 53.1999C73.6232 53.3399 73.5399 53.3799 73.3799 53.3199C73.1999 53.2599 72.9899 53.2299 72.7499 53.2299C72.6566 53.2299 72.5266 53.2432 72.3599 53.2699C71.9266 53.3032 71.5599 53.4599 71.2599 53.7399C70.9599 54.0266 70.8099 54.4032 70.8099 54.8699V59.7799C70.8099 59.8399 70.7899 59.8932 70.7499 59.9399C70.7032 59.9799 70.6499 59.9999 70.5899 59.9999H68.4899C68.4299 59.9999 68.3766 59.9799 68.3299 59.9399C68.2899 59.8932 68.2699 59.8399 68.2699 59.7799V50.9599C68.2699 50.8999 68.2899 50.8499 68.3299 50.8099C68.3766 50.7699 68.4299 50.7499 68.4899 50.7499H70.5899C70.6499 50.7499 70.7032 50.7699 70.7499 50.8099C70.7899 50.8499 70.8099 50.8999 70.8099 50.9599V51.6499C70.8099 51.6832 70.8199 51.7066 70.8399 51.7199C70.8665 51.7332 70.8866 51.7266 70.8999 51.6999C71.3932 50.9799 72.0532 50.6199 72.8799 50.6199Z" fill="#252530"/>
<path d="M28.74 69.2799C28.74 69.3133 28.73 69.3399 28.71 69.3599C28.6833 69.3866 28.6533 69.3999 28.62 69.3999H25.21C25.1767 69.3999 25.16 69.4166 25.16 69.4499V71.3199C25.16 71.3533 25.1767 71.3699 25.21 71.3699H27.5C27.5333 71.3699 27.5633 71.3799 27.59 71.3999C27.61 71.4266 27.62 71.4566 27.62 71.4899V72.2499C27.62 72.2833 27.61 72.3133 27.59 72.3399C27.5633 72.3599 27.5333 72.3699 27.5 72.3699H25.21C25.1767 72.3699 25.16 72.3866 25.16 72.4199V74.3499C25.16 74.3833 25.1767 74.3999 25.21 74.3999H28.62C28.6533 74.3999 28.6833 74.4133 28.71 74.4399C28.73 74.4599 28.74 74.4866 28.74 74.5199V75.2799C28.74 75.3133 28.73 75.3399 28.71 75.3599C28.6833 75.3866 28.6533 75.3999 28.62 75.3999H24.12C24.0867 75.3999 24.06 75.3866 24.04 75.3599C24.0133 75.3399 24 75.3133 24 75.2799V68.5199C24 68.4866 24.0133 68.4599 24.04 68.4399C24.06 68.4133 24.0867 68.3999 24.12 68.3999H28.62C28.6533 68.3999 28.6833 68.4133 28.71 68.4399C28.73 68.4599 28.74 68.4866 28.74 68.5199V69.2799ZM32.26 70.2099C32.8 70.2099 33.2333 70.3699 33.56 70.6899C33.88 71.0099 34.04 71.4466 34.04 71.9999V75.2799C34.04 75.3133 34.0267 75.3399 34 75.3599C33.98 75.3866 33.9533 75.3999 33.92 75.3999H33C32.9667 75.3999 32.9367 75.3866 32.91 75.3599C32.89 75.3399 32.88 75.3133 32.88 75.2799V72.2399C32.88 71.9333 32.7933 71.6833 32.62 71.4899C32.4467 71.3033 32.2167 71.2099 31.93 71.2099C31.6433 71.2099 31.41 71.3033 31.23 71.4899C31.0567 71.6766 30.97 71.9233 30.97 72.2299V75.2799C30.97 75.3133 30.96 75.3399 30.94 75.3599C30.9133 75.3866 30.8833 75.3999 30.85 75.3999H29.93C29.8967 75.3999 29.87 75.3866 29.85 75.3599C29.8233 75.3399 29.81 75.3133 29.81 75.2799V70.4099C29.81 70.3766 29.8233 70.3466 29.85 70.3199C29.87 70.2999 29.8967 70.2899 29.93 70.2899H30.85C30.8833 70.2899 30.9133 70.2999 30.94 70.3199C30.96 70.3466 30.97 70.3766 30.97 70.4099V70.7299C30.97 70.7499 30.9767 70.7633 30.99 70.7699C31.0033 70.7766 31.0133 70.7699 31.02 70.7499C31.2933 70.3899 31.7067 70.2099 32.26 70.2099ZM37.96 71.1099C37.96 71.1433 37.9467 71.1699 37.92 71.1899C37.9 71.2166 37.8733 71.2299 37.84 71.2299H36.82C36.7867 71.2299 36.77 71.2466 36.77 71.2799V73.6899C36.77 73.9433 36.8233 74.1266 36.93 74.2399C37.0433 74.3533 37.22 74.4099 37.46 74.4099H37.76C37.7933 74.4099 37.82 74.4199 37.84 74.4399C37.8667 74.4666 37.88 74.4966 37.88 74.5299V75.2799C37.88 75.3533 37.84 75.3966 37.76 75.4099L37.24 75.4199C36.7133 75.4199 36.32 75.3299 36.06 75.1499C35.8 74.9699 35.6667 74.6299 35.66 74.1299V71.2799C35.66 71.2466 35.6433 71.2299 35.61 71.2299H35.04C35.0067 71.2299 34.9767 71.2166 34.95 71.1899C34.93 71.1699 34.92 71.1433 34.92 71.1099V70.4099C34.92 70.3766 34.93 70.3466 34.95 70.3199C34.9767 70.2999 35.0067 70.2899 35.04 70.2899H35.61C35.6433 70.2899 35.66 70.2733 35.66 70.2399V69.0699C35.66 69.0366 35.67 69.0066 35.69 68.9799C35.7167 68.9599 35.7467 68.9499 35.78 68.9499H36.65C36.6833 68.9499 36.71 68.9599 36.73 68.9799C36.7567 69.0066 36.77 69.0366 36.77 69.0699V70.2399C36.77 70.2733 36.7867 70.2899 36.82 70.2899H37.84C37.8733 70.2899 37.9 70.2999 37.92 70.3199C37.9467 70.3466 37.96 70.3766 37.96 70.4099V71.1099ZM43.2 72.2699C43.2267 72.4366 43.24 72.6233 43.24 72.8299L43.23 73.1399C43.23 73.2199 43.19 73.2599 43.11 73.2599H39.98C39.9467 73.2599 39.93 73.2766 39.93 73.3099C39.95 73.5299 39.98 73.6799 40.02 73.7599C40.18 74.2399 40.57 74.4833 41.19 74.4899C41.6433 74.4899 42.0033 74.3033 42.27 73.9299C42.2967 73.8899 42.33 73.8699 42.37 73.8699C42.3967 73.8699 42.42 73.8799 42.44 73.8999L43.06 74.4099C43.12 74.4566 43.13 74.5099 43.09 74.5699C42.8833 74.8633 42.61 75.0899 42.27 75.2499C41.9233 75.4099 41.54 75.4899 41.12 75.4899C40.6 75.4899 40.1567 75.3733 39.79 75.1399C39.43 74.9066 39.1667 74.5799 39 74.1599C38.8467 73.7999 38.77 73.2999 38.77 72.6599C38.77 72.2733 38.81 71.9599 38.89 71.7199C39.0233 71.2533 39.2767 70.8833 39.65 70.6099C40.0167 70.3433 40.46 70.2099 40.98 70.2099C42.2933 70.2099 43.0333 70.8966 43.2 72.2699ZM40.98 71.2099C40.7333 71.2099 40.5267 71.2733 40.36 71.3999C40.2 71.5199 40.0867 71.6899 40.02 71.9099C39.98 72.0233 39.9533 72.1699 39.94 72.3499C39.9267 72.3833 39.94 72.3999 39.98 72.3999H42.01C42.0433 72.3999 42.06 72.3833 42.06 72.3499C42.0467 72.1833 42.0267 72.0566 42 71.9699C41.94 71.7299 41.8233 71.5433 41.65 71.4099C41.47 71.2766 41.2467 71.2099 40.98 71.2099ZM46.68 70.2299C46.8933 70.2299 47.08 70.2733 47.24 70.3599C47.2933 70.3866 47.3133 70.4366 47.3 70.5099L47.13 71.4099C47.1233 71.4899 47.0767 71.5133 46.99 71.4799C46.89 71.4466 46.7733 71.4299 46.64 71.4299C46.5533 71.4299 46.4867 71.4333 46.44 71.4399C46.16 71.4533 45.9267 71.5499 45.74 71.7299C45.5533 71.9166 45.46 72.1566 45.46 72.4499V75.2799C45.46 75.3133 45.45 75.3399 45.43 75.3599C45.4033 75.3866 45.3733 75.3999 45.34 75.3999H44.42C44.3867 75.3999 44.36 75.3866 44.34 75.3599C44.3133 75.3399 44.3 75.3133 44.3 75.2799V70.4099C44.3 70.3766 44.3133 70.3466 44.34 70.3199C44.36 70.2999 44.3867 70.2899 44.42 70.2899H45.34C45.3733 70.2899 45.4033 70.2999 45.43 70.3199C45.45 70.3466 45.46 70.3766 45.46 70.4099V70.8599C45.46 70.8866 45.4633 70.8999 45.47 70.8999C45.4833 70.9066 45.4967 70.8999 45.51 70.8799C45.79 70.4466 46.18 70.2299 46.68 70.2299ZM52.39 71.6099C52.51 71.9499 52.57 72.3666 52.57 72.8599C52.57 73.3333 52.5133 73.7399 52.4 74.0799C52.2533 74.5199 52.02 74.8633 51.7 75.1099C51.3733 75.3566 50.9633 75.4799 50.47 75.4799C49.9967 75.4799 49.6167 75.3099 49.33 74.9699C49.3167 74.9566 49.3033 74.9533 49.29 74.9599C49.2767 74.9666 49.27 74.9799 49.27 74.9999V77.1699C49.27 77.2033 49.26 77.2299 49.24 77.2499C49.2133 77.2766 49.1833 77.2899 49.15 77.2899H48.23C48.1967 77.2899 48.17 77.2766 48.15 77.2499C48.1233 77.2299 48.11 77.2033 48.11 77.1699V70.4099C48.11 70.3766 48.1233 70.3466 48.15 70.3199C48.17 70.2999 48.1967 70.2899 48.23 70.2899H49.15C49.1833 70.2899 49.2133 70.2999 49.24 70.3199C49.26 70.3466 49.27 70.3766 49.27 70.4099V70.7099C49.27 70.7299 49.2767 70.7433 49.29 70.7499C49.3033 70.7566 49.3167 70.7499 49.33 70.7299C49.6233 70.3833 50.0067 70.2099 50.48 70.2099C50.9533 70.2099 51.3533 70.3333 51.68 70.5799C52.0067 70.8266 52.2433 71.1699 52.39 71.6099ZM51.09 74.0599C51.29 73.7533 51.39 73.3466 51.39 72.8399C51.39 72.3533 51.31 71.9699 51.15 71.6899C50.9633 71.3633 50.68 71.1999 50.3 71.1999C49.9533 71.1999 49.6933 71.3599 49.52 71.6799C49.3667 71.9399 49.29 72.3266 49.29 72.8399C49.29 73.3666 49.3733 73.7666 49.54 74.0399C49.7133 74.3333 49.9633 74.4799 50.29 74.4799C50.6433 74.4799 50.91 74.3399 51.09 74.0599ZM56.07 70.2299C56.2833 70.2299 56.47 70.2733 56.63 70.3599C56.6833 70.3866 56.7033 70.4366 56.69 70.5099L56.52 71.4099C56.5133 71.4899 56.4667 71.5133 56.38 71.4799C56.28 71.4466 56.1633 71.4299 56.03 71.4299C55.9433 71.4299 55.8767 71.4333 55.83 71.4399C55.55 71.4533 55.3167 71.5499 55.13 71.7299C54.9433 71.9166 54.85 72.1566 54.85 72.4499V75.2799C54.85 75.3133 54.84 75.3399 54.82 75.3599C54.7933 75.3866 54.7633 75.3999 54.73 75.3999H53.81C53.7767 75.3999 53.75 75.3866 53.73 75.3599C53.7033 75.3399 53.69 75.3133 53.69 75.2799V70.4099C53.69 70.3766 53.7033 70.3466 53.73 70.3199C53.75 70.2999 53.7767 70.2899 53.81 70.2899H54.73C54.7633 70.2899 54.7933 70.2999 54.82 70.3199C54.84 70.3466 54.85 70.3766 54.85 70.4099V70.8599C54.85 70.8866 54.8533 70.8999 54.86 70.8999C54.8733 70.9066 54.8867 70.8999 54.9 70.8799C55.18 70.4466 55.57 70.2299 56.07 70.2299ZM58.11 69.5899C57.9033 69.5899 57.7333 69.5233 57.6 69.3899C57.4667 69.2566 57.4 69.0866 57.4 68.8799C57.4 68.6733 57.4667 68.5033 57.6 68.3699C57.7333 68.2366 57.9033 68.1699 58.11 68.1699C58.3167 68.1699 58.4867 68.2366 58.62 68.3699C58.7533 68.5033 58.82 68.6733 58.82 68.8799C58.82 69.0866 58.7533 69.2566 58.62 69.3899C58.4867 69.5233 58.3167 69.5899 58.11 69.5899ZM57.63 75.3999C57.5967 75.3999 57.57 75.3866 57.55 75.3599C57.5233 75.3399 57.51 75.3133 57.51 75.2799V70.3999C57.51 70.3666 57.5233 70.3399 57.55 70.3199C57.57 70.2933 57.5967 70.2799 57.63 70.2799H58.55C58.5833 70.2799 58.6133 70.2933 58.64 70.3199C58.66 70.3399 58.67 70.3666 58.67 70.3999V75.2799C58.67 75.3133 58.66 75.3399 58.64 75.3599C58.6133 75.3866 58.5833 75.3999 58.55 75.3999H57.63ZM61.9 75.4599C61.48 75.4599 61.11 75.3966 60.79 75.2699C60.4767 75.1499 60.2333 74.9799 60.06 74.7599C59.8867 74.5466 59.8 74.3066 59.8 74.0399V73.9499C59.8 73.9166 59.81 73.8866 59.83 73.8599C59.8567 73.8399 59.8867 73.8299 59.92 73.8299H60.8C60.8333 73.8299 60.8633 73.8399 60.89 73.8599C60.91 73.8866 60.92 73.9166 60.92 73.9499V73.9699C60.92 74.1366 61.01 74.2833 61.19 74.4099C61.3767 74.5299 61.61 74.5899 61.89 74.5899C62.1567 74.5899 62.3733 74.5366 62.54 74.4299C62.7067 74.3166 62.79 74.1766 62.79 74.0099C62.79 73.8566 62.72 73.7399 62.58 73.6599C62.4467 73.5866 62.2267 73.5066 61.92 73.4199L61.54 73.2999C61.2 73.1999 60.9133 73.0933 60.68 72.9799C60.4467 72.8666 60.25 72.7099 60.09 72.5099C59.93 72.3166 59.85 72.0666 59.85 71.7599C59.85 71.2933 60.0333 70.9233 60.4 70.6499C60.7667 70.3699 61.25 70.2299 61.85 70.2299C62.2567 70.2299 62.6133 70.2933 62.92 70.4199C63.2267 70.5533 63.4633 70.7333 63.63 70.9599C63.7967 71.1933 63.88 71.4566 63.88 71.7499C63.88 71.7833 63.87 71.8133 63.85 71.8399C63.8233 71.8599 63.7933 71.8699 63.76 71.8699H62.91C62.8767 71.8699 62.8467 71.8599 62.82 71.8399C62.8 71.8133 62.79 71.7833 62.79 71.7499C62.79 71.5766 62.7067 71.4333 62.54 71.3199C62.3667 71.1999 62.1333 71.1399 61.84 71.1399C61.58 71.1399 61.37 71.1866 61.21 71.2799C61.0433 71.3799 60.96 71.5166 60.96 71.6899C60.96 71.8499 61.0367 71.9699 61.19 72.0499C61.35 72.1366 61.6133 72.2299 61.98 72.3299L62.2 72.3899C62.5533 72.4966 62.85 72.6033 63.09 72.7099C63.33 72.8233 63.5333 72.9766 63.7 73.1699C63.8667 73.3699 63.95 73.6266 63.95 73.9399C63.95 74.4133 63.7633 74.7833 63.39 75.0499C63.0167 75.3233 62.52 75.4599 61.9 75.4599ZM69.24 72.2699C69.2667 72.4366 69.28 72.6233 69.28 72.8299L69.27 73.1399C69.27 73.2199 69.23 73.2599 69.15 73.2599H66.02C65.9867 73.2599 65.97 73.2766 65.97 73.3099C65.99 73.5299 66.02 73.6799 66.06 73.7599C66.22 74.2399 66.61 74.4833 67.23 74.4899C67.6833 74.4899 68.0433 74.3033 68.31 73.9299C68.3367 73.8899 68.37 73.8699 68.41 73.8699C68.4367 73.8699 68.46 73.8799 68.48 73.8999L69.1 74.4099C69.16 74.4566 69.17 74.5099 69.13 74.5699C68.9233 74.8633 68.6467 75.0899 68.3 75.2499C67.96 75.4099 67.58 75.4899 67.16 75.4899C66.64 75.4899 66.1967 75.3733 65.83 75.1399C65.47 74.9066 65.2067 74.5799 65.04 74.1599C64.8867 73.7999 64.81 73.2999 64.81 72.6599C64.81 72.2733 64.85 71.9599 64.93 71.7199C65.0633 71.2533 65.3133 70.8833 65.68 70.6099C66.0533 70.3433 66.5 70.2099 67.02 70.2099C68.3333 70.2099 69.0733 70.8966 69.24 72.2699ZM67.02 71.2099C66.7733 71.2099 66.5667 71.2733 66.4 71.3999C66.24 71.5199 66.1267 71.6899 66.06 71.9099C66.02 72.0233 65.9933 72.1699 65.98 72.3499C65.9667 72.3833 65.98 72.3999 66.02 72.3999H68.05C68.0833 72.3999 68.1 72.3833 68.1 72.3499C68.0867 72.1833 68.0667 72.0566 68.04 71.9699C67.98 71.7299 67.86 71.5433 67.68 71.4099C67.5067 71.2766 67.2867 71.2099 67.02 71.2099Z" fill="white"/>
<path d="M31.1602 89.5C31.0869 89.5 31.0402 89.4667 31.0202 89.4L29.2502 82.63L29.2402 82.59C29.2402 82.53 29.2769 82.5 29.3502 82.5H30.5902C30.6569 82.5 30.7002 82.5333 30.7202 82.6L31.6702 86.67C31.6769 86.6967 31.6869 86.71 31.7002 86.71C31.7136 86.71 31.7236 86.6967 31.7302 86.67L32.6502 82.61C32.6702 82.5367 32.7136 82.5 32.7802 82.5H33.9902C34.0636 82.5 34.1102 82.5333 34.1302 82.6L35.1302 86.67C35.1369 86.69 35.1469 86.7033 35.1602 86.71C35.1736 86.71 35.1836 86.6967 35.1902 86.67L36.1102 82.61C36.1302 82.5367 36.1736 82.5 36.2402 82.5H37.4202C37.5136 82.5 37.5502 82.5433 37.5302 82.63L35.8902 89.4C35.8702 89.4667 35.8236 89.5 35.7502 89.5H34.5602C34.4936 89.5 34.4502 89.4667 34.4302 89.4L33.4102 85.07C33.4036 85.0433 33.3936 85.03 33.3802 85.03C33.3669 85.03 33.3569 85.0433 33.3502 85.07L32.4002 89.39C32.3869 89.4633 32.3436 89.5 32.2702 89.5H31.1602ZM38.5002 89.5C38.4669 89.5 38.4369 89.4867 38.4102 89.46C38.3902 89.44 38.3802 89.4133 38.3802 89.38V82.62C38.3802 82.5867 38.3902 82.56 38.4102 82.54C38.4369 82.5133 38.4669 82.5 38.5002 82.5H39.6702C39.7036 82.5 39.7302 82.5133 39.7502 82.54C39.7769 82.56 39.7902 82.5867 39.7902 82.62V89.38C39.7902 89.4133 39.7769 89.44 39.7502 89.46C39.7302 89.4867 39.7036 89.5 39.6702 89.5H38.5002ZM45.0302 82.62C45.0302 82.5867 45.0402 82.56 45.0602 82.54C45.0869 82.5133 45.1169 82.5 45.1502 82.5H46.3202C46.3536 82.5 46.3802 82.5133 46.4002 82.54C46.4269 82.56 46.4402 82.5867 46.4402 82.62V89.38C46.4402 89.4133 46.4269 89.44 46.4002 89.46C46.3802 89.4867 46.3536 89.5 46.3202 89.5H45.1902C45.1236 89.5 45.0769 89.4733 45.0502 89.42L42.4602 85.14C42.4469 85.12 42.4336 85.1133 42.4202 85.12C42.4069 85.12 42.4002 85.1333 42.4002 85.16L42.4202 89.38C42.4202 89.4133 42.4069 89.44 42.3802 89.46C42.3602 89.4867 42.3336 89.5 42.3002 89.5H41.1302C41.0969 89.5 41.0669 89.4867 41.0402 89.46C41.0202 89.44 41.0102 89.4133 41.0102 89.38V82.62C41.0102 82.5867 41.0202 82.56 41.0402 82.54C41.0669 82.5133 41.0969 82.5 41.1302 82.5H42.2602C42.3269 82.5 42.3736 82.5267 42.4002 82.58L44.9802 86.84C44.9936 86.86 45.0069 86.8667 45.0202 86.86C45.0336 86.86 45.0402 86.8467 45.0402 86.82L45.0302 82.62ZM52.4902 82.5C52.5236 82.5 52.5502 82.5133 52.5702 82.54C52.5969 82.56 52.6102 82.5867 52.6102 82.62V83.6C52.6102 83.6333 52.5969 83.66 52.5702 83.68C52.5502 83.7067 52.5236 83.72 52.4902 83.72H50.7002C50.6669 83.72 50.6502 83.7367 50.6502 83.77V89.38C50.6502 89.4133 50.6369 89.44 50.6102 89.46C50.5902 89.4867 50.5636 89.5 50.5302 89.5H49.3602C49.3269 89.5 49.2969 89.4867 49.2702 89.46C49.2502 89.44 49.2402 89.4133 49.2402 89.38V83.77C49.2402 83.7367 49.2236 83.72 49.1902 83.72H47.4502C47.4169 83.72 47.3869 83.7067 47.3602 83.68C47.3402 83.66 47.3302 83.6333 47.3302 83.6V82.62C47.3302 82.5867 47.3402 82.56 47.3602 82.54C47.3869 82.5133 47.4169 82.5 47.4502 82.5H52.4902ZM58.3702 83.59C58.3702 83.6233 58.3602 83.65 58.3402 83.67C58.3136 83.6967 58.2836 83.71 58.2502 83.71H54.9702C54.9369 83.71 54.9202 83.7267 54.9202 83.76V85.31C54.9202 85.3433 54.9369 85.36 54.9702 85.36H57.1202C57.1536 85.36 57.1802 85.37 57.2002 85.39C57.2269 85.4167 57.2402 85.4467 57.2402 85.48V86.45C57.2402 86.4833 57.2269 86.5133 57.2002 86.54C57.1802 86.56 57.1536 86.57 57.1202 86.57H54.9702C54.9369 86.57 54.9202 86.5867 54.9202 86.62V88.24C54.9202 88.2733 54.9369 88.29 54.9702 88.29H58.2502C58.2836 88.29 58.3136 88.3 58.3402 88.32C58.3602 88.3467 58.3702 88.3767 58.3702 88.41V89.38C58.3702 89.4133 58.3602 89.44 58.3402 89.46C58.3136 89.4867 58.2836 89.5 58.2502 89.5H53.6302C53.5969 89.5 53.5669 89.4867 53.5402 89.46C53.5202 89.44 53.5102 89.4133 53.5102 89.38V82.62C53.5102 82.5867 53.5202 82.56 53.5402 82.54C53.5669 82.5133 53.5969 82.5 53.6302 82.5H58.2502C58.2836 82.5 58.3136 82.5133 58.3402 82.54C58.3602 82.56 58.3702 82.5867 58.3702 82.62V83.59ZM63.1902 89.5C63.1236 89.5 63.0769 89.47 63.0502 89.41L61.8002 86.64C61.7869 86.6133 61.7669 86.6 61.7402 86.6H60.8102C60.7769 86.6 60.7602 86.6167 60.7602 86.65V89.38C60.7602 89.4133 60.7469 89.44 60.7202 89.46C60.7002 89.4867 60.6736 89.5 60.6402 89.5H59.4702C59.4369 89.5 59.4069 89.4867 59.3802 89.46C59.3602 89.44 59.3502 89.4133 59.3502 89.38V82.62C59.3502 82.5867 59.3602 82.56 59.3802 82.54C59.4069 82.5133 59.4369 82.5 59.4702 82.5H62.3302C62.7569 82.5 63.1302 82.5867 63.4502 82.76C63.7769 82.9333 64.0269 83.18 64.2002 83.5C64.3802 83.82 64.4702 84.19 64.4702 84.61C64.4702 85.0633 64.3569 85.45 64.1302 85.77C63.9036 86.0967 63.5869 86.3267 63.1802 86.46C63.1469 86.4733 63.1369 86.4967 63.1502 86.53L64.5102 89.36C64.5236 89.3867 64.5302 89.4067 64.5302 89.42C64.5302 89.4733 64.4936 89.5 64.4202 89.5H63.1902ZM60.8102 83.71C60.7769 83.71 60.7602 83.7267 60.7602 83.76V85.47C60.7602 85.5033 60.7769 85.52 60.8102 85.52H62.1202C62.4002 85.52 62.6269 85.4367 62.8002 85.27C62.9802 85.1033 63.0702 84.8867 63.0702 84.62C63.0702 84.3533 62.9802 84.1333 62.8002 83.96C62.6269 83.7933 62.4002 83.71 62.1202 83.71H60.8102ZM38.0602 97.63C38.0469 97.6433 38.0436 97.6567 38.0502 97.67C38.0569 97.6833 38.0702 97.69 38.0902 97.69H40.8002C40.8336 97.69 40.8636 97.7 40.8902 97.72C40.9102 97.7467 40.9202 97.7767 40.9202 97.81V98.78C40.9202 98.8133 40.9102 98.84 40.8902 98.86C40.8636 98.8867 40.8336 98.9 40.8002 98.9H36.3002C36.2669 98.9 36.2369 98.8867 36.2102 98.86C36.1902 98.84 36.1802 98.8133 36.1802 98.78V97.86C36.1802 97.8 36.2002 97.75 36.2402 97.71C36.5669 97.39 36.9002 97.0433 37.2402 96.67C37.5802 96.29 37.7936 96.0533 37.8802 95.96C38.0669 95.74 38.2569 95.53 38.4502 95.33C39.0569 94.6567 39.3602 94.1567 39.3602 93.83C39.3602 93.5967 39.2769 93.4033 39.1102 93.25C38.9436 93.1033 38.7269 93.03 38.4602 93.03C38.1936 93.03 37.9769 93.1033 37.8102 93.25C37.6436 93.4033 37.5602 93.6033 37.5602 93.85V94.1C37.5602 94.1333 37.5469 94.1633 37.5202 94.19C37.5002 94.21 37.4736 94.22 37.4402 94.22H36.2602C36.2269 94.22 36.2002 94.21 36.1802 94.19C36.1536 94.1633 36.1402 94.1333 36.1402 94.1V93.63C36.1602 93.27 36.2736 92.95 36.4802 92.67C36.6869 92.3967 36.9602 92.1867 37.3002 92.04C37.6469 91.8933 38.0336 91.82 38.4602 91.82C38.9336 91.82 39.3469 91.9067 39.7002 92.08C40.0469 92.26 40.3169 92.5 40.5102 92.8C40.6969 93.1 40.7902 93.4333 40.7902 93.8C40.7902 94.08 40.7202 94.3667 40.5802 94.66C40.4402 94.9533 40.2302 95.27 39.9502 95.61C39.7436 95.87 39.5202 96.1267 39.2802 96.38C39.0402 96.6333 38.6836 97 38.2102 97.48L38.0602 97.63ZM44.1702 99.01C43.4369 99.01 42.8569 98.8033 42.4302 98.39C42.0036 97.9833 41.7902 97.4267 41.7902 96.72V94.08C41.7902 93.3867 42.0036 92.8367 42.4302 92.43C42.8569 92.0233 43.4369 91.82 44.1702 91.82C44.9036 91.82 45.4869 92.0233 45.9202 92.43C46.3469 92.8367 46.5602 93.3867 46.5602 94.08V96.72C46.5602 97.4267 46.3469 97.9833 45.9202 98.39C45.4869 98.8033 44.9036 99.01 44.1702 99.01ZM44.1702 97.8C44.4702 97.8 44.7102 97.7067 44.8902 97.52C45.0636 97.34 45.1502 97.0967 45.1502 96.79V94.04C45.1502 93.7333 45.0636 93.49 44.8902 93.31C44.7102 93.1233 44.4702 93.03 44.1702 93.03C43.8769 93.03 43.6436 93.1233 43.4702 93.31C43.2902 93.49 43.2002 93.7333 43.2002 94.04V96.79C43.2002 97.0967 43.2902 97.34 43.4702 97.52C43.6436 97.7067 43.8769 97.8 44.1702 97.8ZM49.3602 97.63C49.3469 97.6433 49.3436 97.6567 49.3502 97.67C49.3569 97.6833 49.3702 97.69 49.3902 97.69H52.1002C52.1336 97.69 52.1636 97.7 52.1902 97.72C52.2102 97.7467 52.2202 97.7767 52.2202 97.81V98.78C52.2202 98.8133 52.2102 98.84 52.1902 98.86C52.1636 98.8867 52.1336 98.9 52.1002 98.9H47.6002C47.5669 98.9 47.5402 98.8867 47.5202 98.86C47.4936 98.84 47.4802 98.8133 47.4802 98.78V97.86C47.4802 97.8 47.5002 97.75 47.5402 97.71C47.8669 97.39 48.2002 97.0433 48.5402 96.67C48.8802 96.29 49.0936 96.0533 49.1802 95.96C49.3669 95.74 49.5569 95.53 49.7502 95.33C50.3569 94.6567 50.6602 94.1567 50.6602 93.83C50.6602 93.5967 50.5769 93.4033 50.4102 93.25C50.2436 93.1033 50.0269 93.03 49.7602 93.03C49.4936 93.03 49.2769 93.1033 49.1102 93.25C48.9436 93.4033 48.8602 93.6033 48.8602 93.85V94.1C48.8602 94.1333 48.8502 94.1633 48.8302 94.19C48.8036 94.21 48.7736 94.22 48.7402 94.22H47.5602C47.5269 94.22 47.5002 94.21 47.4802 94.19C47.4536 94.1633 47.4402 94.1333 47.4402 94.1V93.63C47.4602 93.27 47.5736 92.95 47.7802 92.67C47.9869 92.3967 48.2636 92.1867 48.6102 92.04C48.9502 91.8933 49.3336 91.82 49.7602 91.82C50.2336 91.82 50.6469 91.9067 51.0002 92.08C51.3469 92.26 51.6169 92.5 51.8102 92.8C51.9969 93.1 52.0902 93.4333 52.0902 93.8C52.0902 94.08 52.0202 94.3667 51.8802 94.66C51.7402 94.9533 51.5302 95.27 51.2502 95.61C51.0436 95.87 50.8202 96.1267 50.5802 96.38C50.3402 96.6333 49.9836 97 49.5102 97.48L49.3602 97.63ZM57.2602 95.56C57.3936 95.8667 57.4602 96.22 57.4602 96.62C57.4602 96.98 57.4002 97.3133 57.2802 97.62C57.1202 98.0467 56.8536 98.38 56.4802 98.62C56.1002 98.86 55.6536 98.98 55.1402 98.98C54.6336 98.98 54.1902 98.8533 53.8102 98.6C53.4236 98.3467 53.1469 98.0033 52.9802 97.57C52.8869 97.31 52.8336 97.03 52.8202 96.73C52.8202 96.65 52.8602 96.61 52.9402 96.61H54.1202C54.2002 96.61 54.2402 96.65 54.2402 96.73C54.2669 96.95 54.3036 97.1133 54.3502 97.22C54.4102 97.3933 54.5102 97.5267 54.6502 97.62C54.7836 97.72 54.9436 97.77 55.1302 97.77C55.5036 97.77 55.7602 97.6067 55.9002 97.28C55.9936 97.08 56.0402 96.8467 56.0402 96.58C56.0402 96.2667 55.9902 96.01 55.8902 95.81C55.7369 95.4967 55.4802 95.34 55.1202 95.34C55.0469 95.34 54.9702 95.36 54.8902 95.4C54.8102 95.4467 54.7136 95.51 54.6002 95.59C54.5736 95.61 54.5469 95.62 54.5202 95.62C54.4802 95.62 54.4502 95.6 54.4302 95.56L53.8402 94.73C53.8269 94.71 53.8202 94.6867 53.8202 94.66C53.8202 94.62 53.8336 94.5867 53.8602 94.56L55.4502 93.17C55.4636 93.1567 55.4702 93.1433 55.4702 93.13C55.4636 93.1167 55.4502 93.11 55.4302 93.11H53.0802C53.0469 93.11 53.0202 93.0967 53.0002 93.07C52.9736 93.05 52.9602 93.0233 52.9602 92.99V92.02C52.9602 91.9867 52.9736 91.96 53.0002 91.94C53.0202 91.9133 53.0469 91.9 53.0802 91.9H57.2502C57.2836 91.9 57.3136 91.9133 57.3402 91.94C57.3602 91.96 57.3702 91.9867 57.3702 92.02V93.12C57.3702 93.1733 57.3469 93.2233 57.3002 93.27L55.9902 94.47C55.9769 94.4833 55.9736 94.4967 55.9802 94.51C55.9802 94.5233 55.9936 94.53 56.0202 94.53C56.6002 94.6433 57.0136 94.9867 57.2602 95.56Z" fill="#252530"/>
</svg>
