<svg width="94" height="122" viewBox="0 0 94 122" fill="none" xmlns="http://www.w3.org/2000/svg">
<path d="M8.09961 89.8998L47.5996 110L85.5996 89.8998V11.2998H8.09961V89.8998Z" fill="white"/>
<path d="M86.3998 11.6001L7.2998 91.3001L48.2998 111.6L86.3998 92.1001V11.6001Z" fill="#F2F3F2"/>
<path d="M5.5 37.5002V91.6002L6.9 92.3002L46.4 112.4L47.6 113L48.8 112.4L86.9 92.3002L88.3 91.6002V8.7002H5.5V37.5002ZM8.1 90.1002V11.3002H85.7V90.1002L47.6 110.2L8.1 90.1002Z" fill="#DCDEDC"/>
<path d="M46.9004 12.6002C47.3004 12.6002 47.7004 12.6002 48.1004 12.7002L46.9004 15.0002C45.1004 14.9002 43.5004 16.3002 43.4004 18.1002C43.3004 19.9002 44.7004 21.5002 46.5004 21.6002H46.9004C47.7004 21.6002 48.5004 21.3002 49.1004 20.8002L50.4004 23.0002C49.4004 23.7002 48.2004 24.1002 46.9004 24.1002C43.7004 24.2002 41.0004 21.8002 40.9004 18.6002C40.8004 15.4002 43.2004 12.7002 46.4004 12.6002H46.9004ZM51.0004 17.5002L52.5004 20.0002L51.0004 22.4002L49.6004 20.0002H46.7004L48.2004 17.5002H51.0004ZM48.6004 16.6002C48.6004 16.2002 48.7004 15.8002 48.9004 15.5002C49.1004 15.2002 49.5004 14.9002 49.8004 14.7002L50.0004 14.6002C50.4004 14.4002 50.5004 14.3002 50.5004 14.1002C50.5004 13.9002 50.2004 13.7002 50.0004 13.7002C49.6004 13.7002 49.3004 13.9002 49.1004 14.3002L48.6004 13.8002C48.7004 13.6002 48.9004 13.4002 49.1004 13.2002C49.4004 13.0002 49.7004 13.0002 50.0004 13.0002C50.3004 13.0002 50.7004 13.1002 50.9004 13.3002C51.1004 13.5002 51.3004 13.8002 51.3004 14.1002C51.3004 14.6002 51.0004 15.0002 50.4004 15.2002L50.1004 15.4002C49.8004 15.6002 49.6004 15.7002 49.5004 16.0002H51.3004V16.7002L48.6004 16.6002ZM46.9004 29.1002L56.4004 23.7002V8.7002H37.3004V23.6002L46.9004 29.1002ZM90.2004 64.5002H3.60039L0.400391 71.5002L3.60039 78.5002H90.2004L93.3004 71.5002L90.2004 64.5002Z" fill="#FF492C"/>
<path d="M19.0899 59.9999C19.0299 59.9999 18.9799 59.9799 18.9399 59.9399C18.8999 59.8932 18.8799 59.8399 18.8799 59.7799V47.6199C18.8799 47.5599 18.8999 47.5066 18.9399 47.4599C18.9799 47.4199 19.0299 47.3999 19.0899 47.3999H21.1999C21.2599 47.3999 21.3099 47.4199 21.3499 47.4599C21.3966 47.5066 21.4199 47.5599 21.4199 47.6199V57.7299C21.4199 57.7899 21.4499 57.8199 21.5099 57.8199H27.3899C27.4499 57.8199 27.5032 57.8399 27.5499 57.8799C27.5899 57.9266 27.6099 57.9799 27.6099 58.0399V59.7799C27.6099 59.8399 27.5899 59.8932 27.5499 59.9399C27.5032 59.9799 27.4499 59.9999 27.3899 59.9999H19.0899ZM37.1999 54.4199C37.2732 54.8732 37.2966 55.3832 37.2699 55.9499C37.2632 56.0966 37.1866 56.1699 37.0399 56.1699H31.4799C31.4065 56.1699 31.3832 56.1999 31.4099 56.2599C31.4432 56.4999 31.5066 56.7399 31.5999 56.9799C31.9132 57.6466 32.5499 57.9799 33.5099 57.9799C34.2765 57.9732 34.8832 57.6632 35.3299 57.0499C35.3766 56.9766 35.4299 56.9399 35.4899 56.9399C35.5299 56.9399 35.5732 56.9632 35.6199 57.0099L36.9099 58.2899C36.9699 58.3499 36.9999 58.4032 36.9999 58.4499C36.9999 58.4766 36.9766 58.5266 36.9299 58.5999C36.5366 59.0866 36.0266 59.4666 35.3999 59.7399C34.7799 60.0066 34.0965 60.1399 33.3499 60.1399C32.3165 60.1399 31.4432 59.9066 30.7299 59.4399C30.0165 58.9732 29.5032 58.3199 29.1899 57.4799C28.9366 56.8799 28.8099 56.0932 28.8099 55.1199C28.8099 54.4599 28.8999 53.8799 29.0799 53.3799C29.3599 52.5266 29.8432 51.8466 30.5299 51.3399C31.2232 50.8399 32.0432 50.5899 32.9899 50.5899C34.1899 50.5899 35.1532 50.9366 35.8799 51.6299C36.6066 52.3232 37.0466 53.2532 37.1999 54.4199ZM33.0099 52.7799C32.2499 52.7799 31.7499 53.1332 31.5099 53.8399C31.4632 53.9999 31.4232 54.1932 31.3899 54.4199C31.3899 54.4799 31.4199 54.5099 31.4799 54.5099H34.5899C34.6632 54.5099 34.6866 54.4799 34.6599 54.4199C34.5999 54.0732 34.5699 53.9066 34.5699 53.9199C34.4632 53.5599 34.2765 53.2799 34.0099 53.0799C33.7365 52.8799 33.4032 52.7799 33.0099 52.7799ZM42.4399 50.5999C43.2199 50.5999 43.9165 50.7366 44.5299 51.0099C45.1432 51.2766 45.6199 51.6466 45.9599 52.1199C46.2999 52.5866 46.4699 53.1066 46.4699 53.6799V59.7799C46.4699 59.8399 46.4499 59.8932 46.4099 59.9399C46.3699 59.9799 46.3199 59.9999 46.2599 59.9999H44.1499C44.0899 59.9999 44.0399 59.9799 43.9999 59.9399C43.9532 59.8932 43.9299 59.8399 43.9299 59.7799V59.1899C43.9299 59.1566 43.9199 59.1332 43.8999 59.1199C43.8732 59.1066 43.8499 59.1166 43.8299 59.1499C43.3232 59.8099 42.5132 60.1399 41.3999 60.1399C40.4599 60.1399 39.7032 59.9132 39.1299 59.4599C38.5499 59.0066 38.2599 58.3332 38.2599 57.4399C38.2599 56.5199 38.5866 55.8032 39.2399 55.2899C39.8866 54.7832 40.8099 54.5299 42.0099 54.5299H43.8399C43.8999 54.5299 43.9299 54.4999 43.9299 54.4399V54.0399C43.9299 53.6466 43.8099 53.3366 43.5699 53.1099C43.3299 52.8899 42.9699 52.7799 42.4899 52.7799C42.1232 52.7799 41.8166 52.8466 41.5699 52.9799C41.3232 53.1132 41.1632 53.2999 41.0899 53.5399C41.0566 53.6732 40.9799 53.7332 40.8599 53.7199L38.6799 53.4299C38.5332 53.4032 38.4665 53.3499 38.4799 53.2699C38.5265 52.7632 38.7266 52.3066 39.0799 51.8999C39.4332 51.4932 39.9032 51.1766 40.4899 50.9499C41.0699 50.7166 41.7199 50.5999 42.4399 50.5999ZM42.0799 58.2499C42.5932 58.2499 43.0299 58.1132 43.3899 57.8399C43.7499 57.5666 43.9299 57.2132 43.9299 56.7799V56.1299C43.9299 56.0699 43.8999 56.0399 43.8399 56.0399H42.5499C42.0099 56.0399 41.5865 56.1432 41.2799 56.3499C40.9732 56.5499 40.8199 56.8366 40.8199 57.2099C40.8199 57.5366 40.9332 57.7899 41.1599 57.9699C41.3866 58.1566 41.6932 58.2499 42.0799 58.2499ZM53.9999 47.6199C53.9999 47.5599 54.0199 47.5066 54.0599 47.4599C54.0999 47.4199 54.1499 47.3999 54.2099 47.3999H56.3199C56.3799 47.3999 56.4299 47.4199 56.4699 47.4599C56.5099 47.5066 56.5299 47.5599 56.5299 47.6199V59.7799C56.5299 59.8399 56.5099 59.8932 56.4699 59.9399C56.4299 59.9799 56.3799 59.9999 56.3199 59.9999H54.2099C54.1499 59.9999 54.0999 59.9799 54.0599 59.9399C54.0199 59.8932 53.9999 59.8399 53.9999 59.7799V59.1899C53.9999 59.1566 53.9866 59.1366 53.9599 59.1299C53.9332 59.1232 53.9099 59.1299 53.8899 59.1499C53.3832 59.8099 52.6932 60.1399 51.8199 60.1399C50.9799 60.1399 50.2566 59.9066 49.6499 59.4399C49.0432 58.9732 48.6066 58.3332 48.3399 57.5199C48.1399 56.8932 48.0399 56.1666 48.0399 55.3399C48.0399 54.4866 48.1466 53.7432 48.3599 53.1099C48.6399 52.3366 49.0765 51.7266 49.6699 51.2799C50.2632 50.8266 50.9965 50.5999 51.8699 50.5999C52.7365 50.5999 53.4099 50.8999 53.8899 51.4999C53.9099 51.5399 53.9332 51.5532 53.9599 51.5399C53.9866 51.5266 53.9999 51.5032 53.9999 51.4699V47.6199ZM53.6199 57.1899C53.8599 56.7499 53.9799 56.1432 53.9799 55.3699C53.9799 54.5699 53.8466 53.9399 53.5799 53.4799C53.3066 53.0132 52.9065 52.7799 52.3799 52.7799C51.8132 52.7799 51.3866 53.0132 51.0999 53.4799C50.7999 53.9532 50.6499 54.5899 50.6499 55.3899C50.6499 56.1099 50.7766 56.7099 51.0299 57.1899C51.3299 57.7099 51.7732 57.9699 52.3599 57.9699C52.8999 57.9699 53.3199 57.7099 53.6199 57.1899ZM66.6299 54.4199C66.7032 54.8732 66.7265 55.3832 66.6999 55.9499C66.6932 56.0966 66.6166 56.1699 66.4699 56.1699H60.9099C60.8365 56.1699 60.8132 56.1999 60.8399 56.2599C60.8732 56.4999 60.9366 56.7399 61.0299 56.9799C61.3432 57.6466 61.9799 57.9799 62.9399 57.9799C63.7065 57.9732 64.3132 57.6632 64.7599 57.0499C64.8066 56.9766 64.8599 56.9399 64.9199 56.9399C64.9599 56.9399 65.0032 56.9632 65.0499 57.0099L66.3399 58.2899C66.3999 58.3499 66.4299 58.4032 66.4299 58.4499C66.4299 58.4766 66.4066 58.5266 66.3599 58.5999C65.9666 59.0866 65.4566 59.4666 64.8299 59.7399C64.2099 60.0066 63.5266 60.1399 62.7799 60.1399C61.7466 60.1399 60.8732 59.9066 60.1599 59.4399C59.4465 58.9732 58.9332 58.3199 58.6199 57.4799C58.3665 56.8799 58.2399 56.0932 58.2399 55.1199C58.2399 54.4599 58.3299 53.8799 58.5099 53.3799C58.7899 52.5266 59.2732 51.8466 59.9599 51.3399C60.6532 50.8399 61.4732 50.5899 62.4199 50.5899C63.6199 50.5899 64.5832 50.9366 65.3099 51.6299C66.0365 52.3232 66.4765 53.2532 66.6299 54.4199ZM62.4399 52.7799C61.6799 52.7799 61.1799 53.1332 60.9399 53.8399C60.8932 53.9999 60.8532 54.1932 60.8199 54.4199C60.8199 54.4799 60.8499 54.5099 60.9099 54.5099H64.0199C64.0932 54.5099 64.1165 54.4799 64.0899 54.4199C64.0299 54.0732 63.9999 53.9066 63.9999 53.9199C63.8932 53.5599 63.7065 53.2799 63.4399 53.0799C63.1665 52.8799 62.8332 52.7799 62.4399 52.7799ZM72.8799 50.6199C73.3132 50.6199 73.6532 50.7032 73.8999 50.8699C73.9999 50.9232 74.0366 51.0132 74.0099 51.1399L73.6299 53.1999C73.6232 53.3399 73.5399 53.3799 73.3799 53.3199C73.1999 53.2599 72.9899 53.2299 72.7499 53.2299C72.6566 53.2299 72.5266 53.2432 72.3599 53.2699C71.9266 53.3032 71.5599 53.4599 71.2599 53.7399C70.9599 54.0266 70.8099 54.4032 70.8099 54.8699V59.7799C70.8099 59.8399 70.7899 59.8932 70.7499 59.9399C70.7032 59.9799 70.6499 59.9999 70.5899 59.9999H68.4899C68.4299 59.9999 68.3766 59.9799 68.3299 59.9399C68.2899 59.8932 68.2699 59.8399 68.2699 59.7799V50.9599C68.2699 50.8999 68.2899 50.8499 68.3299 50.8099C68.3766 50.7699 68.4299 50.7499 68.4899 50.7499H70.5899C70.6499 50.7499 70.7032 50.7699 70.7499 50.8099C70.7899 50.8499 70.8099 50.8999 70.8099 50.9599V51.6499C70.8099 51.6832 70.8199 51.7066 70.8399 51.7199C70.8665 51.7332 70.8866 51.7266 70.8999 51.6999C71.3932 50.9799 72.0532 50.6199 72.8799 50.6199Z" fill="#252530"/>
<path d="M27.0295 68.4799C27.0629 68.4266 27.1095 68.3999 27.1695 68.3999H28.0895C28.1229 68.3999 28.1495 68.4133 28.1695 68.4399C28.1962 68.4599 28.2095 68.4866 28.2095 68.5199V75.2799C28.2095 75.3133 28.1962 75.3399 28.1695 75.3599C28.1495 75.3866 28.1229 75.3999 28.0895 75.3999H27.1695C27.1362 75.3999 27.1062 75.3866 27.0795 75.3599C27.0595 75.3399 27.0495 75.3133 27.0495 75.2799V70.5099C27.0495 70.4899 27.0429 70.4766 27.0295 70.4699C27.0095 70.4633 26.9962 70.4699 26.9895 70.4899L25.7395 72.4099C25.7062 72.4633 25.6595 72.4899 25.5995 72.4899H25.1395C25.0795 72.4899 25.0329 72.4633 24.9995 72.4099L23.7395 70.4999C23.7329 70.4799 23.7229 70.4733 23.7095 70.4799C23.6895 70.4866 23.6795 70.4999 23.6795 70.5199V75.2799C23.6795 75.3133 23.6662 75.3399 23.6395 75.3599C23.6195 75.3866 23.5929 75.3999 23.5595 75.3999H22.6395C22.6062 75.3999 22.5795 75.3866 22.5595 75.3599C22.5329 75.3399 22.5195 75.3133 22.5195 75.2799V68.5199C22.5195 68.4866 22.5329 68.4599 22.5595 68.4399C22.5795 68.4133 22.6062 68.3999 22.6395 68.3999H23.5595C23.6195 68.3999 23.6662 68.4266 23.6995 68.4799L25.3295 70.9499C25.3429 70.9633 25.3562 70.9699 25.3695 70.9699C25.3829 70.9699 25.3929 70.9633 25.3995 70.9499L27.0295 68.4799ZM30.2195 69.5899C30.0129 69.5899 29.8429 69.5233 29.7095 69.3899C29.5762 69.2566 29.5095 69.0866 29.5095 68.8799C29.5095 68.6733 29.5762 68.5033 29.7095 68.3699C29.8429 68.2366 30.0129 68.1699 30.2195 68.1699C30.4262 68.1699 30.5962 68.2366 30.7295 68.3699C30.8629 68.5033 30.9295 68.6733 30.9295 68.8799C30.9295 69.0866 30.8629 69.2566 30.7295 69.3899C30.5962 69.5233 30.4262 69.5899 30.2195 69.5899ZM29.7395 75.3999C29.7062 75.3999 29.6795 75.3866 29.6595 75.3599C29.6329 75.3399 29.6195 75.3133 29.6195 75.2799V70.3999C29.6195 70.3666 29.6329 70.3399 29.6595 70.3199C29.6795 70.2933 29.7062 70.2799 29.7395 70.2799H30.6595C30.6929 70.2799 30.7229 70.2933 30.7495 70.3199C30.7695 70.3399 30.7795 70.3666 30.7795 70.3999V75.2799C30.7795 75.3133 30.7695 75.3399 30.7495 75.3599C30.7229 75.3866 30.6929 75.3999 30.6595 75.3999H29.7395ZM35.2795 68.5199C35.2795 68.4866 35.2929 68.4599 35.3195 68.4399C35.3395 68.4133 35.3662 68.3999 35.3995 68.3999H36.3195C36.3529 68.3999 36.3829 68.4133 36.4095 68.4399C36.4295 68.4599 36.4395 68.4866 36.4395 68.5199V75.2799C36.4395 75.3133 36.4295 75.3399 36.4095 75.3599C36.3829 75.3866 36.3529 75.3999 36.3195 75.3999H35.3995C35.3662 75.3999 35.3395 75.3866 35.3195 75.3599C35.2929 75.3399 35.2795 75.3133 35.2795 75.2799V74.9799C35.2795 74.9599 35.2729 74.9466 35.2595 74.9399C35.2462 74.9333 35.2329 74.9399 35.2195 74.9599C34.9262 75.3066 34.5429 75.4799 34.0695 75.4799C33.5962 75.4799 33.1962 75.3566 32.8695 75.1099C32.5429 74.8633 32.3062 74.5199 32.1595 74.0799C32.0395 73.7066 31.9795 73.2899 31.9795 72.8299C31.9795 72.3566 32.0362 71.9499 32.1495 71.6099C32.2962 71.1699 32.5329 70.8266 32.8595 70.5799C33.1862 70.3333 33.5962 70.2099 34.0895 70.2099C34.5495 70.2099 34.9262 70.3766 35.2195 70.7099C35.2329 70.7233 35.2462 70.7299 35.2595 70.7299C35.2729 70.7233 35.2795 70.7099 35.2795 70.6899V68.5199ZM35.0395 73.9999C35.1929 73.7266 35.2695 73.3399 35.2695 72.8399C35.2695 72.3199 35.1862 71.9233 35.0195 71.6499C34.8395 71.3566 34.5862 71.2099 34.2595 71.2099C33.9195 71.2099 33.6529 71.3499 33.4595 71.6299C33.2595 71.9233 33.1595 72.3299 33.1595 72.8499C33.1595 73.3166 33.2395 73.6999 33.3995 73.9999C33.5862 74.3199 33.8695 74.4799 34.2495 74.4799C34.5895 74.4799 34.8529 74.3199 35.0395 73.9999ZM37.5195 72.8899C37.4862 72.8899 37.4595 72.8799 37.4395 72.8599C37.4129 72.8333 37.3995 72.8033 37.3995 72.7699V72.0099C37.3995 71.9766 37.4129 71.9466 37.4395 71.9199C37.4595 71.8999 37.4862 71.8899 37.5195 71.8899H40.6695C40.7029 71.8899 40.7295 71.8999 40.7495 71.9199C40.7762 71.9466 40.7895 71.9766 40.7895 72.0099V72.7699C40.7895 72.8033 40.7762 72.8333 40.7495 72.8599C40.7295 72.8799 40.7029 72.8899 40.6695 72.8899H37.5195ZM46.3595 68.4799C46.3929 68.4266 46.4395 68.3999 46.4995 68.3999H47.4195C47.4529 68.3999 47.4829 68.4133 47.5095 68.4399C47.5295 68.4599 47.5395 68.4866 47.5395 68.5199V75.2799C47.5395 75.3133 47.5295 75.3399 47.5095 75.3599C47.4829 75.3866 47.4529 75.3999 47.4195 75.3999H46.4995C46.4662 75.3999 46.4395 75.3866 46.4195 75.3599C46.3929 75.3399 46.3795 75.3133 46.3795 75.2799V70.5099C46.3795 70.4899 46.3729 70.4766 46.3595 70.4699C46.3395 70.4633 46.3262 70.4699 46.3195 70.4899L45.0695 72.4099C45.0362 72.4633 44.9895 72.4899 44.9295 72.4899H44.4695C44.4095 72.4899 44.3629 72.4633 44.3295 72.4099L43.0695 70.4999C43.0629 70.4799 43.0529 70.4733 43.0395 70.4799C43.0195 70.4866 43.0095 70.4999 43.0095 70.5199V75.2799C43.0095 75.3133 42.9995 75.3399 42.9795 75.3599C42.9529 75.3866 42.9229 75.3999 42.8895 75.3999H41.9695C41.9362 75.3999 41.9095 75.3866 41.8895 75.3599C41.8629 75.3399 41.8495 75.3133 41.8495 75.2799V68.5199C41.8495 68.4866 41.8629 68.4599 41.8895 68.4399C41.9095 68.4133 41.9362 68.3999 41.9695 68.3999H42.8895C42.9495 68.3999 42.9962 68.4266 43.0295 68.4799L44.6595 70.9499C44.6729 70.9633 44.6862 70.9699 44.6995 70.9699C44.7129 70.9699 44.7229 70.9633 44.7295 70.9499L46.3595 68.4799ZM50.8395 70.2099C51.2595 70.2099 51.6295 70.2833 51.9495 70.4299C52.2695 70.5766 52.5162 70.7766 52.6895 71.0299C52.8629 71.2899 52.9495 71.5833 52.9495 71.9099V75.2799C52.9495 75.3133 52.9395 75.3399 52.9195 75.3599C52.8929 75.3866 52.8629 75.3999 52.8295 75.3999H51.9095C51.8762 75.3999 51.8495 75.3866 51.8295 75.3599C51.8029 75.3399 51.7895 75.3133 51.7895 75.2799V74.9599C51.7895 74.9399 51.7829 74.9266 51.7695 74.9199C51.7562 74.9199 51.7429 74.9266 51.7295 74.9399C51.4029 75.2999 50.9295 75.4799 50.3095 75.4799C49.8095 75.4799 49.3995 75.3533 49.0795 75.0999C48.7529 74.8466 48.5895 74.4699 48.5895 73.9699C48.5895 73.4499 48.7729 73.0433 49.1395 72.7499C49.4995 72.4633 50.0095 72.3199 50.6695 72.3199H51.7395C51.7729 72.3199 51.7895 72.3033 51.7895 72.2699V72.0299C51.7895 71.7699 51.7129 71.5666 51.5595 71.4199C51.4062 71.2799 51.1762 71.2099 50.8695 71.2099C50.6162 71.2099 50.4129 71.2566 50.2595 71.3499C50.0995 71.4366 49.9995 71.5599 49.9595 71.7199C49.9395 71.7999 49.8929 71.8333 49.8195 71.8199L48.8495 71.6999C48.8162 71.6933 48.7895 71.6833 48.7695 71.6699C48.7429 71.6499 48.7329 71.6266 48.7395 71.5999C48.7929 71.1933 49.0129 70.8599 49.3995 70.5999C49.7795 70.3399 50.2595 70.2099 50.8395 70.2099ZM50.5995 74.5599C50.9262 74.5599 51.2062 74.4733 51.4395 74.2999C51.6729 74.1266 51.7895 73.9066 51.7895 73.6399V73.1699C51.7895 73.1366 51.7729 73.1199 51.7395 73.1199H50.8995C50.5462 73.1199 50.2695 73.1866 50.0695 73.3199C49.8629 73.4533 49.7595 73.6433 49.7595 73.8899C49.7595 74.1033 49.8395 74.2666 49.9995 74.3799C50.1529 74.4999 50.3529 74.5599 50.5995 74.5599ZM56.4895 70.2299C56.7029 70.2299 56.8895 70.2733 57.0495 70.3599C57.1029 70.3866 57.1229 70.4366 57.1095 70.5099L56.9395 71.4099C56.9329 71.4899 56.8862 71.5133 56.7995 71.4799C56.6995 71.4466 56.5829 71.4299 56.4495 71.4299C56.3629 71.4299 56.2962 71.4333 56.2495 71.4399C55.9695 71.4533 55.7362 71.5499 55.5495 71.7299C55.3629 71.9166 55.2695 72.1566 55.2695 72.4499V75.2799C55.2695 75.3133 55.2595 75.3399 55.2395 75.3599C55.2129 75.3866 55.1829 75.3999 55.1495 75.3999H54.2295C54.1962 75.3999 54.1695 75.3866 54.1495 75.3599C54.1229 75.3399 54.1095 75.3133 54.1095 75.2799V70.4099C54.1095 70.3766 54.1229 70.3466 54.1495 70.3199C54.1695 70.2999 54.1962 70.2899 54.2295 70.2899H55.1495C55.1829 70.2899 55.2129 70.2999 55.2395 70.3199C55.2595 70.3466 55.2695 70.3766 55.2695 70.4099V70.8599C55.2695 70.8866 55.2762 70.8999 55.2895 70.8999C55.2962 70.9066 55.3062 70.8999 55.3195 70.8799C55.5995 70.4466 55.9895 70.2299 56.4895 70.2299ZM57.9895 75.3999C57.9562 75.3999 57.9295 75.3866 57.9095 75.3599C57.8829 75.3399 57.8695 75.3133 57.8695 75.2799V68.5199C57.8695 68.4866 57.8829 68.4599 57.9095 68.4399C57.9295 68.4133 57.9562 68.3999 57.9895 68.3999H58.9095C58.9429 68.3999 58.9695 68.4133 58.9895 68.4399C59.0162 68.4599 59.0295 68.4866 59.0295 68.5199V72.1299C59.0295 72.1499 59.0362 72.1633 59.0495 72.1699C59.0629 72.1766 59.0762 72.1699 59.0895 72.1499L60.7095 70.3599C60.7562 70.3133 60.8062 70.2899 60.8595 70.2899H61.9195C61.9862 70.2899 62.0195 70.3133 62.0195 70.3599C62.0195 70.3799 62.0095 70.4066 61.9895 70.4399L60.7195 71.9599C60.6995 71.9799 60.6962 72.0033 60.7095 72.0299L62.2095 75.2599C62.2229 75.2866 62.2295 75.3066 62.2295 75.3199C62.2295 75.3733 62.1929 75.3999 62.1195 75.3999H61.1495C61.0829 75.3999 61.0362 75.3699 61.0095 75.3099L59.9195 72.7699C59.9129 72.7566 59.8995 72.7466 59.8795 72.7399C59.8662 72.7399 59.8562 72.7466 59.8495 72.7599L59.0495 73.6799C59.0362 73.7066 59.0295 73.7299 59.0295 73.7499V75.2799C59.0295 75.3133 59.0162 75.3399 58.9895 75.3599C58.9695 75.3866 58.9429 75.3999 58.9095 75.3999H57.9895ZM67.0395 72.2699C67.0662 72.4366 67.0795 72.6233 67.0795 72.8299L67.0695 73.1399C67.0695 73.2199 67.0295 73.2599 66.9495 73.2599H63.8195C63.7862 73.2599 63.7695 73.2766 63.7695 73.3099C63.7895 73.5299 63.8195 73.6799 63.8595 73.7599C64.0195 74.2399 64.4095 74.4833 65.0295 74.4899C65.4829 74.4899 65.8429 74.3033 66.1095 73.9299C66.1362 73.8899 66.1695 73.8699 66.2095 73.8699C66.2362 73.8699 66.2595 73.8799 66.2795 73.8999L66.8995 74.4099C66.9595 74.4566 66.9695 74.5099 66.9295 74.5699C66.7229 74.8633 66.4462 75.0899 66.0995 75.2499C65.7595 75.4099 65.3795 75.4899 64.9595 75.4899C64.4395 75.4899 63.9962 75.3733 63.6295 75.1399C63.2695 74.9066 63.0062 74.5799 62.8395 74.1599C62.6862 73.7999 62.6095 73.2999 62.6095 72.6599C62.6095 72.2733 62.6495 71.9599 62.7295 71.7199C62.8629 71.2533 63.1162 70.8833 63.4895 70.6099C63.8562 70.3433 64.2995 70.2099 64.8195 70.2099C66.1329 70.2099 66.8729 70.8966 67.0395 72.2699ZM64.8195 71.2099C64.5729 71.2099 64.3662 71.2733 64.1995 71.3999C64.0395 71.5199 63.9262 71.6899 63.8595 71.9099C63.8195 72.0233 63.7929 72.1699 63.7795 72.3499C63.7662 72.3833 63.7795 72.3999 63.8195 72.3999H65.8495C65.8829 72.3999 65.8995 72.3833 65.8995 72.3499C65.8862 72.1833 65.8662 72.0566 65.8395 71.9699C65.7795 71.7299 65.6629 71.5433 65.4895 71.4099C65.3095 71.2766 65.0862 71.2099 64.8195 71.2099ZM70.7495 71.1099C70.7495 71.1433 70.7395 71.1699 70.7195 71.1899C70.6929 71.2166 70.6629 71.2299 70.6295 71.2299H69.6095C69.5762 71.2299 69.5595 71.2466 69.5595 71.2799V73.6899C69.5595 73.9433 69.6162 74.1266 69.7295 74.2399C69.8362 74.3533 70.0095 74.4099 70.2495 74.4099H70.5495C70.5829 74.4099 70.6095 74.4199 70.6295 74.4399C70.6562 74.4666 70.6695 74.4966 70.6695 74.5299V75.2799C70.6695 75.3533 70.6295 75.3966 70.5495 75.4099L70.0295 75.4199C69.5029 75.4199 69.1095 75.3299 68.8495 75.1499C68.5895 74.9699 68.4562 74.6299 68.4495 74.1299V71.2799C68.4495 71.2466 68.4329 71.2299 68.3995 71.2299H67.8295C67.7962 71.2299 67.7695 71.2166 67.7495 71.1899C67.7229 71.1699 67.7095 71.1433 67.7095 71.1099V70.4099C67.7095 70.3766 67.7229 70.3466 67.7495 70.3199C67.7695 70.2999 67.7962 70.2899 67.8295 70.2899H68.3995C68.4329 70.2899 68.4495 70.2733 68.4495 70.2399V69.0699C68.4495 69.0366 68.4629 69.0066 68.4895 68.9799C68.5095 68.9599 68.5362 68.9499 68.5695 68.9499H69.4395C69.4729 68.9499 69.4995 68.9599 69.5195 68.9799C69.5462 69.0066 69.5595 69.0366 69.5595 69.0699V70.2399C69.5595 70.2733 69.5762 70.2899 69.6095 70.2899H70.6295C70.6629 70.2899 70.6929 70.2999 70.7195 70.3199C70.7395 70.3466 70.7495 70.3766 70.7495 70.4099V71.1099Z" fill="white"/>
<path d="M31.1602 89.5C31.0869 89.5 31.0402 89.4667 31.0202 89.4L29.2502 82.63L29.2402 82.59C29.2402 82.53 29.2769 82.5 29.3502 82.5H30.5902C30.6569 82.5 30.7002 82.5333 30.7202 82.6L31.6702 86.67C31.6769 86.6967 31.6869 86.71 31.7002 86.71C31.7136 86.71 31.7236 86.6967 31.7302 86.67L32.6502 82.61C32.6702 82.5367 32.7136 82.5 32.7802 82.5H33.9902C34.0636 82.5 34.1102 82.5333 34.1302 82.6L35.1302 86.67C35.1369 86.69 35.1469 86.7033 35.1602 86.71C35.1736 86.71 35.1836 86.6967 35.1902 86.67L36.1102 82.61C36.1302 82.5367 36.1736 82.5 36.2402 82.5H37.4202C37.5136 82.5 37.5502 82.5433 37.5302 82.63L35.8902 89.4C35.8702 89.4667 35.8236 89.5 35.7502 89.5H34.5602C34.4936 89.5 34.4502 89.4667 34.4302 89.4L33.4102 85.07C33.4036 85.0433 33.3936 85.03 33.3802 85.03C33.3669 85.03 33.3569 85.0433 33.3502 85.07L32.4002 89.39C32.3869 89.4633 32.3436 89.5 32.2702 89.5H31.1602ZM38.5002 89.5C38.4669 89.5 38.4369 89.4867 38.4102 89.46C38.3902 89.44 38.3802 89.4133 38.3802 89.38V82.62C38.3802 82.5867 38.3902 82.56 38.4102 82.54C38.4369 82.5133 38.4669 82.5 38.5002 82.5H39.6702C39.7036 82.5 39.7302 82.5133 39.7502 82.54C39.7769 82.56 39.7902 82.5867 39.7902 82.62V89.38C39.7902 89.4133 39.7769 89.44 39.7502 89.46C39.7302 89.4867 39.7036 89.5 39.6702 89.5H38.5002ZM45.0302 82.62C45.0302 82.5867 45.0402 82.56 45.0602 82.54C45.0869 82.5133 45.1169 82.5 45.1502 82.5H46.3202C46.3536 82.5 46.3802 82.5133 46.4002 82.54C46.4269 82.56 46.4402 82.5867 46.4402 82.62V89.38C46.4402 89.4133 46.4269 89.44 46.4002 89.46C46.3802 89.4867 46.3536 89.5 46.3202 89.5H45.1902C45.1236 89.5 45.0769 89.4733 45.0502 89.42L42.4602 85.14C42.4469 85.12 42.4336 85.1133 42.4202 85.12C42.4069 85.12 42.4002 85.1333 42.4002 85.16L42.4202 89.38C42.4202 89.4133 42.4069 89.44 42.3802 89.46C42.3602 89.4867 42.3336 89.5 42.3002 89.5H41.1302C41.0969 89.5 41.0669 89.4867 41.0402 89.46C41.0202 89.44 41.0102 89.4133 41.0102 89.38V82.62C41.0102 82.5867 41.0202 82.56 41.0402 82.54C41.0669 82.5133 41.0969 82.5 41.1302 82.5H42.2602C42.3269 82.5 42.3736 82.5267 42.4002 82.58L44.9802 86.84C44.9936 86.86 45.0069 86.8667 45.0202 86.86C45.0336 86.86 45.0402 86.8467 45.0402 86.82L45.0302 82.62ZM52.4902 82.5C52.5236 82.5 52.5502 82.5133 52.5702 82.54C52.5969 82.56 52.6102 82.5867 52.6102 82.62V83.6C52.6102 83.6333 52.5969 83.66 52.5702 83.68C52.5502 83.7067 52.5236 83.72 52.4902 83.72H50.7002C50.6669 83.72 50.6502 83.7367 50.6502 83.77V89.38C50.6502 89.4133 50.6369 89.44 50.6102 89.46C50.5902 89.4867 50.5636 89.5 50.5302 89.5H49.3602C49.3269 89.5 49.2969 89.4867 49.2702 89.46C49.2502 89.44 49.2402 89.4133 49.2402 89.38V83.77C49.2402 83.7367 49.2236 83.72 49.1902 83.72H47.4502C47.4169 83.72 47.3869 83.7067 47.3602 83.68C47.3402 83.66 47.3302 83.6333 47.3302 83.6V82.62C47.3302 82.5867 47.3402 82.56 47.3602 82.54C47.3869 82.5133 47.4169 82.5 47.4502 82.5H52.4902ZM58.3702 83.59C58.3702 83.6233 58.3602 83.65 58.3402 83.67C58.3136 83.6967 58.2836 83.71 58.2502 83.71H54.9702C54.9369 83.71 54.9202 83.7267 54.9202 83.76V85.31C54.9202 85.3433 54.9369 85.36 54.9702 85.36H57.1202C57.1536 85.36 57.1802 85.37 57.2002 85.39C57.2269 85.4167 57.2402 85.4467 57.2402 85.48V86.45C57.2402 86.4833 57.2269 86.5133 57.2002 86.54C57.1802 86.56 57.1536 86.57 57.1202 86.57H54.9702C54.9369 86.57 54.9202 86.5867 54.9202 86.62V88.24C54.9202 88.2733 54.9369 88.29 54.9702 88.29H58.2502C58.2836 88.29 58.3136 88.3 58.3402 88.32C58.3602 88.3467 58.3702 88.3767 58.3702 88.41V89.38C58.3702 89.4133 58.3602 89.44 58.3402 89.46C58.3136 89.4867 58.2836 89.5 58.2502 89.5H53.6302C53.5969 89.5 53.5669 89.4867 53.5402 89.46C53.5202 89.44 53.5102 89.4133 53.5102 89.38V82.62C53.5102 82.5867 53.5202 82.56 53.5402 82.54C53.5669 82.5133 53.5969 82.5 53.6302 82.5H58.2502C58.2836 82.5 58.3136 82.5133 58.3402 82.54C58.3602 82.56 58.3702 82.5867 58.3702 82.62V83.59ZM63.1902 89.5C63.1236 89.5 63.0769 89.47 63.0502 89.41L61.8002 86.64C61.7869 86.6133 61.7669 86.6 61.7402 86.6H60.8102C60.7769 86.6 60.7602 86.6167 60.7602 86.65V89.38C60.7602 89.4133 60.7469 89.44 60.7202 89.46C60.7002 89.4867 60.6736 89.5 60.6402 89.5H59.4702C59.4369 89.5 59.4069 89.4867 59.3802 89.46C59.3602 89.44 59.3502 89.4133 59.3502 89.38V82.62C59.3502 82.5867 59.3602 82.56 59.3802 82.54C59.4069 82.5133 59.4369 82.5 59.4702 82.5H62.3302C62.7569 82.5 63.1302 82.5867 63.4502 82.76C63.7769 82.9333 64.0269 83.18 64.2002 83.5C64.3802 83.82 64.4702 84.19 64.4702 84.61C64.4702 85.0633 64.3569 85.45 64.1302 85.77C63.9036 86.0967 63.5869 86.3267 63.1802 86.46C63.1469 86.4733 63.1369 86.4967 63.1502 86.53L64.5102 89.36C64.5236 89.3867 64.5302 89.4067 64.5302 89.42C64.5302 89.4733 64.4936 89.5 64.4202 89.5H63.1902ZM60.8102 83.71C60.7769 83.71 60.7602 83.7267 60.7602 83.76V85.47C60.7602 85.5033 60.7769 85.52 60.8102 85.52H62.1202C62.4002 85.52 62.6269 85.4367 62.8002 85.27C62.9802 85.1033 63.0702 84.8867 63.0702 84.62C63.0702 84.3533 62.9802 84.1333 62.8002 83.96C62.6269 83.7933 62.4002 83.71 62.1202 83.71H60.8102ZM38.0602 97.63C38.0469 97.6433 38.0436 97.6567 38.0502 97.67C38.0569 97.6833 38.0702 97.69 38.0902 97.69H40.8002C40.8336 97.69 40.8636 97.7 40.8902 97.72C40.9102 97.7467 40.9202 97.7767 40.9202 97.81V98.78C40.9202 98.8133 40.9102 98.84 40.8902 98.86C40.8636 98.8867 40.8336 98.9 40.8002 98.9H36.3002C36.2669 98.9 36.2369 98.8867 36.2102 98.86C36.1902 98.84 36.1802 98.8133 36.1802 98.78V97.86C36.1802 97.8 36.2002 97.75 36.2402 97.71C36.5669 97.39 36.9002 97.0433 37.2402 96.67C37.5802 96.29 37.7936 96.0533 37.8802 95.96C38.0669 95.74 38.2569 95.53 38.4502 95.33C39.0569 94.6567 39.3602 94.1567 39.3602 93.83C39.3602 93.5967 39.2769 93.4033 39.1102 93.25C38.9436 93.1033 38.7269 93.03 38.4602 93.03C38.1936 93.03 37.9769 93.1033 37.8102 93.25C37.6436 93.4033 37.5602 93.6033 37.5602 93.85V94.1C37.5602 94.1333 37.5469 94.1633 37.5202 94.19C37.5002 94.21 37.4736 94.22 37.4402 94.22H36.2602C36.2269 94.22 36.2002 94.21 36.1802 94.19C36.1536 94.1633 36.1402 94.1333 36.1402 94.1V93.63C36.1602 93.27 36.2736 92.95 36.4802 92.67C36.6869 92.3967 36.9602 92.1867 37.3002 92.04C37.6469 91.8933 38.0336 91.82 38.4602 91.82C38.9336 91.82 39.3469 91.9067 39.7002 92.08C40.0469 92.26 40.3169 92.5 40.5102 92.8C40.6969 93.1 40.7902 93.4333 40.7902 93.8C40.7902 94.08 40.7202 94.3667 40.5802 94.66C40.4402 94.9533 40.2302 95.27 39.9502 95.61C39.7436 95.87 39.5202 96.1267 39.2802 96.38C39.0402 96.6333 38.6836 97 38.2102 97.48L38.0602 97.63ZM44.1702 99.01C43.4369 99.01 42.8569 98.8033 42.4302 98.39C42.0036 97.9833 41.7902 97.4267 41.7902 96.72V94.08C41.7902 93.3867 42.0036 92.8367 42.4302 92.43C42.8569 92.0233 43.4369 91.82 44.1702 91.82C44.9036 91.82 45.4869 92.0233 45.9202 92.43C46.3469 92.8367 46.5602 93.3867 46.5602 94.08V96.72C46.5602 97.4267 46.3469 97.9833 45.9202 98.39C45.4869 98.8033 44.9036 99.01 44.1702 99.01ZM44.1702 97.8C44.4702 97.8 44.7102 97.7067 44.8902 97.52C45.0636 97.34 45.1502 97.0967 45.1502 96.79V94.04C45.1502 93.7333 45.0636 93.49 44.8902 93.31C44.7102 93.1233 44.4702 93.03 44.1702 93.03C43.8769 93.03 43.6436 93.1233 43.4702 93.31C43.2902 93.49 43.2002 93.7333 43.2002 94.04V96.79C43.2002 97.0967 43.2902 97.34 43.4702 97.52C43.6436 97.7067 43.8769 97.8 44.1702 97.8ZM49.3602 97.63C49.3469 97.6433 49.3436 97.6567 49.3502 97.67C49.3569 97.6833 49.3702 97.69 49.3902 97.69H52.1002C52.1336 97.69 52.1636 97.7 52.1902 97.72C52.2102 97.7467 52.2202 97.7767 52.2202 97.81V98.78C52.2202 98.8133 52.2102 98.84 52.1902 98.86C52.1636 98.8867 52.1336 98.9 52.1002 98.9H47.6002C47.5669 98.9 47.5402 98.8867 47.5202 98.86C47.4936 98.84 47.4802 98.8133 47.4802 98.78V97.86C47.4802 97.8 47.5002 97.75 47.5402 97.71C47.8669 97.39 48.2002 97.0433 48.5402 96.67C48.8802 96.29 49.0936 96.0533 49.1802 95.96C49.3669 95.74 49.5569 95.53 49.7502 95.33C50.3569 94.6567 50.6602 94.1567 50.6602 93.83C50.6602 93.5967 50.5769 93.4033 50.4102 93.25C50.2436 93.1033 50.0269 93.03 49.7602 93.03C49.4936 93.03 49.2769 93.1033 49.1102 93.25C48.9436 93.4033 48.8602 93.6033 48.8602 93.85V94.1C48.8602 94.1333 48.8502 94.1633 48.8302 94.19C48.8036 94.21 48.7736 94.22 48.7402 94.22H47.5602C47.5269 94.22 47.5002 94.21 47.4802 94.19C47.4536 94.1633 47.4402 94.1333 47.4402 94.1V93.63C47.4602 93.27 47.5736 92.95 47.7802 92.67C47.9869 92.3967 48.2636 92.1867 48.6102 92.04C48.9502 91.8933 49.3336 91.82 49.7602 91.82C50.2336 91.82 50.6469 91.9067 51.0002 92.08C51.3469 92.26 51.6169 92.5 51.8102 92.8C51.9969 93.1 52.0902 93.4333 52.0902 93.8C52.0902 94.08 52.0202 94.3667 51.8802 94.66C51.7402 94.9533 51.5302 95.27 51.2502 95.61C51.0436 95.87 50.8202 96.1267 50.5802 96.38C50.3402 96.6333 49.9836 97 49.5102 97.48L49.3602 97.63ZM57.2602 95.56C57.3936 95.8667 57.4602 96.22 57.4602 96.62C57.4602 96.98 57.4002 97.3133 57.2802 97.62C57.1202 98.0467 56.8536 98.38 56.4802 98.62C56.1002 98.86 55.6536 98.98 55.1402 98.98C54.6336 98.98 54.1902 98.8533 53.8102 98.6C53.4236 98.3467 53.1469 98.0033 52.9802 97.57C52.8869 97.31 52.8336 97.03 52.8202 96.73C52.8202 96.65 52.8602 96.61 52.9402 96.61H54.1202C54.2002 96.61 54.2402 96.65 54.2402 96.73C54.2669 96.95 54.3036 97.1133 54.3502 97.22C54.4102 97.3933 54.5102 97.5267 54.6502 97.62C54.7836 97.72 54.9436 97.77 55.1302 97.77C55.5036 97.77 55.7602 97.6067 55.9002 97.28C55.9936 97.08 56.0402 96.8467 56.0402 96.58C56.0402 96.2667 55.9902 96.01 55.8902 95.81C55.7369 95.4967 55.4802 95.34 55.1202 95.34C55.0469 95.34 54.9702 95.36 54.8902 95.4C54.8102 95.4467 54.7136 95.51 54.6002 95.59C54.5736 95.61 54.5469 95.62 54.5202 95.62C54.4802 95.62 54.4502 95.6 54.4302 95.56L53.8402 94.73C53.8269 94.71 53.8202 94.6867 53.8202 94.66C53.8202 94.62 53.8336 94.5867 53.8602 94.56L55.4502 93.17C55.4636 93.1567 55.4702 93.1433 55.4702 93.13C55.4636 93.1167 55.4502 93.11 55.4302 93.11H53.0802C53.0469 93.11 53.0202 93.0967 53.0002 93.07C52.9736 93.05 52.9602 93.0233 52.9602 92.99V92.02C52.9602 91.9867 52.9736 91.96 53.0002 91.94C53.0202 91.9133 53.0469 91.9 53.0802 91.9H57.2502C57.2836 91.9 57.3136 91.9133 57.3402 91.94C57.3602 91.96 57.3702 91.9867 57.3702 92.02V93.12C57.3702 93.1733 57.3469 93.2233 57.3002 93.27L55.9902 94.47C55.9769 94.4833 55.9736 94.4967 55.9802 94.51C55.9802 94.5233 55.9936 94.53 56.0202 94.53C56.6002 94.6433 57.0136 94.9867 57.2602 95.56Z" fill="#252530"/>
</svg>
