<svg width="94" height="122" viewBox="0 0 94 122" fill="none" xmlns="http://www.w3.org/2000/svg">
<path d="M8.09961 89.8998L47.5996 110L85.5996 89.8998V11.2998H8.09961V89.8998Z" fill="white"/>
<path d="M86.3998 11.6001L7.2998 91.3001L48.2998 111.6L86.3998 92.1001V11.6001Z" fill="#F2F3F2"/>
<path d="M5.5 37.5002V91.6002L6.9 92.3002L46.4 112.4L47.6 113L48.8 112.4L86.9 92.3002L88.3 91.6002V8.7002H5.5V37.5002ZM8.1 90.1002V11.3002H85.7V90.1002L47.6 110.2L8.1 90.1002Z" fill="#DCDEDC"/>
<path d="M46.8998 12.6002C47.2998 12.6002 47.6998 12.6002 48.0998 12.7002L46.8998 15.0002C45.0998 14.9002 43.4998 16.3002 43.3998 18.1002C43.2998 19.9002 44.6998 21.5002 46.4998 21.6002H46.8998C47.6998 21.6002 48.4998 21.3002 49.0998 20.8002L50.3998 23.0002C49.3998 23.7002 48.1998 24.1002 46.8998 24.1002C43.6998 24.2002 40.9998 21.8002 40.8998 18.6002C40.7998 15.4002 43.1998 12.7002 46.3998 12.6002H46.8998ZM50.9998 17.5002L52.4998 20.0002L50.9998 22.4002L49.5998 20.0002H46.6998L48.1998 17.5002H50.9998ZM48.5998 16.6002C48.5998 16.2002 48.6998 15.8002 48.8998 15.5002C49.0998 15.2002 49.4998 14.9002 49.7998 14.7002L49.9998 14.6002C50.3998 14.4002 50.4998 14.3002 50.4998 14.1002C50.4998 13.9002 50.1998 13.7002 49.9998 13.7002C49.5998 13.7002 49.2998 13.9002 49.0998 14.3002L48.5998 13.8002C48.6998 13.6002 48.8998 13.4002 49.0998 13.2002C49.3998 13.0002 49.6998 13.0002 49.9998 13.0002C50.2998 13.0002 50.6998 13.1002 50.8998 13.3002C51.0998 13.5002 51.2998 13.8002 51.2998 14.1002C51.2998 14.6002 50.9998 15.0002 50.3998 15.2002L50.0998 15.4002C49.7998 15.6002 49.5998 15.7002 49.4998 16.0002H51.2998V16.7002L48.5998 16.6002ZM46.8998 29.1002L56.3998 23.7002V8.7002H37.2998V23.6002L46.8998 29.1002Z" fill="#FF492C"/>
<path d="M90.2004 64.5H3.60039L0.400391 71.5L3.60039 78.5H90.2004L93.3004 71.5L90.2004 64.5Z" fill="#23CCA2"/>
<path d="M18.6901 60.0001C18.6101 60.0001 18.5534 59.9634 18.5201 59.8901L17.0201 56.5701C17.0067 56.5368 16.9834 56.5201 16.9501 56.5201H15.8301C15.7901 56.5201 15.7701 56.5401 15.7701 56.5801V59.8601C15.7701 59.9001 15.7567 59.9334 15.7301 59.9601C15.7034 59.9868 15.6701 60.0001 15.6301 60.0001H14.2301C14.1901 60.0001 14.1534 59.9868 14.1201 59.9601C14.0934 59.9334 14.0801 59.9001 14.0801 59.8601V51.7401C14.0801 51.7001 14.0934 51.6668 14.1201 51.6401C14.1534 51.6134 14.1901 51.6001 14.2301 51.6001H17.6601C18.1734 51.6001 18.6234 51.7034 19.0101 51.9101C19.3967 52.1168 19.6967 52.4134 19.9101 52.8001C20.1234 53.1868 20.2301 53.6301 20.2301 54.1301C20.2301 54.6768 20.0934 55.1434 19.8201 55.5301C19.5467 55.9168 19.1667 56.1901 18.6801 56.3501C18.6401 56.3701 18.6267 56.4001 18.6401 56.4401L20.2701 59.8301C20.2901 59.8634 20.3001 59.8868 20.3001 59.9001C20.3001 59.9668 20.2567 60.0001 20.1701 60.0001H18.6901ZM15.8301 53.0501C15.7901 53.0501 15.7701 53.0701 15.7701 53.1101V55.1601C15.7701 55.2001 15.7901 55.2201 15.8301 55.2201H17.4101C17.7434 55.2201 18.0167 55.1201 18.2301 54.9201C18.4434 54.7201 18.5501 54.4601 18.5501 54.1401C18.5501 53.8201 18.4434 53.5601 18.2301 53.3601C18.0167 53.1534 17.7434 53.0501 17.4101 53.0501H15.8301ZM26.7201 56.2801C26.7667 56.5868 26.7834 56.9268 26.7701 57.3001C26.7567 57.3934 26.7034 57.4401 26.6101 57.4401H22.9001C22.8534 57.4401 22.8367 57.4601 22.8501 57.5001C22.8767 57.6601 22.9234 57.8201 22.9901 57.9801C23.1967 58.4334 23.6201 58.6601 24.2601 58.6601C24.7734 58.6468 25.1767 58.4368 25.4701 58.0301C25.5034 57.9834 25.5401 57.9601 25.5801 57.9601C25.6001 57.9601 25.6267 57.9768 25.6601 58.0101L26.5301 58.8601C26.5701 58.9001 26.5901 58.9368 26.5901 58.9701C26.5901 58.9834 26.5734 59.0134 26.5401 59.0601C26.2734 59.3934 25.9334 59.6501 25.5201 59.8301C25.1001 60.0101 24.6434 60.1001 24.1501 60.1001C23.4634 60.1001 22.8801 59.9434 22.4001 59.6301C21.9267 59.3168 21.5867 58.8801 21.3801 58.3201C21.2134 57.9201 21.1301 57.3968 21.1301 56.7501C21.1301 56.3101 21.1901 55.9201 21.3101 55.5801C21.4901 55.0134 21.8101 54.5634 22.2701 54.2301C22.7301 53.8901 23.2767 53.7201 23.9101 53.7201C24.7101 53.7201 25.3534 53.9534 25.8401 54.4201C26.3201 54.8868 26.6134 55.5068 26.7201 56.2801ZM23.9201 55.1901C23.4201 55.1901 23.0901 55.4268 22.9301 55.9001C22.8967 56.0001 22.8667 56.1268 22.8401 56.2801C22.8401 56.3201 22.8601 56.3401 22.9001 56.3401H24.9801C25.0267 56.3401 25.0434 56.3201 25.0301 56.2801C24.9901 56.0468 24.9701 55.9334 24.9701 55.9401C24.8967 55.7001 24.7701 55.5168 24.5901 55.3901C24.4101 55.2568 24.1867 55.1901 23.9201 55.1901ZM27.9501 60.0001C27.9101 60.0001 27.8767 59.9868 27.8501 59.9601C27.8234 59.9334 27.8101 59.9001 27.8101 59.8601V51.7401C27.8101 51.7001 27.8234 51.6668 27.8501 51.6401C27.8767 51.6134 27.9101 51.6001 27.9501 51.6001H29.3601C29.4001 51.6001 29.4334 51.6134 29.4601 51.6401C29.4867 51.6668 29.5001 51.7001 29.5001 51.7401V59.8601C29.5001 59.9001 29.4867 59.9334 29.4601 59.9601C29.4334 59.9868 29.4001 60.0001 29.3601 60.0001H27.9501ZM33.2001 53.7401C33.7201 53.7401 34.1834 53.8301 34.5901 54.0101C34.9967 54.1901 35.3134 54.4334 35.5401 54.7401C35.7734 55.0534 35.8901 55.4034 35.8901 55.7901V59.8601C35.8901 59.9001 35.8734 59.9334 35.8401 59.9601C35.8134 59.9868 35.7801 60.0001 35.7401 60.0001H34.3401C34.3001 60.0001 34.2667 59.9868 34.2401 59.9601C34.2067 59.9334 34.1901 59.9001 34.1901 59.8601V59.4601C34.1901 59.4334 34.1834 59.4168 34.1701 59.4101C34.1567 59.4034 34.1401 59.4134 34.1201 59.4401C33.7867 59.8801 33.2467 60.1001 32.5001 60.1001C31.8801 60.1001 31.3767 59.9468 30.9901 59.6401C30.6034 59.3334 30.4101 58.8868 30.4101 58.3001C30.4101 57.6801 30.6267 57.2001 31.0601 56.8601C31.4934 56.5201 32.1101 56.3501 32.9101 56.3501H34.1301C34.1701 56.3501 34.1901 56.3301 34.1901 56.2901V56.0301C34.1901 55.7634 34.1101 55.5568 33.9501 55.4101C33.7901 55.2634 33.5501 55.1901 33.2301 55.1901C32.9834 55.1901 32.7801 55.2334 32.6201 55.3201C32.4534 55.4068 32.3467 55.5301 32.3001 55.6901C32.2734 55.7768 32.2201 55.8168 32.1401 55.8101L30.6901 55.6201C30.5967 55.6068 30.5534 55.5701 30.5601 55.5101C30.5934 55.1768 30.7267 54.8734 30.9601 54.6001C31.1934 54.3268 31.5067 54.1134 31.9001 53.9601C32.2867 53.8134 32.7201 53.7401 33.2001 53.7401ZM32.9601 58.8401C33.3001 58.8401 33.5901 58.7468 33.8301 58.5601C34.0701 58.3734 34.1901 58.1368 34.1901 57.8501V57.4201C34.1901 57.3801 34.1701 57.3601 34.1301 57.3601H33.2701C32.9101 57.3601 32.6267 57.4268 32.4201 57.5601C32.2201 57.7001 32.1201 57.8934 32.1201 58.1401C32.1201 58.3534 32.1967 58.5234 32.3501 58.6501C32.4967 58.7768 32.7001 58.8401 32.9601 58.8401ZM40.4801 55.0401C40.4801 55.0801 40.4667 55.1168 40.4401 55.1501C40.4134 55.1768 40.3801 55.1901 40.3401 55.1901H39.1901C39.1501 55.1901 39.1301 55.2101 39.1301 55.2501V57.7901C39.1301 58.0568 39.1834 58.2534 39.2901 58.3801C39.3967 58.5068 39.5701 58.5701 39.8101 58.5701H40.2101C40.2501 58.5701 40.2834 58.5834 40.3101 58.6101C40.3367 58.6434 40.3501 58.6801 40.3501 58.7201V59.8601C40.3501 59.9468 40.3034 59.9968 40.2101 60.0101C39.8701 60.0301 39.6301 60.0401 39.4901 60.0401C38.8234 60.0401 38.3267 59.9301 38.0001 59.7101C37.6734 59.4901 37.5034 59.0734 37.4901 58.4601V55.2501C37.4901 55.2101 37.4701 55.1901 37.4301 55.1901H36.7501C36.7101 55.1901 36.6767 55.1768 36.6501 55.1501C36.6234 55.1168 36.6101 55.0801 36.6101 55.0401V53.9801C36.6101 53.9401 36.6234 53.9034 36.6501 53.8701C36.6767 53.8434 36.7101 53.8301 36.7501 53.8301H37.4301C37.4701 53.8301 37.4901 53.8101 37.4901 53.7701V52.3401C37.4901 52.3001 37.5067 52.2668 37.5401 52.2401C37.5667 52.2134 37.6001 52.2001 37.6401 52.2001H38.9801C39.0201 52.2001 39.0534 52.2134 39.0801 52.2401C39.1134 52.2668 39.1301 52.3001 39.1301 52.3401V53.7701C39.1301 53.8101 39.1501 53.8301 39.1901 53.8301H40.3401C40.3801 53.8301 40.4134 53.8434 40.4401 53.8701C40.4667 53.9034 40.4801 53.9401 40.4801 53.9801V55.0401ZM42.4101 53.1401C42.1434 53.1401 41.9201 53.0501 41.7401 52.8701C41.5601 52.6901 41.4701 52.4634 41.4701 52.1901C41.4701 51.9101 41.5567 51.6801 41.7301 51.5001C41.9034 51.3268 42.1301 51.2401 42.4101 51.2401C42.6901 51.2401 42.9201 51.3268 43.1001 51.5001C43.2734 51.6801 43.3601 51.9101 43.3601 52.1901C43.3601 52.4634 43.2701 52.6901 43.0901 52.8701C42.9101 53.0501 42.6834 53.1401 42.4101 53.1401ZM41.6901 60.0001C41.6501 60.0001 41.6167 59.9868 41.5901 59.9601C41.5634 59.9334 41.5501 59.9001 41.5501 59.8601V53.9601C41.5501 53.9201 41.5634 53.8868 41.5901 53.8601C41.6167 53.8334 41.6501 53.8201 41.6901 53.8201H43.1001C43.1401 53.8201 43.1734 53.8334 43.2001 53.8601C43.2267 53.8868 43.2401 53.9201 43.2401 53.9601V59.8601C43.2401 59.9001 43.2267 59.9334 43.2001 59.9601C43.1734 59.9868 43.1401 60.0001 43.1001 60.0001H41.6901ZM47.2901 60.1001C46.6167 60.1001 46.0401 59.9234 45.5601 59.5701C45.0801 59.2168 44.7501 58.7368 44.5701 58.1301C44.4634 57.7501 44.4101 57.3401 44.4101 56.9001C44.4101 56.4334 44.4634 56.0101 44.5701 55.6301C44.7567 55.0368 45.0901 54.5734 45.5701 54.2401C46.0501 53.9068 46.6267 53.7401 47.3001 53.7401C47.9534 53.7401 48.5134 53.9034 48.9801 54.2301C49.4401 54.5634 49.7667 55.0268 49.9601 55.6201C50.0867 56.0201 50.1501 56.4401 50.1501 56.8801C50.1501 57.3134 50.0967 57.7168 49.9901 58.0901C49.8101 58.7168 49.4834 59.2068 49.0101 59.5601C48.5301 59.9201 47.9567 60.1001 47.2901 60.1001ZM47.2901 58.6401C47.5501 58.6401 47.7734 58.5601 47.9601 58.4001C48.1401 58.2401 48.2701 58.0201 48.3501 57.7401C48.4167 57.4868 48.4501 57.2068 48.4501 56.9001C48.4501 56.5668 48.4167 56.2834 48.3501 56.0501C48.2634 55.7768 48.1301 55.5668 47.9501 55.4201C47.7634 55.2668 47.5367 55.1901 47.2701 55.1901C47.0034 55.1901 46.7801 55.2668 46.6001 55.4201C46.4201 55.5668 46.2901 55.7768 46.2101 56.0501C46.1434 56.2434 46.1101 56.5268 46.1101 56.9001C46.1101 57.2601 46.1367 57.5401 46.1901 57.7401C46.2701 58.0201 46.4067 58.2401 46.6001 58.4001C46.7867 58.5601 47.0167 58.6401 47.2901 58.6401ZM54.4601 53.7401C55.1001 53.7401 55.6167 53.9334 56.0101 54.3201C56.4034 54.7134 56.6001 55.2468 56.6001 55.9201V59.8601C56.6001 59.9001 56.5867 59.9334 56.5601 59.9601C56.5267 59.9868 56.4901 60.0001 56.4501 60.0001H55.0501C55.0101 60.0001 54.9767 59.9868 54.9501 59.9601C54.9234 59.9334 54.9101 59.9001 54.9101 59.8601V56.2701C54.9101 55.9501 54.8201 55.6901 54.6401 55.4901C54.4601 55.2901 54.2201 55.1901 53.9201 55.1901C53.6267 55.1901 53.3901 55.2901 53.2101 55.4901C53.0301 55.6901 52.9401 55.9501 52.9401 56.2701V59.8601C52.9401 59.9001 52.9267 59.9334 52.9001 59.9601C52.8667 59.9868 52.8301 60.0001 52.7901 60.0001H51.3901C51.3501 60.0001 51.3167 59.9868 51.2901 59.9601C51.2634 59.9334 51.2501 59.9001 51.2501 59.8601V53.9801C51.2501 53.9401 51.2634 53.9034 51.2901 53.8701C51.3167 53.8434 51.3501 53.8301 51.3901 53.8301H52.7901C52.8301 53.8301 52.8667 53.8434 52.9001 53.8701C52.9267 53.9034 52.9401 53.9401 52.9401 53.9801V54.4001C52.9401 54.4201 52.9467 54.4334 52.9601 54.4401C52.9801 54.4534 52.9934 54.4501 53.0001 54.4301C53.3267 53.9701 53.8134 53.7401 54.4601 53.7401ZM60.2701 60.0801C59.7367 60.0801 59.2701 60.0068 58.8701 59.8601C58.4701 59.7068 58.1601 59.4934 57.9401 59.2201C57.7201 58.9468 57.6101 58.6401 57.6101 58.3001V58.1801C57.6101 58.1401 57.6234 58.1034 57.6501 58.0701C57.6767 58.0434 57.7101 58.0301 57.7501 58.0301H59.0801C59.1201 58.0301 59.1534 58.0434 59.1801 58.0701C59.2134 58.1034 59.2301 58.1401 59.2301 58.1801V58.1901C59.2301 58.3634 59.3267 58.5134 59.5201 58.6401C59.7134 58.7601 59.9601 58.8201 60.2601 58.8201C60.5334 58.8201 60.7534 58.7668 60.9201 58.6601C61.0867 58.5534 61.1701 58.4201 61.1701 58.2601C61.1701 58.1134 61.0967 58.0068 60.9501 57.9401C60.8101 57.8668 60.5767 57.7901 60.2501 57.7101C59.8701 57.6101 59.5734 57.5168 59.3601 57.4301C58.8467 57.2568 58.4367 57.0401 58.1301 56.7801C57.8301 56.5268 57.6801 56.1601 57.6801 55.6801C57.6801 55.0868 57.9101 54.6168 58.3701 54.2701C58.8301 53.9234 59.4401 53.7501 60.2001 53.7501C60.7134 53.7501 61.1601 53.8301 61.5401 53.9901C61.9267 54.1568 62.2267 54.3868 62.4401 54.6801C62.6467 54.9801 62.7501 55.3168 62.7501 55.6901C62.7501 55.7301 62.7367 55.7634 62.7101 55.7901C62.6834 55.8234 62.6501 55.8401 62.6101 55.8401H61.3301C61.2901 55.8401 61.2534 55.8234 61.2201 55.7901C61.1934 55.7634 61.1801 55.7301 61.1801 55.6901C61.1801 55.5168 61.0901 55.3701 60.9101 55.2501C60.7301 55.1301 60.4934 55.0701 60.2001 55.0701C59.9334 55.0701 59.7167 55.1168 59.5501 55.2101C59.3834 55.3101 59.3001 55.4434 59.3001 55.6101C59.3001 55.7701 59.3801 55.8901 59.5401 55.9701C59.7067 56.0501 59.9834 56.1334 60.3701 56.2201C60.4567 56.2468 60.5567 56.2734 60.6701 56.3001C60.7767 56.3268 60.8967 56.3601 61.0301 56.4001C61.5967 56.5668 62.0434 56.7834 62.3701 57.0501C62.6967 57.3101 62.8601 57.6934 62.8601 58.2001C62.8601 58.7934 62.6267 59.2568 62.1601 59.5901C61.6934 59.9168 61.0634 60.0801 60.2701 60.0801ZM67.0501 53.7401C67.6901 53.7401 68.2067 53.9334 68.6001 54.3201C68.9934 54.7134 69.1901 55.2468 69.1901 55.9201V59.8601C69.1901 59.9001 69.1734 59.9334 69.1401 59.9601C69.1134 59.9868 69.0801 60.0001 69.0401 60.0001H67.6401C67.6001 60.0001 67.5667 59.9868 67.5401 59.9601C67.5067 59.9334 67.4901 59.9001 67.4901 59.8601V56.2701C67.4901 55.9501 67.4001 55.6901 67.2201 55.4901C67.0401 55.2901 66.8034 55.1901 66.5101 55.1901C66.2167 55.1901 65.9801 55.2901 65.8001 55.4901C65.6201 55.6901 65.5301 55.9501 65.5301 56.2701V59.8601C65.5301 59.9001 65.5134 59.9334 65.4801 59.9601C65.4534 59.9868 65.4201 60.0001 65.3801 60.0001H63.9801C63.9401 60.0001 63.9067 59.9868 63.8801 59.9601C63.8467 59.9334 63.8301 59.9001 63.8301 59.8601V51.7401C63.8301 51.7001 63.8467 51.6668 63.8801 51.6401C63.9067 51.6134 63.9401 51.6001 63.9801 51.6001H65.3801C65.4201 51.6001 65.4534 51.6134 65.4801 51.6401C65.5134 51.6668 65.5301 51.7001 65.5301 51.7401V54.4001C65.5301 54.4201 65.5367 54.4334 65.5501 54.4401C65.5634 54.4534 65.5767 54.4501 65.5901 54.4301C65.9167 53.9701 66.4034 53.7401 67.0501 53.7401ZM71.3101 53.1401C71.0367 53.1401 70.8101 53.0501 70.6301 52.8701C70.4501 52.6901 70.3601 52.4634 70.3601 52.1901C70.3601 51.9101 70.4501 51.6801 70.6301 51.5001C70.8034 51.3268 71.0301 51.2401 71.3101 51.2401C71.5901 51.2401 71.8167 51.3268 71.9901 51.5001C72.1701 51.6801 72.2601 51.9101 72.2601 52.1901C72.2601 52.4634 72.1701 52.6901 71.9901 52.8701C71.8101 53.0501 71.5834 53.1401 71.3101 53.1401ZM70.5901 60.0001C70.5501 60.0001 70.5167 59.9868 70.4901 59.9601C70.4634 59.9334 70.4501 59.9001 70.4501 59.8601V53.9601C70.4501 53.9201 70.4634 53.8868 70.4901 53.8601C70.5167 53.8334 70.5501 53.8201 70.5901 53.8201H71.9901C72.0301 53.8201 72.0667 53.8334 72.1001 53.8601C72.1267 53.8868 72.1401 53.9201 72.1401 53.9601V59.8601C72.1401 59.9001 72.1267 59.9334 72.1001 59.9601C72.0667 59.9868 72.0301 60.0001 71.9901 60.0001H70.5901ZM78.9701 55.4901C79.1101 55.8968 79.1801 56.3768 79.1801 56.9301C79.1801 57.4834 79.1034 57.9834 78.9501 58.4301C78.7701 58.9434 78.4801 59.3501 78.0801 59.6501C77.6867 59.9501 77.1967 60.1001 76.6101 60.1001C76.0367 60.1001 75.5901 59.9001 75.2701 59.5001C75.2567 59.4734 75.2401 59.4634 75.2201 59.4701C75.2067 59.4768 75.2001 59.4934 75.2001 59.5201V62.0901C75.2001 62.1301 75.1867 62.1634 75.1601 62.1901C75.1267 62.2168 75.0901 62.2301 75.0501 62.2301H73.6501C73.6101 62.2301 73.5767 62.2168 73.5501 62.1901C73.5234 62.1634 73.5101 62.1301 73.5101 62.0901V53.9801C73.5101 53.9401 73.5234 53.9034 73.5501 53.8701C73.5767 53.8434 73.6101 53.8301 73.6501 53.8301H75.0501C75.0901 53.8301 75.1267 53.8434 75.1601 53.8701C75.1867 53.9034 75.2001 53.9401 75.2001 53.9801V54.3701C75.2001 54.3968 75.2067 54.4101 75.2201 54.4101C75.2401 54.4168 75.2567 54.4134 75.2701 54.4001C75.6034 53.9601 76.0667 53.7401 76.6601 53.7401C77.2134 53.7401 77.6934 53.8934 78.1001 54.2001C78.5001 54.5068 78.7901 54.9368 78.9701 55.4901ZM77.1301 58.1801C77.3301 57.8668 77.4301 57.4401 77.4301 56.9001C77.4301 56.4001 77.3467 56.0001 77.1801 55.7001C76.9934 55.3601 76.6967 55.1901 76.2901 55.1901C75.9234 55.1901 75.6467 55.3601 75.4601 55.7001C75.2934 55.9934 75.2101 56.4001 75.2101 56.9201C75.2101 57.4534 75.2967 57.8668 75.4701 58.1601C75.6567 58.4801 75.9301 58.6401 76.2901 58.6401C76.6501 58.6401 76.9301 58.4868 77.1301 58.1801ZM39.9401 43.6201C39.8934 43.6468 39.8934 43.6701 39.9401 43.6901C40.7001 44.0834 41.0801 44.7368 41.0801 45.6501C41.0801 46.4234 40.8167 47.0101 40.2901 47.4101C39.7634 47.8034 39.0701 48.0001 38.2101 48.0001H35.1101C35.0701 48.0001 35.0334 47.9868 35.0001 47.9601C34.9734 47.9334 34.9601 47.9001 34.9601 47.8601V39.7401C34.9601 39.7001 34.9734 39.6668 35.0001 39.6401C35.0334 39.6134 35.0701 39.6001 35.1101 39.6001H38.1201C40.0134 39.6001 40.9601 40.3668 40.9601 41.9001C40.9601 42.7001 40.6201 43.2734 39.9401 43.6201ZM36.7101 41.0501C36.6701 41.0501 36.6501 41.0701 36.6501 41.1101V42.9801C36.6501 43.0201 36.6701 43.0401 36.7101 43.0401H38.1201C38.4934 43.0401 38.7834 42.9534 38.9901 42.7801C39.2034 42.6068 39.3101 42.3668 39.3101 42.0601C39.3101 41.7468 39.2034 41.5001 38.9901 41.3201C38.7834 41.1401 38.4934 41.0501 38.1201 41.0501H36.7101ZM38.2101 46.5401C38.5834 46.5401 38.8734 46.4434 39.0801 46.2501C39.2867 46.0634 39.3901 45.8068 39.3901 45.4801C39.3901 45.1534 39.2867 44.8968 39.0801 44.7101C38.8734 44.5168 38.5801 44.4201 38.2001 44.4201H36.7101C36.6701 44.4201 36.6501 44.4401 36.6501 44.4801V46.4801C36.6501 46.5201 36.6701 46.5401 36.7101 46.5401H38.2101ZM47.7501 44.2801C47.8034 44.5868 47.8201 44.9268 47.8001 45.3001C47.7934 45.3934 47.7434 45.4401 47.6501 45.4401H43.9401C43.8934 45.4401 43.8767 45.4601 43.8901 45.5001C43.9167 45.6601 43.9601 45.8201 44.0201 45.9801C44.2267 46.4334 44.6501 46.6601 45.2901 46.6601C45.8034 46.6468 46.2101 46.4368 46.5101 46.0301C46.5367 45.9834 46.5701 45.9601 46.6101 45.9601C46.6367 45.9601 46.6667 45.9768 46.7001 46.0101L47.5601 46.8601C47.6001 46.9001 47.6201 46.9368 47.6201 46.9701C47.6201 46.9834 47.6034 47.0134 47.5701 47.0601C47.3101 47.3934 46.9701 47.6501 46.5501 47.8301C46.1367 48.0101 45.6834 48.1001 45.1901 48.1001C44.4967 48.1001 43.9134 47.9434 43.4401 47.6301C42.9667 47.3168 42.6234 46.8801 42.4101 46.3201C42.2434 45.9201 42.1601 45.3968 42.1601 44.7501C42.1601 44.3101 42.2201 43.9201 42.3401 43.5801C42.5267 43.0134 42.8501 42.5634 43.3101 42.2301C43.7701 41.8901 44.3167 41.7201 44.9501 41.7201C45.7501 41.7201 46.3901 41.9534 46.8701 42.4201C47.3567 42.8868 47.6501 43.5068 47.7501 44.2801ZM44.9601 43.1901C44.4534 43.1901 44.1201 43.4268 43.9601 43.9001C43.9267 44.0001 43.9001 44.1268 43.8801 44.2801C43.8801 44.3201 43.9001 44.3401 43.9401 44.3401H46.0101C46.0634 44.3401 46.0801 44.3201 46.0601 44.2801C46.0201 44.0468 46.0001 43.9334 46.0001 43.9401C45.9267 43.7001 45.8001 43.5168 45.6201 43.3901C45.4401 43.2568 45.2201 43.1901 44.9601 43.1901ZM51.2201 48.0801C50.6867 48.0801 50.2201 48.0068 49.8201 47.8601C49.4201 47.7068 49.1101 47.4934 48.8901 47.2201C48.6701 46.9468 48.5601 46.6401 48.5601 46.3001V46.1801C48.5601 46.1401 48.5734 46.1034 48.6001 46.0701C48.6267 46.0434 48.6601 46.0301 48.7001 46.0301H50.0301C50.0701 46.0301 50.1067 46.0434 50.1401 46.0701C50.1667 46.1034 50.1801 46.1401 50.1801 46.1801V46.1901C50.1801 46.3634 50.2767 46.5134 50.4701 46.6401C50.6701 46.7601 50.9167 46.8201 51.2101 46.8201C51.4834 46.8201 51.7034 46.7668 51.8701 46.6601C52.0367 46.5534 52.1201 46.4201 52.1201 46.2601C52.1201 46.1134 52.0501 46.0068 51.9101 45.9401C51.7634 45.8668 51.5267 45.7901 51.2001 45.7101C50.8201 45.6101 50.5234 45.5168 50.3101 45.4301C49.7967 45.2568 49.3901 45.0401 49.0901 44.7801C48.7834 44.5268 48.6301 44.1601 48.6301 43.6801C48.6301 43.0868 48.8601 42.6168 49.3201 42.2701C49.7801 41.9234 50.3901 41.7501 51.1501 41.7501C51.6634 41.7501 52.1101 41.8301 52.4901 41.9901C52.8767 42.1568 53.1767 42.3868 53.3901 42.6801C53.6034 42.9801 53.7101 43.3168 53.7101 43.6901C53.7101 43.7301 53.6934 43.7634 53.6601 43.7901C53.6334 43.8234 53.6001 43.8401 53.5601 43.8401H52.2801C52.2401 43.8401 52.2067 43.8234 52.1801 43.7901C52.1467 43.7634 52.1301 43.7301 52.1301 43.6901C52.1301 43.5168 52.0401 43.3701 51.8601 43.2501C51.6801 43.1301 51.4434 43.0701 51.1501 43.0701C50.8834 43.0701 50.6667 43.1168 50.5001 43.2101C50.3334 43.3101 50.2501 43.4434 50.2501 43.6101C50.2501 43.7701 50.3334 43.8901 50.5001 43.9701C50.6601 44.0501 50.9334 44.1334 51.3201 44.2201C51.4067 44.2468 51.5067 44.2734 51.6201 44.3001C51.7334 44.3268 51.8534 44.3601 51.9801 44.4001C52.5467 44.5668 52.9934 44.7834 53.3201 45.0501C53.6467 45.3101 53.8101 45.6934 53.8101 46.2001C53.8101 46.7934 53.5767 47.2568 53.1101 47.5901C52.6434 47.9168 52.0134 48.0801 51.2201 48.0801ZM58.3101 43.0401C58.3101 43.0801 58.2967 43.1168 58.2701 43.1501C58.2434 43.1768 58.2101 43.1901 58.1701 43.1901H57.0201C56.9801 43.1901 56.9601 43.2101 56.9601 43.2501V45.7901C56.9601 46.0568 57.0134 46.2534 57.1201 46.3801C57.2267 46.5068 57.4001 46.5701 57.6401 46.5701H58.0401C58.0801 46.5701 58.1134 46.5834 58.1401 46.6101C58.1667 46.6434 58.1801 46.6801 58.1801 46.7201V47.8601C58.1801 47.9468 58.1334 47.9968 58.0401 48.0101C57.7001 48.0301 57.4601 48.0401 57.3201 48.0401C56.6534 48.0401 56.1567 47.9301 55.8301 47.7101C55.5034 47.4901 55.3367 47.0734 55.3301 46.4601V43.2501C55.3301 43.2101 55.3101 43.1901 55.2701 43.1901H54.5801C54.5401 43.1901 54.5067 43.1768 54.4801 43.1501C54.4534 43.1168 54.4401 43.0801 54.4401 43.0401V41.9801C54.4401 41.9401 54.4534 41.9034 54.4801 41.8701C54.5067 41.8434 54.5401 41.8301 54.5801 41.8301H55.2701C55.3101 41.8301 55.3301 41.8101 55.3301 41.7701V40.3401C55.3301 40.3001 55.3434 40.2668 55.3701 40.2401C55.3967 40.2134 55.4301 40.2001 55.4701 40.2001H56.8101C56.8501 40.2001 56.8867 40.2134 56.9201 40.2401C56.9467 40.2668 56.9601 40.3001 56.9601 40.3401V41.7701C56.9601 41.8101 56.9801 41.8301 57.0201 41.8301H58.1701C58.2101 41.8301 58.2434 41.8434 58.2701 41.8701C58.2967 41.9034 58.3101 41.9401 58.3101 41.9801V43.0401Z" fill="#252530"/>
<path d="M16.9001 75.4799C16.3801 75.4799 15.9267 75.3966 15.5401 75.2299C15.1534 75.0633 14.8534 74.8299 14.6401 74.5299C14.4334 74.2299 14.3301 73.8766 14.3301 73.4699V73.2199C14.3301 73.1866 14.3434 73.1566 14.3701 73.1299C14.3901 73.1099 14.4167 73.0999 14.4501 73.0999H15.3401C15.3734 73.0999 15.4034 73.1099 15.4301 73.1299C15.4501 73.1566 15.4601 73.1866 15.4601 73.2199V73.4099C15.4601 73.7166 15.5967 73.9699 15.8701 74.1699C16.1434 74.3766 16.5167 74.4799 16.9901 74.4799C17.3967 74.4799 17.7034 74.3933 17.9101 74.2199C18.1167 74.0466 18.2201 73.8233 18.2201 73.5499C18.2201 73.3633 18.1634 73.2033 18.0501 73.0699C17.9367 72.9433 17.7767 72.8266 17.5701 72.7199C17.3567 72.6133 17.0401 72.4799 16.6201 72.3199C16.1467 72.1466 15.7634 71.9833 15.4701 71.8299C15.1767 71.6766 14.9334 71.4666 14.7401 71.1999C14.5401 70.9399 14.4401 70.6133 14.4401 70.2199C14.4401 69.6333 14.6534 69.1699 15.0801 68.8299C15.5067 68.4899 16.0767 68.3199 16.7901 68.3199C17.2901 68.3199 17.7334 68.4066 18.1201 68.5799C18.5001 68.7533 18.7967 68.9966 19.0101 69.3099C19.2234 69.6166 19.3301 69.9733 19.3301 70.3799V70.5499C19.3301 70.5833 19.3167 70.6133 19.2901 70.6399C19.2701 70.6599 19.2434 70.6699 19.2101 70.6699H18.3101C18.2767 70.6699 18.2501 70.6599 18.2301 70.6399C18.2034 70.6133 18.1901 70.5833 18.1901 70.5499V70.4399C18.1901 70.1266 18.0634 69.8633 17.8101 69.6499C17.5501 69.4299 17.1934 69.3199 16.7401 69.3199C16.3734 69.3199 16.0901 69.3966 15.8901 69.5499C15.6834 69.7033 15.5801 69.9199 15.5801 70.1999C15.5801 70.3999 15.6334 70.5633 15.7401 70.6899C15.8467 70.8166 16.0067 70.9299 16.2201 71.0299C16.4334 71.1366 16.7634 71.2699 17.2101 71.4299C17.6834 71.6099 18.0634 71.7733 18.3501 71.9199C18.6301 72.0666 18.8734 72.2699 19.0801 72.5299C19.2801 72.7966 19.3801 73.1266 19.3801 73.5199C19.3801 74.1199 19.1567 74.5966 18.7101 74.9499C18.2701 75.3033 17.6667 75.4799 16.9001 75.4799ZM25.9101 70.2099C26.4234 70.2099 26.8267 70.3633 27.1201 70.6699C27.4067 70.9833 27.5501 71.4166 27.5501 71.9699V75.2799C27.5501 75.3133 27.5401 75.3399 27.5201 75.3599C27.4934 75.3866 27.4634 75.3999 27.4301 75.3999H26.5201C26.4867 75.3999 26.4601 75.3866 26.4401 75.3599C26.4134 75.3399 26.4001 75.3133 26.4001 75.2799V72.2099C26.4001 71.9033 26.3201 71.6599 26.1601 71.4799C25.9934 71.2999 25.7734 71.2099 25.5001 71.2099C25.2267 71.2099 25.0034 71.2999 24.8301 71.4799C24.6567 71.6599 24.5701 71.8999 24.5701 72.1999V75.2799C24.5701 75.3133 24.5601 75.3399 24.5401 75.3599C24.5134 75.3866 24.4834 75.3999 24.4501 75.3999H23.5401C23.5067 75.3999 23.4767 75.3866 23.4501 75.3599C23.4301 75.3399 23.4201 75.3133 23.4201 75.2799V72.2099C23.4201 71.9033 23.3367 71.6599 23.1701 71.4799C23.0034 71.2999 22.7834 71.2099 22.5101 71.2099C22.2567 71.2099 22.0467 71.2833 21.8801 71.4299C21.7201 71.5766 21.6267 71.7766 21.6001 72.0299V75.2799C21.6001 75.3133 21.5901 75.3399 21.5701 75.3599C21.5434 75.3866 21.5134 75.3999 21.4801 75.3999H20.5601C20.5267 75.3999 20.5001 75.3866 20.4801 75.3599C20.4534 75.3399 20.4401 75.3133 20.4401 75.2799V70.4099C20.4401 70.3766 20.4534 70.3466 20.4801 70.3199C20.5001 70.2999 20.5267 70.2899 20.5601 70.2899H21.4801C21.5134 70.2899 21.5434 70.2999 21.5701 70.3199C21.5901 70.3466 21.6001 70.3766 21.6001 70.4099V70.7399C21.6001 70.7599 21.6067 70.7733 21.6201 70.7799C21.6334 70.7866 21.6467 70.7799 21.6601 70.7599C21.8067 70.5733 21.9867 70.4366 22.2001 70.3499C22.4201 70.2566 22.6634 70.2099 22.9301 70.2099C23.2567 70.2099 23.5434 70.2766 23.7901 70.4099C24.0367 70.5433 24.2267 70.7366 24.3601 70.9899C24.3801 71.0166 24.4034 71.0166 24.4301 70.9899C24.5767 70.7233 24.7801 70.5266 25.0401 70.3999C25.3001 70.2733 25.5901 70.2099 25.9101 70.2099ZM30.6801 70.2099C31.1001 70.2099 31.4701 70.2833 31.7901 70.4299C32.1101 70.5766 32.3567 70.7766 32.5301 71.0299C32.7034 71.2899 32.7901 71.5833 32.7901 71.9099V75.2799C32.7901 75.3133 32.7801 75.3399 32.7601 75.3599C32.7334 75.3866 32.7034 75.3999 32.6701 75.3999H31.7501C31.7167 75.3999 31.6901 75.3866 31.6701 75.3599C31.6434 75.3399 31.6301 75.3133 31.6301 75.2799V74.9599C31.6301 74.9399 31.6234 74.9266 31.6101 74.9199C31.5967 74.9199 31.5834 74.9266 31.5701 74.9399C31.2434 75.2999 30.7701 75.4799 30.1501 75.4799C29.6501 75.4799 29.2401 75.3533 28.9201 75.0999C28.5934 74.8466 28.4301 74.4699 28.4301 73.9699C28.4301 73.4499 28.6134 73.0433 28.9801 72.7499C29.3401 72.4633 29.8501 72.3199 30.5101 72.3199H31.5801C31.6134 72.3199 31.6301 72.3033 31.6301 72.2699V72.0299C31.6301 71.7699 31.5534 71.5666 31.4001 71.4199C31.2467 71.2799 31.0167 71.2099 30.7101 71.2099C30.4567 71.2099 30.2534 71.2566 30.1001 71.3499C29.9401 71.4366 29.8401 71.5599 29.8001 71.7199C29.7801 71.7999 29.7334 71.8333 29.6601 71.8199L28.6901 71.6999C28.6567 71.6933 28.6301 71.6833 28.6101 71.6699C28.5834 71.6499 28.5734 71.6266 28.5801 71.5999C28.6334 71.1933 28.8534 70.8599 29.2401 70.5999C29.6201 70.3399 30.1001 70.2099 30.6801 70.2099ZM30.4401 74.5599C30.7667 74.5599 31.0467 74.4733 31.2801 74.2999C31.5134 74.1266 31.6301 73.9066 31.6301 73.6399V73.1699C31.6301 73.1366 31.6134 73.1199 31.5801 73.1199H30.7401C30.3867 73.1199 30.1101 73.1866 29.9101 73.3199C29.7034 73.4533 29.6001 73.6433 29.6001 73.8899C29.6001 74.1033 29.6801 74.2666 29.8401 74.3799C29.9934 74.4999 30.1934 74.5599 30.4401 74.5599ZM34.0701 75.3999C34.0367 75.3999 34.0101 75.3866 33.9901 75.3599C33.9634 75.3399 33.9501 75.3133 33.9501 75.2799V68.5199C33.9501 68.4866 33.9634 68.4599 33.9901 68.4399C34.0101 68.4133 34.0367 68.3999 34.0701 68.3999H34.9901C35.0234 68.3999 35.0534 68.4133 35.0801 68.4399C35.1001 68.4599 35.1101 68.4866 35.1101 68.5199V75.2799C35.1101 75.3133 35.1001 75.3399 35.0801 75.3599C35.0534 75.3866 35.0234 75.3999 34.9901 75.3999H34.0701ZM36.4601 75.3999C36.4267 75.3999 36.4001 75.3866 36.3801 75.3599C36.3534 75.3399 36.3401 75.3133 36.3401 75.2799V68.5199C36.3401 68.4866 36.3534 68.4599 36.3801 68.4399C36.4001 68.4133 36.4267 68.3999 36.4601 68.3999H37.3801C37.4134 68.3999 37.4434 68.4133 37.4701 68.4399C37.4901 68.4599 37.5001 68.4866 37.5001 68.5199V75.2799C37.5001 75.3133 37.4901 75.3399 37.4701 75.3599C37.4434 75.3866 37.4134 75.3999 37.3801 75.3999H36.4601ZM44.7501 71.7499C44.7101 71.7699 44.7101 71.7899 44.7501 71.8099C45.4301 72.1299 45.7701 72.6799 45.7701 73.4599C45.7701 74.0933 45.5601 74.5766 45.1401 74.9099C44.7134 75.2366 44.1601 75.3999 43.4801 75.3999H40.9601C40.9267 75.3999 40.9001 75.3866 40.8801 75.3599C40.8534 75.3399 40.8401 75.3133 40.8401 75.2799V68.5199C40.8401 68.4866 40.8534 68.4599 40.8801 68.4399C40.9001 68.4133 40.9267 68.3999 40.9601 68.3999H43.4001C44.1267 68.3999 44.6867 68.5566 45.0801 68.8699C45.4734 69.1833 45.6701 69.6566 45.6701 70.2899C45.6701 70.9899 45.3634 71.4766 44.7501 71.7499ZM42.0501 69.3999C42.0167 69.3999 42.0001 69.4166 42.0001 69.4499V71.2999C42.0001 71.3333 42.0167 71.3499 42.0501 71.3499H43.4001C43.7534 71.3499 44.0334 71.2666 44.2401 71.0999C44.4401 70.9266 44.5401 70.6899 44.5401 70.3899C44.5401 70.0833 44.4401 69.8399 44.2401 69.6599C44.0334 69.4866 43.7534 69.3999 43.4001 69.3999H42.0501ZM43.4801 74.3899C43.8267 74.3899 44.1034 74.2966 44.3101 74.1099C44.5101 73.9233 44.6101 73.6699 44.6101 73.3499C44.6101 73.0233 44.5067 72.7699 44.3001 72.5899C44.0934 72.4033 43.8134 72.3099 43.4601 72.3099H42.0501C42.0167 72.3099 42.0001 72.3266 42.0001 72.3599V74.3399C42.0001 74.3733 42.0167 74.3899 42.0501 74.3899H43.4801ZM49.8801 70.4099C49.8801 70.3766 49.8901 70.3466 49.9101 70.3199C49.9367 70.2999 49.9667 70.2899 50.0001 70.2899H50.9101C50.9434 70.2899 50.9734 70.2999 51.0001 70.3199C51.0201 70.3466 51.0301 70.3766 51.0301 70.4099V75.2799C51.0301 75.3133 51.0201 75.3399 51.0001 75.3599C50.9734 75.3866 50.9434 75.3999 50.9101 75.3999H50.0001C49.9667 75.3999 49.9367 75.3866 49.9101 75.3599C49.8901 75.3399 49.8801 75.3133 49.8801 75.2799V74.9599C49.8801 74.9399 49.8734 74.9266 49.8601 74.9199C49.8467 74.9133 49.8334 74.9199 49.8201 74.9399C49.5467 75.2933 49.1367 75.4699 48.5901 75.4699C48.0834 75.4699 47.6601 75.3233 47.3201 75.0299C46.9734 74.7366 46.8001 74.3199 46.8001 73.7799V70.4099C46.8001 70.3766 46.8101 70.3466 46.8301 70.3199C46.8567 70.2999 46.8867 70.2899 46.9201 70.2899H47.8401C47.8734 70.2899 47.9034 70.2999 47.9301 70.3199C47.9501 70.3466 47.9601 70.3766 47.9601 70.4099V73.4499C47.9601 73.7633 48.0434 74.0133 48.2101 74.1999C48.3701 74.3866 48.5967 74.4799 48.8901 74.4799C49.1901 74.4799 49.4301 74.3866 49.6101 74.1999C49.7901 74.0133 49.8801 73.7633 49.8801 73.4499V70.4099ZM54.1701 75.4599C53.7501 75.4599 53.3801 75.3966 53.0601 75.2699C52.7467 75.1499 52.5034 74.9799 52.3301 74.7599C52.1567 74.5466 52.0701 74.3066 52.0701 74.0399V73.9499C52.0701 73.9166 52.0801 73.8866 52.1001 73.8599C52.1267 73.8399 52.1567 73.8299 52.1901 73.8299H53.0701C53.1034 73.8299 53.1301 73.8399 53.1501 73.8599C53.1767 73.8866 53.1901 73.9166 53.1901 73.9499V73.9699C53.1901 74.1366 53.2801 74.2833 53.4601 74.4099C53.6467 74.5299 53.8801 74.5899 54.1601 74.5899C54.4267 74.5899 54.6434 74.5366 54.8101 74.4299C54.9767 74.3166 55.0601 74.1766 55.0601 74.0099C55.0601 73.8566 54.9901 73.7399 54.8501 73.6599C54.7167 73.5866 54.4967 73.5066 54.1901 73.4199L53.8101 73.2999C53.4701 73.1999 53.1834 73.0933 52.9501 72.9799C52.7167 72.8666 52.5201 72.7099 52.3601 72.5099C52.2001 72.3166 52.1201 72.0666 52.1201 71.7599C52.1201 71.2933 52.3034 70.9233 52.6701 70.6499C53.0367 70.3699 53.5201 70.2299 54.1201 70.2299C54.5267 70.2299 54.8834 70.2933 55.1901 70.4199C55.4967 70.5533 55.7334 70.7333 55.9001 70.9599C56.0667 71.1933 56.1501 71.4566 56.1501 71.7499C56.1501 71.7833 56.1367 71.8133 56.1101 71.8399C56.0901 71.8599 56.0634 71.8699 56.0301 71.8699H55.1801C55.1467 71.8699 55.1167 71.8599 55.0901 71.8399C55.0701 71.8133 55.0601 71.7833 55.0601 71.7499C55.0601 71.5766 54.9734 71.4333 54.8001 71.3199C54.6334 71.1999 54.4034 71.1399 54.1101 71.1399C53.8501 71.1399 53.6367 71.1866 53.4701 71.2799C53.3101 71.3799 53.2301 71.5166 53.2301 71.6899C53.2301 71.8499 53.3067 71.9699 53.4601 72.0499C53.6201 72.1366 53.8834 72.2299 54.2501 72.3299L54.4701 72.3899C54.8234 72.4966 55.1201 72.6033 55.3601 72.7099C55.6001 72.8233 55.8034 72.9766 55.9701 73.1699C56.1367 73.3699 56.2201 73.6266 56.2201 73.9399C56.2201 74.4133 56.0334 74.7833 55.6601 75.0499C55.2867 75.3233 54.7901 75.4599 54.1701 75.4599ZM57.8601 69.5899C57.6534 69.5899 57.4834 69.5233 57.3501 69.3899C57.2167 69.2566 57.1501 69.0866 57.1501 68.8799C57.1501 68.6733 57.2167 68.5033 57.3501 68.3699C57.4834 68.2366 57.6534 68.1699 57.8601 68.1699C58.0667 68.1699 58.2367 68.2366 58.3701 68.3699C58.5034 68.5033 58.5701 68.6733 58.5701 68.8799C58.5701 69.0866 58.5034 69.2566 58.3701 69.3899C58.2367 69.5233 58.0667 69.5899 57.8601 69.5899ZM57.3801 75.3999C57.3467 75.3999 57.3167 75.3866 57.2901 75.3599C57.2701 75.3399 57.2601 75.3133 57.2601 75.2799V70.3999C57.2601 70.3666 57.2701 70.3399 57.2901 70.3199C57.3167 70.2933 57.3467 70.2799 57.3801 70.2799H58.3001C58.3334 70.2799 58.3601 70.2933 58.3801 70.3199C58.4067 70.3399 58.4201 70.3666 58.4201 70.3999V75.2799C58.4201 75.3133 58.4067 75.3399 58.3801 75.3599C58.3601 75.3866 58.3334 75.3999 58.3001 75.3999H57.3801ZM62.2001 70.2099C62.7401 70.2099 63.1701 70.3699 63.4901 70.6899C63.8167 71.0099 63.9801 71.4466 63.9801 71.9999V75.2799C63.9801 75.3133 63.9667 75.3399 63.9401 75.3599C63.9201 75.3866 63.8934 75.3999 63.8601 75.3999H62.9401C62.9067 75.3999 62.8767 75.3866 62.8501 75.3599C62.8301 75.3399 62.8201 75.3133 62.8201 75.2799V72.2399C62.8201 71.9333 62.7334 71.6833 62.5601 71.4899C62.3867 71.3033 62.1567 71.2099 61.8701 71.2099C61.5834 71.2099 61.3501 71.3033 61.1701 71.4899C60.9967 71.6766 60.9101 71.9233 60.9101 72.2299V75.2799C60.9101 75.3133 60.8967 75.3399 60.8701 75.3599C60.8501 75.3866 60.8234 75.3999 60.7901 75.3999H59.8701C59.8367 75.3999 59.8067 75.3866 59.7801 75.3599C59.7601 75.3399 59.7501 75.3133 59.7501 75.2799V70.4099C59.7501 70.3766 59.7601 70.3466 59.7801 70.3199C59.8067 70.2999 59.8367 70.2899 59.8701 70.2899H60.7901C60.8234 70.2899 60.8501 70.2999 60.8701 70.3199C60.8967 70.3466 60.9101 70.3766 60.9101 70.4099V70.7299C60.9101 70.7499 60.9167 70.7633 60.9301 70.7699C60.9434 70.7766 60.9534 70.7699 60.9601 70.7499C61.2334 70.3899 61.6467 70.2099 62.2001 70.2099ZM69.4601 72.2699C69.4867 72.4366 69.5001 72.6233 69.5001 72.8299L69.4901 73.1399C69.4901 73.2199 69.4501 73.2599 69.3701 73.2599H66.2401C66.2067 73.2599 66.1901 73.2766 66.1901 73.3099C66.2101 73.5299 66.2401 73.6799 66.2801 73.7599C66.4401 74.2399 66.8301 74.4833 67.4501 74.4899C67.9034 74.4899 68.2634 74.3033 68.5301 73.9299C68.5567 73.8899 68.5901 73.8699 68.6301 73.8699C68.6567 73.8699 68.6801 73.8799 68.7001 73.8999L69.3201 74.4099C69.3801 74.4566 69.3901 74.5099 69.3501 74.5699C69.1434 74.8633 68.8667 75.0899 68.5201 75.2499C68.1801 75.4099 67.8001 75.4899 67.3801 75.4899C66.8601 75.4899 66.4167 75.3733 66.0501 75.1399C65.6901 74.9066 65.4267 74.5799 65.2601 74.1599C65.1067 73.7999 65.0301 73.2999 65.0301 72.6599C65.0301 72.2733 65.0701 71.9599 65.1501 71.7199C65.2834 71.2533 65.5334 70.8833 65.9001 70.6099C66.2734 70.3433 66.7201 70.2099 67.2401 70.2099C68.5534 70.2099 69.2934 70.8966 69.4601 72.2699ZM67.2401 71.2099C66.9934 71.2099 66.7867 71.2733 66.6201 71.3999C66.4601 71.5199 66.3467 71.6899 66.2801 71.9099C66.2401 72.0233 66.2134 72.1699 66.2001 72.3499C66.1867 72.3833 66.2001 72.3999 66.2401 72.3999H68.2701C68.3034 72.3999 68.3201 72.3833 68.3201 72.3499C68.3067 72.1833 68.2867 72.0566 68.2601 71.9699C68.2001 71.7299 68.0801 71.5433 67.9001 71.4099C67.7267 71.2766 67.5067 71.2099 67.2401 71.2099ZM72.3801 75.4599C71.9601 75.4599 71.5901 75.3966 71.2701 75.2699C70.9567 75.1499 70.7134 74.9799 70.5401 74.7599C70.3667 74.5466 70.2801 74.3066 70.2801 74.0399V73.9499C70.2801 73.9166 70.2901 73.8866 70.3101 73.8599C70.3367 73.8399 70.3667 73.8299 70.4001 73.8299H71.2801C71.3134 73.8299 71.3401 73.8399 71.3601 73.8599C71.3867 73.8866 71.4001 73.9166 71.4001 73.9499V73.9699C71.4001 74.1366 71.4901 74.2833 71.6701 74.4099C71.8567 74.5299 72.0901 74.5899 72.3701 74.5899C72.6367 74.5899 72.8534 74.5366 73.0201 74.4299C73.1867 74.3166 73.2701 74.1766 73.2701 74.0099C73.2701 73.8566 73.2001 73.7399 73.0601 73.6599C72.9267 73.5866 72.7067 73.5066 72.4001 73.4199L72.0201 73.2999C71.6801 73.1999 71.3934 73.0933 71.1601 72.9799C70.9267 72.8666 70.7301 72.7099 70.5701 72.5099C70.4101 72.3166 70.3301 72.0666 70.3301 71.7599C70.3301 71.2933 70.5134 70.9233 70.8801 70.6499C71.2467 70.3699 71.7301 70.2299 72.3301 70.2299C72.7367 70.2299 73.0934 70.2933 73.4001 70.4199C73.7067 70.5533 73.9434 70.7333 74.1101 70.9599C74.2767 71.1933 74.3601 71.4566 74.3601 71.7499C74.3601 71.7833 74.3467 71.8133 74.3201 71.8399C74.3001 71.8599 74.2734 71.8699 74.2401 71.8699H73.3901C73.3567 71.8699 73.3267 71.8599 73.3001 71.8399C73.2801 71.8133 73.2701 71.7833 73.2701 71.7499C73.2701 71.5766 73.1834 71.4333 73.0101 71.3199C72.8434 71.1999 72.6134 71.1399 72.3201 71.1399C72.0601 71.1399 71.8467 71.1866 71.6801 71.2799C71.5201 71.3799 71.4401 71.5166 71.4401 71.6899C71.4401 71.8499 71.5167 71.9699 71.6701 72.0499C71.8301 72.1366 72.0934 72.2299 72.4601 72.3299L72.6801 72.3899C73.0334 72.4966 73.3301 72.6033 73.5701 72.7099C73.8101 72.8233 74.0134 72.9766 74.1801 73.1699C74.3467 73.3699 74.4301 73.6266 74.4301 73.9399C74.4301 74.4133 74.2434 74.7833 73.8701 75.0499C73.4967 75.3233 73.0001 75.4599 72.3801 75.4599ZM77.2101 75.4599C76.7901 75.4599 76.4201 75.3966 76.1001 75.2699C75.7867 75.1499 75.5434 74.9799 75.3701 74.7599C75.1967 74.5466 75.1101 74.3066 75.1101 74.0399V73.9499C75.1101 73.9166 75.1201 73.8866 75.1401 73.8599C75.1667 73.8399 75.1967 73.8299 75.2301 73.8299H76.1101C76.1434 73.8299 76.1701 73.8399 76.1901 73.8599C76.2167 73.8866 76.2301 73.9166 76.2301 73.9499V73.9699C76.2301 74.1366 76.3201 74.2833 76.5001 74.4099C76.6867 74.5299 76.9201 74.5899 77.2001 74.5899C77.4667 74.5899 77.6834 74.5366 77.8501 74.4299C78.0167 74.3166 78.1001 74.1766 78.1001 74.0099C78.1001 73.8566 78.0301 73.7399 77.8901 73.6599C77.7567 73.5866 77.5367 73.5066 77.2301 73.4199L76.8501 73.2999C76.5101 73.1999 76.2234 73.0933 75.9901 72.9799C75.7567 72.8666 75.5601 72.7099 75.4001 72.5099C75.2401 72.3166 75.1601 72.0666 75.1601 71.7599C75.1601 71.2933 75.3434 70.9233 75.7101 70.6499C76.0767 70.3699 76.5601 70.2299 77.1601 70.2299C77.5667 70.2299 77.9234 70.2933 78.2301 70.4199C78.5367 70.5533 78.7734 70.7333 78.9401 70.9599C79.1067 71.1933 79.1901 71.4566 79.1901 71.7499C79.1901 71.7833 79.1767 71.8133 79.1501 71.8399C79.1301 71.8599 79.1034 71.8699 79.0701 71.8699H78.2201C78.1867 71.8699 78.1567 71.8599 78.1301 71.8399C78.1101 71.8133 78.1001 71.7833 78.1001 71.7499C78.1001 71.5766 78.0134 71.4333 77.8401 71.3199C77.6734 71.1999 77.4434 71.1399 77.1501 71.1399C76.8901 71.1399 76.6767 71.1866 76.5101 71.2799C76.3501 71.3799 76.2701 71.5166 76.2701 71.6899C76.2701 71.8499 76.3467 71.9699 76.5001 72.0499C76.6601 72.1366 76.9234 72.2299 77.2901 72.3299L77.5101 72.3899C77.8634 72.4966 78.1601 72.6033 78.4001 72.7099C78.6401 72.8233 78.8434 72.9766 79.0101 73.1699C79.1767 73.3699 79.2601 73.6266 79.2601 73.9399C79.2601 74.4133 79.0734 74.7833 78.7001 75.0499C78.3267 75.3233 77.8301 75.4599 77.2101 75.4599Z" fill="#242530"/>
<path d="M31.1602 89.5C31.0869 89.5 31.0402 89.4667 31.0202 89.4L29.2502 82.63L29.2402 82.59C29.2402 82.53 29.2769 82.5 29.3502 82.5H30.5902C30.6569 82.5 30.7002 82.5333 30.7202 82.6L31.6702 86.67C31.6769 86.6967 31.6869 86.71 31.7002 86.71C31.7136 86.71 31.7236 86.6967 31.7302 86.67L32.6502 82.61C32.6702 82.5367 32.7136 82.5 32.7802 82.5H33.9902C34.0636 82.5 34.1102 82.5333 34.1302 82.6L35.1302 86.67C35.1369 86.69 35.1469 86.7033 35.1602 86.71C35.1736 86.71 35.1836 86.6967 35.1902 86.67L36.1102 82.61C36.1302 82.5367 36.1736 82.5 36.2402 82.5H37.4202C37.5136 82.5 37.5502 82.5433 37.5302 82.63L35.8902 89.4C35.8702 89.4667 35.8236 89.5 35.7502 89.5H34.5602C34.4936 89.5 34.4502 89.4667 34.4302 89.4L33.4102 85.07C33.4036 85.0433 33.3936 85.03 33.3802 85.03C33.3669 85.03 33.3569 85.0433 33.3502 85.07L32.4002 89.39C32.3869 89.4633 32.3436 89.5 32.2702 89.5H31.1602ZM38.5002 89.5C38.4669 89.5 38.4369 89.4867 38.4102 89.46C38.3902 89.44 38.3802 89.4133 38.3802 89.38V82.62C38.3802 82.5867 38.3902 82.56 38.4102 82.54C38.4369 82.5133 38.4669 82.5 38.5002 82.5H39.6702C39.7036 82.5 39.7302 82.5133 39.7502 82.54C39.7769 82.56 39.7902 82.5867 39.7902 82.62V89.38C39.7902 89.4133 39.7769 89.44 39.7502 89.46C39.7302 89.4867 39.7036 89.5 39.6702 89.5H38.5002ZM45.0302 82.62C45.0302 82.5867 45.0402 82.56 45.0602 82.54C45.0869 82.5133 45.1169 82.5 45.1502 82.5H46.3202C46.3536 82.5 46.3802 82.5133 46.4002 82.54C46.4269 82.56 46.4402 82.5867 46.4402 82.62V89.38C46.4402 89.4133 46.4269 89.44 46.4002 89.46C46.3802 89.4867 46.3536 89.5 46.3202 89.5H45.1902C45.1236 89.5 45.0769 89.4733 45.0502 89.42L42.4602 85.14C42.4469 85.12 42.4336 85.1133 42.4202 85.12C42.4069 85.12 42.4002 85.1333 42.4002 85.16L42.4202 89.38C42.4202 89.4133 42.4069 89.44 42.3802 89.46C42.3602 89.4867 42.3336 89.5 42.3002 89.5H41.1302C41.0969 89.5 41.0669 89.4867 41.0402 89.46C41.0202 89.44 41.0102 89.4133 41.0102 89.38V82.62C41.0102 82.5867 41.0202 82.56 41.0402 82.54C41.0669 82.5133 41.0969 82.5 41.1302 82.5H42.2602C42.3269 82.5 42.3736 82.5267 42.4002 82.58L44.9802 86.84C44.9936 86.86 45.0069 86.8667 45.0202 86.86C45.0336 86.86 45.0402 86.8467 45.0402 86.82L45.0302 82.62ZM52.4902 82.5C52.5236 82.5 52.5502 82.5133 52.5702 82.54C52.5969 82.56 52.6102 82.5867 52.6102 82.62V83.6C52.6102 83.6333 52.5969 83.66 52.5702 83.68C52.5502 83.7067 52.5236 83.72 52.4902 83.72H50.7002C50.6669 83.72 50.6502 83.7367 50.6502 83.77V89.38C50.6502 89.4133 50.6369 89.44 50.6102 89.46C50.5902 89.4867 50.5636 89.5 50.5302 89.5H49.3602C49.3269 89.5 49.2969 89.4867 49.2702 89.46C49.2502 89.44 49.2402 89.4133 49.2402 89.38V83.77C49.2402 83.7367 49.2236 83.72 49.1902 83.72H47.4502C47.4169 83.72 47.3869 83.7067 47.3602 83.68C47.3402 83.66 47.3302 83.6333 47.3302 83.6V82.62C47.3302 82.5867 47.3402 82.56 47.3602 82.54C47.3869 82.5133 47.4169 82.5 47.4502 82.5H52.4902ZM58.3702 83.59C58.3702 83.6233 58.3602 83.65 58.3402 83.67C58.3136 83.6967 58.2836 83.71 58.2502 83.71H54.9702C54.9369 83.71 54.9202 83.7267 54.9202 83.76V85.31C54.9202 85.3433 54.9369 85.36 54.9702 85.36H57.1202C57.1536 85.36 57.1802 85.37 57.2002 85.39C57.2269 85.4167 57.2402 85.4467 57.2402 85.48V86.45C57.2402 86.4833 57.2269 86.5133 57.2002 86.54C57.1802 86.56 57.1536 86.57 57.1202 86.57H54.9702C54.9369 86.57 54.9202 86.5867 54.9202 86.62V88.24C54.9202 88.2733 54.9369 88.29 54.9702 88.29H58.2502C58.2836 88.29 58.3136 88.3 58.3402 88.32C58.3602 88.3467 58.3702 88.3767 58.3702 88.41V89.38C58.3702 89.4133 58.3602 89.44 58.3402 89.46C58.3136 89.4867 58.2836 89.5 58.2502 89.5H53.6302C53.5969 89.5 53.5669 89.4867 53.5402 89.46C53.5202 89.44 53.5102 89.4133 53.5102 89.38V82.62C53.5102 82.5867 53.5202 82.56 53.5402 82.54C53.5669 82.5133 53.5969 82.5 53.6302 82.5H58.2502C58.2836 82.5 58.3136 82.5133 58.3402 82.54C58.3602 82.56 58.3702 82.5867 58.3702 82.62V83.59ZM63.1902 89.5C63.1236 89.5 63.0769 89.47 63.0502 89.41L61.8002 86.64C61.7869 86.6133 61.7669 86.6 61.7402 86.6H60.8102C60.7769 86.6 60.7602 86.6167 60.7602 86.65V89.38C60.7602 89.4133 60.7469 89.44 60.7202 89.46C60.7002 89.4867 60.6736 89.5 60.6402 89.5H59.4702C59.4369 89.5 59.4069 89.4867 59.3802 89.46C59.3602 89.44 59.3502 89.4133 59.3502 89.38V82.62C59.3502 82.5867 59.3602 82.56 59.3802 82.54C59.4069 82.5133 59.4369 82.5 59.4702 82.5H62.3302C62.7569 82.5 63.1302 82.5867 63.4502 82.76C63.7769 82.9333 64.0269 83.18 64.2002 83.5C64.3802 83.82 64.4702 84.19 64.4702 84.61C64.4702 85.0633 64.3569 85.45 64.1302 85.77C63.9036 86.0967 63.5869 86.3267 63.1802 86.46C63.1469 86.4733 63.1369 86.4967 63.1502 86.53L64.5102 89.36C64.5236 89.3867 64.5302 89.4067 64.5302 89.42C64.5302 89.4733 64.4936 89.5 64.4202 89.5H63.1902ZM60.8102 83.71C60.7769 83.71 60.7602 83.7267 60.7602 83.76V85.47C60.7602 85.5033 60.7769 85.52 60.8102 85.52H62.1202C62.4002 85.52 62.6269 85.4367 62.8002 85.27C62.9802 85.1033 63.0702 84.8867 63.0702 84.62C63.0702 84.3533 62.9802 84.1333 62.8002 83.96C62.6269 83.7933 62.4002 83.71 62.1202 83.71H60.8102ZM38.0602 97.63C38.0469 97.6433 38.0436 97.6567 38.0502 97.67C38.0569 97.6833 38.0702 97.69 38.0902 97.69H40.8002C40.8336 97.69 40.8636 97.7 40.8902 97.72C40.9102 97.7467 40.9202 97.7767 40.9202 97.81V98.78C40.9202 98.8133 40.9102 98.84 40.8902 98.86C40.8636 98.8867 40.8336 98.9 40.8002 98.9H36.3002C36.2669 98.9 36.2369 98.8867 36.2102 98.86C36.1902 98.84 36.1802 98.8133 36.1802 98.78V97.86C36.1802 97.8 36.2002 97.75 36.2402 97.71C36.5669 97.39 36.9002 97.0433 37.2402 96.67C37.5802 96.29 37.7936 96.0533 37.8802 95.96C38.0669 95.74 38.2569 95.53 38.4502 95.33C39.0569 94.6567 39.3602 94.1567 39.3602 93.83C39.3602 93.5967 39.2769 93.4033 39.1102 93.25C38.9436 93.1033 38.7269 93.03 38.4602 93.03C38.1936 93.03 37.9769 93.1033 37.8102 93.25C37.6436 93.4033 37.5602 93.6033 37.5602 93.85V94.1C37.5602 94.1333 37.5469 94.1633 37.5202 94.19C37.5002 94.21 37.4736 94.22 37.4402 94.22H36.2602C36.2269 94.22 36.2002 94.21 36.1802 94.19C36.1536 94.1633 36.1402 94.1333 36.1402 94.1V93.63C36.1602 93.27 36.2736 92.95 36.4802 92.67C36.6869 92.3967 36.9602 92.1867 37.3002 92.04C37.6469 91.8933 38.0336 91.82 38.4602 91.82C38.9336 91.82 39.3469 91.9067 39.7002 92.08C40.0469 92.26 40.3169 92.5 40.5102 92.8C40.6969 93.1 40.7902 93.4333 40.7902 93.8C40.7902 94.08 40.7202 94.3667 40.5802 94.66C40.4402 94.9533 40.2302 95.27 39.9502 95.61C39.7436 95.87 39.5202 96.1267 39.2802 96.38C39.0402 96.6333 38.6836 97 38.2102 97.48L38.0602 97.63ZM44.1702 99.01C43.4369 99.01 42.8569 98.8033 42.4302 98.39C42.0036 97.9833 41.7902 97.4267 41.7902 96.72V94.08C41.7902 93.3867 42.0036 92.8367 42.4302 92.43C42.8569 92.0233 43.4369 91.82 44.1702 91.82C44.9036 91.82 45.4869 92.0233 45.9202 92.43C46.3469 92.8367 46.5602 93.3867 46.5602 94.08V96.72C46.5602 97.4267 46.3469 97.9833 45.9202 98.39C45.4869 98.8033 44.9036 99.01 44.1702 99.01ZM44.1702 97.8C44.4702 97.8 44.7102 97.7067 44.8902 97.52C45.0636 97.34 45.1502 97.0967 45.1502 96.79V94.04C45.1502 93.7333 45.0636 93.49 44.8902 93.31C44.7102 93.1233 44.4702 93.03 44.1702 93.03C43.8769 93.03 43.6436 93.1233 43.4702 93.31C43.2902 93.49 43.2002 93.7333 43.2002 94.04V96.79C43.2002 97.0967 43.2902 97.34 43.4702 97.52C43.6436 97.7067 43.8769 97.8 44.1702 97.8ZM49.3602 97.63C49.3469 97.6433 49.3436 97.6567 49.3502 97.67C49.3569 97.6833 49.3702 97.69 49.3902 97.69H52.1002C52.1336 97.69 52.1636 97.7 52.1902 97.72C52.2102 97.7467 52.2202 97.7767 52.2202 97.81V98.78C52.2202 98.8133 52.2102 98.84 52.1902 98.86C52.1636 98.8867 52.1336 98.9 52.1002 98.9H47.6002C47.5669 98.9 47.5402 98.8867 47.5202 98.86C47.4936 98.84 47.4802 98.8133 47.4802 98.78V97.86C47.4802 97.8 47.5002 97.75 47.5402 97.71C47.8669 97.39 48.2002 97.0433 48.5402 96.67C48.8802 96.29 49.0936 96.0533 49.1802 95.96C49.3669 95.74 49.5569 95.53 49.7502 95.33C50.3569 94.6567 50.6602 94.1567 50.6602 93.83C50.6602 93.5967 50.5769 93.4033 50.4102 93.25C50.2436 93.1033 50.0269 93.03 49.7602 93.03C49.4936 93.03 49.2769 93.1033 49.1102 93.25C48.9436 93.4033 48.8602 93.6033 48.8602 93.85V94.1C48.8602 94.1333 48.8502 94.1633 48.8302 94.19C48.8036 94.21 48.7736 94.22 48.7402 94.22H47.5602C47.5269 94.22 47.5002 94.21 47.4802 94.19C47.4536 94.1633 47.4402 94.1333 47.4402 94.1V93.63C47.4602 93.27 47.5736 92.95 47.7802 92.67C47.9869 92.3967 48.2636 92.1867 48.6102 92.04C48.9502 91.8933 49.3336 91.82 49.7602 91.82C50.2336 91.82 50.6469 91.9067 51.0002 92.08C51.3469 92.26 51.6169 92.5 51.8102 92.8C51.9969 93.1 52.0902 93.4333 52.0902 93.8C52.0902 94.08 52.0202 94.3667 51.8802 94.66C51.7402 94.9533 51.5302 95.27 51.2502 95.61C51.0436 95.87 50.8202 96.1267 50.5802 96.38C50.3402 96.6333 49.9836 97 49.5102 97.48L49.3602 97.63ZM57.2602 95.56C57.3936 95.8667 57.4602 96.22 57.4602 96.62C57.4602 96.98 57.4002 97.3133 57.2802 97.62C57.1202 98.0467 56.8536 98.38 56.4802 98.62C56.1002 98.86 55.6536 98.98 55.1402 98.98C54.6336 98.98 54.1902 98.8533 53.8102 98.6C53.4236 98.3467 53.1469 98.0033 52.9802 97.57C52.8869 97.31 52.8336 97.03 52.8202 96.73C52.8202 96.65 52.8602 96.61 52.9402 96.61H54.1202C54.2002 96.61 54.2402 96.65 54.2402 96.73C54.2669 96.95 54.3036 97.1133 54.3502 97.22C54.4102 97.3933 54.5102 97.5267 54.6502 97.62C54.7836 97.72 54.9436 97.77 55.1302 97.77C55.5036 97.77 55.7602 97.6067 55.9002 97.28C55.9936 97.08 56.0402 96.8467 56.0402 96.58C56.0402 96.2667 55.9902 96.01 55.8902 95.81C55.7369 95.4967 55.4802 95.34 55.1202 95.34C55.0469 95.34 54.9702 95.36 54.8902 95.4C54.8102 95.4467 54.7136 95.51 54.6002 95.59C54.5736 95.61 54.5469 95.62 54.5202 95.62C54.4802 95.62 54.4502 95.6 54.4302 95.56L53.8402 94.73C53.8269 94.71 53.8202 94.6867 53.8202 94.66C53.8202 94.62 53.8336 94.5867 53.8602 94.56L55.4502 93.17C55.4636 93.1567 55.4702 93.1433 55.4702 93.13C55.4636 93.1167 55.4502 93.11 55.4302 93.11H53.0802C53.0469 93.11 53.0202 93.0967 53.0002 93.07C52.9736 93.05 52.9602 93.0233 52.9602 92.99V92.02C52.9602 91.9867 52.9736 91.96 53.0002 91.94C53.0202 91.9133 53.0469 91.9 53.0802 91.9H57.2502C57.2836 91.9 57.3136 91.9133 57.3402 91.94C57.3602 91.96 57.3702 91.9867 57.3702 92.02V93.12C57.3702 93.1733 57.3469 93.2233 57.3002 93.27L55.9902 94.47C55.9769 94.4833 55.9736 94.4967 55.9802 94.51C55.9802 94.5233 55.9936 94.53 56.0202 94.53C56.6002 94.6433 57.0136 94.9867 57.2602 95.56Z" fill="#252530"/>
</svg>
