<svg width="94" height="122" viewBox="0 0 94 122" fill="none" xmlns="http://www.w3.org/2000/svg">
<path d="M8.09961 89.9L47.5996 110L85.5996 89.9V11.3H8.09961V89.9Z" fill="white"/>
<path d="M86.3998 11.6001L7.2998 91.3001L48.2998 111.6L86.3998 92.1001V11.6001Z" fill="#F2F3F2"/>
<path d="M5.5 37.5V91.6L6.9 92.3L46.4 112.4L47.6 113L48.8 112.4L86.9 92.3L88.3 91.6V8.69995H5.5V37.5ZM8.1 90.1V11.3H85.7V90.1L47.6 110.2L8.1 90.1Z" fill="#DCDEDC"/>
<path d="M46.9004 12.6C47.3004 12.6 47.7004 12.6 48.1004 12.7L46.9004 15C45.1004 14.9 43.5004 16.3 43.4004 18.1C43.3004 19.9 44.7004 21.5 46.5004 21.6H46.9004C47.7004 21.6 48.5004 21.3 49.1004 20.8L50.4004 23C49.4004 23.7 48.2004 24.1 46.9004 24.1C43.7004 24.2 41.0004 21.8 40.9004 18.6C40.8004 15.4 43.2004 12.7 46.4004 12.6H46.9004ZM51.0004 17.5L52.5004 20L51.0004 22.4L49.6004 20H46.7004L48.2004 17.5H51.0004ZM48.6004 16.6C48.6004 16.2 48.7004 15.8 48.9004 15.5C49.1004 15.2 49.5004 14.9 49.8004 14.7L50.0004 14.6C50.4004 14.4 50.5004 14.3 50.5004 14.1C50.5004 13.9 50.2004 13.7 50.0004 13.7C49.6004 13.7 49.3004 13.9 49.1004 14.3L48.6004 13.8C48.7004 13.6 48.9004 13.4 49.1004 13.2C49.4004 13 49.7004 13 50.0004 13C50.3004 13 50.7004 13.1 50.9004 13.3C51.1004 13.5 51.3004 13.8 51.3004 14.1C51.3004 14.6 51.0004 15 50.4004 15.2L50.1004 15.4C49.8004 15.6 49.6004 15.7 49.5004 16H51.3004V16.7L48.6004 16.6ZM46.9004 29.1L56.4004 23.7V8.69995H37.3004V23.6L46.9004 29.1ZM90.2004 64.5H3.60039L0.400391 71.5L3.60039 78.5H90.2004L93.3004 71.5L90.2004 64.5Z" fill="#FF492C"/>
<path d="M19.0899 59.9999C19.0299 59.9999 18.9799 59.9799 18.9399 59.9399C18.8999 59.8932 18.8799 59.8399 18.8799 59.7799V47.6199C18.8799 47.5599 18.8999 47.5066 18.9399 47.4599C18.9799 47.4199 19.0299 47.3999 19.0899 47.3999H21.1999C21.2599 47.3999 21.3099 47.4199 21.3499 47.4599C21.3966 47.5066 21.4199 47.5599 21.4199 47.6199V57.7299C21.4199 57.7899 21.4499 57.8199 21.5099 57.8199H27.3899C27.4499 57.8199 27.5032 57.8399 27.5499 57.8799C27.5899 57.9266 27.6099 57.9799 27.6099 58.0399V59.7799C27.6099 59.8399 27.5899 59.8932 27.5499 59.9399C27.5032 59.9799 27.4499 59.9999 27.3899 59.9999H19.0899ZM37.1999 54.4199C37.2732 54.8732 37.2966 55.3832 37.2699 55.9499C37.2632 56.0966 37.1866 56.1699 37.0399 56.1699H31.4799C31.4065 56.1699 31.3832 56.1999 31.4099 56.2599C31.4432 56.4999 31.5066 56.7399 31.5999 56.9799C31.9132 57.6466 32.5499 57.9799 33.5099 57.9799C34.2765 57.9732 34.8832 57.6632 35.3299 57.0499C35.3766 56.9766 35.4299 56.9399 35.4899 56.9399C35.5299 56.9399 35.5732 56.9632 35.6199 57.0099L36.9099 58.2899C36.9699 58.3499 36.9999 58.4032 36.9999 58.4499C36.9999 58.4766 36.9766 58.5266 36.9299 58.5999C36.5366 59.0866 36.0266 59.4666 35.3999 59.7399C34.7799 60.0066 34.0965 60.1399 33.3499 60.1399C32.3165 60.1399 31.4432 59.9066 30.7299 59.4399C30.0165 58.9732 29.5032 58.3199 29.1899 57.4799C28.9366 56.8799 28.8099 56.0932 28.8099 55.1199C28.8099 54.4599 28.8999 53.8799 29.0799 53.3799C29.3599 52.5266 29.8432 51.8466 30.5299 51.3399C31.2232 50.8399 32.0432 50.5899 32.9899 50.5899C34.1899 50.5899 35.1532 50.9366 35.8799 51.6299C36.6066 52.3232 37.0466 53.2532 37.1999 54.4199ZM33.0099 52.7799C32.2499 52.7799 31.7499 53.1332 31.5099 53.8399C31.4632 53.9999 31.4232 54.1932 31.3899 54.4199C31.3899 54.4799 31.4199 54.5099 31.4799 54.5099H34.5899C34.6632 54.5099 34.6866 54.4799 34.6599 54.4199C34.5999 54.0732 34.5699 53.9066 34.5699 53.9199C34.4632 53.5599 34.2765 53.2799 34.0099 53.0799C33.7365 52.8799 33.4032 52.7799 33.0099 52.7799ZM42.4399 50.5999C43.2199 50.5999 43.9165 50.7366 44.5299 51.0099C45.1432 51.2766 45.6199 51.6466 45.9599 52.1199C46.2999 52.5866 46.4699 53.1066 46.4699 53.6799V59.7799C46.4699 59.8399 46.4499 59.8932 46.4099 59.9399C46.3699 59.9799 46.3199 59.9999 46.2599 59.9999H44.1499C44.0899 59.9999 44.0399 59.9799 43.9999 59.9399C43.9532 59.8932 43.9299 59.8399 43.9299 59.7799V59.1899C43.9299 59.1566 43.9199 59.1332 43.8999 59.1199C43.8732 59.1066 43.8499 59.1166 43.8299 59.1499C43.3232 59.8099 42.5132 60.1399 41.3999 60.1399C40.4599 60.1399 39.7032 59.9132 39.1299 59.4599C38.5499 59.0066 38.2599 58.3332 38.2599 57.4399C38.2599 56.5199 38.5866 55.8032 39.2399 55.2899C39.8866 54.7832 40.8099 54.5299 42.0099 54.5299H43.8399C43.8999 54.5299 43.9299 54.4999 43.9299 54.4399V54.0399C43.9299 53.6466 43.8099 53.3366 43.5699 53.1099C43.3299 52.8899 42.9699 52.7799 42.4899 52.7799C42.1232 52.7799 41.8166 52.8466 41.5699 52.9799C41.3232 53.1132 41.1632 53.2999 41.0899 53.5399C41.0566 53.6732 40.9799 53.7332 40.8599 53.7199L38.6799 53.4299C38.5332 53.4032 38.4665 53.3499 38.4799 53.2699C38.5265 52.7632 38.7266 52.3066 39.0799 51.8999C39.4332 51.4932 39.9032 51.1766 40.4899 50.9499C41.0699 50.7166 41.7199 50.5999 42.4399 50.5999ZM42.0799 58.2499C42.5932 58.2499 43.0299 58.1132 43.3899 57.8399C43.7499 57.5666 43.9299 57.2132 43.9299 56.7799V56.1299C43.9299 56.0699 43.8999 56.0399 43.8399 56.0399H42.5499C42.0099 56.0399 41.5865 56.1432 41.2799 56.3499C40.9732 56.5499 40.8199 56.8366 40.8199 57.2099C40.8199 57.5366 40.9332 57.7899 41.1599 57.9699C41.3866 58.1566 41.6932 58.2499 42.0799 58.2499ZM53.9999 47.6199C53.9999 47.5599 54.0199 47.5066 54.0599 47.4599C54.0999 47.4199 54.1499 47.3999 54.2099 47.3999H56.3199C56.3799 47.3999 56.4299 47.4199 56.4699 47.4599C56.5099 47.5066 56.5299 47.5599 56.5299 47.6199V59.7799C56.5299 59.8399 56.5099 59.8932 56.4699 59.9399C56.4299 59.9799 56.3799 59.9999 56.3199 59.9999H54.2099C54.1499 59.9999 54.0999 59.9799 54.0599 59.9399C54.0199 59.8932 53.9999 59.8399 53.9999 59.7799V59.1899C53.9999 59.1566 53.9866 59.1366 53.9599 59.1299C53.9332 59.1232 53.9099 59.1299 53.8899 59.1499C53.3832 59.8099 52.6932 60.1399 51.8199 60.1399C50.9799 60.1399 50.2566 59.9066 49.6499 59.4399C49.0432 58.9732 48.6066 58.3332 48.3399 57.5199C48.1399 56.8932 48.0399 56.1666 48.0399 55.3399C48.0399 54.4866 48.1466 53.7432 48.3599 53.1099C48.6399 52.3366 49.0765 51.7266 49.6699 51.2799C50.2632 50.8266 50.9965 50.5999 51.8699 50.5999C52.7365 50.5999 53.4099 50.8999 53.8899 51.4999C53.9099 51.5399 53.9332 51.5532 53.9599 51.5399C53.9866 51.5266 53.9999 51.5032 53.9999 51.4699V47.6199ZM53.6199 57.1899C53.8599 56.7499 53.9799 56.1432 53.9799 55.3699C53.9799 54.5699 53.8466 53.9399 53.5799 53.4799C53.3066 53.0132 52.9065 52.7799 52.3799 52.7799C51.8132 52.7799 51.3866 53.0132 51.0999 53.4799C50.7999 53.9532 50.6499 54.5899 50.6499 55.3899C50.6499 56.1099 50.7766 56.7099 51.0299 57.1899C51.3299 57.7099 51.7732 57.9699 52.3599 57.9699C52.8999 57.9699 53.3199 57.7099 53.6199 57.1899ZM66.6299 54.4199C66.7032 54.8732 66.7265 55.3832 66.6999 55.9499C66.6932 56.0966 66.6166 56.1699 66.4699 56.1699H60.9099C60.8365 56.1699 60.8132 56.1999 60.8399 56.2599C60.8732 56.4999 60.9366 56.7399 61.0299 56.9799C61.3432 57.6466 61.9799 57.9799 62.9399 57.9799C63.7065 57.9732 64.3132 57.6632 64.7599 57.0499C64.8066 56.9766 64.8599 56.9399 64.9199 56.9399C64.9599 56.9399 65.0032 56.9632 65.0499 57.0099L66.3399 58.2899C66.3999 58.3499 66.4299 58.4032 66.4299 58.4499C66.4299 58.4766 66.4066 58.5266 66.3599 58.5999C65.9666 59.0866 65.4566 59.4666 64.8299 59.7399C64.2099 60.0066 63.5266 60.1399 62.7799 60.1399C61.7466 60.1399 60.8732 59.9066 60.1599 59.4399C59.4465 58.9732 58.9332 58.3199 58.6199 57.4799C58.3665 56.8799 58.2399 56.0932 58.2399 55.1199C58.2399 54.4599 58.3299 53.8799 58.5099 53.3799C58.7899 52.5266 59.2732 51.8466 59.9599 51.3399C60.6532 50.8399 61.4732 50.5899 62.4199 50.5899C63.6199 50.5899 64.5832 50.9366 65.3099 51.6299C66.0365 52.3232 66.4765 53.2532 66.6299 54.4199ZM62.4399 52.7799C61.6799 52.7799 61.1799 53.1332 60.9399 53.8399C60.8932 53.9999 60.8532 54.1932 60.8199 54.4199C60.8199 54.4799 60.8499 54.5099 60.9099 54.5099H64.0199C64.0932 54.5099 64.1165 54.4799 64.0899 54.4199C64.0299 54.0732 63.9999 53.9066 63.9999 53.9199C63.8932 53.5599 63.7065 53.2799 63.4399 53.0799C63.1665 52.8799 62.8332 52.7799 62.4399 52.7799ZM72.8799 50.6199C73.3132 50.6199 73.6532 50.7032 73.8999 50.8699C73.9999 50.9232 74.0366 51.0132 74.0099 51.1399L73.6299 53.1999C73.6232 53.3399 73.5399 53.3799 73.3799 53.3199C73.1999 53.2599 72.9899 53.2299 72.7499 53.2299C72.6566 53.2299 72.5266 53.2432 72.3599 53.2699C71.9266 53.3032 71.5599 53.4599 71.2599 53.7399C70.9599 54.0266 70.8099 54.4032 70.8099 54.8699V59.7799C70.8099 59.8399 70.7899 59.8932 70.7499 59.9399C70.7032 59.9799 70.6499 59.9999 70.5899 59.9999H68.4899C68.4299 59.9999 68.3766 59.9799 68.3299 59.9399C68.2899 59.8932 68.2699 59.8399 68.2699 59.7799V50.9599C68.2699 50.8999 68.2899 50.8499 68.3299 50.8099C68.3766 50.7699 68.4299 50.7499 68.4899 50.7499H70.5899C70.6499 50.7499 70.7032 50.7699 70.7499 50.8099C70.7899 50.8499 70.8099 50.8999 70.8099 50.9599V51.6499C70.8099 51.6832 70.8199 51.7066 70.8399 51.7199C70.8665 51.7332 70.8866 51.7266 70.8999 51.6999C71.3932 50.9799 72.0532 50.6199 72.8799 50.6199Z" fill="#252530"/>
<path d="M16.9001 75.4799C16.3801 75.4799 15.9267 75.3966 15.5401 75.2299C15.1534 75.0633 14.8534 74.8299 14.6401 74.5299C14.4334 74.2299 14.3301 73.8766 14.3301 73.4699V73.2199C14.3301 73.1866 14.3434 73.1566 14.3701 73.1299C14.3901 73.1099 14.4167 73.0999 14.4501 73.0999H15.3401C15.3734 73.0999 15.4034 73.1099 15.4301 73.1299C15.4501 73.1566 15.4601 73.1866 15.4601 73.2199V73.4099C15.4601 73.7166 15.5967 73.9699 15.8701 74.1699C16.1434 74.3766 16.5167 74.4799 16.9901 74.4799C17.3967 74.4799 17.7034 74.3933 17.9101 74.2199C18.1167 74.0466 18.2201 73.8233 18.2201 73.5499C18.2201 73.3633 18.1634 73.2033 18.0501 73.0699C17.9367 72.9433 17.7767 72.8266 17.5701 72.7199C17.3567 72.6133 17.0401 72.4799 16.6201 72.3199C16.1467 72.1466 15.7634 71.9833 15.4701 71.8299C15.1767 71.6766 14.9334 71.4666 14.7401 71.1999C14.5401 70.9399 14.4401 70.6133 14.4401 70.2199C14.4401 69.6333 14.6534 69.1699 15.0801 68.8299C15.5067 68.4899 16.0767 68.3199 16.7901 68.3199C17.2901 68.3199 17.7334 68.4066 18.1201 68.5799C18.5001 68.7533 18.7967 68.9966 19.0101 69.3099C19.2234 69.6166 19.3301 69.9733 19.3301 70.3799V70.5499C19.3301 70.5833 19.3167 70.6133 19.2901 70.6399C19.2701 70.6599 19.2434 70.6699 19.2101 70.6699H18.3101C18.2767 70.6699 18.2501 70.6599 18.2301 70.6399C18.2034 70.6133 18.1901 70.5833 18.1901 70.5499V70.4399C18.1901 70.1266 18.0634 69.8633 17.8101 69.6499C17.5501 69.4299 17.1934 69.3199 16.7401 69.3199C16.3734 69.3199 16.0901 69.3966 15.8901 69.5499C15.6834 69.7033 15.5801 69.9199 15.5801 70.1999C15.5801 70.3999 15.6334 70.5633 15.7401 70.6899C15.8467 70.8166 16.0067 70.9299 16.2201 71.0299C16.4334 71.1366 16.7634 71.2699 17.2101 71.4299C17.6834 71.6099 18.0634 71.7733 18.3501 71.9199C18.6301 72.0666 18.8734 72.2699 19.0801 72.5299C19.2801 72.7966 19.3801 73.1266 19.3801 73.5199C19.3801 74.1199 19.1567 74.5966 18.7101 74.9499C18.2701 75.3033 17.6667 75.4799 16.9001 75.4799ZM25.9101 70.2099C26.4234 70.2099 26.8267 70.3633 27.1201 70.6699C27.4067 70.9833 27.5501 71.4166 27.5501 71.9699V75.2799C27.5501 75.3133 27.5401 75.3399 27.5201 75.3599C27.4934 75.3866 27.4634 75.3999 27.4301 75.3999H26.5201C26.4867 75.3999 26.4601 75.3866 26.4401 75.3599C26.4134 75.3399 26.4001 75.3133 26.4001 75.2799V72.2099C26.4001 71.9033 26.3201 71.6599 26.1601 71.4799C25.9934 71.2999 25.7734 71.2099 25.5001 71.2099C25.2267 71.2099 25.0034 71.2999 24.8301 71.4799C24.6567 71.6599 24.5701 71.8999 24.5701 72.1999V75.2799C24.5701 75.3133 24.5601 75.3399 24.5401 75.3599C24.5134 75.3866 24.4834 75.3999 24.4501 75.3999H23.5401C23.5067 75.3999 23.4767 75.3866 23.4501 75.3599C23.4301 75.3399 23.4201 75.3133 23.4201 75.2799V72.2099C23.4201 71.9033 23.3367 71.6599 23.1701 71.4799C23.0034 71.2999 22.7834 71.2099 22.5101 71.2099C22.2567 71.2099 22.0467 71.2833 21.8801 71.4299C21.7201 71.5766 21.6267 71.7766 21.6001 72.0299V75.2799C21.6001 75.3133 21.5901 75.3399 21.5701 75.3599C21.5434 75.3866 21.5134 75.3999 21.4801 75.3999H20.5601C20.5267 75.3999 20.5001 75.3866 20.4801 75.3599C20.4534 75.3399 20.4401 75.3133 20.4401 75.2799V70.4099C20.4401 70.3766 20.4534 70.3466 20.4801 70.3199C20.5001 70.2999 20.5267 70.2899 20.5601 70.2899H21.4801C21.5134 70.2899 21.5434 70.2999 21.5701 70.3199C21.5901 70.3466 21.6001 70.3766 21.6001 70.4099V70.7399C21.6001 70.7599 21.6067 70.7733 21.6201 70.7799C21.6334 70.7866 21.6467 70.7799 21.6601 70.7599C21.8067 70.5733 21.9867 70.4366 22.2001 70.3499C22.4201 70.2566 22.6634 70.2099 22.9301 70.2099C23.2567 70.2099 23.5434 70.2766 23.7901 70.4099C24.0367 70.5433 24.2267 70.7366 24.3601 70.9899C24.3801 71.0166 24.4034 71.0166 24.4301 70.9899C24.5767 70.7233 24.7801 70.5266 25.0401 70.3999C25.3001 70.2733 25.5901 70.2099 25.9101 70.2099ZM30.6801 70.2099C31.1001 70.2099 31.4701 70.2833 31.7901 70.4299C32.1101 70.5766 32.3567 70.7766 32.5301 71.0299C32.7034 71.2899 32.7901 71.5833 32.7901 71.9099V75.2799C32.7901 75.3133 32.7801 75.3399 32.7601 75.3599C32.7334 75.3866 32.7034 75.3999 32.6701 75.3999H31.7501C31.7167 75.3999 31.6901 75.3866 31.6701 75.3599C31.6434 75.3399 31.6301 75.3133 31.6301 75.2799V74.9599C31.6301 74.9399 31.6234 74.9266 31.6101 74.9199C31.5967 74.9199 31.5834 74.9266 31.5701 74.9399C31.2434 75.2999 30.7701 75.4799 30.1501 75.4799C29.6501 75.4799 29.2401 75.3533 28.9201 75.0999C28.5934 74.8466 28.4301 74.4699 28.4301 73.9699C28.4301 73.4499 28.6134 73.0433 28.9801 72.7499C29.3401 72.4633 29.8501 72.3199 30.5101 72.3199H31.5801C31.6134 72.3199 31.6301 72.3033 31.6301 72.2699V72.0299C31.6301 71.7699 31.5534 71.5666 31.4001 71.4199C31.2467 71.2799 31.0167 71.2099 30.7101 71.2099C30.4567 71.2099 30.2534 71.2566 30.1001 71.3499C29.9401 71.4366 29.8401 71.5599 29.8001 71.7199C29.7801 71.7999 29.7334 71.8333 29.6601 71.8199L28.6901 71.6999C28.6567 71.6933 28.6301 71.6833 28.6101 71.6699C28.5834 71.6499 28.5734 71.6266 28.5801 71.5999C28.6334 71.1933 28.8534 70.8599 29.2401 70.5999C29.6201 70.3399 30.1001 70.2099 30.6801 70.2099ZM30.4401 74.5599C30.7667 74.5599 31.0467 74.4733 31.2801 74.2999C31.5134 74.1266 31.6301 73.9066 31.6301 73.6399V73.1699C31.6301 73.1366 31.6134 73.1199 31.5801 73.1199H30.7401C30.3867 73.1199 30.1101 73.1866 29.9101 73.3199C29.7034 73.4533 29.6001 73.6433 29.6001 73.8899C29.6001 74.1033 29.6801 74.2666 29.8401 74.3799C29.9934 74.4999 30.1934 74.5599 30.4401 74.5599ZM34.0701 75.3999C34.0367 75.3999 34.0101 75.3866 33.9901 75.3599C33.9634 75.3399 33.9501 75.3133 33.9501 75.2799V68.5199C33.9501 68.4866 33.9634 68.4599 33.9901 68.4399C34.0101 68.4133 34.0367 68.3999 34.0701 68.3999H34.9901C35.0234 68.3999 35.0534 68.4133 35.0801 68.4399C35.1001 68.4599 35.1101 68.4866 35.1101 68.5199V75.2799C35.1101 75.3133 35.1001 75.3399 35.0801 75.3599C35.0534 75.3866 35.0234 75.3999 34.9901 75.3999H34.0701ZM36.4601 75.3999C36.4267 75.3999 36.4001 75.3866 36.3801 75.3599C36.3534 75.3399 36.3401 75.3133 36.3401 75.2799V68.5199C36.3401 68.4866 36.3534 68.4599 36.3801 68.4399C36.4001 68.4133 36.4267 68.3999 36.4601 68.3999H37.3801C37.4134 68.3999 37.4434 68.4133 37.4701 68.4399C37.4901 68.4599 37.5001 68.4866 37.5001 68.5199V75.2799C37.5001 75.3133 37.4901 75.3399 37.4701 75.3599C37.4434 75.3866 37.4134 75.3999 37.3801 75.3999H36.4601ZM44.7501 71.7499C44.7101 71.7699 44.7101 71.7899 44.7501 71.8099C45.4301 72.1299 45.7701 72.6799 45.7701 73.4599C45.7701 74.0933 45.5601 74.5766 45.1401 74.9099C44.7134 75.2366 44.1601 75.3999 43.4801 75.3999H40.9601C40.9267 75.3999 40.9001 75.3866 40.8801 75.3599C40.8534 75.3399 40.8401 75.3133 40.8401 75.2799V68.5199C40.8401 68.4866 40.8534 68.4599 40.8801 68.4399C40.9001 68.4133 40.9267 68.3999 40.9601 68.3999H43.4001C44.1267 68.3999 44.6867 68.5566 45.0801 68.8699C45.4734 69.1833 45.6701 69.6566 45.6701 70.2899C45.6701 70.9899 45.3634 71.4766 44.7501 71.7499ZM42.0501 69.3999C42.0167 69.3999 42.0001 69.4166 42.0001 69.4499V71.2999C42.0001 71.3333 42.0167 71.3499 42.0501 71.3499H43.4001C43.7534 71.3499 44.0334 71.2666 44.2401 71.0999C44.4401 70.9266 44.5401 70.6899 44.5401 70.3899C44.5401 70.0833 44.4401 69.8399 44.2401 69.6599C44.0334 69.4866 43.7534 69.3999 43.4001 69.3999H42.0501ZM43.4801 74.3899C43.8267 74.3899 44.1034 74.2966 44.3101 74.1099C44.5101 73.9233 44.6101 73.6699 44.6101 73.3499C44.6101 73.0233 44.5067 72.7699 44.3001 72.5899C44.0934 72.4033 43.8134 72.3099 43.4601 72.3099H42.0501C42.0167 72.3099 42.0001 72.3266 42.0001 72.3599V74.3399C42.0001 74.3733 42.0167 74.3899 42.0501 74.3899H43.4801ZM49.8801 70.4099C49.8801 70.3766 49.8901 70.3466 49.9101 70.3199C49.9367 70.2999 49.9667 70.2899 50.0001 70.2899H50.9101C50.9434 70.2899 50.9734 70.2999 51.0001 70.3199C51.0201 70.3466 51.0301 70.3766 51.0301 70.4099V75.2799C51.0301 75.3133 51.0201 75.3399 51.0001 75.3599C50.9734 75.3866 50.9434 75.3999 50.9101 75.3999H50.0001C49.9667 75.3999 49.9367 75.3866 49.9101 75.3599C49.8901 75.3399 49.8801 75.3133 49.8801 75.2799V74.9599C49.8801 74.9399 49.8734 74.9266 49.8601 74.9199C49.8467 74.9133 49.8334 74.9199 49.8201 74.9399C49.5467 75.2933 49.1367 75.4699 48.5901 75.4699C48.0834 75.4699 47.6601 75.3233 47.3201 75.0299C46.9734 74.7366 46.8001 74.3199 46.8001 73.7799V70.4099C46.8001 70.3766 46.8101 70.3466 46.8301 70.3199C46.8567 70.2999 46.8867 70.2899 46.9201 70.2899H47.8401C47.8734 70.2899 47.9034 70.2999 47.9301 70.3199C47.9501 70.3466 47.9601 70.3766 47.9601 70.4099V73.4499C47.9601 73.7633 48.0434 74.0133 48.2101 74.1999C48.3701 74.3866 48.5967 74.4799 48.8901 74.4799C49.1901 74.4799 49.4301 74.3866 49.6101 74.1999C49.7901 74.0133 49.8801 73.7633 49.8801 73.4499V70.4099ZM54.1701 75.4599C53.7501 75.4599 53.3801 75.3966 53.0601 75.2699C52.7467 75.1499 52.5034 74.9799 52.3301 74.7599C52.1567 74.5466 52.0701 74.3066 52.0701 74.0399V73.9499C52.0701 73.9166 52.0801 73.8866 52.1001 73.8599C52.1267 73.8399 52.1567 73.8299 52.1901 73.8299H53.0701C53.1034 73.8299 53.1301 73.8399 53.1501 73.8599C53.1767 73.8866 53.1901 73.9166 53.1901 73.9499V73.9699C53.1901 74.1366 53.2801 74.2833 53.4601 74.4099C53.6467 74.5299 53.8801 74.5899 54.1601 74.5899C54.4267 74.5899 54.6434 74.5366 54.8101 74.4299C54.9767 74.3166 55.0601 74.1766 55.0601 74.0099C55.0601 73.8566 54.9901 73.7399 54.8501 73.6599C54.7167 73.5866 54.4967 73.5066 54.1901 73.4199L53.8101 73.2999C53.4701 73.1999 53.1834 73.0933 52.9501 72.9799C52.7167 72.8666 52.5201 72.7099 52.3601 72.5099C52.2001 72.3166 52.1201 72.0666 52.1201 71.7599C52.1201 71.2933 52.3034 70.9233 52.6701 70.6499C53.0367 70.3699 53.5201 70.2299 54.1201 70.2299C54.5267 70.2299 54.8834 70.2933 55.1901 70.4199C55.4967 70.5533 55.7334 70.7333 55.9001 70.9599C56.0667 71.1933 56.1501 71.4566 56.1501 71.7499C56.1501 71.7833 56.1367 71.8133 56.1101 71.8399C56.0901 71.8599 56.0634 71.8699 56.0301 71.8699H55.1801C55.1467 71.8699 55.1167 71.8599 55.0901 71.8399C55.0701 71.8133 55.0601 71.7833 55.0601 71.7499C55.0601 71.5766 54.9734 71.4333 54.8001 71.3199C54.6334 71.1999 54.4034 71.1399 54.1101 71.1399C53.8501 71.1399 53.6367 71.1866 53.4701 71.2799C53.3101 71.3799 53.2301 71.5166 53.2301 71.6899C53.2301 71.8499 53.3067 71.9699 53.4601 72.0499C53.6201 72.1366 53.8834 72.2299 54.2501 72.3299L54.4701 72.3899C54.8234 72.4966 55.1201 72.6033 55.3601 72.7099C55.6001 72.8233 55.8034 72.9766 55.9701 73.1699C56.1367 73.3699 56.2201 73.6266 56.2201 73.9399C56.2201 74.4133 56.0334 74.7833 55.6601 75.0499C55.2867 75.3233 54.7901 75.4599 54.1701 75.4599ZM57.8601 69.5899C57.6534 69.5899 57.4834 69.5233 57.3501 69.3899C57.2167 69.2566 57.1501 69.0866 57.1501 68.8799C57.1501 68.6733 57.2167 68.5033 57.3501 68.3699C57.4834 68.2366 57.6534 68.1699 57.8601 68.1699C58.0667 68.1699 58.2367 68.2366 58.3701 68.3699C58.5034 68.5033 58.5701 68.6733 58.5701 68.8799C58.5701 69.0866 58.5034 69.2566 58.3701 69.3899C58.2367 69.5233 58.0667 69.5899 57.8601 69.5899ZM57.3801 75.3999C57.3467 75.3999 57.3167 75.3866 57.2901 75.3599C57.2701 75.3399 57.2601 75.3133 57.2601 75.2799V70.3999C57.2601 70.3666 57.2701 70.3399 57.2901 70.3199C57.3167 70.2933 57.3467 70.2799 57.3801 70.2799H58.3001C58.3334 70.2799 58.3601 70.2933 58.3801 70.3199C58.4067 70.3399 58.4201 70.3666 58.4201 70.3999V75.2799C58.4201 75.3133 58.4067 75.3399 58.3801 75.3599C58.3601 75.3866 58.3334 75.3999 58.3001 75.3999H57.3801ZM62.2001 70.2099C62.7401 70.2099 63.1701 70.3699 63.4901 70.6899C63.8167 71.0099 63.9801 71.4466 63.9801 71.9999V75.2799C63.9801 75.3133 63.9667 75.3399 63.9401 75.3599C63.9201 75.3866 63.8934 75.3999 63.8601 75.3999H62.9401C62.9067 75.3999 62.8767 75.3866 62.8501 75.3599C62.8301 75.3399 62.8201 75.3133 62.8201 75.2799V72.2399C62.8201 71.9333 62.7334 71.6833 62.5601 71.4899C62.3867 71.3033 62.1567 71.2099 61.8701 71.2099C61.5834 71.2099 61.3501 71.3033 61.1701 71.4899C60.9967 71.6766 60.9101 71.9233 60.9101 72.2299V75.2799C60.9101 75.3133 60.8967 75.3399 60.8701 75.3599C60.8501 75.3866 60.8234 75.3999 60.7901 75.3999H59.8701C59.8367 75.3999 59.8067 75.3866 59.7801 75.3599C59.7601 75.3399 59.7501 75.3133 59.7501 75.2799V70.4099C59.7501 70.3766 59.7601 70.3466 59.7801 70.3199C59.8067 70.2999 59.8367 70.2899 59.8701 70.2899H60.7901C60.8234 70.2899 60.8501 70.2999 60.8701 70.3199C60.8967 70.3466 60.9101 70.3766 60.9101 70.4099V70.7299C60.9101 70.7499 60.9167 70.7633 60.9301 70.7699C60.9434 70.7766 60.9534 70.7699 60.9601 70.7499C61.2334 70.3899 61.6467 70.2099 62.2001 70.2099ZM69.4601 72.2699C69.4867 72.4366 69.5001 72.6233 69.5001 72.8299L69.4901 73.1399C69.4901 73.2199 69.4501 73.2599 69.3701 73.2599H66.2401C66.2067 73.2599 66.1901 73.2766 66.1901 73.3099C66.2101 73.5299 66.2401 73.6799 66.2801 73.7599C66.4401 74.2399 66.8301 74.4833 67.4501 74.4899C67.9034 74.4899 68.2634 74.3033 68.5301 73.9299C68.5567 73.8899 68.5901 73.8699 68.6301 73.8699C68.6567 73.8699 68.6801 73.8799 68.7001 73.8999L69.3201 74.4099C69.3801 74.4566 69.3901 74.5099 69.3501 74.5699C69.1434 74.8633 68.8667 75.0899 68.5201 75.2499C68.1801 75.4099 67.8001 75.4899 67.3801 75.4899C66.8601 75.4899 66.4167 75.3733 66.0501 75.1399C65.6901 74.9066 65.4267 74.5799 65.2601 74.1599C65.1067 73.7999 65.0301 73.2999 65.0301 72.6599C65.0301 72.2733 65.0701 71.9599 65.1501 71.7199C65.2834 71.2533 65.5334 70.8833 65.9001 70.6099C66.2734 70.3433 66.7201 70.2099 67.2401 70.2099C68.5534 70.2099 69.2934 70.8966 69.4601 72.2699ZM67.2401 71.2099C66.9934 71.2099 66.7867 71.2733 66.6201 71.3999C66.4601 71.5199 66.3467 71.6899 66.2801 71.9099C66.2401 72.0233 66.2134 72.1699 66.2001 72.3499C66.1867 72.3833 66.2001 72.3999 66.2401 72.3999H68.2701C68.3034 72.3999 68.3201 72.3833 68.3201 72.3499C68.3067 72.1833 68.2867 72.0566 68.2601 71.9699C68.2001 71.7299 68.0801 71.5433 67.9001 71.4099C67.7267 71.2766 67.5067 71.2099 67.2401 71.2099ZM72.3801 75.4599C71.9601 75.4599 71.5901 75.3966 71.2701 75.2699C70.9567 75.1499 70.7134 74.9799 70.5401 74.7599C70.3667 74.5466 70.2801 74.3066 70.2801 74.0399V73.9499C70.2801 73.9166 70.2901 73.8866 70.3101 73.8599C70.3367 73.8399 70.3667 73.8299 70.4001 73.8299H71.2801C71.3134 73.8299 71.3401 73.8399 71.3601 73.8599C71.3867 73.8866 71.4001 73.9166 71.4001 73.9499V73.9699C71.4001 74.1366 71.4901 74.2833 71.6701 74.4099C71.8567 74.5299 72.0901 74.5899 72.3701 74.5899C72.6367 74.5899 72.8534 74.5366 73.0201 74.4299C73.1867 74.3166 73.2701 74.1766 73.2701 74.0099C73.2701 73.8566 73.2001 73.7399 73.0601 73.6599C72.9267 73.5866 72.7067 73.5066 72.4001 73.4199L72.0201 73.2999C71.6801 73.1999 71.3934 73.0933 71.1601 72.9799C70.9267 72.8666 70.7301 72.7099 70.5701 72.5099C70.4101 72.3166 70.3301 72.0666 70.3301 71.7599C70.3301 71.2933 70.5134 70.9233 70.8801 70.6499C71.2467 70.3699 71.7301 70.2299 72.3301 70.2299C72.7367 70.2299 73.0934 70.2933 73.4001 70.4199C73.7067 70.5533 73.9434 70.7333 74.1101 70.9599C74.2767 71.1933 74.3601 71.4566 74.3601 71.7499C74.3601 71.7833 74.3467 71.8133 74.3201 71.8399C74.3001 71.8599 74.2734 71.8699 74.2401 71.8699H73.3901C73.3567 71.8699 73.3267 71.8599 73.3001 71.8399C73.2801 71.8133 73.2701 71.7833 73.2701 71.7499C73.2701 71.5766 73.1834 71.4333 73.0101 71.3199C72.8434 71.1999 72.6134 71.1399 72.3201 71.1399C72.0601 71.1399 71.8467 71.1866 71.6801 71.2799C71.5201 71.3799 71.4401 71.5166 71.4401 71.6899C71.4401 71.8499 71.5167 71.9699 71.6701 72.0499C71.8301 72.1366 72.0934 72.2299 72.4601 72.3299L72.6801 72.3899C73.0334 72.4966 73.3301 72.6033 73.5701 72.7099C73.8101 72.8233 74.0134 72.9766 74.1801 73.1699C74.3467 73.3699 74.4301 73.6266 74.4301 73.9399C74.4301 74.4133 74.2434 74.7833 73.8701 75.0499C73.4967 75.3233 73.0001 75.4599 72.3801 75.4599ZM77.2101 75.4599C76.7901 75.4599 76.4201 75.3966 76.1001 75.2699C75.7867 75.1499 75.5434 74.9799 75.3701 74.7599C75.1967 74.5466 75.1101 74.3066 75.1101 74.0399V73.9499C75.1101 73.9166 75.1201 73.8866 75.1401 73.8599C75.1667 73.8399 75.1967 73.8299 75.2301 73.8299H76.1101C76.1434 73.8299 76.1701 73.8399 76.1901 73.8599C76.2167 73.8866 76.2301 73.9166 76.2301 73.9499V73.9699C76.2301 74.1366 76.3201 74.2833 76.5001 74.4099C76.6867 74.5299 76.9201 74.5899 77.2001 74.5899C77.4667 74.5899 77.6834 74.5366 77.8501 74.4299C78.0167 74.3166 78.1001 74.1766 78.1001 74.0099C78.1001 73.8566 78.0301 73.7399 77.8901 73.6599C77.7567 73.5866 77.5367 73.5066 77.2301 73.4199L76.8501 73.2999C76.5101 73.1999 76.2234 73.0933 75.9901 72.9799C75.7567 72.8666 75.5601 72.7099 75.4001 72.5099C75.2401 72.3166 75.1601 72.0666 75.1601 71.7599C75.1601 71.2933 75.3434 70.9233 75.7101 70.6499C76.0767 70.3699 76.5601 70.2299 77.1601 70.2299C77.5667 70.2299 77.9234 70.2933 78.2301 70.4199C78.5367 70.5533 78.7734 70.7333 78.9401 70.9599C79.1067 71.1933 79.1901 71.4566 79.1901 71.7499C79.1901 71.7833 79.1767 71.8133 79.1501 71.8399C79.1301 71.8599 79.1034 71.8699 79.0701 71.8699H78.2201C78.1867 71.8699 78.1567 71.8599 78.1301 71.8399C78.1101 71.8133 78.1001 71.7833 78.1001 71.7499C78.1001 71.5766 78.0134 71.4333 77.8401 71.3199C77.6734 71.1999 77.4434 71.1399 77.1501 71.1399C76.8901 71.1399 76.6767 71.1866 76.5101 71.2799C76.3501 71.3799 76.2701 71.5166 76.2701 71.6899C76.2701 71.8499 76.3467 71.9699 76.5001 72.0499C76.6601 72.1366 76.9234 72.2299 77.2901 72.3299L77.5101 72.3899C77.8634 72.4966 78.1601 72.6033 78.4001 72.7099C78.6401 72.8233 78.8434 72.9766 79.0101 73.1699C79.1767 73.3699 79.2601 73.6266 79.2601 73.9399C79.2601 74.4133 79.0734 74.7833 78.7001 75.0499C78.3267 75.3233 77.8301 75.4599 77.2101 75.4599Z" fill="white"/>
<path d="M31.1602 89.5C31.0869 89.5 31.0402 89.4667 31.0202 89.4L29.2502 82.63L29.2402 82.59C29.2402 82.53 29.2769 82.5 29.3502 82.5H30.5902C30.6569 82.5 30.7002 82.5333 30.7202 82.6L31.6702 86.67C31.6769 86.6967 31.6869 86.71 31.7002 86.71C31.7136 86.71 31.7236 86.6967 31.7302 86.67L32.6502 82.61C32.6702 82.5367 32.7136 82.5 32.7802 82.5H33.9902C34.0636 82.5 34.1102 82.5333 34.1302 82.6L35.1302 86.67C35.1369 86.69 35.1469 86.7033 35.1602 86.71C35.1736 86.71 35.1836 86.6967 35.1902 86.67L36.1102 82.61C36.1302 82.5367 36.1736 82.5 36.2402 82.5H37.4202C37.5136 82.5 37.5502 82.5433 37.5302 82.63L35.8902 89.4C35.8702 89.4667 35.8236 89.5 35.7502 89.5H34.5602C34.4936 89.5 34.4502 89.4667 34.4302 89.4L33.4102 85.07C33.4036 85.0433 33.3936 85.03 33.3802 85.03C33.3669 85.03 33.3569 85.0433 33.3502 85.07L32.4002 89.39C32.3869 89.4633 32.3436 89.5 32.2702 89.5H31.1602ZM38.5002 89.5C38.4669 89.5 38.4369 89.4867 38.4102 89.46C38.3902 89.44 38.3802 89.4133 38.3802 89.38V82.62C38.3802 82.5867 38.3902 82.56 38.4102 82.54C38.4369 82.5133 38.4669 82.5 38.5002 82.5H39.6702C39.7036 82.5 39.7302 82.5133 39.7502 82.54C39.7769 82.56 39.7902 82.5867 39.7902 82.62V89.38C39.7902 89.4133 39.7769 89.44 39.7502 89.46C39.7302 89.4867 39.7036 89.5 39.6702 89.5H38.5002ZM45.0302 82.62C45.0302 82.5867 45.0402 82.56 45.0602 82.54C45.0869 82.5133 45.1169 82.5 45.1502 82.5H46.3202C46.3536 82.5 46.3802 82.5133 46.4002 82.54C46.4269 82.56 46.4402 82.5867 46.4402 82.62V89.38C46.4402 89.4133 46.4269 89.44 46.4002 89.46C46.3802 89.4867 46.3536 89.5 46.3202 89.5H45.1902C45.1236 89.5 45.0769 89.4733 45.0502 89.42L42.4602 85.14C42.4469 85.12 42.4336 85.1133 42.4202 85.12C42.4069 85.12 42.4002 85.1333 42.4002 85.16L42.4202 89.38C42.4202 89.4133 42.4069 89.44 42.3802 89.46C42.3602 89.4867 42.3336 89.5 42.3002 89.5H41.1302C41.0969 89.5 41.0669 89.4867 41.0402 89.46C41.0202 89.44 41.0102 89.4133 41.0102 89.38V82.62C41.0102 82.5867 41.0202 82.56 41.0402 82.54C41.0669 82.5133 41.0969 82.5 41.1302 82.5H42.2602C42.3269 82.5 42.3736 82.5267 42.4002 82.58L44.9802 86.84C44.9936 86.86 45.0069 86.8667 45.0202 86.86C45.0336 86.86 45.0402 86.8467 45.0402 86.82L45.0302 82.62ZM52.4902 82.5C52.5236 82.5 52.5502 82.5133 52.5702 82.54C52.5969 82.56 52.6102 82.5867 52.6102 82.62V83.6C52.6102 83.6333 52.5969 83.66 52.5702 83.68C52.5502 83.7067 52.5236 83.72 52.4902 83.72H50.7002C50.6669 83.72 50.6502 83.7367 50.6502 83.77V89.38C50.6502 89.4133 50.6369 89.44 50.6102 89.46C50.5902 89.4867 50.5636 89.5 50.5302 89.5H49.3602C49.3269 89.5 49.2969 89.4867 49.2702 89.46C49.2502 89.44 49.2402 89.4133 49.2402 89.38V83.77C49.2402 83.7367 49.2236 83.72 49.1902 83.72H47.4502C47.4169 83.72 47.3869 83.7067 47.3602 83.68C47.3402 83.66 47.3302 83.6333 47.3302 83.6V82.62C47.3302 82.5867 47.3402 82.56 47.3602 82.54C47.3869 82.5133 47.4169 82.5 47.4502 82.5H52.4902ZM58.3702 83.59C58.3702 83.6233 58.3602 83.65 58.3402 83.67C58.3136 83.6967 58.2836 83.71 58.2502 83.71H54.9702C54.9369 83.71 54.9202 83.7267 54.9202 83.76V85.31C54.9202 85.3433 54.9369 85.36 54.9702 85.36H57.1202C57.1536 85.36 57.1802 85.37 57.2002 85.39C57.2269 85.4167 57.2402 85.4467 57.2402 85.48V86.45C57.2402 86.4833 57.2269 86.5133 57.2002 86.54C57.1802 86.56 57.1536 86.57 57.1202 86.57H54.9702C54.9369 86.57 54.9202 86.5867 54.9202 86.62V88.24C54.9202 88.2733 54.9369 88.29 54.9702 88.29H58.2502C58.2836 88.29 58.3136 88.3 58.3402 88.32C58.3602 88.3467 58.3702 88.3767 58.3702 88.41V89.38C58.3702 89.4133 58.3602 89.44 58.3402 89.46C58.3136 89.4867 58.2836 89.5 58.2502 89.5H53.6302C53.5969 89.5 53.5669 89.4867 53.5402 89.46C53.5202 89.44 53.5102 89.4133 53.5102 89.38V82.62C53.5102 82.5867 53.5202 82.56 53.5402 82.54C53.5669 82.5133 53.5969 82.5 53.6302 82.5H58.2502C58.2836 82.5 58.3136 82.5133 58.3402 82.54C58.3602 82.56 58.3702 82.5867 58.3702 82.62V83.59ZM63.1902 89.5C63.1236 89.5 63.0769 89.47 63.0502 89.41L61.8002 86.64C61.7869 86.6133 61.7669 86.6 61.7402 86.6H60.8102C60.7769 86.6 60.7602 86.6167 60.7602 86.65V89.38C60.7602 89.4133 60.7469 89.44 60.7202 89.46C60.7002 89.4867 60.6736 89.5 60.6402 89.5H59.4702C59.4369 89.5 59.4069 89.4867 59.3802 89.46C59.3602 89.44 59.3502 89.4133 59.3502 89.38V82.62C59.3502 82.5867 59.3602 82.56 59.3802 82.54C59.4069 82.5133 59.4369 82.5 59.4702 82.5H62.3302C62.7569 82.5 63.1302 82.5867 63.4502 82.76C63.7769 82.9333 64.0269 83.18 64.2002 83.5C64.3802 83.82 64.4702 84.19 64.4702 84.61C64.4702 85.0633 64.3569 85.45 64.1302 85.77C63.9036 86.0967 63.5869 86.3267 63.1802 86.46C63.1469 86.4733 63.1369 86.4967 63.1502 86.53L64.5102 89.36C64.5236 89.3867 64.5302 89.4067 64.5302 89.42C64.5302 89.4733 64.4936 89.5 64.4202 89.5H63.1902ZM60.8102 83.71C60.7769 83.71 60.7602 83.7267 60.7602 83.76V85.47C60.7602 85.5033 60.7769 85.52 60.8102 85.52H62.1202C62.4002 85.52 62.6269 85.4367 62.8002 85.27C62.9802 85.1033 63.0702 84.8867 63.0702 84.62C63.0702 84.3533 62.9802 84.1333 62.8002 83.96C62.6269 83.7933 62.4002 83.71 62.1202 83.71H60.8102ZM38.0602 97.63C38.0469 97.6433 38.0436 97.6567 38.0502 97.67C38.0569 97.6833 38.0702 97.69 38.0902 97.69H40.8002C40.8336 97.69 40.8636 97.7 40.8902 97.72C40.9102 97.7467 40.9202 97.7767 40.9202 97.81V98.78C40.9202 98.8133 40.9102 98.84 40.8902 98.86C40.8636 98.8867 40.8336 98.9 40.8002 98.9H36.3002C36.2669 98.9 36.2369 98.8867 36.2102 98.86C36.1902 98.84 36.1802 98.8133 36.1802 98.78V97.86C36.1802 97.8 36.2002 97.75 36.2402 97.71C36.5669 97.39 36.9002 97.0433 37.2402 96.67C37.5802 96.29 37.7936 96.0533 37.8802 95.96C38.0669 95.74 38.2569 95.53 38.4502 95.33C39.0569 94.6567 39.3602 94.1567 39.3602 93.83C39.3602 93.5967 39.2769 93.4033 39.1102 93.25C38.9436 93.1033 38.7269 93.03 38.4602 93.03C38.1936 93.03 37.9769 93.1033 37.8102 93.25C37.6436 93.4033 37.5602 93.6033 37.5602 93.85V94.1C37.5602 94.1333 37.5469 94.1633 37.5202 94.19C37.5002 94.21 37.4736 94.22 37.4402 94.22H36.2602C36.2269 94.22 36.2002 94.21 36.1802 94.19C36.1536 94.1633 36.1402 94.1333 36.1402 94.1V93.63C36.1602 93.27 36.2736 92.95 36.4802 92.67C36.6869 92.3967 36.9602 92.1867 37.3002 92.04C37.6469 91.8933 38.0336 91.82 38.4602 91.82C38.9336 91.82 39.3469 91.9067 39.7002 92.08C40.0469 92.26 40.3169 92.5 40.5102 92.8C40.6969 93.1 40.7902 93.4333 40.7902 93.8C40.7902 94.08 40.7202 94.3667 40.5802 94.66C40.4402 94.9533 40.2302 95.27 39.9502 95.61C39.7436 95.87 39.5202 96.1267 39.2802 96.38C39.0402 96.6333 38.6836 97 38.2102 97.48L38.0602 97.63ZM44.1702 99.01C43.4369 99.01 42.8569 98.8033 42.4302 98.39C42.0036 97.9833 41.7902 97.4267 41.7902 96.72V94.08C41.7902 93.3867 42.0036 92.8367 42.4302 92.43C42.8569 92.0233 43.4369 91.82 44.1702 91.82C44.9036 91.82 45.4869 92.0233 45.9202 92.43C46.3469 92.8367 46.5602 93.3867 46.5602 94.08V96.72C46.5602 97.4267 46.3469 97.9833 45.9202 98.39C45.4869 98.8033 44.9036 99.01 44.1702 99.01ZM44.1702 97.8C44.4702 97.8 44.7102 97.7067 44.8902 97.52C45.0636 97.34 45.1502 97.0967 45.1502 96.79V94.04C45.1502 93.7333 45.0636 93.49 44.8902 93.31C44.7102 93.1233 44.4702 93.03 44.1702 93.03C43.8769 93.03 43.6436 93.1233 43.4702 93.31C43.2902 93.49 43.2002 93.7333 43.2002 94.04V96.79C43.2002 97.0967 43.2902 97.34 43.4702 97.52C43.6436 97.7067 43.8769 97.8 44.1702 97.8ZM49.3602 97.63C49.3469 97.6433 49.3436 97.6567 49.3502 97.67C49.3569 97.6833 49.3702 97.69 49.3902 97.69H52.1002C52.1336 97.69 52.1636 97.7 52.1902 97.72C52.2102 97.7467 52.2202 97.7767 52.2202 97.81V98.78C52.2202 98.8133 52.2102 98.84 52.1902 98.86C52.1636 98.8867 52.1336 98.9 52.1002 98.9H47.6002C47.5669 98.9 47.5402 98.8867 47.5202 98.86C47.4936 98.84 47.4802 98.8133 47.4802 98.78V97.86C47.4802 97.8 47.5002 97.75 47.5402 97.71C47.8669 97.39 48.2002 97.0433 48.5402 96.67C48.8802 96.29 49.0936 96.0533 49.1802 95.96C49.3669 95.74 49.5569 95.53 49.7502 95.33C50.3569 94.6567 50.6602 94.1567 50.6602 93.83C50.6602 93.5967 50.5769 93.4033 50.4102 93.25C50.2436 93.1033 50.0269 93.03 49.7602 93.03C49.4936 93.03 49.2769 93.1033 49.1102 93.25C48.9436 93.4033 48.8602 93.6033 48.8602 93.85V94.1C48.8602 94.1333 48.8502 94.1633 48.8302 94.19C48.8036 94.21 48.7736 94.22 48.7402 94.22H47.5602C47.5269 94.22 47.5002 94.21 47.4802 94.19C47.4536 94.1633 47.4402 94.1333 47.4402 94.1V93.63C47.4602 93.27 47.5736 92.95 47.7802 92.67C47.9869 92.3967 48.2636 92.1867 48.6102 92.04C48.9502 91.8933 49.3336 91.82 49.7602 91.82C50.2336 91.82 50.6469 91.9067 51.0002 92.08C51.3469 92.26 51.6169 92.5 51.8102 92.8C51.9969 93.1 52.0902 93.4333 52.0902 93.8C52.0902 94.08 52.0202 94.3667 51.8802 94.66C51.7402 94.9533 51.5302 95.27 51.2502 95.61C51.0436 95.87 50.8202 96.1267 50.5802 96.38C50.3402 96.6333 49.9836 97 49.5102 97.48L49.3602 97.63ZM57.2602 95.56C57.3936 95.8667 57.4602 96.22 57.4602 96.62C57.4602 96.98 57.4002 97.3133 57.2802 97.62C57.1202 98.0467 56.8536 98.38 56.4802 98.62C56.1002 98.86 55.6536 98.98 55.1402 98.98C54.6336 98.98 54.1902 98.8533 53.8102 98.6C53.4236 98.3467 53.1469 98.0033 52.9802 97.57C52.8869 97.31 52.8336 97.03 52.8202 96.73C52.8202 96.65 52.8602 96.61 52.9402 96.61H54.1202C54.2002 96.61 54.2402 96.65 54.2402 96.73C54.2669 96.95 54.3036 97.1133 54.3502 97.22C54.4102 97.3933 54.5102 97.5267 54.6502 97.62C54.7836 97.72 54.9436 97.77 55.1302 97.77C55.5036 97.77 55.7602 97.6067 55.9002 97.28C55.9936 97.08 56.0402 96.8467 56.0402 96.58C56.0402 96.2667 55.9902 96.01 55.8902 95.81C55.7369 95.4967 55.4802 95.34 55.1202 95.34C55.0469 95.34 54.9702 95.36 54.8902 95.4C54.8102 95.4467 54.7136 95.51 54.6002 95.59C54.5736 95.61 54.5469 95.62 54.5202 95.62C54.4802 95.62 54.4502 95.6 54.4302 95.56L53.8402 94.73C53.8269 94.71 53.8202 94.6867 53.8202 94.66C53.8202 94.62 53.8336 94.5867 53.8602 94.56L55.4502 93.17C55.4636 93.1567 55.4702 93.1433 55.4702 93.13C55.4636 93.1167 55.4502 93.11 55.4302 93.11H53.0802C53.0469 93.11 53.0202 93.0967 53.0002 93.07C52.9736 93.05 52.9602 93.0233 52.9602 92.99V92.02C52.9602 91.9867 52.9736 91.96 53.0002 91.94C53.0202 91.9133 53.0469 91.9 53.0802 91.9H57.2502C57.2836 91.9 57.3136 91.9133 57.3402 91.94C57.3602 91.96 57.3702 91.9867 57.3702 92.02V93.12C57.3702 93.1733 57.3469 93.2233 57.3002 93.27L55.9902 94.47C55.9769 94.4833 55.9736 94.4967 55.9802 94.51C55.9802 94.5233 55.9936 94.53 56.0202 94.53C56.6002 94.6433 57.0136 94.9867 57.2602 95.56Z" fill="#252530"/>
</svg>
