<svg width="94" height="122" viewBox="0 0 94 122" fill="none" xmlns="http://www.w3.org/2000/svg">
<path d="M8.09961 89.8998L47.5996 110L85.5996 89.8998V11.2998H8.09961V89.8998Z" fill="white"/>
<path d="M86.3998 11.6001L7.2998 91.3001L48.2998 111.6L86.3998 92.1001V11.6001Z" fill="#F2F3F2"/>
<path d="M5.5 37.5002V91.6002L6.9 92.3002L46.4 112.4L47.6 113L48.8 112.4L86.9 92.3002L88.3 91.6002V8.7002H5.5V37.5002ZM8.1 90.1002V11.3002H85.7V90.1002L47.6 110.2L8.1 90.1002Z" fill="#DCDEDC"/>
<path d="M46.9004 12.6002C47.3004 12.6002 47.7004 12.6002 48.1004 12.7002L46.9004 15.0002C45.1004 14.9002 43.5004 16.3002 43.4004 18.1002C43.3004 19.9002 44.7004 21.5002 46.5004 21.6002H46.9004C47.7004 21.6002 48.5004 21.3002 49.1004 20.8002L50.4004 23.0002C49.4004 23.7002 48.2004 24.1002 46.9004 24.1002C43.7004 24.2002 41.0004 21.8002 40.9004 18.6002C40.8004 15.4002 43.2004 12.7002 46.4004 12.6002H46.9004ZM51.0004 17.5002L52.5004 20.0002L51.0004 22.4002L49.6004 20.0002H46.7004L48.2004 17.5002H51.0004ZM48.6004 16.6002C48.6004 16.2002 48.7004 15.8002 48.9004 15.5002C49.1004 15.2002 49.5004 14.9002 49.8004 14.7002L50.0004 14.6002C50.4004 14.4002 50.5004 14.3002 50.5004 14.1002C50.5004 13.9002 50.2004 13.7002 50.0004 13.7002C49.6004 13.7002 49.3004 13.9002 49.1004 14.3002L48.6004 13.8002C48.7004 13.6002 48.9004 13.4002 49.1004 13.2002C49.4004 13.0002 49.7004 13.0002 50.0004 13.0002C50.3004 13.0002 50.7004 13.1002 50.9004 13.3002C51.1004 13.5002 51.3004 13.8002 51.3004 14.1002C51.3004 14.6002 51.0004 15.0002 50.4004 15.2002L50.1004 15.4002C49.8004 15.6002 49.6004 15.7002 49.5004 16.0002H51.3004V16.7002L48.6004 16.6002ZM46.9004 29.1002L56.4004 23.7002V8.7002H37.3004V23.6002L46.9004 29.1002ZM90.2004 64.5002H3.60039L0.400391 71.5002L3.60039 78.5002H90.2004L93.3004 71.5002L90.2004 64.5002Z" fill="#FF492C"/>
<path d="M19.0899 59.9999C19.0299 59.9999 18.9799 59.9799 18.9399 59.9399C18.8999 59.8932 18.8799 59.8399 18.8799 59.7799V47.6199C18.8799 47.5599 18.8999 47.5066 18.9399 47.4599C18.9799 47.4199 19.0299 47.3999 19.0899 47.3999H21.1999C21.2599 47.3999 21.3099 47.4199 21.3499 47.4599C21.3966 47.5066 21.4199 47.5599 21.4199 47.6199V57.7299C21.4199 57.7899 21.4499 57.8199 21.5099 57.8199H27.3899C27.4499 57.8199 27.5032 57.8399 27.5499 57.8799C27.5899 57.9266 27.6099 57.9799 27.6099 58.0399V59.7799C27.6099 59.8399 27.5899 59.8932 27.5499 59.9399C27.5032 59.9799 27.4499 59.9999 27.3899 59.9999H19.0899ZM37.1999 54.4199C37.2732 54.8732 37.2966 55.3832 37.2699 55.9499C37.2632 56.0966 37.1866 56.1699 37.0399 56.1699H31.4799C31.4065 56.1699 31.3832 56.1999 31.4099 56.2599C31.4432 56.4999 31.5066 56.7399 31.5999 56.9799C31.9132 57.6466 32.5499 57.9799 33.5099 57.9799C34.2765 57.9732 34.8832 57.6632 35.3299 57.0499C35.3766 56.9766 35.4299 56.9399 35.4899 56.9399C35.5299 56.9399 35.5732 56.9632 35.6199 57.0099L36.9099 58.2899C36.9699 58.3499 36.9999 58.4032 36.9999 58.4499C36.9999 58.4766 36.9766 58.5266 36.9299 58.5999C36.5366 59.0866 36.0266 59.4666 35.3999 59.7399C34.7799 60.0066 34.0965 60.1399 33.3499 60.1399C32.3165 60.1399 31.4432 59.9066 30.7299 59.4399C30.0165 58.9732 29.5032 58.3199 29.1899 57.4799C28.9366 56.8799 28.8099 56.0932 28.8099 55.1199C28.8099 54.4599 28.8999 53.8799 29.0799 53.3799C29.3599 52.5266 29.8432 51.8466 30.5299 51.3399C31.2232 50.8399 32.0432 50.5899 32.9899 50.5899C34.1899 50.5899 35.1532 50.9366 35.8799 51.6299C36.6066 52.3232 37.0466 53.2532 37.1999 54.4199ZM33.0099 52.7799C32.2499 52.7799 31.7499 53.1332 31.5099 53.8399C31.4632 53.9999 31.4232 54.1932 31.3899 54.4199C31.3899 54.4799 31.4199 54.5099 31.4799 54.5099H34.5899C34.6632 54.5099 34.6866 54.4799 34.6599 54.4199C34.5999 54.0732 34.5699 53.9066 34.5699 53.9199C34.4632 53.5599 34.2765 53.2799 34.0099 53.0799C33.7365 52.8799 33.4032 52.7799 33.0099 52.7799ZM42.4399 50.5999C43.2199 50.5999 43.9165 50.7366 44.5299 51.0099C45.1432 51.2766 45.6199 51.6466 45.9599 52.1199C46.2999 52.5866 46.4699 53.1066 46.4699 53.6799V59.7799C46.4699 59.8399 46.4499 59.8932 46.4099 59.9399C46.3699 59.9799 46.3199 59.9999 46.2599 59.9999H44.1499C44.0899 59.9999 44.0399 59.9799 43.9999 59.9399C43.9532 59.8932 43.9299 59.8399 43.9299 59.7799V59.1899C43.9299 59.1566 43.9199 59.1332 43.8999 59.1199C43.8732 59.1066 43.8499 59.1166 43.8299 59.1499C43.3232 59.8099 42.5132 60.1399 41.3999 60.1399C40.4599 60.1399 39.7032 59.9132 39.1299 59.4599C38.5499 59.0066 38.2599 58.3332 38.2599 57.4399C38.2599 56.5199 38.5866 55.8032 39.2399 55.2899C39.8866 54.7832 40.8099 54.5299 42.0099 54.5299H43.8399C43.8999 54.5299 43.9299 54.4999 43.9299 54.4399V54.0399C43.9299 53.6466 43.8099 53.3366 43.5699 53.1099C43.3299 52.8899 42.9699 52.7799 42.4899 52.7799C42.1232 52.7799 41.8166 52.8466 41.5699 52.9799C41.3232 53.1132 41.1632 53.2999 41.0899 53.5399C41.0566 53.6732 40.9799 53.7332 40.8599 53.7199L38.6799 53.4299C38.5332 53.4032 38.4665 53.3499 38.4799 53.2699C38.5265 52.7632 38.7266 52.3066 39.0799 51.8999C39.4332 51.4932 39.9032 51.1766 40.4899 50.9499C41.0699 50.7166 41.7199 50.5999 42.4399 50.5999ZM42.0799 58.2499C42.5932 58.2499 43.0299 58.1132 43.3899 57.8399C43.7499 57.5666 43.9299 57.2132 43.9299 56.7799V56.1299C43.9299 56.0699 43.8999 56.0399 43.8399 56.0399H42.5499C42.0099 56.0399 41.5865 56.1432 41.2799 56.3499C40.9732 56.5499 40.8199 56.8366 40.8199 57.2099C40.8199 57.5366 40.9332 57.7899 41.1599 57.9699C41.3866 58.1566 41.6932 58.2499 42.0799 58.2499ZM53.9999 47.6199C53.9999 47.5599 54.0199 47.5066 54.0599 47.4599C54.0999 47.4199 54.1499 47.3999 54.2099 47.3999H56.3199C56.3799 47.3999 56.4299 47.4199 56.4699 47.4599C56.5099 47.5066 56.5299 47.5599 56.5299 47.6199V59.7799C56.5299 59.8399 56.5099 59.8932 56.4699 59.9399C56.4299 59.9799 56.3799 59.9999 56.3199 59.9999H54.2099C54.1499 59.9999 54.0999 59.9799 54.0599 59.9399C54.0199 59.8932 53.9999 59.8399 53.9999 59.7799V59.1899C53.9999 59.1566 53.9866 59.1366 53.9599 59.1299C53.9332 59.1232 53.9099 59.1299 53.8899 59.1499C53.3832 59.8099 52.6932 60.1399 51.8199 60.1399C50.9799 60.1399 50.2566 59.9066 49.6499 59.4399C49.0432 58.9732 48.6066 58.3332 48.3399 57.5199C48.1399 56.8932 48.0399 56.1666 48.0399 55.3399C48.0399 54.4866 48.1466 53.7432 48.3599 53.1099C48.6399 52.3366 49.0765 51.7266 49.6699 51.2799C50.2632 50.8266 50.9965 50.5999 51.8699 50.5999C52.7365 50.5999 53.4099 50.8999 53.8899 51.4999C53.9099 51.5399 53.9332 51.5532 53.9599 51.5399C53.9866 51.5266 53.9999 51.5032 53.9999 51.4699V47.6199ZM53.6199 57.1899C53.8599 56.7499 53.9799 56.1432 53.9799 55.3699C53.9799 54.5699 53.8466 53.9399 53.5799 53.4799C53.3066 53.0132 52.9065 52.7799 52.3799 52.7799C51.8132 52.7799 51.3866 53.0132 51.0999 53.4799C50.7999 53.9532 50.6499 54.5899 50.6499 55.3899C50.6499 56.1099 50.7766 56.7099 51.0299 57.1899C51.3299 57.7099 51.7732 57.9699 52.3599 57.9699C52.8999 57.9699 53.3199 57.7099 53.6199 57.1899ZM66.6299 54.4199C66.7032 54.8732 66.7265 55.3832 66.6999 55.9499C66.6932 56.0966 66.6166 56.1699 66.4699 56.1699H60.9099C60.8365 56.1699 60.8132 56.1999 60.8399 56.2599C60.8732 56.4999 60.9366 56.7399 61.0299 56.9799C61.3432 57.6466 61.9799 57.9799 62.9399 57.9799C63.7065 57.9732 64.3132 57.6632 64.7599 57.0499C64.8066 56.9766 64.8599 56.9399 64.9199 56.9399C64.9599 56.9399 65.0032 56.9632 65.0499 57.0099L66.3399 58.2899C66.3999 58.3499 66.4299 58.4032 66.4299 58.4499C66.4299 58.4766 66.4066 58.5266 66.3599 58.5999C65.9666 59.0866 65.4566 59.4666 64.8299 59.7399C64.2099 60.0066 63.5266 60.1399 62.7799 60.1399C61.7466 60.1399 60.8732 59.9066 60.1599 59.4399C59.4465 58.9732 58.9332 58.3199 58.6199 57.4799C58.3665 56.8799 58.2399 56.0932 58.2399 55.1199C58.2399 54.4599 58.3299 53.8799 58.5099 53.3799C58.7899 52.5266 59.2732 51.8466 59.9599 51.3399C60.6532 50.8399 61.4732 50.5899 62.4199 50.5899C63.6199 50.5899 64.5832 50.9366 65.3099 51.6299C66.0365 52.3232 66.4765 53.2532 66.6299 54.4199ZM62.4399 52.7799C61.6799 52.7799 61.1799 53.1332 60.9399 53.8399C60.8932 53.9999 60.8532 54.1932 60.8199 54.4199C60.8199 54.4799 60.8499 54.5099 60.9099 54.5099H64.0199C64.0932 54.5099 64.1165 54.4799 64.0899 54.4199C64.0299 54.0732 63.9999 53.9066 63.9999 53.9199C63.8932 53.5599 63.7065 53.2799 63.4399 53.0799C63.1665 52.8799 62.8332 52.7799 62.4399 52.7799ZM72.8799 50.6199C73.3132 50.6199 73.6532 50.7032 73.8999 50.8699C73.9999 50.9232 74.0366 51.0132 74.0099 51.1399L73.6299 53.1999C73.6232 53.3399 73.5399 53.3799 73.3799 53.3199C73.1999 53.2599 72.9899 53.2299 72.7499 53.2299C72.6566 53.2299 72.5266 53.2432 72.3599 53.2699C71.9266 53.3032 71.5599 53.4599 71.2599 53.7399C70.9599 54.0266 70.8099 54.4032 70.8099 54.8699V59.7799C70.8099 59.8399 70.7899 59.8932 70.7499 59.9399C70.7032 59.9799 70.6499 59.9999 70.5899 59.9999H68.4899C68.4299 59.9999 68.3766 59.9799 68.3299 59.9399C68.2899 59.8932 68.2699 59.8399 68.2699 59.7799V50.9599C68.2699 50.8999 68.2899 50.8499 68.3299 50.8099C68.3766 50.7699 68.4299 50.7499 68.4899 50.7499H70.5899C70.6499 50.7499 70.7032 50.7699 70.7499 50.8099C70.7899 50.8499 70.8099 50.8999 70.8099 50.9599V51.6499C70.8099 51.6832 70.8199 51.7066 70.8399 51.7199C70.8665 51.7332 70.8866 51.7266 70.8999 51.6999C71.3932 50.9799 72.0532 50.6199 72.8799 50.6199Z" fill="#252530"/>
<path d="M31.2005 75.3999C31.1271 75.3999 31.0805 75.3666 31.0605 75.2999L29.2405 68.5299L29.2305 68.4899C29.2305 68.4299 29.2671 68.3999 29.3405 68.3999H30.3205C30.3938 68.3999 30.4405 68.4332 30.4605 68.4999L31.6005 73.0599C31.6071 73.0799 31.6171 73.0899 31.6305 73.0899C31.6438 73.0899 31.6538 73.0799 31.6605 73.0599L32.7505 68.4999C32.7705 68.4332 32.8138 68.3999 32.8805 68.3999H33.8405C33.9138 68.3999 33.9605 68.4332 33.9805 68.4999L35.1405 73.0699C35.1471 73.0899 35.1571 73.0999 35.1705 73.0999C35.1838 73.0999 35.1938 73.0899 35.2005 73.0699L36.3205 68.4999C36.3405 68.4332 36.3871 68.3999 36.4605 68.3999H37.3905C37.4838 68.3999 37.5205 68.4432 37.5005 68.5299L35.7705 75.2999C35.7505 75.3666 35.7038 75.3999 35.6305 75.3999H34.7005C34.6271 75.3999 34.5805 75.3666 34.5605 75.2999L33.3905 70.5299C33.3838 70.5099 33.3738 70.4966 33.3605 70.4899C33.3471 70.4899 33.3371 70.5032 33.3305 70.5299L32.2105 75.2999C32.1905 75.3666 32.1471 75.3999 32.0805 75.3999H31.2005ZM38.6105 75.3999C38.5771 75.3999 38.5471 75.3866 38.5205 75.3599C38.5005 75.3399 38.4905 75.3132 38.4905 75.2799V68.5199C38.4905 68.4866 38.5005 68.4599 38.5205 68.4399C38.5471 68.4132 38.5771 68.3999 38.6105 68.3999H39.5305C39.5638 68.3999 39.5905 68.4132 39.6105 68.4399C39.6371 68.4599 39.6505 68.4866 39.6505 68.5199V75.2799C39.6505 75.3132 39.6371 75.3399 39.6105 75.3599C39.5905 75.3866 39.5638 75.3999 39.5305 75.3999H38.6105ZM45.1805 68.5199C45.1805 68.4866 45.1905 68.4599 45.2105 68.4399C45.2371 68.4132 45.2671 68.3999 45.3005 68.3999H46.2205C46.2538 68.3999 46.2805 68.4132 46.3005 68.4399C46.3271 68.4599 46.3405 68.4866 46.3405 68.5199V75.2799C46.3405 75.3132 46.3271 75.3399 46.3005 75.3599C46.2805 75.3866 46.2538 75.3999 46.2205 75.3999H45.3305C45.2638 75.3999 45.2171 75.3732 45.1905 75.3199L42.3105 70.5999C42.2971 70.5799 42.2838 70.5699 42.2705 70.5699C42.2571 70.5766 42.2505 70.5932 42.2505 70.6199L42.2705 75.2799C42.2705 75.3132 42.2571 75.3399 42.2305 75.3599C42.2105 75.3866 42.1838 75.3999 42.1505 75.3999H41.2305C41.1971 75.3999 41.1671 75.3866 41.1405 75.3599C41.1205 75.3399 41.1105 75.3132 41.1105 75.2799V68.5199C41.1105 68.4866 41.1205 68.4599 41.1405 68.4399C41.1671 68.4132 41.1971 68.3999 41.2305 68.3999H42.1205C42.1871 68.3999 42.2338 68.4266 42.2605 68.4799L45.1305 73.1999C45.1438 73.2199 45.1571 73.2266 45.1705 73.2199C45.1838 73.2199 45.1905 73.2066 45.1905 73.1799L45.1805 68.5199ZM52.4005 68.3999C52.4338 68.3999 52.4605 68.4132 52.4805 68.4399C52.5071 68.4599 52.5205 68.4866 52.5205 68.5199V69.2899C52.5205 69.3232 52.5071 69.3499 52.4805 69.3699C52.4605 69.3966 52.4338 69.4099 52.4005 69.4099H50.5605C50.5271 69.4099 50.5105 69.4266 50.5105 69.4599V75.2799C50.5105 75.3132 50.5005 75.3399 50.4805 75.3599C50.4538 75.3866 50.4238 75.3999 50.3905 75.3999H49.4705C49.4371 75.3999 49.4105 75.3866 49.3905 75.3599C49.3638 75.3399 49.3505 75.3132 49.3505 75.2799V69.4599C49.3505 69.4266 49.3338 69.4099 49.3005 69.4099H47.5305C47.4971 69.4099 47.4671 69.3966 47.4405 69.3699C47.4205 69.3499 47.4105 69.3232 47.4105 69.2899V68.5199C47.4105 68.4866 47.4205 68.4599 47.4405 68.4399C47.4671 68.4132 47.4971 68.3999 47.5305 68.3999H52.4005ZM58.3305 69.2799C58.3305 69.3132 58.3171 69.3399 58.2905 69.3599C58.2705 69.3866 58.2438 69.3999 58.2105 69.3999H54.8005C54.7671 69.3999 54.7505 69.4166 54.7505 69.4499V71.3199C54.7505 71.3532 54.7671 71.3699 54.8005 71.3699H57.0905C57.1238 71.3699 57.1538 71.3799 57.1805 71.3999C57.2005 71.4266 57.2105 71.4566 57.2105 71.4899V72.2499C57.2105 72.2832 57.2005 72.3132 57.1805 72.3399C57.1538 72.3599 57.1238 72.3699 57.0905 72.3699H54.8005C54.7671 72.3699 54.7505 72.3866 54.7505 72.4199V74.3499C54.7505 74.3832 54.7671 74.3999 54.8005 74.3999H58.2105C58.2438 74.3999 58.2705 74.4132 58.2905 74.4399C58.3171 74.4599 58.3305 74.4866 58.3305 74.5199V75.2799C58.3305 75.3132 58.3171 75.3399 58.2905 75.3599C58.2705 75.3866 58.2438 75.3999 58.2105 75.3999H53.7105C53.6771 75.3999 53.6471 75.3866 53.6205 75.3599C53.6005 75.3399 53.5905 75.3132 53.5905 75.2799V68.5199C53.5905 68.4866 53.6005 68.4599 53.6205 68.4399C53.6471 68.4132 53.6771 68.3999 53.7105 68.3999H58.2105C58.2438 68.3999 58.2705 68.4132 58.2905 68.4399C58.3171 68.4599 58.3305 68.4866 58.3305 68.5199V69.2799ZM63.4405 75.3999C63.3738 75.3999 63.3271 75.3699 63.3005 75.3099L61.9805 72.4299C61.9671 72.4032 61.9471 72.3899 61.9205 72.3899H60.7205C60.6871 72.3899 60.6705 72.4066 60.6705 72.4399V75.2799C60.6705 75.3132 60.6571 75.3399 60.6305 75.3599C60.6105 75.3866 60.5838 75.3999 60.5505 75.3999H59.6305C59.5971 75.3999 59.5671 75.3866 59.5405 75.3599C59.5205 75.3399 59.5105 75.3132 59.5105 75.2799V68.5199C59.5105 68.4866 59.5205 68.4599 59.5405 68.4399C59.5671 68.4132 59.5971 68.3999 59.6305 68.3999H62.3805C62.7871 68.3999 63.1471 68.4832 63.4605 68.6499C63.7738 68.8232 64.0171 69.0632 64.1905 69.3699C64.3638 69.6832 64.4505 70.0399 64.4505 70.4399C64.4505 70.8999 64.3305 71.2899 64.0905 71.6099C63.8571 71.9366 63.5305 72.1632 63.1105 72.2899C63.0971 72.2899 63.0871 72.2966 63.0805 72.3099C63.0738 72.3232 63.0738 72.3366 63.0805 72.3499L64.4905 75.2599C64.5038 75.2866 64.5105 75.3066 64.5105 75.3199C64.5105 75.3732 64.4738 75.3999 64.4005 75.3999H63.4405ZM60.7205 69.3999C60.6871 69.3999 60.6705 69.4166 60.6705 69.4499V71.4399C60.6705 71.4732 60.6871 71.4899 60.7205 71.4899H62.2205C62.5405 71.4899 62.8005 71.3932 63.0005 71.1999C63.1938 71.0132 63.2905 70.7632 63.2905 70.4499C63.2905 70.1366 63.1938 69.8832 63.0005 69.6899C62.8005 69.4966 62.5405 69.3999 62.2205 69.3999H60.7205Z" fill="white"/>
<path d="M34.0302 93.4598C34.0102 93.4798 34.0036 93.4998 34.0102 93.5198C34.0236 93.5398 34.0436 93.5498 34.0702 93.5498H38.0002C38.0469 93.5498 38.0869 93.5665 38.1202 93.5998C38.1602 93.6331 38.1802 93.6731 38.1802 93.7198V95.1298C38.1802 95.1765 38.1602 95.2165 38.1202 95.2498C38.0869 95.2831 38.0469 95.2998 38.0002 95.2998H31.4802C31.4269 95.2998 31.3836 95.2831 31.3502 95.2498C31.3169 95.2165 31.3002 95.1765 31.3002 95.1298V93.7898C31.3002 93.7031 31.3302 93.6298 31.3902 93.5698C31.8636 93.1098 32.3469 92.6065 32.8402 92.0598C33.3336 91.5131 33.6436 91.1731 33.7702 91.0398C34.0369 90.7198 34.3102 90.4131 34.5902 90.1198C35.4702 89.1465 35.9102 88.4231 35.9102 87.9498C35.9102 87.6098 35.7902 87.3298 35.5502 87.1098C35.3102 86.8965 34.9969 86.7898 34.6102 86.7898C34.2236 86.7898 33.9102 86.8965 33.6702 87.1098C33.4236 87.3298 33.3002 87.6198 33.3002 87.9798V88.3398C33.3002 88.3864 33.2836 88.4265 33.2502 88.4598C33.2169 88.4931 33.1769 88.5098 33.1302 88.5098H31.4202C31.3736 88.5098 31.3336 88.4931 31.3002 88.4598C31.2602 88.4265 31.2402 88.3864 31.2402 88.3398V87.6598C31.2736 87.1398 31.4402 86.6764 31.7402 86.2698C32.0402 85.8698 32.4369 85.5631 32.9302 85.3498C33.4302 85.1365 33.9902 85.0298 34.6102 85.0298C35.2969 85.0298 35.8936 85.1598 36.4002 85.4198C36.9069 85.6731 37.2969 86.0164 37.5702 86.4498C37.8502 86.8898 37.9902 87.3731 37.9902 87.8998C37.9902 88.3065 37.8869 88.7231 37.6802 89.1498C37.4802 89.5765 37.1769 90.0365 36.7702 90.5298C36.4702 90.9031 36.1469 91.2765 35.8002 91.6498C35.4536 92.0165 34.9369 92.5465 34.2502 93.2398L34.0302 93.4598ZM42.8902 95.4598C41.8236 95.4598 40.9836 95.1631 40.3702 94.5698C39.7502 93.9765 39.4402 93.1665 39.4402 92.1398V88.3098C39.4402 87.3031 39.7502 86.5065 40.3702 85.9198C40.9836 85.3265 41.8236 85.0298 42.8902 85.0298C43.9502 85.0298 44.7936 85.3265 45.4202 85.9198C46.0402 86.5065 46.3502 87.3031 46.3502 88.3098V92.1398C46.3502 93.1665 46.0402 93.9765 45.4202 94.5698C44.7936 95.1631 43.9502 95.4598 42.8902 95.4598ZM42.8902 93.7098C43.3236 93.7098 43.6669 93.5765 43.9202 93.3098C44.1802 93.0431 44.3102 92.6865 44.3102 92.2398V88.2498C44.3102 87.8098 44.1802 87.4565 43.9202 87.1898C43.6669 86.9231 43.3236 86.7898 42.8902 86.7898C42.4636 86.7898 42.1236 86.9231 41.8702 87.1898C41.6102 87.4565 41.4802 87.8098 41.4802 88.2498V92.2398C41.4802 92.6865 41.6102 93.0431 41.8702 93.3098C42.1236 93.5765 42.4636 93.7098 42.8902 93.7098ZM50.4102 93.4598C50.3902 93.4798 50.3869 93.4998 50.4002 93.5198C50.4069 93.5398 50.4269 93.5498 50.4602 93.5498H54.3902C54.4369 93.5498 54.4769 93.5665 54.5102 93.5998C54.5436 93.6331 54.5602 93.6731 54.5602 93.7198V95.1298C54.5602 95.1765 54.5436 95.2165 54.5102 95.2498C54.4769 95.2831 54.4369 95.2998 54.3902 95.2998H47.8602C47.8136 95.2998 47.7736 95.2831 47.7402 95.2498C47.7069 95.2165 47.6902 95.1765 47.6902 95.1298V93.7898C47.6902 93.7031 47.7169 93.6298 47.7702 93.5698C48.2502 93.1098 48.7336 92.6065 49.2202 92.0598C49.7136 91.5131 50.0236 91.1731 50.1502 91.0398C50.4236 90.7198 50.7002 90.4131 50.9802 90.1198C51.8602 89.1465 52.3002 88.4231 52.3002 87.9498C52.3002 87.6098 52.1802 87.3298 51.9402 87.1098C51.6936 86.8965 51.3769 86.7898 50.9902 86.7898C50.6036 86.7898 50.2902 86.8965 50.0502 87.1098C49.8102 87.3298 49.6902 87.6198 49.6902 87.9798V88.3398C49.6902 88.3864 49.6736 88.4265 49.6402 88.4598C49.6069 88.4931 49.5636 88.5098 49.5102 88.5098H47.8002C47.7536 88.5098 47.7136 88.4931 47.6802 88.4598C47.6469 88.4265 47.6302 88.3864 47.6302 88.3398V87.6598C47.6569 87.1398 47.8202 86.6764 48.1202 86.2698C48.4202 85.8698 48.8202 85.5631 49.3202 85.3498C49.8202 85.1365 50.3769 85.0298 50.9902 85.0298C51.6769 85.0298 52.2736 85.1598 52.7802 85.4198C53.2936 85.6731 53.6869 86.0164 53.9602 86.4498C54.2336 86.8898 54.3702 87.3731 54.3702 87.8998C54.3702 88.3065 54.2702 88.7231 54.0702 89.1498C53.8636 89.5765 53.5569 90.0365 53.1502 90.5298C52.8502 90.9031 52.5269 91.2765 52.1802 91.6498C51.8336 92.0165 51.3169 92.5465 50.6302 93.2398L50.4102 93.4598ZM61.8702 90.4598C62.0636 90.8998 62.1602 91.4098 62.1602 91.9898C62.1602 92.5165 62.0736 92.9998 61.9002 93.4398C61.6669 94.0598 61.2769 94.5431 60.7302 94.8898C60.1836 95.2431 59.5369 95.4198 58.7902 95.4198C58.0569 95.4198 57.4136 95.2365 56.8602 94.8698C56.3069 94.4965 55.9069 93.9965 55.6602 93.3698C55.5269 92.9965 55.4502 92.5898 55.4302 92.1498C55.4302 92.0365 55.4869 91.9798 55.6002 91.9798H57.3202C57.4336 91.9798 57.4902 92.0365 57.4902 92.1498C57.5302 92.4698 57.5836 92.7065 57.6502 92.8598C57.7369 93.1131 57.8802 93.3098 58.0802 93.4498C58.2736 93.5898 58.5069 93.6598 58.7802 93.6598C59.3202 93.6598 59.6936 93.4231 59.9002 92.9498C60.0336 92.6631 60.1002 92.3265 60.1002 91.9398C60.1002 91.4798 60.0269 91.1065 59.8802 90.8198C59.6602 90.3665 59.2902 90.1398 58.7702 90.1398C58.6636 90.1398 58.5502 90.1698 58.4302 90.2298C58.3169 90.2965 58.1769 90.3865 58.0102 90.4998C57.9702 90.5265 57.9336 90.5398 57.9002 90.5398C57.8402 90.5398 57.7969 90.5131 57.7702 90.4598L56.9102 89.2498C56.8902 89.2231 56.8802 89.1898 56.8802 89.1498C56.8802 89.0898 56.9002 89.0431 56.9402 89.0098L59.2402 86.9898C59.2602 86.9698 59.2702 86.9498 59.2702 86.9298C59.2636 86.9098 59.2469 86.8998 59.2202 86.8998H55.8102C55.7636 86.8998 55.7202 86.8831 55.6802 86.8498C55.6469 86.8165 55.6302 86.7765 55.6302 86.7298V85.3198C55.6302 85.2731 55.6469 85.2331 55.6802 85.1998C55.7202 85.1664 55.7636 85.1498 55.8102 85.1498H61.8502C61.9036 85.1498 61.9469 85.1664 61.9802 85.1998C62.0136 85.2331 62.0302 85.2731 62.0302 85.3198V86.9198C62.0302 86.9931 61.9969 87.0665 61.9302 87.1398L60.0302 88.8798C60.0102 88.8998 60.0036 88.9165 60.0102 88.9298C60.0102 88.9498 60.0302 88.9598 60.0702 88.9598C60.9102 89.1265 61.5102 89.6265 61.8702 90.4598Z" fill="#252530"/>
</svg>
