<svg width="505" height="58" viewBox="0 0 505 58" fill="none" xmlns="http://www.w3.org/2000/svg">
<g filter="url(#filter0_d_4066_1369)">
<rect x="1" y="1" width="503" height="56" rx="4" fill="white"/>
</g>
<path fill-rule="evenodd" clip-rule="evenodd" d="M20.7251 12.08C19.8463 12.3359 19.2442 12.9985 19.0611 13.9112C18.9993 14.219 18.9936 15.8114 19.0044 29.6546L19.0164 45.0556L19.1134 45.3404C19.3592 46.0619 19.9375 46.6411 20.6562 46.8856L20.9441 46.9835L36.3439 46.9955C50.3308 47.0064 51.7759 47.0011 52.0942 46.9372C52.9908 46.7575 53.7078 46.0888 53.9306 45.2246C53.9933 44.9814 54 43.4614 54 29.5081C54 18.2028 53.9867 13.9985 53.9505 13.8286C53.7717 12.9887 53.0085 12.2255 52.1687 12.0466C51.9986 12.0104 47.7982 11.998 36.4622 12.0003C21.8682 12.0032 20.973 12.0078 20.7251 12.08ZM29.0866 18.4161C29.6272 18.5104 30.2252 18.7555 30.6485 19.0562C30.6992 19.0922 30.7819 19.0618 31.0085 18.9242C31.3398 18.7229 31.7176 18.5656 32.138 18.4539C32.565 18.3404 33.4522 18.3514 33.9124 18.476C34.8521 18.7303 35.625 19.2917 36.1476 20.0996C36.3951 20.4822 36.5361 20.8178 36.6514 21.2987C36.7333 21.6403 36.7376 21.8285 36.7379 25.0431L36.7382 28.4278H35.2924H33.8467L33.8457 25.1745C33.8448 22.0721 33.8409 21.9128 33.7614 21.7378C33.7142 21.6337 33.6014 21.4987 33.501 21.4259C33.1654 21.1828 32.7552 21.2078 32.4424 21.4903C32.1314 21.7713 32.138 21.6902 32.138 25.2592V28.4278H30.693H29.2481L29.2363 25.1019L29.2245 21.776L29.0884 21.6076C28.8883 21.36 28.7104 21.2714 28.414 21.2714C28.1176 21.2714 27.9397 21.36 27.7396 21.6076L27.6035 21.776L27.5918 25.1019L27.58 28.4278H26.135H24.69L24.6908 25.0431C24.6914 22.3307 24.7036 21.6016 24.7521 21.3725C24.8388 20.9636 25.0537 20.4332 25.2664 20.1029C25.5077 19.7282 26.1348 19.1153 26.4889 18.9081C27.3014 18.4327 28.2027 18.262 29.0866 18.4161ZM43.9615 18.4189C47.5996 18.9544 49.4464 23.0753 47.4317 26.1618C47.1703 26.5623 46.644 27.1239 46.2476 27.4253C45.8689 27.7133 44.9972 28.1394 44.5586 28.251C41.6842 28.982 38.918 27.2712 38.2913 24.3749C38.1999 23.9529 38.1875 22.9373 38.2684 22.5147C38.6369 20.5905 40.0187 19.0666 41.8642 18.5493C42.5695 18.3516 43.227 18.3108 43.9615 18.4189ZM42.8718 21.2866C41.8483 21.4641 41.1061 22.3491 41.1087 23.3891C41.1103 24.0272 41.3236 24.5134 41.7993 24.9633C42.9793 26.0794 44.9882 25.4362 45.3208 23.836C45.5175 22.8897 45.034 21.9047 44.1648 21.4813C43.7396 21.2741 43.3137 21.21 42.8718 21.2866ZM29.386 30.7235C29.7922 30.8265 30.3897 31.0928 30.6035 31.2661L30.712 31.354L30.9026 31.2229C31.2041 31.0154 31.7061 30.8011 32.1248 30.7012C32.4505 30.6234 32.6056 30.6122 33.1238 30.6287C33.6679 30.6462 33.7841 30.6642 34.1533 30.7886C34.7415 30.9869 35.1953 31.2697 35.6412 31.716C36.0422 32.1175 36.2215 32.3846 36.454 32.9268C36.7387 33.5909 36.7382 33.5832 36.7382 37.2985V40.6522H35.3143H33.8905V37.5473C33.8905 35.6507 33.8733 34.3521 33.8464 34.2103C33.7649 33.7805 33.4438 33.5103 33.0142 33.5103C32.7228 33.5103 32.4774 33.6381 32.3242 33.8695L32.2037 34.0516L32.1919 37.3519L32.1802 40.6522H30.7366H29.2929L29.2806 37.377C29.2671 33.7741 29.2839 33.9913 28.9984 33.7213C28.6403 33.3825 27.9953 33.4595 27.7211 33.8739L27.6035 34.0516L27.5816 37.3628L27.5597 40.6741L26.1249 40.6857L24.69 40.6972V37.3486C24.69 33.6797 24.6905 33.6719 24.9517 32.9944C25.3795 31.8852 26.3486 31.0266 27.5129 30.7256C28.079 30.5792 28.814 30.5784 29.386 30.7235ZM44.5367 30.7675C45.4053 31.0094 46.3717 31.5913 46.926 32.2063C47.8555 33.2377 48.3083 34.4861 48.2478 35.8517C48.1477 38.1119 46.6541 39.9375 44.4225 40.5273C44.0777 40.6184 43.9395 40.6299 43.2223 40.6272C42.493 40.6244 42.3694 40.6127 41.9882 40.5101C40.0779 39.9962 38.7089 38.5482 38.2906 36.5993C38.1809 36.0877 38.1878 35.1477 38.3053 34.6057C38.5164 33.6324 38.9173 32.8758 39.5975 32.1672C40.1629 31.5783 40.7288 31.1968 41.4403 30.9251C42.0815 30.6802 42.4925 30.6181 43.3538 30.6358C44.0184 30.6495 44.1759 30.667 44.5367 30.7675ZM42.5552 33.6103C41.9833 33.8106 41.5823 34.1675 41.3139 34.7153C40.7324 35.902 41.4031 37.362 42.681 37.6911C43.8231 37.9852 44.9744 37.3237 45.2878 36.1933C45.5665 35.1883 45.0822 34.1572 44.116 33.6984C43.8058 33.551 43.7419 33.537 43.3144 33.5227C42.9139 33.5093 42.8093 33.5214 42.5552 33.6103Z" fill="#B2087D"/>
<defs>
<filter id="filter0_d_4066_1369" x="0" y="0" width="505" height="58" filterUnits="userSpaceOnUse" color-interpolation-filters="sRGB">
<feFlood flood-opacity="0" result="BackgroundImageFix"/>
<feColorMatrix in="SourceAlpha" type="matrix" values="0 0 0 0 0 0 0 0 0 0 0 0 0 0 0 0 0 0 127 0" result="hardAlpha"/>
<feMorphology radius="1" operator="dilate" in="SourceAlpha" result="effect1_dropShadow_4066_1369"/>
<feOffset/>
<feComposite in2="hardAlpha" operator="out"/>
<feColorMatrix type="matrix" values="0 0 0 0 0.8 0 0 0 0 0.8 0 0 0 0 0.8 0 0 0 1 0"/>
<feBlend mode="normal" in2="BackgroundImageFix" result="effect1_dropShadow_4066_1369"/>
<feBlend mode="normal" in="SourceGraphic" in2="effect1_dropShadow_4066_1369" result="shape"/>
</filter>
</defs>
</svg>
