<svg width="111" height="27" viewBox="0 0 111 27" fill="none" xmlns="http://www.w3.org/2000/svg">
<g opacity="0.9" clip-path="url(#clip0_4_2967)">
<path d="M17.0702 1.68035C13.9402 1.72035 7.41021 1.85035 5.38021 2.37035C3.89021 2.77035 2.79021 3.97035 2.39021 5.37035C1.70021 8.07035 1.71021 13.6803 1.71021 13.6803C1.71021 13.6803 1.70021 19.2903 2.39021 21.9903C2.78021 23.4903 3.98021 24.5903 5.38021 24.9903C8.07021 25.6903 18.7802 25.6703 18.7802 25.6703C18.7802 25.6703 29.4802 25.6803 32.1802 24.9903C33.6802 24.5903 34.7702 23.3903 35.1702 21.9903C35.8602 19.2903 35.8502 13.6803 35.8502 13.6803C35.8502 13.6803 35.9602 8.07035 35.1702 5.37035C34.7702 3.87035 33.5802 2.77035 32.1802 2.37035C29.5002 1.67035 18.7902 1.68035 18.7902 1.68035C18.7902 1.68035 18.1202 1.67035 17.0802 1.68035H17.0702ZM89.2802 2.58035V23.8603H92.0602L92.3702 22.4903H92.4602C92.7602 22.9903 93.1702 23.3703 93.6702 23.6703C94.1702 23.9703 94.7502 24.0703 95.3502 24.0703C96.4502 24.0703 97.3402 23.5803 97.8402 22.4803C98.3402 21.3803 98.6502 19.7803 98.6502 17.5803V15.1803C98.6502 13.5803 98.5402 12.2803 98.3402 11.2803C98.1402 10.3903 97.8402 9.69035 97.3402 9.19035C96.8402 8.79035 96.2402 8.60035 95.4402 8.60035C94.8502 8.60035 94.2602 8.79035 93.7602 9.09035C93.2702 9.39035 92.7502 9.89035 92.5502 10.4903V2.59035H89.2702L89.2802 2.58035ZM39.2902 3.36035L43.1902 17.2603L43.3702 23.9703H46.6802V17.2603L50.5502 3.36035H47.1802L45.7802 9.67035C45.3802 11.5603 45.0702 12.8603 44.9702 13.6603H44.8802C44.6802 12.5603 44.3702 11.2603 44.0702 9.67035L42.7002 3.36035H39.3002H39.2902ZM68.8802 3.36035V6.07035H72.2802V23.9703H75.5602V6.07035H78.9602C78.9602 6.07035 78.9602 3.36035 78.8702 3.36035H68.8802ZM15.3902 8.48035L24.2902 13.6603L15.3902 18.7503V8.47035V8.48035ZM104.79 8.57035C103.09 8.57035 101.9 9.16035 101.2 10.1603C100.51 11.1503 100.21 12.7603 100.21 15.0603V17.6503C100.21 19.8503 100.51 21.5503 101.2 22.5503C101.9 23.6503 103 24.1403 104.7 24.1403C106.1 24.1403 107.08 23.8403 107.88 23.1403C108.58 22.4403 108.97 21.4503 108.97 20.0503V19.5503L106.07 19.3403C106.07 20.3403 105.99 20.9403 105.79 21.3403C105.69 21.7403 105.29 21.9603 104.79 21.9603C104.49 21.9603 104.18 21.8503 103.98 21.6503C103.78 21.3503 103.68 21.0603 103.58 20.5603C103.48 20.0603 103.49 19.3503 103.49 18.3503V17.5703L109.2 17.4803V14.8603C109.2 13.2603 109.1 12.0803 108.8 11.1803C108.6 10.2903 108.09 9.59035 107.49 9.19035C106.79 8.79035 106.01 8.60035 104.81 8.60035L104.79 8.57035ZM54.3002 8.66035C53.2102 8.66035 52.2902 8.84035 51.5902 9.34035C50.8902 9.74035 50.3902 10.4603 50.1002 11.4603C49.8002 12.4603 49.6002 13.7303 49.6002 15.3303V17.5403C49.6002 19.0403 49.7002 20.3203 50.0002 21.3203C50.2002 22.2203 50.7002 22.9403 51.4002 23.4403C52.0902 23.9403 53.1102 24.1203 54.2102 24.2203C55.4002 24.2203 56.2902 23.9403 56.9902 23.5403C57.6802 23.1403 58.0802 22.4503 58.4802 21.4503C58.8702 20.4503 58.9702 19.1503 58.9702 17.5503V15.3403C58.9702 13.7403 58.7702 12.4703 58.4802 11.4703C58.1802 10.5803 57.6802 9.85035 56.9902 9.35035C56.2902 8.85035 55.4102 8.67035 54.3102 8.67035L54.3002 8.66035ZM66.4802 8.75035V20.6503C66.3802 20.9503 66.1902 21.1303 65.8902 21.3303C65.6902 21.5303 65.3802 21.6403 65.0802 21.6403C64.7802 21.6403 64.5002 21.5403 64.4002 21.2403C64.3002 20.9403 64.2202 20.5403 64.2202 19.8403V8.85035H60.8202V20.0603C60.8202 21.4603 61.0002 22.4503 61.5002 23.1503C61.9902 23.8503 62.7102 24.1503 63.7102 24.1503C65.1102 24.1503 66.1902 23.4603 66.8902 22.0603H66.9802L67.2902 23.8403H69.8802V8.85035C69.8802 8.85035 66.4802 8.85035 66.4802 8.76035V8.75035ZM83.7902 8.75035V20.6503C83.6902 20.9503 83.5002 21.1303 83.2002 21.3303C83.0002 21.5303 82.6902 21.6403 82.3902 21.6403C82.0902 21.6403 81.8102 21.5403 81.7102 21.2403C81.6102 20.9403 81.5002 20.5403 81.5002 19.8403V8.85035H78.1002V20.0603C78.1002 21.4603 78.3102 22.4503 78.8102 23.1503C79.3102 23.8503 79.9902 24.1503 80.9902 24.1503C82.3802 24.1503 83.5002 23.4603 84.2002 22.0603H84.2902L84.5702 23.8403H87.1902V8.85035C87.1902 8.85035 83.7902 8.85035 83.7902 8.76035V8.75035ZM104.69 10.8403C105.09 10.8403 105.27 10.9503 105.47 11.1503C105.67 11.4503 105.77 11.7403 105.87 12.2403C105.97 12.7403 105.96 13.4503 105.96 14.4503V15.5403H103.46V14.4503C103.46 13.4503 103.46 12.7403 103.55 12.2403C103.55 11.8403 103.66 11.4403 103.86 11.2403C104.06 10.9403 104.37 10.8403 104.67 10.8403H104.69ZM54.2002 10.9603C54.7002 10.9603 55.0002 11.1403 55.2002 11.6403C55.3902 12.1403 55.4802 12.9403 55.4802 14.0403V18.7203C55.4802 19.8203 55.4002 20.6203 55.2002 21.1203C55.0002 21.6203 54.7002 21.8003 54.2002 21.8003C53.7002 21.8003 53.4102 21.6203 53.2102 21.1203C53.0102 20.6203 52.9002 19.8203 52.9002 18.7203V14.0403C52.9002 12.9403 53.0102 12.1403 53.2102 11.6403C53.4102 11.1403 53.7002 10.9603 54.2002 10.9603ZM93.8802 11.0503C94.1802 11.0503 94.4902 11.1503 94.6902 11.4503C94.8902 11.7503 94.9602 12.1203 95.0602 12.8203C95.1602 13.4203 95.1802 14.3303 95.1802 15.5303L95.2702 17.4303C95.2702 18.5303 95.2702 19.4203 95.1802 20.0203C95.0802 20.6203 94.9902 21.1003 94.6902 21.3003C94.4902 21.6003 94.1902 21.7003 93.7902 21.7003C93.4902 21.7003 93.2802 21.6203 92.9802 21.5203C92.7802 21.4203 92.5902 21.2303 92.3902 20.9303V12.4303C92.4902 12.0303 92.6802 11.7303 92.9802 11.4303C93.2802 11.1303 93.5802 11.0303 93.8802 11.0303V11.0503Z" fill="white" stroke="black" stroke-opacity="0.15" stroke-width="2"/>
<path d="M17.0702 1.68035C13.9402 1.72035 7.41021 1.85035 5.38021 2.37035C3.89021 2.77035 2.79021 3.97035 2.39021 5.37035C1.70021 8.07035 1.71021 13.6803 1.71021 13.6803C1.71021 13.6803 1.70021 19.2903 2.39021 21.9903C2.78021 23.4903 3.98021 24.5903 5.38021 24.9903C8.07021 25.6903 18.7802 25.6703 18.7802 25.6703C18.7802 25.6703 29.4802 25.6803 32.1802 24.9903C33.6802 24.5903 34.7702 23.3903 35.1702 21.9903C35.8602 19.2903 35.8502 13.6803 35.8502 13.6803C35.8502 13.6803 35.9602 8.07035 35.1702 5.37035C34.7702 3.87035 33.5802 2.77035 32.1802 2.37035C29.5002 1.67035 18.7902 1.68035 18.7902 1.68035C18.7902 1.68035 18.1202 1.67035 17.0802 1.68035H17.0702ZM89.2802 2.58035V23.8603H92.0602L92.3702 22.4903H92.4602C92.7602 22.9903 93.1702 23.3703 93.6702 23.6703C94.1702 23.9703 94.7502 24.0703 95.3502 24.0703C96.4502 24.0703 97.3402 23.5803 97.8402 22.4803C98.3402 21.3803 98.6502 19.7803 98.6502 17.5803V15.1803C98.6502 13.5803 98.5402 12.2803 98.3402 11.2803C98.1402 10.3903 97.8402 9.69035 97.3402 9.19035C96.8402 8.79035 96.2402 8.60035 95.4402 8.60035C94.8502 8.60035 94.2602 8.79035 93.7602 9.09035C93.2702 9.39035 92.7502 9.89035 92.5502 10.4903V2.59035H89.2702L89.2802 2.58035ZM39.2902 3.36035L43.1902 17.2603L43.3702 23.9703H46.6802V17.2603L50.5502 3.36035H47.1802L45.7802 9.67035C45.3802 11.5603 45.0702 12.8603 44.9702 13.6603H44.8802C44.6802 12.5603 44.3702 11.2603 44.0702 9.67035L42.7002 3.36035H39.3002H39.2902ZM68.8802 3.36035V6.07035H72.2802V23.9703H75.5602V6.07035H78.9602C78.9602 6.07035 78.9602 3.36035 78.8702 3.36035H68.8802ZM15.3902 8.48035L24.2902 13.6603L15.3902 18.7503V8.47035V8.48035ZM104.79 8.57035C103.09 8.57035 101.9 9.16035 101.2 10.1603C100.51 11.1503 100.21 12.7603 100.21 15.0603V17.6503C100.21 19.8503 100.51 21.5503 101.2 22.5503C101.9 23.6503 103 24.1403 104.7 24.1403C106.1 24.1403 107.08 23.8403 107.88 23.1403C108.58 22.4403 108.97 21.4503 108.97 20.0503V19.5503L106.07 19.3403C106.07 20.3403 105.99 20.9403 105.79 21.3403C105.69 21.7403 105.29 21.9603 104.79 21.9603C104.49 21.9603 104.18 21.8503 103.98 21.6503C103.78 21.3503 103.68 21.0603 103.58 20.5603C103.48 20.0603 103.49 19.3503 103.49 18.3503V17.5703L109.2 17.4803V14.8603C109.2 13.2603 109.1 12.0803 108.8 11.1803C108.6 10.2903 108.09 9.59035 107.49 9.19035C106.79 8.79035 106.01 8.60035 104.81 8.60035L104.79 8.57035ZM54.3002 8.66035C53.2102 8.66035 52.2902 8.84035 51.5902 9.34035C50.8902 9.74035 50.3902 10.4603 50.1002 11.4603C49.8002 12.4603 49.6002 13.7303 49.6002 15.3303V17.5403C49.6002 19.0403 49.7002 20.3203 50.0002 21.3203C50.2002 22.2203 50.7002 22.9403 51.4002 23.4403C52.0902 23.9403 53.1102 24.1203 54.2102 24.2203C55.4002 24.2203 56.2902 23.9403 56.9902 23.5403C57.6802 23.1403 58.0802 22.4503 58.4802 21.4503C58.8702 20.4503 58.9702 19.1503 58.9702 17.5503V15.3403C58.9702 13.7403 58.7702 12.4703 58.4802 11.4703C58.1802 10.5803 57.6802 9.85035 56.9902 9.35035C56.2902 8.85035 55.4102 8.67035 54.3102 8.67035L54.3002 8.66035ZM66.4802 8.75035V20.6503C66.3802 20.9503 66.1902 21.1303 65.8902 21.3303C65.6902 21.5303 65.3802 21.6403 65.0802 21.6403C64.7802 21.6403 64.5002 21.5403 64.4002 21.2403C64.3002 20.9403 64.2202 20.5403 64.2202 19.8403V8.85035H60.8202V20.0603C60.8202 21.4603 61.0002 22.4503 61.5002 23.1503C61.9902 23.8503 62.7102 24.1503 63.7102 24.1503C65.1102 24.1503 66.1902 23.4603 66.8902 22.0603H66.9802L67.2902 23.8403H69.8802V8.85035C69.8802 8.85035 66.4802 8.85035 66.4802 8.76035V8.75035ZM83.7902 8.75035V20.6503C83.6902 20.9503 83.5002 21.1303 83.2002 21.3303C83.0002 21.5303 82.6902 21.6403 82.3902 21.6403C82.0902 21.6403 81.8102 21.5403 81.7102 21.2403C81.6102 20.9403 81.5002 20.5403 81.5002 19.8403V8.85035H78.1002V20.0603C78.1002 21.4603 78.3102 22.4503 78.8102 23.1503C79.3102 23.8503 79.9902 24.1503 80.9902 24.1503C82.3802 24.1503 83.5002 23.4603 84.2002 22.0603H84.2902L84.5702 23.8403H87.1902V8.85035C87.1902 8.85035 83.7902 8.85035 83.7902 8.76035V8.75035ZM104.69 10.8403C105.09 10.8403 105.27 10.9503 105.47 11.1503C105.67 11.4503 105.77 11.7403 105.87 12.2403C105.97 12.7403 105.96 13.4503 105.96 14.4503V15.5403H103.46V14.4503C103.46 13.4503 103.46 12.7403 103.55 12.2403C103.55 11.8403 103.66 11.4403 103.86 11.2403C104.06 10.9403 104.37 10.8403 104.67 10.8403H104.69ZM54.2002 10.9603C54.7002 10.9603 55.0002 11.1403 55.2002 11.6403C55.3902 12.1403 55.4802 12.9403 55.4802 14.0403V18.7203C55.4802 19.8203 55.4002 20.6203 55.2002 21.1203C55.0002 21.6203 54.7002 21.8003 54.2002 21.8003C53.7002 21.8003 53.4102 21.6203 53.2102 21.1203C53.0102 20.6203 52.9002 19.8203 52.9002 18.7203V14.0403C52.9002 12.9403 53.0102 12.1403 53.2102 11.6403C53.4102 11.1403 53.7002 10.9603 54.2002 10.9603ZM93.8802 11.0503C94.1802 11.0503 94.4902 11.1503 94.6902 11.4503C94.8902 11.7503 94.9602 12.1203 95.0602 12.8203C95.1602 13.4203 95.1802 14.3303 95.1802 15.5303L95.2702 17.4303C95.2702 18.5303 95.2702 19.4203 95.1802 20.0203C95.0802 20.6203 94.9902 21.1003 94.6902 21.3003C94.4902 21.6003 94.1902 21.7003 93.7902 21.7003C93.4902 21.7003 93.2802 21.6203 92.9802 21.5203C92.7802 21.4203 92.5902 21.2303 92.3902 20.9303V12.4303C92.4902 12.0303 92.6802 11.7303 92.9802 11.4303C93.2802 11.1303 93.5802 11.0303 93.8802 11.0303V11.0503Z" fill="white"/>
</g>
<defs>
<clipPath id="clip0_4_2967">
<rect width="110" height="26" fill="white" transform="translate(0.390137 0.690369)"/>
</clipPath>
</defs>
</svg>
