<svg width="14" height="15" viewBox="0 0 14 15" fill="none" xmlns="http://www.w3.org/2000/svg">
<g clip-path="url(#clip0_4_3007)">
<path d="M7 0.63928C7.88837 0.63928 8.74944 0.813598 9.56228 1.15593C9.95288 1.32185 10.3289 1.52557 10.6795 1.76289C11.0282 1.99811 11.3558 2.26904 11.6541 2.56728C11.9523 2.8655 12.2232 3.19313 12.4585 3.54177C12.6958 3.8925 12.8995 4.27054 13.0654 4.65908C13.4077 5.46976 13.582 6.33085 13.582 7.22134C13.582 8.11181 13.4077 8.97078 13.0654 9.78362C12.8995 10.1742 12.6958 10.5502 12.4585 10.9009C12.2232 11.2496 11.9523 11.5772 11.6541 11.8754C11.3558 12.1736 11.0282 12.4445 10.6795 12.6798C10.3289 12.9171 9.95078 13.1208 9.56228 13.2868C8.75154 13.6291 7.89047 13.8034 7 13.8034C6.11161 13.8034 5.25053 13.6291 4.43774 13.2868C4.04711 13.1208 3.67116 12.9171 3.32043 12.6798C2.97179 12.4445 2.64417 12.1736 2.34593 11.8754C2.0477 11.5772 1.77677 11.2496 1.54155 10.9009C1.30423 10.5502 1.10051 10.1721 0.934591 9.78362C0.594359 8.97078 0.420042 8.10761 0.420042 7.21924C0.420042 6.33085 0.594359 5.46976 0.936691 4.65698C1.10261 4.26634 1.30633 3.8904 1.54365 3.53967C1.77887 3.19103 2.0498 2.8634 2.34804 2.56517C2.64627 2.26694 2.97389 1.99601 3.32253 1.76079C3.67326 1.52347 4.05131 1.31975 4.43984 1.15383C5.25052 0.813598 6.11161 0.63928 7 0.63928ZM7 0.219238C3.13351 0.219238 0 3.35275 0 7.21924C0 11.0858 3.13351 14.2192 7 14.2192C10.8665 14.2192 14 11.0858 14 7.21924C14.0021 3.35275 10.8665 0.219238 7 0.219238Z" fill="#32373C"/>
<path d="M1.16785 7.21952C1.16785 9.52763 2.50988 11.5249 4.45678 12.47L1.674 4.84626C1.34846 5.57083 1.16785 6.37521 1.16785 7.21952ZM10.9401 6.92547C10.9401 6.20509 10.6818 5.70524 10.4592 5.31671C10.1631 4.83576 9.88579 4.42832 9.88579 3.94947C9.88579 3.41391 10.2933 2.91406 10.8645 2.91406C10.8897 2.91406 10.9149 2.91616 10.9401 2.91826C9.90259 1.96687 8.51855 1.38721 7.00011 1.38721C4.96292 1.38721 3.16935 2.43311 2.12554 4.01667C2.26206 4.02087 2.39227 4.02297 2.50148 4.02297C3.11054 4.02297 4.05563 3.94947 4.05563 3.94947C4.37067 3.93057 4.40637 4.39261 4.09344 4.43041C4.09344 4.43041 3.77631 4.46822 3.42557 4.48502L5.55098 10.8046L6.82791 6.97587L5.91852 4.48502C5.60349 4.46612 5.30736 4.43041 5.30736 4.43041C4.99233 4.41151 5.03013 3.93057 5.34517 3.94947C5.34517 3.94947 6.30916 4.02297 6.88252 4.02297C7.49158 4.02297 8.43665 3.94947 8.43665 3.94947C8.75172 3.93057 8.78742 4.39261 8.47445 4.43041C8.47445 4.43041 8.15735 4.46822 7.80658 4.48502L9.91309 10.7563L10.5159 8.84926C10.7826 8.01549 10.9401 7.42532 10.9401 6.92547ZM7.10301 7.72982L5.35147 12.8166C5.87442 12.9699 6.42677 13.0539 7.00011 13.0539C7.67848 13.0539 8.33165 12.9363 8.93652 12.7242C8.92182 12.699 8.90712 12.6716 8.89452 12.6443L7.10301 7.72982ZM12.1205 4.42201C12.1457 4.60684 12.1604 4.80635 12.1604 5.02267C12.1604 5.61493 12.049 6.2807 11.7172 7.11238L9.93409 12.2621C11.6689 11.2519 12.8345 9.37223 12.8345 7.21952C12.8345 6.20509 12.5762 5.2516 12.1205 4.42201Z" fill="#32373C"/>
</g>
<defs>
<clipPath id="clip0_4_3007">
<rect width="14" height="14" fill="white" transform="translate(0 0.219238)"/>
</clipPath>
</defs>
</svg>
