<svg width="24" height="25" viewBox="0 0 24 25" fill="none" xmlns="http://www.w3.org/2000/svg">
<g clip-path="url(#clip0_121_1875)">
<mask id="mask0_121_1875" style="mask-type:luminance" maskUnits="userSpaceOnUse" x="0" y="1" width="24" height="24">
<path d="M23.5195 1.45483H0.479492V24.4948H23.5195V1.45483Z" fill="white"/>
</mask>
<g mask="url(#mask0_121_1875)">
<path fill-rule="evenodd" clip-rule="evenodd" d="M8.57715 9.11241C9.18552 7.40929 10.4172 6.00237 11.9974 5.1664C11.9297 3.10431 10.2381 1.45483 8.1595 1.45483C6.0379 1.45483 4.3195 3.17323 4.3195 5.29483C4.3195 7.41643 6.0379 9.13483 8.1595 9.13483C8.30063 9.13483 8.43998 9.12723 8.57715 9.11241ZM8.1595 11.5348C8.1595 11.3735 8.1648 11.2135 8.17524 11.0548H8.1595C5.5963 11.0548 0.479492 12.3412 0.479492 14.8948V16.8148H10.4644C9.0467 15.4999 8.1595 13.621 8.1595 11.5348ZM15.3595 15.8548C17.7463 15.8548 19.6795 13.9217 19.6795 11.5348C19.6795 9.14804 17.7463 7.21483 15.3595 7.21483C12.9727 7.21483 11.0395 9.14804 11.0395 11.5348C11.0395 13.9217 12.9727 15.8548 15.3595 15.8548ZM14.8795 17.7748C11.9959 17.7748 6.2395 19.2757 6.2395 22.2548V24.4948H23.5195V22.2548C23.5195 19.2757 17.7631 17.7748 14.8795 17.7748Z" fill="white"/>
</g>
</g>
<defs>
<clipPath id="clip0_121_1875">
<rect width="24" height="24" fill="white" transform="translate(0 0.5)"/>
</clipPath>
</defs>
</svg>
