<svg width="111" height="27" viewBox="0 0 111 27" fill="none" xmlns="http://www.w3.org/2000/svg">
<g opacity="0.9" clip-path="url(#clip0_4_2967)">
<path d="M17.0702 1.44634C13.9402 1.48634 7.41021 1.61634 5.38021 2.13634C3.89021 2.53634 2.79021 3.73634 2.39021 5.13634C1.70021 7.83634 1.71021 13.4463 1.71021 13.4463C1.71021 13.4463 1.70021 19.0563 2.39021 21.7563C2.78021 23.2563 3.98021 24.3563 5.38021 24.7563C8.07021 25.4563 18.7802 25.4363 18.7802 25.4363C18.7802 25.4363 29.4802 25.4463 32.1802 24.7563C33.6802 24.3563 34.7702 23.1563 35.1702 21.7563C35.8602 19.0563 35.8502 13.4463 35.8502 13.4463C35.8502 13.4463 35.9602 7.83634 35.1702 5.13634C34.7702 3.63634 33.5802 2.53634 32.1802 2.13634C29.5002 1.43634 18.7902 1.44634 18.7902 1.44634C18.7902 1.44634 18.1202 1.43634 17.0802 1.44634H17.0702ZM89.2802 2.34634V23.6263H92.0602L92.3702 22.2563H92.4602C92.7602 22.7563 93.1702 23.1363 93.6702 23.4363C94.1702 23.7363 94.7502 23.8363 95.3502 23.8363C96.4502 23.8363 97.3402 23.3463 97.8402 22.2463C98.3402 21.1463 98.6502 19.5463 98.6502 17.3463V14.9463C98.6502 13.3463 98.5402 12.0463 98.3402 11.0463C98.1402 10.1563 97.8402 9.45634 97.3402 8.95634C96.8402 8.55634 96.2402 8.36634 95.4402 8.36634C94.8502 8.36634 94.2602 8.55634 93.7602 8.85634C93.2702 9.15634 92.7502 9.65634 92.5502 10.2563V2.35634H89.2702L89.2802 2.34634ZM39.2902 3.12634L43.1902 17.0263L43.3702 23.7363H46.6802V17.0263L50.5502 3.12634H47.1802L45.7802 9.43634C45.3802 11.3263 45.0702 12.6263 44.9702 13.4263H44.8802C44.6802 12.3263 44.3702 11.0263 44.0702 9.43634L42.7002 3.12634H39.3002H39.2902ZM68.8802 3.12634V5.83634H72.2802V23.7363H75.5602V5.83634H78.9602C78.9602 5.83634 78.9602 3.12634 78.8702 3.12634H68.8802ZM15.3902 8.24634L24.2902 13.4263L15.3902 18.5163V8.23634V8.24634ZM104.79 8.33634C103.09 8.33634 101.9 8.92634 101.2 9.92634C100.51 10.9163 100.21 12.5263 100.21 14.8263V17.4163C100.21 19.6163 100.51 21.3163 101.2 22.3163C101.9 23.4163 103 23.9063 104.7 23.9063C106.1 23.9063 107.08 23.6063 107.88 22.9063C108.58 22.2063 108.97 21.2163 108.97 19.8163V19.3163L106.07 19.1063C106.07 20.1063 105.99 20.7063 105.79 21.1063C105.69 21.5063 105.29 21.7263 104.79 21.7263C104.49 21.7263 104.18 21.6163 103.98 21.4163C103.78 21.1163 103.68 20.8263 103.58 20.3263C103.48 19.8263 103.49 19.1163 103.49 18.1163V17.3363L109.2 17.2463V14.6263C109.2 13.0263 109.1 11.8463 108.8 10.9463C108.6 10.0563 108.09 9.35634 107.49 8.95634C106.79 8.55634 106.01 8.36634 104.81 8.36634L104.79 8.33634ZM54.3002 8.42634C53.2102 8.42634 52.2902 8.60634 51.5902 9.10634C50.8902 9.50634 50.3902 10.2263 50.1002 11.2263C49.8002 12.2263 49.6002 13.4963 49.6002 15.0963V17.3063C49.6002 18.8063 49.7002 20.0863 50.0002 21.0863C50.2002 21.9863 50.7002 22.7063 51.4002 23.2063C52.0902 23.7063 53.1102 23.8863 54.2102 23.9863C55.4002 23.9863 56.2902 23.7063 56.9902 23.3063C57.6802 22.9063 58.0802 22.2163 58.4802 21.2163C58.8702 20.2163 58.9702 18.9163 58.9702 17.3163V15.1063C58.9702 13.5063 58.7702 12.2363 58.4802 11.2363C58.1802 10.3463 57.6802 9.61634 56.9902 9.11634C56.2902 8.61634 55.4102 8.43634 54.3102 8.43634L54.3002 8.42634ZM66.4802 8.51634V20.4163C66.3802 20.7163 66.1902 20.8963 65.8902 21.0963C65.6902 21.2963 65.3802 21.4063 65.0802 21.4063C64.7802 21.4063 64.5002 21.3063 64.4002 21.0063C64.3002 20.7063 64.2202 20.3063 64.2202 19.6063V8.61634H60.8202V19.8263C60.8202 21.2263 61.0002 22.2163 61.5002 22.9163C61.9902 23.6163 62.7102 23.9163 63.7102 23.9163C65.1102 23.9163 66.1902 23.2263 66.8902 21.8263H66.9802L67.2902 23.6063H69.8802V8.61634C69.8802 8.61634 66.4802 8.61634 66.4802 8.52634V8.51634ZM83.7902 8.51634V20.4163C83.6902 20.7163 83.5002 20.8963 83.2002 21.0963C83.0002 21.2963 82.6902 21.4063 82.3902 21.4063C82.0902 21.4063 81.8102 21.3063 81.7102 21.0063C81.6102 20.7063 81.5002 20.3063 81.5002 19.6063V8.61634H78.1002V19.8263C78.1002 21.2263 78.3102 22.2163 78.8102 22.9163C79.3102 23.6163 79.9902 23.9163 80.9902 23.9163C82.3802 23.9163 83.5002 23.2263 84.2002 21.8263H84.2902L84.5702 23.6063H87.1902V8.61634C87.1902 8.61634 83.7902 8.61634 83.7902 8.52634V8.51634ZM104.69 10.6063C105.09 10.6063 105.27 10.7163 105.47 10.9163C105.67 11.2163 105.77 11.5063 105.87 12.0063C105.97 12.5063 105.96 13.2163 105.96 14.2163V15.3063H103.46V14.2163C103.46 13.2163 103.46 12.5063 103.55 12.0063C103.55 11.6063 103.66 11.2063 103.86 11.0063C104.06 10.7063 104.37 10.6063 104.67 10.6063H104.69ZM54.2002 10.7263C54.7002 10.7263 55.0002 10.9063 55.2002 11.4063C55.3902 11.9063 55.4802 12.7063 55.4802 13.8063V18.4863C55.4802 19.5863 55.4002 20.3863 55.2002 20.8863C55.0002 21.3863 54.7002 21.5663 54.2002 21.5663C53.7002 21.5663 53.4102 21.3863 53.2102 20.8863C53.0102 20.3863 52.9002 19.5863 52.9002 18.4863V13.8063C52.9002 12.7063 53.0102 11.9063 53.2102 11.4063C53.4102 10.9063 53.7002 10.7263 54.2002 10.7263ZM93.8802 10.8163C94.1802 10.8163 94.4902 10.9163 94.6902 11.2163C94.8902 11.5163 94.9602 11.8863 95.0602 12.5863C95.1602 13.1863 95.1802 14.0963 95.1802 15.2963L95.2702 17.1963C95.2702 18.2963 95.2702 19.1863 95.1802 19.7863C95.0802 20.3863 94.9902 20.8663 94.6902 21.0663C94.4902 21.3663 94.1902 21.4663 93.7902 21.4663C93.4902 21.4663 93.2802 21.3863 92.9802 21.2863C92.7802 21.1863 92.5902 20.9963 92.3902 20.6963V12.1963C92.4902 11.7963 92.6802 11.4963 92.9802 11.1963C93.2802 10.8963 93.5802 10.7963 93.8802 10.7963V10.8163Z" fill="white" stroke="black" stroke-opacity="0.15" stroke-width="2"/>
<path d="M17.0702 1.44634C13.9402 1.48634 7.41021 1.61634 5.38021 2.13634C3.89021 2.53634 2.79021 3.73634 2.39021 5.13634C1.70021 7.83634 1.71021 13.4463 1.71021 13.4463C1.71021 13.4463 1.70021 19.0563 2.39021 21.7563C2.78021 23.2563 3.98021 24.3563 5.38021 24.7563C8.07021 25.4563 18.7802 25.4363 18.7802 25.4363C18.7802 25.4363 29.4802 25.4463 32.1802 24.7563C33.6802 24.3563 34.7702 23.1563 35.1702 21.7563C35.8602 19.0563 35.8502 13.4463 35.8502 13.4463C35.8502 13.4463 35.9602 7.83634 35.1702 5.13634C34.7702 3.63634 33.5802 2.53634 32.1802 2.13634C29.5002 1.43634 18.7902 1.44634 18.7902 1.44634C18.7902 1.44634 18.1202 1.43634 17.0802 1.44634H17.0702ZM89.2802 2.34634V23.6263H92.0602L92.3702 22.2563H92.4602C92.7602 22.7563 93.1702 23.1363 93.6702 23.4363C94.1702 23.7363 94.7502 23.8363 95.3502 23.8363C96.4502 23.8363 97.3402 23.3463 97.8402 22.2463C98.3402 21.1463 98.6502 19.5463 98.6502 17.3463V14.9463C98.6502 13.3463 98.5402 12.0463 98.3402 11.0463C98.1402 10.1563 97.8402 9.45634 97.3402 8.95634C96.8402 8.55634 96.2402 8.36634 95.4402 8.36634C94.8502 8.36634 94.2602 8.55634 93.7602 8.85634C93.2702 9.15634 92.7502 9.65634 92.5502 10.2563V2.35634H89.2702L89.2802 2.34634ZM39.2902 3.12634L43.1902 17.0263L43.3702 23.7363H46.6802V17.0263L50.5502 3.12634H47.1802L45.7802 9.43634C45.3802 11.3263 45.0702 12.6263 44.9702 13.4263H44.8802C44.6802 12.3263 44.3702 11.0263 44.0702 9.43634L42.7002 3.12634H39.3002H39.2902ZM68.8802 3.12634V5.83634H72.2802V23.7363H75.5602V5.83634H78.9602C78.9602 5.83634 78.9602 3.12634 78.8702 3.12634H68.8802ZM15.3902 8.24634L24.2902 13.4263L15.3902 18.5163V8.23634V8.24634ZM104.79 8.33634C103.09 8.33634 101.9 8.92634 101.2 9.92634C100.51 10.9163 100.21 12.5263 100.21 14.8263V17.4163C100.21 19.6163 100.51 21.3163 101.2 22.3163C101.9 23.4163 103 23.9063 104.7 23.9063C106.1 23.9063 107.08 23.6063 107.88 22.9063C108.58 22.2063 108.97 21.2163 108.97 19.8163V19.3163L106.07 19.1063C106.07 20.1063 105.99 20.7063 105.79 21.1063C105.69 21.5063 105.29 21.7263 104.79 21.7263C104.49 21.7263 104.18 21.6163 103.98 21.4163C103.78 21.1163 103.68 20.8263 103.58 20.3263C103.48 19.8263 103.49 19.1163 103.49 18.1163V17.3363L109.2 17.2463V14.6263C109.2 13.0263 109.1 11.8463 108.8 10.9463C108.6 10.0563 108.09 9.35634 107.49 8.95634C106.79 8.55634 106.01 8.36634 104.81 8.36634L104.79 8.33634ZM54.3002 8.42634C53.2102 8.42634 52.2902 8.60634 51.5902 9.10634C50.8902 9.50634 50.3902 10.2263 50.1002 11.2263C49.8002 12.2263 49.6002 13.4963 49.6002 15.0963V17.3063C49.6002 18.8063 49.7002 20.0863 50.0002 21.0863C50.2002 21.9863 50.7002 22.7063 51.4002 23.2063C52.0902 23.7063 53.1102 23.8863 54.2102 23.9863C55.4002 23.9863 56.2902 23.7063 56.9902 23.3063C57.6802 22.9063 58.0802 22.2163 58.4802 21.2163C58.8702 20.2163 58.9702 18.9163 58.9702 17.3163V15.1063C58.9702 13.5063 58.7702 12.2363 58.4802 11.2363C58.1802 10.3463 57.6802 9.61634 56.9902 9.11634C56.2902 8.61634 55.4102 8.43634 54.3102 8.43634L54.3002 8.42634ZM66.4802 8.51634V20.4163C66.3802 20.7163 66.1902 20.8963 65.8902 21.0963C65.6902 21.2963 65.3802 21.4063 65.0802 21.4063C64.7802 21.4063 64.5002 21.3063 64.4002 21.0063C64.3002 20.7063 64.2202 20.3063 64.2202 19.6063V8.61634H60.8202V19.8263C60.8202 21.2263 61.0002 22.2163 61.5002 22.9163C61.9902 23.6163 62.7102 23.9163 63.7102 23.9163C65.1102 23.9163 66.1902 23.2263 66.8902 21.8263H66.9802L67.2902 23.6063H69.8802V8.61634C69.8802 8.61634 66.4802 8.61634 66.4802 8.52634V8.51634ZM83.7902 8.51634V20.4163C83.6902 20.7163 83.5002 20.8963 83.2002 21.0963C83.0002 21.2963 82.6902 21.4063 82.3902 21.4063C82.0902 21.4063 81.8102 21.3063 81.7102 21.0063C81.6102 20.7063 81.5002 20.3063 81.5002 19.6063V8.61634H78.1002V19.8263C78.1002 21.2263 78.3102 22.2163 78.8102 22.9163C79.3102 23.6163 79.9902 23.9163 80.9902 23.9163C82.3802 23.9163 83.5002 23.2263 84.2002 21.8263H84.2902L84.5702 23.6063H87.1902V8.61634C87.1902 8.61634 83.7902 8.61634 83.7902 8.52634V8.51634ZM104.69 10.6063C105.09 10.6063 105.27 10.7163 105.47 10.9163C105.67 11.2163 105.77 11.5063 105.87 12.0063C105.97 12.5063 105.96 13.2163 105.96 14.2163V15.3063H103.46V14.2163C103.46 13.2163 103.46 12.5063 103.55 12.0063C103.55 11.6063 103.66 11.2063 103.86 11.0063C104.06 10.7063 104.37 10.6063 104.67 10.6063H104.69ZM54.2002 10.7263C54.7002 10.7263 55.0002 10.9063 55.2002 11.4063C55.3902 11.9063 55.4802 12.7063 55.4802 13.8063V18.4863C55.4802 19.5863 55.4002 20.3863 55.2002 20.8863C55.0002 21.3863 54.7002 21.5663 54.2002 21.5663C53.7002 21.5663 53.4102 21.3863 53.2102 20.8863C53.0102 20.3863 52.9002 19.5863 52.9002 18.4863V13.8063C52.9002 12.7063 53.0102 11.9063 53.2102 11.4063C53.4102 10.9063 53.7002 10.7263 54.2002 10.7263ZM93.8802 10.8163C94.1802 10.8163 94.4902 10.9163 94.6902 11.2163C94.8902 11.5163 94.9602 11.8863 95.0602 12.5863C95.1602 13.1863 95.1802 14.0963 95.1802 15.2963L95.2702 17.1963C95.2702 18.2963 95.2702 19.1863 95.1802 19.7863C95.0802 20.3863 94.9902 20.8663 94.6902 21.0663C94.4902 21.3663 94.1902 21.4663 93.7902 21.4663C93.4902 21.4663 93.2802 21.3863 92.9802 21.2863C92.7802 21.1863 92.5902 20.9963 92.3902 20.6963V12.1963C92.4902 11.7963 92.6802 11.4963 92.9802 11.1963C93.2802 10.8963 93.5802 10.7963 93.8802 10.7963V10.8163Z" fill="white"/>
</g>
<defs>
<clipPath id="clip0_4_2967">
<rect width="110" height="26" fill="white" transform="translate(0.390137 0.45636)"/>
</clipPath>
</defs>
</svg>
