<svg width="111" height="27" viewBox="0 0 111 27" fill="none" xmlns="http://www.w3.org/2000/svg">
<g opacity="0.9" clip-path="url(#clip0_4_2967)">
<path d="M17.07 1.67998C13.94 1.71998 7.40997 1.84998 5.37997 2.36998C3.88997 2.76998 2.78997 3.96998 2.38997 5.36998C1.69997 8.06998 1.70997 13.68 1.70997 13.68C1.70997 13.68 1.69997 19.29 2.38997 21.99C2.77997 23.49 3.97997 24.59 5.37997 24.99C8.06997 25.69 18.78 25.67 18.78 25.67C18.78 25.67 29.48 25.68 32.18 24.99C33.68 24.59 34.77 23.39 35.17 21.99C35.86 19.29 35.85 13.68 35.85 13.68C35.85 13.68 35.96 8.06998 35.17 5.36998C34.77 3.86998 33.58 2.76998 32.18 2.36998C29.5 1.66998 18.79 1.67998 18.79 1.67998C18.79 1.67998 18.12 1.66998 17.08 1.67998H17.07ZM89.28 2.57998V23.86H92.06L92.37 22.49H92.46C92.76 22.99 93.17 23.37 93.67 23.67C94.17 23.97 94.75 24.07 95.35 24.07C96.45 24.07 97.34 23.58 97.84 22.48C98.34 21.38 98.65 19.78 98.65 17.58V15.18C98.65 13.58 98.54 12.28 98.34 11.28C98.14 10.39 97.84 9.68998 97.34 9.18998C96.84 8.78998 96.24 8.59998 95.44 8.59998C94.85 8.59998 94.26 8.78998 93.76 9.08998C93.27 9.38998 92.75 9.88998 92.55 10.49V2.58998H89.27L89.28 2.57998ZM39.29 3.35998L43.19 17.26L43.37 23.97H46.68V17.26L50.55 3.35998H47.18L45.78 9.66998C45.38 11.56 45.07 12.86 44.97 13.66H44.88C44.68 12.56 44.37 11.26 44.07 9.66998L42.7 3.35998H39.3H39.29ZM68.88 3.35998V6.06998H72.28V23.97H75.56V6.06998H78.96C78.96 6.06998 78.96 3.35998 78.87 3.35998H68.88ZM15.39 8.47998L24.29 13.66L15.39 18.75V8.46998V8.47998ZM104.79 8.56998C103.09 8.56998 101.9 9.15998 101.2 10.16C100.51 11.15 100.21 12.76 100.21 15.06V17.65C100.21 19.85 100.51 21.55 101.2 22.55C101.9 23.65 103 24.14 104.7 24.14C106.1 24.14 107.08 23.84 107.88 23.14C108.58 22.44 108.97 21.45 108.97 20.05V19.55L106.07 19.34C106.07 20.34 105.99 20.94 105.79 21.34C105.69 21.74 105.29 21.96 104.79 21.96C104.49 21.96 104.18 21.85 103.98 21.65C103.78 21.35 103.68 21.06 103.58 20.56C103.48 20.06 103.49 19.35 103.49 18.35V17.57L109.2 17.48V14.86C109.2 13.26 109.1 12.08 108.8 11.18C108.6 10.29 108.09 9.58998 107.49 9.18998C106.79 8.78998 106.01 8.59998 104.81 8.59998L104.79 8.56998ZM54.3 8.65998C53.21 8.65998 52.29 8.83998 51.59 9.33998C50.89 9.73998 50.39 10.46 50.1 11.46C49.8 12.46 49.6 13.73 49.6 15.33V17.54C49.6 19.04 49.7 20.32 50 21.32C50.2 22.22 50.7 22.94 51.4 23.44C52.09 23.94 53.11 24.12 54.21 24.22C55.4 24.22 56.29 23.94 56.99 23.54C57.68 23.14 58.08 22.45 58.48 21.45C58.87 20.45 58.97 19.15 58.97 17.55V15.34C58.97 13.74 58.77 12.47 58.48 11.47C58.18 10.58 57.68 9.84998 56.99 9.34998C56.29 8.84998 55.41 8.66998 54.31 8.66998L54.3 8.65998ZM66.48 8.74998V20.65C66.38 20.95 66.19 21.13 65.89 21.33C65.69 21.53 65.38 21.64 65.08 21.64C64.78 21.64 64.5 21.54 64.4 21.24C64.3 20.94 64.22 20.54 64.22 19.84V8.84998H60.82V20.06C60.82 21.46 61 22.45 61.5 23.15C61.99 23.85 62.71 24.15 63.71 24.15C65.11 24.15 66.19 23.46 66.89 22.06H66.98L67.29 23.84H69.88V8.84998C69.88 8.84998 66.48 8.84998 66.48 8.75998V8.74998ZM83.79 8.74998V20.65C83.69 20.95 83.5 21.13 83.2 21.33C83 21.53 82.69 21.64 82.39 21.64C82.09 21.64 81.81 21.54 81.71 21.24C81.61 20.94 81.5 20.54 81.5 19.84V8.84998H78.1V20.06C78.1 21.46 78.31 22.45 78.81 23.15C79.31 23.85 79.99 24.15 80.99 24.15C82.38 24.15 83.5 23.46 84.2 22.06H84.29L84.57 23.84H87.19V8.84998C87.19 8.84998 83.79 8.84998 83.79 8.75998V8.74998ZM104.69 10.84C105.09 10.84 105.27 10.95 105.47 11.15C105.67 11.45 105.77 11.74 105.87 12.24C105.97 12.74 105.96 13.45 105.96 14.45V15.54H103.46V14.45C103.46 13.45 103.46 12.74 103.55 12.24C103.55 11.84 103.66 11.44 103.86 11.24C104.06 10.94 104.37 10.84 104.67 10.84H104.69ZM54.2 10.96C54.7 10.96 55 11.14 55.2 11.64C55.39 12.14 55.48 12.94 55.48 14.04V18.72C55.48 19.82 55.4 20.62 55.2 21.12C55 21.62 54.7 21.8 54.2 21.8C53.7 21.8 53.41 21.62 53.21 21.12C53.01 20.62 52.9 19.82 52.9 18.72V14.04C52.9 12.94 53.01 12.14 53.21 11.64C53.41 11.14 53.7 10.96 54.2 10.96ZM93.88 11.05C94.18 11.05 94.49 11.15 94.69 11.45C94.89 11.75 94.96 12.12 95.06 12.82C95.16 13.42 95.18 14.33 95.18 15.53L95.27 17.43C95.27 18.53 95.27 19.42 95.18 20.02C95.08 20.62 94.99 21.1 94.69 21.3C94.49 21.6 94.19 21.7 93.79 21.7C93.49 21.7 93.28 21.62 92.98 21.52C92.78 21.42 92.59 21.23 92.39 20.93V12.43C92.49 12.03 92.68 11.73 92.98 11.43C93.28 11.13 93.58 11.03 93.88 11.03V11.05Z" fill="white" stroke="black" stroke-opacity="0.15" stroke-width="2"/>
<path d="M17.07 1.67998C13.94 1.71998 7.40997 1.84998 5.37997 2.36998C3.88997 2.76998 2.78997 3.96998 2.38997 5.36998C1.69997 8.06998 1.70997 13.68 1.70997 13.68C1.70997 13.68 1.69997 19.29 2.38997 21.99C2.77997 23.49 3.97997 24.59 5.37997 24.99C8.06997 25.69 18.78 25.67 18.78 25.67C18.78 25.67 29.48 25.68 32.18 24.99C33.68 24.59 34.77 23.39 35.17 21.99C35.86 19.29 35.85 13.68 35.85 13.68C35.85 13.68 35.96 8.06998 35.17 5.36998C34.77 3.86998 33.58 2.76998 32.18 2.36998C29.5 1.66998 18.79 1.67998 18.79 1.67998C18.79 1.67998 18.12 1.66998 17.08 1.67998H17.07ZM89.28 2.57998V23.86H92.06L92.37 22.49H92.46C92.76 22.99 93.17 23.37 93.67 23.67C94.17 23.97 94.75 24.07 95.35 24.07C96.45 24.07 97.34 23.58 97.84 22.48C98.34 21.38 98.65 19.78 98.65 17.58V15.18C98.65 13.58 98.54 12.28 98.34 11.28C98.14 10.39 97.84 9.68998 97.34 9.18998C96.84 8.78998 96.24 8.59998 95.44 8.59998C94.85 8.59998 94.26 8.78998 93.76 9.08998C93.27 9.38998 92.75 9.88998 92.55 10.49V2.58998H89.27L89.28 2.57998ZM39.29 3.35998L43.19 17.26L43.37 23.97H46.68V17.26L50.55 3.35998H47.18L45.78 9.66998C45.38 11.56 45.07 12.86 44.97 13.66H44.88C44.68 12.56 44.37 11.26 44.07 9.66998L42.7 3.35998H39.3H39.29ZM68.88 3.35998V6.06998H72.28V23.97H75.56V6.06998H78.96C78.96 6.06998 78.96 3.35998 78.87 3.35998H68.88ZM15.39 8.47998L24.29 13.66L15.39 18.75V8.46998V8.47998ZM104.79 8.56998C103.09 8.56998 101.9 9.15998 101.2 10.16C100.51 11.15 100.21 12.76 100.21 15.06V17.65C100.21 19.85 100.51 21.55 101.2 22.55C101.9 23.65 103 24.14 104.7 24.14C106.1 24.14 107.08 23.84 107.88 23.14C108.58 22.44 108.97 21.45 108.97 20.05V19.55L106.07 19.34C106.07 20.34 105.99 20.94 105.79 21.34C105.69 21.74 105.29 21.96 104.79 21.96C104.49 21.96 104.18 21.85 103.98 21.65C103.78 21.35 103.68 21.06 103.58 20.56C103.48 20.06 103.49 19.35 103.49 18.35V17.57L109.2 17.48V14.86C109.2 13.26 109.1 12.08 108.8 11.18C108.6 10.29 108.09 9.58998 107.49 9.18998C106.79 8.78998 106.01 8.59998 104.81 8.59998L104.79 8.56998ZM54.3 8.65998C53.21 8.65998 52.29 8.83998 51.59 9.33998C50.89 9.73998 50.39 10.46 50.1 11.46C49.8 12.46 49.6 13.73 49.6 15.33V17.54C49.6 19.04 49.7 20.32 50 21.32C50.2 22.22 50.7 22.94 51.4 23.44C52.09 23.94 53.11 24.12 54.21 24.22C55.4 24.22 56.29 23.94 56.99 23.54C57.68 23.14 58.08 22.45 58.48 21.45C58.87 20.45 58.97 19.15 58.97 17.55V15.34C58.97 13.74 58.77 12.47 58.48 11.47C58.18 10.58 57.68 9.84998 56.99 9.34998C56.29 8.84998 55.41 8.66998 54.31 8.66998L54.3 8.65998ZM66.48 8.74998V20.65C66.38 20.95 66.19 21.13 65.89 21.33C65.69 21.53 65.38 21.64 65.08 21.64C64.78 21.64 64.5 21.54 64.4 21.24C64.3 20.94 64.22 20.54 64.22 19.84V8.84998H60.82V20.06C60.82 21.46 61 22.45 61.5 23.15C61.99 23.85 62.71 24.15 63.71 24.15C65.11 24.15 66.19 23.46 66.89 22.06H66.98L67.29 23.84H69.88V8.84998C69.88 8.84998 66.48 8.84998 66.48 8.75998V8.74998ZM83.79 8.74998V20.65C83.69 20.95 83.5 21.13 83.2 21.33C83 21.53 82.69 21.64 82.39 21.64C82.09 21.64 81.81 21.54 81.71 21.24C81.61 20.94 81.5 20.54 81.5 19.84V8.84998H78.1V20.06C78.1 21.46 78.31 22.45 78.81 23.15C79.31 23.85 79.99 24.15 80.99 24.15C82.38 24.15 83.5 23.46 84.2 22.06H84.29L84.57 23.84H87.19V8.84998C87.19 8.84998 83.79 8.84998 83.79 8.75998V8.74998ZM104.69 10.84C105.09 10.84 105.27 10.95 105.47 11.15C105.67 11.45 105.77 11.74 105.87 12.24C105.97 12.74 105.96 13.45 105.96 14.45V15.54H103.46V14.45C103.46 13.45 103.46 12.74 103.55 12.24C103.55 11.84 103.66 11.44 103.86 11.24C104.06 10.94 104.37 10.84 104.67 10.84H104.69ZM54.2 10.96C54.7 10.96 55 11.14 55.2 11.64C55.39 12.14 55.48 12.94 55.48 14.04V18.72C55.48 19.82 55.4 20.62 55.2 21.12C55 21.62 54.7 21.8 54.2 21.8C53.7 21.8 53.41 21.62 53.21 21.12C53.01 20.62 52.9 19.82 52.9 18.72V14.04C52.9 12.94 53.01 12.14 53.21 11.64C53.41 11.14 53.7 10.96 54.2 10.96ZM93.88 11.05C94.18 11.05 94.49 11.15 94.69 11.45C94.89 11.75 94.96 12.12 95.06 12.82C95.16 13.42 95.18 14.33 95.18 15.53L95.27 17.43C95.27 18.53 95.27 19.42 95.18 20.02C95.08 20.62 94.99 21.1 94.69 21.3C94.49 21.6 94.19 21.7 93.79 21.7C93.49 21.7 93.28 21.62 92.98 21.52C92.78 21.42 92.59 21.23 92.39 20.93V12.43C92.49 12.03 92.68 11.73 92.98 11.43C93.28 11.13 93.58 11.03 93.88 11.03V11.05Z" fill="white"/>
</g>
<defs>
<clipPath id="clip0_4_2967">
<rect width="110" height="26" fill="white" transform="translate(0.390015 0.690002)"/>
</clipPath>
</defs>
</svg>
