<svg width="14" height="14" viewBox="0 0 14 14" fill="none" xmlns="http://www.w3.org/2000/svg">
<g clip-path="url(#clip0_121_2274)">
<path d="M11.4077 2.58795C11.398 2.52012 11.3399 2.48136 11.2915 2.48136C11.243 2.48136 10.2836 2.46198 10.2836 2.46198C10.2836 2.46198 9.47927 1.68673 9.40173 1.59951C9.32427 1.52199 9.1692 1.54137 9.11107 1.56075C9.11107 1.56075 8.956 1.6092 8.70407 1.68673C8.66527 1.55106 8.59747 1.38632 8.5102 1.21189C8.2292 0.669213 7.8028 0.378494 7.2989 0.378494C7.26014 0.378494 7.23107 0.378494 7.19231 0.388185C7.17293 0.368803 7.16323 0.349422 7.14385 0.339731C6.92097 0.107157 6.63994 -0.009131 6.30077 0.000559627C5.6515 0.0199409 5.00223 0.494781 4.46924 1.32817C4.101 1.9193 3.81997 2.65579 3.73275 3.22753C2.98658 3.46011 2.46328 3.62485 2.4439 3.62485C2.06597 3.74114 2.05628 3.75083 2.00783 4.10938C1.98844 4.38072 1 12.0266 1 12.0266L9.2952 13.4608L12.8904 12.5693C12.8807 12.5693 11.4174 2.65579 11.4077 2.58795ZM8.28733 1.82239C8.09353 1.88054 7.88033 1.94837 7.64777 2.0259C7.64777 1.69642 7.59931 1.23127 7.45395 0.843647C7.9482 0.921167 8.19047 1.48323 8.28733 1.82239ZM7.21169 2.15188C6.77561 2.28755 6.30077 2.43291 5.82593 2.57827C5.96159 2.06466 6.21355 1.56075 6.52365 1.22158C6.63994 1.0956 6.80468 0.959933 6.9888 0.882407C7.18261 1.26034 7.22137 1.79333 7.21169 2.15188ZM6.32015 0.436637C6.4752 0.436637 6.60118 0.465709 6.70777 0.543234C6.53334 0.63045 6.35891 0.76612 6.20386 0.940547C5.78717 1.38632 5.46737 2.07435 5.34139 2.74301C4.94408 2.86898 4.55645 2.98527 4.20759 3.09187C4.44017 2.03559 5.32201 0.465709 6.32015 0.436637Z" fill="#95BF47"/>
<path d="M11.2912 2.48157C11.2427 2.48157 10.2833 2.46219 10.2833 2.46219C10.2833 2.46219 9.47899 1.68694 9.40152 1.59972C9.37246 1.57065 9.33366 1.55127 9.29492 1.55127V13.461L12.8901 12.5695C12.8901 12.5695 11.4269 2.656 11.4171 2.58816C11.3978 2.52033 11.3396 2.48157 11.2912 2.48157Z" fill="#5E8E3E"/>
<path d="M7.2994 4.33227L6.88271 5.89246C6.88271 5.89246 6.41755 5.67927 5.86519 5.71803C5.05118 5.76648 5.05118 6.28009 5.05118 6.40606C5.09963 7.1038 6.93116 7.25887 7.03775 8.89653C7.11528 10.1854 6.35941 11.0673 5.25468 11.1351C3.93675 11.2029 3.20996 10.4277 3.20996 10.4277L3.49099 9.23573C3.49099 9.23573 4.22747 9.78807 4.80891 9.74933C5.18685 9.72993 5.33221 9.41013 5.31283 9.19693C5.25468 8.28607 3.76233 8.3442 3.66542 6.84213C3.58789 5.58236 4.41159 4.31289 6.23343 4.1966C6.94085 4.14815 7.2994 4.33227 7.2994 4.33227Z" fill="white"/>
</g>
<defs>
<clipPath id="clip0_121_2274">
<rect width="14" height="14" fill="white"/>
</clipPath>
</defs>
</svg>
