<svg width="14" height="15" viewBox="0 0 14 15" fill="none" xmlns="http://www.w3.org/2000/svg">
<g clip-path="url(#clip0_4_3020)">
<path d="M5.82721 3.07332C6.27827 2.59935 6.90623 2.3054 7.60074 2.3054C8.52398 2.3054 9.32951 2.82458 9.75843 3.59531C10.1312 3.42734 10.5438 3.33391 10.978 3.33391C12.6431 3.33391 13.9931 4.70721 13.9931 6.40117C13.9931 8.09536 12.6431 9.46864 10.978 9.46864C10.7747 9.46864 10.5761 9.44816 10.384 9.40896C10.0063 10.0885 9.28646 10.5476 8.46023 10.5476C8.11437 10.5476 7.78723 10.467 7.49598 10.3237C7.11302 11.2321 6.22087 11.8691 5.1811 11.8691C4.09829 11.8691 3.17545 11.1781 2.82122 10.209C2.66641 10.2422 2.50603 10.2595 2.34147 10.2595C1.05224 10.2595 0.00708008 9.19459 0.00708008 7.88075C0.00708008 7.00032 0.476667 6.2316 1.17437 5.82031C1.03073 5.48699 0.950836 5.1191 0.950836 4.73232C0.950836 3.2214 2.16714 1.99658 3.66735 1.99658C4.54815 1.99658 5.33093 2.41892 5.82721 3.07332Z" fill="#00A1E0"/>
<path d="M2.0327 7.11661C2.02393 7.13972 2.03589 7.14453 2.03868 7.14855C2.06498 7.16784 2.09168 7.18171 2.11857 7.19718C2.26122 7.27353 2.3959 7.29583 2.53675 7.29583C2.82365 7.29583 3.00176 7.14193 3.00176 6.89419V6.88937C3.00176 6.66032 2.80074 6.57714 2.61207 6.51706L2.58756 6.50902C2.44531 6.46241 2.32258 6.42223 2.32258 6.32779V6.32277C2.32258 6.242 2.3943 6.18252 2.50548 6.18252C2.629 6.18252 2.77564 6.22392 2.87007 6.27656C2.87007 6.27656 2.89776 6.29464 2.90792 6.26752C2.9135 6.25305 2.96132 6.12326 2.9663 6.10919C2.97168 6.09392 2.96212 6.08267 2.95235 6.07664C2.84457 6.01054 2.69554 5.96533 2.54134 5.96533L2.51265 5.96553C2.25006 5.96553 2.06677 6.12546 2.06677 6.35472V6.35954C2.06677 6.60125 2.26899 6.67961 2.45846 6.73426L2.48894 6.7437C2.62701 6.7865 2.74595 6.82326 2.74595 6.92132V6.92613C2.74595 7.01575 2.66865 7.08245 2.54393 7.08245C2.49552 7.08245 2.34111 7.08145 2.17436 6.97516C2.15423 6.9633 2.14248 6.95467 2.12694 6.94522C2.11877 6.94 2.09825 6.93096 2.08929 6.95828L2.0327 7.11661Z" fill="white"/>
<path d="M6.23268 7.11661C6.22387 7.13972 6.23583 7.14453 6.23863 7.14855C6.26494 7.16784 6.29165 7.18171 6.31854 7.19718C6.46117 7.27353 6.59586 7.29583 6.73674 7.29583C7.02362 7.29583 7.20171 7.14193 7.20171 6.89419V6.88937C7.20171 6.66032 7.00069 6.57714 6.81204 6.51706L6.78749 6.50902C6.64527 6.46241 6.52254 6.42223 6.52254 6.32779V6.32277C6.52254 6.242 6.59429 6.18252 6.70541 6.18252C6.82896 6.18252 6.97561 6.22392 7.07005 6.27656C7.07005 6.27656 7.0977 6.29464 7.10785 6.26752C7.11345 6.25305 7.16129 6.12326 7.16624 6.10919C7.17161 6.09392 7.16204 6.08267 7.1523 6.07664C7.0445 6.01054 6.89552 5.96533 6.74129 5.96533L6.71259 5.96553C6.45003 5.96553 6.26674 6.12546 6.26674 6.35472V6.35954C6.26674 6.60125 6.46893 6.67961 6.65839 6.73426L6.6889 6.7437C6.82698 6.7865 6.94609 6.82326 6.94609 6.92132V6.92613C6.94609 7.01575 6.86863 7.08245 6.74391 7.08245C6.69549 7.08245 6.54109 7.08145 6.37431 6.97516C6.35419 6.9633 6.34223 6.95507 6.32712 6.94522C6.32193 6.94181 6.2976 6.93236 6.28926 6.95828L6.23268 7.11661Z" fill="white"/>
<path d="M9.10003 6.63098C9.10003 6.77103 9.07413 6.88133 9.02314 6.95929C8.97274 7.03644 8.89639 7.07401 8.79004 7.07401C8.68341 7.07401 8.60752 7.03665 8.55794 6.95929C8.50771 6.88153 8.48222 6.77103 8.48222 6.63098C8.48222 6.49114 8.50771 6.38104 8.55794 6.30389C8.60752 6.22753 8.68341 6.19036 8.79004 6.19036C8.89639 6.19036 8.97275 6.22753 9.02332 6.30389C9.07413 6.38104 9.10003 6.49114 9.10003 6.63098ZM9.33949 6.3714C9.31598 6.29123 9.27934 6.2205 9.23052 6.16163C9.18169 6.10256 9.11992 6.05515 9.04665 6.02059C8.9735 5.98623 8.88705 5.96875 8.79004 5.96875C8.6928 5.96875 8.60635 5.98623 8.5332 6.02059C8.45988 6.05515 8.39816 6.10256 8.3491 6.16163C8.30051 6.2207 8.26388 6.29143 8.24014 6.3714C8.21686 6.45116 8.20508 6.53836 8.20508 6.63098C8.20508 6.72361 8.21686 6.81101 8.24014 6.89057C8.26388 6.97054 8.30034 7.04127 8.34934 7.10033C8.39816 7.15941 8.46011 7.20662 8.5332 7.24018C8.60653 7.27373 8.6928 7.29081 8.79004 7.29081C8.88705 7.29081 8.97333 7.27373 9.04665 7.24018C9.11974 7.20662 9.18169 7.15941 9.23052 7.10033C9.27934 7.04146 9.31598 6.97074 9.33949 6.89057C9.363 6.81081 9.37478 6.72341 9.37478 6.63098C9.37478 6.53856 9.363 6.45116 9.33949 6.3714Z" fill="white"/>
<path d="M11.306 7.03687C11.298 7.01336 11.2755 7.02221 11.2755 7.02221C11.2406 7.03567 11.2036 7.04812 11.1642 7.05435C11.1241 7.06058 11.0801 7.0638 11.0329 7.0638C10.9169 7.0638 10.8248 7.02904 10.7589 6.96032C10.6928 6.89161 10.6557 6.7805 10.6561 6.63021C10.6565 6.49338 10.6892 6.39051 10.748 6.31215C10.8064 6.23419 10.8952 6.19421 11.0137 6.19421C11.1125 6.19421 11.1879 6.20566 11.2668 6.23078C11.2668 6.23078 11.2857 6.23902 11.2947 6.2141C11.3155 6.15543 11.3311 6.11344 11.3534 6.04894C11.3598 6.03066 11.3442 6.02282 11.3387 6.02062C11.3076 6.00836 11.2343 5.98847 11.1789 5.98003C11.1271 5.97199 11.0665 5.96777 10.9992 5.96777C10.8986 5.96777 10.8089 5.98505 10.7322 6.01961C10.6557 6.05397 10.5908 6.10139 10.5394 6.16045C10.488 6.21953 10.4489 6.29025 10.4228 6.37022C10.3969 6.44999 10.3838 6.53759 10.3838 6.63021C10.3838 6.83053 10.4373 6.99247 10.5432 7.11101C10.6491 7.22996 10.8083 7.29044 11.0159 7.29044C11.1386 7.29044 11.2646 7.26532 11.355 7.22935C11.355 7.22935 11.3724 7.22092 11.3648 7.20063L11.306 7.03687Z" fill="white"/>
<path d="M11.7249 6.49677C11.7363 6.41901 11.7576 6.35432 11.7905 6.30389C11.8401 6.22734 11.9158 6.18534 12.0222 6.18534C12.1286 6.18534 12.1989 6.22753 12.2493 6.30389C12.2828 6.35432 12.2973 6.42182 12.3031 6.49677H11.7249ZM12.5312 6.32579C12.5109 6.24843 12.4605 6.17027 12.4274 6.13451C12.3752 6.07785 12.3242 6.03827 12.2736 6.01617C12.2075 5.98764 12.1282 5.96875 12.0413 5.96875C11.9401 5.96875 11.8482 5.98583 11.7737 6.02119C11.699 6.05655 11.6363 6.10477 11.5871 6.16485C11.5378 6.22472 11.5008 6.29605 11.4773 6.37702C11.4536 6.45759 11.4417 6.54539 11.4417 6.63802C11.4417 6.73225 11.454 6.82005 11.4785 6.89901C11.5032 6.97858 11.5426 7.0487 11.596 7.10677C11.6492 7.16524 11.7177 7.21105 11.7998 7.24299C11.8813 7.27473 11.9804 7.29121 12.0941 7.29101C12.3282 7.29021 12.4515 7.23756 12.5023 7.20924C12.5113 7.20421 12.5199 7.19537 12.5091 7.17006L12.4561 7.02037C12.4481 6.99807 12.4256 7.00631 12.4256 7.00631C12.3676 7.02801 12.2852 7.06699 12.0929 7.06658C11.9672 7.06638 11.874 7.02901 11.8156 6.97054C11.7556 6.91067 11.7263 6.82266 11.7211 6.69849L12.5318 6.6993C12.5318 6.6993 12.5531 6.6989 12.5554 6.678C12.5561 6.66916 12.5832 6.51003 12.5312 6.32579Z" fill="white"/>
<path d="M5.23277 6.49677C5.24433 6.41901 5.26544 6.35432 5.29831 6.30389C5.34793 6.22734 5.42363 6.18534 5.53002 6.18534C5.63641 6.18534 5.70674 6.22753 5.75734 6.30389C5.79061 6.35432 5.80516 6.42182 5.81094 6.49677H5.23277ZM6.03888 6.32579C6.01853 6.24843 5.9683 6.17027 5.93528 6.13451C5.88308 6.07785 5.83206 6.03827 5.78145 6.01617C5.7153 5.98764 5.63601 5.96875 5.54915 5.96875C5.44814 5.96875 5.35609 5.98583 5.28158 6.02119C5.20687 6.05655 5.14411 6.10477 5.0949 6.16485C5.04569 6.22472 5.00864 6.29605 4.98512 6.37702C4.96161 6.45759 4.94946 6.54539 4.94946 6.63802C4.94946 6.73225 4.96181 6.82005 4.98632 6.89901C5.01102 6.97858 5.05047 7.0487 5.10387 7.10677C5.15706 7.16524 5.2256 7.21105 5.30768 7.24299C5.38916 7.27473 5.48818 7.29121 5.60194 7.29101C5.83606 7.29021 5.95938 7.23756 6.01018 7.20924C6.01911 7.20421 6.02768 7.19537 6.01695 7.17006L5.96416 7.02037C5.95599 6.99807 5.93348 7.00631 5.93348 7.00631C5.87549 7.02801 5.79321 7.06699 5.60055 7.06658C5.47503 7.06638 5.38179 7.02901 5.32342 6.97054C5.26345 6.91067 5.23416 6.82266 5.22898 6.69849L6.03964 6.6993C6.03964 6.6993 6.06099 6.6989 6.06315 6.678C6.06397 6.66916 6.09103 6.51003 6.03888 6.32579Z" fill="white"/>
<path d="M3.48044 7.03246C3.44877 7.00693 3.44438 7.00051 3.43362 6.98403C3.41769 6.95891 3.40951 6.92316 3.40951 6.87774C3.40951 6.80581 3.43302 6.75418 3.48184 6.71942C3.48124 6.71962 3.55157 6.65814 3.71693 6.66035C3.83308 6.66196 3.93688 6.67924 3.93688 6.67924V7.05094C3.93688 7.05094 3.83408 7.07324 3.71813 7.08027C3.55316 7.09032 3.47985 7.03225 3.48044 7.03246ZM3.803 6.45802C3.77013 6.45561 3.72749 6.4542 3.67648 6.4542C3.60696 6.4542 3.53981 6.46304 3.47685 6.48012C3.4135 6.4972 3.35652 6.52392 3.30751 6.55929C3.2583 6.59485 3.21865 6.64026 3.18997 6.69411C3.16128 6.74795 3.14673 6.81144 3.14673 6.88257C3.14673 6.9549 3.15908 7.01778 3.18379 7.06922C3.20849 7.12086 3.24415 7.16386 3.28958 7.19701C3.3346 7.23016 3.39019 7.25447 3.45474 7.26914C3.51829 7.28381 3.59042 7.29124 3.66931 7.29124C3.75239 7.29124 3.83527 7.28441 3.91556 7.27055C3.99505 7.25688 4.09268 7.23699 4.11978 7.23077C4.14667 7.22433 4.17656 7.2161 4.17656 7.2161C4.19668 7.21107 4.19508 7.18937 4.19508 7.18937L4.19469 6.44174C4.19469 6.27779 4.15125 6.15624 4.06578 6.08089C3.98071 6.00575 3.8554 5.96777 3.69342 5.96777C3.63266 5.96777 3.53483 5.97621 3.47626 5.98807C3.47626 5.98807 3.29914 6.02262 3.22623 6.08009C3.22623 6.08009 3.21028 6.09013 3.21905 6.11264L3.27643 6.26815C3.2836 6.28824 3.30293 6.28141 3.30293 6.28141C3.30293 6.28141 3.30911 6.279 3.31627 6.27478C3.47228 6.18919 3.66951 6.1918 3.66951 6.1918C3.75718 6.1918 3.82452 6.20948 3.86994 6.24464C3.91417 6.2788 3.93668 6.33044 3.93668 6.43933V6.47389C3.86695 6.46385 3.803 6.45802 3.803 6.45802Z" fill="white"/>
<path d="M10.3412 6.03655C10.3474 6.01806 10.3345 6.00922 10.3291 6.00721C10.3153 6.00179 10.2465 5.98712 10.1933 5.98371C10.0915 5.97748 10.0349 5.99475 9.98425 6.01766C9.93402 6.04057 9.87826 6.07753 9.84717 6.11953V6.02007C9.84717 6.00621 9.83742 5.99516 9.82389 5.99516H9.61605C9.60252 5.99516 9.59277 6.00621 9.59277 6.02007V7.23946C9.59277 7.25313 9.60391 7.26438 9.61745 7.26438H9.83042C9.84402 7.26438 9.85498 7.25313 9.85498 7.23946V6.63027C9.85498 6.54849 9.86391 6.46692 9.88187 6.41569C9.89937 6.36505 9.92329 6.32447 9.95275 6.29533C9.98244 6.2664 10.0162 6.24611 10.053 6.23466C10.0906 6.223 10.1323 6.21919 10.1618 6.21919C10.2042 6.21919 10.2508 6.23023 10.2508 6.23023C10.2663 6.23204 10.2752 6.2224 10.2803 6.20814C10.2942 6.17076 10.3337 6.05885 10.3412 6.03655Z" fill="white"/>
<path d="M8.34223 5.47158C8.31633 5.46354 8.29282 5.45812 8.26214 5.45229C8.23105 5.44667 8.19401 5.44385 8.15195 5.44385C8.0053 5.44385 7.88974 5.48564 7.80866 5.56802C7.72798 5.65 7.67321 5.77477 7.64573 5.93892L7.63576 5.99418H7.45166C7.45166 5.99418 7.42931 5.99337 7.42453 6.01788L7.39449 6.18806C7.39227 6.20413 7.39927 6.21438 7.4208 6.21438H7.59988L7.41817 7.23748C7.40406 7.31985 7.38772 7.38756 7.36958 7.439C7.35185 7.48963 7.33452 7.5276 7.313 7.55533C7.29229 7.58185 7.27275 7.60155 7.23886 7.613C7.21097 7.62244 7.17871 7.62686 7.14342 7.62686C7.12394 7.62686 7.09781 7.62364 7.0785 7.61963C7.05936 7.61581 7.04921 7.61159 7.03469 7.60536C7.03469 7.60536 7.01375 7.59732 7.00535 7.61842C6.99881 7.6359 6.95098 7.76831 6.94521 7.78458C6.93961 7.80086 6.9476 7.81352 6.95775 7.81733C6.98166 7.82578 6.9994 7.83138 7.03189 7.83925C7.07692 7.84987 7.11496 7.85051 7.1506 7.85051C7.22515 7.85051 7.29328 7.83984 7.34963 7.81934C7.40621 7.79865 7.45562 7.76268 7.49949 7.71406C7.54668 7.66142 7.57637 7.60636 7.60466 7.53102C7.63278 7.45668 7.65687 7.36426 7.67601 7.25656L7.85871 6.21438H8.12564C8.12564 6.21438 8.14816 6.21519 8.15276 6.19047L8.18304 6.0205C8.18502 6.00422 8.17826 5.99418 8.15656 5.99418H7.89732C7.89872 5.98835 7.91051 5.89633 7.94014 5.80973C7.95291 5.77296 7.97683 5.74302 7.99696 5.72253C8.01685 5.70243 8.03977 5.68817 8.06491 5.67993C8.09058 5.67149 8.11986 5.66747 8.15195 5.66747C8.17627 5.66747 8.20036 5.67029 8.21851 5.67411C8.24359 5.67953 8.25333 5.68234 8.25992 5.68435C8.28641 5.69239 8.29002 5.68455 8.29521 5.6717L8.35716 5.50011C8.36352 5.48162 8.34777 5.47379 8.34223 5.47158Z" fill="white"/>
<path d="M4.72062 7.23973C4.72062 7.25339 4.71086 7.26444 4.69731 7.26444H4.48234C4.4688 7.26444 4.45923 7.25339 4.45923 7.23973V5.49492C4.45923 5.48126 4.4688 5.47021 4.48234 5.47021H4.69731C4.71086 5.47021 4.72062 5.48126 4.72062 5.49492V7.23973Z" fill="white"/>
</g>
<defs>
<clipPath id="clip0_4_3020">
<rect width="14" height="14" fill="white" transform="translate(0 0.239746)"/>
</clipPath>
</defs>
</svg>
