<svg width="14" height="15" viewBox="0 0 14 15" fill="none" xmlns="http://www.w3.org/2000/svg">
<g clip-path="url(#clip0_4_3048)">
<mask id="mask0_4_3048" style="mask-type:luminance" maskUnits="userSpaceOnUse" x="0" y="3" width="14" height="9">
<path d="M13.9463 3.07373H0V11.4053H13.9463V3.07373Z" fill="white"/>
</mask>
<g mask="url(#mask0_4_3048)">
<path d="M1.29612 3.07373H12.6493C13.363 3.07373 13.9458 3.65869 13.9458 4.38032V8.7265C13.9458 9.44813 13.363 10.0331 12.6438 10.0331H8.57437L9.13544 11.4053L6.67852 10.0331H1.30156C0.582461 10.0331 -0.000450404 9.44813 -0.000450404 8.7265V4.38032C-0.00589818 3.66415 0.577013 3.07373 1.29612 3.07373Z" fill="#9B5C8F"/>
<path d="M0.795557 4.25999C0.877275 4.15065 0.991679 4.09598 1.15511 4.08504C1.44384 4.06318 1.60728 4.19985 1.65086 4.49506C1.82518 5.68138 2.02131 6.69276 2.22287 7.51826L3.46496 5.14563C3.57937 4.92695 3.72101 4.81761 3.88989 4.80668C4.14049 4.79027 4.29303 4.94881 4.35295 5.2823C4.48914 6.03673 4.67437 6.68182 4.88683 7.22851C5.03392 5.78525 5.28452 4.74108 5.63317 4.10145C5.72034 3.9429 5.84564 3.8609 6.00907 3.84997C6.13982 3.83903 6.25967 3.8773 6.36863 3.96478C6.47758 4.05224 6.53206 4.15611 6.54295 4.28732C6.5484 4.39119 6.53206 4.4732 6.48847 4.56067C6.26512 4.97068 6.08534 5.65951 5.93825 6.61622C5.79661 7.54559 5.74758 8.26722 5.78026 8.78111C5.79116 8.92325 5.76937 9.04899 5.71489 9.15832C5.64952 9.28407 5.54601 9.34967 5.41527 9.3606C5.26818 9.37153 5.11564 9.30593 4.96855 9.14739C4.44012 8.60617 4.02064 7.79707 3.71556 6.72556C3.34511 7.45265 3.07272 7.99934 2.8984 8.36563C2.56609 9.01072 2.2828 9.33873 2.0431 9.35513C1.89056 9.36607 1.75981 9.23486 1.64541 8.96152C1.35668 8.21802 1.04616 6.77476 0.708393 4.64267C0.681154 4.49506 0.71384 4.36386 0.795557 4.25999ZM12.9768 5.15655C12.7752 4.79574 12.4701 4.58253 12.067 4.49506C11.9581 4.4732 11.8546 4.46226 11.7619 4.46226C11.2171 4.46226 10.7759 4.74654 10.4272 5.3151C10.1331 5.79618 9.98597 6.33194 9.98597 6.9169C9.98597 7.35425 10.0785 7.73147 10.2583 8.04307C10.4599 8.4039 10.7649 8.6171 11.1681 8.70457C11.2771 8.72644 11.3805 8.73738 11.4732 8.73738C12.0234 8.73738 12.4647 8.45309 12.8079 7.88454C13.102 7.39799 13.2491 6.86223 13.2491 6.2718C13.2546 5.83445 13.1566 5.4627 12.9768 5.15655ZM12.2631 6.73102C12.1814 7.10824 12.0398 7.38705 11.8327 7.57292C11.6693 7.72053 11.5167 7.78613 11.3751 7.75333C11.239 7.726 11.1245 7.60572 11.0428 7.38158C10.9774 7.20664 10.9393 7.02624 10.9393 6.86223C10.9393 6.72009 10.9502 6.57795 10.9774 6.44675C11.0265 6.21167 11.1245 5.98753 11.2771 5.76885C11.4623 5.49003 11.6638 5.37523 11.8654 5.4135C12.0016 5.44084 12.116 5.56111 12.1977 5.78525C12.2631 5.96019 12.3012 6.1406 12.3012 6.3046C12.3012 6.45768 12.2904 6.59981 12.2631 6.73102ZM9.43025 5.15655C9.22874 4.79574 8.91818 4.58253 8.5205 4.49506C8.41155 4.4732 8.30803 4.46226 8.21542 4.46226C7.67064 4.46226 7.22937 4.74654 6.88071 5.3151C6.58654 5.79618 6.43945 6.33194 6.43945 6.9169C6.43945 7.35425 6.53206 7.73147 6.71183 8.04307C6.9134 8.4039 7.21848 8.6171 7.62161 8.70457C7.73057 8.72644 7.83408 8.73738 7.92669 8.73738C8.47694 8.73738 8.91818 8.45309 9.26143 7.88454C9.55559 7.39799 9.70268 6.86223 9.70268 6.2718C9.70268 5.83445 9.61003 5.4627 9.43025 5.15655ZM8.71115 6.73102C8.62945 7.10824 8.48781 7.38705 8.28077 7.57292C8.11736 7.72053 7.96482 7.78613 7.82319 7.75333C7.68699 7.726 7.57259 7.60572 7.49087 7.38158C7.42549 7.20664 7.38736 7.02624 7.38736 6.86223C7.38736 6.72009 7.39825 6.57795 7.42549 6.44675C7.47453 6.21167 7.57259 5.98753 7.72512 5.76885C7.91035 5.49003 8.11191 5.37523 8.31347 5.4135C8.44968 5.44084 8.56407 5.56111 8.64576 5.78525C8.71115 5.96019 8.74928 6.1406 8.74928 6.3046C8.75471 6.45768 8.73841 6.59981 8.71115 6.73102Z" fill="white"/>
</g>
</g>
<defs>
<clipPath id="clip0_4_3048">
<rect width="14" height="14" fill="white" transform="translate(0 0.239746)"/>
</clipPath>
</defs>
</svg>
