<svg width="14" height="15" viewBox="0 0 14 15" fill="none" xmlns="http://www.w3.org/2000/svg">
<g clip-path="url(#clip0_101_2133)">
<path d="M5.82697 2.8907C6.27802 2.41673 6.90598 2.12278 7.6005 2.12278C8.52374 2.12278 9.32926 2.64196 9.75819 3.41269C10.1309 3.24472 10.5435 3.1513 10.9777 3.1513C12.6428 3.1513 13.9928 4.52459 13.9928 6.21856C13.9928 7.91274 12.6428 9.28602 10.9777 9.28602C10.7745 9.28602 10.5758 9.26555 10.3838 9.22635C10.006 9.90587 9.28621 10.365 8.45998 10.365C8.11412 10.365 7.78699 10.2844 7.49573 10.1411C7.11277 11.0495 6.22062 11.6864 5.18086 11.6864C4.09804 11.6864 3.1752 10.9955 2.82097 10.0264C2.66617 10.0596 2.50579 10.0768 2.34122 10.0768C1.052 10.0768 0.00683594 9.01197 0.00683594 7.69813C0.00683594 6.8177 0.476423 6.04898 1.17413 5.6377C1.03048 5.30437 0.950591 4.93648 0.950591 4.5497C0.950591 3.03878 2.16689 1.81396 3.6671 1.81396C4.5479 1.81396 5.33068 2.2363 5.82697 2.8907Z" fill="#00A1E0"/>
<path d="M2.03295 6.93399C2.02418 6.9571 2.03614 6.96192 2.03893 6.96594C2.06522 6.98523 2.09192 6.99909 2.11882 7.01456C2.26147 7.09091 2.39615 7.11322 2.537 7.11322C2.82389 7.11322 3.002 6.95931 3.002 6.71157V6.70675C3.002 6.4777 2.80098 6.39452 2.61231 6.33444L2.58781 6.3264C2.44556 6.27979 2.32283 6.23961 2.32283 6.14517V6.14015C2.32283 6.05938 2.39455 5.99991 2.50572 5.99991C2.62925 5.99991 2.77588 6.0413 2.87032 6.09394C2.87032 6.09394 2.89801 6.11202 2.90817 6.0849C2.91374 6.07043 2.96156 5.94064 2.96654 5.92657C2.97192 5.9113 2.96236 5.90005 2.95259 5.89403C2.84481 5.82792 2.69579 5.78271 2.54158 5.78271L2.5129 5.78291C2.25031 5.78291 2.06702 5.94285 2.06702 6.1721V6.17692C2.06702 6.41863 2.26924 6.49699 2.4587 6.55164L2.48919 6.56108C2.62725 6.60388 2.74619 6.64065 2.74619 6.7387V6.74352C2.74619 6.83313 2.66889 6.89983 2.54417 6.89983C2.49576 6.89983 2.34135 6.89883 2.1746 6.79254C2.15448 6.78069 2.14272 6.77205 2.12718 6.7626C2.11902 6.75738 2.0985 6.74834 2.08953 6.77566L2.03295 6.93399Z" fill="white"/>
<path d="M6.23268 6.93399C6.22387 6.9571 6.23583 6.96192 6.23863 6.96594C6.26494 6.98523 6.29165 6.99909 6.31854 7.01456C6.46117 7.09091 6.59586 7.11322 6.73674 7.11322C7.02362 7.11322 7.20171 6.95931 7.20171 6.71157V6.70675C7.20171 6.4777 7.00069 6.39452 6.81204 6.33444L6.78749 6.3264C6.64527 6.27979 6.52254 6.23961 6.52254 6.14517V6.14015C6.52254 6.05938 6.59429 5.99991 6.70541 5.99991C6.82896 5.99991 6.97561 6.0413 7.07005 6.09394C7.07005 6.09394 7.0977 6.11202 7.10785 6.0849C7.11345 6.07043 7.16129 5.94064 7.16624 5.92657C7.17161 5.9113 7.16204 5.90005 7.1523 5.89403C7.0445 5.82792 6.89552 5.78271 6.74129 5.78271L6.71259 5.78291C6.45003 5.78291 6.26674 5.94285 6.26674 6.1721V6.17692C6.26674 6.41863 6.46893 6.49699 6.65839 6.55164L6.6889 6.56108C6.82698 6.60388 6.94609 6.64065 6.94609 6.7387V6.74352C6.94609 6.83313 6.86863 6.89983 6.74391 6.89983C6.69549 6.89983 6.54109 6.89883 6.37431 6.79254C6.35419 6.78069 6.34223 6.77245 6.32712 6.7626C6.32193 6.75919 6.2976 6.74975 6.28926 6.77566L6.23268 6.93399Z" fill="white"/>
<path d="M9.10003 6.44837C9.10003 6.58841 9.07413 6.69872 9.02314 6.77667C8.97274 6.85383 8.89639 6.8914 8.79004 6.8914C8.68341 6.8914 8.60752 6.85403 8.55794 6.77667C8.50771 6.69892 8.48222 6.58841 8.48222 6.44837C8.48222 6.30853 8.50771 6.19842 8.55794 6.12127C8.60752 6.04492 8.68341 6.00775 8.79004 6.00775C8.89639 6.00775 8.97275 6.04492 9.02332 6.12127C9.07413 6.19842 9.10003 6.30853 9.10003 6.44837ZM9.33949 6.18878C9.31598 6.10861 9.27934 6.03789 9.23052 5.97902C9.18169 5.91994 9.11992 5.87253 9.04665 5.83797C8.9735 5.80361 8.88705 5.78613 8.79004 5.78613C8.6928 5.78613 8.60635 5.80361 8.5332 5.83797C8.45988 5.87253 8.39816 5.91994 8.3491 5.97902C8.30051 6.03809 8.26388 6.10881 8.24014 6.18878C8.21686 6.26854 8.20508 6.35575 8.20508 6.44837C8.20508 6.541 8.21686 6.62839 8.24014 6.70796C8.26388 6.78793 8.30034 6.85865 8.34934 6.91772C8.39816 6.97679 8.46011 7.02401 8.5332 7.05756C8.60653 7.09111 8.6928 7.10819 8.79004 7.10819C8.88705 7.10819 8.97333 7.09111 9.04665 7.05756C9.11975 7.02401 9.18169 6.97679 9.23052 6.91772C9.27934 6.85885 9.31598 6.78812 9.33949 6.70796C9.363 6.62819 9.37478 6.54079 9.37478 6.44837C9.37478 6.35594 9.363 6.26854 9.33949 6.18878Z" fill="white"/>
<path d="M11.306 6.85425C11.298 6.83075 11.2755 6.83959 11.2755 6.83959C11.2406 6.85305 11.2036 6.86551 11.1642 6.87174C11.1241 6.87797 11.0801 6.88118 11.0329 6.88118C10.9169 6.88118 10.8248 6.84642 10.7589 6.7777C10.6928 6.70899 10.6557 6.59788 10.6561 6.44759C10.6565 6.31076 10.6892 6.20789 10.748 6.12953C10.8064 6.05158 10.8952 6.01159 11.0137 6.01159C11.1125 6.01159 11.1879 6.02305 11.2668 6.04816C11.2668 6.04816 11.2857 6.0564 11.2947 6.03149C11.3155 5.97281 11.3311 5.93082 11.3534 5.86633C11.3598 5.84805 11.3442 5.84021 11.3387 5.838C11.3076 5.82574 11.2343 5.80585 11.1789 5.79741C11.1271 5.78937 11.0665 5.78516 10.9992 5.78516C10.8986 5.78516 10.8089 5.80243 10.7322 5.83699C10.6557 5.87135 10.5908 5.91877 10.5394 5.97784C10.488 6.03691 10.4489 6.10763 10.4228 6.1876C10.3969 6.26737 10.3838 6.35497 10.3838 6.44759C10.3838 6.64791 10.4373 6.80985 10.5432 6.9284C10.6491 7.04734 10.8083 7.10782 11.0159 7.10782C11.1386 7.10782 11.2646 7.08271 11.355 7.04674C11.355 7.04674 11.3724 7.0383 11.3648 7.01801L11.306 6.85425Z" fill="white"/>
<path d="M11.7252 6.31415C11.7365 6.2364 11.7578 6.1717 11.7907 6.12127C11.8403 6.04472 11.916 6.00272 12.0224 6.00272C12.1288 6.00272 12.1991 6.04492 12.2496 6.12127C12.283 6.1717 12.2976 6.23921 12.3034 6.31415H11.7252ZM12.5314 6.14317C12.5111 6.06581 12.4607 5.98766 12.4277 5.95189C12.3755 5.89523 12.3245 5.85565 12.2738 5.83355C12.2077 5.80502 12.1284 5.78613 12.0416 5.78613C11.9404 5.78613 11.8485 5.80321 11.774 5.83857C11.6993 5.87394 11.6365 5.92215 11.5873 5.98223C11.5381 6.04211 11.501 6.11344 11.4775 6.1944C11.4539 6.27497 11.4419 6.36278 11.4419 6.4554C11.4419 6.54963 11.4542 6.63744 11.4787 6.7164C11.5034 6.79596 11.5429 6.86608 11.5962 6.92415C11.6494 6.98262 11.718 7.02843 11.8001 7.06037C11.8816 7.09212 11.9806 7.1086 12.0944 7.10839C12.3284 7.10759 12.4518 7.05495 12.5026 7.02662C12.5116 7.0216 12.5201 7.01275 12.5093 6.98744L12.4564 6.83775C12.4484 6.81545 12.4259 6.82369 12.4259 6.82369C12.3679 6.84539 12.2854 6.88437 12.0931 6.88397C11.9674 6.88376 11.8742 6.84639 11.8158 6.78793C11.7558 6.72805 11.7266 6.64005 11.7214 6.51588L12.5321 6.51668C12.5321 6.51668 12.5534 6.51628 12.5556 6.49538C12.5564 6.48654 12.5835 6.32741 12.5314 6.14317Z" fill="white"/>
<path d="M5.23253 6.31415C5.24408 6.2364 5.2652 6.1717 5.29807 6.12127C5.34768 6.04472 5.42339 6.00272 5.52978 6.00272C5.63616 6.00272 5.7065 6.04492 5.7571 6.12127C5.79037 6.1717 5.80492 6.23921 5.81069 6.31415H5.23253ZM6.03864 6.14317C6.01828 6.06581 5.96806 5.98766 5.93504 5.95189C5.88283 5.89523 5.83181 5.85565 5.7812 5.83355C5.71506 5.80502 5.63577 5.78613 5.5489 5.78613C5.44789 5.78613 5.35585 5.80321 5.28133 5.83857C5.20663 5.87394 5.14387 5.92215 5.09466 5.98223C5.04545 6.04211 5.00839 6.11344 4.98488 6.1944C4.96137 6.27497 4.94922 6.36278 4.94922 6.4554C4.94922 6.54963 4.96157 6.63744 4.98607 6.7164C5.01078 6.79596 5.05023 6.86608 5.10362 6.92415C5.15682 6.98262 5.22535 7.02843 5.30744 7.06037C5.38892 7.09212 5.48794 7.1086 5.6017 7.10839C5.83582 7.10759 5.95913 7.05495 6.00994 7.02662C6.01887 7.0216 6.02744 7.01275 6.01671 6.98744L5.96392 6.83775C5.95575 6.81545 5.93323 6.82369 5.93323 6.82369C5.87525 6.84539 5.79296 6.88437 5.60031 6.88397C5.47479 6.88376 5.38155 6.84639 5.32318 6.78793C5.2632 6.72805 5.23392 6.64005 5.22874 6.51588L6.0394 6.51668C6.0394 6.51668 6.06075 6.51628 6.06291 6.49538C6.06372 6.48654 6.09079 6.32741 6.03864 6.14317Z" fill="white"/>
<path d="M3.4802 6.84984C3.44852 6.82432 3.44414 6.81789 3.43338 6.80142C3.41744 6.7763 3.40927 6.74054 3.40927 6.69513C3.40927 6.6232 3.43278 6.57156 3.48159 6.5368C3.481 6.537 3.55132 6.47552 3.71669 6.47773C3.83283 6.47934 3.93663 6.49662 3.93663 6.49662V6.86832C3.93663 6.86832 3.83383 6.89063 3.71788 6.89765C3.55292 6.90771 3.4796 6.84963 3.4802 6.84984ZM3.80275 6.2754C3.76988 6.27299 3.72725 6.27159 3.67624 6.27159C3.60671 6.27159 3.53957 6.28042 3.47661 6.2975C3.41325 6.31458 3.35627 6.34131 3.30726 6.37667C3.25805 6.41223 3.21841 6.45764 3.18972 6.51149C3.16103 6.56534 3.14648 6.62883 3.14648 6.69995C3.14648 6.77228 3.15884 6.83517 3.18354 6.88661C3.20825 6.93824 3.24391 6.98124 3.28934 7.01439C3.33436 7.04754 3.38994 7.07186 3.4545 7.08652C3.51805 7.10119 3.59017 7.10862 3.66907 7.10862C3.75215 7.10862 3.83503 7.10179 3.91532 7.08793C3.99481 7.07426 4.09244 7.05437 4.11953 7.04815C4.14642 7.04171 4.17631 7.03348 4.17631 7.03348C4.19643 7.02846 4.19484 7.00676 4.19484 7.00676L4.19444 6.25913C4.19444 6.09517 4.15101 5.97362 4.06554 5.89828C3.98046 5.82313 3.85515 5.78516 3.69317 5.78516C3.63241 5.78516 3.53459 5.7936 3.47602 5.80545C3.47602 5.80545 3.2989 5.84001 3.22598 5.89747C3.22598 5.89747 3.21004 5.90752 3.21881 5.93002L3.27618 6.08553C3.28336 6.10563 3.30268 6.09879 3.30268 6.09879C3.30268 6.09879 3.30886 6.09638 3.31603 6.09216C3.47203 6.00657 3.66927 6.00919 3.66927 6.00919C3.75693 6.00919 3.82427 6.02687 3.8697 6.06202C3.91392 6.09618 3.93643 6.14782 3.93643 6.25672V6.29127C3.8667 6.28123 3.80275 6.2754 3.80275 6.2754Z" fill="white"/>
<path d="M10.3412 5.85393C10.3474 5.83545 10.3345 5.8266 10.3291 5.8246C10.3153 5.81917 10.2465 5.80451 10.1933 5.80109C10.0915 5.79486 10.0349 5.81214 9.98425 5.83504C9.93402 5.85795 9.87826 5.89492 9.84717 5.93691V5.83745C9.84717 5.82359 9.83742 5.81254 9.82389 5.81254H9.61605C9.60252 5.81254 9.59277 5.82359 9.59277 5.83745V7.05685C9.59277 7.07051 9.60391 7.08176 9.61745 7.08176H9.83042C9.84402 7.08176 9.85498 7.07051 9.85498 7.05685V6.44765C9.85498 6.36588 9.86391 6.2843 9.88187 6.23307C9.89937 6.18244 9.92329 6.14185 9.95275 6.11272C9.98244 6.08378 10.0162 6.06349 10.053 6.05204C10.0906 6.04038 10.1323 6.03657 10.1618 6.03657C10.2042 6.03657 10.2508 6.04762 10.2508 6.04762C10.2663 6.04942 10.2752 6.03978 10.2803 6.02552C10.2942 5.98815 10.3337 5.87623 10.3412 5.85393Z" fill="white"/>
<path d="M8.34223 5.28896C8.31633 5.28092 8.29282 5.2755 8.26214 5.26967C8.23105 5.26405 8.19401 5.26123 8.15195 5.26123C8.0053 5.26123 7.88974 5.30303 7.80866 5.3854C7.72798 5.46738 7.67321 5.59215 7.64573 5.75631L7.63576 5.81156H7.45166C7.45166 5.81156 7.42931 5.81075 7.42453 5.83527L7.39449 6.00545C7.39227 6.02152 7.39927 6.03177 7.4208 6.03177H7.59988L7.41817 7.05486C7.40406 7.13724 7.38772 7.20494 7.36958 7.25638C7.35185 7.30702 7.33452 7.34498 7.313 7.37272C7.29229 7.39923 7.27275 7.41893 7.23886 7.43038C7.21097 7.43982 7.17871 7.44424 7.14342 7.44424C7.12394 7.44424 7.09781 7.44102 7.0785 7.43701C7.05936 7.43319 7.04921 7.42897 7.03469 7.42274C7.03469 7.42274 7.01375 7.4147 7.00535 7.4358C6.99881 7.45329 6.95098 7.58569 6.94521 7.60197C6.93961 7.61824 6.9476 7.6309 6.95775 7.63471C6.98166 7.64316 6.9994 7.64876 7.03189 7.65664C7.07692 7.66725 7.11496 7.66789 7.1506 7.66789C7.22515 7.66789 7.29328 7.65722 7.34963 7.63673C7.40621 7.61603 7.45562 7.58006 7.49949 7.53144C7.54668 7.4788 7.57637 7.42375 7.60466 7.3484C7.63278 7.27406 7.65687 7.18164 7.67601 7.07394L7.85871 6.03177H8.12564C8.12564 6.03177 8.14816 6.03257 8.15276 6.00786L8.18304 5.83788C8.18502 5.8216 8.17826 5.81156 8.15656 5.81156H7.89732C7.89872 5.80573 7.91051 5.71371 7.94014 5.62711C7.95291 5.59034 7.97683 5.5604 7.99696 5.53991C8.01685 5.51982 8.03977 5.50555 8.06491 5.49732C8.09058 5.48888 8.11986 5.48486 8.15195 5.48486C8.17627 5.48486 8.20036 5.48767 8.21851 5.49149C8.24359 5.49691 8.25333 5.49973 8.25992 5.50173C8.28641 5.50977 8.29002 5.50194 8.29521 5.48908L8.35716 5.31749C8.36352 5.29901 8.34777 5.29117 8.34223 5.28896Z" fill="white"/>
<path d="M4.72086 7.05711C4.72086 7.07077 4.7111 7.08182 4.69755 7.08182H4.48258C4.46904 7.08182 4.45947 7.07077 4.45947 7.05711V5.31231C4.45947 5.29865 4.46904 5.2876 4.48258 5.2876H4.69755C4.7111 5.2876 4.72086 5.29865 4.72086 5.31231V7.05711Z" fill="white"/>
</g>
<defs>
<clipPath id="clip0_101_2133">
<rect width="14" height="14" fill="white" transform="translate(0 0.0571289)"/>
</clipPath>
</defs>
</svg>
