<svg width="24" height="25" viewBox="0 0 24 25" fill="none" xmlns="http://www.w3.org/2000/svg">
<g clip-path="url(#clip0_49_788)">
<mask id="mask0_49_788" style="mask-type:luminance" maskUnits="userSpaceOnUse" x="0" y="1" width="24" height="24">
<path d="M23.0849 1.02979H0.0449219V24.0698H23.0849V1.02979Z" fill="white"/>
</mask>
<g mask="url(#mask0_49_788)">
<path fill-rule="evenodd" clip-rule="evenodd" d="M0.0449219 4.86967C0.0449219 4.33948 0.474728 3.90967 1.00493 3.90967H5.80493C6.33512 3.90967 6.76493 4.33948 6.76493 4.86967V20.2296C6.76493 20.7599 6.33512 21.1896 5.80493 21.1896H1.00492C0.474728 21.1896 0.0449219 20.7599 0.0449219 20.2296V4.86967ZM16.3649 4.86967C16.3649 4.33948 16.7947 3.90967 17.3249 3.90967H22.1249C22.6552 3.90967 23.0849 4.33948 23.0849 4.86967V16.3896C23.0849 16.9199 22.6552 17.3496 22.1249 17.3496H17.3249C16.7947 17.3496 16.3649 16.9199 16.3649 16.3896V4.86967ZM9.64495 3.90967C9.11473 3.90967 8.68493 4.33948 8.68493 4.86967V12.5496C8.68493 13.0799 9.11473 13.5096 9.64495 13.5096H13.4849C14.0152 13.5096 14.4449 13.0799 14.4449 12.5496V4.86967C14.4449 4.33948 14.0152 3.90967 13.4849 3.90967H9.64495Z" fill="white"/>
</g>
</g>
<defs>
<clipPath id="clip0_49_788">
<rect width="24" height="24" fill="white" transform="translate(0 0.550293)"/>
</clipPath>
</defs>
</svg>
