<svg width="14" height="15" viewBox="0 0 14 15" fill="none" xmlns="http://www.w3.org/2000/svg">
<g clip-path="url(#clip0_4_3041)">
<path d="M11.4077 3.06207C11.398 2.99424 11.3399 2.95548 11.2915 2.95548C11.243 2.95548 10.2836 2.9361 10.2836 2.9361C10.2836 2.9361 9.47927 2.16085 9.40173 2.07363C9.32427 1.99611 9.1692 2.01549 9.11107 2.03487C9.11107 2.03487 8.956 2.08332 8.70407 2.16085C8.66527 2.02518 8.59747 1.86044 8.5102 1.68601C8.2292 1.14333 7.8028 0.852615 7.2989 0.852615C7.26014 0.852615 7.23107 0.852615 7.19231 0.862306C7.17293 0.842924 7.16323 0.823543 7.14385 0.813852C6.92097 0.581278 6.63994 0.46499 6.30077 0.474681C5.6515 0.494062 5.00223 0.968902 4.46924 1.80229C4.101 2.39342 3.81997 3.12991 3.73275 3.70165C2.98658 3.93423 2.46328 4.09897 2.4439 4.09897C2.06597 4.21526 2.05628 4.22495 2.00783 4.5835C1.98844 4.85484 1 12.5007 1 12.5007L9.2952 13.9349L12.8904 13.0434C12.8807 13.0434 11.4174 3.12991 11.4077 3.06207ZM8.28733 2.29651C8.09353 2.35466 7.88033 2.42249 7.64777 2.50002C7.64777 2.17054 7.59931 1.70539 7.45395 1.31777C7.9482 1.39529 8.19047 1.95735 8.28733 2.29651ZM7.21169 2.626C6.77561 2.76167 6.30077 2.90703 5.82593 3.05239C5.96159 2.53878 6.21355 2.03487 6.52365 1.6957C6.63994 1.56972 6.80468 1.43405 6.9888 1.35653C7.18261 1.73446 7.22137 2.26745 7.21169 2.626ZM6.32015 0.910758C6.4752 0.910758 6.60118 0.93983 6.70777 1.01736C6.53334 1.10457 6.35891 1.24024 6.20386 1.41467C5.78717 1.86044 5.46737 2.54847 5.34139 3.21713C4.94408 3.3431 4.55645 3.45939 4.20759 3.56599C4.44017 2.50971 5.32201 0.93983 6.32015 0.910758Z" fill="#95BF47"/>
<path d="M11.2914 2.95569C11.243 2.95569 10.2836 2.93631 10.2836 2.93631C10.2836 2.93631 9.47923 2.16106 9.40177 2.07384C9.3727 2.04477 9.3339 2.02539 9.29517 2.02539V13.9352L12.8904 13.0436C12.8904 13.0436 11.4271 3.13012 11.4174 3.06228C11.398 2.99445 11.3398 2.95569 11.2914 2.95569Z" fill="#5E8E3E"/>
<path d="M7.29891 4.80639L6.88222 6.36658C6.88222 6.36658 6.41707 6.15339 5.8647 6.19215C5.05069 6.2406 5.05069 6.75421 5.05069 6.88018C5.09915 7.57792 6.93067 7.73299 7.03727 9.37065C7.11479 10.6595 6.35893 11.5414 5.25419 11.6092C3.93627 11.6771 3.20947 10.9018 3.20947 10.9018L3.4905 9.70985C3.4905 9.70985 4.22699 10.2622 4.80843 10.2235C5.18636 10.2041 5.33172 9.88425 5.31234 9.67105C5.25419 8.76019 3.76184 8.81832 3.66493 7.31625C3.58741 6.05648 4.41111 4.78701 6.23295 4.67072C6.94036 4.62227 7.29891 4.80639 7.29891 4.80639Z" fill="white"/>
</g>
<defs>
<clipPath id="clip0_4_3041">
<rect width="14" height="14" fill="white" transform="translate(0 0.474121)"/>
</clipPath>
</defs>
</svg>
