<svg width="24" height="24" viewBox="0 0 24 24" fill="none" xmlns="http://www.w3.org/2000/svg">
<g clip-path="url(#clip0_4_2683)">
<mask id="mask0_4_2683" style="mask-type:luminance" maskUnits="userSpaceOnUse" x="0" y="0" width="24" height="24">
<path d="M23.5195 0.0273438H0.479492V23.0673H23.5195V0.0273438Z" fill="white"/>
</mask>
<g mask="url(#mask0_4_2683)">
<path fill-rule="evenodd" clip-rule="evenodd" d="M6.23949 0.987343C6.23949 0.457151 6.6693 0.0273438 7.19949 0.0273438H16.7995C17.3297 0.0273438 17.7595 0.457151 17.7595 0.987343V2.90734C17.7595 3.43754 17.3297 3.86734 16.7995 3.86734H12.9595V6.74734H16.7995C17.3297 6.74734 17.7595 7.17716 17.7595 7.70734V9.62732C17.7595 10.1575 17.3297 10.5873 16.7995 10.5873H12.9595V13.4673H16.7995C18.3901 13.4673 19.6795 14.7568 19.6795 16.3473V19.2273H22.5595C23.0897 19.2273 23.5195 19.6571 23.5195 20.1873V22.1073C23.5195 22.6375 23.0897 23.0673 22.5595 23.0673H14.8795C14.3493 23.0673 13.9195 22.6375 13.9195 22.1073V20.1873C13.9195 19.6571 14.3493 19.2273 14.8795 19.2273H17.7595V16.3473C17.7595 15.8171 17.3297 15.3873 16.7995 15.3873H7.19949C6.6693 15.3873 6.23949 15.8171 6.23949 16.3473V19.2273H9.11949C9.64969 19.2273 10.0795 19.6571 10.0795 20.1873V22.1073C10.0795 22.6375 9.64969 23.0673 9.11949 23.0673H1.43949C0.909299 23.0673 0.479492 22.6375 0.479492 22.1073V20.1873C0.479492 19.6571 0.909299 19.2273 1.43949 19.2273H4.31949V16.3473C4.31949 14.7568 5.60891 13.4673 7.19949 13.4673H11.0395V10.5873H7.19949C6.6693 10.5873 6.23949 10.1575 6.23949 9.62732V7.70734C6.23949 7.17716 6.6693 6.74734 7.19949 6.74734H11.0395V3.86734H7.19949C6.6693 3.86734 6.23949 3.43754 6.23949 2.90734V0.987343Z" fill="white"/>
</g>
</g>
<defs>
<clipPath id="clip0_4_2683">
<rect width="24" height="24" fill="white"/>
</clipPath>
</defs>
</svg>
