<svg width="37" height="37" viewBox="0 0 37 37" fill="none" xmlns="http://www.w3.org/2000/svg">
<g clip-path="url(#clip0_4_2977)">
<path d="M22.29 8.98999H11.69C10.79 8.98999 9.98999 9.78999 9.98999 10.69V22.99H11.69V10.69H22.29V8.98999ZM24.99 12.49H15.29C14.29 12.49 13.49 13.29 13.49 14.29V26.59C13.49 27.59 14.29 28.39 15.29 28.39H24.99C25.99 28.39 26.79 27.59 26.79 26.59V14.19C26.69 13.29 25.89 12.49 24.99 12.49ZM24.99 26.59H15.29V14.19H24.99V26.59Z" fill="white" stroke="black" stroke-opacity="0.15" stroke-width="2"/>
<path d="M22.29 8.98999H11.69C10.79 8.98999 9.98999 9.78999 9.98999 10.69V22.99H11.69V10.69H22.29V8.98999ZM24.99 12.49H15.29C14.29 12.49 13.49 13.29 13.49 14.29V26.59C13.49 27.59 14.29 28.39 15.29 28.39H24.99C25.99 28.39 26.79 27.59 26.79 26.59V14.19C26.69 13.29 25.89 12.49 24.99 12.49ZM24.99 26.59H15.29V14.19H24.99V26.59Z" fill="white"/>
</g>
<defs>
<clipPath id="clip0_4_2977">
<rect width="36" height="36" fill="white" transform="translate(0.390015 0.690002)"/>
</clipPath>
</defs>
</svg>
