<svg width="24" height="25" viewBox="0 0 24 25" fill="none" xmlns="http://www.w3.org/2000/svg">
<g clip-path="url(#clip0_49_788)">
<mask id="mask0_49_788" style="mask-type:luminance" maskUnits="userSpaceOnUse" x="0" y="0" width="24" height="24">
<path d="M23.0849 0.529785H0.0449219V23.5698H23.0849V0.529785Z" fill="white"/>
</mask>
<g mask="url(#mask0_49_788)">
<path fill-rule="evenodd" clip-rule="evenodd" d="M0.0449219 4.36967C0.0449219 3.83948 0.474728 3.40967 1.00493 3.40967H5.80493C6.33512 3.40967 6.76493 3.83948 6.76493 4.36967V19.7296C6.76493 20.2599 6.33512 20.6896 5.80493 20.6896H1.00492C0.474728 20.6896 0.0449219 20.2599 0.0449219 19.7296V4.36967ZM16.3649 4.36967C16.3649 3.83948 16.7947 3.40967 17.3249 3.40967H22.1249C22.6552 3.40967 23.0849 3.83948 23.0849 4.36967V15.8896C23.0849 16.4199 22.6552 16.8496 22.1249 16.8496H17.3249C16.7947 16.8496 16.3649 16.4199 16.3649 15.8896V4.36967ZM9.64495 3.40967C9.11473 3.40967 8.68493 3.83948 8.68493 4.36967V12.0496C8.68493 12.5799 9.11473 13.0096 9.64495 13.0096H13.4849C14.0152 13.0096 14.4449 12.5799 14.4449 12.0496V4.36967C14.4449 3.83948 14.0152 3.40967 13.4849 3.40967H9.64495Z" fill="white"/>
</g>
</g>
<defs>
<clipPath id="clip0_49_788">
<rect width="24" height="24" fill="white" transform="translate(0 0.050293)"/>
</clipPath>
</defs>
</svg>
