<svg width="14" height="15" viewBox="0 0 14 15" fill="none" xmlns="http://www.w3.org/2000/svg">
<g clip-path="url(#clip0_4_3048)">
<mask id="mask0_4_3048" style="mask-type:luminance" maskUnits="userSpaceOnUse" x="0" y="3" width="14" height="9">
<path d="M13.9463 3.07471H0V11.4063H13.9463V3.07471Z" fill="white"/>
</mask>
<g mask="url(#mask0_4_3048)">
<path d="M1.296 3.07471H12.6492C13.3628 3.07471 13.9457 3.65966 13.9457 4.3813V8.72748C13.9457 9.44911 13.3628 10.0341 12.6437 10.0341H8.57425L9.13532 11.4062L6.6784 10.0341H1.30144C0.582339 10.0341 -0.000572475 9.44911 -0.000572475 8.72748V4.3813C-0.00602025 3.66513 0.576891 3.07471 1.296 3.07471Z" fill="#9B5C8F"/>
<path d="M0.795435 4.26096C0.877153 4.15162 0.991557 4.09696 1.15499 4.08602C1.44372 4.06416 1.60715 4.20083 1.65073 4.49604C1.82506 5.68236 2.02118 6.69373 2.22275 7.51923L3.46484 5.1466C3.57924 4.92792 3.72089 4.81858 3.88977 4.80765C4.14036 4.79125 4.29291 4.94979 4.35283 5.28328C4.48902 6.0377 4.67425 6.6828 4.88671 7.22949C5.0338 5.78623 5.2844 4.74205 5.63305 4.10243C5.72022 3.94388 5.84552 3.86188 6.00895 3.85094C6.13969 3.84001 6.25955 3.87828 6.3685 3.96575C6.47746 4.05322 6.53193 4.15709 6.54283 4.2883C6.54828 4.39217 6.53193 4.47417 6.48835 4.56164C6.26499 4.97166 6.08522 5.66049 5.93813 6.6172C5.79649 7.54657 5.74746 8.2682 5.78014 8.78209C5.79104 8.92422 5.76925 9.04997 5.71477 9.1593C5.6494 9.28504 5.54589 9.35065 5.41515 9.36157C5.26806 9.37251 5.11552 9.30691 4.96843 9.14837C4.44 8.60715 4.02052 7.79805 3.71544 6.72654C3.34499 7.45363 3.0726 8.00032 2.89828 8.3666C2.56596 9.0117 2.28268 9.33971 2.04297 9.35611C1.89044 9.36704 1.75969 9.23584 1.64528 8.96249C1.35655 8.21899 1.04603 6.77573 0.708271 4.64365C0.681032 4.49604 0.713718 4.36483 0.795435 4.26096ZM12.9767 5.15753C12.7751 4.79672 12.47 4.58351 12.0669 4.49604C11.958 4.47417 11.8544 4.46324 11.7618 4.46324C11.217 4.46324 10.7758 4.74751 10.4271 5.31608C10.1329 5.79716 9.98585 6.33291 9.98585 6.91787C9.98585 7.35523 10.0784 7.73244 10.2582 8.04405C10.4598 8.40487 10.7648 8.61808 11.168 8.70555C11.277 8.72742 11.3804 8.73835 11.4731 8.73835C12.0233 8.73835 12.4646 8.45407 12.8078 7.88551C13.1019 7.39896 13.249 6.86321 13.249 6.27278C13.2545 5.83543 13.1564 5.46368 12.9767 5.15753ZM12.263 6.732C12.1813 7.10921 12.0396 7.38803 11.8326 7.5739C11.6692 7.72151 11.5166 7.78711 11.375 7.75431C11.2388 7.72698 11.1244 7.6067 11.0427 7.38256C10.9773 7.20762 10.9392 7.02721 10.9392 6.86321C10.9392 6.72107 10.9501 6.57893 10.9773 6.44772C11.0264 6.21265 11.1244 5.98851 11.277 5.76983C11.4622 5.49101 11.6637 5.37621 11.8653 5.41448C12.0015 5.44181 12.1159 5.56208 12.1976 5.78623C12.263 5.96116 12.3011 6.14157 12.3011 6.30558C12.3011 6.45866 12.2902 6.60079 12.263 6.732ZM9.43013 5.15753C9.22861 4.79672 8.91806 4.58351 8.52038 4.49604C8.41143 4.47417 8.30791 4.46324 8.2153 4.46324C7.67052 4.46324 7.22925 4.74751 6.88059 5.31608C6.58642 5.79716 6.43933 6.33291 6.43933 6.91787C6.43933 7.35523 6.53193 7.73244 6.71171 8.04405C6.91328 8.40487 7.21835 8.61808 7.62149 8.70555C7.73045 8.72742 7.83396 8.73835 7.92656 8.73835C8.47681 8.73835 8.91806 8.45407 9.26131 7.88551C9.55547 7.39896 9.70256 6.86321 9.70256 6.27278C9.70256 5.83543 9.60991 5.46368 9.43013 5.15753ZM8.71103 6.732C8.62933 7.10921 8.48768 7.38803 8.28065 7.5739C8.11724 7.72151 7.9647 7.78711 7.82306 7.75431C7.68687 7.72698 7.57246 7.6067 7.49074 7.38256C7.42537 7.20762 7.38723 7.02721 7.38723 6.86321C7.38723 6.72107 7.39813 6.57893 7.42537 6.44772C7.47441 6.21265 7.57246 5.98851 7.725 5.76983C7.91023 5.49101 8.11179 5.37621 8.31334 5.41448C8.44956 5.44181 8.56394 5.56208 8.64564 5.78623C8.71103 5.96116 8.74915 6.14157 8.74915 6.30558C8.75459 6.45866 8.73828 6.60079 8.71103 6.732Z" fill="white"/>
</g>
</g>
<defs>
<clipPath id="clip0_4_3048">
<rect width="14" height="14" fill="white" transform="translate(0 0.240723)"/>
</clipPath>
</defs>
</svg>
