<svg width="14" height="15" viewBox="0 0 14 15" fill="none" xmlns="http://www.w3.org/2000/svg">
<g clip-path="url(#clip0_101_2154)">
<path d="M11.4077 2.64508C11.398 2.57725 11.3399 2.53849 11.2915 2.53849C11.243 2.53849 10.2836 2.51911 10.2836 2.51911C10.2836 2.51911 9.47927 1.74386 9.40173 1.65664C9.32427 1.57912 9.1692 1.5985 9.11107 1.61788C9.11107 1.61788 8.956 1.66633 8.70407 1.74386C8.66527 1.60819 8.59747 1.44345 8.5102 1.26902C8.2292 0.726342 7.8028 0.435623 7.2989 0.435623C7.26014 0.435623 7.23107 0.435623 7.19231 0.445314C7.17293 0.425932 7.16323 0.406551 7.14385 0.39686C6.92097 0.164286 6.63994 0.0479979 6.30077 0.0576885C5.6515 0.0770698 5.00223 0.55191 4.46924 1.3853C4.101 1.97643 3.81997 2.71292 3.73275 3.28466C2.98658 3.51724 2.46328 3.68198 2.4439 3.68198C2.06597 3.79827 2.05628 3.80796 2.00783 4.16651C1.98844 4.43785 1 12.0837 1 12.0837L9.2952 13.5179L12.8904 12.6264C12.8807 12.6264 11.4174 2.71292 11.4077 2.64508ZM8.28733 1.87952C8.09353 1.93767 7.88033 2.0055 7.64777 2.08303C7.64777 1.75355 7.59931 1.2884 7.45395 0.900776C7.9482 0.978296 8.19047 1.54036 8.28733 1.87952ZM7.21169 2.20901C6.77561 2.34468 6.30077 2.49004 5.82593 2.6354C5.96159 2.12179 6.21355 1.61788 6.52365 1.27871C6.63994 1.15273 6.80468 1.01706 6.9888 0.939536C7.18261 1.31747 7.22137 1.85046 7.21169 2.20901ZM6.32015 0.493766C6.4752 0.493766 6.60118 0.522838 6.70777 0.600363C6.53334 0.687579 6.35891 0.823249 6.20386 0.997676C5.78717 1.44345 5.46737 2.13148 5.34139 2.80014C4.94408 2.92611 4.55645 3.0424 4.20759 3.149C4.44017 2.09272 5.32201 0.522838 6.32015 0.493766Z" fill="#95BF47"/>
<path d="M11.2917 2.5387C11.2432 2.5387 10.2838 2.51932 10.2838 2.51932C10.2838 2.51932 9.47948 1.74407 9.40201 1.65685C9.37294 1.62778 9.33414 1.6084 9.29541 1.6084V13.5182L12.8906 12.6266C12.8906 12.6266 11.4273 2.71313 11.4176 2.64529C11.3983 2.57746 11.3401 2.5387 11.2917 2.5387Z" fill="#5E8E3E"/>
<path d="M7.29891 4.3894L6.88222 5.94959C6.88222 5.94959 6.41707 5.7364 5.8647 5.77516C5.05069 5.82361 5.05069 6.33722 5.05069 6.46319C5.09915 7.16093 6.93067 7.316 7.03727 8.95366C7.11479 10.2425 6.35893 11.1244 5.25419 11.1922C3.93627 11.2601 3.20947 10.4848 3.20947 10.4848L3.4905 9.29286C3.4905 9.29286 4.22699 9.8452 4.80843 9.80646C5.18636 9.78706 5.33172 9.46726 5.31234 9.25406C5.25419 8.3432 3.76184 8.40133 3.66493 6.89926C3.58741 5.63949 4.41111 4.37002 6.23295 4.25373C6.94036 4.20528 7.29891 4.3894 7.29891 4.3894Z" fill="white"/>
</g>
<defs>
<clipPath id="clip0_101_2154">
<rect width="14" height="14" fill="white" transform="translate(0 0.0571289)"/>
</clipPath>
</defs>
</svg>
