<svg width="14" height="15" viewBox="0 0 14 15" fill="none" xmlns="http://www.w3.org/2000/svg">
<g clip-path="url(#clip0_4_3020)">
<path d="M5.82709 3.05281C6.27814 2.57884 6.9061 2.28489 7.60062 2.28489C8.52386 2.28489 9.32939 2.80407 9.75831 3.5748C10.1311 3.40683 10.5437 3.31341 10.9778 3.31341C12.643 3.31341 13.993 4.6867 13.993 6.38067C13.993 8.07485 12.643 9.44813 10.9778 9.44813C10.7746 9.44813 10.576 9.42766 10.3839 9.38846C10.0062 10.068 9.28634 10.5271 8.4601 10.5271C8.11425 10.5271 7.78711 10.4465 7.49585 10.3032C7.11289 11.2116 6.22075 11.8485 5.18098 11.8485C4.09816 11.8485 3.17532 11.1576 2.8211 10.1885C2.66629 10.2217 2.50591 10.239 2.34135 10.239C1.05212 10.239 0.00695801 9.17408 0.00695801 7.86024C0.00695801 6.97981 0.476545 6.21109 1.17425 5.79981C1.03061 5.46648 0.950714 5.09859 0.950714 4.71181C0.950714 3.20089 2.16702 1.97607 3.66723 1.97607C4.54802 1.97607 5.33081 2.39841 5.82709 3.05281Z" fill="#00A1E0"/>
<path d="M2.0327 7.0961C2.02393 7.11921 2.03589 7.12403 2.03868 7.12805C2.06498 7.14734 2.09168 7.1612 2.11857 7.17667C2.26122 7.25302 2.3959 7.27533 2.53675 7.27533C2.82365 7.27533 3.00176 7.12142 3.00176 6.87368V6.86886C3.00176 6.63981 2.80074 6.55663 2.61207 6.49655L2.58756 6.48851C2.44531 6.4419 2.32258 6.40172 2.32258 6.30728V6.30226C2.32258 6.22149 2.3943 6.16202 2.50548 6.16202C2.629 6.16202 2.77564 6.20341 2.87007 6.25605C2.87007 6.25605 2.89776 6.27413 2.90792 6.24701C2.9135 6.23254 2.96132 6.10275 2.9663 6.08868C2.97168 6.07341 2.96212 6.06216 2.95235 6.05614C2.84457 5.99003 2.69554 5.94482 2.54134 5.94482L2.51265 5.94502C2.25006 5.94502 2.06677 6.10496 2.06677 6.33421V6.33903C2.06677 6.58074 2.26899 6.6591 2.45846 6.71375L2.48894 6.72319C2.62701 6.76599 2.74595 6.80276 2.74595 6.90081V6.90563C2.74595 6.99524 2.66865 7.06194 2.54393 7.06194C2.49552 7.06194 2.34111 7.06094 2.17436 6.95465C2.15423 6.9428 2.14248 6.93416 2.12694 6.92471C2.11877 6.91949 2.09825 6.91045 2.08929 6.93777L2.0327 7.0961Z" fill="white"/>
<path d="M6.2328 7.0961C6.22399 7.11921 6.23595 7.12403 6.23875 7.12805C6.26506 7.14734 6.29177 7.1612 6.31867 7.17667C6.46129 7.25302 6.59598 7.27533 6.73686 7.27533C7.02374 7.27533 7.20183 7.12142 7.20183 6.87368V6.86886C7.20183 6.63981 7.00082 6.55663 6.81217 6.49655L6.78761 6.48851C6.64539 6.4419 6.52266 6.40172 6.52266 6.30728V6.30226C6.52266 6.22149 6.59441 6.16202 6.70553 6.16202C6.82908 6.16202 6.97573 6.20341 7.07017 6.25605C7.07017 6.25605 7.09782 6.27413 7.10797 6.24701C7.11357 6.23254 7.16141 6.10275 7.16637 6.08868C7.17173 6.07341 7.16217 6.06216 7.15242 6.05614C7.04462 5.99003 6.89564 5.94482 6.74141 5.94482L6.71271 5.94502C6.45015 5.94502 6.26687 6.10496 6.26687 6.33421V6.33903C6.26687 6.58074 6.46905 6.6591 6.65852 6.71375L6.68902 6.72319C6.8271 6.76599 6.94622 6.80276 6.94622 6.90081V6.90563C6.94622 6.99524 6.86875 7.06194 6.74403 7.06194C6.69562 7.06194 6.54121 7.06094 6.37443 6.95465C6.35431 6.9428 6.34235 6.93456 6.32724 6.92471C6.32205 6.9213 6.29772 6.91186 6.28938 6.93777L6.2328 7.0961Z" fill="white"/>
<path d="M9.09991 6.61048C9.09991 6.75052 9.07401 6.86083 9.02302 6.93878C8.97262 7.01593 8.89626 7.05351 8.78992 7.05351C8.68329 7.05351 8.6074 7.01614 8.55781 6.93878C8.50759 6.86102 8.4821 6.75052 8.4821 6.61048C8.4821 6.47063 8.50759 6.36053 8.55781 6.28338C8.6074 6.20703 8.68329 6.16986 8.78992 6.16986C8.89626 6.16986 8.97262 6.20703 9.0232 6.28338C9.07401 6.36053 9.09991 6.47063 9.09991 6.61048ZM9.33937 6.35089C9.31586 6.27072 9.27922 6.2 9.2304 6.14113C9.18157 6.08205 9.1198 6.03464 9.04653 6.00008C8.97338 5.96572 8.88693 5.94824 8.78992 5.94824C8.69268 5.94824 8.60623 5.96572 8.53308 6.00008C8.45976 6.03464 8.39804 6.08205 8.34898 6.14113C8.30039 6.2002 8.26376 6.27092 8.24001 6.35089C8.21674 6.43065 8.20496 6.51786 8.20496 6.61048C8.20496 6.7031 8.21674 6.7905 8.24001 6.87007C8.26376 6.95004 8.30021 7.02076 8.34921 7.07983C8.39804 7.1389 8.45999 7.18612 8.53308 7.21967C8.60641 7.25322 8.69268 7.2703 8.78992 7.2703C8.88693 7.2703 8.97321 7.25322 9.04653 7.21967C9.11962 7.18612 9.18157 7.1389 9.2304 7.07983C9.27922 7.02096 9.31586 6.95023 9.33937 6.87007C9.36287 6.7903 9.37466 6.7029 9.37466 6.61048C9.37466 6.51805 9.36287 6.43065 9.33937 6.35089Z" fill="white"/>
<path d="M11.306 7.01636C11.298 6.99286 11.2755 7.0017 11.2755 7.0017C11.2406 7.01516 11.2036 7.02762 11.1642 7.03385C11.1241 7.04008 11.0801 7.04329 11.0329 7.04329C10.9169 7.04329 10.8248 7.00853 10.7589 6.93981C10.6928 6.8711 10.6557 6.75999 10.6561 6.6097C10.6565 6.47287 10.6892 6.37 10.748 6.29164C10.8064 6.21369 10.8952 6.1737 11.0137 6.1737C11.1125 6.1737 11.1879 6.18515 11.2668 6.21027C11.2668 6.21027 11.2857 6.21851 11.2947 6.1936C11.3155 6.13492 11.3311 6.09293 11.3534 6.02844C11.3598 6.01015 11.3442 6.00231 11.3387 6.00011C11.3076 5.98785 11.2343 5.96796 11.1789 5.95952C11.1271 5.95148 11.0665 5.94727 10.9992 5.94727C10.8986 5.94727 10.8089 5.96454 10.7322 5.9991C10.6557 6.03346 10.5908 6.08088 10.5394 6.13995C10.488 6.19902 10.4489 6.26974 10.4228 6.34971C10.3969 6.42948 10.3838 6.51708 10.3838 6.6097C10.3838 6.81002 10.4373 6.97196 10.5432 7.09051C10.6491 7.20945 10.8083 7.26993 11.0159 7.26993C11.1386 7.26993 11.2646 7.24482 11.355 7.20885C11.355 7.20885 11.3724 7.20041 11.3648 7.18012L11.306 7.01636Z" fill="white"/>
<path d="M11.7249 6.47626C11.7363 6.39851 11.7576 6.33381 11.7905 6.28338C11.8401 6.20683 11.9158 6.16483 12.0222 6.16483C12.1286 6.16483 12.1989 6.20703 12.2493 6.28338C12.2828 6.33381 12.2973 6.40132 12.3031 6.47626H11.7249ZM12.5312 6.30528C12.5109 6.22792 12.4605 6.14977 12.4274 6.114C12.3752 6.05734 12.3242 6.01776 12.2736 5.99566C12.2075 5.96713 12.1282 5.94824 12.0413 5.94824C11.9401 5.94824 11.8482 5.96532 11.7737 6.00068C11.699 6.03605 11.6363 6.08426 11.5871 6.14434C11.5378 6.20421 11.5008 6.27554 11.4773 6.35651C11.4536 6.43708 11.4417 6.52488 11.4417 6.61751C11.4417 6.71174 11.454 6.79955 11.4785 6.87851C11.5032 6.95807 11.5426 7.02819 11.596 7.08626C11.6492 7.14473 11.7177 7.19054 11.7998 7.22248C11.8813 7.25423 11.9804 7.27071 12.0941 7.2705C12.3282 7.2697 12.4515 7.21706 12.5023 7.18873C12.5113 7.18371 12.5199 7.17486 12.5091 7.14955L12.4561 6.99986C12.4481 6.97756 12.4256 6.9858 12.4256 6.9858C12.3676 7.0075 12.2852 7.04648 12.0929 7.04608C11.9672 7.04587 11.874 7.0085 11.8156 6.95004C11.7556 6.89016 11.7263 6.80215 11.7211 6.67799L12.5318 6.67879C12.5318 6.67879 12.5531 6.67839 12.5554 6.65749C12.5561 6.64865 12.5832 6.48952 12.5312 6.30528Z" fill="white"/>
<path d="M5.23265 6.47626C5.2442 6.39851 5.26532 6.33381 5.29819 6.28338C5.3478 6.20683 5.42351 6.16483 5.5299 6.16483C5.63629 6.16483 5.70662 6.20703 5.75722 6.28338C5.79049 6.33381 5.80504 6.40132 5.81081 6.47626H5.23265ZM6.03876 6.30528C6.0184 6.22792 5.96818 6.14977 5.93516 6.114C5.88295 6.05734 5.83194 6.01776 5.78133 5.99566C5.71518 5.96713 5.63589 5.94824 5.54902 5.94824C5.44801 5.94824 5.35597 5.96532 5.28146 6.00068C5.20675 6.03605 5.14399 6.08426 5.09478 6.14434C5.04557 6.20421 5.00851 6.27554 4.985 6.35651C4.96149 6.43708 4.94934 6.52488 4.94934 6.61751C4.94934 6.71174 4.96169 6.79955 4.9862 6.87851C5.0109 6.95807 5.05035 7.02819 5.10374 7.08626C5.15694 7.14473 5.22547 7.19054 5.30756 7.22248C5.38904 7.25423 5.48806 7.27071 5.60182 7.2705C5.83594 7.2697 5.95925 7.21706 6.01006 7.18873C6.01899 7.18371 6.02756 7.17486 6.01683 7.14955L5.96404 6.99986C5.95587 6.97756 5.93335 6.9858 5.93335 6.9858C5.87537 7.0075 5.79309 7.04648 5.60043 7.04608C5.47491 7.04587 5.38167 7.0085 5.3233 6.95004C5.26333 6.89016 5.23404 6.80215 5.22886 6.67799L6.03952 6.67879C6.03952 6.67879 6.06087 6.67839 6.06303 6.65749C6.06385 6.64865 6.09091 6.48952 6.03876 6.30528Z" fill="white"/>
<path d="M3.48044 7.01195C3.44877 6.98643 3.44438 6.98 3.43362 6.96353C3.41769 6.93841 3.40951 6.90265 3.40951 6.85724C3.40951 6.78531 3.43302 6.73367 3.48184 6.69891C3.48124 6.69911 3.55157 6.63763 3.71693 6.63984C3.83308 6.64145 3.93688 6.65873 3.93688 6.65873V7.03043C3.93688 7.03043 3.83408 7.05273 3.71813 7.05976C3.55316 7.06981 3.47985 7.01174 3.48044 7.01195ZM3.803 6.43751C3.77013 6.4351 3.72749 6.4337 3.67648 6.4337C3.60696 6.4337 3.53981 6.44253 3.47685 6.45961C3.4135 6.47669 3.35652 6.50342 3.30751 6.53878C3.2583 6.57434 3.21865 6.61975 3.18997 6.6736C3.16128 6.72744 3.14673 6.79093 3.14673 6.86206C3.14673 6.93439 3.15908 6.99728 3.18379 7.04872C3.20849 7.10035 3.24415 7.14335 3.28958 7.1765C3.3346 7.20965 3.39019 7.23396 3.45474 7.24863C3.51829 7.2633 3.59042 7.27073 3.66931 7.27073C3.75239 7.27073 3.83527 7.2639 3.91556 7.25004C3.99505 7.23637 4.09268 7.21648 4.11978 7.21026C4.14667 7.20382 4.17656 7.19559 4.17656 7.19559C4.19668 7.19056 4.19508 7.16886 4.19508 7.16886L4.19469 6.42124C4.19469 6.25728 4.15125 6.13573 4.06578 6.06039C3.98071 5.98524 3.8554 5.94727 3.69342 5.94727C3.63266 5.94727 3.53483 5.95571 3.47626 5.96756C3.47626 5.96756 3.29914 6.00212 3.22623 6.05958C3.22623 6.05958 3.21028 6.06963 3.21905 6.09213L3.27643 6.24764C3.2836 6.26774 3.30293 6.2609 3.30293 6.2609C3.30293 6.2609 3.30911 6.25849 3.31627 6.25427C3.47228 6.16868 3.66951 6.17129 3.66951 6.17129C3.75718 6.17129 3.82452 6.18898 3.86994 6.22413C3.91417 6.25829 3.93668 6.30993 3.93668 6.41883V6.45338C3.86695 6.44334 3.803 6.43751 3.803 6.43751Z" fill="white"/>
<path d="M10.3414 6.01604C10.3476 5.99756 10.3346 5.98871 10.3292 5.98671C10.3155 5.98128 10.2466 5.96662 10.1934 5.9632C10.0916 5.95697 10.035 5.97425 9.98437 5.99715C9.93414 6.02006 9.87838 6.05703 9.84729 6.09902V5.99956C9.84729 5.9857 9.83755 5.97465 9.82401 5.97465H9.61617C9.60264 5.97465 9.5929 5.9857 9.5929 5.99956V7.21896C9.5929 7.23262 9.60404 7.24387 9.61757 7.24387H9.83055C9.84414 7.24387 9.8551 7.23262 9.8551 7.21896V6.60976C9.8551 6.52799 9.86403 6.44641 9.882 6.39518C9.8995 6.34455 9.92341 6.30396 9.95287 6.27483C9.98256 6.24589 10.0163 6.2256 10.0531 6.21415C10.0908 6.20249 10.1324 6.19868 10.1619 6.19868C10.2043 6.19868 10.251 6.20973 10.251 6.20973C10.2665 6.21153 10.2753 6.20189 10.2804 6.18763C10.2944 6.15025 10.3338 6.03834 10.3414 6.01604Z" fill="white"/>
<path d="M8.34223 5.45107C8.31633 5.44303 8.29282 5.43761 8.26214 5.43178C8.23105 5.42616 8.19401 5.42334 8.15195 5.42334C8.0053 5.42334 7.88974 5.46514 7.80866 5.54751C7.72798 5.62949 7.67321 5.75426 7.64573 5.91841L7.63576 5.97367H7.45166C7.45166 5.97367 7.42931 5.97286 7.42453 5.99737L7.39449 6.16756C7.39227 6.18363 7.39927 6.19388 7.4208 6.19388H7.59988L7.41817 7.21697C7.40406 7.29935 7.38772 7.36705 7.36958 7.41849C7.35185 7.46912 7.33452 7.50709 7.313 7.53483C7.29229 7.56134 7.27275 7.58104 7.23886 7.59249C7.21097 7.60193 7.17871 7.60635 7.14342 7.60635C7.12394 7.60635 7.09781 7.60313 7.0785 7.59912C7.05936 7.5953 7.04921 7.59108 7.03469 7.58485C7.03469 7.58485 7.01375 7.57681 7.00535 7.59791C6.99881 7.6154 6.95098 7.7478 6.94521 7.76408C6.93961 7.78035 6.9476 7.79301 6.95775 7.79682C6.98166 7.80527 6.9994 7.81087 7.03189 7.81875C7.07692 7.82936 7.11496 7.83 7.1506 7.83C7.22515 7.83 7.29328 7.81933 7.34963 7.79884C7.40621 7.77814 7.45562 7.74217 7.49949 7.69355C7.54668 7.64091 7.57637 7.58586 7.60466 7.51051C7.63278 7.43617 7.65687 7.34375 7.67601 7.23605L7.85871 6.19388H8.12564C8.12564 6.19388 8.14816 6.19468 8.15276 6.16997L8.18304 5.99999C8.18502 5.98371 8.17826 5.97367 8.15656 5.97367H7.89732C7.89872 5.96784 7.91051 5.87582 7.94014 5.78922C7.95291 5.75245 7.97683 5.72251 7.99696 5.70202C8.01685 5.68193 8.03977 5.66766 8.06491 5.65943C8.09058 5.65099 8.11986 5.64697 8.15195 5.64697C8.17627 5.64697 8.20036 5.64978 8.21851 5.6536C8.24359 5.65902 8.25333 5.66184 8.25992 5.66384C8.28641 5.67188 8.29002 5.66405 8.29521 5.65119L8.35716 5.4796C8.36352 5.46112 8.34777 5.45328 8.34223 5.45107Z" fill="white"/>
<path d="M4.72074 7.21922C4.72074 7.23288 4.71098 7.24393 4.69743 7.24393H4.48246C4.46892 7.24393 4.45935 7.23288 4.45935 7.21922V5.47442C4.45935 5.46076 4.46892 5.44971 4.48246 5.44971H4.69743C4.71098 5.44971 4.72074 5.46076 4.72074 5.47442V7.21922Z" fill="white"/>
</g>
<defs>
<clipPath id="clip0_4_3020">
<rect width="14" height="14" fill="white" transform="translate(0 0.219238)"/>
</clipPath>
</defs>
</svg>
