<svg width="14" height="15" viewBox="0 0 14 15" fill="none" xmlns="http://www.w3.org/2000/svg">
<g clip-path="url(#clip0_4_3048)">
<mask id="mask0_4_3048" style="mask-type:luminance" maskUnits="userSpaceOnUse" x="0" y="3" width="14" height="9">
<path d="M13.9463 3.2417H0V11.5733H13.9463V3.2417Z" fill="white"/>
</mask>
<g mask="url(#mask0_4_3048)">
<path d="M1.29612 3.2417H12.6493C13.363 3.2417 13.9458 3.82665 13.9458 4.54829V8.89447C13.9458 9.6161 13.363 10.2011 12.6438 10.2011H8.57437L9.13544 11.5732L6.67852 10.2011H1.30156C0.582461 10.2011 -0.000450404 9.6161 -0.000450404 8.89447V4.54829C-0.00589818 3.83212 0.577013 3.2417 1.29612 3.2417Z" fill="#9B5C8F"/>
<path d="M0.795557 4.42796C0.877275 4.31862 0.991679 4.26395 1.15511 4.25301C1.44384 4.23115 1.60728 4.36782 1.65086 4.66303C1.82518 5.84935 2.02131 6.86073 2.22287 7.68622L3.46496 5.3136C3.57937 5.09492 3.72101 4.98558 3.88989 4.97465C4.14049 4.95824 4.29303 5.11678 4.35295 5.45027C4.48914 6.2047 4.67437 6.84979 4.88683 7.39648C5.03392 5.95322 5.28452 4.90904 5.63317 4.26942C5.72034 4.11087 5.84564 4.02887 6.00907 4.01794C6.13982 4.007 6.25967 4.04527 6.36863 4.13274C6.47758 4.22021 6.53206 4.32408 6.54295 4.45529C6.5484 4.55916 6.53206 4.64117 6.48847 4.72863C6.26512 5.13865 6.08534 5.82748 5.93825 6.78419C5.79661 7.71356 5.74758 8.43519 5.78026 8.94908C5.79116 9.09122 5.76937 9.21696 5.71489 9.32629C5.64952 9.45204 5.54601 9.51764 5.41527 9.52857C5.26818 9.5395 5.11564 9.4739 4.96855 9.31536C4.44012 8.77414 4.02064 7.96504 3.71556 6.89353C3.34511 7.62062 3.07272 8.16731 2.8984 8.53359C2.56609 9.17869 2.2828 9.5067 2.0431 9.5231C1.89056 9.53403 1.75981 9.40283 1.64541 9.12948C1.35668 8.38599 1.04616 6.94273 0.708393 4.81064C0.681154 4.66303 0.71384 4.53183 0.795557 4.42796ZM12.9768 5.32452C12.7752 4.96371 12.4701 4.7505 12.067 4.66303C11.9581 4.64117 11.8546 4.63023 11.7619 4.63023C11.2171 4.63023 10.7759 4.9145 10.4272 5.48307C10.1331 5.96415 9.98597 6.49991 9.98597 7.08487C9.98597 7.52222 10.0785 7.89944 10.2583 8.21104C10.4599 8.57186 10.7649 8.78507 11.1681 8.87254C11.2771 8.89441 11.3805 8.90534 11.4732 8.90534C12.0234 8.90534 12.4647 8.62106 12.8079 8.05251C13.102 7.56596 13.2491 7.0302 13.2491 6.43977C13.2546 6.00242 13.1566 5.63067 12.9768 5.32452ZM12.2631 6.89899C12.1814 7.27621 12.0398 7.55502 11.8327 7.74089C11.6693 7.8885 11.5167 7.9541 11.3751 7.9213C11.239 7.89397 11.1245 7.77369 11.0428 7.54955C10.9774 7.37461 10.9393 7.19421 10.9393 7.0302C10.9393 6.88806 10.9502 6.74592 10.9774 6.61471C11.0265 6.37964 11.1245 6.1555 11.2771 5.93682C11.4623 5.658 11.6638 5.5432 11.8654 5.58147C12.0016 5.60881 12.116 5.72907 12.1977 5.95322C12.2631 6.12816 12.3012 6.30857 12.3012 6.47257C12.3012 6.62565 12.2904 6.76778 12.2631 6.89899ZM9.43025 5.32452C9.22874 4.96371 8.91818 4.7505 8.5205 4.66303C8.41155 4.64117 8.30803 4.63023 8.21542 4.63023C7.67064 4.63023 7.22937 4.9145 6.88071 5.48307C6.58654 5.96415 6.43945 6.49991 6.43945 7.08487C6.43945 7.52222 6.53206 7.89944 6.71183 8.21104C6.9134 8.57186 7.21848 8.78507 7.62161 8.87254C7.73057 8.89441 7.83408 8.90534 7.92669 8.90534C8.47694 8.90534 8.91818 8.62106 9.26143 8.05251C9.55559 7.56596 9.70268 7.0302 9.70268 6.43977C9.70268 6.00242 9.61003 5.63067 9.43025 5.32452ZM8.71115 6.89899C8.62945 7.27621 8.48781 7.55502 8.28077 7.74089C8.11736 7.8885 7.96482 7.9541 7.82319 7.9213C7.68699 7.89397 7.57259 7.77369 7.49087 7.54955C7.42549 7.37461 7.38736 7.19421 7.38736 7.0302C7.38736 6.88806 7.39825 6.74592 7.42549 6.61471C7.47453 6.37964 7.57259 6.1555 7.72512 5.93682C7.91035 5.658 8.11191 5.5432 8.31347 5.58147C8.44968 5.60881 8.56407 5.72907 8.64576 5.95322C8.71115 6.12816 8.74928 6.30857 8.74928 6.47257C8.75471 6.62565 8.73841 6.76778 8.71115 6.89899Z" fill="white"/>
</g>
</g>
<defs>
<clipPath id="clip0_4_3048">
<rect width="14" height="14" fill="white" transform="translate(0 0.407715)"/>
</clipPath>
</defs>
</svg>
