<svg width="37" height="37" viewBox="0 0 37 37" fill="none" xmlns="http://www.w3.org/2000/svg">
<g clip-path="url(#clip0_4_2977)">
<path d="M22.2902 8.75635H11.6902C10.7902 8.75635 9.99023 9.55635 9.99023 10.4563V22.7563H11.6902V10.4563H22.2902V8.75635ZM24.9902 12.2563H15.2902C14.2902 12.2563 13.4902 13.0563 13.4902 14.0563V26.3563C13.4902 27.3563 14.2902 28.1563 15.2902 28.1563H24.9902C25.9902 28.1563 26.7902 27.3563 26.7902 26.3563V13.9563C26.6902 13.0563 25.8902 12.2563 24.9902 12.2563ZM24.9902 26.3563H15.2902V13.9563H24.9902V26.3563Z" fill="white" stroke="black" stroke-opacity="0.15" stroke-width="2"/>
<path d="M22.2902 8.75635H11.6902C10.7902 8.75635 9.99023 9.55635 9.99023 10.4563V22.7563H11.6902V10.4563H22.2902V8.75635ZM24.9902 12.2563H15.2902C14.2902 12.2563 13.4902 13.0563 13.4902 14.0563V26.3563C13.4902 27.3563 14.2902 28.1563 15.2902 28.1563H24.9902C25.9902 28.1563 26.7902 27.3563 26.7902 26.3563V13.9563C26.6902 13.0563 25.8902 12.2563 24.9902 12.2563ZM24.9902 26.3563H15.2902V13.9563H24.9902V26.3563Z" fill="white"/>
</g>
<defs>
<clipPath id="clip0_4_2977">
<rect width="36" height="36" fill="white" transform="translate(0.390137 0.45636)"/>
</clipPath>
</defs>
</svg>
