<svg width="14" height="15" viewBox="0 0 14 15" fill="none" xmlns="http://www.w3.org/2000/svg">
<g clip-path="url(#clip0_120_1612)">
<mask id="mask0_120_1612" style="mask-type:luminance" maskUnits="userSpaceOnUse" x="0" y="3" width="14" height="9">
<path d="M13.9463 3.02393H0V11.3555H13.9463V3.02393Z" fill="white"/>
</mask>
<g mask="url(#mask0_120_1612)">
<path d="M1.29563 3.02393H12.6488C13.3625 3.02393 13.9454 3.60888 13.9454 4.33051V8.6767C13.9454 9.39833 13.3625 9.98329 12.6434 9.98329H8.57389L9.13496 11.3555L6.67803 9.98329H1.30107C0.581973 9.98329 -0.000938686 9.39833 -0.000938686 8.6767V4.33051C-0.00638646 3.61435 0.576525 3.02393 1.29563 3.02393Z" fill="#9B5C8F"/>
<path d="M0.794824 4.21018C0.876542 4.10084 0.990947 4.04618 1.15438 4.03524C1.44311 4.01337 1.60654 4.15005 1.65012 4.44526C1.82445 5.63158 2.02057 6.64295 2.22214 7.46845L3.46423 5.09582C3.57863 4.87714 3.72028 4.7678 3.88916 4.75687C4.13975 4.74047 4.2923 4.89901 4.35222 5.23249C4.48841 5.98692 4.67364 6.63202 4.8861 7.17871C5.03319 5.73545 5.28379 4.69127 5.63244 4.05164C5.71961 3.8931 5.84491 3.8111 6.00834 3.80016C6.13908 3.78923 6.25894 3.8275 6.36789 3.91497C6.47685 4.00244 6.53132 4.10631 6.54222 4.23751C6.54767 4.34139 6.53132 4.42339 6.48774 4.51086C6.26438 4.92088 6.08461 5.6097 5.93752 6.56641C5.79588 7.49578 5.74685 8.21742 5.77953 8.73131C5.79043 8.87344 5.76864 8.99919 5.71416 9.10852C5.64879 9.23426 5.54528 9.29987 5.41454 9.31079C5.26744 9.32173 5.11491 9.25613 4.96782 9.09759C4.43939 8.55637 4.0199 7.74727 3.71483 6.67575C3.34438 7.40285 3.07199 7.94954 2.89766 8.31582C2.56535 8.96092 2.28207 9.28893 2.04236 9.30532C1.88983 9.31626 1.75908 9.18506 1.64467 8.91171C1.35594 8.16821 1.04542 6.72495 0.70766 4.59287C0.680421 4.44526 0.713108 4.31405 0.794824 4.21018ZM12.9761 5.10675C12.7745 4.74594 12.4694 4.53273 12.0663 4.44526C11.9573 4.42339 11.8538 4.41246 11.7612 4.41246C11.2164 4.41246 10.7752 4.69673 10.4265 5.2653C10.1323 5.74638 9.98524 6.28213 9.98524 6.86709C9.98524 7.30445 10.0778 7.68166 10.2576 7.99327C10.4592 8.35409 10.7642 8.56729 11.1674 8.65477C11.2764 8.67663 11.3798 8.68757 11.4725 8.68757C12.0227 8.68757 12.464 8.40329 12.8071 7.83473C13.1013 7.34818 13.2484 6.81243 13.2484 6.222C13.2539 5.78465 13.1558 5.4129 12.9761 5.10675ZM12.2624 6.68121C12.1807 7.05843 12.039 7.33725 11.832 7.52312C11.6686 7.67073 11.516 7.73633 11.3744 7.70353C11.2382 7.67619 11.1238 7.55592 11.0421 7.33178C10.9767 7.15684 10.9386 6.97643 10.9386 6.81243C10.9386 6.67029 10.9495 6.52815 10.9767 6.39694C11.0258 6.16186 11.1238 5.93772 11.2764 5.71904C11.4616 5.44023 11.6631 5.32543 11.8647 5.3637C12.0009 5.39103 12.1153 5.5113 12.197 5.73545C12.2624 5.91038 12.3005 6.09079 12.3005 6.2548C12.3005 6.40788 12.2896 6.55001 12.2624 6.68121ZM9.42952 5.10675C9.228 4.74594 8.91745 4.53273 8.51977 4.44526C8.41082 4.42339 8.3073 4.41246 8.21469 4.41246C7.66991 4.41246 7.22864 4.69673 6.87998 5.2653C6.58581 5.74638 6.43872 6.28213 6.43872 6.86709C6.43872 7.30445 6.53132 7.68166 6.7111 7.99327C6.91267 8.35409 7.21774 8.56729 7.62088 8.65477C7.72984 8.67663 7.83335 8.68757 7.92595 8.68757C8.4762 8.68757 8.91745 8.40329 9.2607 7.83473C9.55486 7.34818 9.70194 6.81243 9.70194 6.222C9.70194 5.78465 9.6093 5.4129 9.42952 5.10675ZM8.71041 6.68121C8.62872 7.05843 8.48707 7.33725 8.28004 7.52312C8.11663 7.67073 7.96409 7.73633 7.82245 7.70353C7.68626 7.67619 7.57185 7.55592 7.49013 7.33178C7.42476 7.15684 7.38662 6.97643 7.38662 6.81243C7.38662 6.67029 7.39752 6.52815 7.42476 6.39694C7.4738 6.16186 7.57185 5.93772 7.72439 5.71904C7.90961 5.44023 8.11118 5.32543 8.31273 5.3637C8.44894 5.39103 8.56333 5.5113 8.64503 5.73545C8.71041 5.91038 8.74854 6.09079 8.74854 6.2548C8.75398 6.40788 8.73767 6.55001 8.71041 6.68121Z" fill="white"/>
</g>
</g>
<defs>
<clipPath id="clip0_120_1612">
<rect width="14" height="14" fill="white" transform="translate(0 0.189941)"/>
</clipPath>
</defs>
</svg>
