<svg width="24" height="25" viewBox="0 0 24 25" fill="none" xmlns="http://www.w3.org/2000/svg">
<g clip-path="url(#clip0_49_709)">
<mask id="mask0_49_709" style="mask-type:luminance" maskUnits="userSpaceOnUse" x="0" y="1" width="24" height="24">
<path d="M23.5197 1.67285H0.479736V24.7129H23.5197V1.67285Z" fill="white"/>
</mask>
<g mask="url(#mask0_49_709)">
<path fill-rule="evenodd" clip-rule="evenodd" d="M8.5774 9.33043C9.18576 7.62731 10.4174 6.22039 11.9977 5.38441C11.93 3.32232 10.2384 1.67285 8.15974 1.67285C6.03814 1.67285 4.31974 3.39125 4.31974 5.51285C4.31974 7.63445 6.03814 9.35285 8.15974 9.35285C8.30087 9.35285 8.44022 9.34525 8.5774 9.33043ZM8.15974 11.7528C8.15974 11.5915 8.16504 11.4315 8.17548 11.2728H8.15974C5.59654 11.2728 0.479736 12.5592 0.479736 15.1128V17.0328H10.4646C9.04694 15.7179 8.15974 13.839 8.15974 11.7528ZM15.3598 16.0728C17.7465 16.0728 19.6798 14.1397 19.6798 11.7528C19.6798 9.36605 17.7465 7.43285 15.3598 7.43285C12.9729 7.43285 11.0398 9.36605 11.0398 11.7528C11.0398 14.1397 12.9729 16.0728 15.3598 16.0728ZM14.8798 17.9928C11.9961 17.9928 6.23974 19.4937 6.23974 22.4729V24.7128H23.5198V22.4729C23.5198 19.4937 17.7633 17.9928 14.8798 17.9928Z" fill="white"/>
</g>
</g>
<defs>
<clipPath id="clip0_49_709">
<rect width="24" height="24" fill="white" transform="translate(0 0.717773)"/>
</clipPath>
</defs>
</svg>
