<svg width="14" height="15" viewBox="0 0 14 15" fill="none" xmlns="http://www.w3.org/2000/svg">
<g clip-path="url(#clip0_4_3007)">
<path d="M7 0.894163C7.88837 0.894163 8.74944 1.06848 9.56228 1.41081C9.95288 1.57673 10.3289 1.78045 10.6795 2.01778C11.0282 2.253 11.3558 2.52392 11.6541 2.82216C11.9523 3.12039 12.2232 3.44802 12.4585 3.79665C12.6958 4.14739 12.8995 4.52543 13.0654 4.91396C13.4077 5.72465 13.582 6.58573 13.582 7.47622C13.582 8.36669 13.4077 9.22566 13.0654 10.0385C12.8995 10.4291 12.6958 10.8051 12.4585 11.1558C12.2232 11.5044 11.9523 11.832 11.6541 12.1303C11.3558 12.4285 11.0282 12.6994 10.6795 12.9347C10.3289 13.172 9.95078 13.3757 9.56228 13.5417C8.75154 13.884 7.89047 14.0583 7 14.0583C6.11161 14.0583 5.25053 13.884 4.43774 13.5417C4.04711 13.3757 3.67116 13.172 3.32043 12.9347C2.97179 12.6994 2.64417 12.4285 2.34593 12.1303C2.0477 11.832 1.77677 11.5044 1.54155 11.1558C1.30423 10.8051 1.10051 10.427 0.934591 10.0385C0.594359 9.22566 0.420042 8.36249 0.420042 7.47412C0.420042 6.58573 0.594359 5.72465 0.936691 4.91186C1.10261 4.52123 1.30633 4.14529 1.54365 3.79455C1.77887 3.44592 2.0498 3.11829 2.34804 2.82005C2.64627 2.52182 2.97389 2.2509 3.32253 2.01568C3.67326 1.77835 4.05131 1.57463 4.43984 1.40871C5.25052 1.06848 6.11161 0.894163 7 0.894163ZM7 0.474121C3.13351 0.474121 0 3.60764 0 7.47412C0 11.3406 3.13351 14.4741 7 14.4741C10.8665 14.4741 14 11.3406 14 7.47412C14.0021 3.60764 10.8665 0.474121 7 0.474121Z" fill="#32373C"/>
<path d="M1.16772 7.4744C1.16772 9.78251 2.50976 11.7798 4.45665 12.7249L1.67387 5.10114C1.34834 5.82571 1.16772 6.63009 1.16772 7.4744ZM10.94 7.18035C10.94 6.45997 10.6816 5.96012 10.459 5.57159C10.1629 5.09064 9.88567 4.6832 9.88567 4.20435C9.88567 3.66879 10.2931 3.16894 10.8644 3.16894C10.8896 3.16894 10.9148 3.17104 10.94 3.17314C9.90247 2.22175 8.51843 1.64209 6.99999 1.64209C4.9628 1.64209 3.16923 2.68799 2.12542 4.27156C2.26194 4.27576 2.39214 4.27786 2.50136 4.27786C3.11042 4.27786 4.05551 4.20435 4.05551 4.20435C4.37055 4.18545 4.40625 4.64749 4.09332 4.6853C4.09332 4.6853 3.77618 4.72311 3.42545 4.73991L5.55086 11.0594L6.82779 7.23075L5.9184 4.73991C5.60337 4.721 5.30724 4.6853 5.30724 4.6853C4.99221 4.6664 5.03001 4.18545 5.34504 4.20435C5.34504 4.20435 6.30904 4.27786 6.8824 4.27786C7.49146 4.27786 8.43653 4.20435 8.43653 4.20435C8.7516 4.18545 8.7873 4.64749 8.47433 4.6853C8.47433 4.6853 8.15723 4.72311 7.80646 4.73991L9.91297 11.0111L10.5157 9.10414C10.7825 8.27037 10.94 7.6802 10.94 7.18035ZM7.10289 7.9847L5.35134 13.0715C5.87429 13.2248 6.42665 13.3088 6.99999 13.3088C7.67836 13.3088 8.33153 13.1912 8.9364 12.9791C8.9217 12.9539 8.907 12.9265 8.8944 12.8992L7.10289 7.9847ZM12.1204 4.6769C12.1456 4.86172 12.1603 5.06123 12.1603 5.27755C12.1603 5.86982 12.0489 6.53558 11.7171 7.36726L9.93397 12.517C11.6688 11.5067 12.8344 9.62711 12.8344 7.4744C12.8344 6.45997 12.5761 5.50648 12.1204 4.6769Z" fill="#32373C"/>
</g>
<defs>
<clipPath id="clip0_4_3007">
<rect width="14" height="14" fill="white" transform="translate(0 0.474121)"/>
</clipPath>
</defs>
</svg>
