<svg width="14" height="15" viewBox="0 0 14 15" fill="none" xmlns="http://www.w3.org/2000/svg">
<g clip-path="url(#clip0_4_3007)">
<path d="M7 1.12756C7.88837 1.12756 8.74944 1.30188 9.56228 1.64421C9.95288 1.81013 10.3289 2.01385 10.6795 2.25117C11.0282 2.48639 11.3558 2.75732 11.6541 3.05556C11.9523 3.35379 12.2232 3.68141 12.4585 4.03005C12.6958 4.38078 12.8995 4.75883 13.0654 5.14736C13.4077 5.95804 13.582 6.81913 13.582 7.70962C13.582 8.60009 13.4077 9.45906 13.0654 10.2719C12.8995 10.6625 12.6958 11.0385 12.4585 11.3892C12.2232 11.7378 11.9523 12.0654 11.6541 12.3637C11.3558 12.6619 11.0282 12.9328 10.6795 13.1681C10.3289 13.4054 9.95078 13.6091 9.56228 13.775C8.75154 14.1173 7.89047 14.2916 7 14.2916C6.11161 14.2916 5.25053 14.1173 4.43774 13.775C4.04711 13.6091 3.67116 13.4054 3.32043 13.1681C2.97179 12.9328 2.64417 12.6619 2.34593 12.3637C2.0477 12.0654 1.77677 11.7378 1.54155 11.3892C1.30423 11.0385 1.10051 10.6604 0.934591 10.2719C0.594359 9.45906 0.420042 8.59589 0.420042 7.70752C0.420042 6.81913 0.594359 5.95804 0.936691 5.14526C1.10261 4.75463 1.30633 4.37868 1.54365 4.02795C1.77887 3.67931 2.0498 3.35169 2.34804 3.05345C2.64627 2.75522 2.97389 2.48429 3.32253 2.24907C3.67326 2.01175 4.05131 1.80803 4.43984 1.64211C5.25052 1.30188 6.11161 1.12756 7 1.12756ZM7 0.70752C3.13351 0.70752 0 3.84103 0 7.70752C0 11.574 3.13351 14.7075 7 14.7075C10.8665 14.7075 14 11.574 14 7.70752C14.0021 3.84103 10.8665 0.70752 7 0.70752Z" fill="#32373C"/>
<path d="M1.16772 7.7078C1.16772 10.0159 2.50976 12.0132 4.45665 12.9583L1.67387 5.33454C1.34834 6.05911 1.16772 6.86349 1.16772 7.7078ZM10.94 7.41375C10.94 6.69337 10.6816 6.19352 10.459 5.80499C10.1629 5.32404 9.88567 4.9166 9.88567 4.43775C9.88567 3.90219 10.2931 3.40234 10.8644 3.40234C10.8896 3.40234 10.9148 3.40444 10.94 3.40654C9.90247 2.45515 8.51843 1.87549 6.99999 1.87549C4.9628 1.87549 3.16923 2.92139 2.12542 4.50495C2.26194 4.50915 2.39214 4.51125 2.50136 4.51125C3.11042 4.51125 4.05551 4.43775 4.05551 4.43775C4.37055 4.41885 4.40625 4.88089 4.09332 4.9187C4.09332 4.9187 3.77618 4.9565 3.42545 4.9733L5.55086 11.2928L6.82779 7.46415L5.9184 4.9733C5.60337 4.9544 5.30724 4.9187 5.30724 4.9187C4.99221 4.8998 5.03001 4.41885 5.34504 4.43775C5.34504 4.43775 6.30904 4.51125 6.8824 4.51125C7.49146 4.51125 8.43653 4.43775 8.43653 4.43775C8.7516 4.41885 8.7873 4.88089 8.47433 4.9187C8.47433 4.9187 8.15723 4.9565 7.80646 4.9733L9.91297 11.2445L10.5157 9.33754C10.7825 8.50377 10.94 7.9136 10.94 7.41375ZM7.10289 8.2181L5.35134 13.3049C5.87429 13.4582 6.42665 13.5422 6.99999 13.5422C7.67836 13.5422 8.33153 13.4246 8.9364 13.2125C8.9217 13.1873 8.907 13.1599 8.8944 13.1326L7.10289 8.2181ZM12.1204 4.9103C12.1456 5.09512 12.1603 5.29463 12.1603 5.51095C12.1603 6.10321 12.0489 6.76898 11.7171 7.60066L9.93397 12.7504C11.6688 11.7401 12.8344 9.86051 12.8344 7.7078C12.8344 6.69337 12.5761 5.73988 12.1204 4.9103Z" fill="#32373C"/>
</g>
<defs>
<clipPath id="clip0_4_3007">
<rect width="14" height="14" fill="white" transform="translate(0 0.70752)"/>
</clipPath>
</defs>
</svg>
