<svg width="24" height="24" viewBox="0 0 24 24" fill="none" xmlns="http://www.w3.org/2000/svg">
<g clip-path="url(#clip0_49_788)">
<mask id="mask0_49_788" style="mask-type:luminance" maskUnits="userSpaceOnUse" x="0" y="0" width="24" height="24">
<path d="M23.0849 0.47998H0.0449219V23.52H23.0849V0.47998Z" fill="white"/>
</mask>
<g mask="url(#mask0_49_788)">
<path fill-rule="evenodd" clip-rule="evenodd" d="M0.0449219 4.31986C0.0449219 3.78967 0.474728 3.35986 1.00493 3.35986H5.80493C6.33512 3.35986 6.76493 3.78967 6.76493 4.31986V19.6798C6.76493 20.2101 6.33512 20.6398 5.80493 20.6398H1.00492C0.474728 20.6398 0.0449219 20.2101 0.0449219 19.6798V4.31986ZM16.3649 4.31986C16.3649 3.78967 16.7947 3.35986 17.3249 3.35986H22.1249C22.6552 3.35986 23.0849 3.78967 23.0849 4.31986V15.8398C23.0849 16.3701 22.6552 16.7998 22.1249 16.7998H17.3249C16.7947 16.7998 16.3649 16.3701 16.3649 15.8398V4.31986ZM9.64495 3.35986C9.11473 3.35986 8.68493 3.78967 8.68493 4.31986V11.9998C8.68493 12.5301 9.11473 12.9598 9.64495 12.9598H13.4849C14.0152 12.9598 14.4449 12.5301 14.4449 11.9998V4.31986C14.4449 3.78967 14.0152 3.35986 13.4849 3.35986H9.64495Z" fill="white"/>
</g>
</g>
<defs>
<clipPath id="clip0_49_788">
<rect width="24" height="24" fill="white" transform="translate(0 0.000488281)"/>
</clipPath>
</defs>
</svg>
