<svg width="14" height="15" viewBox="0 0 14 15" fill="none" xmlns="http://www.w3.org/2000/svg">
<g clip-path="url(#clip0_4_3007)">
<path d="M7 0.659788C7.88837 0.659788 8.74944 0.834106 9.56228 1.17644C9.95288 1.34236 10.3289 1.54608 10.6795 1.7834C11.0282 2.01862 11.3558 2.28955 11.6541 2.58778C11.9523 2.88601 12.2232 3.21364 12.4585 3.56228C12.6958 3.91301 12.8995 4.29105 13.0654 4.67959C13.4077 5.49027 13.582 6.35136 13.582 7.24185C13.582 8.13232 13.4077 8.99129 13.0654 9.80413C12.8995 10.1947 12.6958 10.5707 12.4585 10.9214C12.2232 11.2701 11.9523 11.5977 11.6541 11.8959C11.3558 12.1941 11.0282 12.465 10.6795 12.7003C10.3289 12.9376 9.95078 13.1413 9.56228 13.3073C8.75154 13.6496 7.89047 13.8239 7 13.8239C6.11161 13.8239 5.25053 13.6496 4.43774 13.3073C4.04711 13.1413 3.67116 12.9376 3.32043 12.7003C2.97179 12.465 2.64417 12.1941 2.34593 11.8959C2.0477 11.5977 1.77677 11.2701 1.54155 10.9214C1.30423 10.5707 1.10051 10.1926 0.934591 9.80413C0.594359 8.99129 0.420042 8.12812 0.420042 7.23975C0.420042 6.35135 0.594359 5.49027 0.936691 4.67749C1.10261 4.28685 1.30633 3.91091 1.54365 3.56018C1.77887 3.21154 2.0498 2.88391 2.34804 2.58568C2.64627 2.28745 2.97389 2.01652 3.32253 1.7813C3.67326 1.54398 4.05131 1.34026 4.43984 1.17434C5.25052 0.834106 6.11161 0.659788 7 0.659788ZM7 0.239746C3.13351 0.239746 0 3.37326 0 7.23975C0 11.1063 3.13351 14.2397 7 14.2397C10.8665 14.2397 14 11.1063 14 7.23975C14.0021 3.37326 10.8665 0.239746 7 0.239746Z" fill="#32373C"/>
<path d="M1.16772 7.24002C1.16772 9.54813 2.50976 11.5454 4.45665 12.4905L1.67387 4.86676C1.34834 5.59133 1.16772 6.39572 1.16772 7.24002ZM10.94 6.94597C10.94 6.2256 10.6816 5.72575 10.459 5.33721C10.1629 4.85626 9.88567 4.44882 9.88567 3.96997C9.88567 3.43442 10.2931 2.93457 10.8644 2.93457C10.8896 2.93457 10.9148 2.93667 10.94 2.93877C9.90247 1.98738 8.51843 1.40771 6.99999 1.40771C4.9628 1.40771 3.16923 2.45362 2.12542 4.03718C2.26194 4.04138 2.39214 4.04348 2.50136 4.04348C3.11042 4.04348 4.05551 3.96997 4.05551 3.96997C4.37055 3.95107 4.40625 4.41312 4.09332 4.45092C4.09332 4.45092 3.77618 4.48873 3.42545 4.50553L5.55086 10.8251L6.82779 6.99637L5.9184 4.50553C5.60337 4.48662 5.30724 4.45092 5.30724 4.45092C4.99221 4.43202 5.03001 3.95107 5.34504 3.96997C5.34504 3.96997 6.30904 4.04348 6.8824 4.04348C7.49146 4.04348 8.43653 3.96997 8.43653 3.96997C8.7516 3.95107 8.7873 4.41312 8.47433 4.45092C8.47433 4.45092 8.15723 4.48873 7.80646 4.50553L9.91297 10.7768L10.5157 8.86976C10.7825 8.03599 10.94 7.44582 10.94 6.94597ZM7.10289 7.75032L5.35134 12.8371C5.87429 12.9904 6.42665 13.0744 6.99999 13.0744C7.67836 13.0744 8.33153 12.9568 8.9364 12.7447C8.9217 12.7195 8.907 12.6921 8.8944 12.6648L7.10289 7.75032ZM12.1204 4.44252C12.1456 4.62734 12.1603 4.82686 12.1603 5.04318C12.1603 5.63544 12.0489 6.3012 11.7171 7.13289L9.93397 12.2826C11.6688 11.2724 12.8344 9.39273 12.8344 7.24002C12.8344 6.2256 12.5761 5.27211 12.1204 4.44252Z" fill="#32373C"/>
</g>
<defs>
<clipPath id="clip0_4_3007">
<rect width="14" height="14" fill="white" transform="translate(0 0.239746)"/>
</clipPath>
</defs>
</svg>
