<svg width="37" height="37" viewBox="0 0 37 37" fill="none" xmlns="http://www.w3.org/2000/svg">
<g clip-path="url(#clip0_4_2977)">
<path d="M22.2902 8.99036H11.6902C10.7902 8.99036 9.99023 9.79036 9.99023 10.6904V22.9904H11.6902V10.6904H22.2902V8.99036ZM24.9902 12.4904H15.2902C14.2902 12.4904 13.4902 13.2904 13.4902 14.2904V26.5904C13.4902 27.5904 14.2902 28.3904 15.2902 28.3904H24.9902C25.9902 28.3904 26.7902 27.5904 26.7902 26.5904V14.1904C26.6902 13.2904 25.8902 12.4904 24.9902 12.4904ZM24.9902 26.5904H15.2902V14.1904H24.9902V26.5904Z" fill="white" stroke="black" stroke-opacity="0.15" stroke-width="2"/>
<path d="M22.2902 8.99036H11.6902C10.7902 8.99036 9.99023 9.79036 9.99023 10.6904V22.9904H11.6902V10.6904H22.2902V8.99036ZM24.9902 12.4904H15.2902C14.2902 12.4904 13.4902 13.2904 13.4902 14.2904V26.5904C13.4902 27.5904 14.2902 28.3904 15.2902 28.3904H24.9902C25.9902 28.3904 26.7902 27.5904 26.7902 26.5904V14.1904C26.6902 13.2904 25.8902 12.4904 24.9902 12.4904ZM24.9902 26.5904H15.2902V14.1904H24.9902V26.5904Z" fill="white"/>
</g>
<defs>
<clipPath id="clip0_4_2977">
<rect width="36" height="36" fill="white" transform="translate(0.390137 0.690369)"/>
</clipPath>
</defs>
</svg>
