<svg width="14" height="14" viewBox="0 0 14 14" fill="none" xmlns="http://www.w3.org/2000/svg">
<g clip-path="url(#clip0_121_2281)">
<mask id="mask0_121_2281" style="mask-type:luminance" maskUnits="userSpaceOnUse" x="0" y="2" width="14" height="10">
<path d="M13.9463 2.83398H0V11.1655H13.9463V2.83398Z" fill="white"/>
</mask>
<g mask="url(#mask0_121_2281)">
<path d="M1.29563 2.83398H12.6488C13.3625 2.83398 13.9454 3.41894 13.9454 4.14057V8.48676C13.9454 9.20838 13.3625 9.79335 12.6434 9.79335H8.57389L9.13496 11.1655L6.67803 9.79335H1.30107C0.581973 9.79335 -0.000938686 9.20838 -0.000938686 8.48676V4.14057C-0.00638646 3.42441 0.576525 2.83398 1.29563 2.83398Z" fill="#9B5C8F"/>
<path d="M0.794824 4.02024C0.876542 3.9109 0.990947 3.85623 1.15438 3.8453C1.44311 3.82343 1.60654 3.96011 1.65012 4.25532C1.82445 5.44164 2.02057 6.45301 2.22214 7.27851L3.46423 4.90588C3.57863 4.6872 3.72028 4.57786 3.88916 4.56693C4.13975 4.55053 4.2923 4.70907 4.35222 5.04255C4.48841 5.79698 4.67364 6.44208 4.8861 6.98877C5.03319 5.54551 5.28379 4.50133 5.63244 3.8617C5.71961 3.70316 5.84491 3.62116 6.00834 3.61022C6.13908 3.59929 6.25894 3.63755 6.36789 3.72503C6.47685 3.8125 6.53132 3.91637 6.54222 4.04757C6.54767 4.15145 6.53132 4.23345 6.48774 4.32092C6.26438 4.73094 6.08461 5.41976 5.93752 6.37647C5.79588 7.30584 5.74685 8.02748 5.77953 8.54137C5.79043 8.6835 5.76864 8.80925 5.71416 8.91858C5.64879 9.04432 5.54528 9.10992 5.41454 9.12085C5.26744 9.13179 5.11491 9.06619 4.96782 8.90765C4.43939 8.36642 4.0199 7.55732 3.71483 6.48581C3.34438 7.21291 3.07199 7.7596 2.89766 8.12588C2.56535 8.77098 2.28207 9.09899 2.04236 9.11538C1.88983 9.12632 1.75908 8.99512 1.64467 8.72177C1.35594 7.97827 1.04542 6.53501 0.70766 4.40293C0.680421 4.25532 0.713108 4.12411 0.794824 4.02024ZM12.9761 4.91681C12.7745 4.556 12.4694 4.34278 12.0663 4.25532C11.9573 4.23345 11.8538 4.22252 11.7612 4.22252C11.2164 4.22252 10.7752 4.50679 10.4265 5.07535C10.1323 5.55644 9.98524 6.09219 9.98524 6.67715C9.98524 7.1145 10.0778 7.49172 10.2576 7.80333C10.4592 8.16415 10.7642 8.37735 11.1674 8.46483C11.2764 8.48669 11.3798 8.49763 11.4725 8.49763C12.0227 8.49763 12.464 8.21335 12.8071 7.64479C13.1013 7.15824 13.2484 6.62249 13.2484 6.03206C13.2539 5.5947 13.1558 5.22296 12.9761 4.91681ZM12.2624 6.49127C12.1807 6.86849 12.039 7.1473 11.832 7.33318C11.6686 7.48078 11.516 7.54639 11.3744 7.51359C11.2382 7.48625 11.1238 7.36598 11.0421 7.14184C10.9767 6.96689 10.9386 6.78649 10.9386 6.62249C10.9386 6.48035 10.9495 6.3382 10.9767 6.207C11.0258 5.97192 11.1238 5.74778 11.2764 5.5291C11.4616 5.25029 11.6631 5.13549 11.8647 5.17376C12.0009 5.20109 12.1153 5.32136 12.197 5.54551C12.2624 5.72044 12.3005 5.90085 12.3005 6.06486C12.3005 6.21794 12.2896 6.36007 12.2624 6.49127ZM9.42952 4.91681C9.228 4.556 8.91745 4.34278 8.51977 4.25532C8.41082 4.23345 8.3073 4.22252 8.21469 4.22252C7.66991 4.22252 7.22864 4.50679 6.87998 5.07535C6.58581 5.55644 6.43872 6.09219 6.43872 6.67715C6.43872 7.1145 6.53132 7.49172 6.7111 7.80333C6.91267 8.16415 7.21774 8.37735 7.62088 8.46483C7.72984 8.48669 7.83335 8.49763 7.92595 8.49763C8.4762 8.49763 8.91745 8.21335 9.2607 7.64479C9.55486 7.15824 9.70194 6.62249 9.70194 6.03206C9.70194 5.5947 9.6093 5.22296 9.42952 4.91681ZM8.71041 6.49127C8.62872 6.86849 8.48707 7.1473 8.28004 7.33318C8.11663 7.48078 7.96409 7.54639 7.82245 7.51359C7.68626 7.48625 7.57185 7.36598 7.49013 7.14184C7.42476 6.96689 7.38662 6.78649 7.38662 6.62249C7.38662 6.48035 7.39752 6.3382 7.42476 6.207C7.4738 5.97192 7.57185 5.74778 7.72439 5.5291C7.90961 5.25029 8.11118 5.13549 8.31273 5.17376C8.44894 5.20109 8.56333 5.32136 8.64503 5.54551C8.71041 5.72044 8.74854 5.90085 8.74854 6.06486C8.75398 6.21794 8.73767 6.36007 8.71041 6.49127Z" fill="white"/>
</g>
</g>
<defs>
<clipPath id="clip0_121_2281">
<rect width="14" height="14" fill="white"/>
</clipPath>
</defs>
</svg>
