<svg width="14" height="15" viewBox="0 0 14 15" fill="none" xmlns="http://www.w3.org/2000/svg">
<g clip-path="url(#clip0_4_3020)">
<path d="M5.82709 3.0533C6.27814 2.57933 6.9061 2.28538 7.60062 2.28538C8.52386 2.28538 9.32939 2.80456 9.75831 3.57529C10.1311 3.40732 10.5437 3.31389 10.9778 3.31389C12.643 3.31389 13.993 4.68719 13.993 6.38115C13.993 8.07534 12.643 9.44862 10.9778 9.44862C10.7746 9.44862 10.576 9.42814 10.3839 9.38894C10.0062 10.0685 9.28634 10.5276 8.4601 10.5276C8.11425 10.5276 7.78711 10.447 7.49585 10.3037C7.11289 11.2121 6.22075 11.849 5.18098 11.849C4.09816 11.849 3.17532 11.1581 2.8211 10.189C2.66629 10.2222 2.50591 10.2394 2.34135 10.2394C1.05212 10.2394 0.00695801 9.17457 0.00695801 7.86073C0.00695801 6.9803 0.476545 6.21158 1.17425 5.80029C1.03061 5.46697 0.950714 5.09908 0.950714 4.7123C0.950714 3.20138 2.16702 1.97656 3.66723 1.97656C4.54803 1.97656 5.33081 2.3989 5.82709 3.0533Z" fill="#00A1E0"/>
<path d="M2.0327 7.09659C2.02393 7.1197 2.03589 7.12452 2.03868 7.12853C2.06498 7.14783 2.09168 7.16169 2.11857 7.17716C2.26122 7.25351 2.3959 7.27581 2.53675 7.27581C2.82365 7.27581 3.00176 7.12191 3.00176 6.87417V6.86935C3.00176 6.6403 2.80074 6.55712 2.61207 6.49704L2.58756 6.489C2.44531 6.44239 2.32258 6.40221 2.32258 6.30777V6.30275C2.32258 6.22198 2.3943 6.16251 2.50548 6.16251C2.629 6.16251 2.77564 6.2039 2.87007 6.25654C2.87007 6.25654 2.89776 6.27462 2.90792 6.2475C2.9135 6.23303 2.96132 6.10324 2.9663 6.08917C2.97168 6.0739 2.96212 6.06265 2.95235 6.05662C2.84457 5.99052 2.69554 5.94531 2.54134 5.94531L2.51265 5.94551C2.25006 5.94551 2.06677 6.10544 2.06677 6.3347V6.33952C2.06677 6.58123 2.26899 6.65959 2.45846 6.71424L2.48894 6.72368C2.62701 6.76648 2.74595 6.80324 2.74595 6.9013V6.90611C2.74595 6.99573 2.66865 7.06243 2.54393 7.06243C2.49552 7.06243 2.34111 7.06143 2.17436 6.95514C2.15423 6.94328 2.14248 6.93465 2.12694 6.9252C2.11877 6.91998 2.09825 6.91094 2.08929 6.93826L2.0327 7.09659Z" fill="white"/>
<path d="M6.2328 7.09659C6.22399 7.1197 6.23595 7.12452 6.23875 7.12853C6.26506 7.14783 6.29177 7.16169 6.31867 7.17716C6.46129 7.25351 6.59598 7.27581 6.73686 7.27581C7.02374 7.27581 7.20183 7.12191 7.20183 6.87417V6.86935C7.20183 6.6403 7.00082 6.55712 6.81217 6.49704L6.78761 6.489C6.64539 6.44239 6.52266 6.40221 6.52266 6.30777V6.30275C6.52266 6.22198 6.59441 6.16251 6.70553 6.16251C6.82908 6.16251 6.97573 6.2039 7.07017 6.25654C7.07017 6.25654 7.09782 6.27462 7.10797 6.2475C7.11357 6.23303 7.16141 6.10324 7.16637 6.08917C7.17173 6.0739 7.16217 6.06265 7.15242 6.05662C7.04462 5.99052 6.89564 5.94531 6.74141 5.94531L6.71271 5.94551C6.45015 5.94551 6.26687 6.10544 6.26687 6.3347V6.33952C6.26687 6.58123 6.46905 6.65959 6.65852 6.71424L6.68902 6.72368C6.8271 6.76648 6.94622 6.80324 6.94622 6.9013V6.90611C6.94622 6.99573 6.86875 7.06243 6.74403 7.06243C6.69562 7.06243 6.54121 7.06143 6.37443 6.95514C6.35431 6.94328 6.34235 6.93505 6.32724 6.9252C6.32205 6.92179 6.29772 6.91234 6.28938 6.93826L6.2328 7.09659Z" fill="white"/>
<path d="M9.09991 6.61097C9.09991 6.75101 9.07401 6.86131 9.02302 6.93927C8.97262 7.01642 8.89626 7.054 8.78992 7.054C8.68329 7.054 8.6074 7.01663 8.55781 6.93927C8.50759 6.86151 8.4821 6.75101 8.4821 6.61097C8.4821 6.47112 8.50759 6.36102 8.55781 6.28387C8.6074 6.20751 8.68329 6.17034 8.78992 6.17034C8.89626 6.17034 8.97262 6.20751 9.0232 6.28387C9.07401 6.36102 9.09991 6.47112 9.09991 6.61097ZM9.33937 6.35138C9.31586 6.27121 9.27922 6.20049 9.2304 6.14162C9.18157 6.08254 9.1198 6.03513 9.04653 6.00057C8.97338 5.96621 8.88693 5.94873 8.78992 5.94873C8.69268 5.94873 8.60623 5.96621 8.53308 6.00057C8.45976 6.03513 8.39804 6.08254 8.34898 6.14162C8.30039 6.20068 8.26376 6.27141 8.24001 6.35138C8.21674 6.43114 8.20496 6.51834 8.20496 6.61097C8.20496 6.70359 8.21674 6.79099 8.24001 6.87055C8.26376 6.95052 8.30021 7.02125 8.34921 7.08032C8.39804 7.13939 8.45999 7.1866 8.53308 7.22016C8.60641 7.25371 8.69268 7.27079 8.78992 7.27079C8.88693 7.27079 8.97321 7.25371 9.04653 7.22016C9.11962 7.1866 9.18157 7.13939 9.2304 7.08032C9.27922 7.02145 9.31586 6.95072 9.33937 6.87055C9.36287 6.79079 9.37466 6.70339 9.37466 6.61097C9.37466 6.51854 9.36287 6.43114 9.33937 6.35138Z" fill="white"/>
<path d="M11.306 7.01685C11.298 6.99334 11.2755 7.00219 11.2755 7.00219C11.2406 7.01565 11.2036 7.02811 11.1642 7.03434C11.1241 7.04057 11.0801 7.04378 11.0329 7.04378C10.9169 7.04378 10.8248 7.00902 10.7589 6.9403C10.6928 6.87159 10.6557 6.76048 10.6561 6.61019C10.6565 6.47336 10.6892 6.37049 10.748 6.29213C10.8064 6.21417 10.8952 6.17419 11.0137 6.17419C11.1125 6.17419 11.1879 6.18564 11.2668 6.21076C11.2668 6.21076 11.2857 6.219 11.2947 6.19408C11.3155 6.13541 11.3311 6.09342 11.3534 6.02892C11.3598 6.01064 11.3442 6.0028 11.3387 6.0006C11.3076 5.98834 11.2343 5.96845 11.1789 5.96001C11.1271 5.95197 11.0665 5.94775 10.9992 5.94775C10.8986 5.94775 10.8089 5.96503 10.7322 5.99959C10.6557 6.03395 10.5908 6.08137 10.5394 6.14043C10.488 6.19951 10.4489 6.27023 10.4228 6.3502C10.3969 6.42997 10.3838 6.51757 10.3838 6.61019C10.3838 6.81051 10.4373 6.97245 10.5432 7.09099C10.6491 7.20994 10.8083 7.27042 11.0159 7.27042C11.1386 7.27042 11.2646 7.2453 11.355 7.20934C11.355 7.20934 11.3724 7.2009 11.3648 7.18061L11.306 7.01685Z" fill="white"/>
<path d="M11.7249 6.47675C11.7363 6.39899 11.7576 6.3343 11.7905 6.28387C11.8401 6.20732 11.9158 6.16532 12.0222 6.16532C12.1286 6.16532 12.1989 6.20751 12.2493 6.28387C12.2828 6.3343 12.2973 6.40181 12.3031 6.47675H11.7249ZM12.5312 6.30577C12.5109 6.22841 12.4605 6.15025 12.4274 6.11449C12.3752 6.05783 12.3242 6.01825 12.2736 5.99615C12.2075 5.96762 12.1282 5.94873 12.0413 5.94873C11.9401 5.94873 11.8482 5.96581 11.7737 6.00117C11.699 6.03653 11.6363 6.08475 11.5871 6.14483C11.5378 6.2047 11.5008 6.27603 11.4773 6.357C11.4536 6.43757 11.4417 6.52537 11.4417 6.618C11.4417 6.71223 11.454 6.80004 11.4785 6.879C11.5032 6.95856 11.5426 7.02868 11.596 7.08675C11.6492 7.14522 11.7177 7.19103 11.7998 7.22297C11.8813 7.25471 11.9804 7.27119 12.0941 7.27099C12.3282 7.27019 12.4515 7.21754 12.5023 7.18922C12.5113 7.1842 12.5199 7.17535 12.5091 7.15004L12.4561 7.00035C12.4481 6.97805 12.4256 6.98629 12.4256 6.98629C12.3676 7.00799 12.2852 7.04697 12.0929 7.04656C11.9672 7.04636 11.874 7.00899 11.8156 6.95052C11.7556 6.89065 11.7263 6.80264 11.7211 6.67847L12.5318 6.67928C12.5318 6.67928 12.5531 6.67888 12.5554 6.65798C12.5561 6.64914 12.5832 6.49001 12.5312 6.30577Z" fill="white"/>
<path d="M5.23265 6.47675C5.2442 6.39899 5.26532 6.3343 5.29819 6.28387C5.3478 6.20732 5.42351 6.16532 5.5299 6.16532C5.63629 6.16532 5.70662 6.20751 5.75722 6.28387C5.79049 6.3343 5.80504 6.40181 5.81081 6.47675H5.23265ZM6.03876 6.30577C6.0184 6.22841 5.96818 6.15025 5.93516 6.11449C5.88295 6.05783 5.83194 6.01825 5.78133 5.99615C5.71518 5.96762 5.63589 5.94873 5.54902 5.94873C5.44801 5.94873 5.35597 5.96581 5.28146 6.00117C5.20675 6.03653 5.14399 6.08475 5.09478 6.14483C5.04557 6.2047 5.00851 6.27603 4.985 6.357C4.96149 6.43757 4.94934 6.52537 4.94934 6.618C4.94934 6.71223 4.96169 6.80004 4.9862 6.879C5.0109 6.95856 5.05035 7.02868 5.10374 7.08675C5.15694 7.14522 5.22547 7.19103 5.30756 7.22297C5.38904 7.25471 5.48806 7.27119 5.60182 7.27099C5.83594 7.27019 5.95925 7.21754 6.01006 7.18922C6.01899 7.1842 6.02756 7.17535 6.01683 7.15004L5.96404 7.00035C5.95587 6.97805 5.93335 6.98629 5.93335 6.98629C5.87537 7.00799 5.79309 7.04697 5.60043 7.04656C5.47491 7.04636 5.38167 7.00899 5.3233 6.95052C5.26333 6.89065 5.23404 6.80264 5.22886 6.67847L6.03952 6.67928C6.03952 6.67928 6.06087 6.67888 6.06303 6.65798C6.06385 6.64914 6.09091 6.49001 6.03876 6.30577Z" fill="white"/>
<path d="M3.48044 7.01244C3.44877 6.98692 3.44438 6.98049 3.43362 6.96401C3.41769 6.9389 3.40951 6.90314 3.40951 6.85772C3.40951 6.78579 3.43302 6.73416 3.48184 6.6994C3.48124 6.6996 3.55157 6.63812 3.71693 6.64033C3.83308 6.64194 3.93688 6.65922 3.93688 6.65922V7.03092C3.93688 7.03092 3.83408 7.05322 3.71813 7.06025C3.55316 7.0703 3.47985 7.01223 3.48044 7.01244ZM3.803 6.438C3.77013 6.43559 3.72749 6.43418 3.67648 6.43418C3.60696 6.43418 3.53981 6.44302 3.47685 6.4601C3.4135 6.47718 3.35652 6.5039 3.30751 6.53927C3.2583 6.57483 3.21865 6.62024 3.18997 6.67409C3.16128 6.72793 3.14673 6.79142 3.14673 6.86255C3.14673 6.93488 3.15908 6.99777 3.18379 7.0492C3.20849 7.10084 3.24415 7.14384 3.28958 7.17699C3.3346 7.21014 3.39019 7.23445 3.45474 7.24912C3.51829 7.26379 3.59042 7.27122 3.66931 7.27122C3.75239 7.27122 3.83527 7.26439 3.91556 7.25053C3.99505 7.23686 4.09268 7.21697 4.11978 7.21075C4.14667 7.20431 4.17656 7.19608 4.17656 7.19608C4.19668 7.19105 4.19508 7.16935 4.19508 7.16935L4.19469 6.42172C4.19469 6.25777 4.15125 6.13622 4.06578 6.06087C3.98071 5.98573 3.8554 5.94775 3.69342 5.94775C3.63266 5.94775 3.53483 5.95619 3.47626 5.96805C3.47626 5.96805 3.29914 6.0026 3.22623 6.06007C3.22623 6.06007 3.21028 6.07011 3.21905 6.09262L3.27643 6.24813C3.2836 6.26823 3.30293 6.26139 3.30293 6.26139C3.30293 6.26139 3.30911 6.25898 3.31627 6.25476C3.47228 6.16917 3.66951 6.17178 3.66951 6.17178C3.75718 6.17178 3.82452 6.18946 3.86994 6.22462C3.91417 6.25878 3.93668 6.31042 3.93668 6.41931V6.45387C3.86695 6.44383 3.803 6.438 3.803 6.438Z" fill="white"/>
<path d="M10.3414 6.01653C10.3476 5.99804 10.3346 5.9892 10.3292 5.98719C10.3155 5.98177 10.2466 5.9671 10.1934 5.96369C10.0916 5.95746 10.035 5.97473 9.98437 5.99764C9.93414 6.02055 9.87838 6.05751 9.84729 6.09951V6.00005C9.84729 5.98619 9.83755 5.97514 9.82401 5.97514H9.61617C9.60264 5.97514 9.5929 5.98619 9.5929 6.00005V7.21944C9.5929 7.23311 9.60404 7.24436 9.61757 7.24436H9.83055C9.84414 7.24436 9.8551 7.23311 9.8551 7.21944V6.61025C9.8551 6.52847 9.86403 6.4469 9.882 6.39567C9.8995 6.34503 9.92341 6.30445 9.95287 6.27531C9.98256 6.24638 10.0163 6.22609 10.0531 6.21464C10.0908 6.20298 10.1324 6.19917 10.1619 6.19917C10.2043 6.19917 10.251 6.21021 10.251 6.21021C10.2665 6.21202 10.2753 6.20238 10.2804 6.18812C10.2944 6.15074 10.3338 6.03883 10.3414 6.01653Z" fill="white"/>
<path d="M8.34223 5.45156C8.31633 5.44352 8.29282 5.4381 8.26214 5.43227C8.23105 5.42665 8.19401 5.42383 8.15195 5.42383C8.0053 5.42383 7.88974 5.46562 7.80866 5.548C7.72798 5.62998 7.67321 5.75475 7.64573 5.9189L7.63576 5.97416H7.45166C7.45166 5.97416 7.42931 5.97335 7.42453 5.99786L7.39449 6.16804C7.39227 6.18412 7.39927 6.19436 7.4208 6.19436H7.59988L7.41817 7.21746C7.40406 7.29983 7.38772 7.36754 7.36958 7.41898C7.35185 7.46961 7.33452 7.50758 7.313 7.53531C7.29229 7.56183 7.27275 7.58153 7.23886 7.59298C7.21097 7.60242 7.17871 7.60684 7.14342 7.60684C7.12394 7.60684 7.09781 7.60362 7.0785 7.59961C7.05936 7.59579 7.04921 7.59157 7.03469 7.58534C7.03469 7.58534 7.01375 7.5773 7.00535 7.5984C6.99881 7.61588 6.95098 7.74829 6.94521 7.76456C6.93961 7.78084 6.9476 7.7935 6.95775 7.79731C6.98166 7.80576 6.9994 7.81136 7.03189 7.81923C7.07692 7.82985 7.11496 7.83049 7.1506 7.83049C7.22515 7.83049 7.29328 7.81982 7.34963 7.79932C7.40621 7.77863 7.45562 7.74266 7.49949 7.69404C7.54668 7.6414 7.57637 7.58634 7.60466 7.511C7.63278 7.43666 7.65687 7.34424 7.67601 7.23654L7.85871 6.19436H8.12564C8.12564 6.19436 8.14816 6.19517 8.15276 6.17045L8.18304 6.00048C8.18502 5.9842 8.17826 5.97416 8.15656 5.97416H7.89732C7.89872 5.96833 7.91051 5.87631 7.94014 5.78971C7.95291 5.75294 7.97683 5.723 7.99696 5.70251C8.01685 5.68241 8.03977 5.66815 8.06491 5.65991C8.09058 5.65147 8.11986 5.64745 8.15195 5.64745C8.17627 5.64745 8.20036 5.65027 8.21851 5.65409C8.24359 5.65951 8.25333 5.66232 8.25992 5.66433C8.28641 5.67237 8.29002 5.66453 8.29521 5.65168L8.35716 5.48009C8.36352 5.4616 8.34777 5.45377 8.34223 5.45156Z" fill="white"/>
<path d="M4.72074 7.21971C4.72074 7.23337 4.71098 7.24442 4.69743 7.24442H4.48246C4.46892 7.24442 4.45935 7.23337 4.45935 7.21971V5.47491C4.45935 5.46124 4.46892 5.4502 4.48246 5.4502H4.69743C4.71098 5.4502 4.72074 5.46124 4.72074 5.47491V7.21971Z" fill="white"/>
</g>
<defs>
<clipPath id="clip0_4_3020">
<rect width="14" height="14" fill="white" transform="translate(0 0.219727)"/>
</clipPath>
</defs>
</svg>
