<svg width="14" height="15" viewBox="0 0 14 15" fill="none" xmlns="http://www.w3.org/2000/svg">
<g clip-path="url(#clip0_4_3020)">
<path d="M5.82721 3.30769C6.27827 2.83372 6.90623 2.53977 7.60074 2.53977C8.52398 2.53977 9.32951 3.05895 9.75843 3.82969C10.1312 3.66172 10.5438 3.56829 10.978 3.56829C12.6431 3.56829 13.9931 4.94158 13.9931 6.63555C13.9931 8.32973 12.6431 9.70301 10.978 9.70301C10.7747 9.70301 10.5761 9.68254 10.384 9.64334C10.0063 10.3229 9.28646 10.7819 8.46023 10.7819C8.11437 10.7819 7.78723 10.7014 7.49598 10.5581C7.11302 11.4665 6.22087 12.1034 5.1811 12.1034C4.09829 12.1034 3.17545 11.4125 2.82122 10.4434C2.66641 10.4766 2.50603 10.4938 2.34147 10.4938C1.05224 10.4938 0.00708008 9.42896 0.00708008 8.11512C0.00708008 7.2347 0.476667 6.46597 1.17437 6.05469C1.03073 5.72136 0.950836 5.35347 0.950836 4.9667C0.950836 3.45577 2.16714 2.23096 3.66735 2.23096C4.54815 2.23096 5.33093 2.65329 5.82721 3.30769Z" fill="#00A1E0"/>
<path d="M2.0327 7.35099C2.02393 7.37409 2.03589 7.37891 2.03868 7.38293C2.06498 7.40222 2.09168 7.41609 2.11857 7.43156C2.26122 7.5079 2.3959 7.53021 2.53675 7.53021C2.82365 7.53021 3.00176 7.3763 3.00176 7.12857V7.12374C3.00176 6.89469 2.80074 6.81151 2.61207 6.75144L2.58756 6.7434C2.44531 6.69678 2.32258 6.6566 2.32258 6.56217V6.55714C2.32258 6.47638 2.3943 6.4169 2.50548 6.4169C2.629 6.4169 2.77564 6.45829 2.87007 6.51093C2.87007 6.51093 2.89776 6.52902 2.90792 6.50189C2.9135 6.48742 2.96132 6.35763 2.9663 6.34356C2.97168 6.3283 2.96212 6.31704 2.95235 6.31102C2.84457 6.24492 2.69554 6.19971 2.54134 6.19971L2.51265 6.19991C2.25006 6.19991 2.06677 6.35984 2.06677 6.58909V6.59391C2.06677 6.83562 2.26899 6.91398 2.45846 6.96863L2.48894 6.97807C2.62701 7.02087 2.74595 7.05764 2.74595 7.15569V7.16051C2.74595 7.25012 2.66865 7.31683 2.54393 7.31683C2.49552 7.31683 2.34111 7.31582 2.17436 7.20953C2.15423 7.19768 2.14248 7.18904 2.12694 7.1796C2.11877 7.17438 2.09825 7.16533 2.08929 7.19266L2.0327 7.35099Z" fill="white"/>
<path d="M6.23268 7.35099C6.22387 7.37409 6.23583 7.37891 6.23863 7.38293C6.26494 7.40222 6.29165 7.41609 6.31854 7.43156C6.46117 7.5079 6.59586 7.53021 6.73674 7.53021C7.02362 7.53021 7.20171 7.3763 7.20171 7.12857V7.12374C7.20171 6.89469 7.00069 6.81151 6.81204 6.75144L6.78749 6.7434C6.64527 6.69678 6.52254 6.6566 6.52254 6.56217V6.55714C6.52254 6.47638 6.59429 6.4169 6.70541 6.4169C6.82896 6.4169 6.97561 6.45829 7.07005 6.51093C7.07005 6.51093 7.0977 6.52902 7.10785 6.50189C7.11345 6.48742 7.16129 6.35763 7.16624 6.34356C7.17161 6.3283 7.16204 6.31704 7.1523 6.31102C7.0445 6.24492 6.89552 6.19971 6.74129 6.19971L6.71259 6.19991C6.45003 6.19991 6.26674 6.35984 6.26674 6.58909V6.59391C6.26674 6.83562 6.46893 6.91398 6.65839 6.96863L6.6889 6.97807C6.82698 7.02087 6.94609 7.05764 6.94609 7.15569V7.16051C6.94609 7.25012 6.86863 7.31683 6.74391 7.31683C6.69549 7.31683 6.54109 7.31582 6.37431 7.20953C6.35419 7.19768 6.34223 7.18944 6.32712 7.1796C6.32193 7.17618 6.2976 7.16674 6.28926 7.19266L6.23268 7.35099Z" fill="white"/>
<path d="M9.10003 6.86536C9.10003 7.0054 9.07413 7.11571 9.02314 7.19367C8.97274 7.27082 8.89639 7.30839 8.79004 7.30839C8.68341 7.30839 8.60752 7.27102 8.55794 7.19367C8.50771 7.11591 8.48222 7.0054 8.48222 6.86536C8.48222 6.72552 8.50771 6.61541 8.55794 6.53826C8.60752 6.46191 8.68341 6.42474 8.79004 6.42474C8.89639 6.42474 8.97275 6.46191 9.02332 6.53826C9.07413 6.61541 9.10003 6.72552 9.10003 6.86536ZM9.33949 6.60577C9.31598 6.5256 9.27934 6.45488 9.23052 6.39601C9.18169 6.33694 9.11992 6.28952 9.04665 6.25496C8.9735 6.2206 8.88705 6.20312 8.79004 6.20312C8.6928 6.20312 8.60635 6.2206 8.5332 6.25496C8.45988 6.28952 8.39816 6.33694 8.3491 6.39601C8.30051 6.45508 8.26388 6.5258 8.24014 6.60577C8.21686 6.68554 8.20508 6.77274 8.20508 6.86536C8.20508 6.95799 8.21686 7.04538 8.24014 7.12495C8.26388 7.20492 8.30034 7.27564 8.34934 7.33471C8.39816 7.39378 8.46011 7.441 8.5332 7.47455C8.60653 7.50811 8.6928 7.52519 8.79004 7.52519C8.88705 7.52519 8.97333 7.50811 9.04665 7.47455C9.11974 7.441 9.18169 7.39378 9.23052 7.33471C9.27934 7.27584 9.31598 7.20512 9.33949 7.12495C9.363 7.04518 9.37478 6.95778 9.37478 6.86536C9.37478 6.77294 9.363 6.68554 9.33949 6.60577Z" fill="white"/>
<path d="M11.306 7.27125C11.298 7.24774 11.2755 7.25658 11.2755 7.25658C11.2406 7.27005 11.2036 7.2825 11.1642 7.28873C11.1241 7.29496 11.0801 7.29817 11.0329 7.29817C10.9169 7.29817 10.8248 7.26341 10.7589 7.1947C10.6928 7.12599 10.6557 7.01487 10.6561 6.86458C10.6565 6.72776 10.6892 6.62488 10.748 6.54653C10.8064 6.46857 10.8952 6.42859 11.0137 6.42859C11.1125 6.42859 11.1879 6.44004 11.2668 6.46516C11.2668 6.46516 11.2857 6.47339 11.2947 6.44848C11.3155 6.38981 11.3311 6.34781 11.3534 6.28332C11.3598 6.26504 11.3442 6.2572 11.3387 6.25499C11.3076 6.24273 11.2343 6.22285 11.1789 6.2144C11.1271 6.20637 11.0665 6.20215 10.9992 6.20215C10.8986 6.20215 10.8089 6.21943 10.7322 6.25398C10.6557 6.28834 10.5908 6.33576 10.5394 6.39483C10.488 6.4539 10.4489 6.52463 10.4228 6.60459C10.3969 6.68436 10.3838 6.77196 10.3838 6.86458C10.3838 7.0649 10.4373 7.22684 10.5432 7.34539C10.6491 7.46434 10.8083 7.52481 11.0159 7.52481C11.1386 7.52481 11.2646 7.4997 11.355 7.46373C11.355 7.46373 11.3724 7.45529 11.3648 7.435L11.306 7.27125Z" fill="white"/>
<path d="M11.7249 6.73115C11.7363 6.65339 11.7576 6.58869 11.7905 6.53826C11.8401 6.46171 11.9158 6.41972 12.0222 6.41972C12.1286 6.41972 12.1989 6.46191 12.2493 6.53826C12.2828 6.58869 12.2973 6.6562 12.3031 6.73115H11.7249ZM12.5312 6.56016C12.5109 6.4828 12.4605 6.40465 12.4274 6.36889C12.3752 6.31223 12.3242 6.27264 12.2736 6.25054C12.2075 6.22201 12.1282 6.20312 12.0413 6.20312C11.9401 6.20312 11.8482 6.22021 11.7737 6.25557C11.699 6.29093 11.6363 6.33915 11.5871 6.39922C11.5378 6.4591 11.5008 6.53043 11.4773 6.61139C11.4536 6.69196 11.4417 6.77977 11.4417 6.8724C11.4417 6.96663 11.454 7.05443 11.4785 7.13339C11.5032 7.21296 11.5426 7.28307 11.596 7.34114C11.6492 7.39961 11.7177 7.44542 11.7998 7.47736C11.8813 7.50911 11.9804 7.52559 12.0941 7.52538C12.3282 7.52459 12.4515 7.47194 12.5023 7.44361C12.5113 7.43859 12.5199 7.42975 12.5091 7.40443L12.4561 7.25475C12.4481 7.23245 12.4256 7.24068 12.4256 7.24068C12.3676 7.26238 12.2852 7.30136 12.0929 7.30096C11.9672 7.30075 11.874 7.26339 11.8156 7.20492C11.7556 7.14505 11.7263 7.05704 11.7211 6.93287L12.5318 6.93367C12.5318 6.93367 12.5531 6.93327 12.5554 6.91238C12.5561 6.90353 12.5832 6.74441 12.5312 6.56016Z" fill="white"/>
<path d="M5.23277 6.73115C5.24433 6.65339 5.26544 6.58869 5.29831 6.53826C5.34793 6.46171 5.42363 6.41972 5.53002 6.41972C5.63641 6.41972 5.70674 6.46191 5.75734 6.53826C5.79061 6.58869 5.80516 6.6562 5.81094 6.73115H5.23277ZM6.03888 6.56016C6.01853 6.4828 5.9683 6.40465 5.93528 6.36889C5.88308 6.31223 5.83206 6.27264 5.78145 6.25054C5.7153 6.22201 5.63601 6.20312 5.54915 6.20312C5.44814 6.20312 5.35609 6.22021 5.28158 6.25557C5.20687 6.29093 5.14411 6.33915 5.0949 6.39922C5.04569 6.4591 5.00864 6.53043 4.98512 6.61139C4.96161 6.69196 4.94946 6.77977 4.94946 6.8724C4.94946 6.96663 4.96181 7.05443 4.98632 7.13339C5.01102 7.21296 5.05047 7.28307 5.10387 7.34114C5.15706 7.39961 5.2256 7.44542 5.30768 7.47736C5.38916 7.50911 5.48818 7.52559 5.60194 7.52538C5.83606 7.52459 5.95938 7.47194 6.01018 7.44361C6.01911 7.43859 6.02768 7.42975 6.01695 7.40443L5.96416 7.25475C5.95599 7.23245 5.93348 7.24068 5.93348 7.24068C5.87549 7.26238 5.79321 7.30136 5.60055 7.30096C5.47503 7.30075 5.38179 7.26339 5.32342 7.20492C5.26345 7.14505 5.23416 7.05704 5.22898 6.93287L6.03964 6.93367C6.03964 6.93367 6.06099 6.93327 6.06315 6.91238C6.06397 6.90353 6.09103 6.74441 6.03888 6.56016Z" fill="white"/>
<path d="M3.48044 7.26683C3.44877 7.24131 3.44438 7.23488 3.43362 7.21841C3.41769 7.19329 3.40951 7.15753 3.40951 7.11212C3.40951 7.04019 3.43302 6.98855 3.48184 6.9538C3.48124 6.954 3.55157 6.89251 3.71693 6.89472C3.83308 6.89633 3.93688 6.91361 3.93688 6.91361V7.28532C3.93688 7.28532 3.83408 7.30762 3.71813 7.31465C3.55316 7.3247 3.47985 7.26663 3.48044 7.26683ZM3.803 6.69239C3.77013 6.68998 3.72749 6.68858 3.67648 6.68858C3.60696 6.68858 3.53981 6.69742 3.47685 6.7145C3.4135 6.73158 3.35652 6.7583 3.30751 6.79366C3.2583 6.82923 3.21865 6.87463 3.18997 6.92848C3.16128 6.98233 3.14673 7.04582 3.14673 7.11694C3.14673 7.18928 3.15908 7.25216 3.18379 7.3036C3.20849 7.35523 3.24415 7.39823 3.28958 7.43138C3.3346 7.46453 3.39019 7.48885 3.45474 7.50351C3.51829 7.51818 3.59042 7.52561 3.66931 7.52561C3.75239 7.52561 3.83527 7.51878 3.91556 7.50492C3.99505 7.49126 4.09268 7.47136 4.11978 7.46514C4.14667 7.45871 4.17656 7.45047 4.17656 7.45047C4.19668 7.44545 4.19508 7.42375 4.19508 7.42375L4.19469 6.67612C4.19469 6.51217 4.15125 6.39061 4.06578 6.31527C3.98071 6.24012 3.8554 6.20215 3.69342 6.20215C3.63266 6.20215 3.53483 6.21059 3.47626 6.22244C3.47626 6.22244 3.29914 6.257 3.22623 6.31446C3.22623 6.31446 3.21028 6.32451 3.21905 6.34701L3.27643 6.50252C3.2836 6.52262 3.30293 6.51578 3.30293 6.51578C3.30293 6.51578 3.30911 6.51337 3.31627 6.50916C3.47228 6.42356 3.66951 6.42618 3.66951 6.42618C3.75718 6.42618 3.82452 6.44386 3.86994 6.47902C3.91417 6.51318 3.93668 6.56481 3.93668 6.67371V6.70827C3.86695 6.69822 3.803 6.69239 3.803 6.69239Z" fill="white"/>
<path d="M10.3412 6.27092C10.3474 6.25244 10.3345 6.2436 10.3291 6.24159C10.3153 6.23616 10.2465 6.2215 10.1933 6.21808C10.0915 6.21185 10.0349 6.22913 9.98425 6.25204C9.93402 6.27494 9.87826 6.31191 9.84717 6.3539V6.25445C9.84717 6.24059 9.83742 6.22953 9.82389 6.22953H9.61605C9.60252 6.22953 9.59277 6.24059 9.59277 6.25445V7.47384C9.59277 7.4875 9.60391 7.49875 9.61745 7.49875H9.83042C9.84402 7.49875 9.85498 7.4875 9.85498 7.47384V6.86465C9.85498 6.78287 9.86391 6.7013 9.88187 6.65006C9.89937 6.59943 9.92329 6.55885 9.95275 6.52971C9.98244 6.50078 10.0162 6.48049 10.053 6.46903C10.0906 6.45738 10.1323 6.45356 10.1618 6.45356C10.2042 6.45356 10.2508 6.46461 10.2508 6.46461C10.2663 6.46642 10.2752 6.45677 10.2803 6.44251C10.2942 6.40514 10.3337 6.29323 10.3412 6.27092Z" fill="white"/>
<path d="M8.34223 5.70595C8.31633 5.69792 8.29282 5.69249 8.26214 5.68666C8.23105 5.68104 8.19401 5.67822 8.15195 5.67822C8.0053 5.67822 7.88974 5.72002 7.80866 5.8024C7.72798 5.88437 7.67321 6.00914 7.64573 6.1733L7.63576 6.22855H7.45166C7.45166 6.22855 7.42931 6.22775 7.42453 6.25226L7.39449 6.42244C7.39227 6.43851 7.39927 6.44876 7.4208 6.44876H7.59988L7.41817 7.47185C7.40406 7.55423 7.38772 7.62194 7.36958 7.67337C7.35185 7.72401 7.33452 7.76198 7.313 7.78971C7.29229 7.81623 7.27275 7.83592 7.23886 7.84737C7.21097 7.85682 7.17871 7.86124 7.14342 7.86124C7.12394 7.86124 7.09781 7.85802 7.0785 7.854C7.05936 7.85018 7.04921 7.84597 7.03469 7.83974C7.03469 7.83974 7.01375 7.8317 7.00535 7.8528C6.99881 7.87028 6.95098 8.00268 6.94521 8.01896C6.93961 8.03523 6.9476 8.04789 6.95775 8.05171C6.98166 8.06015 6.9994 8.06575 7.03189 8.07363C7.07692 8.08425 7.11496 8.08489 7.1506 8.08489C7.22515 8.08489 7.29328 8.07421 7.34963 8.05372C7.40621 8.03302 7.45562 7.99705 7.49949 7.94843C7.54668 7.89579 7.57637 7.84074 7.60466 7.76539C7.63278 7.69105 7.65687 7.59863 7.67601 7.49094L7.85871 6.44876H8.12564C8.12564 6.44876 8.14816 6.44956 8.15276 6.42485L8.18304 6.25487C8.18502 6.2386 8.17826 6.22855 8.15656 6.22855H7.89732C7.89872 6.22272 7.91051 6.1307 7.94014 6.0441C7.95291 6.00733 7.97683 5.9774 7.99696 5.9569C8.01685 5.93681 8.03977 5.92255 8.06491 5.91431C8.09058 5.90587 8.11986 5.90185 8.15195 5.90185C8.17627 5.90185 8.20036 5.90466 8.21851 5.90848C8.24359 5.91391 8.25333 5.91672 8.25992 5.91873C8.28641 5.92676 8.29002 5.91893 8.29521 5.90607L8.35716 5.73449C8.36352 5.716 8.34777 5.70816 8.34223 5.70595Z" fill="white"/>
<path d="M4.72062 7.4741C4.72062 7.48776 4.71086 7.49881 4.69731 7.49881H4.48234C4.4688 7.49881 4.45923 7.48776 4.45923 7.4741V5.7293C4.45923 5.71564 4.4688 5.70459 4.48234 5.70459H4.69731C4.71086 5.70459 4.72062 5.71564 4.72062 5.7293V7.4741Z" fill="white"/>
</g>
<defs>
<clipPath id="clip0_4_3020">
<rect width="14" height="14" fill="white" transform="translate(0 0.474121)"/>
</clipPath>
</defs>
</svg>
