<svg width="24" height="25" viewBox="0 0 24 25" fill="none" xmlns="http://www.w3.org/2000/svg">
<g clip-path="url(#clip0_49_788)">
<mask id="mask0_49_788" style="mask-type:luminance" maskUnits="userSpaceOnUse" x="0" y="1" width="24" height="24">
<path d="M23.0849 1.26367H0.0449219V24.3037H23.0849V1.26367Z" fill="white"/>
</mask>
<g mask="url(#mask0_49_788)">
<path fill-rule="evenodd" clip-rule="evenodd" d="M0.0449219 5.10355C0.0449219 4.57337 0.474728 4.14355 1.00493 4.14355H5.80493C6.33512 4.14355 6.76493 4.57337 6.76493 5.10355V20.4635C6.76493 20.9937 6.33512 21.4235 5.80493 21.4235H1.00492C0.474728 21.4235 0.0449219 20.9937 0.0449219 20.4635V5.10355ZM16.3649 5.10355C16.3649 4.57337 16.7947 4.14355 17.3249 4.14355H22.1249C22.6552 4.14355 23.0849 4.57337 23.0849 5.10355V16.6235C23.0849 17.1537 22.6552 17.5835 22.1249 17.5835H17.3249C16.7947 17.5835 16.3649 17.1537 16.3649 16.6235V5.10355ZM9.64495 4.14355C9.11473 4.14355 8.68493 4.57337 8.68493 5.10355V12.7835C8.68493 13.3137 9.11473 13.7435 9.64495 13.7435H13.4849C14.0152 13.7435 14.4449 13.3137 14.4449 12.7835V5.10355C14.4449 4.57337 14.0152 4.14355 13.4849 4.14355H9.64495Z" fill="white"/>
</g>
</g>
<defs>
<clipPath id="clip0_49_788">
<rect width="24" height="24" fill="white" transform="translate(0 0.78418)"/>
</clipPath>
</defs>
</svg>
