<svg width="14" height="15" viewBox="0 0 14 15" fill="none" xmlns="http://www.w3.org/2000/svg">
<g clip-path="url(#clip0_101_2161)">
<mask id="mask0_101_2161" style="mask-type:luminance" maskUnits="userSpaceOnUse" x="0" y="2" width="14" height="10">
<path d="M13.9463 2.89111H0V11.2227H13.9463V2.89111Z" fill="white"/>
</mask>
<g mask="url(#mask0_101_2161)">
<path d="M1.29612 2.89111H12.6493C13.363 2.89111 13.9458 3.47607 13.9458 4.1977V8.54389C13.9458 9.26551 13.363 9.85047 12.6438 9.85047H8.57437L9.13544 11.2227L6.67852 9.85047H1.30156C0.582461 9.85047 -0.000450404 9.26551 -0.000450404 8.54389V4.1977C-0.00589818 3.48154 0.577013 2.89111 1.29612 2.89111Z" fill="#9B5C8F"/>
<path d="M0.795801 4.07737C0.877519 3.96803 0.991924 3.91336 1.15535 3.90243C1.44408 3.88056 1.60752 4.01724 1.6511 4.31245C1.82543 5.49876 2.02155 6.51014 2.22312 7.33564L3.46521 4.96301C3.57961 4.74433 3.72126 4.63499 3.89014 4.62406C4.14073 4.60766 4.29327 4.76619 4.35319 5.09968C4.48939 5.85411 4.67462 6.4992 4.88708 7.0459C5.03417 5.60264 5.28477 4.55846 5.63342 3.91883C5.72059 3.76029 5.84589 3.67829 6.00932 3.66735C6.14006 3.65641 6.25992 3.69468 6.36887 3.78216C6.47782 3.86963 6.5323 3.9735 6.5432 4.1047C6.54865 4.20857 6.5323 4.29058 6.48872 4.37805C6.26536 4.78807 6.08558 5.47689 5.93849 6.4336C5.79686 7.36297 5.74782 8.08461 5.78051 8.5985C5.7914 8.74063 5.76961 8.86637 5.71514 8.97571C5.64977 9.10145 5.54626 9.16705 5.41551 9.17798C5.26842 9.18892 5.11589 9.12331 4.9688 8.96478C4.44036 8.42355 4.02088 7.61445 3.71581 6.54294C3.34536 7.27004 3.07297 7.81673 2.89864 8.18301C2.56633 8.8281 2.28304 9.15612 2.04334 9.17251C1.89081 9.18345 1.76005 9.05224 1.64565 8.7789C1.35692 8.0354 1.0464 6.59214 0.708637 4.46006C0.681398 4.31245 0.714085 4.18124 0.795801 4.07737ZM12.977 4.97394C12.7754 4.61312 12.4704 4.39991 12.0673 4.31245C11.9583 4.29058 11.8548 4.27964 11.7622 4.27964C11.2174 4.27964 10.7761 4.56392 10.4275 5.13248C10.1333 5.61356 9.98622 6.14932 9.98622 6.73428C9.98622 7.17163 10.0788 7.54885 10.2586 7.86046C10.4602 8.22128 10.7652 8.43448 11.1684 8.52196C11.2773 8.54382 11.3808 8.55476 11.4734 8.55476C12.0236 8.55476 12.465 8.27048 12.8081 7.70192C13.1023 7.21537 13.2494 6.67962 13.2494 6.08919C13.2549 5.65183 13.1568 5.28008 12.977 4.97394ZM12.2634 6.5484C12.1817 6.92562 12.04 7.20443 11.833 7.3903C11.6696 7.53791 11.517 7.60352 11.3753 7.57071C11.2392 7.54338 11.1247 7.42311 11.0431 7.19897C10.9777 7.02402 10.9395 6.84362 10.9395 6.67962C10.9395 6.53747 10.9505 6.39533 10.9777 6.26413C11.0267 6.02905 11.1247 5.80491 11.2773 5.58623C11.4626 5.30742 11.6641 5.19262 11.8657 5.23089C12.0019 5.25822 12.1163 5.37849 12.198 5.60264C12.2634 5.77757 12.3015 5.95798 12.3015 6.12199C12.3015 6.27506 12.2906 6.4172 12.2634 6.5484ZM9.4305 4.97394C9.22898 4.61312 8.91843 4.39991 8.52074 4.31245C8.41179 4.29058 8.30827 4.27964 8.21567 4.27964C7.67089 4.27964 7.22962 4.56392 6.88096 5.13248C6.58678 5.61356 6.43969 6.14932 6.43969 6.73428C6.43969 7.17163 6.5323 7.54885 6.71208 7.86046C6.91364 8.22128 7.21872 8.43448 7.62185 8.52196C7.73082 8.54382 7.83432 8.55476 7.92693 8.55476C8.47718 8.55476 8.91843 8.27048 9.26167 7.70192C9.55584 7.21537 9.70292 6.67962 9.70292 6.08919C9.70292 5.65183 9.61027 5.28008 9.4305 4.97394ZM8.71139 6.5484C8.6297 6.92562 8.48805 7.20443 8.28102 7.3903C8.1176 7.53791 7.96507 7.60352 7.82343 7.57071C7.68723 7.54338 7.57283 7.42311 7.49111 7.19897C7.42574 7.02402 7.3876 6.84362 7.3876 6.67962C7.3876 6.53747 7.3985 6.39533 7.42574 6.26413C7.47477 6.02905 7.57283 5.80491 7.72536 5.58623C7.91059 5.30742 8.11216 5.19262 8.31371 5.23089C8.44992 5.25822 8.56431 5.37849 8.646 5.60264C8.71139 5.77757 8.74952 5.95798 8.74952 6.12199C8.75496 6.27506 8.73865 6.4172 8.71139 6.5484Z" fill="white"/>
</g>
</g>
<defs>
<clipPath id="clip0_101_2161">
<rect width="14" height="14" fill="white" transform="translate(0 0.0571289)"/>
</clipPath>
</defs>
</svg>
