<svg width="14" height="15" viewBox="0 0 14 15" fill="none" xmlns="http://www.w3.org/2000/svg">
<g clip-path="url(#clip0_4_3020)">
<path d="M5.82721 3.24128C6.27827 2.76731 6.90623 2.47337 7.60074 2.47337C8.52398 2.47337 9.32951 2.99255 9.75843 3.76328C10.1312 3.59531 10.5438 3.50188 10.978 3.50188C12.6431 3.50188 13.9931 4.87518 13.9931 6.56914C13.9931 8.26332 12.6431 9.63661 10.978 9.63661C10.7747 9.63661 10.5761 9.61613 10.384 9.57693C10.0063 10.2565 9.28646 10.7155 8.46023 10.7155C8.11437 10.7155 7.78723 10.635 7.49598 10.4917C7.11302 11.4001 6.22087 12.037 5.1811 12.037C4.09829 12.037 3.17545 11.3461 2.82122 10.377C2.66641 10.4102 2.50603 10.4274 2.34147 10.4274C1.05224 10.4274 0.00708008 9.36256 0.00708008 8.04872C0.00708008 7.16829 0.476667 6.39957 1.17437 5.98828C1.03073 5.65495 0.950836 5.28706 0.950836 4.90029C0.950836 3.38936 2.16714 2.16455 3.66735 2.16455C4.54815 2.16455 5.33093 2.58689 5.82721 3.24128Z" fill="#00A1E0"/>
<path d="M2.0327 7.28458C2.02393 7.30769 2.03589 7.3125 2.03868 7.31652C2.06498 7.33581 2.09168 7.34968 2.11857 7.36515C2.26122 7.4415 2.3959 7.4638 2.53675 7.4638C2.82365 7.4638 3.00176 7.3099 3.00176 7.06216V7.05734C3.00176 6.82828 2.80074 6.74511 2.61207 6.68503L2.58756 6.67699C2.44531 6.63038 2.32258 6.5902 2.32258 6.49576V6.49074C2.32258 6.40997 2.3943 6.35049 2.50548 6.35049C2.629 6.35049 2.77564 6.39189 2.87007 6.44453C2.87007 6.44453 2.89776 6.46261 2.90792 6.43549C2.9135 6.42102 2.96132 6.29123 2.9663 6.27716C2.97168 6.26189 2.96212 6.25064 2.95235 6.24461C2.84457 6.17851 2.69554 6.1333 2.54134 6.1333L2.51265 6.1335C2.25006 6.1335 2.06677 6.29343 2.06677 6.52269V6.52751C2.06677 6.76922 2.26899 6.84757 2.45846 6.90223L2.48894 6.91167C2.62701 6.95446 2.74595 6.99123 2.74595 7.08929V7.0941C2.74595 7.18371 2.66865 7.25042 2.54393 7.25042C2.49552 7.25042 2.34111 7.24942 2.17436 7.14313C2.15423 7.13127 2.14248 7.12263 2.12694 7.11319C2.11877 7.10797 2.09825 7.09893 2.08929 7.12625L2.0327 7.28458Z" fill="white"/>
<path d="M6.23268 7.28458C6.22387 7.30769 6.23583 7.3125 6.23863 7.31652C6.26494 7.33581 6.29165 7.34968 6.31854 7.36515C6.46117 7.4415 6.59586 7.4638 6.73674 7.4638C7.02362 7.4638 7.20171 7.3099 7.20171 7.06216V7.05734C7.20171 6.82828 7.00069 6.74511 6.81204 6.68503L6.78749 6.67699C6.64527 6.63038 6.52254 6.5902 6.52254 6.49576V6.49074C6.52254 6.40997 6.59429 6.35049 6.70541 6.35049C6.82896 6.35049 6.97561 6.39189 7.07005 6.44453C7.07005 6.44453 7.0977 6.46261 7.10785 6.43549C7.11345 6.42102 7.16129 6.29123 7.16624 6.27716C7.17161 6.26189 7.16204 6.25064 7.1523 6.24461C7.0445 6.17851 6.89552 6.1333 6.74129 6.1333L6.71259 6.1335C6.45003 6.1335 6.26674 6.29343 6.26674 6.52269V6.52751C6.26674 6.76922 6.46893 6.84757 6.65839 6.90223L6.6889 6.91167C6.82698 6.95446 6.94609 6.99123 6.94609 7.08929V7.0941C6.94609 7.18371 6.86863 7.25042 6.74391 7.25042C6.69549 7.25042 6.54109 7.24942 6.37431 7.14313C6.35419 7.13127 6.34223 7.12304 6.32712 7.11319C6.32193 7.10978 6.2976 7.10033 6.28926 7.12625L6.23268 7.28458Z" fill="white"/>
<path d="M9.10003 6.79895C9.10003 6.93899 9.07413 7.0493 9.02314 7.12726C8.97274 7.20441 8.89639 7.24198 8.79004 7.24198C8.68341 7.24198 8.60752 7.20462 8.55794 7.12726C8.50771 7.0495 8.48222 6.93899 8.48222 6.79895C8.48222 6.65911 8.50771 6.54901 8.55794 6.47186C8.60752 6.3955 8.68341 6.35833 8.79004 6.35833C8.89639 6.35833 8.97275 6.3955 9.02332 6.47186C9.07413 6.54901 9.10003 6.65911 9.10003 6.79895ZM9.33949 6.53936C9.31598 6.4592 9.27934 6.38847 9.23052 6.3296C9.18169 6.27053 9.11992 6.22312 9.04665 6.18855C8.9735 6.1542 8.88705 6.13672 8.79004 6.13672C8.6928 6.13672 8.60635 6.1542 8.5332 6.18855C8.45988 6.22312 8.39816 6.27053 8.3491 6.3296C8.30051 6.38867 8.26388 6.4594 8.24014 6.53936C8.21686 6.61913 8.20508 6.70633 8.20508 6.79895C8.20508 6.89158 8.21686 6.97898 8.24014 7.05854C8.26388 7.13851 8.30034 7.20924 8.34934 7.2683C8.39816 7.32738 8.46011 7.37459 8.5332 7.40815C8.60653 7.4417 8.6928 7.45878 8.79004 7.45878C8.88705 7.45878 8.97333 7.4417 9.04665 7.40815C9.11974 7.37459 9.18169 7.32738 9.23052 7.2683C9.27934 7.20943 9.31598 7.13871 9.33949 7.05854C9.363 6.97878 9.37478 6.89138 9.37478 6.79895C9.37478 6.70653 9.363 6.61913 9.33949 6.53936Z" fill="white"/>
<path d="M11.306 7.20484C11.298 7.18133 11.2755 7.19018 11.2755 7.19018C11.2406 7.20364 11.2036 7.21609 11.1642 7.22232C11.1241 7.22855 11.0801 7.23177 11.0329 7.23177C10.9169 7.23177 10.8248 7.19701 10.7589 7.12829C10.6928 7.05958 10.6557 6.94847 10.6561 6.79818C10.6565 6.66135 10.6892 6.55848 10.748 6.48012C10.8064 6.40216 10.8952 6.36218 11.0137 6.36218C11.1125 6.36218 11.1879 6.37363 11.2668 6.39875C11.2668 6.39875 11.2857 6.40699 11.2947 6.38207C11.3155 6.3234 11.3311 6.28141 11.3534 6.21691C11.3598 6.19863 11.3442 6.19079 11.3387 6.18859C11.3076 6.17632 11.2343 6.15644 11.1789 6.148C11.1271 6.13996 11.0665 6.13574 10.9992 6.13574C10.8986 6.13574 10.8089 6.15302 10.7322 6.18758C10.6557 6.22194 10.5908 6.26935 10.5394 6.32842C10.488 6.3875 10.4489 6.45822 10.4228 6.53818C10.3969 6.61795 10.3838 6.70555 10.3838 6.79818C10.3838 6.9985 10.4373 7.16044 10.5432 7.27898C10.6491 7.39793 10.8083 7.4584 11.0159 7.4584C11.1386 7.4584 11.2646 7.43329 11.355 7.39732C11.355 7.39732 11.3724 7.38889 11.3648 7.36859L11.306 7.20484Z" fill="white"/>
<path d="M11.7249 6.66474C11.7363 6.58698 11.7576 6.52228 11.7905 6.47186C11.8401 6.3953 11.9158 6.35331 12.0222 6.35331C12.1286 6.35331 12.1989 6.3955 12.2493 6.47186C12.2828 6.52228 12.2973 6.58979 12.3031 6.66474H11.7249ZM12.5312 6.49375C12.5109 6.4164 12.4605 6.33824 12.4274 6.30248C12.3752 6.24582 12.3242 6.20623 12.2736 6.18414C12.2075 6.15561 12.1282 6.13672 12.0413 6.13672C11.9401 6.13672 11.8482 6.1538 11.7737 6.18916C11.699 6.22452 11.6363 6.27274 11.5871 6.33282C11.5378 6.39269 11.5008 6.46402 11.4773 6.54499C11.4536 6.62556 11.4417 6.71336 11.4417 6.80599C11.4417 6.90022 11.454 6.98802 11.4785 7.06698C11.5032 7.14655 11.5426 7.21667 11.596 7.27474C11.6492 7.33321 11.7177 7.37901 11.7998 7.41096C11.8813 7.4427 11.9804 7.45918 12.0941 7.45898C12.3282 7.45818 12.4515 7.40553 12.5023 7.37721C12.5113 7.37218 12.5199 7.36334 12.5091 7.33802L12.4561 7.18834C12.4481 7.16604 12.4256 7.17428 12.4256 7.17428C12.3676 7.19598 12.2852 7.23495 12.0929 7.23455C11.9672 7.23435 11.874 7.19698 11.8156 7.13851C11.7556 7.07864 11.7263 6.99063 11.7211 6.86646L12.5318 6.86727C12.5318 6.86727 12.5531 6.86687 12.5554 6.84597C12.5561 6.83713 12.5832 6.678 12.5312 6.49375Z" fill="white"/>
<path d="M5.23277 6.66474C5.24433 6.58698 5.26544 6.52228 5.29831 6.47186C5.34793 6.3953 5.42363 6.35331 5.53002 6.35331C5.63641 6.35331 5.70674 6.3955 5.75734 6.47186C5.79061 6.52228 5.80516 6.58979 5.81094 6.66474H5.23277ZM6.03888 6.49375C6.01853 6.4164 5.9683 6.33824 5.93528 6.30248C5.88308 6.24582 5.83206 6.20623 5.78145 6.18414C5.7153 6.15561 5.63601 6.13672 5.54915 6.13672C5.44814 6.13672 5.35609 6.1538 5.28158 6.18916C5.20687 6.22452 5.14411 6.27274 5.0949 6.33282C5.04569 6.39269 5.00864 6.46402 4.98512 6.54499C4.96161 6.62556 4.94946 6.71336 4.94946 6.80599C4.94946 6.90022 4.96181 6.98802 4.98632 7.06698C5.01102 7.14655 5.05047 7.21667 5.10387 7.27474C5.15706 7.33321 5.2256 7.37901 5.30768 7.41096C5.38916 7.4427 5.48818 7.45918 5.60194 7.45898C5.83606 7.45818 5.95938 7.40553 6.01018 7.37721C6.01911 7.37218 6.02768 7.36334 6.01695 7.33802L5.96416 7.18834C5.95599 7.16604 5.93348 7.17428 5.93348 7.17428C5.87549 7.19598 5.79321 7.23495 5.60055 7.23455C5.47503 7.23435 5.38179 7.19698 5.32342 7.13851C5.26345 7.07864 5.23416 6.99063 5.22898 6.86646L6.03964 6.86727C6.03964 6.86727 6.06099 6.86687 6.06315 6.84597C6.06397 6.83713 6.09103 6.678 6.03888 6.49375Z" fill="white"/>
<path d="M3.48044 7.20042C3.44877 7.1749 3.44438 7.16848 3.43362 7.152C3.41769 7.12688 3.40951 7.09113 3.40951 7.04571C3.40951 6.97378 3.43302 6.92215 3.48184 6.88739C3.48124 6.88759 3.55157 6.82611 3.71693 6.82832C3.83308 6.82993 3.93688 6.8472 3.93688 6.8472V7.21891C3.93688 7.21891 3.83408 7.24121 3.71813 7.24824C3.55316 7.25829 3.47985 7.20022 3.48044 7.20042ZM3.803 6.62599C3.77013 6.62358 3.72749 6.62217 3.67648 6.62217C3.60696 6.62217 3.53981 6.63101 3.47685 6.64809C3.4135 6.66517 3.35652 6.69189 3.30751 6.72725C3.2583 6.76282 3.21865 6.80823 3.18997 6.86207C3.16128 6.91592 3.14673 6.97941 3.14673 7.05054C3.14673 7.12287 3.15908 7.18575 3.18379 7.23719C3.20849 7.28883 3.24415 7.33183 3.28958 7.36498C3.3346 7.39813 3.39019 7.42244 3.45474 7.43711C3.51829 7.45178 3.59042 7.45921 3.66931 7.45921C3.75239 7.45921 3.83527 7.45238 3.91556 7.43852C3.99505 7.42485 4.09268 7.40496 4.11978 7.39873C4.14667 7.3923 4.17656 7.38406 4.17656 7.38406C4.19668 7.37904 4.19508 7.35734 4.19508 7.35734L4.19469 6.60971C4.19469 6.44576 4.15125 6.32421 4.06578 6.24886C3.98071 6.17372 3.8554 6.13574 3.69342 6.13574C3.63266 6.13574 3.53483 6.14418 3.47626 6.15604C3.47626 6.15604 3.29914 6.19059 3.22623 6.24806C3.22623 6.24806 3.21028 6.2581 3.21905 6.28061L3.27643 6.43612C3.2836 6.45621 3.30293 6.44938 3.30293 6.44938C3.30293 6.44938 3.30911 6.44697 3.31627 6.44275C3.47228 6.35716 3.66951 6.35977 3.66951 6.35977C3.75718 6.35977 3.82452 6.37745 3.86994 6.41261C3.91417 6.44677 3.93668 6.49841 3.93668 6.6073V6.64186C3.86695 6.63181 3.803 6.62599 3.803 6.62599Z" fill="white"/>
<path d="M10.3412 6.20452C10.3474 6.18603 10.3345 6.17719 10.3291 6.17518C10.3153 6.16976 10.2465 6.15509 10.1933 6.15167C10.0915 6.14544 10.0349 6.16272 9.98425 6.18563C9.93402 6.20854 9.87826 6.2455 9.84717 6.2875V6.18804C9.84717 6.17418 9.83742 6.16312 9.82389 6.16312H9.61605C9.60252 6.16312 9.59277 6.17418 9.59277 6.18804V7.40743C9.59277 7.42109 9.60391 7.43235 9.61745 7.43235H9.83042C9.84402 7.43235 9.85498 7.42109 9.85498 7.40743V6.79824C9.85498 6.71646 9.86391 6.63489 9.88187 6.58366C9.89937 6.53302 9.92329 6.49244 9.95275 6.4633C9.98244 6.43437 10.0162 6.41408 10.053 6.40262C10.0906 6.39097 10.1323 6.38715 10.1618 6.38715C10.2042 6.38715 10.2508 6.3982 10.2508 6.3982C10.2663 6.40001 10.2752 6.39037 10.2803 6.37611C10.2942 6.33873 10.3337 6.22682 10.3412 6.20452Z" fill="white"/>
<path d="M8.34223 5.63955C8.31633 5.63151 8.29282 5.62608 8.26214 5.62026C8.23105 5.61463 8.19401 5.61182 8.15195 5.61182C8.0053 5.61182 7.88974 5.65361 7.80866 5.73599C7.72798 5.81797 7.67321 5.94274 7.64573 6.10689L7.63576 6.16214H7.45166C7.45166 6.16214 7.42931 6.16134 7.42453 6.18585L7.39449 6.35603C7.39227 6.3721 7.39927 6.38235 7.4208 6.38235H7.59988L7.41817 7.40544C7.40406 7.48782 7.38772 7.55553 7.36958 7.60697C7.35185 7.6576 7.33452 7.69557 7.313 7.7233C7.29229 7.74982 7.27275 7.76951 7.23886 7.78096C7.21097 7.79041 7.17871 7.79483 7.14342 7.79483C7.12394 7.79483 7.09781 7.79161 7.0785 7.7876C7.05936 7.78378 7.04921 7.77956 7.03469 7.77333C7.03469 7.77333 7.01375 7.76529 7.00535 7.78639C6.99881 7.80387 6.95098 7.93628 6.94521 7.95255C6.93961 7.96883 6.9476 7.98149 6.95775 7.9853C6.98166 7.99375 6.9994 7.99935 7.03189 8.00722C7.07692 8.01784 7.11496 8.01848 7.1506 8.01848C7.22515 8.01848 7.29328 8.00781 7.34963 7.98731C7.40621 7.96662 7.45562 7.93065 7.49949 7.88203C7.54668 7.82939 7.57637 7.77433 7.60466 7.69899C7.63278 7.62465 7.65687 7.53223 7.67601 7.42453L7.85871 6.38235H8.12564C8.12564 6.38235 8.14816 6.38316 8.15276 6.35844L8.18304 6.18846C8.18502 6.17219 8.17826 6.16214 8.15656 6.16214H7.89732C7.89872 6.15632 7.91051 6.0643 7.94014 5.97769C7.95291 5.94093 7.97683 5.91099 7.99696 5.8905C8.01685 5.8704 8.03977 5.85614 8.06491 5.8479C8.09058 5.83946 8.11986 5.83544 8.15195 5.83544C8.17627 5.83544 8.20036 5.83825 8.21851 5.84208C8.24359 5.8475 8.25333 5.85031 8.25992 5.85232C8.28641 5.86036 8.29002 5.85252 8.29521 5.83967L8.35716 5.66808C8.36352 5.64959 8.34777 5.64176 8.34223 5.63955Z" fill="white"/>
<path d="M4.72062 7.4077C4.72062 7.42136 4.71086 7.43241 4.69731 7.43241H4.48234C4.4688 7.43241 4.45923 7.42136 4.45923 7.4077V5.66289C4.45923 5.64923 4.4688 5.63818 4.48234 5.63818H4.69731C4.71086 5.63818 4.72062 5.64923 4.72062 5.66289V7.4077Z" fill="white"/>
</g>
<defs>
<clipPath id="clip0_4_3020">
<rect width="14" height="14" fill="white" transform="translate(0 0.407715)"/>
</clipPath>
</defs>
</svg>
