<svg width="14" height="15" viewBox="0 0 14 15" fill="none" xmlns="http://www.w3.org/2000/svg">
<g clip-path="url(#clip0_4_3020)">
<path d="M5.82709 3.07429C6.27814 2.60032 6.9061 2.30637 7.60062 2.30637C8.52386 2.30637 9.32939 2.82555 9.75831 3.59629C10.1311 3.42832 10.5437 3.33489 10.9778 3.33489C12.643 3.33489 13.993 4.70819 13.993 6.40215C13.993 8.09633 12.643 9.46961 10.9778 9.46961C10.7746 9.46961 10.576 9.44914 10.3839 9.40994C10.0062 10.0895 9.28634 10.5485 8.4601 10.5485C8.11425 10.5485 7.78711 10.468 7.49585 10.3247C7.11289 11.2331 6.22075 11.87 5.18098 11.87C4.09816 11.87 3.17532 11.1791 2.8211 10.21C2.66629 10.2432 2.50591 10.2604 2.34135 10.2604C1.05212 10.2604 0.00695801 9.19557 0.00695801 7.88172C0.00695801 7.0013 0.476545 6.23258 1.17425 5.82129C1.03061 5.48796 0.950714 5.12007 0.950714 4.7333C0.950714 3.22237 2.16702 1.99756 3.66723 1.99756C4.54802 1.99756 5.33081 2.41989 5.82709 3.07429Z" fill="#00A1E0"/>
<path d="M2.0327 7.11759C2.02393 7.14069 2.03589 7.14551 2.03868 7.14953C2.06498 7.16882 2.09168 7.18269 2.11857 7.19816C2.26122 7.2745 2.3959 7.29681 2.53675 7.29681C2.82365 7.29681 3.00176 7.1429 3.00176 6.89517V6.89034C3.00176 6.66129 2.80074 6.57811 2.61207 6.51804L2.58756 6.51C2.44531 6.46338 2.32258 6.4232 2.32258 6.32877V6.32375C2.32258 6.24298 2.3943 6.1835 2.50548 6.1835C2.629 6.1835 2.77564 6.22489 2.87007 6.27753C2.87007 6.27753 2.89776 6.29562 2.90792 6.26849C2.9135 6.25403 2.96132 6.12423 2.9663 6.11016C2.97168 6.0949 2.96212 6.08365 2.95235 6.07762C2.84457 6.01152 2.69554 5.96631 2.54134 5.96631L2.51265 5.96651C2.25006 5.96651 2.06677 6.12644 2.06677 6.3557V6.36051C2.06677 6.60222 2.26899 6.68058 2.45846 6.73524L2.48894 6.74467C2.62701 6.78747 2.74595 6.82424 2.74595 6.92229V6.92711C2.74595 7.01672 2.66865 7.08343 2.54393 7.08343C2.49552 7.08343 2.34111 7.08242 2.17436 6.97613C2.15423 6.96428 2.14248 6.95564 2.12694 6.9462C2.11877 6.94098 2.09825 6.93194 2.08929 6.95926L2.0327 7.11759Z" fill="white"/>
<path d="M6.2328 7.11759C6.22399 7.14069 6.23595 7.14551 6.23875 7.14953C6.26506 7.16882 6.29177 7.18269 6.31867 7.19816C6.46129 7.2745 6.59598 7.29681 6.73686 7.29681C7.02374 7.29681 7.20183 7.1429 7.20183 6.89517V6.89034C7.20183 6.66129 7.00082 6.57811 6.81217 6.51804L6.78761 6.51C6.64539 6.46338 6.52266 6.4232 6.52266 6.32877V6.32375C6.52266 6.24298 6.59441 6.1835 6.70553 6.1835C6.82908 6.1835 6.97573 6.22489 7.07017 6.27753C7.07017 6.27753 7.09782 6.29562 7.10797 6.26849C7.11357 6.25403 7.16141 6.12423 7.16637 6.11016C7.17173 6.0949 7.16217 6.08365 7.15242 6.07762C7.04462 6.01152 6.89564 5.96631 6.74141 5.96631L6.71271 5.96651C6.45015 5.96651 6.26687 6.12644 6.26687 6.3557V6.36051C6.26687 6.60222 6.46905 6.68058 6.65852 6.73524L6.68902 6.74467C6.8271 6.78747 6.94622 6.82424 6.94622 6.92229V6.92711C6.94622 7.01672 6.86875 7.08343 6.74403 7.08343C6.69562 7.08343 6.54121 7.08242 6.37443 6.97613C6.35431 6.96428 6.34235 6.95604 6.32724 6.9462C6.32205 6.94278 6.29772 6.93334 6.28938 6.95926L6.2328 7.11759Z" fill="white"/>
<path d="M9.09991 6.63196C9.09991 6.772 9.07401 6.88231 9.02302 6.96027C8.97262 7.03742 8.89626 7.07499 8.78992 7.07499C8.68329 7.07499 8.6074 7.03762 8.55781 6.96027C8.50759 6.88251 8.4821 6.772 8.4821 6.63196C8.4821 6.49212 8.50759 6.38201 8.55781 6.30486C8.6074 6.22851 8.68329 6.19134 8.78992 6.19134C8.89626 6.19134 8.97262 6.22851 9.0232 6.30486C9.07401 6.38201 9.09991 6.49212 9.09991 6.63196ZM9.33937 6.37237C9.31586 6.2922 9.27922 6.22148 9.2304 6.16261C9.18157 6.10354 9.1198 6.05612 9.04653 6.02156C8.97338 5.9872 8.88693 5.96973 8.78992 5.96973C8.69268 5.96973 8.60623 5.9872 8.53308 6.02156C8.45976 6.05612 8.39804 6.10354 8.34898 6.16261C8.30039 6.22168 8.26376 6.2924 8.24001 6.37237C8.21674 6.45214 8.20496 6.53934 8.20496 6.63196C8.20496 6.72459 8.21674 6.81198 8.24001 6.89155C8.26376 6.97152 8.30021 7.04224 8.34921 7.10131C8.39804 7.16039 8.45999 7.2076 8.53308 7.24115C8.60641 7.27471 8.69268 7.29179 8.78992 7.29179C8.88693 7.29179 8.97321 7.27471 9.04653 7.24115C9.11962 7.2076 9.18157 7.16039 9.2304 7.10131C9.27922 7.04244 9.31586 6.97172 9.33937 6.89155C9.36287 6.81179 9.37466 6.72438 9.37466 6.63196C9.37466 6.53954 9.36287 6.45214 9.33937 6.37237Z" fill="white"/>
<path d="M11.306 7.03785C11.298 7.01434 11.2755 7.02318 11.2755 7.02318C11.2406 7.03665 11.2036 7.0491 11.1642 7.05533C11.1241 7.06156 11.0801 7.06477 11.0329 7.06477C10.9169 7.06477 10.8248 7.03001 10.7589 6.9613C10.6928 6.89259 10.6557 6.78147 10.6561 6.63118C10.6565 6.49436 10.6892 6.39149 10.748 6.31313C10.8064 6.23517 10.8952 6.19519 11.0137 6.19519C11.1125 6.19519 11.1879 6.20664 11.2668 6.23176C11.2668 6.23176 11.2857 6.23999 11.2947 6.21508C11.3155 6.15641 11.3311 6.11441 11.3534 6.04992C11.3598 6.03164 11.3442 6.0238 11.3387 6.02159C11.3076 6.00933 11.2343 5.98945 11.1789 5.98101C11.1271 5.97297 11.0665 5.96875 10.9992 5.96875C10.8986 5.96875 10.8089 5.98603 10.7322 6.02059C10.6557 6.05494 10.5908 6.10236 10.5394 6.16143C10.488 6.22051 10.4489 6.29123 10.4228 6.37119C10.3969 6.45096 10.3838 6.53856 10.3838 6.63118C10.3838 6.83151 10.4373 6.99345 10.5432 7.11199C10.6491 7.23094 10.8083 7.29141 11.0159 7.29141C11.1386 7.29141 11.2646 7.2663 11.355 7.23033C11.355 7.23033 11.3724 7.2219 11.3648 7.2016L11.306 7.03785Z" fill="white"/>
<path d="M11.7249 6.49775C11.7363 6.41999 11.7576 6.35529 11.7905 6.30486C11.8401 6.22831 11.9158 6.18632 12.0222 6.18632C12.1286 6.18632 12.1989 6.22851 12.2493 6.30486C12.2828 6.35529 12.2973 6.4228 12.3031 6.49775H11.7249ZM12.5312 6.32676C12.5109 6.24941 12.4605 6.17125 12.4274 6.13549C12.3752 6.07883 12.3242 6.03924 12.2736 6.01715C12.2075 5.98862 12.1282 5.96973 12.0413 5.96973C11.9401 5.96973 11.8482 5.98681 11.7737 6.02217C11.699 6.05753 11.6363 6.10575 11.5871 6.16583C11.5378 6.2257 11.5008 6.29703 11.4773 6.378C11.4536 6.45857 11.4417 6.54637 11.4417 6.639C11.4417 6.73323 11.454 6.82103 11.4785 6.89999C11.5032 6.97956 11.5426 7.04968 11.596 7.10775C11.6492 7.16621 11.7177 7.21202 11.7998 7.24397C11.8813 7.27571 11.9804 7.29219 12.0941 7.29199C12.3282 7.29119 12.4515 7.23854 12.5023 7.21021C12.5113 7.20519 12.5199 7.19635 12.5091 7.17103L12.4561 7.02135C12.4481 6.99905 12.4256 7.00728 12.4256 7.00728C12.3676 7.02898 12.2852 7.06796 12.0929 7.06756C11.9672 7.06736 11.874 7.02999 11.8156 6.97152C11.7556 6.91165 11.7263 6.82364 11.7211 6.69947L12.5318 6.70028C12.5318 6.70028 12.5531 6.69987 12.5554 6.67898C12.5561 6.67014 12.5832 6.51101 12.5312 6.32676Z" fill="white"/>
<path d="M5.23265 6.49775C5.2442 6.41999 5.26532 6.35529 5.29819 6.30486C5.3478 6.22831 5.42351 6.18632 5.5299 6.18632C5.63629 6.18632 5.70662 6.22851 5.75722 6.30486C5.79049 6.35529 5.80504 6.4228 5.81081 6.49775H5.23265ZM6.03876 6.32676C6.0184 6.24941 5.96818 6.17125 5.93516 6.13549C5.88295 6.07883 5.83194 6.03924 5.78133 6.01715C5.71518 5.98862 5.63589 5.96973 5.54902 5.96973C5.44801 5.96973 5.35597 5.98681 5.28146 6.02217C5.20675 6.05753 5.14399 6.10575 5.09478 6.16583C5.04557 6.2257 5.00851 6.29703 4.985 6.378C4.96149 6.45857 4.94934 6.54637 4.94934 6.639C4.94934 6.73323 4.96169 6.82103 4.9862 6.89999C5.0109 6.97956 5.05035 7.04968 5.10374 7.10775C5.15694 7.16621 5.22547 7.21202 5.30756 7.24397C5.38904 7.27571 5.48806 7.29219 5.60182 7.29199C5.83594 7.29119 5.95925 7.23854 6.01006 7.21021C6.01899 7.20519 6.02756 7.19635 6.01683 7.17103L5.96404 7.02135C5.95587 6.99905 5.93335 7.00728 5.93335 7.00728C5.87537 7.02898 5.79309 7.06796 5.60043 7.06756C5.47491 7.06736 5.38167 7.02999 5.3233 6.97152C5.26333 6.91165 5.23404 6.82364 5.22886 6.69947L6.03952 6.70028C6.03952 6.70028 6.06087 6.69987 6.06303 6.67898C6.06385 6.67014 6.09091 6.51101 6.03876 6.32676Z" fill="white"/>
<path d="M3.48044 7.03343C3.44877 7.00791 3.44438 7.00148 3.43362 6.98501C3.41769 6.95989 3.40951 6.92413 3.40951 6.87872C3.40951 6.80679 3.43302 6.75515 3.48184 6.7204C3.48124 6.7206 3.55157 6.65911 3.71693 6.66132C3.83308 6.66293 3.93688 6.68021 3.93688 6.68021V7.05192C3.93688 7.05192 3.83408 7.07422 3.71813 7.08125C3.55316 7.0913 3.47985 7.03323 3.48044 7.03343ZM3.803 6.45899C3.77013 6.45659 3.72749 6.45518 3.67648 6.45518C3.60696 6.45518 3.53981 6.46402 3.47685 6.4811C3.4135 6.49818 3.35652 6.5249 3.30751 6.56026C3.2583 6.59583 3.21865 6.64123 3.18997 6.69508C3.16128 6.74893 3.14673 6.81242 3.14673 6.88355C3.14673 6.95588 3.15908 7.01876 3.18379 7.0702C3.20849 7.12184 3.24415 7.16483 3.28958 7.19798C3.3346 7.23114 3.39019 7.25545 3.45474 7.27011C3.51829 7.28479 3.59042 7.29222 3.66931 7.29222C3.75239 7.29222 3.83527 7.28539 3.91556 7.27153C3.99505 7.25786 4.09268 7.23797 4.11978 7.23174C4.14667 7.22531 4.17656 7.21707 4.17656 7.21707C4.19668 7.21205 4.19508 7.19035 4.19508 7.19035L4.19469 6.44272C4.19469 6.27877 4.15125 6.15721 4.06578 6.08187C3.98071 6.00673 3.8554 5.96875 3.69342 5.96875C3.63266 5.96875 3.53483 5.97719 3.47626 5.98904C3.47626 5.98904 3.29914 6.0236 3.22623 6.08107C3.22623 6.08107 3.21028 6.09111 3.21905 6.11362L3.27643 6.26913C3.2836 6.28922 3.30293 6.28239 3.30293 6.28239C3.30293 6.28239 3.30911 6.27998 3.31627 6.27576C3.47228 6.19017 3.66951 6.19278 3.66951 6.19278C3.75718 6.19278 3.82452 6.21046 3.86994 6.24562C3.91417 6.27978 3.93668 6.33141 3.93668 6.44031V6.47487C3.86695 6.46482 3.803 6.45899 3.803 6.45899Z" fill="white"/>
<path d="M10.3414 6.03753C10.3476 6.01904 10.3346 6.0102 10.3292 6.00819C10.3155 6.00277 10.2466 5.9881 10.1934 5.98468C10.0916 5.97845 10.035 5.99573 9.98437 6.01864C9.93414 6.04155 9.87838 6.07851 9.84729 6.12051V6.02105C9.84729 6.00719 9.83755 5.99613 9.82401 5.99613H9.61617C9.60264 5.99613 9.5929 6.00719 9.5929 6.02105V7.24044C9.5929 7.2541 9.60404 7.26536 9.61757 7.26536H9.83055C9.84414 7.26536 9.8551 7.2541 9.8551 7.24044V6.63125C9.8551 6.54947 9.86403 6.4679 9.882 6.41666C9.8995 6.36603 9.92341 6.32545 9.95287 6.29631C9.98256 6.26738 10.0163 6.24709 10.0531 6.23563C10.0908 6.22398 10.1324 6.22016 10.1619 6.22016C10.2043 6.22016 10.251 6.23121 10.251 6.23121C10.2665 6.23302 10.2753 6.22338 10.2804 6.20911C10.2944 6.17174 10.3338 6.05983 10.3414 6.03753Z" fill="white"/>
<path d="M8.34223 5.47256C8.31633 5.46452 8.29282 5.45909 8.26214 5.45327C8.23105 5.44764 8.19401 5.44482 8.15195 5.44482C8.0053 5.44482 7.88974 5.48662 7.80866 5.569C7.72798 5.65097 7.67321 5.77574 7.64573 5.9399L7.63576 5.99515H7.45166C7.45166 5.99515 7.42931 5.99435 7.42453 6.01886L7.39449 6.18904C7.39227 6.20511 7.39927 6.21536 7.4208 6.21536H7.59988L7.41817 7.23845C7.40406 7.32083 7.38772 7.38854 7.36958 7.43998C7.35185 7.49061 7.33452 7.52858 7.313 7.55631C7.29229 7.58283 7.27275 7.60252 7.23886 7.61397C7.21097 7.62342 7.17871 7.62784 7.14342 7.62784C7.12394 7.62784 7.09781 7.62462 7.0785 7.6206C7.05936 7.61678 7.04921 7.61257 7.03469 7.60634C7.03469 7.60634 7.01375 7.5983 7.00535 7.6194C6.99881 7.63688 6.95098 7.76928 6.94521 7.78556C6.93961 7.80183 6.9476 7.81449 6.95775 7.81831C6.98166 7.82675 6.9994 7.83235 7.03189 7.84023C7.07692 7.85085 7.11496 7.85149 7.1506 7.85149C7.22515 7.85149 7.29328 7.84081 7.34963 7.82032C7.40621 7.79962 7.45562 7.76366 7.49949 7.71503C7.54668 7.66239 7.57637 7.60734 7.60466 7.532C7.63278 7.45766 7.65687 7.36523 7.67601 7.25754L7.85871 6.21536H8.12564C8.12564 6.21536 8.14816 6.21617 8.15276 6.19145L8.18304 6.02147C8.18502 6.0052 8.17826 5.99515 8.15656 5.99515H7.89732C7.89872 5.98932 7.91051 5.8973 7.94014 5.8107C7.95291 5.77393 7.97683 5.744 7.99696 5.72351C8.01685 5.70341 8.03977 5.68915 8.06491 5.68091C8.09058 5.67247 8.11986 5.66845 8.15195 5.66845C8.17627 5.66845 8.20036 5.67126 8.21851 5.67508C8.24359 5.68051 8.25333 5.68332 8.25992 5.68533C8.28641 5.69337 8.29002 5.68553 8.29521 5.67267L8.35716 5.50109C8.36352 5.4826 8.34777 5.47477 8.34223 5.47256Z" fill="white"/>
<path d="M4.72074 7.2407C4.72074 7.25437 4.71098 7.26541 4.69743 7.26541H4.48246C4.46892 7.26541 4.45935 7.25437 4.45935 7.2407V5.4959C4.45935 5.48224 4.46892 5.47119 4.48246 5.47119H4.69743C4.71098 5.47119 4.72074 5.48224 4.72074 5.4959V7.2407Z" fill="white"/>
</g>
<defs>
<clipPath id="clip0_4_3020">
<rect width="14" height="14" fill="white" transform="translate(0 0.240723)"/>
</clipPath>
</defs>
</svg>
