<svg width="14" height="15" viewBox="0 0 14 15" fill="none" xmlns="http://www.w3.org/2000/svg">
<g clip-path="url(#clip0_120_1605)">
<path d="M11.4077 2.77789C11.398 2.71006 11.3399 2.6713 11.2915 2.6713C11.243 2.6713 10.2836 2.65192 10.2836 2.65192C10.2836 2.65192 9.47927 1.87667 9.40173 1.78945C9.32427 1.71193 9.1692 1.73131 9.11107 1.75069C9.11107 1.75069 8.956 1.79914 8.70407 1.87667C8.66527 1.741 8.59747 1.57626 8.5102 1.40183C8.2292 0.859155 7.8028 0.568435 7.2989 0.568435C7.26014 0.568435 7.23107 0.568435 7.19231 0.578126C7.17293 0.558745 7.16323 0.539363 7.14385 0.529673C6.92097 0.297098 6.63994 0.18081 6.30077 0.190501C5.6515 0.209882 5.00223 0.684723 4.46924 1.51811C4.101 2.10924 3.81997 2.84573 3.73275 3.41747C2.98658 3.65005 2.46328 3.81479 2.4439 3.81479C2.06597 3.93108 2.05628 3.94077 2.00783 4.29932C1.98844 4.57066 1 12.2165 1 12.2165L9.2952 13.6507L12.8904 12.7592C12.8807 12.7592 11.4174 2.84573 11.4077 2.77789ZM8.28733 2.01233C8.09353 2.07048 7.88033 2.13831 7.64777 2.21584C7.64777 1.88636 7.59931 1.42121 7.45395 1.03359C7.9482 1.11111 8.19047 1.67317 8.28733 2.01233ZM7.21169 2.34182C6.77561 2.47749 6.30077 2.62285 5.82593 2.76821C5.96159 2.2546 6.21355 1.75069 6.52365 1.41152C6.63994 1.28554 6.80468 1.14987 6.9888 1.07235C7.18261 1.45028 7.22137 1.98327 7.21169 2.34182ZM6.32015 0.626579C6.4752 0.626579 6.60118 0.655651 6.70777 0.733175C6.53334 0.820391 6.35891 0.956061 6.20386 1.13049C5.78717 1.57626 5.46737 2.26429 5.34139 2.93295C4.94408 3.05892 4.55645 3.17521 4.20759 3.28181C4.44017 2.22553 5.32201 0.655651 6.32015 0.626579Z" fill="#95BF47"/>
<path d="M11.2912 2.67151C11.2427 2.67151 10.2833 2.65213 10.2833 2.65213C10.2833 2.65213 9.47899 1.87688 9.40152 1.78966C9.37246 1.76059 9.33366 1.74121 9.29492 1.74121V13.651L12.8901 12.7595C12.8901 12.7595 11.4269 2.84594 11.4171 2.7781C11.3978 2.71027 11.3396 2.67151 11.2912 2.67151Z" fill="#5E8E3E"/>
<path d="M7.2994 4.52221L6.88271 6.0824C6.88271 6.0824 6.41755 5.86921 5.86519 5.90797C5.05118 5.95642 5.05118 6.47003 5.05118 6.596C5.09963 7.29374 6.93116 7.44881 7.03775 9.08648C7.11528 10.3753 6.35941 11.2572 5.25468 11.325C3.93675 11.3929 3.20996 10.6176 3.20996 10.6176L3.49099 9.42567C3.49099 9.42567 4.22747 9.97801 4.80891 9.93927C5.18685 9.91987 5.33221 9.60007 5.31283 9.38687C5.25468 8.47601 3.76233 8.53414 3.66542 7.03208C3.58789 5.7723 4.41159 4.50283 6.23343 4.38654C6.94085 4.33809 7.2994 4.52221 7.2994 4.52221Z" fill="white"/>
</g>
<defs>
<clipPath id="clip0_120_1605">
<rect width="14" height="14" fill="white" transform="translate(0 0.189941)"/>
</clipPath>
</defs>
</svg>
