<svg width="14" height="15" viewBox="0 0 14 15" fill="none" xmlns="http://www.w3.org/2000/svg">
<g clip-path="url(#clip0_4_3007)">
<path d="M7 0.639769C7.88837 0.639769 8.74944 0.814086 9.56228 1.15642C9.95288 1.32234 10.3288 1.52606 10.6796 1.76338C11.0282 1.9986 11.3558 2.26953 11.6541 2.56776C11.9523 2.86599 12.2232 3.19362 12.4585 3.54226C12.6958 3.89299 12.8995 4.27103 13.0654 4.65957C13.4077 5.47025 13.582 6.33134 13.582 7.22183C13.582 8.1123 13.4077 8.97127 13.0654 9.78411C12.8995 10.1747 12.6958 10.5507 12.4585 10.9014C12.2232 11.25 11.9523 11.5776 11.6541 11.8759C11.3558 12.1741 11.0282 12.445 10.6796 12.6803C10.3288 12.9176 9.95078 13.1213 9.56228 13.2873C8.75154 13.6296 7.89047 13.8039 7 13.8039C6.11161 13.8039 5.25052 13.6296 4.43774 13.2873C4.04711 13.1213 3.67116 12.9176 3.32043 12.6803C2.97179 12.445 2.64417 12.1741 2.34593 11.8759C2.0477 11.5776 1.77678 11.25 1.54155 10.9014C1.30423 10.5507 1.10051 10.1726 0.934591 9.78411C0.594359 8.97127 0.420042 8.1081 0.420042 7.21973C0.420042 6.33134 0.59436 5.47025 0.936691 4.65747C1.10261 4.26683 1.30633 3.89089 1.54365 3.54016C1.77887 3.19152 2.0498 2.86389 2.34804 2.56566C2.64627 2.26743 2.97389 1.9965 3.32253 1.76128C3.67326 1.52396 4.05131 1.32024 4.43984 1.15432C5.25052 0.814086 6.11161 0.639769 7 0.639769ZM7 0.219727C3.13351 0.219727 0 3.35324 0 7.21973C0 11.0862 3.13351 14.2197 7 14.2197C10.8665 14.2197 14 11.0862 14 7.21973C14.0021 3.35324 10.8665 0.219727 7 0.219727Z" fill="#32373C"/>
<path d="M1.16785 7.22C1.16785 9.52811 2.50988 11.5254 4.45678 12.4705L1.674 4.84675C1.34846 5.57131 1.16785 6.3757 1.16785 7.22ZM10.9401 6.92595C10.9401 6.20558 10.6818 5.70573 10.4592 5.31719C10.1631 4.83625 9.88579 4.4288 9.88579 3.94995C9.88579 3.4144 10.2933 2.91455 10.8645 2.91455C10.8897 2.91455 10.9149 2.91665 10.9401 2.91875C9.90259 1.96736 8.51855 1.3877 7.00011 1.3877C4.96292 1.3877 3.16935 2.4336 2.12554 4.01716C2.26206 4.02136 2.39227 4.02346 2.50148 4.02346C3.11054 4.02346 4.05563 3.94995 4.05563 3.94995C4.37067 3.93105 4.40637 4.3931 4.09344 4.4309C4.09344 4.4309 3.77631 4.46871 3.42557 4.48551L5.55098 10.8051L6.82791 6.97636L5.91852 4.48551C5.60349 4.4666 5.30736 4.4309 5.30736 4.4309C4.99233 4.412 5.03013 3.93105 5.34517 3.94995C5.34517 3.94995 6.30916 4.02346 6.88252 4.02346C7.49158 4.02346 8.43665 3.94995 8.43665 3.94995C8.75172 3.93105 8.78742 4.3931 8.47445 4.4309C8.47445 4.4309 8.15735 4.46871 7.80658 4.48551L9.91309 10.7568L10.5159 8.84974C10.7826 8.01597 10.9401 7.4258 10.9401 6.92595ZM7.10301 7.7303L5.35147 12.8171C5.87442 12.9704 6.42677 13.0544 7.00011 13.0544C7.67848 13.0544 8.33165 12.9368 8.93652 12.7247C8.92182 12.6995 8.90712 12.6721 8.89452 12.6448L7.10301 7.7303ZM12.1205 4.4225C12.1457 4.60732 12.1604 4.80684 12.1604 5.02316C12.1604 5.61542 12.049 6.28119 11.7172 7.11287L9.93409 12.2626C11.6689 11.2524 12.8345 9.37271 12.8345 7.22C12.8345 6.20558 12.5762 5.25209 12.1205 4.4225Z" fill="#32373C"/>
</g>
<defs>
<clipPath id="clip0_4_3007">
<rect width="14" height="14" fill="white" transform="translate(0 0.219727)"/>
</clipPath>
</defs>
</svg>
