<svg width="14" height="15" viewBox="0 0 14 15" fill="none" xmlns="http://www.w3.org/2000/svg">
<g clip-path="url(#clip0_120_1584)">
<path d="M5.82697 3.02351C6.27802 2.54954 6.90598 2.25559 7.6005 2.25559C8.52374 2.25559 9.32926 2.77477 9.75819 3.54551C10.1309 3.37754 10.5435 3.28411 10.9777 3.28411C12.6428 3.28411 13.9928 4.6574 13.9928 6.35137C13.9928 8.04555 12.6428 9.41883 10.9777 9.41883C10.7745 9.41883 10.5758 9.39836 10.3838 9.35916C10.006 10.0387 9.28621 10.4978 8.45998 10.4978C8.11412 10.4978 7.78699 10.4172 7.49573 10.2739C7.11277 11.1823 6.22062 11.8193 5.18086 11.8193C4.09804 11.8193 3.1752 11.1283 2.82097 10.1592C2.66617 10.1924 2.50579 10.2097 2.34122 10.2097C1.052 10.2097 0.00683594 9.14478 0.00683594 7.83094C0.00683594 6.95052 0.476423 6.18179 1.17413 5.77051C1.03048 5.43718 0.950591 5.06929 0.950591 4.68252C0.950591 3.17159 2.16689 1.94678 3.6671 1.94678C4.5479 1.94678 5.33068 2.36911 5.82697 3.02351Z" fill="#00A1E0"/>
<path d="M2.03246 7.06681C2.02369 7.08991 2.03565 7.09473 2.03844 7.09875C2.06473 7.11804 2.09143 7.13191 2.11833 7.14738C2.26098 7.22372 2.39566 7.24603 2.53651 7.24603C2.82341 7.24603 3.00151 7.09212 3.00151 6.84439V6.83956C3.00151 6.61051 2.80049 6.52733 2.61182 6.46726L2.58732 6.45922C2.44507 6.4126 2.32234 6.37242 2.32234 6.27799V6.27296C2.32234 6.1922 2.39406 6.13272 2.50523 6.13272C2.62876 6.13272 2.77539 6.17411 2.86983 6.22675C2.86983 6.22675 2.89752 6.24484 2.90768 6.21771C2.91326 6.20324 2.96107 6.07345 2.96605 6.05938C2.97143 6.04412 2.96187 6.03286 2.95211 6.02684C2.84432 5.96074 2.6953 5.91553 2.5411 5.91553L2.51241 5.91573C2.24982 5.91573 2.06653 6.07566 2.06653 6.30491V6.30973C2.06653 6.55144 2.26875 6.6298 2.45822 6.68445L2.4887 6.69389C2.62676 6.73669 2.74571 6.77346 2.74571 6.87151V6.87633C2.74571 6.96594 2.6684 7.03265 2.54369 7.03265C2.49527 7.03265 2.34087 7.03164 2.17411 6.92535C2.15399 6.9135 2.14224 6.90486 2.1267 6.89542C2.11853 6.8902 2.09801 6.88115 2.08904 6.90848L2.03246 7.06681Z" fill="white"/>
<path d="M6.23268 7.06681C6.22387 7.08991 6.23583 7.09473 6.23863 7.09875C6.26494 7.11804 6.29165 7.13191 6.31854 7.14738C6.46117 7.22372 6.59586 7.24603 6.73674 7.24603C7.02362 7.24603 7.20171 7.09212 7.20171 6.84439V6.83956C7.20171 6.61051 7.00069 6.52733 6.81204 6.46726L6.78749 6.45922C6.64527 6.4126 6.52254 6.37242 6.52254 6.27799V6.27296C6.52254 6.1922 6.59429 6.13272 6.70541 6.13272C6.82896 6.13272 6.97561 6.17411 7.07005 6.22675C7.07005 6.22675 7.0977 6.24484 7.10785 6.21771C7.11345 6.20324 7.16129 6.07345 7.16624 6.05938C7.17161 6.04412 7.16204 6.03286 7.1523 6.02684C7.0445 5.96074 6.89552 5.91553 6.74129 5.91553L6.71259 5.91573C6.45003 5.91573 6.26674 6.07566 6.26674 6.30491V6.30973C6.26674 6.55144 6.46893 6.6298 6.65839 6.68445L6.6889 6.69389C6.82698 6.73669 6.94609 6.77346 6.94609 6.87151V6.87633C6.94609 6.96594 6.86863 7.03265 6.74391 7.03265C6.69549 7.03265 6.54109 7.03164 6.37431 6.92535C6.35419 6.9135 6.34223 6.90526 6.32712 6.89542C6.32193 6.892 6.2976 6.88256 6.28926 6.90848L6.23268 7.06681Z" fill="white"/>
<path d="M9.10003 6.58118C9.10003 6.72122 9.07413 6.83153 9.02314 6.90949C8.97274 6.98664 8.89639 7.02421 8.79004 7.02421C8.68341 7.02421 8.60752 6.98684 8.55794 6.90949C8.50771 6.83173 8.48222 6.72122 8.48222 6.58118C8.48222 6.44134 8.50771 6.33123 8.55794 6.25408C8.60752 6.17773 8.68341 6.14056 8.79004 6.14056C8.89639 6.14056 8.97275 6.17773 9.02332 6.25408C9.07413 6.33123 9.10003 6.44134 9.10003 6.58118ZM9.33949 6.32159C9.31598 6.24142 9.27934 6.1707 9.23052 6.11183C9.18169 6.05276 9.11992 6.00534 9.04665 5.97078C8.9735 5.93642 8.88705 5.91895 8.79004 5.91895C8.6928 5.91895 8.60635 5.93642 8.5332 5.97078C8.45988 6.00534 8.39816 6.05276 8.3491 6.11183C8.30051 6.1709 8.26388 6.24162 8.24014 6.32159C8.21686 6.40136 8.20508 6.48856 8.20508 6.58118C8.20508 6.67381 8.21686 6.7612 8.24014 6.84077C8.26388 6.92074 8.30034 6.99146 8.34934 7.05053C8.39816 7.1096 8.46011 7.15682 8.5332 7.19037C8.60653 7.22393 8.6928 7.24101 8.79004 7.24101C8.88705 7.24101 8.97333 7.22393 9.04665 7.19037C9.11974 7.15682 9.18169 7.1096 9.23052 7.05053C9.27934 6.99166 9.31598 6.92094 9.33949 6.84077C9.363 6.761 9.37478 6.6736 9.37478 6.58118C9.37478 6.48876 9.363 6.40136 9.33949 6.32159Z" fill="white"/>
<path d="M11.306 6.98707C11.298 6.96356 11.2755 6.9724 11.2755 6.9724C11.2406 6.98587 11.2036 6.99832 11.1642 7.00455C11.1241 7.01078 11.0801 7.01399 11.0329 7.01399C10.9169 7.01399 10.8248 6.97923 10.7589 6.91052C10.6928 6.84181 10.6557 6.73069 10.6561 6.5804C10.6565 6.44358 10.6892 6.3407 10.748 6.26235C10.8064 6.18439 10.8952 6.14441 11.0137 6.14441C11.1125 6.14441 11.1879 6.15586 11.2668 6.18098C11.2668 6.18098 11.2857 6.18921 11.2947 6.1643C11.3155 6.10563 11.3311 6.06363 11.3534 5.99914C11.3598 5.98086 11.3442 5.97302 11.3387 5.97081C11.3076 5.95855 11.2343 5.93867 11.1789 5.93022C11.1271 5.92219 11.0665 5.91797 10.9992 5.91797C10.8986 5.91797 10.8089 5.93525 10.7322 5.9698C10.6557 6.00416 10.5908 6.05158 10.5394 6.11065C10.488 6.16972 10.4489 6.24045 10.4228 6.32041C10.3969 6.40018 10.3838 6.48778 10.3838 6.5804C10.3838 6.78072 10.4373 6.94266 10.5432 7.06121C10.6491 7.18016 10.8083 7.24063 11.0159 7.24063C11.1386 7.24063 11.2646 7.21552 11.355 7.17955C11.355 7.17955 11.3724 7.17111 11.3648 7.15082L11.306 6.98707Z" fill="white"/>
<path d="M11.7247 6.44697C11.736 6.36921 11.7573 6.30451 11.7902 6.25408C11.8398 6.17753 11.9155 6.13554 12.0219 6.13554C12.1283 6.13554 12.1986 6.17773 12.2491 6.25408C12.2825 6.30451 12.2971 6.37202 12.3029 6.44697H11.7247ZM12.531 6.27598C12.5107 6.19862 12.4603 6.12047 12.4272 6.08471C12.375 6.02805 12.324 5.98846 12.2734 5.96636C12.2072 5.93783 12.1279 5.91895 12.0411 5.91895C11.9399 5.91895 11.848 5.93603 11.7735 5.97139C11.6988 6.00675 11.636 6.05497 11.5868 6.11504C11.5376 6.17492 11.5006 6.24625 11.477 6.32721C11.4534 6.40778 11.4414 6.49559 11.4414 6.58822C11.4414 6.68245 11.4537 6.77025 11.4782 6.84921C11.5029 6.92878 11.5424 6.99889 11.5958 7.05696C11.649 7.11543 11.7175 7.16124 11.7996 7.19318C11.8811 7.22493 11.9801 7.24141 12.0939 7.2412C12.328 7.24041 12.4513 7.18776 12.5021 7.15943C12.5111 7.15441 12.5196 7.14557 12.5088 7.12025L12.4559 6.97057C12.4479 6.94827 12.4254 6.9565 12.4254 6.9565C12.3674 6.9782 12.2849 7.01718 12.0926 7.01678C11.9669 7.01657 11.8737 6.97921 11.8153 6.92074C11.7554 6.86087 11.7261 6.77286 11.7209 6.64869L12.5316 6.64949C12.5316 6.64949 12.5529 6.64909 12.5551 6.6282C12.5559 6.61935 12.583 6.46023 12.531 6.27598Z" fill="white"/>
<path d="M5.23253 6.44697C5.24408 6.36921 5.2652 6.30451 5.29807 6.25408C5.34768 6.17753 5.42339 6.13554 5.52978 6.13554C5.63616 6.13554 5.7065 6.17773 5.7571 6.25408C5.79037 6.30451 5.80492 6.37202 5.81069 6.44697H5.23253ZM6.03864 6.27598C6.01828 6.19862 5.96806 6.12047 5.93504 6.08471C5.88283 6.02805 5.83181 5.98846 5.7812 5.96636C5.71506 5.93783 5.63577 5.91895 5.5489 5.91895C5.44789 5.91895 5.35585 5.93603 5.28133 5.97139C5.20663 6.00675 5.14387 6.05497 5.09466 6.11504C5.04545 6.17492 5.00839 6.24625 4.98488 6.32721C4.96137 6.40778 4.94922 6.49559 4.94922 6.58822C4.94922 6.68245 4.96157 6.77025 4.98607 6.84921C5.01078 6.92878 5.05023 6.99889 5.10362 7.05696C5.15682 7.11543 5.22535 7.16124 5.30744 7.19318C5.38892 7.22493 5.48794 7.24141 5.6017 7.2412C5.83582 7.24041 5.95913 7.18776 6.00994 7.15943C6.01887 7.15441 6.02744 7.14557 6.01671 7.12025L5.96392 6.97057C5.95575 6.94827 5.93323 6.9565 5.93323 6.9565C5.87525 6.9782 5.79296 7.01718 5.60031 7.01678C5.47479 7.01657 5.38155 6.97921 5.32318 6.92074C5.2632 6.86087 5.23392 6.77286 5.22874 6.64869L6.0394 6.64949C6.0394 6.64949 6.06075 6.64909 6.06291 6.6282C6.06372 6.61935 6.09079 6.46023 6.03864 6.27598Z" fill="white"/>
<path d="M3.4802 6.98265C3.44852 6.95713 3.44414 6.9507 3.43338 6.93423C3.41744 6.90911 3.40927 6.87335 3.40927 6.82794C3.40927 6.75601 3.43278 6.70437 3.48159 6.66962C3.481 6.66982 3.55132 6.60833 3.71669 6.61054C3.83283 6.61215 3.93663 6.62943 3.93663 6.62943V7.00114C3.93663 7.00114 3.83383 7.02344 3.71788 7.03047C3.55292 7.04052 3.4796 6.98245 3.4802 6.98265ZM3.80275 6.40821C3.76988 6.4058 3.72725 6.4044 3.67624 6.4044C3.60671 6.4044 3.53957 6.41324 3.47661 6.43032C3.41325 6.4474 3.35627 6.47412 3.30726 6.50948C3.25805 6.54505 3.21841 6.59045 3.18972 6.6443C3.16103 6.69815 3.14648 6.76164 3.14648 6.83276C3.14648 6.9051 3.15884 6.96798 3.18354 7.01942C3.20825 7.07106 3.24391 7.11405 3.28934 7.1472C3.33436 7.18035 3.38994 7.20467 3.4545 7.21933C3.51805 7.234 3.59017 7.24144 3.66907 7.24144C3.75215 7.24144 3.83503 7.2346 3.91532 7.22074C3.99481 7.20708 4.09244 7.18719 4.11953 7.18096C4.14642 7.17453 4.17631 7.16629 4.17631 7.16629C4.19643 7.16127 4.19484 7.13957 4.19484 7.13957L4.19444 6.39194C4.19444 6.22799 4.15101 6.10643 4.06554 6.03109C3.98046 5.95594 3.85515 5.91797 3.69317 5.91797C3.63241 5.91797 3.53459 5.92641 3.47602 5.93826C3.47602 5.93826 3.2989 5.97282 3.22598 6.03028C3.22598 6.03028 3.21004 6.04033 3.21881 6.06283L3.27618 6.21834C3.28336 6.23844 3.30268 6.2316 3.30268 6.2316C3.30268 6.2316 3.30886 6.22919 3.31603 6.22498C3.47203 6.13938 3.66927 6.142 3.66927 6.142C3.75693 6.142 3.82427 6.15968 3.8697 6.19484C3.91392 6.229 3.93643 6.28063 3.93643 6.38953V6.42409C3.8667 6.41404 3.80275 6.40821 3.80275 6.40821Z" fill="white"/>
<path d="M10.3412 5.98674C10.3474 5.96826 10.3345 5.95942 10.3291 5.95741C10.3153 5.95198 10.2465 5.93732 10.1933 5.9339C10.0915 5.92767 10.0349 5.94495 9.98425 5.96786C9.93402 5.99076 9.87826 6.02773 9.84717 6.06972V5.97027C9.84717 5.95641 9.83742 5.94535 9.82389 5.94535H9.61605C9.60252 5.94535 9.59277 5.95641 9.59277 5.97027V7.18966C9.59277 7.20332 9.60391 7.21457 9.61745 7.21457H9.83042C9.84402 7.21457 9.85498 7.20332 9.85498 7.18966V6.58047C9.85498 6.49869 9.86391 6.41712 9.88187 6.36588C9.89937 6.31525 9.92329 6.27467 9.95275 6.24553C9.98244 6.2166 10.0162 6.19631 10.053 6.18485C10.0906 6.1732 10.1323 6.16938 10.1618 6.16938C10.2042 6.16938 10.2508 6.18043 10.2508 6.18043C10.2663 6.18224 10.2752 6.17259 10.2803 6.15833C10.2942 6.12096 10.3337 6.00905 10.3412 5.98674Z" fill="white"/>
<path d="M8.34223 5.42177C8.31633 5.41374 8.29282 5.40831 8.26214 5.40248C8.23105 5.39686 8.19401 5.39404 8.15195 5.39404C8.0053 5.39404 7.88974 5.43584 7.80866 5.51822C7.72798 5.60019 7.67321 5.72496 7.64573 5.88912L7.63576 5.94437H7.45166C7.45166 5.94437 7.42931 5.94357 7.42453 5.96808L7.39449 6.13826C7.39227 6.15433 7.39927 6.16458 7.4208 6.16458H7.59988L7.41817 7.18767C7.40406 7.27005 7.38772 7.33776 7.36958 7.38919C7.35185 7.43983 7.33452 7.4778 7.313 7.50553C7.29229 7.53205 7.27275 7.55174 7.23886 7.56319C7.21097 7.57264 7.17871 7.57706 7.14342 7.57706C7.12394 7.57706 7.09781 7.57384 7.0785 7.56982C7.05936 7.566 7.04921 7.56179 7.03469 7.55556C7.03469 7.55556 7.01375 7.54752 7.00535 7.56862C6.99881 7.5861 6.95098 7.7185 6.94521 7.73478C6.93961 7.75105 6.9476 7.76371 6.95775 7.76753C6.98166 7.77597 6.9994 7.78157 7.03189 7.78945C7.07692 7.80007 7.11496 7.80071 7.1506 7.80071C7.22515 7.80071 7.29328 7.79003 7.34963 7.76954C7.40621 7.74884 7.45562 7.71287 7.49949 7.66425C7.54668 7.61161 7.57637 7.55656 7.60466 7.48122C7.63278 7.40688 7.65687 7.31445 7.67601 7.20676L7.85871 6.16458H8.12564C8.12564 6.16458 8.14816 6.16538 8.15276 6.14067L8.18304 5.97069C8.18502 5.95442 8.17826 5.94437 8.15656 5.94437H7.89732C7.89872 5.93854 7.91051 5.84652 7.94014 5.75992C7.95291 5.72315 7.97683 5.69322 7.99696 5.67272C8.01685 5.65263 8.03977 5.63837 8.06491 5.63013C8.09058 5.62169 8.11986 5.61767 8.15195 5.61767C8.17627 5.61767 8.20036 5.62048 8.21851 5.6243C8.24359 5.62973 8.25333 5.63254 8.25992 5.63455C8.28641 5.64258 8.29002 5.63475 8.29521 5.62189L8.35716 5.45031C8.36352 5.43182 8.34777 5.42399 8.34223 5.42177Z" fill="white"/>
<path d="M4.72038 7.18992C4.72038 7.20358 4.71061 7.21463 4.69707 7.21463H4.4821C4.46855 7.21463 4.45898 7.20358 4.45898 7.18992V5.44512C4.45898 5.43146 4.46855 5.42041 4.4821 5.42041H4.69707C4.71061 5.42041 4.72038 5.43146 4.72038 5.44512V7.18992Z" fill="white"/>
</g>
<defs>
<clipPath id="clip0_120_1584">
<rect width="14" height="14" fill="white" transform="translate(0 0.189941)"/>
</clipPath>
</defs>
</svg>
