<svg width="14" height="15" viewBox="0 0 14 15" fill="none" xmlns="http://www.w3.org/2000/svg">
<g clip-path="url(#clip0_4_3041)">
<path d="M11.4077 2.82868C11.398 2.76084 11.3399 2.72208 11.2915 2.72208C11.243 2.72208 10.2836 2.7027 10.2836 2.7027C10.2836 2.7027 9.47927 1.92745 9.40173 1.84024C9.32427 1.76271 9.1692 1.78209 9.11107 1.80147C9.11107 1.80147 8.956 1.84992 8.70407 1.92745C8.66527 1.79178 8.59747 1.62704 8.5102 1.45261C8.2292 0.909936 7.8028 0.619217 7.2989 0.619217C7.26014 0.619217 7.23107 0.619217 7.19231 0.628907C7.17293 0.609526 7.16323 0.590145 7.14385 0.580454C6.92097 0.347879 6.63994 0.231592 6.30077 0.241282C5.6515 0.260664 5.00223 0.735504 4.46924 1.5689C4.101 2.16002 3.81997 2.89651 3.73275 3.46826C2.98658 3.70084 2.46328 3.86558 2.4439 3.86558C2.06597 3.98186 2.05628 3.99155 2.00783 4.3501C1.98844 4.62144 1 12.2673 1 12.2673L9.2952 13.7015L12.8904 12.81C12.8807 12.81 11.4174 2.89651 11.4077 2.82868ZM8.28733 2.06312C8.09353 2.12126 7.88033 2.1891 7.64777 2.26662C7.64777 1.93714 7.59931 1.47199 7.45395 1.08437C7.9482 1.16189 8.19047 1.72395 8.28733 2.06312ZM7.21169 2.3926C6.77561 2.52827 6.30077 2.67363 5.82593 2.81899C5.96159 2.30538 6.21355 1.80147 6.52365 1.4623C6.63994 1.33632 6.80468 1.20066 6.9888 1.12313C7.18261 1.50106 7.22137 2.03405 7.21169 2.3926ZM6.32015 0.67736C6.4752 0.67736 6.60118 0.706432 6.70777 0.783957C6.53334 0.871173 6.35891 1.00684 6.20386 1.18127C5.78717 1.62704 5.46737 2.31508 5.34139 2.98373C4.94408 3.1097 4.55645 3.226 4.20759 3.33259C4.44017 2.27631 5.32201 0.706432 6.32015 0.67736Z" fill="#95BF47"/>
<path d="M11.2914 2.72229C11.243 2.72229 10.2836 2.70291 10.2836 2.70291C10.2836 2.70291 9.47923 1.92766 9.40177 1.84045C9.3727 1.81137 9.3339 1.79199 9.29517 1.79199V13.7018L12.8904 12.8102C12.8904 12.8102 11.4271 2.89672 11.4174 2.82889C11.398 2.76105 11.3398 2.72229 11.2914 2.72229Z" fill="#5E8E3E"/>
<path d="M7.29891 4.57299L6.88222 6.13318C6.88222 6.13318 6.41707 5.91999 5.8647 5.95875C5.05069 6.0072 5.05069 6.52081 5.05069 6.64678C5.09915 7.34452 6.93067 7.49959 7.03727 9.13726C7.11479 10.4261 6.35893 11.308 5.25419 11.3758C3.93627 11.4437 3.20947 10.6684 3.20947 10.6684L3.4905 9.47646C3.4905 9.47646 4.22699 10.0288 4.80843 9.99006C5.18636 9.97066 5.33172 9.65086 5.31234 9.43766C5.25419 8.52679 3.76184 8.58492 3.66493 7.08286C3.58741 5.82308 4.41111 4.55361 6.23295 4.43732C6.94036 4.38887 7.29891 4.57299 7.29891 4.57299Z" fill="white"/>
</g>
<defs>
<clipPath id="clip0_4_3041">
<rect width="14" height="14" fill="white" transform="translate(0 0.240723)"/>
</clipPath>
</defs>
</svg>
