<svg width="24" height="25" viewBox="0 0 24 25" fill="none" xmlns="http://www.w3.org/2000/svg">
<g clip-path="url(#clip0_49_788)">
<mask id="mask0_49_788" style="mask-type:luminance" maskUnits="userSpaceOnUse" x="0" y="0" width="24" height="24">
<path d="M23.0849 0.49707H0.0449219V23.5371H23.0849V0.49707Z" fill="white"/>
</mask>
<g mask="url(#mask0_49_788)">
<path fill-rule="evenodd" clip-rule="evenodd" d="M0.0449219 4.33695C0.0449219 3.80676 0.474728 3.37695 1.00493 3.37695H5.80493C6.33512 3.37695 6.76493 3.80676 6.76493 4.33695V19.6969C6.76493 20.2271 6.33512 20.6569 5.80493 20.6569H1.00492C0.474728 20.6569 0.0449219 20.2271 0.0449219 19.6969V4.33695ZM16.3649 4.33695C16.3649 3.80676 16.7947 3.37695 17.3249 3.37695H22.1249C22.6552 3.37695 23.0849 3.80676 23.0849 4.33695V15.8569C23.0849 16.3871 22.6552 16.8169 22.1249 16.8169H17.3249C16.7947 16.8169 16.3649 16.3871 16.3649 15.8569V4.33695ZM9.64495 3.37695C9.11473 3.37695 8.68493 3.80676 8.68493 4.33695V12.0169C8.68493 12.5471 9.11473 12.9769 9.64495 12.9769H13.4849C14.0152 12.9769 14.4449 12.5471 14.4449 12.0169V4.33695C14.4449 3.80676 14.0152 3.37695 13.4849 3.37695H9.64495Z" fill="white"/>
</g>
</g>
<defs>
<clipPath id="clip0_49_788">
<rect width="24" height="24" fill="white" transform="translate(0 0.0175781)"/>
</clipPath>
</defs>
</svg>
