<svg width="14" height="15" viewBox="0 0 14 15" fill="none" xmlns="http://www.w3.org/2000/svg">
<g clip-path="url(#clip0_4_3041)">
<path d="M11.4077 3.29547C11.398 3.22764 11.3399 3.18888 11.2915 3.18888C11.243 3.18888 10.2836 3.1695 10.2836 3.1695C10.2836 3.1695 9.47927 2.39425 9.40173 2.30703C9.32427 2.22951 9.1692 2.24889 9.11107 2.26827C9.11107 2.26827 8.956 2.31672 8.70407 2.39425C8.66527 2.25858 8.59747 2.09384 8.5102 1.91941C8.2292 1.37673 7.8028 1.08601 7.2989 1.08601C7.26014 1.08601 7.23107 1.08601 7.19231 1.0957C7.17293 1.07632 7.16323 1.05694 7.14385 1.04725C6.92097 0.814676 6.63994 0.698389 6.30077 0.708079C5.6515 0.72746 5.00223 1.2023 4.46924 2.03569C4.101 2.62682 3.81997 3.36331 3.73275 3.93505C2.98658 4.16763 2.46328 4.33237 2.4439 4.33237C2.06597 4.44866 2.05628 4.45835 2.00783 4.8169C1.98844 5.08824 1 12.7341 1 12.7341L9.2952 14.1683L12.8904 13.2768C12.8807 13.2768 11.4174 3.36331 11.4077 3.29547ZM8.28733 2.52991C8.09353 2.58806 7.88033 2.65589 7.64777 2.73342C7.64777 2.40394 7.59931 1.93879 7.45395 1.55117C7.9482 1.62869 8.19047 2.19075 8.28733 2.52991ZM7.21169 2.8594C6.77561 2.99507 6.30077 3.14043 5.82593 3.28579C5.96159 2.77218 6.21355 2.26827 6.52365 1.9291C6.63994 1.80312 6.80468 1.66745 6.9888 1.58993C7.18261 1.96786 7.22137 2.50085 7.21169 2.8594ZM6.32015 1.14416C6.4752 1.14416 6.60118 1.17323 6.70777 1.25075C6.53334 1.33797 6.35891 1.47364 6.20386 1.64807C5.78717 2.09384 5.46737 2.78187 5.34139 3.45053C4.94408 3.5765 4.55645 3.69279 4.20759 3.79939C4.44017 2.74311 5.32201 1.17323 6.32015 1.14416Z" fill="#95BF47"/>
<path d="M11.2914 3.18909C11.243 3.18909 10.2836 3.16971 10.2836 3.16971C10.2836 3.16971 9.47923 2.39446 9.40177 2.30724C9.3727 2.27817 9.3339 2.25879 9.29517 2.25879V14.1686L12.8904 13.277C12.8904 13.277 11.4271 3.36352 11.4174 3.29568C11.398 3.22785 11.3398 3.18909 11.2914 3.18909Z" fill="#5E8E3E"/>
<path d="M7.29891 5.03979L6.88222 6.59998C6.88222 6.59998 6.41707 6.38679 5.8647 6.42555C5.05069 6.474 5.05069 6.98761 5.05069 7.11358C5.09915 7.81132 6.93067 7.96639 7.03727 9.60405C7.11479 10.8929 6.35893 11.7748 5.25419 11.8426C3.93627 11.9105 3.20947 11.1352 3.20947 11.1352L3.4905 9.94325C3.4905 9.94325 4.22699 10.4956 4.80843 10.4569C5.18636 10.4375 5.33172 10.1177 5.31234 9.90445C5.25419 8.99359 3.76184 9.05172 3.66493 7.54965C3.58741 6.28988 4.41111 5.02041 6.23295 4.90412C6.94036 4.85567 7.29891 5.03979 7.29891 5.03979Z" fill="white"/>
</g>
<defs>
<clipPath id="clip0_4_3041">
<rect width="14" height="14" fill="white" transform="translate(0 0.70752)"/>
</clipPath>
</defs>
</svg>
