<svg width="14" height="15" viewBox="0 0 14 15" fill="none" xmlns="http://www.w3.org/2000/svg">
<g clip-path="url(#clip0_4_3041)">
<path d="M11.4077 2.8277C11.398 2.75987 11.3399 2.72111 11.2915 2.72111C11.243 2.72111 10.2836 2.70173 10.2836 2.70173C10.2836 2.70173 9.47927 1.92647 9.40173 1.83926C9.32427 1.76173 9.1692 1.78111 9.11107 1.80049C9.11107 1.80049 8.956 1.84895 8.70407 1.92647C8.66527 1.79081 8.59747 1.62607 8.5102 1.45163C8.2292 0.908959 7.8028 0.61824 7.2989 0.61824C7.26014 0.61824 7.23107 0.61824 7.19231 0.627931C7.17293 0.608549 7.16323 0.589168 7.14385 0.579477C6.92097 0.346903 6.63994 0.230615 6.30077 0.240306C5.6515 0.259687 5.00223 0.734527 4.46924 1.56792C4.101 2.15905 3.81997 2.89553 3.73275 3.46728C2.98658 3.69986 2.46328 3.8646 2.4439 3.8646C2.06597 3.98089 2.05628 3.99057 2.00783 4.34913C1.98844 4.62047 1 12.2663 1 12.2663L9.2952 13.7005L12.8904 12.809C12.8807 12.809 11.4174 2.89553 11.4077 2.8277ZM8.28733 2.06214C8.09353 2.12029 7.88033 2.18812 7.64777 2.26565C7.64777 1.93617 7.59931 1.47101 7.45395 1.08339C7.9482 1.16091 8.19047 1.72297 8.28733 2.06214ZM7.21169 2.39163C6.77561 2.52729 6.30077 2.67265 5.82593 2.81801C5.96159 2.30441 6.21355 1.80049 6.52365 1.46133C6.63994 1.33535 6.80468 1.19968 6.9888 1.12215C7.18261 1.50009 7.22137 2.03307 7.21169 2.39163ZM6.32015 0.676383C6.4752 0.676383 6.60118 0.705455 6.70777 0.78298C6.53334 0.870196 6.35891 1.00587 6.20386 1.18029C5.78717 1.62607 5.46737 2.3141 5.34139 2.98275C4.94408 3.10873 4.55645 3.22502 4.20759 3.33161C4.44017 2.27533 5.32201 0.705455 6.32015 0.676383Z" fill="#95BF47"/>
<path d="M11.2914 2.72132C11.243 2.72132 10.2836 2.70194 10.2836 2.70194C10.2836 2.70194 9.47923 1.92668 9.40177 1.83947C9.3727 1.8104 9.3339 1.79102 9.29517 1.79102V13.7008L12.8904 12.8093C12.8904 12.8093 11.4271 2.89574 11.4174 2.82791C11.398 2.76008 11.3398 2.72132 11.2914 2.72132Z" fill="#5E8E3E"/>
<path d="M7.29891 4.57201L6.88222 6.13221C6.88222 6.13221 6.41707 5.91901 5.8647 5.95777C5.05069 6.00623 5.05069 6.51983 5.05069 6.64581C5.09915 7.34355 6.93067 7.49861 7.03727 9.13628C7.11479 10.4251 6.35893 11.307 5.25419 11.3748C3.93627 11.4427 3.20947 10.6674 3.20947 10.6674L3.4905 9.47548C3.4905 9.47548 4.22699 10.0278 4.80843 9.98908C5.18636 9.96968 5.33172 9.64988 5.31234 9.43668C5.25419 8.52581 3.76184 8.58395 3.66493 7.08188C3.58741 5.82211 4.41111 4.55263 6.23295 4.43635C6.94036 4.38789 7.29891 4.57201 7.29891 4.57201Z" fill="white"/>
</g>
<defs>
<clipPath id="clip0_4_3041">
<rect width="14" height="14" fill="white" transform="translate(0 0.239746)"/>
</clipPath>
</defs>
</svg>
