<svg width="14" height="15" viewBox="0 0 14 15" fill="none" xmlns="http://www.w3.org/2000/svg">
<g clip-path="url(#clip0_4_3007)">
<path d="M7 0.660765C7.88837 0.660765 8.74944 0.835082 9.56228 1.17741C9.95288 1.34333 10.3289 1.54706 10.6795 1.78438C11.0282 2.0196 11.3558 2.29053 11.6541 2.58876C11.9523 2.88699 12.2232 3.21462 12.4585 3.56325C12.6958 3.91399 12.8995 4.29203 13.0654 4.68056C13.4077 5.49125 13.582 6.35233 13.582 7.24282C13.582 8.13329 13.4077 8.99226 13.0654 9.8051C12.8995 10.1957 12.6958 10.5717 12.4585 10.9224C12.2232 11.271 11.9523 11.5986 11.6541 11.8969C11.3558 12.1951 11.0282 12.466 10.6795 12.7013C10.3289 12.9386 9.95078 13.1423 9.56228 13.3083C8.75154 13.6506 7.89047 13.8249 7 13.8249C6.11161 13.8249 5.25053 13.6506 4.43774 13.3083C4.04711 13.1423 3.67116 12.9386 3.32043 12.7013C2.97179 12.466 2.64417 12.1951 2.34593 11.8969C2.0477 11.5986 1.77677 11.271 1.54155 10.9224C1.30423 10.5717 1.10051 10.1936 0.934591 9.8051C0.594359 8.99226 0.420042 8.12909 0.420042 7.24072C0.420042 6.35233 0.594359 5.49125 0.936691 4.67846C1.10261 4.28783 1.30633 3.91189 1.54365 3.56115C1.77887 3.21252 2.0498 2.88489 2.34804 2.58665C2.64627 2.28843 2.97389 2.0175 3.32253 1.78228C3.67326 1.54496 4.05131 1.34123 4.43984 1.17531C5.25052 0.835082 6.11161 0.660765 7 0.660765ZM7 0.240723C3.13351 0.240723 0 3.37424 0 7.24072C0 11.1072 3.13351 14.2407 7 14.2407C10.8665 14.2407 14 11.1072 14 7.24072C14.0021 3.37424 10.8665 0.240723 7 0.240723Z" fill="#32373C"/>
<path d="M1.16785 7.241C1.16785 9.54911 2.50988 11.5464 4.45678 12.4915L1.674 4.86774C1.34846 5.59231 1.16785 6.3967 1.16785 7.241ZM10.9401 6.94695C10.9401 6.22657 10.6818 5.72673 10.4592 5.33819C10.1631 4.85724 9.88579 4.4498 9.88579 3.97095C9.88579 3.43539 10.2933 2.93555 10.8645 2.93555C10.8897 2.93555 10.9149 2.93765 10.9401 2.93975C9.90259 1.98835 8.51855 1.40869 7.00011 1.40869C4.96292 1.40869 3.16935 2.4546 2.12554 4.03816C2.26206 4.04236 2.39227 4.04446 2.50148 4.04446C3.11054 4.04446 4.05563 3.97095 4.05563 3.97095C4.37067 3.95205 4.40637 4.41409 4.09344 4.4519C4.09344 4.4519 3.77631 4.48971 3.42557 4.50651L5.55098 10.8261L6.82791 6.99735L5.91852 4.50651C5.60349 4.4876 5.30736 4.4519 5.30736 4.4519C4.99233 4.433 5.03013 3.95205 5.34517 3.97095C5.34517 3.97095 6.30916 4.04446 6.88252 4.04446C7.49158 4.04446 8.43665 3.97095 8.43665 3.97095C8.75172 3.95205 8.78742 4.41409 8.47445 4.4519C8.47445 4.4519 8.15735 4.48971 7.80658 4.50651L9.91309 10.7778L10.5159 8.87074C10.7826 8.03697 10.9401 7.4468 10.9401 6.94695ZM7.10301 7.7513L5.35147 12.8381C5.87442 12.9914 6.42677 13.0754 7.00011 13.0754C7.67848 13.0754 8.33165 12.9578 8.93652 12.7457C8.92182 12.7205 8.90712 12.6931 8.89452 12.6658L7.10301 7.7513ZM12.1205 4.4435C12.1457 4.62832 12.1604 4.82783 12.1604 5.04416C12.1604 5.63642 12.049 6.30218 11.7172 7.13387L9.93409 12.2836C11.6689 11.2733 12.8345 9.39371 12.8345 7.241C12.8345 6.22657 12.5762 5.27308 12.1205 4.4435Z" fill="#32373C"/>
</g>
<defs>
<clipPath id="clip0_4_3007">
<rect width="14" height="14" fill="white" transform="translate(0 0.240723)"/>
</clipPath>
</defs>
</svg>
