<svg width="24" height="24" viewBox="0 0 24 24" fill="none" xmlns="http://www.w3.org/2000/svg">
<g clip-path="url(#clip0_4_2644)">
<mask id="mask0_4_2644" style="mask-type:luminance" maskUnits="userSpaceOnUse" x="0" y="0" width="24" height="24">
<path d="M23.085 0.479492H0.0450439V23.5195H23.085V0.479492Z" fill="white"/>
</mask>
<g mask="url(#mask0_4_2644)">
<path fill-rule="evenodd" clip-rule="evenodd" d="M0.0450439 4.31937C0.0450439 3.78919 0.47485 3.35938 1.00505 3.35938H5.80505C6.33524 3.35938 6.76505 3.78919 6.76505 4.31937V19.6794C6.76505 20.2096 6.33524 20.6394 5.80505 20.6394H1.00504C0.47485 20.6394 0.0450439 20.2096 0.0450439 19.6794V4.31937ZM16.3651 4.31937C16.3651 3.78919 16.7949 3.35938 17.3251 3.35938H22.1251C22.6553 3.35938 23.0851 3.78919 23.0851 4.31937V15.8394C23.0851 16.3696 22.6553 16.7994 22.1251 16.7994H17.3251C16.7949 16.7994 16.3651 16.3696 16.3651 15.8394V4.31937ZM9.64507 3.35938C9.11485 3.35938 8.68505 3.78919 8.68505 4.31937V11.9994C8.68505 12.5296 9.11485 12.9594 9.64507 12.9594H13.4851C14.0153 12.9594 14.4451 12.5296 14.4451 11.9994V4.31937C14.4451 3.78919 14.0153 3.35938 13.4851 3.35938H9.64507Z" fill="white"/>
</g>
</g>
<defs>
<clipPath id="clip0_4_2644">
<rect width="24" height="24" fill="white"/>
</clipPath>
</defs>
</svg>
