<svg width="14" height="15" viewBox="0 0 14 15" fill="none" xmlns="http://www.w3.org/2000/svg">
<g clip-path="url(#clip0_4_3020)">
<path d="M5.82721 3.07429C6.27827 2.60032 6.90623 2.30637 7.60074 2.30637C8.52398 2.30637 9.32951 2.82555 9.75843 3.59629C10.1312 3.42832 10.5438 3.33489 10.978 3.33489C12.6431 3.33489 13.9931 4.70819 13.9931 6.40215C13.9931 8.09633 12.6431 9.46961 10.978 9.46961C10.7747 9.46961 10.5761 9.44914 10.384 9.40994C10.0063 10.0895 9.28646 10.5485 8.46023 10.5485C8.11437 10.5485 7.78723 10.468 7.49598 10.3247C7.11302 11.2331 6.22087 11.87 5.1811 11.87C4.09829 11.87 3.17545 11.1791 2.82122 10.21C2.66641 10.2432 2.50603 10.2604 2.34147 10.2604C1.05224 10.2604 0.00708008 9.19557 0.00708008 7.88172C0.00708008 7.0013 0.476667 6.23258 1.17437 5.82129C1.03073 5.48796 0.950836 5.12007 0.950836 4.7333C0.950836 3.22237 2.16714 1.99756 3.66735 1.99756C4.54815 1.99756 5.33093 2.41989 5.82721 3.07429Z" fill="#00A1E0"/>
<path d="M2.0327 7.11759C2.02393 7.14069 2.03589 7.14551 2.03868 7.14953C2.06498 7.16882 2.09168 7.18269 2.11857 7.19816C2.26122 7.2745 2.3959 7.29681 2.53675 7.29681C2.82365 7.29681 3.00176 7.1429 3.00176 6.89517V6.89034C3.00176 6.66129 2.80074 6.57811 2.61207 6.51804L2.58756 6.51C2.44531 6.46338 2.32258 6.4232 2.32258 6.32877V6.32375C2.32258 6.24298 2.3943 6.1835 2.50548 6.1835C2.629 6.1835 2.77564 6.22489 2.87007 6.27753C2.87007 6.27753 2.89776 6.29562 2.90792 6.26849C2.9135 6.25403 2.96132 6.12423 2.9663 6.11016C2.97168 6.0949 2.96212 6.08365 2.95235 6.07762C2.84457 6.01152 2.69554 5.96631 2.54134 5.96631L2.51265 5.96651C2.25006 5.96651 2.06677 6.12644 2.06677 6.3557V6.36051C2.06677 6.60222 2.26899 6.68058 2.45846 6.73524L2.48894 6.74467C2.62701 6.78747 2.74595 6.82424 2.74595 6.92229V6.92711C2.74595 7.01672 2.66865 7.08343 2.54393 7.08343C2.49552 7.08343 2.34111 7.08242 2.17436 6.97613C2.15423 6.96428 2.14248 6.95564 2.12694 6.9462C2.11877 6.94098 2.09825 6.93194 2.08929 6.95926L2.0327 7.11759Z" fill="white"/>
<path d="M6.23268 7.11759C6.22387 7.14069 6.23583 7.14551 6.23863 7.14953C6.26494 7.16882 6.29165 7.18269 6.31854 7.19816C6.46117 7.2745 6.59586 7.29681 6.73674 7.29681C7.02362 7.29681 7.20171 7.1429 7.20171 6.89517V6.89034C7.20171 6.66129 7.00069 6.57811 6.81204 6.51804L6.78749 6.51C6.64527 6.46338 6.52254 6.4232 6.52254 6.32877V6.32375C6.52254 6.24298 6.59429 6.1835 6.70541 6.1835C6.82896 6.1835 6.97561 6.22489 7.07005 6.27753C7.07005 6.27753 7.0977 6.29562 7.10785 6.26849C7.11345 6.25403 7.16129 6.12423 7.16624 6.11016C7.17161 6.0949 7.16204 6.08365 7.1523 6.07762C7.0445 6.01152 6.89552 5.96631 6.74129 5.96631L6.71259 5.96651C6.45003 5.96651 6.26674 6.12644 6.26674 6.3557V6.36051C6.26674 6.60222 6.46893 6.68058 6.65839 6.73524L6.6889 6.74467C6.82698 6.78747 6.94609 6.82424 6.94609 6.92229V6.92711C6.94609 7.01672 6.86863 7.08343 6.74391 7.08343C6.69549 7.08343 6.54109 7.08242 6.37431 6.97613C6.35419 6.96428 6.34223 6.95604 6.32712 6.9462C6.32193 6.94278 6.2976 6.93334 6.28926 6.95926L6.23268 7.11759Z" fill="white"/>
<path d="M9.10003 6.63196C9.10003 6.772 9.07413 6.88231 9.02314 6.96027C8.97274 7.03742 8.89639 7.07499 8.79004 7.07499C8.68341 7.07499 8.60752 7.03762 8.55794 6.96027C8.50771 6.88251 8.48222 6.772 8.48222 6.63196C8.48222 6.49212 8.50771 6.38201 8.55794 6.30486C8.60752 6.22851 8.68341 6.19134 8.79004 6.19134C8.89639 6.19134 8.97275 6.22851 9.02332 6.30486C9.07413 6.38201 9.10003 6.49212 9.10003 6.63196ZM9.33949 6.37237C9.31598 6.2922 9.27934 6.22148 9.23052 6.16261C9.18169 6.10354 9.11992 6.05612 9.04665 6.02156C8.9735 5.9872 8.88705 5.96973 8.79004 5.96973C8.6928 5.96973 8.60635 5.9872 8.5332 6.02156C8.45988 6.05612 8.39816 6.10354 8.3491 6.16261C8.30051 6.22168 8.26388 6.2924 8.24014 6.37237C8.21686 6.45214 8.20508 6.53934 8.20508 6.63196C8.20508 6.72459 8.21686 6.81198 8.24014 6.89155C8.26388 6.97152 8.30034 7.04224 8.34934 7.10131C8.39816 7.16039 8.46011 7.2076 8.5332 7.24115C8.60653 7.27471 8.6928 7.29179 8.79004 7.29179C8.88705 7.29179 8.97333 7.27471 9.04665 7.24115C9.11974 7.2076 9.18169 7.16039 9.23052 7.10131C9.27934 7.04244 9.31598 6.97172 9.33949 6.89155C9.363 6.81179 9.37478 6.72438 9.37478 6.63196C9.37478 6.53954 9.363 6.45214 9.33949 6.37237Z" fill="white"/>
<path d="M11.306 7.03785C11.298 7.01434 11.2755 7.02318 11.2755 7.02318C11.2406 7.03665 11.2036 7.0491 11.1642 7.05533C11.1241 7.06156 11.0801 7.06477 11.0329 7.06477C10.9169 7.06477 10.8248 7.03001 10.7589 6.9613C10.6928 6.89259 10.6557 6.78147 10.6561 6.63118C10.6565 6.49436 10.6892 6.39149 10.748 6.31313C10.8064 6.23517 10.8952 6.19519 11.0137 6.19519C11.1125 6.19519 11.1879 6.20664 11.2668 6.23176C11.2668 6.23176 11.2857 6.23999 11.2947 6.21508C11.3155 6.15641 11.3311 6.11441 11.3534 6.04992C11.3598 6.03164 11.3442 6.0238 11.3387 6.02159C11.3076 6.00933 11.2343 5.98945 11.1789 5.98101C11.1271 5.97297 11.0665 5.96875 10.9992 5.96875C10.8986 5.96875 10.8089 5.98603 10.7322 6.02059C10.6557 6.05494 10.5908 6.10236 10.5394 6.16143C10.488 6.22051 10.4489 6.29123 10.4228 6.37119C10.3969 6.45096 10.3838 6.53856 10.3838 6.63118C10.3838 6.83151 10.4373 6.99345 10.5432 7.11199C10.6491 7.23094 10.8083 7.29141 11.0159 7.29141C11.1386 7.29141 11.2646 7.2663 11.355 7.23033C11.355 7.23033 11.3724 7.2219 11.3648 7.2016L11.306 7.03785Z" fill="white"/>
<path d="M11.7249 6.49775C11.7363 6.41999 11.7576 6.35529 11.7905 6.30486C11.8401 6.22831 11.9158 6.18632 12.0222 6.18632C12.1286 6.18632 12.1989 6.22851 12.2493 6.30486C12.2828 6.35529 12.2973 6.4228 12.3031 6.49775H11.7249ZM12.5312 6.32676C12.5109 6.24941 12.4605 6.17125 12.4274 6.13549C12.3752 6.07883 12.3242 6.03924 12.2736 6.01715C12.2075 5.98862 12.1282 5.96973 12.0413 5.96973C11.9401 5.96973 11.8482 5.98681 11.7737 6.02217C11.699 6.05753 11.6363 6.10575 11.5871 6.16583C11.5378 6.2257 11.5008 6.29703 11.4773 6.378C11.4536 6.45857 11.4417 6.54637 11.4417 6.639C11.4417 6.73323 11.454 6.82103 11.4785 6.89999C11.5032 6.97956 11.5426 7.04968 11.596 7.10775C11.6492 7.16621 11.7177 7.21202 11.7998 7.24397C11.8813 7.27571 11.9804 7.29219 12.0941 7.29199C12.3282 7.29119 12.4515 7.23854 12.5023 7.21021C12.5113 7.20519 12.5199 7.19635 12.5091 7.17103L12.4561 7.02135C12.4481 6.99905 12.4256 7.00728 12.4256 7.00728C12.3676 7.02898 12.2852 7.06796 12.0929 7.06756C11.9672 7.06736 11.874 7.02999 11.8156 6.97152C11.7556 6.91165 11.7263 6.82364 11.7211 6.69947L12.5318 6.70028C12.5318 6.70028 12.5531 6.69987 12.5554 6.67898C12.5561 6.67014 12.5832 6.51101 12.5312 6.32676Z" fill="white"/>
<path d="M5.23277 6.49775C5.24433 6.41999 5.26544 6.35529 5.29831 6.30486C5.34793 6.22831 5.42363 6.18632 5.53002 6.18632C5.63641 6.18632 5.70674 6.22851 5.75734 6.30486C5.79061 6.35529 5.80516 6.4228 5.81094 6.49775H5.23277ZM6.03888 6.32676C6.01853 6.24941 5.9683 6.17125 5.93528 6.13549C5.88308 6.07883 5.83206 6.03924 5.78145 6.01715C5.7153 5.98862 5.63601 5.96973 5.54915 5.96973C5.44814 5.96973 5.35609 5.98681 5.28158 6.02217C5.20687 6.05753 5.14411 6.10575 5.0949 6.16583C5.04569 6.2257 5.00864 6.29703 4.98512 6.378C4.96161 6.45857 4.94946 6.54637 4.94946 6.639C4.94946 6.73323 4.96181 6.82103 4.98632 6.89999C5.01102 6.97956 5.05047 7.04968 5.10387 7.10775C5.15706 7.16621 5.2256 7.21202 5.30768 7.24397C5.38916 7.27571 5.48818 7.29219 5.60194 7.29199C5.83606 7.29119 5.95938 7.23854 6.01018 7.21021C6.01911 7.20519 6.02768 7.19635 6.01695 7.17103L5.96416 7.02135C5.95599 6.99905 5.93348 7.00728 5.93348 7.00728C5.87549 7.02898 5.79321 7.06796 5.60055 7.06756C5.47503 7.06736 5.38179 7.02999 5.32342 6.97152C5.26345 6.91165 5.23416 6.82364 5.22898 6.69947L6.03964 6.70028C6.03964 6.70028 6.06099 6.69987 6.06315 6.67898C6.06397 6.67014 6.09103 6.51101 6.03888 6.32676Z" fill="white"/>
<path d="M3.48044 7.03343C3.44877 7.00791 3.44438 7.00148 3.43362 6.98501C3.41769 6.95989 3.40951 6.92413 3.40951 6.87872C3.40951 6.80679 3.43302 6.75515 3.48184 6.7204C3.48124 6.7206 3.55157 6.65911 3.71693 6.66132C3.83308 6.66293 3.93688 6.68021 3.93688 6.68021V7.05192C3.93688 7.05192 3.83408 7.07422 3.71813 7.08125C3.55316 7.0913 3.47985 7.03323 3.48044 7.03343ZM3.803 6.45899C3.77013 6.45659 3.72749 6.45518 3.67648 6.45518C3.60696 6.45518 3.53981 6.46402 3.47685 6.4811C3.4135 6.49818 3.35652 6.5249 3.30751 6.56026C3.2583 6.59583 3.21865 6.64123 3.18997 6.69508C3.16128 6.74893 3.14673 6.81242 3.14673 6.88355C3.14673 6.95588 3.15908 7.01876 3.18379 7.0702C3.20849 7.12184 3.24415 7.16483 3.28958 7.19798C3.3346 7.23114 3.39019 7.25545 3.45474 7.27011C3.51829 7.28479 3.59042 7.29222 3.66931 7.29222C3.75239 7.29222 3.83527 7.28539 3.91556 7.27153C3.99505 7.25786 4.09268 7.23797 4.11978 7.23174C4.14667 7.22531 4.17656 7.21707 4.17656 7.21707C4.19668 7.21205 4.19508 7.19035 4.19508 7.19035L4.19469 6.44272C4.19469 6.27877 4.15125 6.15721 4.06578 6.08187C3.98071 6.00673 3.8554 5.96875 3.69342 5.96875C3.63266 5.96875 3.53483 5.97719 3.47626 5.98904C3.47626 5.98904 3.29914 6.0236 3.22623 6.08107C3.22623 6.08107 3.21028 6.09111 3.21905 6.11362L3.27643 6.26913C3.2836 6.28922 3.30293 6.28239 3.30293 6.28239C3.30293 6.28239 3.30911 6.27998 3.31627 6.27576C3.47228 6.19017 3.66951 6.19278 3.66951 6.19278C3.75718 6.19278 3.82452 6.21046 3.86994 6.24562C3.91417 6.27978 3.93668 6.33141 3.93668 6.44031V6.47487C3.86695 6.46482 3.803 6.45899 3.803 6.45899Z" fill="white"/>
<path d="M10.3412 6.03753C10.3474 6.01904 10.3345 6.0102 10.3291 6.00819C10.3153 6.00277 10.2465 5.9881 10.1933 5.98468C10.0915 5.97845 10.0349 5.99573 9.98425 6.01864C9.93402 6.04155 9.87826 6.07851 9.84717 6.12051V6.02105C9.84717 6.00719 9.83742 5.99613 9.82389 5.99613H9.61605C9.60252 5.99613 9.59277 6.00719 9.59277 6.02105V7.24044C9.59277 7.2541 9.60391 7.26536 9.61745 7.26536H9.83042C9.84402 7.26536 9.85498 7.2541 9.85498 7.24044V6.63125C9.85498 6.54947 9.86391 6.4679 9.88187 6.41666C9.89937 6.36603 9.92329 6.32545 9.95275 6.29631C9.98244 6.26738 10.0162 6.24709 10.053 6.23563C10.0906 6.22398 10.1323 6.22016 10.1618 6.22016C10.2042 6.22016 10.2508 6.23121 10.2508 6.23121C10.2663 6.23302 10.2752 6.22338 10.2803 6.20911C10.2942 6.17174 10.3337 6.05983 10.3412 6.03753Z" fill="white"/>
<path d="M8.34223 5.47256C8.31633 5.46452 8.29282 5.45909 8.26214 5.45327C8.23105 5.44764 8.19401 5.44482 8.15195 5.44482C8.0053 5.44482 7.88974 5.48662 7.80866 5.569C7.72798 5.65097 7.67321 5.77574 7.64573 5.9399L7.63576 5.99515H7.45166C7.45166 5.99515 7.42931 5.99435 7.42453 6.01886L7.39449 6.18904C7.39227 6.20511 7.39927 6.21536 7.4208 6.21536H7.59988L7.41817 7.23845C7.40406 7.32083 7.38772 7.38854 7.36958 7.43998C7.35185 7.49061 7.33452 7.52858 7.313 7.55631C7.29229 7.58283 7.27275 7.60252 7.23886 7.61397C7.21097 7.62342 7.17871 7.62784 7.14342 7.62784C7.12394 7.62784 7.09781 7.62462 7.0785 7.6206C7.05936 7.61678 7.04921 7.61257 7.03469 7.60634C7.03469 7.60634 7.01375 7.5983 7.00535 7.6194C6.99881 7.63688 6.95098 7.76928 6.94521 7.78556C6.93961 7.80183 6.9476 7.81449 6.95775 7.81831C6.98166 7.82675 6.9994 7.83235 7.03189 7.84023C7.07692 7.85085 7.11496 7.85149 7.1506 7.85149C7.22515 7.85149 7.29328 7.84081 7.34963 7.82032C7.40621 7.79962 7.45562 7.76366 7.49949 7.71503C7.54668 7.66239 7.57637 7.60734 7.60466 7.532C7.63278 7.45766 7.65687 7.36523 7.67601 7.25754L7.85871 6.21536H8.12564C8.12564 6.21536 8.14816 6.21617 8.15276 6.19145L8.18304 6.02147C8.18502 6.0052 8.17826 5.99515 8.15656 5.99515H7.89732C7.89872 5.98932 7.91051 5.8973 7.94014 5.8107C7.95291 5.77393 7.97683 5.744 7.99696 5.72351C8.01685 5.70341 8.03977 5.68915 8.06491 5.68091C8.09058 5.67247 8.11986 5.66845 8.15195 5.66845C8.17627 5.66845 8.20036 5.67126 8.21851 5.67508C8.24359 5.68051 8.25333 5.68332 8.25992 5.68533C8.28641 5.69337 8.29002 5.68553 8.29521 5.67267L8.35716 5.50109C8.36352 5.4826 8.34777 5.47477 8.34223 5.47256Z" fill="white"/>
<path d="M4.72062 7.2407C4.72062 7.25437 4.71086 7.26541 4.69731 7.26541H4.48234C4.4688 7.26541 4.45923 7.25437 4.45923 7.2407V5.4959C4.45923 5.48224 4.4688 5.47119 4.48234 5.47119H4.69731C4.71086 5.47119 4.72062 5.48224 4.72062 5.4959V7.2407Z" fill="white"/>
</g>
<defs>
<clipPath id="clip0_4_3020">
<rect width="14" height="14" fill="white" transform="translate(0 0.240723)"/>
</clipPath>
</defs>
</svg>
