<svg width="14" height="15" viewBox="0 0 14 15" fill="none" xmlns="http://www.w3.org/2000/svg">
<g clip-path="url(#clip0_4_3041)">
<path d="M11.4077 2.99567C11.398 2.92783 11.3399 2.88907 11.2915 2.88907C11.243 2.88907 10.2836 2.86969 10.2836 2.86969C10.2836 2.86969 9.47927 2.09444 9.40173 2.00723C9.32427 1.9297 9.1692 1.94908 9.11107 1.96846C9.11107 1.96846 8.956 2.01691 8.70407 2.09444C8.66527 1.95877 8.59747 1.79403 8.5102 1.6196C8.2292 1.07693 7.8028 0.786209 7.2989 0.786209C7.26014 0.786209 7.23107 0.786209 7.19231 0.7959C7.17293 0.776518 7.16323 0.757137 7.14385 0.747446C6.92097 0.514872 6.63994 0.398584 6.30077 0.408274C5.6515 0.427656 5.00223 0.902496 4.46924 1.73589C4.101 2.32701 3.81997 3.0635 3.73275 3.63525C2.98658 3.86783 2.46328 4.03257 2.4439 4.03257C2.06597 4.14886 2.05628 4.15854 2.00783 4.5171C1.98844 4.78844 1 12.4343 1 12.4343L9.2952 13.8685L12.8904 12.977C12.8807 12.977 11.4174 3.0635 11.4077 2.99567ZM8.28733 2.23011C8.09353 2.28825 7.88033 2.35609 7.64777 2.43361C7.64777 2.10413 7.59931 1.63898 7.45395 1.25136C7.9482 1.32888 8.19047 1.89094 8.28733 2.23011ZM7.21169 2.55959C6.77561 2.69526 6.30077 2.84062 5.82593 2.98598C5.96159 2.47237 6.21355 1.96846 6.52365 1.62929C6.63994 1.50331 6.80468 1.36765 6.9888 1.29012C7.18261 1.66805 7.22137 2.20104 7.21169 2.55959ZM6.32015 0.844352C6.4752 0.844352 6.60118 0.873424 6.70777 0.950949C6.53334 1.03816 6.35891 1.17383 6.20386 1.34826C5.78717 1.79403 5.46737 2.48207 5.34139 3.15072C4.94408 3.27669 4.55645 3.39299 4.20759 3.49958C4.44017 2.4433 5.32201 0.873424 6.32015 0.844352Z" fill="#95BF47"/>
<path d="M11.2914 2.88928C11.243 2.88928 10.2836 2.8699 10.2836 2.8699C10.2836 2.8699 9.47923 2.09465 9.40177 2.00744C9.3727 1.97836 9.3339 1.95898 9.29517 1.95898V13.8688L12.8904 12.9772C12.8904 12.9772 11.4271 3.06371 11.4174 2.99588C11.398 2.92804 11.3398 2.88928 11.2914 2.88928Z" fill="#5E8E3E"/>
<path d="M7.29891 4.73998L6.88222 6.30018C6.88222 6.30018 6.41707 6.08698 5.8647 6.12574C5.05069 6.1742 5.05069 6.6878 5.05069 6.81378C5.09915 7.51152 6.93067 7.66658 7.03727 9.30425C7.11479 10.5931 6.35893 11.475 5.25419 11.5428C3.93627 11.6106 3.20947 10.8354 3.20947 10.8354L3.4905 9.64345C3.4905 9.64345 4.22699 10.1958 4.80843 10.157C5.18636 10.1376 5.33172 9.81785 5.31234 9.60465C5.25419 8.69378 3.76184 8.75192 3.66493 7.24985C3.58741 5.99008 4.41111 4.7206 6.23295 4.60432C6.94036 4.55586 7.29891 4.73998 7.29891 4.73998Z" fill="white"/>
</g>
<defs>
<clipPath id="clip0_4_3041">
<rect width="14" height="14" fill="white" transform="translate(0 0.407715)"/>
</clipPath>
</defs>
</svg>
