<svg width="24" height="24" viewBox="0 0 24 24" fill="none" xmlns="http://www.w3.org/2000/svg">
<g clip-path="url(#clip0_4_3184)">
<path d="M10.4999 17C12.2238 17 13.8771 16.3152 15.0961 15.0962C16.3151 13.8772 16.9999 12.2239 16.9999 10.5C16.9999 8.77608 16.3151 7.12278 15.0961 5.9038C13.8771 4.68481 12.2238 3.99999 10.4999 3.99999C8.77602 3.99999 7.12272 4.68481 5.90373 5.9038C4.68475 7.12278 3.99993 8.77608 3.99993 10.5C3.99993 12.2239 4.68475 13.8772 5.90373 15.0962C7.12272 16.3152 8.77602 17 10.4999 17ZM17.1759 15.762L21.6559 20.242L20.2429 21.657L15.7619 17.176C14.0595 18.5178 11.9088 19.1585 9.7496 18.9671C7.59042 18.7757 5.58596 17.7666 4.14617 16.1462C2.70638 14.5258 1.94006 12.4165 2.00394 10.2498C2.06782 8.0831 2.95708 6.02266 4.48984 4.4899C6.0226 2.95714 8.08304 2.06788 10.2497 2.004C12.4164 1.94012 14.5257 2.70644 16.1461 4.14623C17.7665 5.58602 18.7756 7.59048 18.967 9.74966C19.1585 11.9088 18.5177 14.0596 17.1759 15.762Z" fill="#C1D1F7"/>
</g>
<defs>
<clipPath id="clip0_4_3184">
<rect width="24" height="24" fill="white"/>
</clipPath>
</defs>
</svg>
