<svg width="14" height="15" viewBox="0 0 14 15" fill="none" xmlns="http://www.w3.org/2000/svg">
<g clip-path="url(#clip0_4_3048)">
<mask id="mask0_4_3048" style="mask-type:luminance" maskUnits="userSpaceOnUse" x="0" y="3" width="14" height="9">
<path d="M13.9463 3.5415H0V11.8731H13.9463V3.5415Z" fill="white"/>
</mask>
<g mask="url(#mask0_4_3048)">
<path d="M1.29612 3.5415H12.6493C13.363 3.5415 13.9458 4.12646 13.9458 4.84809V9.19428C13.9458 9.9159 13.363 10.5009 12.6438 10.5009H8.57437L9.13544 11.873L6.67852 10.5009H1.30156C0.582461 10.5009 -0.000450404 9.9159 -0.000450404 9.19428V4.84809C-0.00589818 4.13193 0.577013 3.5415 1.29612 3.5415Z" fill="#9B5C8F"/>
<path d="M0.795557 4.72776C0.877275 4.61842 0.991679 4.56375 1.15511 4.55282C1.44384 4.53095 1.60728 4.66763 1.65086 4.96284C1.82518 6.14916 2.02131 7.16053 2.22287 7.98603L3.46496 5.6134C3.57937 5.39472 3.72101 5.28538 3.88989 5.27445C4.14049 5.25805 4.29303 5.41658 4.35295 5.75007C4.48914 6.5045 4.67437 7.14959 4.88683 7.69629C5.03392 6.25303 5.28452 5.20885 5.63317 4.56922C5.72034 4.41068 5.84564 4.32868 6.00907 4.31774C6.13982 4.3068 6.25967 4.34507 6.36863 4.43255C6.47758 4.52002 6.53206 4.62389 6.54295 4.75509C6.5484 4.85896 6.53206 4.94097 6.48847 5.02844C6.26512 5.43846 6.08534 6.12728 5.93825 7.08399C5.79661 8.01336 5.74758 8.735 5.78026 9.24889C5.79116 9.39102 5.76937 9.51676 5.71489 9.6261C5.64952 9.75184 5.54601 9.81744 5.41527 9.82837C5.26818 9.83931 5.11564 9.77371 4.96855 9.61517C4.44012 9.07394 4.02064 8.26484 3.71556 7.19333C3.34511 7.92043 3.07272 8.46712 2.8984 8.8334C2.56609 9.47849 2.2828 9.80651 2.0431 9.8229C1.89056 9.83384 1.75981 9.70264 1.64541 9.42929C1.35668 8.68579 1.04616 7.24253 0.708393 5.11045C0.681154 4.96284 0.71384 4.83163 0.795557 4.72776ZM12.9768 5.62433C12.7752 5.26352 12.4701 5.0503 12.067 4.96284C11.9581 4.94097 11.8546 4.93004 11.7619 4.93004C11.2171 4.93004 10.7759 5.21431 10.4272 5.78287C10.1331 6.26396 9.98597 6.79971 9.98597 7.38467C9.98597 7.82202 10.0785 8.19924 10.2583 8.51085C10.4599 8.87167 10.7649 9.08487 11.1681 9.17235C11.2771 9.19421 11.3805 9.20515 11.4732 9.20515C12.0234 9.20515 12.4647 8.92087 12.8079 8.35231C13.102 7.86576 13.2491 7.33001 13.2491 6.73958C13.2546 6.30222 13.1566 5.93048 12.9768 5.62433ZM12.2631 7.19879C12.1814 7.57601 12.0398 7.85482 11.8327 8.0407C11.6693 8.1883 11.5167 8.25391 11.3751 8.22111C11.239 8.19377 11.1245 8.0735 11.0428 7.84936C10.9774 7.67441 10.9393 7.49401 10.9393 7.33001C10.9393 7.18786 10.9502 7.04572 10.9774 6.91452C11.0265 6.67944 11.1245 6.4553 11.2771 6.23662C11.4623 5.95781 11.6638 5.84301 11.8654 5.88128C12.0016 5.90861 12.116 6.02888 12.1977 6.25303C12.2631 6.42796 12.3012 6.60837 12.3012 6.77238C12.3012 6.92546 12.2904 7.06759 12.2631 7.19879ZM9.43025 5.62433C9.22874 5.26352 8.91818 5.0503 8.5205 4.96284C8.41155 4.94097 8.30803 4.93004 8.21542 4.93004C7.67064 4.93004 7.22937 5.21431 6.88071 5.78287C6.58654 6.26396 6.43945 6.79971 6.43945 7.38467C6.43945 7.82202 6.53206 8.19924 6.71183 8.51085C6.9134 8.87167 7.21848 9.08487 7.62161 9.17235C7.73057 9.19421 7.83408 9.20515 7.92669 9.20515C8.47694 9.20515 8.91818 8.92087 9.26143 8.35231C9.55559 7.86576 9.70268 7.33001 9.70268 6.73958C9.70268 6.30222 9.61003 5.93048 9.43025 5.62433ZM8.71115 7.19879C8.62945 7.57601 8.48781 7.85482 8.28077 8.0407C8.11736 8.1883 7.96482 8.25391 7.82319 8.22111C7.68699 8.19377 7.57259 8.0735 7.49087 7.84936C7.42549 7.67441 7.38736 7.49401 7.38736 7.33001C7.38736 7.18786 7.39825 7.04572 7.42549 6.91452C7.47453 6.67944 7.57259 6.4553 7.72512 6.23662C7.91035 5.95781 8.11191 5.84301 8.31347 5.88128C8.44968 5.90861 8.56407 6.02888 8.64576 6.25303C8.71115 6.42796 8.74928 6.60837 8.74928 6.77238C8.75471 6.92546 8.73841 7.06759 8.71115 7.19879Z" fill="white"/>
</g>
</g>
<defs>
<clipPath id="clip0_4_3048">
<rect width="14" height="14" fill="white" transform="translate(0 0.70752)"/>
</clipPath>
</defs>
</svg>
