<svg width="14" height="15" viewBox="0 0 14 15" fill="none" xmlns="http://www.w3.org/2000/svg">
<g clip-path="url(#clip0_4_3048)">
<mask id="mask0_4_3048" style="mask-type:luminance" maskUnits="userSpaceOnUse" x="0" y="3" width="14" height="9">
<path d="M13.9463 3.30811H0V11.6397H13.9463V3.30811Z" fill="white"/>
</mask>
<g mask="url(#mask0_4_3048)">
<path d="M1.29612 3.30811H12.6493C13.363 3.30811 13.9458 3.89306 13.9458 4.61469V8.96088C13.9458 9.68251 13.363 10.2675 12.6438 10.2675H8.57437L9.13544 11.6396L6.67852 10.2675H1.30156C0.582461 10.2675 -0.000450404 9.68251 -0.000450404 8.96088V4.61469C-0.00589818 3.89853 0.577013 3.30811 1.29612 3.30811Z" fill="#9B5C8F"/>
<path d="M0.795557 4.49436C0.877275 4.38502 0.991679 4.33036 1.15511 4.31942C1.44384 4.29755 1.60728 4.43423 1.65086 4.72944C1.82518 5.91576 2.02131 6.92713 2.22287 7.75263L3.46496 5.38C3.57937 5.16132 3.72101 5.05198 3.88989 5.04105C4.14049 5.02465 4.29303 5.18319 4.35295 5.51667C4.48914 6.2711 4.67437 6.9162 4.88683 7.46289C5.03392 6.01963 5.28452 4.97545 5.63317 4.33582C5.72034 4.17728 5.84564 4.09528 6.00907 4.08434C6.13982 4.07341 6.25967 4.11168 6.36863 4.19915C6.47758 4.28662 6.53206 4.39049 6.54295 4.52169C6.5484 4.62557 6.53206 4.70757 6.48847 4.79504C6.26512 5.20506 6.08534 5.89388 5.93825 6.85059C5.79661 7.77996 5.74758 8.5016 5.78026 9.01549C5.79116 9.15762 5.76937 9.28337 5.71489 9.3927C5.64952 9.51844 5.54601 9.58404 5.41527 9.59497C5.26818 9.60591 5.11564 9.54031 4.96855 9.38177C4.44012 8.84055 4.02064 8.03144 3.71556 6.95993C3.34511 7.68703 3.07272 8.23372 2.8984 8.6C2.56609 9.2451 2.2828 9.57311 2.0431 9.5895C1.89056 9.60044 1.75981 9.46924 1.64541 9.19589C1.35668 8.45239 1.04616 7.00913 0.708393 4.87705C0.681154 4.72944 0.71384 4.59823 0.795557 4.49436ZM12.9768 5.39093C12.7752 5.03012 12.4701 4.8169 12.067 4.72944C11.9581 4.70757 11.8546 4.69664 11.7619 4.69664C11.2171 4.69664 10.7759 4.98091 10.4272 5.54948C10.1331 6.03056 9.98597 6.56631 9.98597 7.15127C9.98597 7.58863 10.0785 7.96584 10.2583 8.27745C10.4599 8.63827 10.7649 8.85147 11.1681 8.93895C11.2771 8.96081 11.3805 8.97175 11.4732 8.97175C12.0234 8.97175 12.4647 8.68747 12.8079 8.11891C13.102 7.63236 13.2491 7.09661 13.2491 6.50618C13.2546 6.06883 13.1566 5.69708 12.9768 5.39093ZM12.2631 6.96539C12.1814 7.34261 12.0398 7.62143 11.8327 7.8073C11.6693 7.95491 11.5167 8.02051 11.3751 7.98771C11.239 7.96037 11.1245 7.8401 11.0428 7.61596C10.9774 7.44102 10.9393 7.26061 10.9393 7.09661C10.9393 6.95447 10.9502 6.81232 10.9774 6.68112C11.0265 6.44604 11.1245 6.2219 11.2771 6.00322C11.4623 5.72441 11.6638 5.60961 11.8654 5.64788C12.0016 5.67521 12.116 5.79548 12.1977 6.01963C12.2631 6.19456 12.3012 6.37497 12.3012 6.53898C12.3012 6.69206 12.2904 6.83419 12.2631 6.96539ZM9.43025 5.39093C9.22874 5.03012 8.91818 4.8169 8.5205 4.72944C8.41155 4.70757 8.30803 4.69664 8.21542 4.69664C7.67064 4.69664 7.22937 4.98091 6.88071 5.54948C6.58654 6.03056 6.43945 6.56631 6.43945 7.15127C6.43945 7.58863 6.53206 7.96584 6.71183 8.27745C6.9134 8.63827 7.21848 8.85147 7.62161 8.93895C7.73057 8.96081 7.83408 8.97175 7.92669 8.97175C8.47694 8.97175 8.91818 8.68747 9.26143 8.11891C9.55559 7.63236 9.70268 7.09661 9.70268 6.50618C9.70268 6.06883 9.61003 5.69708 9.43025 5.39093ZM8.71115 6.96539C8.62945 7.34261 8.48781 7.62143 8.28077 7.8073C8.11736 7.95491 7.96482 8.02051 7.82319 7.98771C7.68699 7.96037 7.57259 7.8401 7.49087 7.61596C7.42549 7.44102 7.38736 7.26061 7.38736 7.09661C7.38736 6.95447 7.39825 6.81232 7.42549 6.68112C7.47453 6.44604 7.57259 6.2219 7.72512 6.00322C7.91035 5.72441 8.11191 5.60961 8.31347 5.64788C8.44968 5.67521 8.56407 5.79548 8.64576 6.01963C8.71115 6.19456 8.74928 6.37497 8.74928 6.53898C8.75471 6.69206 8.73841 6.83419 8.71115 6.96539Z" fill="white"/>
</g>
</g>
<defs>
<clipPath id="clip0_4_3048">
<rect width="14" height="14" fill="white" transform="translate(0 0.474121)"/>
</clipPath>
</defs>
</svg>
