<svg width="25" height="25" viewBox="0 0 25 25" fill="none" xmlns="http://www.w3.org/2000/svg">
<g clip-path="url(#clip0_101_1755)">
<mask id="mask0_101_1755" style="mask-type:luminance" maskUnits="userSpaceOnUse" x="0" y="1" width="25" height="24">
<path d="M24.02 1.32275H0.97998V24.3628H24.02V1.32275Z" fill="white"/>
</mask>
<g mask="url(#mask0_101_1755)">
<path fill-rule="evenodd" clip-rule="evenodd" d="M9.07764 8.98033C9.686 7.27721 10.9177 5.87029 12.4979 5.03432C12.4302 2.97223 10.7386 1.32275 8.65999 1.32275C6.53838 1.32275 4.81998 3.04115 4.81998 5.16275C4.81998 7.28435 6.53838 9.00275 8.65999 9.00275C8.80111 9.00275 8.94047 8.99515 9.07764 8.98033ZM8.65999 11.4027C8.65999 11.2414 8.66528 11.0814 8.67573 10.9227H8.65999C6.09679 10.9227 0.97998 12.2091 0.97998 14.7627V16.6827H10.9649C9.54719 15.3678 8.65999 13.4889 8.65999 11.4027ZM15.86 15.7227C18.2468 15.7227 20.18 13.7896 20.18 11.4027C20.18 9.01595 18.2468 7.08275 15.86 7.08275C13.4732 7.08275 11.54 9.01595 11.54 11.4027C11.54 13.7896 13.4732 15.7227 15.86 15.7227ZM15.38 17.6427C12.4964 17.6427 6.73998 19.1436 6.73998 22.1228V24.3627H24.02V22.1228C24.02 19.1436 18.2636 17.6427 15.38 17.6427Z" fill="white"/>
</g>
</g>
<defs>
<clipPath id="clip0_101_1755">
<rect width="24" height="24" fill="white" transform="translate(0.5 0.367676)"/>
</clipPath>
</defs>
</svg>
