<svg width="14" height="15" viewBox="0 0 14 15" fill="none" xmlns="http://www.w3.org/2000/svg">
<g clip-path="url(#clip0_4_3048)">
<mask id="mask0_4_3048" style="mask-type:luminance" maskUnits="userSpaceOnUse" x="0" y="3" width="14" height="9">
<path d="M13.9463 3.05371H0V11.3853H13.9463V3.05371Z" fill="white"/>
</mask>
<g mask="url(#mask0_4_3048)">
<path d="M1.296 3.05371H12.6492C13.3628 3.05371 13.9457 3.63867 13.9457 4.3603V8.70649C13.9457 9.42811 13.3628 10.0131 12.6437 10.0131H8.57425L9.13532 11.3853L6.6784 10.0131H1.30144C0.582339 10.0131 -0.000572475 9.42811 -0.000572475 8.70649V4.3603C-0.00602025 3.64413 0.576891 3.05371 1.296 3.05371Z" fill="#9B5C8F"/>
<path d="M0.795435 4.23997C0.877153 4.13063 0.991557 4.07596 1.15499 4.06502C1.44372 4.04316 1.60715 4.17983 1.65073 4.47504C1.82506 5.66136 2.02118 6.67274 2.22275 7.49824L3.46484 5.12561C3.57924 4.90693 3.72089 4.79759 3.88977 4.78666C4.14036 4.77025 4.29291 4.92879 4.35283 5.26228C4.48902 6.01671 4.67425 6.6618 4.88671 7.20849C5.0338 5.76523 5.2844 4.72106 5.63305 4.08143C5.72022 3.92288 5.84552 3.84088 6.00895 3.82995C6.13969 3.81901 6.25955 3.85728 6.3685 3.94476C6.47746 4.03222 6.53193 4.1361 6.54283 4.2673C6.54828 4.37117 6.53193 4.45318 6.48835 4.54065C6.265 4.95066 6.08522 5.63949 5.93813 6.5962C5.79649 7.52557 5.74746 8.2472 5.78014 8.76109C5.79104 8.90323 5.76925 9.02897 5.71477 9.1383C5.6494 9.26405 5.54589 9.32965 5.41515 9.34058C5.26805 9.35152 5.11552 9.28591 4.96843 9.12738C4.44 8.58615 4.02052 7.77705 3.71544 6.70554C3.34499 7.43263 3.0726 7.97933 2.89828 8.34561C2.56596 8.9907 2.28268 9.31871 2.04297 9.33511C1.89044 9.34605 1.75969 9.21484 1.64528 8.9415C1.35655 8.198 1.04603 6.75474 0.708271 4.62265C0.681032 4.47504 0.713718 4.34384 0.795435 4.23997ZM12.9767 5.13654C12.7751 4.77572 12.47 4.56251 12.0669 4.47504C11.958 4.45318 11.8544 4.44224 11.7618 4.44224C11.217 4.44224 10.7758 4.72652 10.4271 5.29508C10.1329 5.77616 9.98585 6.31192 9.98585 6.89688C9.98585 7.33423 10.0784 7.71145 10.2582 8.02306C10.4598 8.38388 10.7648 8.59708 11.168 8.68456C11.277 8.70642 11.3804 8.71736 11.4731 8.71736C12.0233 8.71736 12.4646 8.43307 12.8078 7.86452C13.1019 7.37797 13.249 6.84221 13.249 6.25178C13.2545 5.81443 13.1564 5.44268 12.9767 5.13654ZM12.263 6.711C12.1813 7.08822 12.0396 7.36703 11.8326 7.5529C11.6692 7.70051 11.5166 7.76611 11.375 7.73331C11.2388 7.70598 11.1244 7.5857 11.0427 7.36156C10.9773 7.18662 10.9392 7.00622 10.9392 6.84221C10.9392 6.70007 10.9501 6.55793 10.9773 6.42673C11.0264 6.19165 11.1244 5.96751 11.277 5.74883C11.4622 5.47002 11.6637 5.35521 11.8653 5.39348C12.0015 5.42082 12.1159 5.54109 12.1976 5.76523C12.263 5.94017 12.3011 6.12058 12.3011 6.28458C12.3011 6.43766 12.2902 6.57979 12.263 6.711ZM9.43013 5.13654C9.22861 4.77572 8.91806 4.56251 8.52038 4.47504C8.41143 4.45318 8.30791 4.44224 8.2153 4.44224C7.67052 4.44224 7.22925 4.72652 6.88059 5.29508C6.58642 5.77616 6.43933 6.31192 6.43933 6.89688C6.43933 7.33423 6.53193 7.71145 6.71171 8.02306C6.91328 8.38388 7.21835 8.59708 7.62149 8.68456C7.73045 8.70642 7.83396 8.71736 7.92656 8.71736C8.47681 8.71736 8.91806 8.43307 9.26131 7.86452C9.55547 7.37797 9.70255 6.84221 9.70255 6.25178C9.70255 5.81443 9.60991 5.44268 9.43013 5.13654ZM8.71103 6.711C8.62933 7.08822 8.48768 7.36703 8.28065 7.5529C8.11724 7.70051 7.9647 7.76611 7.82306 7.73331C7.68687 7.70598 7.57246 7.5857 7.49074 7.36156C7.42537 7.18662 7.38723 7.00622 7.38723 6.84221C7.38723 6.70007 7.39813 6.55793 7.42537 6.42673C7.47441 6.19165 7.57246 5.96751 7.725 5.74883C7.91023 5.47002 8.11179 5.35521 8.31334 5.39348C8.44955 5.42082 8.56394 5.54109 8.64564 5.76523C8.71103 5.94017 8.74916 6.12058 8.74916 6.28458C8.75459 6.43766 8.73828 6.57979 8.71103 6.711Z" fill="white"/>
</g>
</g>
<defs>
<clipPath id="clip0_4_3048">
<rect width="14" height="14" fill="white" transform="translate(0 0.219727)"/>
</clipPath>
</defs>
</svg>
