<svg width="14" height="15" viewBox="0 0 14 15" fill="none" xmlns="http://www.w3.org/2000/svg">
<g clip-path="url(#clip0_4_3041)">
<path d="M11.4077 2.80719C11.398 2.73936 11.3399 2.7006 11.2915 2.7006C11.243 2.7006 10.2836 2.68122 10.2836 2.68122C10.2836 2.68122 9.47927 1.90597 9.40173 1.81875C9.32427 1.74123 9.1692 1.7606 9.11107 1.77998C9.11107 1.77998 8.956 1.82844 8.70407 1.90597C8.66527 1.7703 8.59747 1.60556 8.5102 1.43112C8.2292 0.888452 7.8028 0.597732 7.2989 0.597732C7.26014 0.597732 7.23107 0.597732 7.19231 0.607423C7.17293 0.588042 7.16323 0.56866 7.14385 0.55897C6.92097 0.326395 6.63994 0.210107 6.30077 0.219798C5.6515 0.239179 5.00223 0.71402 4.46924 1.54741C4.101 2.13854 3.81997 2.87503 3.73275 3.44677C2.98658 3.67935 2.46328 3.84409 2.4439 3.84409C2.06597 3.96038 2.05628 3.97007 2.00783 4.32862C1.98844 4.59996 1 12.2458 1 12.2458L9.2952 13.68L12.8904 12.7885C12.8807 12.7885 11.4174 2.87503 11.4077 2.80719ZM8.28733 2.04163C8.09353 2.09978 7.88033 2.16761 7.64777 2.24514C7.64777 1.91566 7.59931 1.45051 7.45395 1.06288C7.9482 1.1404 8.19047 1.70246 8.28733 2.04163ZM7.21169 2.37112C6.77561 2.50678 6.30077 2.65214 5.82593 2.7975C5.96159 2.2839 6.21355 1.77999 6.52365 1.44082C6.63994 1.31484 6.80468 1.17917 6.9888 1.10164C7.18261 1.47958 7.22137 2.01256 7.21169 2.37112ZM6.32015 0.655876C6.4752 0.655876 6.60118 0.684948 6.70777 0.762472C6.53334 0.849688 6.35891 0.985358 6.20386 1.15978C5.78717 1.60556 5.46737 2.29359 5.34139 2.96225C4.94408 3.08822 4.55645 3.20451 4.20759 3.31111C4.44017 2.25483 5.32201 0.684948 6.32015 0.655876Z" fill="#95BF47"/>
<path d="M11.2914 2.70081C11.243 2.70081 10.2836 2.68143 10.2836 2.68143C10.2836 2.68143 9.47923 1.90617 9.40177 1.81896C9.3727 1.78989 9.3339 1.77051 9.29517 1.77051V13.6803L12.8904 12.7887C12.8904 12.7887 11.4271 2.87523 11.4174 2.8074C11.398 2.73957 11.3398 2.70081 11.2914 2.70081Z" fill="#5E8E3E"/>
<path d="M7.29891 4.55151L6.88222 6.1117C6.88222 6.1117 6.41707 5.89851 5.8647 5.93727C5.05069 5.98572 5.05069 6.49933 5.05069 6.6253C5.09915 7.32304 6.93067 7.47811 7.03727 9.11577C7.11479 10.4046 6.35893 11.2865 5.25419 11.3543C3.93627 11.4222 3.20947 10.6469 3.20947 10.6469L3.4905 9.45497C3.4905 9.45497 4.22699 10.0073 4.80843 9.96857C5.18636 9.94917 5.33172 9.62937 5.31234 9.41617C5.25419 8.50531 3.76184 8.56344 3.66493 7.06137C3.58741 5.8016 4.41111 4.53213 6.23295 4.41584C6.94036 4.36739 7.29891 4.55151 7.29891 4.55151Z" fill="white"/>
</g>
<defs>
<clipPath id="clip0_4_3041">
<rect width="14" height="14" fill="white" transform="translate(0 0.219238)"/>
</clipPath>
</defs>
</svg>
