<svg width="14" height="15" viewBox="0 0 14 15" fill="none" xmlns="http://www.w3.org/2000/svg">
<g clip-path="url(#clip0_4_3041)">
<path d="M11.4077 2.80768C11.398 2.73985 11.3399 2.70109 11.2915 2.70109C11.243 2.70109 10.2836 2.68171 10.2836 2.68171C10.2836 2.68171 9.47927 1.90645 9.40173 1.81924C9.32427 1.74171 9.1692 1.76109 9.11107 1.78047C9.11107 1.78047 8.956 1.82893 8.70407 1.90645C8.66527 1.77079 8.59747 1.60605 8.5102 1.43161C8.2292 0.88894 7.8028 0.598221 7.2989 0.598221C7.26014 0.598221 7.23107 0.598221 7.19231 0.607911C7.17293 0.58853 7.16323 0.569149 7.14385 0.559458C6.92097 0.326883 6.63994 0.210596 6.30077 0.220286C5.6515 0.239667 5.00223 0.714508 4.46924 1.5479C4.101 2.13903 3.81997 2.87551 3.73275 3.44726C2.98658 3.67984 2.46328 3.84458 2.4439 3.84458C2.06597 3.96087 2.05628 3.97055 2.00783 4.32911C1.98844 4.60045 1 12.2463 1 12.2463L9.2952 13.6805L12.8904 12.789C12.8807 12.789 11.4174 2.87551 11.4077 2.80768ZM8.28733 2.04212C8.09353 2.10027 7.88033 2.1681 7.64777 2.24563C7.64777 1.91615 7.59931 1.45099 7.45395 1.06337C7.9482 1.14089 8.19047 1.70295 8.28733 2.04212ZM7.21169 2.37161C6.77561 2.50727 6.30077 2.65263 5.82593 2.79799C5.96159 2.28439 6.21355 1.78047 6.52365 1.44131C6.63994 1.31533 6.80468 1.17966 6.9888 1.10213C7.18261 1.48007 7.22137 2.01305 7.21169 2.37161ZM6.32015 0.656364C6.4752 0.656364 6.60118 0.685436 6.70777 0.762961C6.53334 0.850177 6.35891 0.985847 6.20386 1.16027C5.78717 1.60605 5.46737 2.29408 5.34139 2.96273C4.94408 3.08871 4.55645 3.205 4.20759 3.31159C4.44017 2.25531 5.32201 0.685436 6.32015 0.656364Z" fill="#95BF47"/>
<path d="M11.2914 2.7013C11.243 2.7013 10.2836 2.68192 10.2836 2.68192C10.2836 2.68192 9.47923 1.90666 9.40177 1.81945C9.3727 1.79038 9.3339 1.771 9.29517 1.771V13.6808L12.8904 12.7892C12.8904 12.7892 11.4271 2.87572 11.4174 2.80789C11.398 2.74006 11.3398 2.7013 11.2914 2.7013Z" fill="#5E8E3E"/>
<path d="M7.29891 4.55199L6.88222 6.11219C6.88222 6.11219 6.41707 5.89899 5.8647 5.93775C5.05069 5.98621 5.05069 6.49981 5.05069 6.62579C5.09915 7.32353 6.93067 7.47859 7.03727 9.11626C7.11479 10.4051 6.35893 11.287 5.25419 11.3548C3.93627 11.4227 3.20947 10.6474 3.20947 10.6474L3.4905 9.45546C3.4905 9.45546 4.22699 10.0078 4.80843 9.96906C5.18636 9.94966 5.33172 9.62986 5.31234 9.41666C5.25419 8.50579 3.76184 8.56393 3.66493 7.06186C3.58741 5.80209 4.41111 4.53261 6.23295 4.41633C6.94036 4.36787 7.29891 4.55199 7.29891 4.55199Z" fill="white"/>
</g>
<defs>
<clipPath id="clip0_4_3041">
<rect width="14" height="14" fill="white" transform="translate(0 0.219727)"/>
</clipPath>
</defs>
</svg>
