<svg width="24" height="25" viewBox="0 0 24 25" fill="none" xmlns="http://www.w3.org/2000/svg">
<g clip-path="url(#clip0_49_709)">
<mask id="mask0_49_709" style="mask-type:luminance" maskUnits="userSpaceOnUse" x="0" y="0" width="24" height="25">
<path d="M23.5197 0.972656H0.479736V24.0127H23.5197V0.972656Z" fill="white"/>
</mask>
<g mask="url(#mask0_49_709)">
<path fill-rule="evenodd" clip-rule="evenodd" d="M8.5774 8.63023C9.18576 6.92711 10.4174 5.5202 11.9977 4.68422C11.93 2.62213 10.2384 0.972656 8.15974 0.972656C6.03814 0.972656 4.31974 2.69106 4.31974 4.81266C4.31974 6.93426 6.03814 8.65266 8.15974 8.65266C8.30087 8.65266 8.44022 8.64505 8.5774 8.63023ZM8.15974 11.0526C8.15974 10.8913 8.16504 10.7313 8.17548 10.5726H8.15974C5.59654 10.5726 0.479736 11.859 0.479736 14.4126V16.3326H10.4646C9.04694 15.0177 8.15974 13.1388 8.15974 11.0526ZM15.3598 15.3726C17.7465 15.3726 19.6798 13.4395 19.6798 11.0526C19.6798 8.66586 17.7465 6.73266 15.3598 6.73266C12.9729 6.73266 11.0398 8.66586 11.0398 11.0526C11.0398 13.4395 12.9729 15.3726 15.3598 15.3726ZM14.8798 17.2926C11.9961 17.2926 6.23974 18.7935 6.23974 21.7727V24.0126H23.5198V21.7727C23.5198 18.7935 17.7633 17.2926 14.8798 17.2926Z" fill="white"/>
</g>
</g>
<defs>
<clipPath id="clip0_49_709">
<rect width="24" height="24" fill="white" transform="translate(0 0.0175781)"/>
</clipPath>
</defs>
</svg>
