<svg width="24" height="25" viewBox="0 0 24 25" fill="none" xmlns="http://www.w3.org/2000/svg">
<g clip-path="url(#clip0_4_2778)">
<mask id="mask0_4_2778" style="mask-type:luminance" maskUnits="userSpaceOnUse" x="0" y="1" width="24" height="24">
<path d="M23.5197 1.51465H0.479736V24.5546H23.5197V1.51465Z" fill="white"/>
</mask>
<g mask="url(#mask0_4_2778)">
<path fill-rule="evenodd" clip-rule="evenodd" d="M8.5774 9.17222C9.18576 7.46911 10.4174 6.06219 11.9977 5.22621C11.93 3.16412 10.2384 1.51465 8.15974 1.51465C6.03814 1.51465 4.31974 3.23305 4.31974 5.35465C4.31974 7.47625 6.03814 9.19465 8.15974 9.19465C8.30087 9.19465 8.44022 9.18705 8.5774 9.17222ZM8.15974 11.5946C8.15974 11.4333 8.16504 11.2733 8.17548 11.1146H8.15974C5.59654 11.1146 0.479736 12.401 0.479736 14.9546V16.8746H10.4646C9.04694 15.5597 8.15974 13.6808 8.15974 11.5946ZM15.3598 15.9146C17.7465 15.9146 19.6798 13.9815 19.6798 11.5946C19.6798 9.20785 17.7465 7.27465 15.3598 7.27465C12.9729 7.27465 11.0398 9.20785 11.0398 11.5946C11.0398 13.9815 12.9729 15.9146 15.3598 15.9146ZM14.8798 17.8346C11.9961 17.8346 6.23974 19.3355 6.23974 22.3147V24.5546H23.5198V22.3147C23.5198 19.3355 17.7633 17.8346 14.8798 17.8346Z" fill="white"/>
</g>
</g>
<defs>
<clipPath id="clip0_4_2778">
<rect width="24" height="24" fill="white" transform="translate(0 0.55957)"/>
</clipPath>
</defs>
</svg>
