<svg width="24" height="25" viewBox="0 0 24 25" fill="none" xmlns="http://www.w3.org/2000/svg">
<g clip-path="url(#clip0_4_2778)">
<mask id="mask0_4_2778" style="mask-type:luminance" maskUnits="userSpaceOnUse" x="0" y="1" width="24" height="24">
<path d="M23.5197 1.00586H0.479736V24.0459H23.5197V1.00586Z" fill="white"/>
</mask>
<g mask="url(#mask0_4_2778)">
<path fill-rule="evenodd" clip-rule="evenodd" d="M8.5774 8.66343C9.18576 6.96032 10.4174 5.5534 11.9977 4.71742C11.93 2.65533 10.2384 1.00586 8.15974 1.00586C6.03814 1.00586 4.31974 2.72426 4.31974 4.84586C4.31974 6.96746 6.03814 8.68586 8.15974 8.68586C8.30087 8.68586 8.44022 8.67826 8.5774 8.66343ZM8.15974 11.0858C8.15974 10.9246 8.16504 10.7645 8.17548 10.6058H8.15974C5.59654 10.6058 0.479736 11.8922 0.479736 14.4458V16.3658H10.4646C9.04694 15.0509 8.15974 13.172 8.15974 11.0858ZM15.3598 15.4058C17.7465 15.4058 19.6798 13.4727 19.6798 11.0858C19.6798 8.69906 17.7465 6.76586 15.3598 6.76586C12.9729 6.76586 11.0398 8.69906 11.0398 11.0858C11.0398 13.4727 12.9729 15.4058 15.3598 15.4058ZM14.8798 17.3258C11.9961 17.3258 6.23974 18.8267 6.23974 21.8059V24.0458H23.5198V21.8059C23.5198 18.8267 17.7633 17.3258 14.8798 17.3258Z" fill="white"/>
</g>
</g>
<defs>
<clipPath id="clip0_4_2778">
<rect width="24" height="24" fill="white" transform="translate(0 0.0507812)"/>
</clipPath>
</defs>
</svg>
