<svg width="24" height="25" viewBox="0 0 24 25" fill="none" xmlns="http://www.w3.org/2000/svg">
<g clip-path="url(#clip0_4_2778)">
<mask id="mask0_4_2778" style="mask-type:luminance" maskUnits="userSpaceOnUse" x="0" y="1" width="24" height="24">
<path d="M23.5197 1.66406H0.479736V24.7041H23.5197V1.66406Z" fill="white"/>
</mask>
<g mask="url(#mask0_4_2778)">
<path fill-rule="evenodd" clip-rule="evenodd" d="M8.5774 9.32164C9.18576 7.61852 10.4174 6.2116 11.9977 5.37562C11.93 3.31354 10.2384 1.66406 8.15974 1.66406C6.03814 1.66406 4.31974 3.38246 4.31974 5.50406C4.31974 7.62566 6.03814 9.34406 8.15974 9.34406C8.30087 9.34406 8.44022 9.33646 8.5774 9.32164ZM8.15974 11.744C8.15974 11.5828 8.16504 11.4227 8.17548 11.264H8.15974C5.59654 11.264 0.479736 12.5504 0.479736 15.104V17.024H10.4646C9.04694 15.7091 8.15974 13.8302 8.15974 11.744ZM15.3598 16.064C17.7465 16.064 19.6798 14.1309 19.6798 11.744C19.6798 9.35726 17.7465 7.42406 15.3598 7.42406C12.9729 7.42406 11.0398 9.35726 11.0398 11.744C11.0398 14.1309 12.9729 16.064 15.3598 16.064ZM14.8798 17.984C11.9961 17.984 6.23974 19.4849 6.23974 22.4641V24.704H23.5198V22.4641C23.5198 19.4849 17.7633 17.984 14.8798 17.984Z" fill="white"/>
</g>
</g>
<defs>
<clipPath id="clip0_4_2778">
<rect width="24" height="24" fill="white" transform="translate(0 0.708984)"/>
</clipPath>
</defs>
</svg>
