<svg width="24" height="24" viewBox="0 0 24 24" fill="none" xmlns="http://www.w3.org/2000/svg">
<g clip-path="url(#clip0_49_709)">
<mask id="mask0_49_709" style="mask-type:luminance" maskUnits="userSpaceOnUse" x="0" y="0" width="24" height="24">
<path d="M23.5197 0.955566H0.479736V23.9956H23.5197V0.955566Z" fill="white"/>
</mask>
<g mask="url(#mask0_49_709)">
<path fill-rule="evenodd" clip-rule="evenodd" d="M8.5774 8.61314C9.18576 6.91002 10.4174 5.50311 11.9977 4.66713C11.93 2.60504 10.2384 0.955566 8.15974 0.955566C6.03814 0.955566 4.31974 2.67397 4.31974 4.79557C4.31974 6.91717 6.03814 8.63557 8.15974 8.63557C8.30087 8.63557 8.44022 8.62796 8.5774 8.61314ZM8.15974 11.0355C8.15974 10.8743 8.16504 10.7142 8.17548 10.5555H8.15974C5.59654 10.5555 0.479736 11.8419 0.479736 14.3955V16.3155H10.4646C9.04694 15.0006 8.15974 13.1217 8.15974 11.0355ZM15.3598 15.3555C17.7465 15.3555 19.6798 13.4224 19.6798 11.0355C19.6798 8.64877 17.7465 6.71557 15.3598 6.71557C12.9729 6.71557 11.0398 8.64877 11.0398 11.0355C11.0398 13.4224 12.9729 15.3555 15.3598 15.3555ZM14.8798 17.2755C11.9961 17.2755 6.23974 18.7764 6.23974 21.7556V23.9955H23.5198V21.7556C23.5198 18.7764 17.7633 17.2755 14.8798 17.2755Z" fill="white"/>
</g>
</g>
<defs>
<clipPath id="clip0_49_709">
<rect width="24" height="24" fill="white" transform="translate(0 0.000488281)"/>
</clipPath>
</defs>
</svg>
