<svg width="24" height="25" viewBox="0 0 24 25" fill="none" xmlns="http://www.w3.org/2000/svg">
<g clip-path="url(#clip0_49_709)">
<mask id="mask0_49_709" style="mask-type:luminance" maskUnits="userSpaceOnUse" x="0" y="1" width="24" height="24">
<path d="M23.5197 1.50537H0.479736V24.5454H23.5197V1.50537Z" fill="white"/>
</mask>
<g mask="url(#mask0_49_709)">
<path fill-rule="evenodd" clip-rule="evenodd" d="M8.5774 9.16295C9.18576 7.45983 10.4174 6.05291 11.9977 5.21693C11.93 3.15484 10.2384 1.50537 8.15974 1.50537C6.03814 1.50537 4.31974 3.22377 4.31974 5.34537C4.31974 7.46697 6.03814 9.18537 8.15974 9.18537C8.30087 9.18537 8.44022 9.17777 8.5774 9.16295ZM8.15974 11.5853C8.15974 11.4241 8.16504 11.264 8.17548 11.1053H8.15974C5.59654 11.1053 0.479736 12.3917 0.479736 14.9453V16.8653H10.4646C9.04694 15.5504 8.15974 13.6715 8.15974 11.5853ZM15.3598 15.9053C17.7465 15.9053 19.6798 13.9722 19.6798 11.5853C19.6798 9.19857 17.7465 7.26537 15.3598 7.26537C12.9729 7.26537 11.0398 9.19857 11.0398 11.5853C11.0398 13.9722 12.9729 15.9053 15.3598 15.9053ZM14.8798 17.8253C11.9961 17.8253 6.23974 19.3262 6.23974 22.3054V24.5453H23.5198V22.3054C23.5198 19.3262 17.7633 17.8253 14.8798 17.8253Z" fill="white"/>
</g>
</g>
<defs>
<clipPath id="clip0_49_709">
<rect width="24" height="24" fill="white" transform="translate(0 0.550293)"/>
</clipPath>
</defs>
</svg>
