<svg width="14" height="15" viewBox="0 0 14 15" fill="none" xmlns="http://www.w3.org/2000/svg">
<g clip-path="url(#clip0_4_3048)">
<mask id="mask0_4_3048" style="mask-type:luminance" maskUnits="userSpaceOnUse" x="0" y="3" width="14" height="9">
<path d="M13.9463 3.05322H0V11.3848H13.9463V3.05322Z" fill="white"/>
</mask>
<g mask="url(#mask0_4_3048)">
<path d="M1.296 3.05322H12.6492C13.3628 3.05322 13.9457 3.63818 13.9457 4.35981V8.706C13.9457 9.42762 13.3628 10.0126 12.6437 10.0126H8.57425L9.13532 11.3848L6.6784 10.0126H1.30144C0.582339 10.0126 -0.000572475 9.42762 -0.000572475 8.706V4.35981C-0.00602025 3.64365 0.576891 3.05322 1.296 3.05322Z" fill="#9B5C8F"/>
<path d="M0.795435 4.23948C0.877153 4.13014 0.991557 4.07547 1.15499 4.06454C1.44372 4.04267 1.60715 4.17934 1.65073 4.47456C1.82506 5.66087 2.02118 6.67225 2.22275 7.49775L3.46484 5.12512C3.57924 4.90644 3.72089 4.7971 3.88977 4.78617C4.14036 4.76977 4.29291 4.9283 4.35283 5.26179C4.48902 6.01622 4.67425 6.66131 4.88671 7.20801C5.0338 5.76475 5.2844 4.72057 5.63305 4.08094C5.72022 3.92239 5.84552 3.8404 6.00895 3.82946C6.13969 3.81852 6.25955 3.85679 6.3685 3.94427C6.47746 4.03174 6.53193 4.13561 6.54283 4.26681C6.54828 4.37068 6.53193 4.45269 6.48835 4.54016C6.26499 4.95018 6.08522 5.639 5.93813 6.59571C5.79649 7.52508 5.74746 8.24672 5.78014 8.76061C5.79104 8.90274 5.76925 9.02848 5.71477 9.13782C5.6494 9.26356 5.54589 9.32916 5.41515 9.34009C5.26806 9.35103 5.11552 9.28542 4.96843 9.12689C4.44 8.58566 4.02052 7.77656 3.71544 6.70505C3.34499 7.43215 3.0726 7.97884 2.89828 8.34512C2.56596 8.99021 2.28268 9.31823 2.04297 9.33462C1.89044 9.34556 1.75969 9.21435 1.64528 8.94101C1.35655 8.19751 1.04603 6.75425 0.708271 4.62216C0.681032 4.47456 0.713718 4.34335 0.795435 4.23948ZM12.9767 5.13605C12.7751 4.77523 12.47 4.56202 12.0669 4.47456C11.958 4.45269 11.8544 4.44175 11.7618 4.44175C11.217 4.44175 10.7758 4.72603 10.4271 5.29459C10.1329 5.77567 9.98585 6.31143 9.98585 6.89639C9.98585 7.33374 10.0784 7.71096 10.2582 8.02257C10.4598 8.38339 10.7648 8.59659 11.168 8.68407C11.277 8.70593 11.3804 8.71687 11.4731 8.71687C12.0233 8.71687 12.4646 8.43259 12.8078 7.86403C13.1019 7.37748 13.249 6.84172 13.249 6.25129C13.2545 5.81394 13.1564 5.44219 12.9767 5.13605ZM12.263 6.71051C12.1813 7.08773 12.0396 7.36654 11.8326 7.55241C11.6692 7.70002 11.5166 7.76563 11.375 7.73282C11.2388 7.70549 11.1244 7.58522 11.0427 7.36108C10.9773 7.18613 10.9392 7.00573 10.9392 6.84172C10.9392 6.69958 10.9501 6.55744 10.9773 6.42624C11.0264 6.19116 11.1244 5.96702 11.277 5.74834C11.4622 5.46953 11.6637 5.35473 11.8653 5.393C12.0015 5.42033 12.1159 5.5406 12.1976 5.76475C12.263 5.93968 12.3011 6.12009 12.3011 6.2841C12.3011 6.43717 12.2902 6.57931 12.263 6.71051ZM9.43013 5.13605C9.22861 4.77523 8.91806 4.56202 8.52038 4.47456C8.41143 4.45269 8.30791 4.44175 8.2153 4.44175C7.67052 4.44175 7.22925 4.72603 6.88059 5.29459C6.58642 5.77567 6.43933 6.31143 6.43933 6.89639C6.43933 7.33374 6.53193 7.71096 6.71171 8.02257C6.91328 8.38339 7.21835 8.59659 7.62149 8.68407C7.73045 8.70593 7.83396 8.71687 7.92656 8.71687C8.47681 8.71687 8.91806 8.43259 9.26131 7.86403C9.55547 7.37748 9.70256 6.84172 9.70256 6.25129C9.70256 5.81394 9.60991 5.44219 9.43013 5.13605ZM8.71103 6.71051C8.62933 7.08773 8.48768 7.36654 8.28065 7.55241C8.11724 7.70002 7.9647 7.76563 7.82306 7.73282C7.68687 7.70549 7.57246 7.58522 7.49074 7.36108C7.42537 7.18613 7.38723 7.00573 7.38723 6.84172C7.38723 6.69958 7.39813 6.55744 7.42537 6.42624C7.47441 6.19116 7.57246 5.96702 7.725 5.74834C7.91023 5.46953 8.11179 5.35473 8.31334 5.393C8.44956 5.42033 8.56394 5.5406 8.64564 5.76475C8.71103 5.93968 8.74915 6.12009 8.74915 6.2841C8.75459 6.43717 8.73828 6.57931 8.71103 6.71051Z" fill="white"/>
</g>
</g>
<defs>
<clipPath id="clip0_4_3048">
<rect width="14" height="14" fill="white" transform="translate(0 0.219238)"/>
</clipPath>
</defs>
</svg>
