<svg width="24" height="25" viewBox="0 0 24 25" fill="none" xmlns="http://www.w3.org/2000/svg">
<g clip-path="url(#clip0_145_1462)">
<mask id="mask0_145_1462" style="mask-type:luminance" maskUnits="userSpaceOnUse" x="0" y="0" width="24" height="24">
<path d="M23.0849 0.81543H0.0449219V23.8554H23.0849V0.81543Z" fill="white"/>
</mask>
<g mask="url(#mask0_145_1462)">
<path fill-rule="evenodd" clip-rule="evenodd" d="M0.0449219 4.65531C0.0449219 4.12512 0.474728 3.69531 1.00493 3.69531H5.80493C6.33512 3.69531 6.76493 4.12512 6.76493 4.65531V20.0153C6.76493 20.5455 6.33512 20.9753 5.80493 20.9753H1.00492C0.474728 20.9753 0.0449219 20.5455 0.0449219 20.0153V4.65531ZM16.3649 4.65531C16.3649 4.12512 16.7947 3.69531 17.3249 3.69531H22.1249C22.6552 3.69531 23.0849 4.12512 23.0849 4.65531V16.1753C23.0849 16.7055 22.6552 17.1353 22.1249 17.1353H17.3249C16.7947 17.1353 16.3649 16.7055 16.3649 16.1753V4.65531ZM9.64495 3.69531C9.11473 3.69531 8.68493 4.12512 8.68493 4.65531V12.3353C8.68493 12.8655 9.11473 13.2953 9.64495 13.2953H13.4849C14.0152 13.2953 14.4449 12.8655 14.4449 12.3353V4.65531C14.4449 4.12512 14.0152 3.69531 13.4849 3.69531H9.64495Z" fill="white"/>
</g>
</g>
<defs>
<clipPath id="clip0_145_1462">
<rect width="24" height="24" fill="white" transform="translate(0 0.335938)"/>
</clipPath>
</defs>
</svg>
