<svg width="24" height="25" viewBox="0 0 24 25" fill="none" xmlns="http://www.w3.org/2000/svg">
<g clip-path="url(#clip0_145_1462)">
<mask id="mask0_145_1462" style="mask-type:luminance" maskUnits="userSpaceOnUse" x="0" y="0" width="24" height="24">
<path d="M23.0849 0.81543H0.0449219V23.8554H23.0849V0.81543Z" fill="white"/>
</mask>
<g mask="url(#mask0_145_1462)">
<path fill-rule="evenodd" clip-rule="evenodd" d="M0.0449219 4.65543C0.0449219 4.12525 0.474728 3.69543 1.00493 3.69543H5.80493C6.33512 3.69543 6.76493 4.12525 6.76493 4.65543V20.0154C6.76493 20.5456 6.33512 20.9754 5.80493 20.9754H1.00492C0.474728 20.9754 0.0449219 20.5456 0.0449219 20.0154V4.65543ZM16.3649 4.65543C16.3649 4.12525 16.7947 3.69543 17.3249 3.69543H22.1249C22.6552 3.69543 23.0849 4.12525 23.0849 4.65543V16.1754C23.0849 16.7056 22.6552 17.1354 22.1249 17.1354H17.3249C16.7947 17.1354 16.3649 16.7056 16.3649 16.1754V4.65543ZM9.64495 3.69543C9.11473 3.69543 8.68493 4.12525 8.68493 4.65543V12.3354C8.68493 12.8656 9.11473 13.2954 9.64495 13.2954H13.4849C14.0152 13.2954 14.4449 12.8656 14.4449 12.3354V4.65543C14.4449 4.12525 14.0152 3.69543 13.4849 3.69543H9.64495Z" fill="white"/>
</g>
</g>
<defs>
<clipPath id="clip0_145_1462">
<rect width="24" height="24" fill="white" transform="translate(0 0.335938)"/>
</clipPath>
</defs>
</svg>
