<svg width="24" height="25" viewBox="0 0 24 25" fill="none" xmlns="http://www.w3.org/2000/svg">
<g clip-path="url(#clip0_121_1911)">
<mask id="mask0_121_1911" style="mask-type:luminance" maskUnits="userSpaceOnUse" x="0" y="0" width="24" height="24">
<path d="M23.5195 0.5271H0.479492V23.5671H23.5195V0.5271Z" fill="white"/>
</mask>
<g mask="url(#mask0_121_1911)">
<path fill-rule="evenodd" clip-rule="evenodd" d="M21.5995 12.0471C21.5995 17.3491 17.3014 21.6471 11.9995 21.6471C6.69756 21.6471 2.39949 17.3491 2.39949 12.0471C2.39949 6.74516 6.69756 2.4471 11.9995 2.4471C17.3014 2.4471 21.5995 6.74516 21.5995 12.0471ZM23.5195 12.0471C23.5195 18.4094 18.3619 23.5671 11.9995 23.5671C5.63718 23.5671 0.479492 18.4094 0.479492 12.0471C0.479492 5.68478 5.63718 0.5271 11.9995 0.5271C18.3619 0.5271 23.5195 5.68478 23.5195 12.0471ZM11.0395 11.0871V7.2471H12.9595V11.0871H16.7995V13.0071H12.9595V16.8471H11.0395V13.0071H7.19949V11.0871H11.0395Z" fill="white"/>
</g>
</g>
<defs>
<clipPath id="clip0_121_1911">
<rect width="24" height="24" fill="white" transform="translate(0 0.5)"/>
</clipPath>
</defs>
</svg>
