<svg width="24" height="25" viewBox="0 0 24 25" fill="none" xmlns="http://www.w3.org/2000/svg">
<g clip-path="url(#clip0_49_709)">
<mask id="mask0_49_709" style="mask-type:luminance" maskUnits="userSpaceOnUse" x="0" y="1" width="24" height="24">
<path d="M23.5197 1.00537H0.479736V24.0454H23.5197V1.00537Z" fill="white"/>
</mask>
<g mask="url(#mask0_49_709)">
<path fill-rule="evenodd" clip-rule="evenodd" d="M8.5774 8.66295C9.18576 6.95983 10.4174 5.55291 11.9977 4.71693C11.93 2.65484 10.2384 1.00537 8.15974 1.00537C6.03814 1.00537 4.31974 2.72377 4.31974 4.84537C4.31974 6.96697 6.03814 8.68537 8.15974 8.68537C8.30087 8.68537 8.44022 8.67777 8.5774 8.66295ZM8.15974 11.0853C8.15974 10.9241 8.16504 10.764 8.17548 10.6053H8.15974C5.59654 10.6053 0.479736 11.8917 0.479736 14.4453V16.3653H10.4646C9.04694 15.0504 8.15974 13.1715 8.15974 11.0853ZM15.3598 15.4053C17.7465 15.4053 19.6798 13.4722 19.6798 11.0853C19.6798 8.69857 17.7465 6.76537 15.3598 6.76537C12.9729 6.76537 11.0398 8.69857 11.0398 11.0853C11.0398 13.4722 12.9729 15.4053 15.3598 15.4053ZM14.8798 17.3253C11.9961 17.3253 6.23974 18.8262 6.23974 21.8054V24.0453H23.5198V21.8054C23.5198 18.8262 17.7633 17.3253 14.8798 17.3253Z" fill="white"/>
</g>
</g>
<defs>
<clipPath id="clip0_49_709">
<rect width="24" height="24" fill="white" transform="translate(0 0.050293)"/>
</clipPath>
</defs>
</svg>
