<svg width="25" height="25" viewBox="0 0 25 25" fill="none" xmlns="http://www.w3.org/2000/svg">
<g clip-path="url(#clip0_121_1911)">
<mask id="mask0_121_1911" style="mask-type:luminance" maskUnits="userSpaceOnUse" x="0" y="0" width="25" height="24">
<path d="M24.0195 0.5271H0.979492V23.5671H24.0195V0.5271Z" fill="white"/>
</mask>
<g mask="url(#mask0_121_1911)">
<path fill-rule="evenodd" clip-rule="evenodd" d="M22.0995 12.0471C22.0995 17.3491 17.8014 21.6471 12.4995 21.6471C7.19756 21.6471 2.89949 17.3491 2.89949 12.0471C2.89949 6.74516 7.19756 2.4471 12.4995 2.4471C17.8014 2.4471 22.0995 6.74516 22.0995 12.0471ZM24.0195 12.0471C24.0195 18.4094 18.8619 23.5671 12.4995 23.5671C6.13718 23.5671 0.979492 18.4094 0.979492 12.0471C0.979492 5.68478 6.13718 0.5271 12.4995 0.5271C18.8619 0.5271 24.0195 5.68478 24.0195 12.0471ZM11.5395 11.0871V7.2471H13.4595V11.0871H17.2995V13.0071H13.4595V16.8471H11.5395V13.0071H7.69949V11.0871H11.5395Z" fill="white"/>
</g>
</g>
<defs>
<clipPath id="clip0_121_1911">
<rect width="24" height="24" fill="white" transform="translate(0.5 0.5)"/>
</clipPath>
</defs>
</svg>
