<svg width="25" height="25" viewBox="0 0 25 25" fill="none" xmlns="http://www.w3.org/2000/svg">
<g clip-path="url(#clip0_101_1791)">
<mask id="mask0_101_1791" style="mask-type:luminance" maskUnits="userSpaceOnUse" x="0" y="0" width="25" height="24">
<path d="M24.0195 0.39502H0.979492V23.435H24.0195V0.39502Z" fill="white"/>
</mask>
<g mask="url(#mask0_101_1791)">
<path fill-rule="evenodd" clip-rule="evenodd" d="M22.0995 11.915C22.0995 17.217 17.8014 21.515 12.4995 21.515C7.19756 21.515 2.89949 17.217 2.89949 11.915C2.89949 6.61308 7.19756 2.31502 12.4995 2.31502C17.8014 2.31502 22.0995 6.61308 22.0995 11.915ZM24.0195 11.915C24.0195 18.2773 18.8619 23.435 12.4995 23.435C6.13718 23.435 0.979492 18.2773 0.979492 11.915C0.979492 5.5527 6.13718 0.39502 12.4995 0.39502C18.8619 0.39502 24.0195 5.5527 24.0195 11.915ZM11.5395 10.955V7.11502H13.4595V10.955H17.2995V12.875H13.4595V16.715H11.5395V12.875H7.69949V10.955H11.5395Z" fill="white"/>
</g>
</g>
<defs>
<clipPath id="clip0_101_1791">
<rect width="24" height="24" fill="white" transform="translate(0.5 0.367676)"/>
</clipPath>
</defs>
</svg>
