<svg width="25" height="25" viewBox="0 0 25 25" fill="none" xmlns="http://www.w3.org/2000/svg">
<g clip-path="url(#clip0_121_1911)">
<mask id="mask0_121_1911" style="mask-type:luminance" maskUnits="userSpaceOnUse" x="0" y="0" width="25" height="24">
<path d="M24.0195 0.527222H0.979492V23.5672H24.0195V0.527222Z" fill="white"/>
</mask>
<g mask="url(#mask0_121_1911)">
<path fill-rule="evenodd" clip-rule="evenodd" d="M22.0995 12.0472C22.0995 17.3492 17.8014 21.6472 12.4995 21.6472C7.19756 21.6472 2.89949 17.3492 2.89949 12.0472C2.89949 6.74529 7.19756 2.44722 12.4995 2.44722C17.8014 2.44722 22.0995 6.74529 22.0995 12.0472ZM24.0195 12.0472C24.0195 18.4095 18.8619 23.5672 12.4995 23.5672C6.13718 23.5672 0.979492 18.4095 0.979492 12.0472C0.979492 5.6849 6.13718 0.527222 12.4995 0.527222C18.8619 0.527222 24.0195 5.6849 24.0195 12.0472ZM11.5395 11.0872V7.24722H13.4595V11.0872H17.2995V13.0072H13.4595V16.8472H11.5395V13.0072H7.69949V11.0872H11.5395Z" fill="white"/>
</g>
</g>
<defs>
<clipPath id="clip0_121_1911">
<rect width="24" height="24" fill="white" transform="translate(0.5 0.5)"/>
</clipPath>
</defs>
</svg>
