<svg width="24" height="24" viewBox="0 0 24 24" fill="none" xmlns="http://www.w3.org/2000/svg">
<g clip-path="url(#clip0_4_2778)">
<mask id="mask0_4_2778" style="mask-type:luminance" maskUnits="userSpaceOnUse" x="0" y="0" width="24" height="24">
<path d="M23.5197 0.955078H0.479736V23.9951H23.5197V0.955078Z" fill="white"/>
</mask>
<g mask="url(#mask0_4_2778)">
<path fill-rule="evenodd" clip-rule="evenodd" d="M8.5774 8.61265C9.18576 6.90954 10.4174 5.50262 11.9977 4.66664C11.93 2.60455 10.2384 0.955078 8.15974 0.955078C6.03814 0.955078 4.31974 2.67348 4.31974 4.79508C4.31974 6.91668 6.03814 8.63508 8.15974 8.63508C8.30087 8.63508 8.44022 8.62748 8.5774 8.61265ZM8.15974 11.0351C8.15974 10.8738 8.16504 10.7137 8.17548 10.5551H8.15974C5.59654 10.5551 0.479736 11.8415 0.479736 14.3951V16.3151H10.4646C9.04694 15.0001 8.15974 13.1212 8.15974 11.0351ZM15.3598 15.3551C17.7465 15.3551 19.6798 13.4219 19.6798 11.0351C19.6798 8.64828 17.7465 6.71508 15.3598 6.71508C12.9729 6.71508 11.0398 8.64828 11.0398 11.0351C11.0398 13.4219 12.9729 15.3551 15.3598 15.3551ZM14.8798 17.2751C11.9961 17.2751 6.23974 18.7759 6.23974 21.7551V23.9951H23.5198V21.7551C23.5198 18.7759 17.7633 17.2751 14.8798 17.2751Z" fill="white"/>
</g>
</g>
<defs>
<clipPath id="clip0_4_2778">
<rect width="24" height="24" fill="white"/>
</clipPath>
</defs>
</svg>
