<svg width="24" height="25" viewBox="0 0 24 25" fill="none" xmlns="http://www.w3.org/2000/svg">
<g clip-path="url(#clip0_145_1383)">
<mask id="mask0_145_1383" style="mask-type:luminance" maskUnits="userSpaceOnUse" x="0" y="1" width="24" height="24">
<path d="M23.5195 1.29077H0.479492V24.3308H23.5195V1.29077Z" fill="white"/>
</mask>
<g mask="url(#mask0_145_1383)">
<path fill-rule="evenodd" clip-rule="evenodd" d="M8.57715 8.94835C9.18552 7.24523 10.4172 5.83831 11.9974 5.00233C11.9297 2.94024 10.2381 1.29077 8.1595 1.29077C6.0379 1.29077 4.3195 3.00917 4.3195 5.13077C4.3195 7.25237 6.0379 8.97077 8.1595 8.97077C8.30063 8.97077 8.43998 8.96317 8.57715 8.94835ZM8.1595 11.3707C8.1595 11.2095 8.1648 11.0494 8.17524 10.8907H8.1595C5.5963 10.8907 0.479492 12.1771 0.479492 14.7307V16.6507H10.4644C9.0467 15.3358 8.1595 13.4569 8.1595 11.3707ZM15.3595 15.6907C17.7463 15.6907 19.6795 13.7576 19.6795 11.3707C19.6795 8.98397 17.7463 7.05077 15.3595 7.05077C12.9727 7.05077 11.0395 8.98397 11.0395 11.3707C11.0395 13.7576 12.9727 15.6907 15.3595 15.6907ZM14.8795 17.6107C11.9959 17.6107 6.2395 19.1116 6.2395 22.0908V24.3307H23.5195V22.0908C23.5195 19.1116 17.7631 17.6107 14.8795 17.6107Z" fill="white"/>
</g>
</g>
<defs>
<clipPath id="clip0_145_1383">
<rect width="24" height="24" fill="white" transform="translate(0 0.335938)"/>
</clipPath>
</defs>
</svg>
