<svg width="24" height="25" viewBox="0 0 24 25" fill="none" xmlns="http://www.w3.org/2000/svg">
<g clip-path="url(#clip0_121_1931)">
<mask id="mask0_121_1931" style="mask-type:luminance" maskUnits="userSpaceOnUse" x="0" y="0" width="24" height="24">
<path d="M23.5195 0.5271H0.479492V23.5671H23.5195V0.5271Z" fill="white"/>
</mask>
<g mask="url(#mask0_121_1931)">
<path fill-rule="evenodd" clip-rule="evenodd" d="M6.23949 1.4871C6.23949 0.956907 6.6693 0.5271 7.19949 0.5271H16.7995C17.3297 0.5271 17.7595 0.956907 17.7595 1.4871V3.4071C17.7595 3.9373 17.3297 4.3671 16.7995 4.3671H12.9595V7.2471H16.7995C17.3297 7.2471 17.7595 7.67691 17.7595 8.2071V10.1271C17.7595 10.6573 17.3297 11.0871 16.7995 11.0871H12.9595V13.9671H16.7995C18.3901 13.9671 19.6795 15.2566 19.6795 16.8471V19.7271H22.5595C23.0897 19.7271 23.5195 20.1569 23.5195 20.6871V22.6071C23.5195 23.1373 23.0897 23.5671 22.5595 23.5671H14.8795C14.3493 23.5671 13.9195 23.1373 13.9195 22.6071V20.6871C13.9195 20.1569 14.3493 19.7271 14.8795 19.7271H17.7595V16.8471C17.7595 16.3169 17.3297 15.8871 16.7995 15.8871H7.19949C6.6693 15.8871 6.23949 16.3169 6.23949 16.8471V19.7271H9.11949C9.64969 19.7271 10.0795 20.1569 10.0795 20.6871V22.6071C10.0795 23.1373 9.64969 23.5671 9.11949 23.5671H1.43949C0.909299 23.5671 0.479492 23.1373 0.479492 22.6071V20.6871C0.479492 20.1569 0.909299 19.7271 1.43949 19.7271H4.31949V16.8471C4.31949 15.2566 5.60891 13.9671 7.19949 13.9671H11.0395V11.0871H7.19949C6.6693 11.0871 6.23949 10.6573 6.23949 10.1271V8.2071C6.23949 7.67691 6.6693 7.2471 7.19949 7.2471H11.0395V4.3671H7.19949C6.6693 4.3671 6.23949 3.9373 6.23949 3.4071V1.4871Z" fill="white"/>
</g>
</g>
<defs>
<clipPath id="clip0_121_1931">
<rect width="24" height="24" fill="white" transform="translate(0 0.5)"/>
</clipPath>
</defs>
</svg>
