<svg width="24" height="25" viewBox="0 0 24 25" fill="none" xmlns="http://www.w3.org/2000/svg">
<g clip-path="url(#clip0_4_2718)">
<mask id="mask0_4_2718" style="mask-type:luminance" maskUnits="userSpaceOnUse" x="0" y="0" width="24" height="24">
<path d="M23.5197 0.586914H0.479736V23.6269H23.5197V0.586914Z" fill="white"/>
</mask>
<g mask="url(#mask0_4_2718)">
<path fill-rule="evenodd" clip-rule="evenodd" d="M21.5997 12.1069C21.5997 17.4089 17.3017 21.7069 11.9997 21.7069C6.69781 21.7069 2.39973 17.4089 2.39973 12.1069C2.39973 6.80498 6.69781 2.50691 11.9997 2.50691C17.3017 2.50691 21.5997 6.80498 21.5997 12.1069ZM23.5197 12.1069C23.5197 18.4692 18.3621 23.6269 11.9997 23.6269C5.63742 23.6269 0.479736 18.4692 0.479736 12.1069C0.479736 5.74459 5.63742 0.586914 11.9997 0.586914C18.3621 0.586914 23.5197 5.74459 23.5197 12.1069ZM11.0397 11.1469V7.30691H12.9597V11.1469H16.7997V13.0669H12.9597V16.9069H11.0397V13.0669H7.19973V11.1469H11.0397Z" fill="white"/>
</g>
</g>
<defs>
<clipPath id="clip0_4_2718">
<rect width="24" height="24" fill="white" transform="translate(0 0.55957)"/>
</clipPath>
</defs>
</svg>
