<svg width="24" height="25" viewBox="0 0 24 25" fill="none" xmlns="http://www.w3.org/2000/svg">
<g clip-path="url(#clip0_49_745)">
<mask id="mask0_49_745" style="mask-type:luminance" maskUnits="userSpaceOnUse" x="0" y="0" width="24" height="24">
<path d="M23.5197 0.0776367H0.479736V23.1176H23.5197V0.0776367Z" fill="white"/>
</mask>
<g mask="url(#mask0_49_745)">
<path fill-rule="evenodd" clip-rule="evenodd" d="M21.5997 11.5976C21.5997 16.8996 17.3017 21.1976 11.9997 21.1976C6.69781 21.1976 2.39973 16.8996 2.39973 11.5976C2.39973 6.2957 6.69781 1.99764 11.9997 1.99764C17.3017 1.99764 21.5997 6.2957 21.5997 11.5976ZM23.5197 11.5976C23.5197 17.9599 18.3621 23.1176 11.9997 23.1176C5.63742 23.1176 0.479736 17.9599 0.479736 11.5976C0.479736 5.23531 5.63742 0.0776367 11.9997 0.0776367C18.3621 0.0776367 23.5197 5.23531 23.5197 11.5976ZM11.0397 10.6376V6.79764H12.9597V10.6376H16.7997V12.5576H12.9597V16.3976H11.0397V12.5576H7.19973V10.6376H11.0397Z" fill="white"/>
</g>
</g>
<defs>
<clipPath id="clip0_49_745">
<rect width="24" height="24" fill="white" transform="translate(0 0.050293)"/>
</clipPath>
</defs>
</svg>
