<svg width="24" height="25" viewBox="0 0 24 25" fill="none" xmlns="http://www.w3.org/2000/svg">
<g clip-path="url(#clip0_49_745)">
<mask id="mask0_49_745" style="mask-type:luminance" maskUnits="userSpaceOnUse" x="0" y="0" width="24" height="24">
<path d="M23.5197 0.811523H0.479736V23.8515H23.5197V0.811523Z" fill="white"/>
</mask>
<g mask="url(#mask0_49_745)">
<path fill-rule="evenodd" clip-rule="evenodd" d="M21.5997 12.3315C21.5997 17.6335 17.3017 21.9315 11.9997 21.9315C6.69781 21.9315 2.39973 17.6335 2.39973 12.3315C2.39973 7.02959 6.69781 2.73152 11.9997 2.73152C17.3017 2.73152 21.5997 7.02959 21.5997 12.3315ZM23.5197 12.3315C23.5197 18.6938 18.3621 23.8515 11.9997 23.8515C5.63742 23.8515 0.479736 18.6938 0.479736 12.3315C0.479736 5.9692 5.63742 0.811523 11.9997 0.811523C18.3621 0.811523 23.5197 5.9692 23.5197 12.3315ZM11.0397 11.3715V7.53152H12.9597V11.3715H16.7997V13.2915H12.9597V17.1315H11.0397V13.2915H7.19973V11.3715H11.0397Z" fill="white"/>
</g>
</g>
<defs>
<clipPath id="clip0_49_745">
<rect width="24" height="24" fill="white" transform="translate(0 0.78418)"/>
</clipPath>
</defs>
</svg>
