<svg width="24" height="25" viewBox="0 0 24 25" fill="none" xmlns="http://www.w3.org/2000/svg">
<g clip-path="url(#clip0_4_2718)">
<mask id="mask0_4_2718" style="mask-type:luminance" maskUnits="userSpaceOnUse" x="0" y="0" width="24" height="24">
<path d="M23.5197 0.736328H0.479675V23.7763H23.5197V0.736328Z" fill="white"/>
</mask>
<g mask="url(#mask0_4_2718)">
<path fill-rule="evenodd" clip-rule="evenodd" d="M21.5996 12.2563C21.5996 17.5583 17.3016 21.8563 11.9996 21.8563C6.69775 21.8563 2.39967 17.5583 2.39967 12.2563C2.39967 6.95439 6.69775 2.65633 11.9996 2.65633C17.3016 2.65633 21.5996 6.95439 21.5996 12.2563ZM23.5196 12.2563C23.5196 18.6186 18.362 23.7763 11.9996 23.7763C5.63736 23.7763 0.479675 18.6186 0.479675 12.2563C0.479675 5.894 5.63736 0.736328 11.9996 0.736328C18.362 0.736328 23.5196 5.894 23.5196 12.2563ZM11.0396 11.2963V7.45633H12.9596V11.2963H16.7996V13.2163H12.9596V17.0563H11.0396V13.2163H7.19967V11.2963H11.0396Z" fill="white"/>
</g>
</g>
<defs>
<clipPath id="clip0_4_2718">
<rect width="24" height="24" fill="white" transform="translate(0 0.708984)"/>
</clipPath>
</defs>
</svg>
