<svg width="25" height="25" viewBox="0 0 25 25" fill="none" xmlns="http://www.w3.org/2000/svg">
<g clip-path="url(#clip0_121_1931)">
<mask id="mask0_121_1931" style="mask-type:luminance" maskUnits="userSpaceOnUse" x="0" y="0" width="25" height="24">
<path d="M24.0195 0.5271H0.979492V23.5671H24.0195V0.5271Z" fill="white"/>
</mask>
<g mask="url(#mask0_121_1931)">
<path fill-rule="evenodd" clip-rule="evenodd" d="M6.73949 1.4871C6.73949 0.956907 7.1693 0.5271 7.69949 0.5271H17.2995C17.8297 0.5271 18.2595 0.956907 18.2595 1.4871V3.4071C18.2595 3.9373 17.8297 4.3671 17.2995 4.3671H13.4595V7.2471H17.2995C17.8297 7.2471 18.2595 7.67691 18.2595 8.2071V10.1271C18.2595 10.6573 17.8297 11.0871 17.2995 11.0871H13.4595V13.9671H17.2995C18.8901 13.9671 20.1795 15.2566 20.1795 16.8471V19.7271H23.0595C23.5897 19.7271 24.0195 20.1569 24.0195 20.6871V22.6071C24.0195 23.1373 23.5897 23.5671 23.0595 23.5671H15.3795C14.8493 23.5671 14.4195 23.1373 14.4195 22.6071V20.6871C14.4195 20.1569 14.8493 19.7271 15.3795 19.7271H18.2595V16.8471C18.2595 16.3169 17.8297 15.8871 17.2995 15.8871H7.69949C7.1693 15.8871 6.73949 16.3169 6.73949 16.8471V19.7271H9.61949C10.1497 19.7271 10.5795 20.1569 10.5795 20.6871V22.6071C10.5795 23.1373 10.1497 23.5671 9.61949 23.5671H1.93949C1.4093 23.5671 0.979492 23.1373 0.979492 22.6071V20.6871C0.979492 20.1569 1.4093 19.7271 1.93949 19.7271H4.81949V16.8471C4.81949 15.2566 6.10891 13.9671 7.69949 13.9671H11.5395V11.0871H7.69949C7.1693 11.0871 6.73949 10.6573 6.73949 10.1271V8.2071C6.73949 7.67691 7.1693 7.2471 7.69949 7.2471H11.5395V4.3671H7.69949C7.1693 4.3671 6.73949 3.9373 6.73949 3.4071V1.4871Z" fill="white"/>
</g>
</g>
<defs>
<clipPath id="clip0_121_1931">
<rect width="24" height="24" fill="white" transform="translate(0.5 0.5)"/>
</clipPath>
</defs>
</svg>
