<svg width="25" height="25" viewBox="0 0 25 25" fill="none" xmlns="http://www.w3.org/2000/svg">
<g clip-path="url(#clip0_120_1262)">
<mask id="mask0_120_1262" style="mask-type:luminance" maskUnits="userSpaceOnUse" x="0" y="0" width="25" height="24">
<path d="M24.0195 0.527222H0.979492V23.5672H24.0195V0.527222Z" fill="white"/>
</mask>
<g mask="url(#mask0_120_1262)">
<path fill-rule="evenodd" clip-rule="evenodd" d="M6.73949 1.48722C6.73949 0.957029 7.1693 0.527222 7.69949 0.527222H17.2995C17.8297 0.527222 18.2595 0.957029 18.2595 1.48722V3.40722C18.2595 3.93742 17.8297 4.36722 17.2995 4.36722H13.4595V7.24722H17.2995C17.8297 7.24722 18.2595 7.67703 18.2595 8.20722V10.1272C18.2595 10.6574 17.8297 11.0872 17.2995 11.0872H13.4595V13.9672H17.2995C18.8901 13.9672 20.1795 15.2567 20.1795 16.8472V19.7272H23.0595C23.5897 19.7272 24.0195 20.157 24.0195 20.6872V22.6072C24.0195 23.1374 23.5897 23.5672 23.0595 23.5672H15.3795C14.8493 23.5672 14.4195 23.1374 14.4195 22.6072V20.6872C14.4195 20.157 14.8493 19.7272 15.3795 19.7272H18.2595V16.8472C18.2595 16.317 17.8297 15.8872 17.2995 15.8872H7.69949C7.1693 15.8872 6.73949 16.317 6.73949 16.8472V19.7272H9.61949C10.1497 19.7272 10.5795 20.157 10.5795 20.6872V22.6072C10.5795 23.1374 10.1497 23.5672 9.61949 23.5672H1.93949C1.4093 23.5672 0.979492 23.1374 0.979492 22.6072V20.6872C0.979492 20.157 1.4093 19.7272 1.93949 19.7272H4.81949V16.8472C4.81949 15.2567 6.10891 13.9672 7.69949 13.9672H11.5395V11.0872H7.69949C7.1693 11.0872 6.73949 10.6574 6.73949 10.1272V8.20722C6.73949 7.67703 7.1693 7.24722 7.69949 7.24722H11.5395V4.36722H7.69949C7.1693 4.36722 6.73949 3.93742 6.73949 3.40722V1.48722Z" fill="white"/>
</g>
</g>
<defs>
<clipPath id="clip0_120_1262">
<rect width="24" height="24" fill="white" transform="translate(0.5 0.5)"/>
</clipPath>
</defs>
</svg>
