<svg width="24" height="25" viewBox="0 0 24 25" fill="none" xmlns="http://www.w3.org/2000/svg">
<g clip-path="url(#clip0_4_2718)">
<mask id="mask0_4_2718" style="mask-type:luminance" maskUnits="userSpaceOnUse" x="0" y="0" width="24" height="24">
<path d="M23.5197 0.078125H0.479736V23.1181H23.5197V0.078125Z" fill="white"/>
</mask>
<g mask="url(#mask0_4_2718)">
<path fill-rule="evenodd" clip-rule="evenodd" d="M21.5997 11.5981C21.5997 16.9001 17.3017 21.1981 11.9997 21.1981C6.69781 21.1981 2.39973 16.9001 2.39973 11.5981C2.39973 6.29619 6.69781 1.99812 11.9997 1.99812C17.3017 1.99812 21.5997 6.29619 21.5997 11.5981ZM23.5197 11.5981C23.5197 17.9604 18.3621 23.1181 11.9997 23.1181C5.63742 23.1181 0.479736 17.9604 0.479736 11.5981C0.479736 5.2358 5.63742 0.078125 11.9997 0.078125C18.3621 0.078125 23.5197 5.2358 23.5197 11.5981ZM11.0397 10.6381V6.79812H12.9597V10.6381H16.7997V12.5581H12.9597V16.3981H11.0397V12.5581H7.19973V10.6381H11.0397Z" fill="white"/>
</g>
</g>
<defs>
<clipPath id="clip0_4_2718">
<rect width="24" height="24" fill="white" transform="translate(0 0.0507812)"/>
</clipPath>
</defs>
</svg>
