<svg width="24" height="25" viewBox="0 0 24 25" fill="none" xmlns="http://www.w3.org/2000/svg">
<g clip-path="url(#clip0_4_2718)">
<mask id="mask0_4_2718" style="mask-type:luminance" maskUnits="userSpaceOnUse" x="0" y="0" width="24" height="24">
<path d="M23.5197 0.736328H0.479736V23.7763H23.5197V0.736328Z" fill="white"/>
</mask>
<g mask="url(#mask0_4_2718)">
<path fill-rule="evenodd" clip-rule="evenodd" d="M21.5997 12.2563C21.5997 17.5583 17.3017 21.8563 11.9997 21.8563C6.69781 21.8563 2.39973 17.5583 2.39973 12.2563C2.39973 6.95439 6.69781 2.65633 11.9997 2.65633C17.3017 2.65633 21.5997 6.95439 21.5997 12.2563ZM23.5197 12.2563C23.5197 18.6186 18.3621 23.7763 11.9997 23.7763C5.63742 23.7763 0.479736 18.6186 0.479736 12.2563C0.479736 5.894 5.63742 0.736328 11.9997 0.736328C18.3621 0.736328 23.5197 5.894 23.5197 12.2563ZM11.0397 11.2963V7.45633H12.9597V11.2963H16.7997V13.2163H12.9597V17.0563H11.0397V13.2163H7.19973V11.2963H11.0397Z" fill="white"/>
</g>
</g>
<defs>
<clipPath id="clip0_4_2718">
<rect width="24" height="24" fill="white" transform="translate(0 0.708984)"/>
</clipPath>
</defs>
</svg>
