<svg width="24" height="24" viewBox="0 0 24 24" fill="none" xmlns="http://www.w3.org/2000/svg">
<g clip-path="url(#clip0_49_745)">
<mask id="mask0_49_745" style="mask-type:luminance" maskUnits="userSpaceOnUse" x="0" y="0" width="24" height="24">
<path d="M23.5197 0.027832H0.479736V23.0678H23.5197V0.027832Z" fill="white"/>
</mask>
<g mask="url(#mask0_49_745)">
<path fill-rule="evenodd" clip-rule="evenodd" d="M21.5997 11.5478C21.5997 16.8498 17.3017 21.1478 11.9997 21.1478C6.69781 21.1478 2.39973 16.8498 2.39973 11.5478C2.39973 6.2459 6.69781 1.94783 11.9997 1.94783C17.3017 1.94783 21.5997 6.2459 21.5997 11.5478ZM23.5197 11.5478C23.5197 17.9101 18.3621 23.0678 11.9997 23.0678C5.63742 23.0678 0.479736 17.9101 0.479736 11.5478C0.479736 5.18551 5.63742 0.027832 11.9997 0.027832C18.3621 0.027832 23.5197 5.18551 23.5197 11.5478ZM11.0397 10.5878V6.74783H12.9597V10.5878H16.7997V12.5078H12.9597V16.3478H11.0397V12.5078H7.19973V10.5878H11.0397Z" fill="white"/>
</g>
</g>
<defs>
<clipPath id="clip0_49_745">
<rect width="24" height="24" fill="white" transform="translate(0 0.000488281)"/>
</clipPath>
</defs>
</svg>
