<svg width="24" height="25" viewBox="0 0 24 25" fill="none" xmlns="http://www.w3.org/2000/svg">
<g clip-path="url(#clip0_49_745)">
<mask id="mask0_49_745" style="mask-type:luminance" maskUnits="userSpaceOnUse" x="0" y="0" width="24" height="24">
<path d="M23.5197 0.577637H0.479736V23.6176H23.5197V0.577637Z" fill="white"/>
</mask>
<g mask="url(#mask0_49_745)">
<path fill-rule="evenodd" clip-rule="evenodd" d="M21.5997 12.0976C21.5997 17.3996 17.3017 21.6976 11.9997 21.6976C6.69781 21.6976 2.39973 17.3996 2.39973 12.0976C2.39973 6.7957 6.69781 2.49764 11.9997 2.49764C17.3017 2.49764 21.5997 6.7957 21.5997 12.0976ZM23.5197 12.0976C23.5197 18.4599 18.3621 23.6176 11.9997 23.6176C5.63742 23.6176 0.479736 18.4599 0.479736 12.0976C0.479736 5.73531 5.63742 0.577637 11.9997 0.577637C18.3621 0.577637 23.5197 5.73531 23.5197 12.0976ZM11.0397 11.1376V7.29764H12.9597V11.1376H16.7997V13.0576H12.9597V16.8976H11.0397V13.0576H7.19973V11.1376H11.0397Z" fill="white"/>
</g>
</g>
<defs>
<clipPath id="clip0_49_745">
<rect width="24" height="24" fill="white" transform="translate(0 0.550293)"/>
</clipPath>
</defs>
</svg>
