<svg width="25" height="25" viewBox="0 0 25 25" fill="none" xmlns="http://www.w3.org/2000/svg">
<g clip-path="url(#clip0_101_1811)">
<mask id="mask0_101_1811" style="mask-type:luminance" maskUnits="userSpaceOnUse" x="0" y="0" width="25" height="24">
<path d="M24.0195 0.39502H0.979492V23.435H24.0195V0.39502Z" fill="white"/>
</mask>
<g mask="url(#mask0_101_1811)">
<path fill-rule="evenodd" clip-rule="evenodd" d="M6.73949 1.35502C6.73949 0.824827 7.1693 0.39502 7.69949 0.39502H17.2995C17.8297 0.39502 18.2595 0.824827 18.2595 1.35502V3.27502C18.2595 3.80522 17.8297 4.23502 17.2995 4.23502H13.4595V7.11502H17.2995C17.8297 7.11502 18.2595 7.54483 18.2595 8.07502V9.995C18.2595 10.5252 17.8297 10.955 17.2995 10.955H13.4595V13.835H17.2995C18.8901 13.835 20.1795 15.1245 20.1795 16.715V19.595H23.0595C23.5897 19.595 24.0195 20.0248 24.0195 20.555V22.475C24.0195 23.0052 23.5897 23.435 23.0595 23.435H15.3795C14.8493 23.435 14.4195 23.0052 14.4195 22.475V20.555C14.4195 20.0248 14.8493 19.595 15.3795 19.595H18.2595V16.715C18.2595 16.1848 17.8297 15.755 17.2995 15.755H7.69949C7.1693 15.755 6.73949 16.1848 6.73949 16.715V19.595H9.61949C10.1497 19.595 10.5795 20.0248 10.5795 20.555V22.475C10.5795 23.0052 10.1497 23.435 9.61949 23.435H1.93949C1.4093 23.435 0.979492 23.0052 0.979492 22.475V20.555C0.979492 20.0248 1.4093 19.595 1.93949 19.595H4.81949V16.715C4.81949 15.1245 6.10891 13.835 7.69949 13.835H11.5395V10.955H7.69949C7.1693 10.955 6.73949 10.5252 6.73949 9.995V8.07502C6.73949 7.54483 7.1693 7.11502 7.69949 7.11502H11.5395V4.23502H7.69949C7.1693 4.23502 6.73949 3.80522 6.73949 3.27502V1.35502Z" fill="white"/>
</g>
</g>
<defs>
<clipPath id="clip0_101_1811">
<rect width="24" height="24" fill="white" transform="translate(0.5 0.367676)"/>
</clipPath>
</defs>
</svg>
