<svg width="24" height="25" viewBox="0 0 24 25" fill="none" xmlns="http://www.w3.org/2000/svg">
<g clip-path="url(#clip0_49_765)">
<mask id="mask0_49_765" style="mask-type:luminance" maskUnits="userSpaceOnUse" x="0" y="0" width="24" height="24">
<path d="M23.5195 0.745117H0.479492V23.7851H23.5195V0.745117Z" fill="white"/>
</mask>
<g mask="url(#mask0_49_765)">
<path fill-rule="evenodd" clip-rule="evenodd" d="M6.23949 1.70512C6.23949 1.17492 6.6693 0.745117 7.19949 0.745117H16.7995C17.3297 0.745117 17.7595 1.17492 17.7595 1.70512V3.62512C17.7595 4.15532 17.3297 4.58512 16.7995 4.58512H12.9595V7.46512H16.7995C17.3297 7.46512 17.7595 7.89493 17.7595 8.42512V10.3451C17.7595 10.8753 17.3297 11.3051 16.7995 11.3051H12.9595V14.1851H16.7995C18.3901 14.1851 19.6795 15.4746 19.6795 17.0651V19.9451H22.5595C23.0897 19.9451 23.5195 20.3749 23.5195 20.9051V22.8251C23.5195 23.3553 23.0897 23.7851 22.5595 23.7851H14.8795C14.3493 23.7851 13.9195 23.3553 13.9195 22.8251V20.9051C13.9195 20.3749 14.3493 19.9451 14.8795 19.9451H17.7595V17.0651C17.7595 16.5349 17.3297 16.1051 16.7995 16.1051H7.19949C6.6693 16.1051 6.23949 16.5349 6.23949 17.0651V19.9451H9.11949C9.64969 19.9451 10.0795 20.3749 10.0795 20.9051V22.8251C10.0795 23.3553 9.64969 23.7851 9.11949 23.7851H1.43949C0.909299 23.7851 0.479492 23.3553 0.479492 22.8251V20.9051C0.479492 20.3749 0.909299 19.9451 1.43949 19.9451H4.31949V17.0651C4.31949 15.4746 5.60891 14.1851 7.19949 14.1851H11.0395V11.3051H7.19949C6.6693 11.3051 6.23949 10.8753 6.23949 10.3451V8.42512C6.23949 7.89493 6.6693 7.46512 7.19949 7.46512H11.0395V4.58512H7.19949C6.6693 4.58512 6.23949 4.15532 6.23949 3.62512V1.70512Z" fill="white"/>
</g>
</g>
<defs>
<clipPath id="clip0_49_765">
<rect width="24" height="24" fill="white" transform="translate(0 0.717773)"/>
</clipPath>
</defs>
</svg>
