<svg width="24" height="25" viewBox="0 0 24 25" fill="none" xmlns="http://www.w3.org/2000/svg">
<g clip-path="url(#clip0_145_1439)">
<mask id="mask0_145_1439" style="mask-type:luminance" maskUnits="userSpaceOnUse" x="0" y="0" width="24" height="24">
<path d="M23.5195 0.363159H0.479492V23.4032H23.5195V0.363159Z" fill="white"/>
</mask>
<g mask="url(#mask0_145_1439)">
<path fill-rule="evenodd" clip-rule="evenodd" d="M6.23949 1.32316C6.23949 0.792966 6.6693 0.363159 7.19949 0.363159H16.7995C17.3297 0.363159 17.7595 0.792966 17.7595 1.32316V3.24316C17.7595 3.77336 17.3297 4.20316 16.7995 4.20316H12.9595V7.08316H16.7995C17.3297 7.08316 17.7595 7.51297 17.7595 8.04316V9.96314C17.7595 10.4933 17.3297 10.9231 16.7995 10.9231H12.9595V13.8031H16.7995C18.3901 13.8031 19.6795 15.0926 19.6795 16.6831V19.5631H22.5595C23.0897 19.5631 23.5195 19.9929 23.5195 20.5231V22.4431C23.5195 22.9733 23.0897 23.4031 22.5595 23.4031H14.8795C14.3493 23.4031 13.9195 22.9733 13.9195 22.4431V20.5231C13.9195 19.9929 14.3493 19.5631 14.8795 19.5631H17.7595V16.6831C17.7595 16.1529 17.3297 15.7231 16.7995 15.7231H7.19949C6.6693 15.7231 6.23949 16.1529 6.23949 16.6831V19.5631H9.11949C9.64969 19.5631 10.0795 19.9929 10.0795 20.5231V22.4431C10.0795 22.9733 9.64969 23.4031 9.11949 23.4031H1.43949C0.909299 23.4031 0.479492 22.9733 0.479492 22.4431V20.5231C0.479492 19.9929 0.909299 19.5631 1.43949 19.5631H4.31949V16.6831C4.31949 15.0926 5.60891 13.8031 7.19949 13.8031H11.0395V10.9231H7.19949C6.6693 10.9231 6.23949 10.4933 6.23949 9.96314V8.04316C6.23949 7.51297 6.6693 7.08316 7.19949 7.08316H11.0395V4.20316H7.19949C6.6693 4.20316 6.23949 3.77336 6.23949 3.24316V1.32316Z" fill="white"/>
</g>
</g>
<defs>
<clipPath id="clip0_145_1439">
<rect width="24" height="24" fill="white" transform="translate(0 0.335938)"/>
</clipPath>
</defs>
</svg>
