<svg width="24" height="24" viewBox="0 0 24 24" fill="none" xmlns="http://www.w3.org/2000/svg">
<g clip-path="url(#clip0_4_2718)">
<mask id="mask0_4_2718" style="mask-type:luminance" maskUnits="userSpaceOnUse" x="0" y="0" width="24" height="24">
<path d="M23.5196 0.0273438H0.479614V23.0673H23.5196V0.0273438Z" fill="white"/>
</mask>
<g mask="url(#mask0_4_2718)">
<path fill-rule="evenodd" clip-rule="evenodd" d="M21.5996 11.5473C21.5996 16.8493 17.3016 21.1473 11.9996 21.1473C6.69768 21.1473 2.39961 16.8493 2.39961 11.5473C2.39961 6.24541 6.69768 1.94734 11.9996 1.94734C17.3016 1.94734 21.5996 6.24541 21.5996 11.5473ZM23.5196 11.5473C23.5196 17.9096 18.362 23.0673 11.9996 23.0673C5.6373 23.0673 0.479614 17.9096 0.479614 11.5473C0.479614 5.18502 5.6373 0.0273438 11.9996 0.0273438C18.362 0.0273438 23.5196 5.18502 23.5196 11.5473ZM11.0396 10.5873V6.74734H12.9596V10.5873H16.7996V12.5073H12.9596V16.3473H11.0396V12.5073H7.19961V10.5873H11.0396Z" fill="white"/>
</g>
</g>
<defs>
<clipPath id="clip0_4_2718">
<rect width="24" height="24" fill="white"/>
</clipPath>
</defs>
</svg>
