<svg width="24" height="25" viewBox="0 0 24 25" fill="none" xmlns="http://www.w3.org/2000/svg">
<g clip-path="url(#clip0_145_1439)">
<mask id="mask0_145_1439" style="mask-type:luminance" maskUnits="userSpaceOnUse" x="0" y="0" width="24" height="24">
<path d="M23.5195 0.363037H0.479492V23.403H23.5195V0.363037Z" fill="white"/>
</mask>
<g mask="url(#mask0_145_1439)">
<path fill-rule="evenodd" clip-rule="evenodd" d="M6.23949 1.32304C6.23949 0.792844 6.6693 0.363037 7.19949 0.363037H16.7995C17.3297 0.363037 17.7595 0.792844 17.7595 1.32304V3.24304C17.7595 3.77324 17.3297 4.20304 16.7995 4.20304H12.9595V7.08304H16.7995C17.3297 7.08304 17.7595 7.51285 17.7595 8.04304V9.96302C17.7595 10.4932 17.3297 10.923 16.7995 10.923H12.9595V13.803H16.7995C18.3901 13.803 19.6795 15.0925 19.6795 16.683V19.563H22.5595C23.0897 19.563 23.5195 19.9928 23.5195 20.523V22.443C23.5195 22.9732 23.0897 23.403 22.5595 23.403H14.8795C14.3493 23.403 13.9195 22.9732 13.9195 22.443V20.523C13.9195 19.9928 14.3493 19.563 14.8795 19.563H17.7595V16.683C17.7595 16.1528 17.3297 15.723 16.7995 15.723H7.19949C6.6693 15.723 6.23949 16.1528 6.23949 16.683V19.563H9.11949C9.64969 19.563 10.0795 19.9928 10.0795 20.523V22.443C10.0795 22.9732 9.64969 23.403 9.11949 23.403H1.43949C0.909299 23.403 0.479492 22.9732 0.479492 22.443V20.523C0.479492 19.9928 0.909299 19.563 1.43949 19.563H4.31949V16.683C4.31949 15.0925 5.60891 13.803 7.19949 13.803H11.0395V10.923H7.19949C6.6693 10.923 6.23949 10.4932 6.23949 9.96302V8.04304C6.23949 7.51285 6.6693 7.08304 7.19949 7.08304H11.0395V4.20304H7.19949C6.6693 4.20304 6.23949 3.77324 6.23949 3.24304V1.32304Z" fill="white"/>
</g>
</g>
<defs>
<clipPath id="clip0_145_1439">
<rect width="24" height="24" fill="white" transform="translate(0 0.335938)"/>
</clipPath>
</defs>
</svg>
