<svg width="14" height="14" viewBox="0 0 14 14" fill="none" xmlns="http://www.w3.org/2000/svg">
<g clip-path="url(#clip0_121_2240)">
<path d="M7 0.420042C7.88837 0.420042 8.74944 0.594359 9.56228 0.936691C9.95288 1.10261 10.3289 1.30633 10.6795 1.54365C11.0282 1.77887 11.3558 2.0498 11.6541 2.34804C11.9523 2.64627 12.2232 2.97389 12.4585 3.32253C12.6958 3.67326 12.8995 4.05131 13.0654 4.43984C13.4077 5.25052 13.582 6.11161 13.582 7.0021C13.582 7.89257 13.4077 8.75154 13.0654 9.56438C12.8995 9.95498 12.6958 10.3309 12.4585 10.6816C12.2232 11.0303 11.9523 11.3579 11.6541 11.6562C11.3558 11.9544 11.0282 12.2253 10.6795 12.4606C10.3289 12.6979 9.95078 12.9016 9.56228 13.0675C8.75154 13.4098 7.89047 13.5841 7 13.5841C6.11161 13.5841 5.25053 13.4098 4.43774 13.0675C4.04711 12.9016 3.67116 12.6979 3.32043 12.4606C2.97179 12.2253 2.64417 11.9544 2.34593 11.6562C2.0477 11.3579 1.77677 11.0303 1.54155 10.6816C1.30423 10.3309 1.10051 9.95288 0.934591 9.56438C0.594359 8.75154 0.420042 7.88837 0.420042 7C0.420042 6.11161 0.594359 5.25053 0.936691 4.43774C1.10261 4.04711 1.30633 3.67116 1.54365 3.32043C1.77887 2.97179 2.0498 2.64417 2.34804 2.34593C2.64627 2.0477 2.97389 1.77677 3.32253 1.54155C3.67326 1.30423 4.05131 1.10051 4.43984 0.934591C5.25052 0.594359 6.11161 0.420042 7 0.420042ZM7 0C3.13351 0 0 3.13351 0 7C0 10.8665 3.13351 14 7 14C10.8665 14 14 10.8665 14 7C14.0021 3.13351 10.8665 0 7 0Z" fill="#32373C"/>
<path d="M1.16797 7.00028C1.16797 9.30839 2.51 11.3057 4.4569 12.2508L1.67412 4.62702C1.34858 5.35159 1.16797 6.15597 1.16797 7.00028ZM10.9403 6.70623C10.9403 5.98585 10.6819 5.486 10.4593 5.09747C10.1632 4.61652 9.88592 4.20908 9.88592 3.73023C9.88592 3.19467 10.2934 2.69482 10.8647 2.69482C10.8899 2.69482 10.9151 2.69692 10.9403 2.69902C9.90272 1.74763 8.51868 1.16797 7.00024 1.16797C4.96305 1.16797 3.16947 2.21387 2.12567 3.79743C2.26218 3.80163 2.39239 3.80373 2.5016 3.80373C3.11066 3.80373 4.05576 3.73023 4.05576 3.73023C4.37079 3.71133 4.40649 4.17337 4.09356 4.21118C4.09356 4.21118 3.77643 4.24898 3.42569 4.26578L5.5511 10.5853L6.82804 6.75663L5.91864 4.26578C5.60361 4.24688 5.30748 4.21118 5.30748 4.21118C4.99245 4.19228 5.03025 3.71133 5.34529 3.73023C5.34529 3.73023 6.30928 3.80373 6.88264 3.80373C7.49171 3.80373 8.43678 3.73023 8.43678 3.73023C8.75185 3.71133 8.78755 4.17337 8.47458 4.21118C8.47458 4.21118 8.15748 4.24898 7.80671 4.26578L9.91322 10.537L10.516 8.63002C10.7828 7.79625 10.9403 7.20608 10.9403 6.70623ZM7.10314 7.51058L5.35159 12.5973C5.87454 12.7506 6.42689 12.8346 7.00024 12.8346C7.67861 12.8346 8.33178 12.717 8.93665 12.5049C8.92195 12.4797 8.90725 12.4524 8.89465 12.4251L7.10314 7.51058ZM12.1206 4.20278C12.1458 4.3876 12.1605 4.58711 12.1605 4.80343C12.1605 5.3957 12.0491 6.06146 11.7173 6.89314L9.93422 12.0429C11.669 11.0326 12.8347 9.15299 12.8347 7.00028C12.8347 5.98585 12.5763 5.03236 12.1206 4.20278Z" fill="#32373C"/>
</g>
<defs>
<clipPath id="clip0_121_2240">
<rect width="14" height="14" fill="white"/>
</clipPath>
</defs>
</svg>
