<svg width="24" height="25" viewBox="0 0 24 25" fill="none" xmlns="http://www.w3.org/2000/svg">
<g clip-path="url(#clip0_49_765)">
<mask id="mask0_49_765" style="mask-type:luminance" maskUnits="userSpaceOnUse" x="0" y="0" width="24" height="24">
<path d="M23.5195 0.811523H0.479492V23.8515H23.5195V0.811523Z" fill="white"/>
</mask>
<g mask="url(#mask0_49_765)">
<path fill-rule="evenodd" clip-rule="evenodd" d="M6.23949 1.77152C6.23949 1.24133 6.6693 0.811523 7.19949 0.811523H16.7995C17.3297 0.811523 17.7595 1.24133 17.7595 1.77152V3.69152C17.7595 4.22172 17.3297 4.65152 16.7995 4.65152H12.9595V7.53152H16.7995C17.3297 7.53152 17.7595 7.96133 17.7595 8.49152V10.4115C17.7595 10.9417 17.3297 11.3715 16.7995 11.3715H12.9595V14.2515H16.7995C18.3901 14.2515 19.6795 15.541 19.6795 17.1315V20.0115H22.5595C23.0897 20.0115 23.5195 20.4413 23.5195 20.9715V22.8915C23.5195 23.4217 23.0897 23.8515 22.5595 23.8515H14.8795C14.3493 23.8515 13.9195 23.4217 13.9195 22.8915V20.9715C13.9195 20.4413 14.3493 20.0115 14.8795 20.0115H17.7595V17.1315C17.7595 16.6013 17.3297 16.1715 16.7995 16.1715H7.19949C6.6693 16.1715 6.23949 16.6013 6.23949 17.1315V20.0115H9.11949C9.64969 20.0115 10.0795 20.4413 10.0795 20.9715V22.8915C10.0795 23.4217 9.64969 23.8515 9.11949 23.8515H1.43949C0.909299 23.8515 0.479492 23.4217 0.479492 22.8915V20.9715C0.479492 20.4413 0.909299 20.0115 1.43949 20.0115H4.31949V17.1315C4.31949 15.541 5.60891 14.2515 7.19949 14.2515H11.0395V11.3715H7.19949C6.6693 11.3715 6.23949 10.9417 6.23949 10.4115V8.49152C6.23949 7.96133 6.6693 7.53152 7.19949 7.53152H11.0395V4.65152H7.19949C6.6693 4.65152 6.23949 4.22172 6.23949 3.69152V1.77152Z" fill="white"/>
</g>
</g>
<defs>
<clipPath id="clip0_49_765">
<rect width="24" height="24" fill="white" transform="translate(0 0.78418)"/>
</clipPath>
</defs>
</svg>
