<svg width="24" height="25" viewBox="0 0 24 25" fill="none" xmlns="http://www.w3.org/2000/svg">
<g clip-path="url(#clip0_49_765)">
<mask id="mask0_49_765" style="mask-type:luminance" maskUnits="userSpaceOnUse" x="0" y="0" width="24" height="24">
<path d="M23.5195 0.0776367H0.479492V23.1176H23.5195V0.0776367Z" fill="white"/>
</mask>
<g mask="url(#mask0_49_765)">
<path fill-rule="evenodd" clip-rule="evenodd" d="M6.23949 1.03764C6.23949 0.507444 6.6693 0.0776367 7.19949 0.0776367H16.7995C17.3297 0.0776367 17.7595 0.507444 17.7595 1.03764V2.95764C17.7595 3.48783 17.3297 3.91764 16.7995 3.91764H12.9595V6.79764H16.7995C17.3297 6.79764 17.7595 7.22745 17.7595 7.75764V9.67762C17.7595 10.2078 17.3297 10.6376 16.7995 10.6376H12.9595V13.5176H16.7995C18.3901 13.5176 19.6795 14.8071 19.6795 16.3976V19.2776H22.5595C23.0897 19.2776 23.5195 19.7074 23.5195 20.2376V22.1576C23.5195 22.6878 23.0897 23.1176 22.5595 23.1176H14.8795C14.3493 23.1176 13.9195 22.6878 13.9195 22.1576V20.2376C13.9195 19.7074 14.3493 19.2776 14.8795 19.2776H17.7595V16.3976C17.7595 15.8674 17.3297 15.4376 16.7995 15.4376H7.19949C6.6693 15.4376 6.23949 15.8674 6.23949 16.3976V19.2776H9.11949C9.64969 19.2776 10.0795 19.7074 10.0795 20.2376V22.1576C10.0795 22.6878 9.64969 23.1176 9.11949 23.1176H1.43949C0.909299 23.1176 0.479492 22.6878 0.479492 22.1576V20.2376C0.479492 19.7074 0.909299 19.2776 1.43949 19.2776H4.31949V16.3976C4.31949 14.8071 5.60891 13.5176 7.19949 13.5176H11.0395V10.6376H7.19949C6.6693 10.6376 6.23949 10.2078 6.23949 9.67762V7.75764C6.23949 7.22745 6.6693 6.79764 7.19949 6.79764H11.0395V3.91764H7.19949C6.6693 3.91764 6.23949 3.48783 6.23949 2.95764V1.03764Z" fill="white"/>
</g>
</g>
<defs>
<clipPath id="clip0_49_765">
<rect width="24" height="24" fill="white" transform="translate(0 0.050293)"/>
</clipPath>
</defs>
</svg>
