<svg width="24" height="24" viewBox="0 0 24 24" fill="none" xmlns="http://www.w3.org/2000/svg">
<g clip-path="url(#clip0_49_765)">
<mask id="mask0_49_765" style="mask-type:luminance" maskUnits="userSpaceOnUse" x="0" y="0" width="24" height="24">
<path d="M23.5195 0.027832H0.479492V23.0678H23.5195V0.027832Z" fill="white"/>
</mask>
<g mask="url(#mask0_49_765)">
<path fill-rule="evenodd" clip-rule="evenodd" d="M6.23949 0.987832C6.23949 0.457639 6.6693 0.027832 7.19949 0.027832H16.7995C17.3297 0.027832 17.7595 0.457639 17.7595 0.987832V2.90783C17.7595 3.43803 17.3297 3.86783 16.7995 3.86783H12.9595V6.74783H16.7995C17.3297 6.74783 17.7595 7.17764 17.7595 7.70783V9.62781C17.7595 10.158 17.3297 10.5878 16.7995 10.5878H12.9595V13.4678H16.7995C18.3901 13.4678 19.6795 14.7573 19.6795 16.3478V19.2278H22.5595C23.0897 19.2278 23.5195 19.6576 23.5195 20.1878V22.1078C23.5195 22.638 23.0897 23.0678 22.5595 23.0678H14.8795C14.3493 23.0678 13.9195 22.638 13.9195 22.1078V20.1878C13.9195 19.6576 14.3493 19.2278 14.8795 19.2278H17.7595V16.3478C17.7595 15.8176 17.3297 15.3878 16.7995 15.3878H7.19949C6.6693 15.3878 6.23949 15.8176 6.23949 16.3478V19.2278H9.11949C9.64969 19.2278 10.0795 19.6576 10.0795 20.1878V22.1078C10.0795 22.638 9.64969 23.0678 9.11949 23.0678H1.43949C0.909299 23.0678 0.479492 22.638 0.479492 22.1078V20.1878C0.479492 19.6576 0.909299 19.2278 1.43949 19.2278H4.31949V16.3478C4.31949 14.7573 5.60891 13.4678 7.19949 13.4678H11.0395V10.5878H7.19949C6.6693 10.5878 6.23949 10.158 6.23949 9.62781V7.70783C6.23949 7.17764 6.6693 6.74783 7.19949 6.74783H11.0395V3.86783H7.19949C6.6693 3.86783 6.23949 3.43803 6.23949 2.90783V0.987832Z" fill="white"/>
</g>
</g>
<defs>
<clipPath id="clip0_49_765">
<rect width="24" height="24" fill="white" transform="translate(0 0.000488281)"/>
</clipPath>
</defs>
</svg>
