<svg width="24" height="25" viewBox="0 0 24 25" fill="none" xmlns="http://www.w3.org/2000/svg">
<g clip-path="url(#clip0_49_765)">
<mask id="mask0_49_765" style="mask-type:luminance" maskUnits="userSpaceOnUse" x="0" y="0" width="24" height="24">
<path d="M23.5195 0.577637H0.479492V23.6176H23.5195V0.577637Z" fill="white"/>
</mask>
<g mask="url(#mask0_49_765)">
<path fill-rule="evenodd" clip-rule="evenodd" d="M6.23949 1.53764C6.23949 1.00744 6.6693 0.577637 7.19949 0.577637H16.7995C17.3297 0.577637 17.7595 1.00744 17.7595 1.53764V3.45764C17.7595 3.98783 17.3297 4.41764 16.7995 4.41764H12.9595V7.29764H16.7995C17.3297 7.29764 17.7595 7.72745 17.7595 8.25764V10.1776C17.7595 10.7078 17.3297 11.1376 16.7995 11.1376H12.9595V14.0176H16.7995C18.3901 14.0176 19.6795 15.3071 19.6795 16.8976V19.7776H22.5595C23.0897 19.7776 23.5195 20.2074 23.5195 20.7376V22.6576C23.5195 23.1878 23.0897 23.6176 22.5595 23.6176H14.8795C14.3493 23.6176 13.9195 23.1878 13.9195 22.6576V20.7376C13.9195 20.2074 14.3493 19.7776 14.8795 19.7776H17.7595V16.8976C17.7595 16.3674 17.3297 15.9376 16.7995 15.9376H7.19949C6.6693 15.9376 6.23949 16.3674 6.23949 16.8976V19.7776H9.11949C9.64969 19.7776 10.0795 20.2074 10.0795 20.7376V22.6576C10.0795 23.1878 9.64969 23.6176 9.11949 23.6176H1.43949C0.909299 23.6176 0.479492 23.1878 0.479492 22.6576V20.7376C0.479492 20.2074 0.909299 19.7776 1.43949 19.7776H4.31949V16.8976C4.31949 15.3071 5.60891 14.0176 7.19949 14.0176H11.0395V11.1376H7.19949C6.6693 11.1376 6.23949 10.7078 6.23949 10.1776V8.25764C6.23949 7.72745 6.6693 7.29764 7.19949 7.29764H11.0395V4.41764H7.19949C6.6693 4.41764 6.23949 3.98783 6.23949 3.45764V1.53764Z" fill="white"/>
</g>
</g>
<defs>
<clipPath id="clip0_49_765">
<rect width="24" height="24" fill="white" transform="translate(0 0.550293)"/>
</clipPath>
</defs>
</svg>
