<svg width="25" height="25" viewBox="0 0 25 25" fill="none" xmlns="http://www.w3.org/2000/svg">
<g clip-path="url(#clip0_101_1834)">
<mask id="mask0_101_1834" style="mask-type:luminance" maskUnits="userSpaceOnUse" x="0" y="0" width="24" height="24">
<path d="M23.5849 0.847168H0.544922V23.8872H23.5849V0.847168Z" fill="white"/>
</mask>
<g mask="url(#mask0_101_1834)">
<path fill-rule="evenodd" clip-rule="evenodd" d="M0.544922 4.68705C0.544922 4.15686 0.974728 3.72705 1.50493 3.72705H6.30493C6.83512 3.72705 7.26493 4.15686 7.26493 4.68705V20.047C7.26493 20.5772 6.83512 21.007 6.30493 21.007H1.50492C0.974728 21.007 0.544922 20.5772 0.544922 20.047V4.68705ZM16.8649 4.68705C16.8649 4.15686 17.2947 3.72705 17.8249 3.72705H22.6249C23.1552 3.72705 23.5849 4.15686 23.5849 4.68705V16.207C23.5849 16.7372 23.1552 17.167 22.6249 17.167H17.8249C17.2947 17.167 16.8649 16.7372 16.8649 16.207V4.68705ZM10.1449 3.72705C9.61473 3.72705 9.18493 4.15686 9.18493 4.68705V12.367C9.18493 12.8972 9.61473 13.327 10.1449 13.327H13.9849C14.5152 13.327 14.9449 12.8972 14.9449 12.367V4.68705C14.9449 4.15686 14.5152 3.72705 13.9849 3.72705H10.1449Z" fill="white"/>
</g>
</g>
<defs>
<clipPath id="clip0_101_1834">
<rect width="24" height="24" fill="white" transform="translate(0.5 0.367676)"/>
</clipPath>
</defs>
</svg>
