<svg width="25" height="25" viewBox="0 0 25 25" fill="none" xmlns="http://www.w3.org/2000/svg">
<g clip-path="url(#clip0_120_1285)">
<mask id="mask0_120_1285" style="mask-type:luminance" maskUnits="userSpaceOnUse" x="0" y="0" width="24" height="25">
<path d="M23.5849 0.979492H0.544922V24.0195H23.5849V0.979492Z" fill="white"/>
</mask>
<g mask="url(#mask0_120_1285)">
<path fill-rule="evenodd" clip-rule="evenodd" d="M0.544922 4.8195C0.544922 4.28931 0.974728 3.8595 1.50493 3.8595H6.30493C6.83512 3.8595 7.26493 4.28931 7.26493 4.8195V20.1795C7.26493 20.7097 6.83512 21.1395 6.30493 21.1395H1.50492C0.974728 21.1395 0.544922 20.7097 0.544922 20.1795V4.8195ZM16.8649 4.8195C16.8649 4.28931 17.2947 3.8595 17.8249 3.8595H22.6249C23.1552 3.8595 23.5849 4.28931 23.5849 4.8195V16.3395C23.5849 16.8697 23.1552 17.2995 22.6249 17.2995H17.8249C17.2947 17.2995 16.8649 16.8697 16.8649 16.3395V4.8195ZM10.1449 3.8595C9.61473 3.8595 9.18493 4.28931 9.18493 4.8195V12.4995C9.18493 13.0297 9.61473 13.4595 10.1449 13.4595H13.9849C14.5152 13.4595 14.9449 13.0297 14.9449 12.4995V4.8195C14.9449 4.28931 14.5152 3.8595 13.9849 3.8595H10.1449Z" fill="white"/>
</g>
</g>
<defs>
<clipPath id="clip0_120_1285">
<rect width="24" height="24" fill="white" transform="translate(0.5 0.5)"/>
</clipPath>
</defs>
</svg>
