<svg width="25" height="25" viewBox="0 0 25 25" fill="none" xmlns="http://www.w3.org/2000/svg">
<g clip-path="url(#clip0_121_1954)">
<mask id="mask0_121_1954" style="mask-type:luminance" maskUnits="userSpaceOnUse" x="0" y="0" width="24" height="25">
<path d="M23.5849 0.979492H0.544922V24.0195H23.5849V0.979492Z" fill="white"/>
</mask>
<g mask="url(#mask0_121_1954)">
<path fill-rule="evenodd" clip-rule="evenodd" d="M0.544922 4.81937C0.544922 4.28919 0.974728 3.85938 1.50493 3.85938H6.30493C6.83512 3.85938 7.26493 4.28919 7.26493 4.81937V20.1794C7.26493 20.7096 6.83512 21.1394 6.30493 21.1394H1.50492C0.974728 21.1394 0.544922 20.7096 0.544922 20.1794V4.81937ZM16.8649 4.81937C16.8649 4.28919 17.2947 3.85938 17.8249 3.85938H22.6249C23.1552 3.85938 23.5849 4.28919 23.5849 4.81937V16.3394C23.5849 16.8696 23.1552 17.2994 22.6249 17.2994H17.8249C17.2947 17.2994 16.8649 16.8696 16.8649 16.3394V4.81937ZM10.1449 3.85938C9.61473 3.85938 9.18493 4.28919 9.18493 4.81937V12.4994C9.18493 13.0296 9.61473 13.4594 10.1449 13.4594H13.9849C14.5152 13.4594 14.9449 13.0296 14.9449 12.4994V4.81937C14.9449 4.28919 14.5152 3.85938 13.9849 3.85938H10.1449Z" fill="white"/>
</g>
</g>
<defs>
<clipPath id="clip0_121_1954">
<rect width="24" height="24" fill="white" transform="translate(0.5 0.5)"/>
</clipPath>
</defs>
</svg>
