<svg width="24" height="25" viewBox="0 0 24 25" fill="none" xmlns="http://www.w3.org/2000/svg">
<g clip-path="url(#clip0_49_788)">
<mask id="mask0_49_788" style="mask-type:luminance" maskUnits="userSpaceOnUse" x="0" y="1" width="24" height="24">
<path d="M23.0849 1.19727H0.0449219V24.2373H23.0849V1.19727Z" fill="white"/>
</mask>
<g mask="url(#mask0_49_788)">
<path fill-rule="evenodd" clip-rule="evenodd" d="M0.0449219 5.03715C0.0449219 4.50696 0.474728 4.07715 1.00493 4.07715H5.80493C6.33512 4.07715 6.76493 4.50696 6.76493 5.03715V20.3971C6.76493 20.9273 6.33512 21.3571 5.80493 21.3571H1.00492C0.474728 21.3571 0.0449219 20.9273 0.0449219 20.3971V5.03715ZM16.3649 5.03715C16.3649 4.50696 16.7947 4.07715 17.3249 4.07715H22.1249C22.6552 4.07715 23.0849 4.50696 23.0849 5.03715V16.5571C23.0849 17.0873 22.6552 17.5171 22.1249 17.5171H17.3249C16.7947 17.5171 16.3649 17.0873 16.3649 16.5571V5.03715ZM9.64495 4.07715C9.11473 4.07715 8.68493 4.50696 8.68493 5.03715V12.7171C8.68493 13.2473 9.11473 13.6771 9.64495 13.6771H13.4849C14.0152 13.6771 14.4449 13.2473 14.4449 12.7171V5.03715C14.4449 4.50696 14.0152 4.07715 13.4849 4.07715H9.64495Z" fill="white"/>
</g>
</g>
<defs>
<clipPath id="clip0_49_788">
<rect width="24" height="24" fill="white" transform="translate(0 0.717773)"/>
</clipPath>
</defs>
</svg>
