<svg width="24" height="25" viewBox="0 0 24 25" fill="none" xmlns="http://www.w3.org/2000/svg">
<g clip-path="url(#clip0_4_2683)">
<mask id="mask0_4_2683" style="mask-type:luminance" maskUnits="userSpaceOnUse" x="0" y="0" width="24" height="24">
<path d="M23.5195 0.736328H0.479492V23.7763H23.5195V0.736328Z" fill="white"/>
</mask>
<g mask="url(#mask0_4_2683)">
<path fill-rule="evenodd" clip-rule="evenodd" d="M6.23949 1.69633C6.23949 1.16614 6.6693 0.736328 7.19949 0.736328H16.7995C17.3297 0.736328 17.7595 1.16614 17.7595 1.69633V3.61633C17.7595 4.14653 17.3297 4.57633 16.7995 4.57633H12.9595V7.45633H16.7995C17.3297 7.45633 17.7595 7.88614 17.7595 8.41633V10.3363C17.7595 10.8665 17.3297 11.2963 16.7995 11.2963H12.9595V14.1763H16.7995C18.3901 14.1763 19.6795 15.4658 19.6795 17.0563V19.9363H22.5595C23.0897 19.9363 23.5195 20.3661 23.5195 20.8963V22.8163C23.5195 23.3465 23.0897 23.7763 22.5595 23.7763H14.8795C14.3493 23.7763 13.9195 23.3465 13.9195 22.8163V20.8963C13.9195 20.3661 14.3493 19.9363 14.8795 19.9363H17.7595V17.0563C17.7595 16.5261 17.3297 16.0963 16.7995 16.0963H7.19949C6.6693 16.0963 6.23949 16.5261 6.23949 17.0563V19.9363H9.11949C9.64969 19.9363 10.0795 20.3661 10.0795 20.8963V22.8163C10.0795 23.3465 9.64969 23.7763 9.11949 23.7763H1.43949C0.909299 23.7763 0.479492 23.3465 0.479492 22.8163V20.8963C0.479492 20.3661 0.909299 19.9363 1.43949 19.9363H4.31949V17.0563C4.31949 15.4658 5.60891 14.1763 7.19949 14.1763H11.0395V11.2963H7.19949C6.6693 11.2963 6.23949 10.8665 6.23949 10.3363V8.41633C6.23949 7.88614 6.6693 7.45633 7.19949 7.45633H11.0395V4.57633H7.19949C6.6693 4.57633 6.23949 4.14653 6.23949 3.61633V1.69633Z" fill="white"/>
</g>
</g>
<defs>
<clipPath id="clip0_4_2683">
<rect width="24" height="24" fill="white" transform="translate(0 0.708984)"/>
</clipPath>
</defs>
</svg>
