<svg width="14" height="15" viewBox="0 0 14 15" fill="none" xmlns="http://www.w3.org/2000/svg">
<g clip-path="url(#clip0_120_1571)">
<path d="M7 0.609983C7.88837 0.609983 8.74944 0.784301 9.56228 1.12663C9.95288 1.29255 10.3289 1.49627 10.6795 1.7336C11.0282 1.96882 11.3558 2.23974 11.6541 2.53798C11.9523 2.83621 12.2232 3.16384 12.4585 3.51247C12.6958 3.86321 12.8995 4.24125 13.0654 4.62978C13.4077 5.44047 13.582 6.30155 13.582 7.19204C13.582 8.08251 13.4077 8.94148 13.0654 9.75432C12.8995 10.1449 12.6958 10.5209 12.4585 10.8716C12.2232 11.2203 11.9523 11.5479 11.6541 11.8461C11.3558 12.1443 11.0282 12.4152 10.6795 12.6505C10.3289 12.8878 9.95078 13.0915 9.56228 13.2575C8.75154 13.5998 7.89047 13.7741 7 13.7741C6.11161 13.7741 5.25053 13.5998 4.43774 13.2575C4.04711 13.0915 3.67116 12.8878 3.32043 12.6505C2.97179 12.4152 2.64417 12.1443 2.34593 11.8461C2.0477 11.5479 1.77677 11.2203 1.54155 10.8716C1.30423 10.5209 1.10051 10.1428 0.934591 9.75432C0.594359 8.94148 0.420042 8.07831 0.420042 7.18994C0.420042 6.30155 0.594359 5.44047 0.936691 4.62768C1.10261 4.23705 1.30633 3.86111 1.54365 3.51037C1.77887 3.16174 2.0498 2.83411 2.34804 2.53587C2.64627 2.23764 2.97389 1.96672 3.32253 1.7315C3.67326 1.49417 4.05131 1.29045 4.43984 1.12453C5.25052 0.784301 6.11161 0.609983 7 0.609983ZM7 0.189941C3.13351 0.189941 0 3.32346 0 7.18994C0 11.0565 3.13351 14.1899 7 14.1899C10.8665 14.1899 14 11.0565 14 7.18994C14.0021 3.32346 10.8665 0.189941 7 0.189941Z" fill="#32373C"/>
<path d="M1.16797 7.19022C1.16797 9.49833 2.51 11.4956 4.4569 12.4407L1.67412 4.81696C1.34858 5.54153 1.16797 6.34591 1.16797 7.19022ZM10.9403 6.89617C10.9403 6.17579 10.6819 5.67594 10.4593 5.28741C10.1632 4.80646 9.88592 4.39902 9.88592 3.92017C9.88592 3.38461 10.2934 2.88476 10.8647 2.88476C10.8899 2.88476 10.9151 2.88686 10.9403 2.88896C9.90272 1.93757 8.51868 1.35791 7.00024 1.35791C4.96305 1.35791 3.16947 2.40382 2.12567 3.98738C2.26218 3.99158 2.39239 3.99368 2.5016 3.99368C3.11066 3.99368 4.05576 3.92017 4.05576 3.92017C4.37079 3.90127 4.40649 4.36331 4.09356 4.40112C4.09356 4.40112 3.77643 4.43893 3.42569 4.45573L5.5511 10.7753L6.82804 6.94657L5.91864 4.45573C5.60361 4.43682 5.30748 4.40112 5.30748 4.40112C4.99245 4.38222 5.03025 3.90127 5.34529 3.92017C5.34529 3.92017 6.30928 3.99368 6.88264 3.99368C7.49171 3.99368 8.43678 3.92017 8.43678 3.92017C8.75185 3.90127 8.78755 4.36331 8.47458 4.40112C8.47458 4.40112 8.15748 4.43893 7.80671 4.45573L9.91322 10.727L10.516 8.81996C10.7828 7.98619 10.9403 7.39602 10.9403 6.89617ZM7.10314 7.70052L5.35159 12.7873C5.87454 12.9406 6.42689 13.0246 7.00024 13.0246C7.67861 13.0246 8.33178 12.907 8.93665 12.6949C8.92195 12.6697 8.90725 12.6423 8.89465 12.615L7.10314 7.70052ZM12.1206 4.39272C12.1458 4.57754 12.1605 4.77705 12.1605 4.99337C12.1605 5.58564 12.0491 6.2514 11.7173 7.08308L9.93422 12.2328C11.669 11.2226 12.8347 9.34293 12.8347 7.19022C12.8347 6.17579 12.5763 5.2223 12.1206 4.39272Z" fill="#32373C"/>
</g>
<defs>
<clipPath id="clip0_120_1571">
<rect width="14" height="14" fill="white" transform="translate(0 0.189941)"/>
</clipPath>
</defs>
</svg>
