<svg width="14" height="14" viewBox="0 0 14 14" fill="none" xmlns="http://www.w3.org/2000/svg">
<g clip-path="url(#clip0_121_2253)">
<path d="M5.82697 2.83357C6.27802 2.3596 6.90598 2.06565 7.6005 2.06565C8.52374 2.06565 9.32926 2.58483 9.75819 3.35557C10.1309 3.18759 10.5435 3.09417 10.9777 3.09417C12.6428 3.09417 13.9928 4.46746 13.9928 6.16143C13.9928 7.85561 12.6428 9.22889 10.9777 9.22889C10.7745 9.22889 10.5758 9.20842 10.3838 9.16922C10.006 9.84874 9.28621 10.3078 8.45998 10.3078C8.11412 10.3078 7.78699 10.2273 7.49573 10.084C7.11277 10.9924 6.22062 11.6293 5.18086 11.6293C4.09804 11.6293 3.1752 10.9384 2.82097 9.96926C2.66617 10.0025 2.50579 10.0197 2.34122 10.0197C1.052 10.0197 0.00683594 8.95484 0.00683594 7.641C0.00683594 6.76058 0.476423 5.99185 1.17413 5.58057C1.03048 5.24724 0.950591 4.87935 0.950591 4.49258C0.950591 2.98165 2.16689 1.75684 3.6671 1.75684C4.5479 1.75684 5.33068 2.17917 5.82697 2.83357Z" fill="#00A1E0"/>
<path d="M2.03246 6.87686C2.02369 6.89997 2.03565 6.90479 2.03844 6.90881C2.06473 6.9281 2.09143 6.94196 2.11833 6.95743C2.26098 7.03378 2.39566 7.05609 2.53651 7.05609C2.82341 7.05609 3.00151 6.90218 3.00151 6.65445V6.64962C3.00151 6.42057 2.80049 6.33739 2.61182 6.27731L2.58732 6.26928C2.44507 6.22266 2.32234 6.18248 2.32234 6.08805V6.08302C2.32234 6.00226 2.39406 5.94278 2.50523 5.94278C2.62876 5.94278 2.77539 5.98417 2.86983 6.03681C2.86983 6.03681 2.89752 6.0549 2.90768 6.02777C2.91326 6.0133 2.96107 5.88351 2.96605 5.86944C2.97143 5.85418 2.96187 5.84292 2.95211 5.8369C2.84432 5.77079 2.6953 5.72559 2.5411 5.72559L2.51241 5.72578C2.24982 5.72578 2.06653 5.88572 2.06653 6.11497V6.11979C2.06653 6.3615 2.26875 6.43986 2.45822 6.49451L2.4887 6.50395C2.62676 6.54675 2.74571 6.58352 2.74571 6.68157V6.68639C2.74571 6.776 2.6684 6.8427 2.54369 6.8427C2.49527 6.8427 2.34087 6.8417 2.17411 6.73541C2.15399 6.72356 2.14224 6.71492 2.1267 6.70547C2.11853 6.70025 2.09801 6.69121 2.08904 6.71854L2.03246 6.87686Z" fill="white"/>
<path d="M6.23268 6.87686C6.22387 6.89997 6.23583 6.90479 6.23863 6.90881C6.26494 6.9281 6.29165 6.94196 6.31854 6.95743C6.46117 7.03378 6.59586 7.05609 6.73674 7.05609C7.02362 7.05609 7.20171 6.90218 7.20171 6.65445V6.64962C7.20171 6.42057 7.00069 6.33739 6.81204 6.27731L6.78749 6.26928C6.64527 6.22266 6.52254 6.18248 6.52254 6.08805V6.08302C6.52254 6.00226 6.59429 5.94278 6.70541 5.94278C6.82896 5.94278 6.97561 5.98417 7.07005 6.03681C7.07005 6.03681 7.0977 6.0549 7.10785 6.02777C7.11345 6.0133 7.16129 5.88351 7.16624 5.86944C7.17161 5.85418 7.16204 5.84292 7.1523 5.8369C7.0445 5.77079 6.89552 5.72559 6.74129 5.72559L6.71259 5.72578C6.45003 5.72578 6.26674 5.88572 6.26674 6.11497V6.11979C6.26674 6.3615 6.46893 6.43986 6.65839 6.49451L6.6889 6.50395C6.82698 6.54675 6.94609 6.58352 6.94609 6.68157V6.68639C6.94609 6.776 6.86863 6.8427 6.74391 6.8427C6.69549 6.8427 6.54109 6.8417 6.37431 6.73541C6.35419 6.72356 6.34223 6.71532 6.32712 6.70547C6.32193 6.70206 6.2976 6.69262 6.28926 6.71854L6.23268 6.87686Z" fill="white"/>
<path d="M9.10003 6.39124C9.10003 6.53128 9.07413 6.64159 9.02314 6.71954C8.97274 6.7967 8.89639 6.83427 8.79004 6.83427C8.68341 6.83427 8.60752 6.7969 8.55794 6.71954C8.50771 6.64179 8.48222 6.53128 8.48222 6.39124C8.48222 6.2514 8.50771 6.14129 8.55794 6.06414C8.60752 5.98779 8.68341 5.95062 8.79004 5.95062C8.89639 5.95062 8.97275 5.98779 9.02332 6.06414C9.07413 6.14129 9.10003 6.2514 9.10003 6.39124ZM9.33949 6.13165C9.31598 6.05148 9.27934 5.98076 9.23052 5.92189C9.18169 5.86281 9.11992 5.8154 9.04665 5.78084C8.9735 5.74648 8.88705 5.729 8.79004 5.729C8.6928 5.729 8.60635 5.74648 8.5332 5.78084C8.45988 5.8154 8.39816 5.86281 8.3491 5.92189C8.30051 5.98096 8.26388 6.05168 8.24014 6.13165C8.21686 6.21141 8.20508 6.29862 8.20508 6.39124C8.20508 6.48387 8.21686 6.57126 8.24014 6.65083C8.26388 6.7308 8.30034 6.80152 8.34934 6.86059C8.39816 6.91966 8.46011 6.96688 8.5332 7.00043C8.60653 7.03398 8.6928 7.05106 8.79004 7.05106C8.88705 7.05106 8.97333 7.03398 9.04665 7.00043C9.11974 6.96688 9.18169 6.91966 9.23052 6.86059C9.27934 6.80172 9.31598 6.731 9.33949 6.65083C9.363 6.57106 9.37478 6.48366 9.37478 6.39124C9.37478 6.29882 9.363 6.21141 9.33949 6.13165Z" fill="white"/>
<path d="M11.306 6.79713C11.298 6.77362 11.2755 6.78246 11.2755 6.78246C11.2406 6.79592 11.2036 6.80838 11.1642 6.81461C11.1241 6.82084 11.0801 6.82405 11.0329 6.82405C10.9169 6.82405 10.8248 6.78929 10.7589 6.72057C10.6928 6.65186 10.6557 6.54075 10.6561 6.39046C10.6565 6.25363 10.6892 6.15076 10.748 6.0724C10.8064 5.99445 10.8952 5.95447 11.0137 5.95447C11.1125 5.95447 11.1879 5.96592 11.2668 5.99103C11.2668 5.99103 11.2857 5.99927 11.2947 5.97436C11.3155 5.91569 11.3311 5.87369 11.3534 5.8092C11.3598 5.79092 11.3442 5.78308 11.3387 5.78087C11.3076 5.76861 11.2343 5.74872 11.1789 5.74028C11.1271 5.73225 11.0665 5.72803 10.9992 5.72803C10.8986 5.72803 10.8089 5.74531 10.7322 5.77986C10.6557 5.81422 10.5908 5.86164 10.5394 5.92071C10.488 5.97978 10.4489 6.05051 10.4228 6.13047C10.3969 6.21024 10.3838 6.29784 10.3838 6.39046C10.3838 6.59078 10.4373 6.75272 10.5432 6.87127C10.6491 6.99021 10.8083 7.05069 11.0159 7.05069C11.1386 7.05069 11.2646 7.02558 11.355 6.98961C11.355 6.98961 11.3724 6.98117 11.3648 6.96088L11.306 6.79713Z" fill="white"/>
<path d="M11.7247 6.25703C11.736 6.17927 11.7573 6.11457 11.7902 6.06414C11.8398 5.98759 11.9155 5.9456 12.0219 5.9456C12.1283 5.9456 12.1986 5.98779 12.2491 6.06414C12.2825 6.11457 12.2971 6.18208 12.3029 6.25703H11.7247ZM12.531 6.08604C12.5107 6.00868 12.4603 5.93053 12.4272 5.89476C12.375 5.8381 12.324 5.79852 12.2734 5.77642C12.2072 5.74789 12.1279 5.729 12.0411 5.729C11.9399 5.729 11.848 5.74608 11.7735 5.78145C11.6988 5.81681 11.636 5.86503 11.5868 5.9251C11.5376 5.98498 11.5006 6.05631 11.477 6.13727C11.4534 6.21784 11.4414 6.30565 11.4414 6.39827C11.4414 6.49251 11.4537 6.58031 11.4782 6.65927C11.5029 6.73884 11.5424 6.80895 11.5958 6.86702C11.649 6.92549 11.7175 6.9713 11.7996 7.00324C11.8811 7.03499 11.9801 7.05147 12.0939 7.05126C12.328 7.05046 12.4513 6.99782 12.5021 6.96949C12.5111 6.96447 12.5196 6.95563 12.5088 6.93031L12.4559 6.78063C12.4479 6.75832 12.4254 6.76656 12.4254 6.76656C12.3674 6.78826 12.2849 6.82724 12.0926 6.82684C11.9669 6.82663 11.8737 6.78926 11.8153 6.7308C11.7554 6.67092 11.7261 6.58292 11.7209 6.45875L12.5316 6.45955C12.5316 6.45955 12.5529 6.45915 12.5551 6.43826C12.5559 6.42941 12.583 6.27028 12.531 6.08604Z" fill="white"/>
<path d="M5.23253 6.25703C5.24408 6.17927 5.2652 6.11457 5.29807 6.06414C5.34768 5.98759 5.42339 5.9456 5.52978 5.9456C5.63616 5.9456 5.7065 5.98779 5.7571 6.06414C5.79037 6.11457 5.80492 6.18208 5.81069 6.25703H5.23253ZM6.03864 6.08604C6.01828 6.00868 5.96806 5.93053 5.93504 5.89476C5.88283 5.8381 5.83181 5.79852 5.7812 5.77642C5.71506 5.74789 5.63577 5.729 5.5489 5.729C5.44789 5.729 5.35585 5.74608 5.28133 5.78145C5.20663 5.81681 5.14387 5.86503 5.09466 5.9251C5.04545 5.98498 5.00839 6.05631 4.98488 6.13727C4.96137 6.21784 4.94922 6.30565 4.94922 6.39827C4.94922 6.49251 4.96157 6.58031 4.98607 6.65927C5.01078 6.73884 5.05023 6.80895 5.10362 6.86702C5.15682 6.92549 5.22535 6.9713 5.30744 7.00324C5.38892 7.03499 5.48794 7.05147 5.6017 7.05126C5.83582 7.05046 5.95913 6.99782 6.00994 6.96949C6.01887 6.96447 6.02744 6.95563 6.01671 6.93031L5.96392 6.78063C5.95575 6.75832 5.93323 6.76656 5.93323 6.76656C5.87525 6.78826 5.79296 6.82724 5.60031 6.82684C5.47479 6.82663 5.38155 6.78926 5.32318 6.7308C5.2632 6.67092 5.23392 6.58292 5.22874 6.45875L6.0394 6.45955C6.0394 6.45955 6.06075 6.45915 6.06291 6.43826C6.06372 6.42941 6.09079 6.27028 6.03864 6.08604Z" fill="white"/>
<path d="M3.4802 6.79271C3.44852 6.76719 3.44414 6.76076 3.43338 6.74429C3.41744 6.71917 3.40927 6.68341 3.40927 6.638C3.40927 6.56607 3.43278 6.51443 3.48159 6.47968C3.481 6.47987 3.55132 6.41839 3.71669 6.4206C3.83283 6.42221 3.93663 6.43949 3.93663 6.43949V6.8112C3.93663 6.8112 3.83383 6.8335 3.71788 6.84053C3.55292 6.85058 3.4796 6.79251 3.4802 6.79271ZM3.80275 6.21827C3.76988 6.21586 3.72725 6.21446 3.67624 6.21446C3.60671 6.21446 3.53957 6.22329 3.47661 6.24037C3.41325 6.25745 3.35627 6.28418 3.30726 6.31954C3.25805 6.3551 3.21841 6.40051 3.18972 6.45436C3.16103 6.50821 3.14648 6.5717 3.14648 6.64282C3.14648 6.71516 3.15884 6.77804 3.18354 6.82948C3.20825 6.88111 3.24391 6.92411 3.28934 6.95726C3.33436 6.99041 3.38994 7.01473 3.4545 7.02939C3.51805 7.04406 3.59017 7.05149 3.66907 7.05149C3.75215 7.05149 3.83503 7.04466 3.91532 7.0308C3.99481 7.01714 4.09244 6.99724 4.11953 6.99102C4.14642 6.98459 4.17631 6.97635 4.17631 6.97635C4.19643 6.97133 4.19484 6.94963 4.19484 6.94963L4.19444 6.202C4.19444 6.03805 4.15101 5.91649 4.06554 5.84115C3.98046 5.766 3.85515 5.72803 3.69317 5.72803C3.63241 5.72803 3.53459 5.73647 3.47602 5.74832C3.47602 5.74832 3.2989 5.78288 3.22598 5.84034C3.22598 5.84034 3.21004 5.85039 3.21881 5.87289L3.27618 6.0284C3.28336 6.0485 3.30268 6.04166 3.30268 6.04166C3.30268 6.04166 3.30886 6.03925 3.31603 6.03504C3.47203 5.94944 3.66927 5.95206 3.66927 5.95206C3.75693 5.95206 3.82427 5.96974 3.8697 6.00489C3.91392 6.03905 3.93643 6.09069 3.93643 6.19959V6.23414C3.8667 6.2241 3.80275 6.21827 3.80275 6.21827Z" fill="white"/>
<path d="M10.3412 5.7968C10.3474 5.77832 10.3345 5.76947 10.3291 5.76747C10.3153 5.76204 10.2465 5.74738 10.1933 5.74396C10.0915 5.73773 10.0349 5.75501 9.98425 5.77791C9.93402 5.80082 9.87826 5.83779 9.84717 5.87978V5.78032C9.84717 5.76646 9.83742 5.75541 9.82389 5.75541H9.61605C9.60252 5.75541 9.59277 5.76646 9.59277 5.78032V6.99972C9.59277 7.01338 9.60391 7.02463 9.61745 7.02463H9.83042C9.84402 7.02463 9.85498 7.01338 9.85498 6.99972V6.39053C9.85498 6.30875 9.86391 6.22717 9.88187 6.17594C9.89937 6.12531 9.92329 6.08473 9.95275 6.05559C9.98244 6.02665 10.0162 6.00637 10.053 5.99491C10.0906 5.98325 10.1323 5.97944 10.1618 5.97944C10.2042 5.97944 10.2508 5.99049 10.2508 5.99049C10.2663 5.9923 10.2752 5.98265 10.2803 5.96839C10.2942 5.93102 10.3337 5.8191 10.3412 5.7968Z" fill="white"/>
<path d="M8.34223 5.23183C8.31633 5.22379 8.29282 5.21837 8.26214 5.21254C8.23105 5.20692 8.19401 5.2041 8.15195 5.2041C8.0053 5.2041 7.88974 5.2459 7.80866 5.32828C7.72798 5.41025 7.67321 5.53502 7.64573 5.69918L7.63576 5.75443H7.45166C7.45166 5.75443 7.42931 5.75362 7.42453 5.77814L7.39449 5.94832C7.39227 5.96439 7.39927 5.97464 7.4208 5.97464H7.59988L7.41817 6.99773C7.40406 7.08011 7.38772 7.14781 7.36958 7.19925C7.35185 7.24989 7.33452 7.28786 7.313 7.31559C7.29229 7.34211 7.27275 7.3618 7.23886 7.37325C7.21097 7.38269 7.17871 7.38712 7.14342 7.38712C7.12394 7.38712 7.09781 7.3839 7.0785 7.37988C7.05936 7.37606 7.04921 7.37184 7.03469 7.36561C7.03469 7.36561 7.01375 7.35758 7.00535 7.37867C6.99881 7.39616 6.95098 7.52856 6.94521 7.54484C6.93961 7.56111 6.9476 7.57377 6.95775 7.57759C6.98166 7.58603 6.9994 7.59163 7.03189 7.59951C7.07692 7.61012 7.11496 7.61077 7.1506 7.61077C7.22515 7.61077 7.29328 7.60009 7.34963 7.5796C7.40621 7.5589 7.45562 7.52293 7.49949 7.47431C7.54668 7.42167 7.57637 7.36662 7.60466 7.29127C7.63278 7.21693 7.65687 7.12451 7.67601 7.01682L7.85871 5.97464H8.12564C8.12564 5.97464 8.14816 5.97544 8.15276 5.95073L8.18304 5.78075C8.18502 5.76447 8.17826 5.75443 8.15656 5.75443H7.89732C7.89872 5.7486 7.91051 5.65658 7.94014 5.56998C7.95291 5.53321 7.97683 5.50328 7.99696 5.48278C8.01685 5.46269 8.03977 5.44842 8.06491 5.44019C8.09058 5.43175 8.11986 5.42773 8.15195 5.42773C8.17627 5.42773 8.20036 5.43054 8.21851 5.43436C8.24359 5.43979 8.25333 5.4426 8.25992 5.4446C8.28641 5.45264 8.29002 5.44481 8.29521 5.43195L8.35716 5.26036C8.36352 5.24188 8.34777 5.23404 8.34223 5.23183Z" fill="white"/>
<path d="M4.72038 6.99998C4.72038 7.01364 4.71061 7.02469 4.69707 7.02469H4.4821C4.46855 7.02469 4.45898 7.01364 4.45898 6.99998V5.25518C4.45898 5.24152 4.46855 5.23047 4.4821 5.23047H4.69707C4.71061 5.23047 4.72038 5.24152 4.72038 5.25518V6.99998Z" fill="white"/>
</g>
<defs>
<clipPath id="clip0_121_2253">
<rect width="14" height="14" fill="white"/>
</clipPath>
</defs>
</svg>
