<svg width="14" height="15" viewBox="0 0 14 15" fill="none" xmlns="http://www.w3.org/2000/svg">
<g clip-path="url(#clip0_4_3007)">
<path d="M7 0.827757C7.88837 0.827757 8.74944 1.00207 9.56228 1.34441C9.95288 1.51033 10.3289 1.71405 10.6795 1.95137C11.0282 2.18659 11.3558 2.45752 11.6541 2.75575C11.9523 3.05398 12.2232 3.38161 12.4585 3.73024C12.6958 4.08098 12.8995 4.45902 13.0654 4.84756C13.4077 5.65824 13.582 6.51932 13.582 7.40981C13.582 8.30028 13.4077 9.15925 13.0654 9.97209C12.8995 10.3627 12.6958 10.7387 12.4585 11.0894C12.2232 11.438 11.9523 11.7656 11.6541 12.0639C11.3558 12.3621 11.0282 12.633 10.6795 12.8683C10.3289 13.1056 9.95078 13.3093 9.56228 13.4752C8.75154 13.8175 7.89047 13.9918 7 13.9918C6.11161 13.9918 5.25053 13.8175 4.43774 13.4752C4.04711 13.3093 3.67116 13.1056 3.32043 12.8683C2.97179 12.633 2.64417 12.3621 2.34593 12.0639C2.0477 11.7656 1.77677 11.438 1.54155 11.0894C1.30423 10.7387 1.10051 10.3606 0.934591 9.97209C0.594359 9.15925 0.420042 8.29608 0.420042 7.40771C0.420042 6.51932 0.594359 5.65824 0.936691 4.84546C1.10261 4.45482 1.30633 4.07888 1.54365 3.72814C1.77887 3.37951 2.0498 3.05188 2.34804 2.75365C2.64627 2.45542 2.97389 2.18449 3.32253 1.94927C3.67326 1.71195 4.05131 1.50823 4.43984 1.34231C5.25052 1.00207 6.11161 0.827757 7 0.827757ZM7 0.407715C3.13351 0.407715 0 3.54123 0 7.40771C0 11.2742 3.13351 14.4077 7 14.4077C10.8665 14.4077 14 11.2742 14 7.40771C14.0021 3.54123 10.8665 0.407715 7 0.407715Z" fill="#32373C"/>
<path d="M1.16772 7.40799C1.16772 9.7161 2.50976 11.7134 4.45665 12.6585L1.67387 5.03473C1.34834 5.7593 1.16772 6.56369 1.16772 7.40799ZM10.94 7.11394C10.94 6.39357 10.6816 5.89372 10.459 5.50518C10.1629 5.02423 9.88567 4.61679 9.88567 4.13794C9.88567 3.60239 10.2931 3.10254 10.8644 3.10254C10.8896 3.10254 10.9148 3.10464 10.94 3.10674C9.90247 2.15535 8.51843 1.57568 6.99999 1.57568C4.9628 1.57568 3.16923 2.62159 2.12542 4.20515C2.26194 4.20935 2.39214 4.21145 2.50136 4.21145C3.11042 4.21145 4.05551 4.13794 4.05551 4.13794C4.37055 4.11904 4.40625 4.58108 4.09332 4.61889C4.09332 4.61889 3.77618 4.6567 3.42545 4.6735L5.55086 10.993L6.82779 7.16434L5.9184 4.6735C5.60337 4.65459 5.30724 4.61889 5.30724 4.61889C4.99221 4.59999 5.03001 4.11904 5.34504 4.13794C5.34504 4.13794 6.30904 4.21145 6.8824 4.21145C7.49146 4.21145 8.43653 4.13794 8.43653 4.13794C8.7516 4.11904 8.7873 4.58108 8.47433 4.61889C8.47433 4.61889 8.15723 4.6567 7.80646 4.6735L9.91297 10.9447L10.5157 9.03773C10.7825 8.20396 10.94 7.61379 10.94 7.11394ZM7.10289 7.91829L5.35134 13.0051C5.87429 13.1584 6.42665 13.2424 6.99999 13.2424C7.67836 13.2424 8.33153 13.1248 8.9364 12.9127C8.9217 12.8875 8.907 12.8601 8.8944 12.8328L7.10289 7.91829ZM12.1204 4.61049C12.1456 4.79531 12.1603 4.99483 12.1603 5.21115C12.1603 5.80341 12.0489 6.46917 11.7171 7.30086L9.93397 12.4506C11.6688 11.4403 12.8344 9.5607 12.8344 7.40799C12.8344 6.39357 12.5761 5.44008 12.1204 4.61049Z" fill="#32373C"/>
</g>
<defs>
<clipPath id="clip0_4_3007">
<rect width="14" height="14" fill="white" transform="translate(0 0.407715)"/>
</clipPath>
</defs>
</svg>
