<svg width="14" height="15" viewBox="0 0 14 15" fill="none" xmlns="http://www.w3.org/2000/svg">
<g clip-path="url(#clip0_101_2120)">
<path d="M7 0.477171C7.88837 0.477171 8.74944 0.651488 9.56228 0.99382C9.95288 1.15974 10.3289 1.36346 10.6795 1.60078C11.0282 1.836 11.3558 2.10693 11.6541 2.40517C11.9523 2.70339 12.2232 3.03102 12.4585 3.37966C12.6958 3.73039 12.8995 4.10843 13.0654 4.49697C13.4077 5.30765 13.582 6.16874 13.582 7.05923C13.582 7.9497 13.4077 8.80867 13.0654 9.62151C12.8995 10.0121 12.6958 10.3881 12.4585 10.7388C12.2232 11.0874 11.9523 11.415 11.6541 11.7133C11.3558 12.0115 11.0282 12.2824 10.6795 12.5177C10.3289 12.755 9.95078 12.9587 9.56228 13.1247C8.75154 13.467 7.89047 13.6413 7 13.6413C6.11161 13.6413 5.25053 13.467 4.43774 13.1247C4.04711 12.9587 3.67116 12.755 3.32043 12.5177C2.97179 12.2824 2.64417 12.0115 2.34593 11.7133C2.0477 11.415 1.77677 11.0874 1.54155 10.7388C1.30423 10.3881 1.10051 10.01 0.934591 9.62151C0.594359 8.80867 0.420042 7.9455 0.420042 7.05713C0.420042 6.16874 0.594359 5.30765 0.936691 4.49487C1.10261 4.10423 1.30633 3.72829 1.54365 3.37756C1.77887 3.02892 2.0498 2.70129 2.34804 2.40306C2.64627 2.10483 2.97389 1.8339 3.32253 1.59868C3.67326 1.36136 4.05131 1.15764 4.43984 0.99172C5.25052 0.651488 6.11161 0.477171 7 0.477171ZM7 0.0571289C3.13351 0.0571289 0 3.19064 0 7.05713C0 10.9236 3.13351 14.0571 7 14.0571C10.8665 14.0571 14 10.9236 14 7.05713C14.0021 3.19064 10.8665 0.0571289 7 0.0571289Z" fill="#32373C"/>
<path d="M1.16797 7.05741C1.16797 9.36552 2.51 11.3628 4.4569 12.3079L1.67412 4.68415C1.34858 5.40872 1.16797 6.2131 1.16797 7.05741ZM10.9403 6.76336C10.9403 6.04298 10.6819 5.54313 10.4593 5.1546C10.1632 4.67365 9.88592 4.26621 9.88592 3.78736C9.88592 3.2518 10.2934 2.75195 10.8647 2.75195C10.8899 2.75195 10.9151 2.75405 10.9403 2.75615C9.90272 1.80476 8.51868 1.2251 7.00024 1.2251C4.96305 1.2251 3.16947 2.271 2.12567 3.85456C2.26218 3.85876 2.39239 3.86086 2.5016 3.86086C3.11066 3.86086 4.05576 3.78736 4.05576 3.78736C4.37079 3.76846 4.40649 4.2305 4.09356 4.26831C4.09356 4.26831 3.77643 4.30611 3.42569 4.32291L5.5511 10.6425L6.82804 6.81376L5.91864 4.32291C5.60361 4.30401 5.30748 4.26831 5.30748 4.26831C4.99245 4.24941 5.03025 3.76846 5.34529 3.78736C5.34529 3.78736 6.30928 3.86086 6.88264 3.86086C7.49171 3.86086 8.43678 3.78736 8.43678 3.78736C8.75185 3.76846 8.78755 4.2305 8.47458 4.26831C8.47458 4.26831 8.15748 4.30611 7.80671 4.32291L9.91322 10.5942L10.516 8.68715C10.7828 7.85338 10.9403 7.26321 10.9403 6.76336ZM7.10314 7.56771L5.35159 12.6545C5.87454 12.8078 6.42689 12.8918 7.00024 12.8918C7.67861 12.8918 8.33178 12.7742 8.93665 12.5621C8.92195 12.5369 8.90725 12.5095 8.89465 12.4822L7.10314 7.56771ZM12.1206 4.25991C12.1458 4.44473 12.1605 4.64424 12.1605 4.86056C12.1605 5.45282 12.0491 6.11859 11.7173 6.95027L9.93422 12.1C11.669 11.0898 12.8347 9.21012 12.8347 7.05741C12.8347 6.04298 12.5763 5.08949 12.1206 4.25991Z" fill="#32373C"/>
</g>
<defs>
<clipPath id="clip0_101_2120">
<rect width="14" height="14" fill="white" transform="translate(0 0.0571289)"/>
</clipPath>
</defs>
</svg>
