<svg width="20" height="20" viewBox="0 0 20 20" fill="none" xmlns="http://www.w3.org/2000/svg">
<g opacity="0.7" clip-path="url(#clip0_4_3174)">
<g clip-path="url(#clip1_4_3174)">
<path d="M10 0C4.477 0 0 4.477 0 10C0 15.523 4.477 20 10 20C15.523 20 20 15.523 20 10C20 4.477 15.523 0 10 0ZM8.964 18.51C7.06083 18.2827 5.29017 17.4194 3.939 16.06C3.14076 15.266 2.50791 14.3216 2.07707 13.2814C1.64623 12.2412 1.42596 11.1259 1.429 10C1.429 7.939 2.151 5.99 3.477 4.44C3.511 4.849 3.595 5.288 3.574 5.602C3.494 6.746 3.382 7.462 4.051 8.427C4.312 8.803 4.376 9.342 4.503 9.777C4.628 10.202 5.123 10.426 5.466 10.687C6.156 11.217 6.816 11.832 7.549 12.298C8.032 12.606 8.333 12.758 8.192 13.348C8.078 13.822 8.046 14.114 7.802 14.537C7.726 14.666 8.084 15.494 8.202 15.613C8.563 15.973 8.921 16.304 9.314 16.629C9.923 17.132 9.254 17.787 8.964 18.51ZM16.061 16.06C14.8498 17.2777 13.2985 18.1004 11.611 18.42C11.838 17.8687 12.2001 17.3835 12.664 17.009C13.005 16.746 13.432 16.239 13.611 15.839C13.789 15.438 14.025 15.09 14.263 14.722C14.603 14.198 13.426 13.408 13.044 13.242C12.186 12.869 11.54 12.367 10.777 11.83C10.234 11.447 9.13 12.03 8.517 11.762C7.676 11.395 6.984 10.757 6.253 10.207C5.499 9.639 5.536 8.977 5.536 8.14C6.126 8.162 6.966 7.976 7.358 8.451C7.482 8.601 7.908 9.271 8.192 9.033C8.425 8.838 8.02 8.059 7.942 7.876C7.701 7.313 8.49 7.093 8.893 6.711C9.42 6.213 10.551 5.431 10.461 5.074C10.372 4.717 9.331 3.705 8.719 3.864C8.627 3.887 7.819 4.734 7.664 4.866L7.676 4.037C7.679 3.863 7.351 3.684 7.366 3.571C7.405 3.287 8.196 2.771 8.393 2.545C8.255 2.458 7.784 2.054 7.642 2.113C7.297 2.257 6.907 2.356 6.562 2.5C6.562 2.38 6.548 2.268 6.531 2.157C7.22547 1.84988 7.958 1.63732 8.709 1.525L9.386 1.797L9.864 2.364L10.341 2.856L10.758 2.99L11.421 2.366L11.25 1.92V1.519C12.56 1.709 13.797 2.198 14.88 2.951C14.687 2.969 14.474 2.997 14.234 3.028C14.134 2.969 14.007 2.943 13.899 2.902C14.213 3.577 14.54 4.242 14.873 4.909C15.228 5.62 16.017 6.384 16.155 7.135C16.319 8.02 16.205 8.825 16.295 9.866C16.381 10.869 17.425 12.009 17.425 12.009C17.425 12.009 17.908 12.173 18.309 12.116C17.9304 13.6102 17.1534 14.9736 16.061 16.061V16.06Z" fill="white"/>
</g>
</g>
<defs>
<clipPath id="clip0_4_3174">
<rect width="20" height="20" fill="white"/>
</clipPath>
<clipPath id="clip1_4_3174">
<rect width="20" height="20" fill="white"/>
</clipPath>
</defs>
</svg>
