<svg width="21" height="22" viewBox="0 0 21 22" fill="none" xmlns="http://www.w3.org/2000/svg">
<path fill-rule="evenodd" clip-rule="evenodd" d="M0 1.51613C0 0.954936 0.361616 0.5 0.807692 0.5H20.1923C20.6384 0.5 21 0.954936 21 1.51613C21 2.07732 20.6384 2.53226 20.1923 2.53226H0.807692C0.361616 2.53226 0 2.07732 0 1.51613ZM0 11C0 10.4388 0.361616 9.98387 0.807692 9.98387H20.1923C20.6384 9.98387 21 10.4388 21 11C21 11.5612 20.6384 12.0161 20.1923 12.0161H0.807692C0.361616 12.0161 0 11.5612 0 11ZM0 20.4839C0 19.9227 0.361616 19.4677 0.807692 19.4677H20.1923C20.6384 19.4677 21 19.9227 21 20.4839C21 21.0451 20.6384 21.5 20.1923 21.5H0.807692C0.361616 21.5 0 21.0451 0 20.4839Z" fill="white"/>
</svg>
