<svg width="21" height="20" viewBox="0 0 21 20" fill="none" xmlns="http://www.w3.org/2000/svg">
<path d="M10.7651 0C5.24214 0 0.765137 4.477 0.765137 10C0.765137 15.523 5.24214 20 10.7651 20C16.2881 20 20.7651 15.523 20.7651 10C20.7651 4.477 16.2881 0 10.7651 0ZM9.72914 18.51C7.82596 18.2827 6.05531 17.4194 4.70414 16.06C3.9059 15.266 3.27305 14.3216 2.84221 13.2814C2.41137 12.2412 2.1911 11.1259 2.19414 10C2.19414 7.939 2.91614 5.99 4.24214 4.44C4.27614 4.849 4.36014 5.288 4.33914 5.602C4.25914 6.746 4.14714 7.462 4.81614 8.427C5.07714 8.803 5.14114 9.342 5.26814 9.777C5.39314 10.202 5.88814 10.426 6.23114 10.687C6.92114 11.217 7.58114 11.832 8.31414 12.298C8.79714 12.606 9.09814 12.758 8.95714 13.348C8.84314 13.822 8.81114 14.114 8.56714 14.537C8.49114 14.666 8.84914 15.494 8.96714 15.613C9.32814 15.973 9.68614 16.304 10.0791 16.629C10.6881 17.132 10.0191 17.787 9.72914 18.51ZM16.8261 16.06C15.6149 17.2777 14.0636 18.1004 12.3761 18.42C12.6031 17.8687 12.9652 17.3835 13.4291 17.009C13.7701 16.746 14.1971 16.239 14.3761 15.839C14.5541 15.438 14.7901 15.09 15.0281 14.722C15.3681 14.198 14.1911 13.408 13.8091 13.242C12.9511 12.869 12.3051 12.367 11.5421 11.83C10.9991 11.447 9.89514 12.03 9.28214 11.762C8.44114 11.395 7.74914 10.757 7.01814 10.207C6.26414 9.639 6.30114 8.977 6.30114 8.14C6.89114 8.162 7.73114 7.976 8.12314 8.451C8.24714 8.601 8.67314 9.271 8.95714 9.033C9.19014 8.838 8.78514 8.059 8.70714 7.876C8.46614 7.313 9.25514 7.093 9.65814 6.711C10.1851 6.213 11.3161 5.431 11.2261 5.074C11.1371 4.717 10.0961 3.705 9.48414 3.864C9.39214 3.887 8.58414 4.734 8.42914 4.866L8.44114 4.037C8.44414 3.863 8.11614 3.684 8.13114 3.571C8.17014 3.287 8.96114 2.771 9.15814 2.545C9.02014 2.458 8.54914 2.054 8.40714 2.113C8.06214 2.257 7.67214 2.356 7.32714 2.5C7.32714 2.38 7.31314 2.268 7.29614 2.157C7.99061 1.84988 8.72314 1.63732 9.47414 1.525L10.1511 1.797L10.6291 2.364L11.1061 2.856L11.5231 2.99L12.1861 2.366L12.0151 1.92V1.519C13.3251 1.709 14.5621 2.198 15.6451 2.951C15.4521 2.969 15.2391 2.997 14.9991 3.028C14.8991 2.969 14.7721 2.943 14.6641 2.902C14.9781 3.577 15.3051 4.242 15.6381 4.909C15.9931 5.62 16.7821 6.384 16.9201 7.135C17.0841 8.02 16.9701 8.825 17.0601 9.866C17.1461 10.869 18.1901 12.009 18.1901 12.009C18.1901 12.009 18.6731 12.173 19.0741 12.116C18.6955 13.6102 17.9186 14.9736 16.8261 16.061V16.06Z" fill="#FDFDFD"/>
</svg>
