<svg width="21" height="22" viewBox="0 0 21 22" fill="none" xmlns="http://www.w3.org/2000/svg">
<path fill-rule="evenodd" clip-rule="evenodd" d="M0 1.28243C0 0.721233 0.361616 0.266296 0.807692 0.266296H20.1923C20.6384 0.266296 21 0.721233 21 1.28243C21 1.84362 20.6384 2.29855 20.1923 2.29855H0.807692C0.361616 2.29855 0 1.84362 0 1.28243ZM0 10.7663C0 10.2051 0.361616 9.75017 0.807692 9.75017H20.1923C20.6384 9.75017 21 10.2051 21 10.7663C21 11.3275 20.6384 11.7824 20.1923 11.7824H0.807692C0.361616 11.7824 0 11.3275 0 10.7663ZM0 20.2502C0 19.689 0.361616 19.234 0.807692 19.234H20.1923C20.6384 19.234 21 19.689 21 20.2502C21 20.8114 20.6384 21.2663 20.1923 21.2663H0.807692C0.361616 21.2663 0 20.8114 0 20.2502Z" fill="white"/>
</svg>
