<svg width="21" height="20" viewBox="0 0 21 20" fill="none" xmlns="http://www.w3.org/2000/svg">
<path d="M10.8711 0C5.34809 0 0.871094 4.477 0.871094 10C0.871094 15.523 5.34809 20 10.8711 20C16.3941 20 20.8711 15.523 20.8711 10C20.8711 4.477 16.3941 0 10.8711 0ZM9.83509 18.51C7.93192 18.2827 6.16126 17.4194 4.81009 16.06C4.01186 15.266 3.37901 14.3216 2.94817 13.2814C2.51733 12.2412 2.29705 11.1259 2.30009 10C2.30009 7.939 3.02209 5.99 4.34809 4.44C4.38209 4.849 4.46609 5.288 4.44509 5.602C4.36509 6.746 4.25309 7.462 4.92209 8.427C5.18309 8.803 5.24709 9.342 5.37409 9.777C5.49909 10.202 5.99409 10.426 6.33709 10.687C7.02709 11.217 7.68709 11.832 8.42009 12.298C8.90309 12.606 9.20409 12.758 9.06309 13.348C8.94909 13.822 8.91709 14.114 8.67309 14.537C8.59709 14.666 8.95509 15.494 9.07309 15.613C9.43409 15.973 9.79209 16.304 10.1851 16.629C10.7941 17.132 10.1251 17.787 9.83509 18.51ZM16.9321 16.06C15.7209 17.2777 14.1696 18.1004 12.4821 18.42C12.709 17.8687 13.0712 17.3835 13.5351 17.009C13.8761 16.746 14.3031 16.239 14.4821 15.839C14.6601 15.438 14.8961 15.09 15.1341 14.722C15.4741 14.198 14.2971 13.408 13.9151 13.242C13.0571 12.869 12.4111 12.367 11.6481 11.83C11.1051 11.447 10.0011 12.03 9.38809 11.762C8.54709 11.395 7.85509 10.757 7.12409 10.207C6.37009 9.639 6.40709 8.977 6.40709 8.14C6.99709 8.162 7.83709 7.976 8.22909 8.451C8.35309 8.601 8.77909 9.271 9.06309 9.033C9.29609 8.838 8.89109 8.059 8.81309 7.876C8.57209 7.313 9.36109 7.093 9.76409 6.711C10.2911 6.213 11.4221 5.431 11.3321 5.074C11.2431 4.717 10.2021 3.705 9.59009 3.864C9.49809 3.887 8.69009 4.734 8.53509 4.866L8.54709 4.037C8.55009 3.863 8.22209 3.684 8.23709 3.571C8.27609 3.287 9.06709 2.771 9.26409 2.545C9.12609 2.458 8.65509 2.054 8.51309 2.113C8.16809 2.257 7.77809 2.356 7.43309 2.5C7.43309 2.38 7.41909 2.268 7.40209 2.157C8.09656 1.84988 8.8291 1.63732 9.58009 1.525L10.2571 1.797L10.7351 2.364L11.2121 2.856L11.6291 2.99L12.2921 2.366L12.1211 1.92V1.519C13.4311 1.709 14.6681 2.198 15.7511 2.951C15.5581 2.969 15.3451 2.997 15.1051 3.028C15.0051 2.969 14.8781 2.943 14.7701 2.902C15.0841 3.577 15.4111 4.242 15.7441 4.909C16.0991 5.62 16.8881 6.384 17.0261 7.135C17.1901 8.02 17.0761 8.825 17.1661 9.866C17.2521 10.869 18.2961 12.009 18.2961 12.009C18.2961 12.009 18.7791 12.173 19.1801 12.116C18.8015 13.6102 18.0245 14.9736 16.9321 16.061V16.06Z" fill="#FDFDFD"/>
</svg>
