<svg width="21" height="20" viewBox="0 0 21 20" fill="none" xmlns="http://www.w3.org/2000/svg">
<path d="M10.3706 0C4.84761 0 0.370605 4.477 0.370605 10C0.370605 15.523 4.84761 20 10.3706 20C15.8936 20 20.3706 15.523 20.3706 10C20.3706 4.477 15.8936 0 10.3706 0ZM9.33461 18.51C7.43143 18.2827 5.66077 17.4194 4.30961 16.06C3.51137 15.266 2.87852 14.3216 2.44768 13.2814C2.01684 12.2412 1.79657 11.1259 1.79961 10C1.79961 7.939 2.52161 5.99 3.84761 4.44C3.88161 4.849 3.96561 5.288 3.94461 5.602C3.86461 6.746 3.75261 7.462 4.42161 8.427C4.68261 8.803 4.74661 9.342 4.87361 9.777C4.99861 10.202 5.49361 10.426 5.83661 10.687C6.52661 11.217 7.18661 11.832 7.91961 12.298C8.40261 12.606 8.70361 12.758 8.56261 13.348C8.44861 13.822 8.41661 14.114 8.17261 14.537C8.09661 14.666 8.45461 15.494 8.57261 15.613C8.93361 15.973 9.29161 16.304 9.68461 16.629C10.2936 17.132 9.62461 17.787 9.33461 18.51ZM16.4316 16.06C15.2204 17.2777 13.6691 18.1004 11.9816 18.42C12.2086 17.8687 12.5707 17.3835 13.0346 17.009C13.3756 16.746 13.8026 16.239 13.9816 15.839C14.1596 15.438 14.3956 15.09 14.6336 14.722C14.9736 14.198 13.7966 13.408 13.4146 13.242C12.5566 12.869 11.9106 12.367 11.1476 11.83C10.6046 11.447 9.50061 12.03 8.88761 11.762C8.04661 11.395 7.35461 10.757 6.62361 10.207C5.86961 9.639 5.90661 8.977 5.90661 8.14C6.49661 8.162 7.33661 7.976 7.72861 8.451C7.85261 8.601 8.27861 9.271 8.56261 9.033C8.79561 8.838 8.39061 8.059 8.31261 7.876C8.07161 7.313 8.86061 7.093 9.26361 6.711C9.79061 6.213 10.9216 5.431 10.8316 5.074C10.7426 4.717 9.70161 3.705 9.08961 3.864C8.99761 3.887 8.18961 4.734 8.03461 4.866L8.04661 4.037C8.04961 3.863 7.72161 3.684 7.73661 3.571C7.77561 3.287 8.56661 2.771 8.76361 2.545C8.62561 2.458 8.15461 2.054 8.01261 2.113C7.66761 2.257 7.27761 2.356 6.93261 2.5C6.93261 2.38 6.91861 2.268 6.90161 2.157C7.59608 1.84988 8.32861 1.63732 9.07961 1.525L9.75661 1.797L10.2346 2.364L10.7116 2.856L11.1286 2.99L11.7916 2.366L11.6206 1.92V1.519C12.9306 1.709 14.1676 2.198 15.2506 2.951C15.0576 2.969 14.8446 2.997 14.6046 3.028C14.5046 2.969 14.3776 2.943 14.2696 2.902C14.5836 3.577 14.9106 4.242 15.2436 4.909C15.5986 5.62 16.3876 6.384 16.5256 7.135C16.6896 8.02 16.5756 8.825 16.6656 9.866C16.7516 10.869 17.7956 12.009 17.7956 12.009C17.7956 12.009 18.2786 12.173 18.6796 12.116C18.301 13.6102 17.524 14.9736 16.4316 16.061V16.06Z" fill="#FDFDFD"/>
</svg>
