<svg width="27" height="27" viewBox="0 0 27 27" fill="none" xmlns="http://www.w3.org/2000/svg">
<path d="M18.4067 19.9873V22.0269C18.4067 24.2761 16.5769 26.1059 14.3277 26.1059H4.07905C1.8298 26.1059 0 24.2761 0 22.0269V4.07905C0 1.8298 1.8298 0 4.07905 0H14.3277C16.5769 0 18.4067 1.8298 18.4067 4.07905V6.11857C18.4067 6.68183 17.9502 7.13833 17.3869 7.13833C16.8237 7.13833 16.3672 6.68183 16.3672 6.11857V4.07905C16.3672 2.95452 15.4522 2.03952 14.3277 2.03952H4.07905C2.95452 2.03952 2.03952 2.95452 2.03952 4.07905V22.0269C2.03952 23.1514 2.95452 24.0664 4.07905 24.0664H14.3277C15.4522 24.0664 16.3672 23.1514 16.3672 22.0269V19.9873C16.3672 19.4241 16.8237 18.9676 17.3869 18.9676C17.9502 18.9676 18.4067 19.4241 18.4067 19.9873ZM25.3592 11.3012L23.0757 9.01772C22.6774 8.61938 22.0316 8.61938 21.6335 9.01772C21.2351 9.41587 21.2351 10.0616 21.6335 10.4597L23.2577 12.0842H11.0134C10.4502 12.0842 9.99367 12.5407 9.99367 13.1039C9.99367 13.6672 10.4502 14.1237 11.0134 14.1237H23.2577L21.6335 15.7482C21.2351 16.1463 21.2351 16.792 21.6335 17.1902C21.8327 17.3893 22.0936 17.4889 22.3545 17.4889C22.6156 17.4889 22.8765 17.3893 23.0757 17.1902L25.3592 14.9066C26.3533 13.9126 26.3533 12.2953 25.3592 11.3012Z" fill="white"/>
</svg>
