<svg width="21" height="20" viewBox="0 0 21 20" fill="none" xmlns="http://www.w3.org/2000/svg">
<path d="M10.3711 0C4.84809 0 0.371094 4.477 0.371094 10C0.371094 15.523 4.84809 20 10.3711 20C15.8941 20 20.3711 15.523 20.3711 10C20.3711 4.477 15.8941 0 10.3711 0ZM9.33509 18.51C7.43192 18.2827 5.66126 17.4194 4.31009 16.06C3.51186 15.266 2.87901 14.3216 2.44817 13.2814C2.01733 12.2412 1.79705 11.1259 1.80009 10C1.80009 7.939 2.52209 5.99 3.84809 4.44C3.88209 4.849 3.96609 5.288 3.94509 5.602C3.86509 6.746 3.75309 7.462 4.42209 8.427C4.68309 8.803 4.74709 9.342 4.87409 9.777C4.99909 10.202 5.49409 10.426 5.83709 10.687C6.52709 11.217 7.18709 11.832 7.92009 12.298C8.40309 12.606 8.70409 12.758 8.56309 13.348C8.44909 13.822 8.41709 14.114 8.17309 14.537C8.09709 14.666 8.45509 15.494 8.57309 15.613C8.93409 15.973 9.29209 16.304 9.68509 16.629C10.2941 17.132 9.62509 17.787 9.33509 18.51ZM16.4321 16.06C15.2209 17.2777 13.6696 18.1004 11.9821 18.42C12.209 17.8687 12.5712 17.3835 13.0351 17.009C13.3761 16.746 13.8031 16.239 13.9821 15.839C14.1601 15.438 14.3961 15.09 14.6341 14.722C14.9741 14.198 13.7971 13.408 13.4151 13.242C12.5571 12.869 11.9111 12.367 11.1481 11.83C10.6051 11.447 9.50109 12.03 8.88809 11.762C8.04709 11.395 7.35509 10.757 6.62409 10.207C5.87009 9.639 5.90709 8.977 5.90709 8.14C6.49709 8.162 7.33709 7.976 7.72909 8.451C7.85309 8.601 8.27909 9.271 8.56309 9.033C8.79609 8.838 8.39109 8.059 8.31309 7.876C8.07209 7.313 8.86109 7.093 9.26409 6.711C9.79109 6.213 10.9221 5.431 10.8321 5.074C10.7431 4.717 9.70209 3.705 9.09009 3.864C8.99809 3.887 8.19009 4.734 8.03509 4.866L8.04709 4.037C8.05009 3.863 7.72209 3.684 7.73709 3.571C7.77609 3.287 8.56709 2.771 8.76409 2.545C8.62609 2.458 8.15509 2.054 8.01309 2.113C7.66809 2.257 7.27809 2.356 6.93309 2.5C6.93309 2.38 6.91909 2.268 6.90209 2.157C7.59656 1.84988 8.3291 1.63732 9.08009 1.525L9.75709 1.797L10.2351 2.364L10.7121 2.856L11.1291 2.99L11.7921 2.366L11.6211 1.92V1.519C12.9311 1.709 14.1681 2.198 15.2511 2.951C15.0581 2.969 14.8451 2.997 14.6051 3.028C14.5051 2.969 14.3781 2.943 14.2701 2.902C14.5841 3.577 14.9111 4.242 15.2441 4.909C15.5991 5.62 16.3881 6.384 16.5261 7.135C16.6901 8.02 16.5761 8.825 16.6661 9.866C16.7521 10.869 17.7961 12.009 17.7961 12.009C17.7961 12.009 18.2791 12.173 18.6801 12.116C18.3015 13.6102 17.5245 14.9736 16.4321 16.061V16.06Z" fill="#FDFDFD"/>
</svg>
