<svg width="21" height="21" viewBox="0 0 21 21" fill="none" xmlns="http://www.w3.org/2000/svg">
<path d="M10.8706 0.233643C5.34761 0.233643 0.870605 4.71064 0.870605 10.2336C0.870605 15.7566 5.34761 20.2336 10.8706 20.2336C16.3936 20.2336 20.8706 15.7566 20.8706 10.2336C20.8706 4.71064 16.3936 0.233643 10.8706 0.233643ZM9.83461 18.7436C7.93143 18.5164 6.16077 17.6531 4.80961 16.2936C4.01137 15.4996 3.37852 14.5552 2.94768 13.515C2.51684 12.4748 2.29657 11.3595 2.29961 10.2336C2.29961 8.17264 3.02161 6.22364 4.34761 4.67364C4.38161 5.08264 4.46561 5.52164 4.44461 5.83564C4.36461 6.97964 4.25261 7.69564 4.92161 8.66064C5.18261 9.03664 5.24661 9.57564 5.37361 10.0106C5.49861 10.4356 5.99361 10.6596 6.33661 10.9206C7.02661 11.4506 7.68661 12.0656 8.41961 12.5316C8.90261 12.8396 9.20361 12.9916 9.06261 13.5816C8.94861 14.0556 8.91661 14.3476 8.67261 14.7706C8.59661 14.8996 8.95461 15.7276 9.07261 15.8466C9.43361 16.2066 9.79161 16.5376 10.1846 16.8626C10.7936 17.3656 10.1246 18.0206 9.83461 18.7436ZM16.9316 16.2936C15.7204 17.5113 14.1691 18.3341 12.4816 18.6536C12.7086 18.1024 13.0707 17.6171 13.5346 17.2426C13.8756 16.9796 14.3026 16.4726 14.4816 16.0726C14.6596 15.6716 14.8956 15.3236 15.1336 14.9556C15.4736 14.4316 14.2966 13.6416 13.9146 13.4756C13.0566 13.1026 12.4106 12.6006 11.6476 12.0636C11.1046 11.6806 10.0006 12.2636 9.38761 11.9956C8.54661 11.6286 7.85461 10.9906 7.12361 10.4406C6.36961 9.87264 6.40661 9.21064 6.40661 8.37364C6.99661 8.39564 7.83661 8.20964 8.22861 8.68464C8.35261 8.83464 8.77861 9.50464 9.06261 9.26664C9.29561 9.07164 8.89061 8.29264 8.81261 8.10964C8.57161 7.54664 9.36061 7.32664 9.76361 6.94464C10.2906 6.44664 11.4216 5.66464 11.3316 5.30764C11.2426 4.95064 10.2016 3.93864 9.58961 4.09764C9.49761 4.12064 8.68961 4.96764 8.53461 5.09964L8.54661 4.27064C8.54961 4.09664 8.22161 3.91764 8.23661 3.80464C8.27561 3.52064 9.06661 3.00464 9.26361 2.77864C9.12561 2.69164 8.65461 2.28764 8.51261 2.34664C8.16761 2.49064 7.77761 2.58964 7.43261 2.73364C7.43261 2.61364 7.41861 2.50164 7.40161 2.39064C8.09608 2.08352 8.82861 1.87096 9.57961 1.75864L10.2566 2.03064L10.7346 2.59764L11.2116 3.08964L11.6286 3.22364L12.2916 2.59964L12.1206 2.15364V1.75264C13.4306 1.94264 14.6676 2.43164 15.7506 3.18464C15.5576 3.20264 15.3446 3.23064 15.1046 3.26164C15.0046 3.20264 14.8776 3.17664 14.7696 3.13564C15.0836 3.81064 15.4106 4.47564 15.7436 5.14264C16.0986 5.85364 16.8876 6.61764 17.0256 7.36864C17.1896 8.25364 17.0756 9.05864 17.1656 10.0996C17.2516 11.1026 18.2956 12.2426 18.2956 12.2426C18.2956 12.2426 18.7786 12.4066 19.1796 12.3496C18.801 13.8438 18.024 15.2072 16.9316 16.2946V16.2936Z" fill="#FDFDFD"/>
</svg>
