<svg width="22" height="22" viewBox="0 0 22 22" fill="none" xmlns="http://www.w3.org/2000/svg">
<path fill-rule="evenodd" clip-rule="evenodd" d="M0.5 1.51613C0.5 0.954936 0.861616 0.5 1.30769 0.5H20.6923C21.1384 0.5 21.5 0.954936 21.5 1.51613C21.5 2.07732 21.1384 2.53226 20.6923 2.53226H1.30769C0.861616 2.53226 0.5 2.07732 0.5 1.51613ZM0.5 11C0.5 10.4388 0.861616 9.98387 1.30769 9.98387H20.6923C21.1384 9.98387 21.5 10.4388 21.5 11C21.5 11.5612 21.1384 12.0161 20.6923 12.0161H1.30769C0.861616 12.0161 0.5 11.5612 0.5 11ZM0.5 20.4839C0.5 19.9227 0.861616 19.4677 1.30769 19.4677H20.6923C21.1384 19.4677 21.5 19.9227 21.5 20.4839C21.5 21.0451 21.1384 21.5 20.6923 21.5H1.30769C0.861616 21.5 0.5 21.0451 0.5 20.4839Z" fill="white"/>
</svg>
