<svg width="21" height="20" viewBox="0 0 21 20" fill="none" xmlns="http://www.w3.org/2000/svg">
<path d="M10.53 0C5.00703 0 0.530029 4.477 0.530029 10C0.530029 15.523 5.00703 20 10.53 20C16.053 20 20.53 15.523 20.53 10C20.53 4.477 16.053 0 10.53 0ZM9.49403 18.51C7.59086 18.2827 5.8202 17.4194 4.46903 16.06C3.67079 15.266 3.03794 14.3216 2.6071 13.2814C2.17626 12.2412 1.95599 11.1259 1.95903 10C1.95903 7.939 2.68103 5.99 4.00703 4.44C4.04103 4.849 4.12503 5.288 4.10403 5.602C4.02403 6.746 3.91203 7.462 4.58103 8.427C4.84203 8.803 4.90603 9.342 5.03303 9.777C5.15803 10.202 5.65303 10.426 5.99603 10.687C6.68603 11.217 7.34603 11.832 8.07903 12.298C8.56203 12.606 8.86303 12.758 8.72203 13.348C8.60803 13.822 8.57603 14.114 8.33203 14.537C8.25603 14.666 8.61403 15.494 8.73203 15.613C9.09303 15.973 9.45103 16.304 9.84403 16.629C10.453 17.132 9.78403 17.787 9.49403 18.51ZM16.591 16.06C15.3798 17.2777 13.8285 18.1004 12.141 18.42C12.368 17.8687 12.7301 17.3835 13.194 17.009C13.535 16.746 13.962 16.239 14.141 15.839C14.319 15.438 14.555 15.09 14.793 14.722C15.133 14.198 13.956 13.408 13.574 13.242C12.716 12.869 12.07 12.367 11.307 11.83C10.764 11.447 9.66003 12.03 9.04703 11.762C8.20603 11.395 7.51403 10.757 6.78303 10.207C6.02903 9.639 6.06603 8.977 6.06603 8.14C6.65603 8.162 7.49603 7.976 7.88803 8.451C8.01203 8.601 8.43803 9.271 8.72203 9.033C8.95503 8.838 8.55003 8.059 8.47203 7.876C8.23103 7.313 9.02003 7.093 9.42303 6.711C9.95003 6.213 11.081 5.431 10.991 5.074C10.902 4.717 9.86103 3.705 9.24903 3.864C9.15703 3.887 8.34903 4.734 8.19403 4.866L8.20603 4.037C8.20903 3.863 7.88103 3.684 7.89603 3.571C7.93503 3.287 8.72603 2.771 8.92303 2.545C8.78503 2.458 8.31403 2.054 8.17203 2.113C7.82703 2.257 7.43703 2.356 7.09203 2.5C7.09203 2.38 7.07803 2.268 7.06103 2.157C7.7555 1.84988 8.48803 1.63732 9.23903 1.525L9.91603 1.797L10.394 2.364L10.871 2.856L11.288 2.99L11.951 2.366L11.78 1.92V1.519C13.09 1.709 14.327 2.198 15.41 2.951C15.217 2.969 15.004 2.997 14.764 3.028C14.664 2.969 14.537 2.943 14.429 2.902C14.743 3.577 15.07 4.242 15.403 4.909C15.758 5.62 16.547 6.384 16.685 7.135C16.849 8.02 16.735 8.825 16.825 9.866C16.911 10.869 17.955 12.009 17.955 12.009C17.955 12.009 18.438 12.173 18.839 12.116C18.4604 13.6102 17.6835 14.9736 16.591 16.061V16.06Z" fill="#FDFDFD"/>
</svg>
