<svg width="21" height="20" viewBox="0 0 21 20" fill="none" xmlns="http://www.w3.org/2000/svg">
<g clip-path="url(#clip0_4061_1010)">
<path d="M10.72 19C15.6905 19 19.72 14.9706 19.72 10C19.72 5.02944 15.6905 1 10.72 1C5.74941 1 1.71997 5.02944 1.71997 10C1.71997 14.9706 5.74941 19 10.72 19Z" fill="#CCCCCC" stroke="#CCCCCC"/>
<path fill-rule="evenodd" clip-rule="evenodd" d="M9.85864 14.2246H11.6047V12.5312H9.85864V14.2246ZM8.88599 5.94531C8.15356 6.4082 7.76685 7.19922 7.71997 8.3125H9.41333C9.41333 7.99023 9.50708 7.67383 9.69458 7.375C9.88794 7.07617 10.2102 6.92383 10.6614 6.92383C11.1243 6.92383 11.4407 7.04688 11.6106 7.29297C11.7864 7.5332 11.8743 7.80273 11.8743 8.10156C11.8743 8.35938 11.7981 8.59375 11.6399 8.81055C11.552 8.93359 11.4407 9.05078 11.3 9.15625L10.8723 9.49023C10.4504 9.81836 10.1868 10.1113 10.0872 10.3633C9.98755 10.6152 9.9231 11.0664 9.89966 11.7285H11.4817C11.4875 11.418 11.511 11.1836 11.5579 11.0371C11.634 10.8027 11.7805 10.5977 12.009 10.4219L12.425 10.0996C12.8469 9.77148 13.134 9.50195 13.2805 9.29102C13.5325 8.94531 13.6614 8.51758 13.6614 8.00781C13.6614 7.18164 13.3684 6.55469 12.7825 6.13281C12.2024 5.71094 11.47 5.5 10.5852 5.5C9.91138 5.5 9.34888 5.64648 8.88599 5.94531Z" fill="white"/>
</g>
<defs>
<clipPath id="clip0_4061_1010">
<rect width="20" height="20" fill="white" transform="translate(0.719971)"/>
</clipPath>
</defs>
</svg>
